%TF.GenerationSoftware,KiCad,Pcbnew,8.0.2*%
%TF.CreationDate,2024-07-16T15:49:33+02:00*%
%TF.ProjectId,4-MPPC_FARICH_Prototype,342d4d50-5043-45f4-9641-524943485f50,rev?*%
%TF.SameCoordinates,Original*%
%TF.FileFunction,Paste,Bot*%
%TF.FilePolarity,Positive*%
%FSLAX46Y46*%
G04 Gerber Fmt 4.6, Leading zero omitted, Abs format (unit mm)*
G04 Created by KiCad (PCBNEW 8.0.2) date 2024-07-16 15:49:33*
%MOMM*%
%LPD*%
G01*
G04 APERTURE LIST*
%ADD10C,0.010000*%
%ADD11R,1.200000X3.200000*%
%ADD12R,2.200000X5.600000*%
G04 APERTURE END LIST*
D10*
%TO.C,J9*%
X164610000Y-98250000D02*
X163410000Y-98250000D01*
X163410000Y-98050000D01*
X164610000Y-98050000D01*
X164610000Y-98250000D01*
G36*
X164610000Y-98250000D02*
G01*
X163410000Y-98250000D01*
X163410000Y-98050000D01*
X164610000Y-98050000D01*
X164610000Y-98250000D01*
G37*
X164610000Y-98650000D02*
X163410000Y-98650000D01*
X163410000Y-98450000D01*
X164610000Y-98450000D01*
X164610000Y-98650000D01*
G36*
X164610000Y-98650000D02*
G01*
X163410000Y-98650000D01*
X163410000Y-98450000D01*
X164610000Y-98450000D01*
X164610000Y-98650000D01*
G37*
X164610000Y-99050000D02*
X163410000Y-99050000D01*
X163410000Y-98850000D01*
X164610000Y-98850000D01*
X164610000Y-99050000D01*
G36*
X164610000Y-99050000D02*
G01*
X163410000Y-99050000D01*
X163410000Y-98850000D01*
X164610000Y-98850000D01*
X164610000Y-99050000D01*
G37*
X164610000Y-99450000D02*
X163410000Y-99450000D01*
X163410000Y-99250000D01*
X164610000Y-99250000D01*
X164610000Y-99450000D01*
G36*
X164610000Y-99450000D02*
G01*
X163410000Y-99450000D01*
X163410000Y-99250000D01*
X164610000Y-99250000D01*
X164610000Y-99450000D01*
G37*
X164610000Y-99850000D02*
X163410000Y-99850000D01*
X163410000Y-99650000D01*
X164610000Y-99650000D01*
X164610000Y-99850000D01*
G36*
X164610000Y-99850000D02*
G01*
X163410000Y-99850000D01*
X163410000Y-99650000D01*
X164610000Y-99650000D01*
X164610000Y-99850000D01*
G37*
X164610000Y-100250000D02*
X163410000Y-100250000D01*
X163410000Y-100050000D01*
X164610000Y-100050000D01*
X164610000Y-100250000D01*
G36*
X164610000Y-100250000D02*
G01*
X163410000Y-100250000D01*
X163410000Y-100050000D01*
X164610000Y-100050000D01*
X164610000Y-100250000D01*
G37*
X164610000Y-100650000D02*
X163410000Y-100650000D01*
X163410000Y-100450000D01*
X164610000Y-100450000D01*
X164610000Y-100650000D01*
G36*
X164610000Y-100650000D02*
G01*
X163410000Y-100650000D01*
X163410000Y-100450000D01*
X164610000Y-100450000D01*
X164610000Y-100650000D01*
G37*
X164610000Y-101050000D02*
X163410000Y-101050000D01*
X163410000Y-100850000D01*
X164610000Y-100850000D01*
X164610000Y-101050000D01*
G36*
X164610000Y-101050000D02*
G01*
X163410000Y-101050000D01*
X163410000Y-100850000D01*
X164610000Y-100850000D01*
X164610000Y-101050000D01*
G37*
X164610000Y-101450000D02*
X163410000Y-101450000D01*
X163410000Y-101250000D01*
X164610000Y-101250000D01*
X164610000Y-101450000D01*
G36*
X164610000Y-101450000D02*
G01*
X163410000Y-101450000D01*
X163410000Y-101250000D01*
X164610000Y-101250000D01*
X164610000Y-101450000D01*
G37*
X164610000Y-101850000D02*
X163410000Y-101850000D01*
X163410000Y-101650000D01*
X164610000Y-101650000D01*
X164610000Y-101850000D01*
G36*
X164610000Y-101850000D02*
G01*
X163410000Y-101850000D01*
X163410000Y-101650000D01*
X164610000Y-101650000D01*
X164610000Y-101850000D01*
G37*
X164610000Y-102250000D02*
X163410000Y-102250000D01*
X163410000Y-102050000D01*
X164610000Y-102050000D01*
X164610000Y-102250000D01*
G36*
X164610000Y-102250000D02*
G01*
X163410000Y-102250000D01*
X163410000Y-102050000D01*
X164610000Y-102050000D01*
X164610000Y-102250000D01*
G37*
X164610000Y-102650000D02*
X163410000Y-102650000D01*
X163410000Y-102450000D01*
X164610000Y-102450000D01*
X164610000Y-102650000D01*
G36*
X164610000Y-102650000D02*
G01*
X163410000Y-102650000D01*
X163410000Y-102450000D01*
X164610000Y-102450000D01*
X164610000Y-102650000D01*
G37*
X164610000Y-103050000D02*
X163410000Y-103050000D01*
X163410000Y-102850000D01*
X164610000Y-102850000D01*
X164610000Y-103050000D01*
G36*
X164610000Y-103050000D02*
G01*
X163410000Y-103050000D01*
X163410000Y-102850000D01*
X164610000Y-102850000D01*
X164610000Y-103050000D01*
G37*
X164610000Y-103450000D02*
X163410000Y-103450000D01*
X163410000Y-103250000D01*
X164610000Y-103250000D01*
X164610000Y-103450000D01*
G36*
X164610000Y-103450000D02*
G01*
X163410000Y-103450000D01*
X163410000Y-103250000D01*
X164610000Y-103250000D01*
X164610000Y-103450000D01*
G37*
X164610000Y-103850000D02*
X163410000Y-103850000D01*
X163410000Y-103650000D01*
X164610000Y-103650000D01*
X164610000Y-103850000D01*
G36*
X164610000Y-103850000D02*
G01*
X163410000Y-103850000D01*
X163410000Y-103650000D01*
X164610000Y-103650000D01*
X164610000Y-103850000D01*
G37*
X164610000Y-104250000D02*
X163410000Y-104250000D01*
X163410000Y-104050000D01*
X164610000Y-104050000D01*
X164610000Y-104250000D01*
G36*
X164610000Y-104250000D02*
G01*
X163410000Y-104250000D01*
X163410000Y-104050000D01*
X164610000Y-104050000D01*
X164610000Y-104250000D01*
G37*
X164610000Y-104650000D02*
X163410000Y-104650000D01*
X163410000Y-104450000D01*
X164610000Y-104450000D01*
X164610000Y-104650000D01*
G36*
X164610000Y-104650000D02*
G01*
X163410000Y-104650000D01*
X163410000Y-104450000D01*
X164610000Y-104450000D01*
X164610000Y-104650000D01*
G37*
X164610000Y-105050000D02*
X163410000Y-105050000D01*
X163410000Y-104850000D01*
X164610000Y-104850000D01*
X164610000Y-105050000D01*
G36*
X164610000Y-105050000D02*
G01*
X163410000Y-105050000D01*
X163410000Y-104850000D01*
X164610000Y-104850000D01*
X164610000Y-105050000D01*
G37*
X164610000Y-105450000D02*
X163410000Y-105450000D01*
X163410000Y-105250000D01*
X164610000Y-105250000D01*
X164610000Y-105450000D01*
G36*
X164610000Y-105450000D02*
G01*
X163410000Y-105450000D01*
X163410000Y-105250000D01*
X164610000Y-105250000D01*
X164610000Y-105450000D01*
G37*
X164610000Y-105850000D02*
X163410000Y-105850000D01*
X163410000Y-105650000D01*
X164610000Y-105650000D01*
X164610000Y-105850000D01*
G36*
X164610000Y-105850000D02*
G01*
X163410000Y-105850000D01*
X163410000Y-105650000D01*
X164610000Y-105650000D01*
X164610000Y-105850000D01*
G37*
X164610000Y-106250000D02*
X163410000Y-106250000D01*
X163410000Y-106050000D01*
X164610000Y-106050000D01*
X164610000Y-106250000D01*
G36*
X164610000Y-106250000D02*
G01*
X163410000Y-106250000D01*
X163410000Y-106050000D01*
X164610000Y-106050000D01*
X164610000Y-106250000D01*
G37*
X164610000Y-106650000D02*
X163410000Y-106650000D01*
X163410000Y-106450000D01*
X164610000Y-106450000D01*
X164610000Y-106650000D01*
G36*
X164610000Y-106650000D02*
G01*
X163410000Y-106650000D01*
X163410000Y-106450000D01*
X164610000Y-106450000D01*
X164610000Y-106650000D01*
G37*
X164610000Y-107050000D02*
X163410000Y-107050000D01*
X163410000Y-106850000D01*
X164610000Y-106850000D01*
X164610000Y-107050000D01*
G36*
X164610000Y-107050000D02*
G01*
X163410000Y-107050000D01*
X163410000Y-106850000D01*
X164610000Y-106850000D01*
X164610000Y-107050000D01*
G37*
X164610000Y-107450000D02*
X163410000Y-107450000D01*
X163410000Y-107250000D01*
X164610000Y-107250000D01*
X164610000Y-107450000D01*
G36*
X164610000Y-107450000D02*
G01*
X163410000Y-107450000D01*
X163410000Y-107250000D01*
X164610000Y-107250000D01*
X164610000Y-107450000D01*
G37*
X164610000Y-107850000D02*
X163410000Y-107850000D01*
X163410000Y-107650000D01*
X164610000Y-107650000D01*
X164610000Y-107850000D01*
G36*
X164610000Y-107850000D02*
G01*
X163410000Y-107850000D01*
X163410000Y-107650000D01*
X164610000Y-107650000D01*
X164610000Y-107850000D01*
G37*
X164610000Y-108250000D02*
X163410000Y-108250000D01*
X163410000Y-108050000D01*
X164610000Y-108050000D01*
X164610000Y-108250000D01*
G36*
X164610000Y-108250000D02*
G01*
X163410000Y-108250000D01*
X163410000Y-108050000D01*
X164610000Y-108050000D01*
X164610000Y-108250000D01*
G37*
X164610000Y-108650000D02*
X163410000Y-108650000D01*
X163410000Y-108450000D01*
X164610000Y-108450000D01*
X164610000Y-108650000D01*
G36*
X164610000Y-108650000D02*
G01*
X163410000Y-108650000D01*
X163410000Y-108450000D01*
X164610000Y-108450000D01*
X164610000Y-108650000D01*
G37*
X164610000Y-108650000D02*
X163410000Y-108650000D01*
X163410000Y-108450000D01*
X164610000Y-108450000D01*
X164610000Y-108650000D01*
G36*
X164610000Y-108650000D02*
G01*
X163410000Y-108650000D01*
X163410000Y-108450000D01*
X164610000Y-108450000D01*
X164610000Y-108650000D01*
G37*
X164610000Y-109050000D02*
X163410000Y-109050000D01*
X163410000Y-108850000D01*
X164610000Y-108850000D01*
X164610000Y-109050000D01*
G36*
X164610000Y-109050000D02*
G01*
X163410000Y-109050000D01*
X163410000Y-108850000D01*
X164610000Y-108850000D01*
X164610000Y-109050000D01*
G37*
X164610000Y-109450000D02*
X163410000Y-109450000D01*
X163410000Y-109250000D01*
X164610000Y-109250000D01*
X164610000Y-109450000D01*
G36*
X164610000Y-109450000D02*
G01*
X163410000Y-109450000D01*
X163410000Y-109250000D01*
X164610000Y-109250000D01*
X164610000Y-109450000D01*
G37*
X164610000Y-109850000D02*
X163410000Y-109850000D01*
X163410000Y-109650000D01*
X164610000Y-109650000D01*
X164610000Y-109850000D01*
G36*
X164610000Y-109850000D02*
G01*
X163410000Y-109850000D01*
X163410000Y-109650000D01*
X164610000Y-109650000D01*
X164610000Y-109850000D01*
G37*
X164610000Y-110250000D02*
X163410000Y-110250000D01*
X163410000Y-110050000D01*
X164610000Y-110050000D01*
X164610000Y-110250000D01*
G36*
X164610000Y-110250000D02*
G01*
X163410000Y-110250000D01*
X163410000Y-110050000D01*
X164610000Y-110050000D01*
X164610000Y-110250000D01*
G37*
X164610000Y-110650000D02*
X163410000Y-110650000D01*
X163410000Y-110450000D01*
X164610000Y-110450000D01*
X164610000Y-110650000D01*
G36*
X164610000Y-110650000D02*
G01*
X163410000Y-110650000D01*
X163410000Y-110450000D01*
X164610000Y-110450000D01*
X164610000Y-110650000D01*
G37*
X164610000Y-111050000D02*
X163410000Y-111050000D01*
X163410000Y-110850000D01*
X164610000Y-110850000D01*
X164610000Y-111050000D01*
G36*
X164610000Y-111050000D02*
G01*
X163410000Y-111050000D01*
X163410000Y-110850000D01*
X164610000Y-110850000D01*
X164610000Y-111050000D01*
G37*
X164610000Y-111450000D02*
X163410000Y-111450000D01*
X163410000Y-111250000D01*
X164610000Y-111250000D01*
X164610000Y-111450000D01*
G36*
X164610000Y-111450000D02*
G01*
X163410000Y-111450000D01*
X163410000Y-111250000D01*
X164610000Y-111250000D01*
X164610000Y-111450000D01*
G37*
X164610000Y-111850000D02*
X163410000Y-111850000D01*
X163410000Y-111650000D01*
X164610000Y-111650000D01*
X164610000Y-111850000D01*
G36*
X164610000Y-111850000D02*
G01*
X163410000Y-111850000D01*
X163410000Y-111650000D01*
X164610000Y-111650000D01*
X164610000Y-111850000D01*
G37*
X164610000Y-112250000D02*
X163410000Y-112250000D01*
X163410000Y-112050000D01*
X164610000Y-112050000D01*
X164610000Y-112250000D01*
G36*
X164610000Y-112250000D02*
G01*
X163410000Y-112250000D01*
X163410000Y-112050000D01*
X164610000Y-112050000D01*
X164610000Y-112250000D01*
G37*
X164610000Y-112250000D02*
X163410000Y-112250000D01*
X163410000Y-112050000D01*
X164610000Y-112050000D01*
X164610000Y-112250000D01*
G36*
X164610000Y-112250000D02*
G01*
X163410000Y-112250000D01*
X163410000Y-112050000D01*
X164610000Y-112050000D01*
X164610000Y-112250000D01*
G37*
X164610000Y-112650000D02*
X163410000Y-112650000D01*
X163410000Y-112450000D01*
X164610000Y-112450000D01*
X164610000Y-112650000D01*
G36*
X164610000Y-112650000D02*
G01*
X163410000Y-112650000D01*
X163410000Y-112450000D01*
X164610000Y-112450000D01*
X164610000Y-112650000D01*
G37*
X164610000Y-113050000D02*
X163410000Y-113050000D01*
X163410000Y-112850000D01*
X164610000Y-112850000D01*
X164610000Y-113050000D01*
G36*
X164610000Y-113050000D02*
G01*
X163410000Y-113050000D01*
X163410000Y-112850000D01*
X164610000Y-112850000D01*
X164610000Y-113050000D01*
G37*
X164610000Y-113450000D02*
X163410000Y-113450000D01*
X163410000Y-113250000D01*
X164610000Y-113250000D01*
X164610000Y-113450000D01*
G36*
X164610000Y-113450000D02*
G01*
X163410000Y-113450000D01*
X163410000Y-113250000D01*
X164610000Y-113250000D01*
X164610000Y-113450000D01*
G37*
X164610000Y-113850000D02*
X163410000Y-113850000D01*
X163410000Y-113650000D01*
X164610000Y-113650000D01*
X164610000Y-113850000D01*
G36*
X164610000Y-113850000D02*
G01*
X163410000Y-113850000D01*
X163410000Y-113650000D01*
X164610000Y-113650000D01*
X164610000Y-113850000D01*
G37*
X164610000Y-113850000D02*
X163410000Y-113850000D01*
X163410000Y-113650000D01*
X164610000Y-113650000D01*
X164610000Y-113850000D01*
G36*
X164610000Y-113850000D02*
G01*
X163410000Y-113850000D01*
X163410000Y-113650000D01*
X164610000Y-113650000D01*
X164610000Y-113850000D01*
G37*
X168030000Y-98250000D02*
X166830000Y-98250000D01*
X166830000Y-98050000D01*
X168030000Y-98050000D01*
X168030000Y-98250000D01*
G36*
X168030000Y-98250000D02*
G01*
X166830000Y-98250000D01*
X166830000Y-98050000D01*
X168030000Y-98050000D01*
X168030000Y-98250000D01*
G37*
X168030000Y-98250000D02*
X166830000Y-98250000D01*
X166830000Y-98050000D01*
X168030000Y-98050000D01*
X168030000Y-98250000D01*
G36*
X168030000Y-98250000D02*
G01*
X166830000Y-98250000D01*
X166830000Y-98050000D01*
X168030000Y-98050000D01*
X168030000Y-98250000D01*
G37*
X168030000Y-98650000D02*
X166830000Y-98650000D01*
X166830000Y-98450000D01*
X168030000Y-98450000D01*
X168030000Y-98650000D01*
G36*
X168030000Y-98650000D02*
G01*
X166830000Y-98650000D01*
X166830000Y-98450000D01*
X168030000Y-98450000D01*
X168030000Y-98650000D01*
G37*
X168030000Y-99050000D02*
X166830000Y-99050000D01*
X166830000Y-98850000D01*
X168030000Y-98850000D01*
X168030000Y-99050000D01*
G36*
X168030000Y-99050000D02*
G01*
X166830000Y-99050000D01*
X166830000Y-98850000D01*
X168030000Y-98850000D01*
X168030000Y-99050000D01*
G37*
X168030000Y-99450000D02*
X166830000Y-99450000D01*
X166830000Y-99250000D01*
X168030000Y-99250000D01*
X168030000Y-99450000D01*
G36*
X168030000Y-99450000D02*
G01*
X166830000Y-99450000D01*
X166830000Y-99250000D01*
X168030000Y-99250000D01*
X168030000Y-99450000D01*
G37*
X168030000Y-99850000D02*
X166830000Y-99850000D01*
X166830000Y-99650000D01*
X168030000Y-99650000D01*
X168030000Y-99850000D01*
G36*
X168030000Y-99850000D02*
G01*
X166830000Y-99850000D01*
X166830000Y-99650000D01*
X168030000Y-99650000D01*
X168030000Y-99850000D01*
G37*
X168030000Y-99850000D02*
X166830000Y-99850000D01*
X166830000Y-99650000D01*
X168030000Y-99650000D01*
X168030000Y-99850000D01*
G36*
X168030000Y-99850000D02*
G01*
X166830000Y-99850000D01*
X166830000Y-99650000D01*
X168030000Y-99650000D01*
X168030000Y-99850000D01*
G37*
X168030000Y-100250000D02*
X166830000Y-100250000D01*
X166830000Y-100050000D01*
X168030000Y-100050000D01*
X168030000Y-100250000D01*
G36*
X168030000Y-100250000D02*
G01*
X166830000Y-100250000D01*
X166830000Y-100050000D01*
X168030000Y-100050000D01*
X168030000Y-100250000D01*
G37*
X168030000Y-100650000D02*
X166830000Y-100650000D01*
X166830000Y-100450000D01*
X168030000Y-100450000D01*
X168030000Y-100650000D01*
G36*
X168030000Y-100650000D02*
G01*
X166830000Y-100650000D01*
X166830000Y-100450000D01*
X168030000Y-100450000D01*
X168030000Y-100650000D01*
G37*
X168030000Y-101050000D02*
X166830000Y-101050000D01*
X166830000Y-100850000D01*
X168030000Y-100850000D01*
X168030000Y-101050000D01*
G36*
X168030000Y-101050000D02*
G01*
X166830000Y-101050000D01*
X166830000Y-100850000D01*
X168030000Y-100850000D01*
X168030000Y-101050000D01*
G37*
X168030000Y-101450000D02*
X166830000Y-101450000D01*
X166830000Y-101250000D01*
X168030000Y-101250000D01*
X168030000Y-101450000D01*
G36*
X168030000Y-101450000D02*
G01*
X166830000Y-101450000D01*
X166830000Y-101250000D01*
X168030000Y-101250000D01*
X168030000Y-101450000D01*
G37*
X168030000Y-101850000D02*
X166830000Y-101850000D01*
X166830000Y-101650000D01*
X168030000Y-101650000D01*
X168030000Y-101850000D01*
G36*
X168030000Y-101850000D02*
G01*
X166830000Y-101850000D01*
X166830000Y-101650000D01*
X168030000Y-101650000D01*
X168030000Y-101850000D01*
G37*
X168030000Y-102250000D02*
X166830000Y-102250000D01*
X166830000Y-102050000D01*
X168030000Y-102050000D01*
X168030000Y-102250000D01*
G36*
X168030000Y-102250000D02*
G01*
X166830000Y-102250000D01*
X166830000Y-102050000D01*
X168030000Y-102050000D01*
X168030000Y-102250000D01*
G37*
X168030000Y-102650000D02*
X166830000Y-102650000D01*
X166830000Y-102450000D01*
X168030000Y-102450000D01*
X168030000Y-102650000D01*
G36*
X168030000Y-102650000D02*
G01*
X166830000Y-102650000D01*
X166830000Y-102450000D01*
X168030000Y-102450000D01*
X168030000Y-102650000D01*
G37*
X168030000Y-103050000D02*
X166830000Y-103050000D01*
X166830000Y-102850000D01*
X168030000Y-102850000D01*
X168030000Y-103050000D01*
G36*
X168030000Y-103050000D02*
G01*
X166830000Y-103050000D01*
X166830000Y-102850000D01*
X168030000Y-102850000D01*
X168030000Y-103050000D01*
G37*
X168030000Y-103450000D02*
X166830000Y-103450000D01*
X166830000Y-103250000D01*
X168030000Y-103250000D01*
X168030000Y-103450000D01*
G36*
X168030000Y-103450000D02*
G01*
X166830000Y-103450000D01*
X166830000Y-103250000D01*
X168030000Y-103250000D01*
X168030000Y-103450000D01*
G37*
X168030000Y-103450000D02*
X166830000Y-103450000D01*
X166830000Y-103250000D01*
X168030000Y-103250000D01*
X168030000Y-103450000D01*
G36*
X168030000Y-103450000D02*
G01*
X166830000Y-103450000D01*
X166830000Y-103250000D01*
X168030000Y-103250000D01*
X168030000Y-103450000D01*
G37*
X168030000Y-103850000D02*
X166830000Y-103850000D01*
X166830000Y-103650000D01*
X168030000Y-103650000D01*
X168030000Y-103850000D01*
G36*
X168030000Y-103850000D02*
G01*
X166830000Y-103850000D01*
X166830000Y-103650000D01*
X168030000Y-103650000D01*
X168030000Y-103850000D01*
G37*
X168030000Y-104250000D02*
X166830000Y-104250000D01*
X166830000Y-104050000D01*
X168030000Y-104050000D01*
X168030000Y-104250000D01*
G36*
X168030000Y-104250000D02*
G01*
X166830000Y-104250000D01*
X166830000Y-104050000D01*
X168030000Y-104050000D01*
X168030000Y-104250000D01*
G37*
X168030000Y-104650000D02*
X166830000Y-104650000D01*
X166830000Y-104450000D01*
X168030000Y-104450000D01*
X168030000Y-104650000D01*
G36*
X168030000Y-104650000D02*
G01*
X166830000Y-104650000D01*
X166830000Y-104450000D01*
X168030000Y-104450000D01*
X168030000Y-104650000D01*
G37*
X168030000Y-105050000D02*
X166830000Y-105050000D01*
X166830000Y-104850000D01*
X168030000Y-104850000D01*
X168030000Y-105050000D01*
G36*
X168030000Y-105050000D02*
G01*
X166830000Y-105050000D01*
X166830000Y-104850000D01*
X168030000Y-104850000D01*
X168030000Y-105050000D01*
G37*
X168030000Y-105450000D02*
X166830000Y-105450000D01*
X166830000Y-105250000D01*
X168030000Y-105250000D01*
X168030000Y-105450000D01*
G36*
X168030000Y-105450000D02*
G01*
X166830000Y-105450000D01*
X166830000Y-105250000D01*
X168030000Y-105250000D01*
X168030000Y-105450000D01*
G37*
X168030000Y-105850000D02*
X166830000Y-105850000D01*
X166830000Y-105650000D01*
X168030000Y-105650000D01*
X168030000Y-105850000D01*
G36*
X168030000Y-105850000D02*
G01*
X166830000Y-105850000D01*
X166830000Y-105650000D01*
X168030000Y-105650000D01*
X168030000Y-105850000D01*
G37*
X168030000Y-106250000D02*
X166830000Y-106250000D01*
X166830000Y-106050000D01*
X168030000Y-106050000D01*
X168030000Y-106250000D01*
G36*
X168030000Y-106250000D02*
G01*
X166830000Y-106250000D01*
X166830000Y-106050000D01*
X168030000Y-106050000D01*
X168030000Y-106250000D01*
G37*
X168030000Y-106650000D02*
X166830000Y-106650000D01*
X166830000Y-106450000D01*
X168030000Y-106450000D01*
X168030000Y-106650000D01*
G36*
X168030000Y-106650000D02*
G01*
X166830000Y-106650000D01*
X166830000Y-106450000D01*
X168030000Y-106450000D01*
X168030000Y-106650000D01*
G37*
X168030000Y-107050000D02*
X166830000Y-107050000D01*
X166830000Y-106850000D01*
X168030000Y-106850000D01*
X168030000Y-107050000D01*
G36*
X168030000Y-107050000D02*
G01*
X166830000Y-107050000D01*
X166830000Y-106850000D01*
X168030000Y-106850000D01*
X168030000Y-107050000D01*
G37*
X168030000Y-107450000D02*
X166830000Y-107450000D01*
X166830000Y-107250000D01*
X168030000Y-107250000D01*
X168030000Y-107450000D01*
G36*
X168030000Y-107450000D02*
G01*
X166830000Y-107450000D01*
X166830000Y-107250000D01*
X168030000Y-107250000D01*
X168030000Y-107450000D01*
G37*
X168030000Y-107850000D02*
X166830000Y-107850000D01*
X166830000Y-107650000D01*
X168030000Y-107650000D01*
X168030000Y-107850000D01*
G36*
X168030000Y-107850000D02*
G01*
X166830000Y-107850000D01*
X166830000Y-107650000D01*
X168030000Y-107650000D01*
X168030000Y-107850000D01*
G37*
X168030000Y-108250000D02*
X166830000Y-108250000D01*
X166830000Y-108050000D01*
X168030000Y-108050000D01*
X168030000Y-108250000D01*
G36*
X168030000Y-108250000D02*
G01*
X166830000Y-108250000D01*
X166830000Y-108050000D01*
X168030000Y-108050000D01*
X168030000Y-108250000D01*
G37*
X168030000Y-108650000D02*
X166830000Y-108650000D01*
X166830000Y-108450000D01*
X168030000Y-108450000D01*
X168030000Y-108650000D01*
G36*
X168030000Y-108650000D02*
G01*
X166830000Y-108650000D01*
X166830000Y-108450000D01*
X168030000Y-108450000D01*
X168030000Y-108650000D01*
G37*
X168030000Y-109050000D02*
X166830000Y-109050000D01*
X166830000Y-108850000D01*
X168030000Y-108850000D01*
X168030000Y-109050000D01*
G36*
X168030000Y-109050000D02*
G01*
X166830000Y-109050000D01*
X166830000Y-108850000D01*
X168030000Y-108850000D01*
X168030000Y-109050000D01*
G37*
X168030000Y-109450000D02*
X166830000Y-109450000D01*
X166830000Y-109250000D01*
X168030000Y-109250000D01*
X168030000Y-109450000D01*
G36*
X168030000Y-109450000D02*
G01*
X166830000Y-109450000D01*
X166830000Y-109250000D01*
X168030000Y-109250000D01*
X168030000Y-109450000D01*
G37*
X168030000Y-109850000D02*
X166830000Y-109850000D01*
X166830000Y-109650000D01*
X168030000Y-109650000D01*
X168030000Y-109850000D01*
G36*
X168030000Y-109850000D02*
G01*
X166830000Y-109850000D01*
X166830000Y-109650000D01*
X168030000Y-109650000D01*
X168030000Y-109850000D01*
G37*
X168030000Y-110250000D02*
X166830000Y-110250000D01*
X166830000Y-110050000D01*
X168030000Y-110050000D01*
X168030000Y-110250000D01*
G36*
X168030000Y-110250000D02*
G01*
X166830000Y-110250000D01*
X166830000Y-110050000D01*
X168030000Y-110050000D01*
X168030000Y-110250000D01*
G37*
X168030000Y-110650000D02*
X166830000Y-110650000D01*
X166830000Y-110450000D01*
X168030000Y-110450000D01*
X168030000Y-110650000D01*
G36*
X168030000Y-110650000D02*
G01*
X166830000Y-110650000D01*
X166830000Y-110450000D01*
X168030000Y-110450000D01*
X168030000Y-110650000D01*
G37*
X168030000Y-111050000D02*
X166830000Y-111050000D01*
X166830000Y-110850000D01*
X168030000Y-110850000D01*
X168030000Y-111050000D01*
G36*
X168030000Y-111050000D02*
G01*
X166830000Y-111050000D01*
X166830000Y-110850000D01*
X168030000Y-110850000D01*
X168030000Y-111050000D01*
G37*
X168030000Y-111450000D02*
X166830000Y-111450000D01*
X166830000Y-111250000D01*
X168030000Y-111250000D01*
X168030000Y-111450000D01*
G36*
X168030000Y-111450000D02*
G01*
X166830000Y-111450000D01*
X166830000Y-111250000D01*
X168030000Y-111250000D01*
X168030000Y-111450000D01*
G37*
X168030000Y-111850000D02*
X166830000Y-111850000D01*
X166830000Y-111650000D01*
X168030000Y-111650000D01*
X168030000Y-111850000D01*
G36*
X168030000Y-111850000D02*
G01*
X166830000Y-111850000D01*
X166830000Y-111650000D01*
X168030000Y-111650000D01*
X168030000Y-111850000D01*
G37*
X168030000Y-112250000D02*
X166830000Y-112250000D01*
X166830000Y-112050000D01*
X168030000Y-112050000D01*
X168030000Y-112250000D01*
G36*
X168030000Y-112250000D02*
G01*
X166830000Y-112250000D01*
X166830000Y-112050000D01*
X168030000Y-112050000D01*
X168030000Y-112250000D01*
G37*
X168030000Y-112650000D02*
X166830000Y-112650000D01*
X166830000Y-112450000D01*
X168030000Y-112450000D01*
X168030000Y-112650000D01*
G36*
X168030000Y-112650000D02*
G01*
X166830000Y-112650000D01*
X166830000Y-112450000D01*
X168030000Y-112450000D01*
X168030000Y-112650000D01*
G37*
X168030000Y-113050000D02*
X166830000Y-113050000D01*
X166830000Y-112850000D01*
X168030000Y-112850000D01*
X168030000Y-113050000D01*
G36*
X168030000Y-113050000D02*
G01*
X166830000Y-113050000D01*
X166830000Y-112850000D01*
X168030000Y-112850000D01*
X168030000Y-113050000D01*
G37*
X168030000Y-113450000D02*
X166830000Y-113450000D01*
X166830000Y-113250000D01*
X168030000Y-113250000D01*
X168030000Y-113450000D01*
G36*
X168030000Y-113450000D02*
G01*
X166830000Y-113450000D01*
X166830000Y-113250000D01*
X168030000Y-113250000D01*
X168030000Y-113450000D01*
G37*
X168030000Y-113850000D02*
X166830000Y-113850000D01*
X166830000Y-113650000D01*
X168030000Y-113650000D01*
X168030000Y-113850000D01*
G36*
X168030000Y-113850000D02*
G01*
X166830000Y-113850000D01*
X166830000Y-113650000D01*
X168030000Y-113650000D01*
X168030000Y-113850000D01*
G37*
%TO.C,J7*%
X151810000Y-98250000D02*
X150610000Y-98250000D01*
X150610000Y-98050000D01*
X151810000Y-98050000D01*
X151810000Y-98250000D01*
G36*
X151810000Y-98250000D02*
G01*
X150610000Y-98250000D01*
X150610000Y-98050000D01*
X151810000Y-98050000D01*
X151810000Y-98250000D01*
G37*
X151810000Y-98650000D02*
X150610000Y-98650000D01*
X150610000Y-98450000D01*
X151810000Y-98450000D01*
X151810000Y-98650000D01*
G36*
X151810000Y-98650000D02*
G01*
X150610000Y-98650000D01*
X150610000Y-98450000D01*
X151810000Y-98450000D01*
X151810000Y-98650000D01*
G37*
X151810000Y-99050000D02*
X150610000Y-99050000D01*
X150610000Y-98850000D01*
X151810000Y-98850000D01*
X151810000Y-99050000D01*
G36*
X151810000Y-99050000D02*
G01*
X150610000Y-99050000D01*
X150610000Y-98850000D01*
X151810000Y-98850000D01*
X151810000Y-99050000D01*
G37*
X151810000Y-99450000D02*
X150610000Y-99450000D01*
X150610000Y-99250000D01*
X151810000Y-99250000D01*
X151810000Y-99450000D01*
G36*
X151810000Y-99450000D02*
G01*
X150610000Y-99450000D01*
X150610000Y-99250000D01*
X151810000Y-99250000D01*
X151810000Y-99450000D01*
G37*
X151810000Y-99850000D02*
X150610000Y-99850000D01*
X150610000Y-99650000D01*
X151810000Y-99650000D01*
X151810000Y-99850000D01*
G36*
X151810000Y-99850000D02*
G01*
X150610000Y-99850000D01*
X150610000Y-99650000D01*
X151810000Y-99650000D01*
X151810000Y-99850000D01*
G37*
X151810000Y-100250000D02*
X150610000Y-100250000D01*
X150610000Y-100050000D01*
X151810000Y-100050000D01*
X151810000Y-100250000D01*
G36*
X151810000Y-100250000D02*
G01*
X150610000Y-100250000D01*
X150610000Y-100050000D01*
X151810000Y-100050000D01*
X151810000Y-100250000D01*
G37*
X151810000Y-100650000D02*
X150610000Y-100650000D01*
X150610000Y-100450000D01*
X151810000Y-100450000D01*
X151810000Y-100650000D01*
G36*
X151810000Y-100650000D02*
G01*
X150610000Y-100650000D01*
X150610000Y-100450000D01*
X151810000Y-100450000D01*
X151810000Y-100650000D01*
G37*
X151810000Y-101050000D02*
X150610000Y-101050000D01*
X150610000Y-100850000D01*
X151810000Y-100850000D01*
X151810000Y-101050000D01*
G36*
X151810000Y-101050000D02*
G01*
X150610000Y-101050000D01*
X150610000Y-100850000D01*
X151810000Y-100850000D01*
X151810000Y-101050000D01*
G37*
X151810000Y-101450000D02*
X150610000Y-101450000D01*
X150610000Y-101250000D01*
X151810000Y-101250000D01*
X151810000Y-101450000D01*
G36*
X151810000Y-101450000D02*
G01*
X150610000Y-101450000D01*
X150610000Y-101250000D01*
X151810000Y-101250000D01*
X151810000Y-101450000D01*
G37*
X151810000Y-101850000D02*
X150610000Y-101850000D01*
X150610000Y-101650000D01*
X151810000Y-101650000D01*
X151810000Y-101850000D01*
G36*
X151810000Y-101850000D02*
G01*
X150610000Y-101850000D01*
X150610000Y-101650000D01*
X151810000Y-101650000D01*
X151810000Y-101850000D01*
G37*
X151810000Y-102250000D02*
X150610000Y-102250000D01*
X150610000Y-102050000D01*
X151810000Y-102050000D01*
X151810000Y-102250000D01*
G36*
X151810000Y-102250000D02*
G01*
X150610000Y-102250000D01*
X150610000Y-102050000D01*
X151810000Y-102050000D01*
X151810000Y-102250000D01*
G37*
X151810000Y-102650000D02*
X150610000Y-102650000D01*
X150610000Y-102450000D01*
X151810000Y-102450000D01*
X151810000Y-102650000D01*
G36*
X151810000Y-102650000D02*
G01*
X150610000Y-102650000D01*
X150610000Y-102450000D01*
X151810000Y-102450000D01*
X151810000Y-102650000D01*
G37*
X151810000Y-103050000D02*
X150610000Y-103050000D01*
X150610000Y-102850000D01*
X151810000Y-102850000D01*
X151810000Y-103050000D01*
G36*
X151810000Y-103050000D02*
G01*
X150610000Y-103050000D01*
X150610000Y-102850000D01*
X151810000Y-102850000D01*
X151810000Y-103050000D01*
G37*
X151810000Y-103450000D02*
X150610000Y-103450000D01*
X150610000Y-103250000D01*
X151810000Y-103250000D01*
X151810000Y-103450000D01*
G36*
X151810000Y-103450000D02*
G01*
X150610000Y-103450000D01*
X150610000Y-103250000D01*
X151810000Y-103250000D01*
X151810000Y-103450000D01*
G37*
X151810000Y-103850000D02*
X150610000Y-103850000D01*
X150610000Y-103650000D01*
X151810000Y-103650000D01*
X151810000Y-103850000D01*
G36*
X151810000Y-103850000D02*
G01*
X150610000Y-103850000D01*
X150610000Y-103650000D01*
X151810000Y-103650000D01*
X151810000Y-103850000D01*
G37*
X151810000Y-104250000D02*
X150610000Y-104250000D01*
X150610000Y-104050000D01*
X151810000Y-104050000D01*
X151810000Y-104250000D01*
G36*
X151810000Y-104250000D02*
G01*
X150610000Y-104250000D01*
X150610000Y-104050000D01*
X151810000Y-104050000D01*
X151810000Y-104250000D01*
G37*
X151810000Y-104650000D02*
X150610000Y-104650000D01*
X150610000Y-104450000D01*
X151810000Y-104450000D01*
X151810000Y-104650000D01*
G36*
X151810000Y-104650000D02*
G01*
X150610000Y-104650000D01*
X150610000Y-104450000D01*
X151810000Y-104450000D01*
X151810000Y-104650000D01*
G37*
X151810000Y-105050000D02*
X150610000Y-105050000D01*
X150610000Y-104850000D01*
X151810000Y-104850000D01*
X151810000Y-105050000D01*
G36*
X151810000Y-105050000D02*
G01*
X150610000Y-105050000D01*
X150610000Y-104850000D01*
X151810000Y-104850000D01*
X151810000Y-105050000D01*
G37*
X151810000Y-105450000D02*
X150610000Y-105450000D01*
X150610000Y-105250000D01*
X151810000Y-105250000D01*
X151810000Y-105450000D01*
G36*
X151810000Y-105450000D02*
G01*
X150610000Y-105450000D01*
X150610000Y-105250000D01*
X151810000Y-105250000D01*
X151810000Y-105450000D01*
G37*
X151810000Y-105850000D02*
X150610000Y-105850000D01*
X150610000Y-105650000D01*
X151810000Y-105650000D01*
X151810000Y-105850000D01*
G36*
X151810000Y-105850000D02*
G01*
X150610000Y-105850000D01*
X150610000Y-105650000D01*
X151810000Y-105650000D01*
X151810000Y-105850000D01*
G37*
X151810000Y-106250000D02*
X150610000Y-106250000D01*
X150610000Y-106050000D01*
X151810000Y-106050000D01*
X151810000Y-106250000D01*
G36*
X151810000Y-106250000D02*
G01*
X150610000Y-106250000D01*
X150610000Y-106050000D01*
X151810000Y-106050000D01*
X151810000Y-106250000D01*
G37*
X151810000Y-106650000D02*
X150610000Y-106650000D01*
X150610000Y-106450000D01*
X151810000Y-106450000D01*
X151810000Y-106650000D01*
G36*
X151810000Y-106650000D02*
G01*
X150610000Y-106650000D01*
X150610000Y-106450000D01*
X151810000Y-106450000D01*
X151810000Y-106650000D01*
G37*
X151810000Y-107050000D02*
X150610000Y-107050000D01*
X150610000Y-106850000D01*
X151810000Y-106850000D01*
X151810000Y-107050000D01*
G36*
X151810000Y-107050000D02*
G01*
X150610000Y-107050000D01*
X150610000Y-106850000D01*
X151810000Y-106850000D01*
X151810000Y-107050000D01*
G37*
X151810000Y-107450000D02*
X150610000Y-107450000D01*
X150610000Y-107250000D01*
X151810000Y-107250000D01*
X151810000Y-107450000D01*
G36*
X151810000Y-107450000D02*
G01*
X150610000Y-107450000D01*
X150610000Y-107250000D01*
X151810000Y-107250000D01*
X151810000Y-107450000D01*
G37*
X151810000Y-107850000D02*
X150610000Y-107850000D01*
X150610000Y-107650000D01*
X151810000Y-107650000D01*
X151810000Y-107850000D01*
G36*
X151810000Y-107850000D02*
G01*
X150610000Y-107850000D01*
X150610000Y-107650000D01*
X151810000Y-107650000D01*
X151810000Y-107850000D01*
G37*
X151810000Y-108250000D02*
X150610000Y-108250000D01*
X150610000Y-108050000D01*
X151810000Y-108050000D01*
X151810000Y-108250000D01*
G36*
X151810000Y-108250000D02*
G01*
X150610000Y-108250000D01*
X150610000Y-108050000D01*
X151810000Y-108050000D01*
X151810000Y-108250000D01*
G37*
X151810000Y-108650000D02*
X150610000Y-108650000D01*
X150610000Y-108450000D01*
X151810000Y-108450000D01*
X151810000Y-108650000D01*
G36*
X151810000Y-108650000D02*
G01*
X150610000Y-108650000D01*
X150610000Y-108450000D01*
X151810000Y-108450000D01*
X151810000Y-108650000D01*
G37*
X151810000Y-108650000D02*
X150610000Y-108650000D01*
X150610000Y-108450000D01*
X151810000Y-108450000D01*
X151810000Y-108650000D01*
G36*
X151810000Y-108650000D02*
G01*
X150610000Y-108650000D01*
X150610000Y-108450000D01*
X151810000Y-108450000D01*
X151810000Y-108650000D01*
G37*
X151810000Y-109050000D02*
X150610000Y-109050000D01*
X150610000Y-108850000D01*
X151810000Y-108850000D01*
X151810000Y-109050000D01*
G36*
X151810000Y-109050000D02*
G01*
X150610000Y-109050000D01*
X150610000Y-108850000D01*
X151810000Y-108850000D01*
X151810000Y-109050000D01*
G37*
X151810000Y-109450000D02*
X150610000Y-109450000D01*
X150610000Y-109250000D01*
X151810000Y-109250000D01*
X151810000Y-109450000D01*
G36*
X151810000Y-109450000D02*
G01*
X150610000Y-109450000D01*
X150610000Y-109250000D01*
X151810000Y-109250000D01*
X151810000Y-109450000D01*
G37*
X151810000Y-109850000D02*
X150610000Y-109850000D01*
X150610000Y-109650000D01*
X151810000Y-109650000D01*
X151810000Y-109850000D01*
G36*
X151810000Y-109850000D02*
G01*
X150610000Y-109850000D01*
X150610000Y-109650000D01*
X151810000Y-109650000D01*
X151810000Y-109850000D01*
G37*
X151810000Y-110250000D02*
X150610000Y-110250000D01*
X150610000Y-110050000D01*
X151810000Y-110050000D01*
X151810000Y-110250000D01*
G36*
X151810000Y-110250000D02*
G01*
X150610000Y-110250000D01*
X150610000Y-110050000D01*
X151810000Y-110050000D01*
X151810000Y-110250000D01*
G37*
X151810000Y-110650000D02*
X150610000Y-110650000D01*
X150610000Y-110450000D01*
X151810000Y-110450000D01*
X151810000Y-110650000D01*
G36*
X151810000Y-110650000D02*
G01*
X150610000Y-110650000D01*
X150610000Y-110450000D01*
X151810000Y-110450000D01*
X151810000Y-110650000D01*
G37*
X151810000Y-111050000D02*
X150610000Y-111050000D01*
X150610000Y-110850000D01*
X151810000Y-110850000D01*
X151810000Y-111050000D01*
G36*
X151810000Y-111050000D02*
G01*
X150610000Y-111050000D01*
X150610000Y-110850000D01*
X151810000Y-110850000D01*
X151810000Y-111050000D01*
G37*
X151810000Y-111450000D02*
X150610000Y-111450000D01*
X150610000Y-111250000D01*
X151810000Y-111250000D01*
X151810000Y-111450000D01*
G36*
X151810000Y-111450000D02*
G01*
X150610000Y-111450000D01*
X150610000Y-111250000D01*
X151810000Y-111250000D01*
X151810000Y-111450000D01*
G37*
X151810000Y-111850000D02*
X150610000Y-111850000D01*
X150610000Y-111650000D01*
X151810000Y-111650000D01*
X151810000Y-111850000D01*
G36*
X151810000Y-111850000D02*
G01*
X150610000Y-111850000D01*
X150610000Y-111650000D01*
X151810000Y-111650000D01*
X151810000Y-111850000D01*
G37*
X151810000Y-112250000D02*
X150610000Y-112250000D01*
X150610000Y-112050000D01*
X151810000Y-112050000D01*
X151810000Y-112250000D01*
G36*
X151810000Y-112250000D02*
G01*
X150610000Y-112250000D01*
X150610000Y-112050000D01*
X151810000Y-112050000D01*
X151810000Y-112250000D01*
G37*
X151810000Y-112250000D02*
X150610000Y-112250000D01*
X150610000Y-112050000D01*
X151810000Y-112050000D01*
X151810000Y-112250000D01*
G36*
X151810000Y-112250000D02*
G01*
X150610000Y-112250000D01*
X150610000Y-112050000D01*
X151810000Y-112050000D01*
X151810000Y-112250000D01*
G37*
X151810000Y-112650000D02*
X150610000Y-112650000D01*
X150610000Y-112450000D01*
X151810000Y-112450000D01*
X151810000Y-112650000D01*
G36*
X151810000Y-112650000D02*
G01*
X150610000Y-112650000D01*
X150610000Y-112450000D01*
X151810000Y-112450000D01*
X151810000Y-112650000D01*
G37*
X151810000Y-113050000D02*
X150610000Y-113050000D01*
X150610000Y-112850000D01*
X151810000Y-112850000D01*
X151810000Y-113050000D01*
G36*
X151810000Y-113050000D02*
G01*
X150610000Y-113050000D01*
X150610000Y-112850000D01*
X151810000Y-112850000D01*
X151810000Y-113050000D01*
G37*
X151810000Y-113450000D02*
X150610000Y-113450000D01*
X150610000Y-113250000D01*
X151810000Y-113250000D01*
X151810000Y-113450000D01*
G36*
X151810000Y-113450000D02*
G01*
X150610000Y-113450000D01*
X150610000Y-113250000D01*
X151810000Y-113250000D01*
X151810000Y-113450000D01*
G37*
X151810000Y-113850000D02*
X150610000Y-113850000D01*
X150610000Y-113650000D01*
X151810000Y-113650000D01*
X151810000Y-113850000D01*
G36*
X151810000Y-113850000D02*
G01*
X150610000Y-113850000D01*
X150610000Y-113650000D01*
X151810000Y-113650000D01*
X151810000Y-113850000D01*
G37*
X151810000Y-113850000D02*
X150610000Y-113850000D01*
X150610000Y-113650000D01*
X151810000Y-113650000D01*
X151810000Y-113850000D01*
G36*
X151810000Y-113850000D02*
G01*
X150610000Y-113850000D01*
X150610000Y-113650000D01*
X151810000Y-113650000D01*
X151810000Y-113850000D01*
G37*
X155230000Y-98250000D02*
X154030000Y-98250000D01*
X154030000Y-98050000D01*
X155230000Y-98050000D01*
X155230000Y-98250000D01*
G36*
X155230000Y-98250000D02*
G01*
X154030000Y-98250000D01*
X154030000Y-98050000D01*
X155230000Y-98050000D01*
X155230000Y-98250000D01*
G37*
X155230000Y-98250000D02*
X154030000Y-98250000D01*
X154030000Y-98050000D01*
X155230000Y-98050000D01*
X155230000Y-98250000D01*
G36*
X155230000Y-98250000D02*
G01*
X154030000Y-98250000D01*
X154030000Y-98050000D01*
X155230000Y-98050000D01*
X155230000Y-98250000D01*
G37*
X155230000Y-98650000D02*
X154030000Y-98650000D01*
X154030000Y-98450000D01*
X155230000Y-98450000D01*
X155230000Y-98650000D01*
G36*
X155230000Y-98650000D02*
G01*
X154030000Y-98650000D01*
X154030000Y-98450000D01*
X155230000Y-98450000D01*
X155230000Y-98650000D01*
G37*
X155230000Y-99050000D02*
X154030000Y-99050000D01*
X154030000Y-98850000D01*
X155230000Y-98850000D01*
X155230000Y-99050000D01*
G36*
X155230000Y-99050000D02*
G01*
X154030000Y-99050000D01*
X154030000Y-98850000D01*
X155230000Y-98850000D01*
X155230000Y-99050000D01*
G37*
X155230000Y-99450000D02*
X154030000Y-99450000D01*
X154030000Y-99250000D01*
X155230000Y-99250000D01*
X155230000Y-99450000D01*
G36*
X155230000Y-99450000D02*
G01*
X154030000Y-99450000D01*
X154030000Y-99250000D01*
X155230000Y-99250000D01*
X155230000Y-99450000D01*
G37*
X155230000Y-99850000D02*
X154030000Y-99850000D01*
X154030000Y-99650000D01*
X155230000Y-99650000D01*
X155230000Y-99850000D01*
G36*
X155230000Y-99850000D02*
G01*
X154030000Y-99850000D01*
X154030000Y-99650000D01*
X155230000Y-99650000D01*
X155230000Y-99850000D01*
G37*
X155230000Y-99850000D02*
X154030000Y-99850000D01*
X154030000Y-99650000D01*
X155230000Y-99650000D01*
X155230000Y-99850000D01*
G36*
X155230000Y-99850000D02*
G01*
X154030000Y-99850000D01*
X154030000Y-99650000D01*
X155230000Y-99650000D01*
X155230000Y-99850000D01*
G37*
X155230000Y-100250000D02*
X154030000Y-100250000D01*
X154030000Y-100050000D01*
X155230000Y-100050000D01*
X155230000Y-100250000D01*
G36*
X155230000Y-100250000D02*
G01*
X154030000Y-100250000D01*
X154030000Y-100050000D01*
X155230000Y-100050000D01*
X155230000Y-100250000D01*
G37*
X155230000Y-100650000D02*
X154030000Y-100650000D01*
X154030000Y-100450000D01*
X155230000Y-100450000D01*
X155230000Y-100650000D01*
G36*
X155230000Y-100650000D02*
G01*
X154030000Y-100650000D01*
X154030000Y-100450000D01*
X155230000Y-100450000D01*
X155230000Y-100650000D01*
G37*
X155230000Y-101050000D02*
X154030000Y-101050000D01*
X154030000Y-100850000D01*
X155230000Y-100850000D01*
X155230000Y-101050000D01*
G36*
X155230000Y-101050000D02*
G01*
X154030000Y-101050000D01*
X154030000Y-100850000D01*
X155230000Y-100850000D01*
X155230000Y-101050000D01*
G37*
X155230000Y-101450000D02*
X154030000Y-101450000D01*
X154030000Y-101250000D01*
X155230000Y-101250000D01*
X155230000Y-101450000D01*
G36*
X155230000Y-101450000D02*
G01*
X154030000Y-101450000D01*
X154030000Y-101250000D01*
X155230000Y-101250000D01*
X155230000Y-101450000D01*
G37*
X155230000Y-101850000D02*
X154030000Y-101850000D01*
X154030000Y-101650000D01*
X155230000Y-101650000D01*
X155230000Y-101850000D01*
G36*
X155230000Y-101850000D02*
G01*
X154030000Y-101850000D01*
X154030000Y-101650000D01*
X155230000Y-101650000D01*
X155230000Y-101850000D01*
G37*
X155230000Y-102250000D02*
X154030000Y-102250000D01*
X154030000Y-102050000D01*
X155230000Y-102050000D01*
X155230000Y-102250000D01*
G36*
X155230000Y-102250000D02*
G01*
X154030000Y-102250000D01*
X154030000Y-102050000D01*
X155230000Y-102050000D01*
X155230000Y-102250000D01*
G37*
X155230000Y-102650000D02*
X154030000Y-102650000D01*
X154030000Y-102450000D01*
X155230000Y-102450000D01*
X155230000Y-102650000D01*
G36*
X155230000Y-102650000D02*
G01*
X154030000Y-102650000D01*
X154030000Y-102450000D01*
X155230000Y-102450000D01*
X155230000Y-102650000D01*
G37*
X155230000Y-103050000D02*
X154030000Y-103050000D01*
X154030000Y-102850000D01*
X155230000Y-102850000D01*
X155230000Y-103050000D01*
G36*
X155230000Y-103050000D02*
G01*
X154030000Y-103050000D01*
X154030000Y-102850000D01*
X155230000Y-102850000D01*
X155230000Y-103050000D01*
G37*
X155230000Y-103450000D02*
X154030000Y-103450000D01*
X154030000Y-103250000D01*
X155230000Y-103250000D01*
X155230000Y-103450000D01*
G36*
X155230000Y-103450000D02*
G01*
X154030000Y-103450000D01*
X154030000Y-103250000D01*
X155230000Y-103250000D01*
X155230000Y-103450000D01*
G37*
X155230000Y-103450000D02*
X154030000Y-103450000D01*
X154030000Y-103250000D01*
X155230000Y-103250000D01*
X155230000Y-103450000D01*
G36*
X155230000Y-103450000D02*
G01*
X154030000Y-103450000D01*
X154030000Y-103250000D01*
X155230000Y-103250000D01*
X155230000Y-103450000D01*
G37*
X155230000Y-103850000D02*
X154030000Y-103850000D01*
X154030000Y-103650000D01*
X155230000Y-103650000D01*
X155230000Y-103850000D01*
G36*
X155230000Y-103850000D02*
G01*
X154030000Y-103850000D01*
X154030000Y-103650000D01*
X155230000Y-103650000D01*
X155230000Y-103850000D01*
G37*
X155230000Y-104250000D02*
X154030000Y-104250000D01*
X154030000Y-104050000D01*
X155230000Y-104050000D01*
X155230000Y-104250000D01*
G36*
X155230000Y-104250000D02*
G01*
X154030000Y-104250000D01*
X154030000Y-104050000D01*
X155230000Y-104050000D01*
X155230000Y-104250000D01*
G37*
X155230000Y-104650000D02*
X154030000Y-104650000D01*
X154030000Y-104450000D01*
X155230000Y-104450000D01*
X155230000Y-104650000D01*
G36*
X155230000Y-104650000D02*
G01*
X154030000Y-104650000D01*
X154030000Y-104450000D01*
X155230000Y-104450000D01*
X155230000Y-104650000D01*
G37*
X155230000Y-105050000D02*
X154030000Y-105050000D01*
X154030000Y-104850000D01*
X155230000Y-104850000D01*
X155230000Y-105050000D01*
G36*
X155230000Y-105050000D02*
G01*
X154030000Y-105050000D01*
X154030000Y-104850000D01*
X155230000Y-104850000D01*
X155230000Y-105050000D01*
G37*
X155230000Y-105450000D02*
X154030000Y-105450000D01*
X154030000Y-105250000D01*
X155230000Y-105250000D01*
X155230000Y-105450000D01*
G36*
X155230000Y-105450000D02*
G01*
X154030000Y-105450000D01*
X154030000Y-105250000D01*
X155230000Y-105250000D01*
X155230000Y-105450000D01*
G37*
X155230000Y-105850000D02*
X154030000Y-105850000D01*
X154030000Y-105650000D01*
X155230000Y-105650000D01*
X155230000Y-105850000D01*
G36*
X155230000Y-105850000D02*
G01*
X154030000Y-105850000D01*
X154030000Y-105650000D01*
X155230000Y-105650000D01*
X155230000Y-105850000D01*
G37*
X155230000Y-106250000D02*
X154030000Y-106250000D01*
X154030000Y-106050000D01*
X155230000Y-106050000D01*
X155230000Y-106250000D01*
G36*
X155230000Y-106250000D02*
G01*
X154030000Y-106250000D01*
X154030000Y-106050000D01*
X155230000Y-106050000D01*
X155230000Y-106250000D01*
G37*
X155230000Y-106650000D02*
X154030000Y-106650000D01*
X154030000Y-106450000D01*
X155230000Y-106450000D01*
X155230000Y-106650000D01*
G36*
X155230000Y-106650000D02*
G01*
X154030000Y-106650000D01*
X154030000Y-106450000D01*
X155230000Y-106450000D01*
X155230000Y-106650000D01*
G37*
X155230000Y-107050000D02*
X154030000Y-107050000D01*
X154030000Y-106850000D01*
X155230000Y-106850000D01*
X155230000Y-107050000D01*
G36*
X155230000Y-107050000D02*
G01*
X154030000Y-107050000D01*
X154030000Y-106850000D01*
X155230000Y-106850000D01*
X155230000Y-107050000D01*
G37*
X155230000Y-107450000D02*
X154030000Y-107450000D01*
X154030000Y-107250000D01*
X155230000Y-107250000D01*
X155230000Y-107450000D01*
G36*
X155230000Y-107450000D02*
G01*
X154030000Y-107450000D01*
X154030000Y-107250000D01*
X155230000Y-107250000D01*
X155230000Y-107450000D01*
G37*
X155230000Y-107850000D02*
X154030000Y-107850000D01*
X154030000Y-107650000D01*
X155230000Y-107650000D01*
X155230000Y-107850000D01*
G36*
X155230000Y-107850000D02*
G01*
X154030000Y-107850000D01*
X154030000Y-107650000D01*
X155230000Y-107650000D01*
X155230000Y-107850000D01*
G37*
X155230000Y-108250000D02*
X154030000Y-108250000D01*
X154030000Y-108050000D01*
X155230000Y-108050000D01*
X155230000Y-108250000D01*
G36*
X155230000Y-108250000D02*
G01*
X154030000Y-108250000D01*
X154030000Y-108050000D01*
X155230000Y-108050000D01*
X155230000Y-108250000D01*
G37*
X155230000Y-108650000D02*
X154030000Y-108650000D01*
X154030000Y-108450000D01*
X155230000Y-108450000D01*
X155230000Y-108650000D01*
G36*
X155230000Y-108650000D02*
G01*
X154030000Y-108650000D01*
X154030000Y-108450000D01*
X155230000Y-108450000D01*
X155230000Y-108650000D01*
G37*
X155230000Y-109050000D02*
X154030000Y-109050000D01*
X154030000Y-108850000D01*
X155230000Y-108850000D01*
X155230000Y-109050000D01*
G36*
X155230000Y-109050000D02*
G01*
X154030000Y-109050000D01*
X154030000Y-108850000D01*
X155230000Y-108850000D01*
X155230000Y-109050000D01*
G37*
X155230000Y-109450000D02*
X154030000Y-109450000D01*
X154030000Y-109250000D01*
X155230000Y-109250000D01*
X155230000Y-109450000D01*
G36*
X155230000Y-109450000D02*
G01*
X154030000Y-109450000D01*
X154030000Y-109250000D01*
X155230000Y-109250000D01*
X155230000Y-109450000D01*
G37*
X155230000Y-109850000D02*
X154030000Y-109850000D01*
X154030000Y-109650000D01*
X155230000Y-109650000D01*
X155230000Y-109850000D01*
G36*
X155230000Y-109850000D02*
G01*
X154030000Y-109850000D01*
X154030000Y-109650000D01*
X155230000Y-109650000D01*
X155230000Y-109850000D01*
G37*
X155230000Y-110250000D02*
X154030000Y-110250000D01*
X154030000Y-110050000D01*
X155230000Y-110050000D01*
X155230000Y-110250000D01*
G36*
X155230000Y-110250000D02*
G01*
X154030000Y-110250000D01*
X154030000Y-110050000D01*
X155230000Y-110050000D01*
X155230000Y-110250000D01*
G37*
X155230000Y-110650000D02*
X154030000Y-110650000D01*
X154030000Y-110450000D01*
X155230000Y-110450000D01*
X155230000Y-110650000D01*
G36*
X155230000Y-110650000D02*
G01*
X154030000Y-110650000D01*
X154030000Y-110450000D01*
X155230000Y-110450000D01*
X155230000Y-110650000D01*
G37*
X155230000Y-111050000D02*
X154030000Y-111050000D01*
X154030000Y-110850000D01*
X155230000Y-110850000D01*
X155230000Y-111050000D01*
G36*
X155230000Y-111050000D02*
G01*
X154030000Y-111050000D01*
X154030000Y-110850000D01*
X155230000Y-110850000D01*
X155230000Y-111050000D01*
G37*
X155230000Y-111450000D02*
X154030000Y-111450000D01*
X154030000Y-111250000D01*
X155230000Y-111250000D01*
X155230000Y-111450000D01*
G36*
X155230000Y-111450000D02*
G01*
X154030000Y-111450000D01*
X154030000Y-111250000D01*
X155230000Y-111250000D01*
X155230000Y-111450000D01*
G37*
X155230000Y-111850000D02*
X154030000Y-111850000D01*
X154030000Y-111650000D01*
X155230000Y-111650000D01*
X155230000Y-111850000D01*
G36*
X155230000Y-111850000D02*
G01*
X154030000Y-111850000D01*
X154030000Y-111650000D01*
X155230000Y-111650000D01*
X155230000Y-111850000D01*
G37*
X155230000Y-112250000D02*
X154030000Y-112250000D01*
X154030000Y-112050000D01*
X155230000Y-112050000D01*
X155230000Y-112250000D01*
G36*
X155230000Y-112250000D02*
G01*
X154030000Y-112250000D01*
X154030000Y-112050000D01*
X155230000Y-112050000D01*
X155230000Y-112250000D01*
G37*
X155230000Y-112650000D02*
X154030000Y-112650000D01*
X154030000Y-112450000D01*
X155230000Y-112450000D01*
X155230000Y-112650000D01*
G36*
X155230000Y-112650000D02*
G01*
X154030000Y-112650000D01*
X154030000Y-112450000D01*
X155230000Y-112450000D01*
X155230000Y-112650000D01*
G37*
X155230000Y-113050000D02*
X154030000Y-113050000D01*
X154030000Y-112850000D01*
X155230000Y-112850000D01*
X155230000Y-113050000D01*
G36*
X155230000Y-113050000D02*
G01*
X154030000Y-113050000D01*
X154030000Y-112850000D01*
X155230000Y-112850000D01*
X155230000Y-113050000D01*
G37*
X155230000Y-113450000D02*
X154030000Y-113450000D01*
X154030000Y-113250000D01*
X155230000Y-113250000D01*
X155230000Y-113450000D01*
G36*
X155230000Y-113450000D02*
G01*
X154030000Y-113450000D01*
X154030000Y-113250000D01*
X155230000Y-113250000D01*
X155230000Y-113450000D01*
G37*
X155230000Y-113850000D02*
X154030000Y-113850000D01*
X154030000Y-113650000D01*
X155230000Y-113650000D01*
X155230000Y-113850000D01*
G36*
X155230000Y-113850000D02*
G01*
X154030000Y-113850000D01*
X154030000Y-113650000D01*
X155230000Y-113650000D01*
X155230000Y-113850000D01*
G37*
%TO.C,J6*%
X151810000Y-71410000D02*
X150610000Y-71410000D01*
X150610000Y-71210000D01*
X151810000Y-71210000D01*
X151810000Y-71410000D01*
G36*
X151810000Y-71410000D02*
G01*
X150610000Y-71410000D01*
X150610000Y-71210000D01*
X151810000Y-71210000D01*
X151810000Y-71410000D01*
G37*
X151810000Y-71810000D02*
X150610000Y-71810000D01*
X150610000Y-71610000D01*
X151810000Y-71610000D01*
X151810000Y-71810000D01*
G36*
X151810000Y-71810000D02*
G01*
X150610000Y-71810000D01*
X150610000Y-71610000D01*
X151810000Y-71610000D01*
X151810000Y-71810000D01*
G37*
X151810000Y-72210000D02*
X150610000Y-72210000D01*
X150610000Y-72010000D01*
X151810000Y-72010000D01*
X151810000Y-72210000D01*
G36*
X151810000Y-72210000D02*
G01*
X150610000Y-72210000D01*
X150610000Y-72010000D01*
X151810000Y-72010000D01*
X151810000Y-72210000D01*
G37*
X151810000Y-72610000D02*
X150610000Y-72610000D01*
X150610000Y-72410000D01*
X151810000Y-72410000D01*
X151810000Y-72610000D01*
G36*
X151810000Y-72610000D02*
G01*
X150610000Y-72610000D01*
X150610000Y-72410000D01*
X151810000Y-72410000D01*
X151810000Y-72610000D01*
G37*
X151810000Y-73010000D02*
X150610000Y-73010000D01*
X150610000Y-72810000D01*
X151810000Y-72810000D01*
X151810000Y-73010000D01*
G36*
X151810000Y-73010000D02*
G01*
X150610000Y-73010000D01*
X150610000Y-72810000D01*
X151810000Y-72810000D01*
X151810000Y-73010000D01*
G37*
X151810000Y-73410000D02*
X150610000Y-73410000D01*
X150610000Y-73210000D01*
X151810000Y-73210000D01*
X151810000Y-73410000D01*
G36*
X151810000Y-73410000D02*
G01*
X150610000Y-73410000D01*
X150610000Y-73210000D01*
X151810000Y-73210000D01*
X151810000Y-73410000D01*
G37*
X151810000Y-73810000D02*
X150610000Y-73810000D01*
X150610000Y-73610000D01*
X151810000Y-73610000D01*
X151810000Y-73810000D01*
G36*
X151810000Y-73810000D02*
G01*
X150610000Y-73810000D01*
X150610000Y-73610000D01*
X151810000Y-73610000D01*
X151810000Y-73810000D01*
G37*
X151810000Y-74210000D02*
X150610000Y-74210000D01*
X150610000Y-74010000D01*
X151810000Y-74010000D01*
X151810000Y-74210000D01*
G36*
X151810000Y-74210000D02*
G01*
X150610000Y-74210000D01*
X150610000Y-74010000D01*
X151810000Y-74010000D01*
X151810000Y-74210000D01*
G37*
X151810000Y-74610000D02*
X150610000Y-74610000D01*
X150610000Y-74410000D01*
X151810000Y-74410000D01*
X151810000Y-74610000D01*
G36*
X151810000Y-74610000D02*
G01*
X150610000Y-74610000D01*
X150610000Y-74410000D01*
X151810000Y-74410000D01*
X151810000Y-74610000D01*
G37*
X151810000Y-75010000D02*
X150610000Y-75010000D01*
X150610000Y-74810000D01*
X151810000Y-74810000D01*
X151810000Y-75010000D01*
G36*
X151810000Y-75010000D02*
G01*
X150610000Y-75010000D01*
X150610000Y-74810000D01*
X151810000Y-74810000D01*
X151810000Y-75010000D01*
G37*
X151810000Y-75410000D02*
X150610000Y-75410000D01*
X150610000Y-75210000D01*
X151810000Y-75210000D01*
X151810000Y-75410000D01*
G36*
X151810000Y-75410000D02*
G01*
X150610000Y-75410000D01*
X150610000Y-75210000D01*
X151810000Y-75210000D01*
X151810000Y-75410000D01*
G37*
X151810000Y-75810000D02*
X150610000Y-75810000D01*
X150610000Y-75610000D01*
X151810000Y-75610000D01*
X151810000Y-75810000D01*
G36*
X151810000Y-75810000D02*
G01*
X150610000Y-75810000D01*
X150610000Y-75610000D01*
X151810000Y-75610000D01*
X151810000Y-75810000D01*
G37*
X151810000Y-76210000D02*
X150610000Y-76210000D01*
X150610000Y-76010000D01*
X151810000Y-76010000D01*
X151810000Y-76210000D01*
G36*
X151810000Y-76210000D02*
G01*
X150610000Y-76210000D01*
X150610000Y-76010000D01*
X151810000Y-76010000D01*
X151810000Y-76210000D01*
G37*
X151810000Y-76610000D02*
X150610000Y-76610000D01*
X150610000Y-76410000D01*
X151810000Y-76410000D01*
X151810000Y-76610000D01*
G36*
X151810000Y-76610000D02*
G01*
X150610000Y-76610000D01*
X150610000Y-76410000D01*
X151810000Y-76410000D01*
X151810000Y-76610000D01*
G37*
X151810000Y-77010000D02*
X150610000Y-77010000D01*
X150610000Y-76810000D01*
X151810000Y-76810000D01*
X151810000Y-77010000D01*
G36*
X151810000Y-77010000D02*
G01*
X150610000Y-77010000D01*
X150610000Y-76810000D01*
X151810000Y-76810000D01*
X151810000Y-77010000D01*
G37*
X151810000Y-77410000D02*
X150610000Y-77410000D01*
X150610000Y-77210000D01*
X151810000Y-77210000D01*
X151810000Y-77410000D01*
G36*
X151810000Y-77410000D02*
G01*
X150610000Y-77410000D01*
X150610000Y-77210000D01*
X151810000Y-77210000D01*
X151810000Y-77410000D01*
G37*
X151810000Y-77810000D02*
X150610000Y-77810000D01*
X150610000Y-77610000D01*
X151810000Y-77610000D01*
X151810000Y-77810000D01*
G36*
X151810000Y-77810000D02*
G01*
X150610000Y-77810000D01*
X150610000Y-77610000D01*
X151810000Y-77610000D01*
X151810000Y-77810000D01*
G37*
X151810000Y-78210000D02*
X150610000Y-78210000D01*
X150610000Y-78010000D01*
X151810000Y-78010000D01*
X151810000Y-78210000D01*
G36*
X151810000Y-78210000D02*
G01*
X150610000Y-78210000D01*
X150610000Y-78010000D01*
X151810000Y-78010000D01*
X151810000Y-78210000D01*
G37*
X151810000Y-78610000D02*
X150610000Y-78610000D01*
X150610000Y-78410000D01*
X151810000Y-78410000D01*
X151810000Y-78610000D01*
G36*
X151810000Y-78610000D02*
G01*
X150610000Y-78610000D01*
X150610000Y-78410000D01*
X151810000Y-78410000D01*
X151810000Y-78610000D01*
G37*
X151810000Y-79010000D02*
X150610000Y-79010000D01*
X150610000Y-78810000D01*
X151810000Y-78810000D01*
X151810000Y-79010000D01*
G36*
X151810000Y-79010000D02*
G01*
X150610000Y-79010000D01*
X150610000Y-78810000D01*
X151810000Y-78810000D01*
X151810000Y-79010000D01*
G37*
X151810000Y-79410000D02*
X150610000Y-79410000D01*
X150610000Y-79210000D01*
X151810000Y-79210000D01*
X151810000Y-79410000D01*
G36*
X151810000Y-79410000D02*
G01*
X150610000Y-79410000D01*
X150610000Y-79210000D01*
X151810000Y-79210000D01*
X151810000Y-79410000D01*
G37*
X151810000Y-79810000D02*
X150610000Y-79810000D01*
X150610000Y-79610000D01*
X151810000Y-79610000D01*
X151810000Y-79810000D01*
G36*
X151810000Y-79810000D02*
G01*
X150610000Y-79810000D01*
X150610000Y-79610000D01*
X151810000Y-79610000D01*
X151810000Y-79810000D01*
G37*
X151810000Y-80210000D02*
X150610000Y-80210000D01*
X150610000Y-80010000D01*
X151810000Y-80010000D01*
X151810000Y-80210000D01*
G36*
X151810000Y-80210000D02*
G01*
X150610000Y-80210000D01*
X150610000Y-80010000D01*
X151810000Y-80010000D01*
X151810000Y-80210000D01*
G37*
X151810000Y-80610000D02*
X150610000Y-80610000D01*
X150610000Y-80410000D01*
X151810000Y-80410000D01*
X151810000Y-80610000D01*
G36*
X151810000Y-80610000D02*
G01*
X150610000Y-80610000D01*
X150610000Y-80410000D01*
X151810000Y-80410000D01*
X151810000Y-80610000D01*
G37*
X151810000Y-81010000D02*
X150610000Y-81010000D01*
X150610000Y-80810000D01*
X151810000Y-80810000D01*
X151810000Y-81010000D01*
G36*
X151810000Y-81010000D02*
G01*
X150610000Y-81010000D01*
X150610000Y-80810000D01*
X151810000Y-80810000D01*
X151810000Y-81010000D01*
G37*
X151810000Y-81410000D02*
X150610000Y-81410000D01*
X150610000Y-81210000D01*
X151810000Y-81210000D01*
X151810000Y-81410000D01*
G36*
X151810000Y-81410000D02*
G01*
X150610000Y-81410000D01*
X150610000Y-81210000D01*
X151810000Y-81210000D01*
X151810000Y-81410000D01*
G37*
X151810000Y-81810000D02*
X150610000Y-81810000D01*
X150610000Y-81610000D01*
X151810000Y-81610000D01*
X151810000Y-81810000D01*
G36*
X151810000Y-81810000D02*
G01*
X150610000Y-81810000D01*
X150610000Y-81610000D01*
X151810000Y-81610000D01*
X151810000Y-81810000D01*
G37*
X151810000Y-81810000D02*
X150610000Y-81810000D01*
X150610000Y-81610000D01*
X151810000Y-81610000D01*
X151810000Y-81810000D01*
G36*
X151810000Y-81810000D02*
G01*
X150610000Y-81810000D01*
X150610000Y-81610000D01*
X151810000Y-81610000D01*
X151810000Y-81810000D01*
G37*
X151810000Y-82210000D02*
X150610000Y-82210000D01*
X150610000Y-82010000D01*
X151810000Y-82010000D01*
X151810000Y-82210000D01*
G36*
X151810000Y-82210000D02*
G01*
X150610000Y-82210000D01*
X150610000Y-82010000D01*
X151810000Y-82010000D01*
X151810000Y-82210000D01*
G37*
X151810000Y-82610000D02*
X150610000Y-82610000D01*
X150610000Y-82410000D01*
X151810000Y-82410000D01*
X151810000Y-82610000D01*
G36*
X151810000Y-82610000D02*
G01*
X150610000Y-82610000D01*
X150610000Y-82410000D01*
X151810000Y-82410000D01*
X151810000Y-82610000D01*
G37*
X151810000Y-83010000D02*
X150610000Y-83010000D01*
X150610000Y-82810000D01*
X151810000Y-82810000D01*
X151810000Y-83010000D01*
G36*
X151810000Y-83010000D02*
G01*
X150610000Y-83010000D01*
X150610000Y-82810000D01*
X151810000Y-82810000D01*
X151810000Y-83010000D01*
G37*
X151810000Y-83410000D02*
X150610000Y-83410000D01*
X150610000Y-83210000D01*
X151810000Y-83210000D01*
X151810000Y-83410000D01*
G36*
X151810000Y-83410000D02*
G01*
X150610000Y-83410000D01*
X150610000Y-83210000D01*
X151810000Y-83210000D01*
X151810000Y-83410000D01*
G37*
X151810000Y-83810000D02*
X150610000Y-83810000D01*
X150610000Y-83610000D01*
X151810000Y-83610000D01*
X151810000Y-83810000D01*
G36*
X151810000Y-83810000D02*
G01*
X150610000Y-83810000D01*
X150610000Y-83610000D01*
X151810000Y-83610000D01*
X151810000Y-83810000D01*
G37*
X151810000Y-84210000D02*
X150610000Y-84210000D01*
X150610000Y-84010000D01*
X151810000Y-84010000D01*
X151810000Y-84210000D01*
G36*
X151810000Y-84210000D02*
G01*
X150610000Y-84210000D01*
X150610000Y-84010000D01*
X151810000Y-84010000D01*
X151810000Y-84210000D01*
G37*
X151810000Y-84610000D02*
X150610000Y-84610000D01*
X150610000Y-84410000D01*
X151810000Y-84410000D01*
X151810000Y-84610000D01*
G36*
X151810000Y-84610000D02*
G01*
X150610000Y-84610000D01*
X150610000Y-84410000D01*
X151810000Y-84410000D01*
X151810000Y-84610000D01*
G37*
X151810000Y-85010000D02*
X150610000Y-85010000D01*
X150610000Y-84810000D01*
X151810000Y-84810000D01*
X151810000Y-85010000D01*
G36*
X151810000Y-85010000D02*
G01*
X150610000Y-85010000D01*
X150610000Y-84810000D01*
X151810000Y-84810000D01*
X151810000Y-85010000D01*
G37*
X151810000Y-85410000D02*
X150610000Y-85410000D01*
X150610000Y-85210000D01*
X151810000Y-85210000D01*
X151810000Y-85410000D01*
G36*
X151810000Y-85410000D02*
G01*
X150610000Y-85410000D01*
X150610000Y-85210000D01*
X151810000Y-85210000D01*
X151810000Y-85410000D01*
G37*
X151810000Y-85410000D02*
X150610000Y-85410000D01*
X150610000Y-85210000D01*
X151810000Y-85210000D01*
X151810000Y-85410000D01*
G36*
X151810000Y-85410000D02*
G01*
X150610000Y-85410000D01*
X150610000Y-85210000D01*
X151810000Y-85210000D01*
X151810000Y-85410000D01*
G37*
X151810000Y-85810000D02*
X150610000Y-85810000D01*
X150610000Y-85610000D01*
X151810000Y-85610000D01*
X151810000Y-85810000D01*
G36*
X151810000Y-85810000D02*
G01*
X150610000Y-85810000D01*
X150610000Y-85610000D01*
X151810000Y-85610000D01*
X151810000Y-85810000D01*
G37*
X151810000Y-86210000D02*
X150610000Y-86210000D01*
X150610000Y-86010000D01*
X151810000Y-86010000D01*
X151810000Y-86210000D01*
G36*
X151810000Y-86210000D02*
G01*
X150610000Y-86210000D01*
X150610000Y-86010000D01*
X151810000Y-86010000D01*
X151810000Y-86210000D01*
G37*
X151810000Y-86610000D02*
X150610000Y-86610000D01*
X150610000Y-86410000D01*
X151810000Y-86410000D01*
X151810000Y-86610000D01*
G36*
X151810000Y-86610000D02*
G01*
X150610000Y-86610000D01*
X150610000Y-86410000D01*
X151810000Y-86410000D01*
X151810000Y-86610000D01*
G37*
X151810000Y-87010000D02*
X150610000Y-87010000D01*
X150610000Y-86810000D01*
X151810000Y-86810000D01*
X151810000Y-87010000D01*
G36*
X151810000Y-87010000D02*
G01*
X150610000Y-87010000D01*
X150610000Y-86810000D01*
X151810000Y-86810000D01*
X151810000Y-87010000D01*
G37*
X151810000Y-87010000D02*
X150610000Y-87010000D01*
X150610000Y-86810000D01*
X151810000Y-86810000D01*
X151810000Y-87010000D01*
G36*
X151810000Y-87010000D02*
G01*
X150610000Y-87010000D01*
X150610000Y-86810000D01*
X151810000Y-86810000D01*
X151810000Y-87010000D01*
G37*
X155230000Y-71410000D02*
X154030000Y-71410000D01*
X154030000Y-71210000D01*
X155230000Y-71210000D01*
X155230000Y-71410000D01*
G36*
X155230000Y-71410000D02*
G01*
X154030000Y-71410000D01*
X154030000Y-71210000D01*
X155230000Y-71210000D01*
X155230000Y-71410000D01*
G37*
X155230000Y-71410000D02*
X154030000Y-71410000D01*
X154030000Y-71210000D01*
X155230000Y-71210000D01*
X155230000Y-71410000D01*
G36*
X155230000Y-71410000D02*
G01*
X154030000Y-71410000D01*
X154030000Y-71210000D01*
X155230000Y-71210000D01*
X155230000Y-71410000D01*
G37*
X155230000Y-71810000D02*
X154030000Y-71810000D01*
X154030000Y-71610000D01*
X155230000Y-71610000D01*
X155230000Y-71810000D01*
G36*
X155230000Y-71810000D02*
G01*
X154030000Y-71810000D01*
X154030000Y-71610000D01*
X155230000Y-71610000D01*
X155230000Y-71810000D01*
G37*
X155230000Y-72210000D02*
X154030000Y-72210000D01*
X154030000Y-72010000D01*
X155230000Y-72010000D01*
X155230000Y-72210000D01*
G36*
X155230000Y-72210000D02*
G01*
X154030000Y-72210000D01*
X154030000Y-72010000D01*
X155230000Y-72010000D01*
X155230000Y-72210000D01*
G37*
X155230000Y-72610000D02*
X154030000Y-72610000D01*
X154030000Y-72410000D01*
X155230000Y-72410000D01*
X155230000Y-72610000D01*
G36*
X155230000Y-72610000D02*
G01*
X154030000Y-72610000D01*
X154030000Y-72410000D01*
X155230000Y-72410000D01*
X155230000Y-72610000D01*
G37*
X155230000Y-73010000D02*
X154030000Y-73010000D01*
X154030000Y-72810000D01*
X155230000Y-72810000D01*
X155230000Y-73010000D01*
G36*
X155230000Y-73010000D02*
G01*
X154030000Y-73010000D01*
X154030000Y-72810000D01*
X155230000Y-72810000D01*
X155230000Y-73010000D01*
G37*
X155230000Y-73010000D02*
X154030000Y-73010000D01*
X154030000Y-72810000D01*
X155230000Y-72810000D01*
X155230000Y-73010000D01*
G36*
X155230000Y-73010000D02*
G01*
X154030000Y-73010000D01*
X154030000Y-72810000D01*
X155230000Y-72810000D01*
X155230000Y-73010000D01*
G37*
X155230000Y-73410000D02*
X154030000Y-73410000D01*
X154030000Y-73210000D01*
X155230000Y-73210000D01*
X155230000Y-73410000D01*
G36*
X155230000Y-73410000D02*
G01*
X154030000Y-73410000D01*
X154030000Y-73210000D01*
X155230000Y-73210000D01*
X155230000Y-73410000D01*
G37*
X155230000Y-73810000D02*
X154030000Y-73810000D01*
X154030000Y-73610000D01*
X155230000Y-73610000D01*
X155230000Y-73810000D01*
G36*
X155230000Y-73810000D02*
G01*
X154030000Y-73810000D01*
X154030000Y-73610000D01*
X155230000Y-73610000D01*
X155230000Y-73810000D01*
G37*
X155230000Y-74210000D02*
X154030000Y-74210000D01*
X154030000Y-74010000D01*
X155230000Y-74010000D01*
X155230000Y-74210000D01*
G36*
X155230000Y-74210000D02*
G01*
X154030000Y-74210000D01*
X154030000Y-74010000D01*
X155230000Y-74010000D01*
X155230000Y-74210000D01*
G37*
X155230000Y-74610000D02*
X154030000Y-74610000D01*
X154030000Y-74410000D01*
X155230000Y-74410000D01*
X155230000Y-74610000D01*
G36*
X155230000Y-74610000D02*
G01*
X154030000Y-74610000D01*
X154030000Y-74410000D01*
X155230000Y-74410000D01*
X155230000Y-74610000D01*
G37*
X155230000Y-75010000D02*
X154030000Y-75010000D01*
X154030000Y-74810000D01*
X155230000Y-74810000D01*
X155230000Y-75010000D01*
G36*
X155230000Y-75010000D02*
G01*
X154030000Y-75010000D01*
X154030000Y-74810000D01*
X155230000Y-74810000D01*
X155230000Y-75010000D01*
G37*
X155230000Y-75410000D02*
X154030000Y-75410000D01*
X154030000Y-75210000D01*
X155230000Y-75210000D01*
X155230000Y-75410000D01*
G36*
X155230000Y-75410000D02*
G01*
X154030000Y-75410000D01*
X154030000Y-75210000D01*
X155230000Y-75210000D01*
X155230000Y-75410000D01*
G37*
X155230000Y-75810000D02*
X154030000Y-75810000D01*
X154030000Y-75610000D01*
X155230000Y-75610000D01*
X155230000Y-75810000D01*
G36*
X155230000Y-75810000D02*
G01*
X154030000Y-75810000D01*
X154030000Y-75610000D01*
X155230000Y-75610000D01*
X155230000Y-75810000D01*
G37*
X155230000Y-76210000D02*
X154030000Y-76210000D01*
X154030000Y-76010000D01*
X155230000Y-76010000D01*
X155230000Y-76210000D01*
G36*
X155230000Y-76210000D02*
G01*
X154030000Y-76210000D01*
X154030000Y-76010000D01*
X155230000Y-76010000D01*
X155230000Y-76210000D01*
G37*
X155230000Y-76610000D02*
X154030000Y-76610000D01*
X154030000Y-76410000D01*
X155230000Y-76410000D01*
X155230000Y-76610000D01*
G36*
X155230000Y-76610000D02*
G01*
X154030000Y-76610000D01*
X154030000Y-76410000D01*
X155230000Y-76410000D01*
X155230000Y-76610000D01*
G37*
X155230000Y-76610000D02*
X154030000Y-76610000D01*
X154030000Y-76410000D01*
X155230000Y-76410000D01*
X155230000Y-76610000D01*
G36*
X155230000Y-76610000D02*
G01*
X154030000Y-76610000D01*
X154030000Y-76410000D01*
X155230000Y-76410000D01*
X155230000Y-76610000D01*
G37*
X155230000Y-77010000D02*
X154030000Y-77010000D01*
X154030000Y-76810000D01*
X155230000Y-76810000D01*
X155230000Y-77010000D01*
G36*
X155230000Y-77010000D02*
G01*
X154030000Y-77010000D01*
X154030000Y-76810000D01*
X155230000Y-76810000D01*
X155230000Y-77010000D01*
G37*
X155230000Y-77410000D02*
X154030000Y-77410000D01*
X154030000Y-77210000D01*
X155230000Y-77210000D01*
X155230000Y-77410000D01*
G36*
X155230000Y-77410000D02*
G01*
X154030000Y-77410000D01*
X154030000Y-77210000D01*
X155230000Y-77210000D01*
X155230000Y-77410000D01*
G37*
X155230000Y-77810000D02*
X154030000Y-77810000D01*
X154030000Y-77610000D01*
X155230000Y-77610000D01*
X155230000Y-77810000D01*
G36*
X155230000Y-77810000D02*
G01*
X154030000Y-77810000D01*
X154030000Y-77610000D01*
X155230000Y-77610000D01*
X155230000Y-77810000D01*
G37*
X155230000Y-78210000D02*
X154030000Y-78210000D01*
X154030000Y-78010000D01*
X155230000Y-78010000D01*
X155230000Y-78210000D01*
G36*
X155230000Y-78210000D02*
G01*
X154030000Y-78210000D01*
X154030000Y-78010000D01*
X155230000Y-78010000D01*
X155230000Y-78210000D01*
G37*
X155230000Y-78610000D02*
X154030000Y-78610000D01*
X154030000Y-78410000D01*
X155230000Y-78410000D01*
X155230000Y-78610000D01*
G36*
X155230000Y-78610000D02*
G01*
X154030000Y-78610000D01*
X154030000Y-78410000D01*
X155230000Y-78410000D01*
X155230000Y-78610000D01*
G37*
X155230000Y-79010000D02*
X154030000Y-79010000D01*
X154030000Y-78810000D01*
X155230000Y-78810000D01*
X155230000Y-79010000D01*
G36*
X155230000Y-79010000D02*
G01*
X154030000Y-79010000D01*
X154030000Y-78810000D01*
X155230000Y-78810000D01*
X155230000Y-79010000D01*
G37*
X155230000Y-79410000D02*
X154030000Y-79410000D01*
X154030000Y-79210000D01*
X155230000Y-79210000D01*
X155230000Y-79410000D01*
G36*
X155230000Y-79410000D02*
G01*
X154030000Y-79410000D01*
X154030000Y-79210000D01*
X155230000Y-79210000D01*
X155230000Y-79410000D01*
G37*
X155230000Y-79810000D02*
X154030000Y-79810000D01*
X154030000Y-79610000D01*
X155230000Y-79610000D01*
X155230000Y-79810000D01*
G36*
X155230000Y-79810000D02*
G01*
X154030000Y-79810000D01*
X154030000Y-79610000D01*
X155230000Y-79610000D01*
X155230000Y-79810000D01*
G37*
X155230000Y-80210000D02*
X154030000Y-80210000D01*
X154030000Y-80010000D01*
X155230000Y-80010000D01*
X155230000Y-80210000D01*
G36*
X155230000Y-80210000D02*
G01*
X154030000Y-80210000D01*
X154030000Y-80010000D01*
X155230000Y-80010000D01*
X155230000Y-80210000D01*
G37*
X155230000Y-80610000D02*
X154030000Y-80610000D01*
X154030000Y-80410000D01*
X155230000Y-80410000D01*
X155230000Y-80610000D01*
G36*
X155230000Y-80610000D02*
G01*
X154030000Y-80610000D01*
X154030000Y-80410000D01*
X155230000Y-80410000D01*
X155230000Y-80610000D01*
G37*
X155230000Y-81010000D02*
X154030000Y-81010000D01*
X154030000Y-80810000D01*
X155230000Y-80810000D01*
X155230000Y-81010000D01*
G36*
X155230000Y-81010000D02*
G01*
X154030000Y-81010000D01*
X154030000Y-80810000D01*
X155230000Y-80810000D01*
X155230000Y-81010000D01*
G37*
X155230000Y-81410000D02*
X154030000Y-81410000D01*
X154030000Y-81210000D01*
X155230000Y-81210000D01*
X155230000Y-81410000D01*
G36*
X155230000Y-81410000D02*
G01*
X154030000Y-81410000D01*
X154030000Y-81210000D01*
X155230000Y-81210000D01*
X155230000Y-81410000D01*
G37*
X155230000Y-81810000D02*
X154030000Y-81810000D01*
X154030000Y-81610000D01*
X155230000Y-81610000D01*
X155230000Y-81810000D01*
G36*
X155230000Y-81810000D02*
G01*
X154030000Y-81810000D01*
X154030000Y-81610000D01*
X155230000Y-81610000D01*
X155230000Y-81810000D01*
G37*
X155230000Y-82210000D02*
X154030000Y-82210000D01*
X154030000Y-82010000D01*
X155230000Y-82010000D01*
X155230000Y-82210000D01*
G36*
X155230000Y-82210000D02*
G01*
X154030000Y-82210000D01*
X154030000Y-82010000D01*
X155230000Y-82010000D01*
X155230000Y-82210000D01*
G37*
X155230000Y-82610000D02*
X154030000Y-82610000D01*
X154030000Y-82410000D01*
X155230000Y-82410000D01*
X155230000Y-82610000D01*
G36*
X155230000Y-82610000D02*
G01*
X154030000Y-82610000D01*
X154030000Y-82410000D01*
X155230000Y-82410000D01*
X155230000Y-82610000D01*
G37*
X155230000Y-83010000D02*
X154030000Y-83010000D01*
X154030000Y-82810000D01*
X155230000Y-82810000D01*
X155230000Y-83010000D01*
G36*
X155230000Y-83010000D02*
G01*
X154030000Y-83010000D01*
X154030000Y-82810000D01*
X155230000Y-82810000D01*
X155230000Y-83010000D01*
G37*
X155230000Y-83410000D02*
X154030000Y-83410000D01*
X154030000Y-83210000D01*
X155230000Y-83210000D01*
X155230000Y-83410000D01*
G36*
X155230000Y-83410000D02*
G01*
X154030000Y-83410000D01*
X154030000Y-83210000D01*
X155230000Y-83210000D01*
X155230000Y-83410000D01*
G37*
X155230000Y-83810000D02*
X154030000Y-83810000D01*
X154030000Y-83610000D01*
X155230000Y-83610000D01*
X155230000Y-83810000D01*
G36*
X155230000Y-83810000D02*
G01*
X154030000Y-83810000D01*
X154030000Y-83610000D01*
X155230000Y-83610000D01*
X155230000Y-83810000D01*
G37*
X155230000Y-84210000D02*
X154030000Y-84210000D01*
X154030000Y-84010000D01*
X155230000Y-84010000D01*
X155230000Y-84210000D01*
G36*
X155230000Y-84210000D02*
G01*
X154030000Y-84210000D01*
X154030000Y-84010000D01*
X155230000Y-84010000D01*
X155230000Y-84210000D01*
G37*
X155230000Y-84610000D02*
X154030000Y-84610000D01*
X154030000Y-84410000D01*
X155230000Y-84410000D01*
X155230000Y-84610000D01*
G36*
X155230000Y-84610000D02*
G01*
X154030000Y-84610000D01*
X154030000Y-84410000D01*
X155230000Y-84410000D01*
X155230000Y-84610000D01*
G37*
X155230000Y-85010000D02*
X154030000Y-85010000D01*
X154030000Y-84810000D01*
X155230000Y-84810000D01*
X155230000Y-85010000D01*
G36*
X155230000Y-85010000D02*
G01*
X154030000Y-85010000D01*
X154030000Y-84810000D01*
X155230000Y-84810000D01*
X155230000Y-85010000D01*
G37*
X155230000Y-85410000D02*
X154030000Y-85410000D01*
X154030000Y-85210000D01*
X155230000Y-85210000D01*
X155230000Y-85410000D01*
G36*
X155230000Y-85410000D02*
G01*
X154030000Y-85410000D01*
X154030000Y-85210000D01*
X155230000Y-85210000D01*
X155230000Y-85410000D01*
G37*
X155230000Y-85810000D02*
X154030000Y-85810000D01*
X154030000Y-85610000D01*
X155230000Y-85610000D01*
X155230000Y-85810000D01*
G36*
X155230000Y-85810000D02*
G01*
X154030000Y-85810000D01*
X154030000Y-85610000D01*
X155230000Y-85610000D01*
X155230000Y-85810000D01*
G37*
X155230000Y-86210000D02*
X154030000Y-86210000D01*
X154030000Y-86010000D01*
X155230000Y-86010000D01*
X155230000Y-86210000D01*
G36*
X155230000Y-86210000D02*
G01*
X154030000Y-86210000D01*
X154030000Y-86010000D01*
X155230000Y-86010000D01*
X155230000Y-86210000D01*
G37*
X155230000Y-86610000D02*
X154030000Y-86610000D01*
X154030000Y-86410000D01*
X155230000Y-86410000D01*
X155230000Y-86610000D01*
G36*
X155230000Y-86610000D02*
G01*
X154030000Y-86610000D01*
X154030000Y-86410000D01*
X155230000Y-86410000D01*
X155230000Y-86610000D01*
G37*
X155230000Y-87010000D02*
X154030000Y-87010000D01*
X154030000Y-86810000D01*
X155230000Y-86810000D01*
X155230000Y-87010000D01*
G36*
X155230000Y-87010000D02*
G01*
X154030000Y-87010000D01*
X154030000Y-86810000D01*
X155230000Y-86810000D01*
X155230000Y-87010000D01*
G37*
%TO.C,J3*%
X137770000Y-71410000D02*
X136570000Y-71410000D01*
X136570000Y-71210000D01*
X137770000Y-71210000D01*
X137770000Y-71410000D01*
G36*
X137770000Y-71410000D02*
G01*
X136570000Y-71410000D01*
X136570000Y-71210000D01*
X137770000Y-71210000D01*
X137770000Y-71410000D01*
G37*
X137770000Y-71810000D02*
X136570000Y-71810000D01*
X136570000Y-71610000D01*
X137770000Y-71610000D01*
X137770000Y-71810000D01*
G36*
X137770000Y-71810000D02*
G01*
X136570000Y-71810000D01*
X136570000Y-71610000D01*
X137770000Y-71610000D01*
X137770000Y-71810000D01*
G37*
X137770000Y-72210000D02*
X136570000Y-72210000D01*
X136570000Y-72010000D01*
X137770000Y-72010000D01*
X137770000Y-72210000D01*
G36*
X137770000Y-72210000D02*
G01*
X136570000Y-72210000D01*
X136570000Y-72010000D01*
X137770000Y-72010000D01*
X137770000Y-72210000D01*
G37*
X137770000Y-72610000D02*
X136570000Y-72610000D01*
X136570000Y-72410000D01*
X137770000Y-72410000D01*
X137770000Y-72610000D01*
G36*
X137770000Y-72610000D02*
G01*
X136570000Y-72610000D01*
X136570000Y-72410000D01*
X137770000Y-72410000D01*
X137770000Y-72610000D01*
G37*
X137770000Y-73010000D02*
X136570000Y-73010000D01*
X136570000Y-72810000D01*
X137770000Y-72810000D01*
X137770000Y-73010000D01*
G36*
X137770000Y-73010000D02*
G01*
X136570000Y-73010000D01*
X136570000Y-72810000D01*
X137770000Y-72810000D01*
X137770000Y-73010000D01*
G37*
X137770000Y-73410000D02*
X136570000Y-73410000D01*
X136570000Y-73210000D01*
X137770000Y-73210000D01*
X137770000Y-73410000D01*
G36*
X137770000Y-73410000D02*
G01*
X136570000Y-73410000D01*
X136570000Y-73210000D01*
X137770000Y-73210000D01*
X137770000Y-73410000D01*
G37*
X137770000Y-73810000D02*
X136570000Y-73810000D01*
X136570000Y-73610000D01*
X137770000Y-73610000D01*
X137770000Y-73810000D01*
G36*
X137770000Y-73810000D02*
G01*
X136570000Y-73810000D01*
X136570000Y-73610000D01*
X137770000Y-73610000D01*
X137770000Y-73810000D01*
G37*
X137770000Y-74210000D02*
X136570000Y-74210000D01*
X136570000Y-74010000D01*
X137770000Y-74010000D01*
X137770000Y-74210000D01*
G36*
X137770000Y-74210000D02*
G01*
X136570000Y-74210000D01*
X136570000Y-74010000D01*
X137770000Y-74010000D01*
X137770000Y-74210000D01*
G37*
X137770000Y-74610000D02*
X136570000Y-74610000D01*
X136570000Y-74410000D01*
X137770000Y-74410000D01*
X137770000Y-74610000D01*
G36*
X137770000Y-74610000D02*
G01*
X136570000Y-74610000D01*
X136570000Y-74410000D01*
X137770000Y-74410000D01*
X137770000Y-74610000D01*
G37*
X137770000Y-75010000D02*
X136570000Y-75010000D01*
X136570000Y-74810000D01*
X137770000Y-74810000D01*
X137770000Y-75010000D01*
G36*
X137770000Y-75010000D02*
G01*
X136570000Y-75010000D01*
X136570000Y-74810000D01*
X137770000Y-74810000D01*
X137770000Y-75010000D01*
G37*
X137770000Y-75410000D02*
X136570000Y-75410000D01*
X136570000Y-75210000D01*
X137770000Y-75210000D01*
X137770000Y-75410000D01*
G36*
X137770000Y-75410000D02*
G01*
X136570000Y-75410000D01*
X136570000Y-75210000D01*
X137770000Y-75210000D01*
X137770000Y-75410000D01*
G37*
X137770000Y-75810000D02*
X136570000Y-75810000D01*
X136570000Y-75610000D01*
X137770000Y-75610000D01*
X137770000Y-75810000D01*
G36*
X137770000Y-75810000D02*
G01*
X136570000Y-75810000D01*
X136570000Y-75610000D01*
X137770000Y-75610000D01*
X137770000Y-75810000D01*
G37*
X137770000Y-76210000D02*
X136570000Y-76210000D01*
X136570000Y-76010000D01*
X137770000Y-76010000D01*
X137770000Y-76210000D01*
G36*
X137770000Y-76210000D02*
G01*
X136570000Y-76210000D01*
X136570000Y-76010000D01*
X137770000Y-76010000D01*
X137770000Y-76210000D01*
G37*
X137770000Y-76610000D02*
X136570000Y-76610000D01*
X136570000Y-76410000D01*
X137770000Y-76410000D01*
X137770000Y-76610000D01*
G36*
X137770000Y-76610000D02*
G01*
X136570000Y-76610000D01*
X136570000Y-76410000D01*
X137770000Y-76410000D01*
X137770000Y-76610000D01*
G37*
X137770000Y-77010000D02*
X136570000Y-77010000D01*
X136570000Y-76810000D01*
X137770000Y-76810000D01*
X137770000Y-77010000D01*
G36*
X137770000Y-77010000D02*
G01*
X136570000Y-77010000D01*
X136570000Y-76810000D01*
X137770000Y-76810000D01*
X137770000Y-77010000D01*
G37*
X137770000Y-77410000D02*
X136570000Y-77410000D01*
X136570000Y-77210000D01*
X137770000Y-77210000D01*
X137770000Y-77410000D01*
G36*
X137770000Y-77410000D02*
G01*
X136570000Y-77410000D01*
X136570000Y-77210000D01*
X137770000Y-77210000D01*
X137770000Y-77410000D01*
G37*
X137770000Y-77810000D02*
X136570000Y-77810000D01*
X136570000Y-77610000D01*
X137770000Y-77610000D01*
X137770000Y-77810000D01*
G36*
X137770000Y-77810000D02*
G01*
X136570000Y-77810000D01*
X136570000Y-77610000D01*
X137770000Y-77610000D01*
X137770000Y-77810000D01*
G37*
X137770000Y-78210000D02*
X136570000Y-78210000D01*
X136570000Y-78010000D01*
X137770000Y-78010000D01*
X137770000Y-78210000D01*
G36*
X137770000Y-78210000D02*
G01*
X136570000Y-78210000D01*
X136570000Y-78010000D01*
X137770000Y-78010000D01*
X137770000Y-78210000D01*
G37*
X137770000Y-78610000D02*
X136570000Y-78610000D01*
X136570000Y-78410000D01*
X137770000Y-78410000D01*
X137770000Y-78610000D01*
G36*
X137770000Y-78610000D02*
G01*
X136570000Y-78610000D01*
X136570000Y-78410000D01*
X137770000Y-78410000D01*
X137770000Y-78610000D01*
G37*
X137770000Y-79010000D02*
X136570000Y-79010000D01*
X136570000Y-78810000D01*
X137770000Y-78810000D01*
X137770000Y-79010000D01*
G36*
X137770000Y-79010000D02*
G01*
X136570000Y-79010000D01*
X136570000Y-78810000D01*
X137770000Y-78810000D01*
X137770000Y-79010000D01*
G37*
X137770000Y-79410000D02*
X136570000Y-79410000D01*
X136570000Y-79210000D01*
X137770000Y-79210000D01*
X137770000Y-79410000D01*
G36*
X137770000Y-79410000D02*
G01*
X136570000Y-79410000D01*
X136570000Y-79210000D01*
X137770000Y-79210000D01*
X137770000Y-79410000D01*
G37*
X137770000Y-79810000D02*
X136570000Y-79810000D01*
X136570000Y-79610000D01*
X137770000Y-79610000D01*
X137770000Y-79810000D01*
G36*
X137770000Y-79810000D02*
G01*
X136570000Y-79810000D01*
X136570000Y-79610000D01*
X137770000Y-79610000D01*
X137770000Y-79810000D01*
G37*
X137770000Y-80210000D02*
X136570000Y-80210000D01*
X136570000Y-80010000D01*
X137770000Y-80010000D01*
X137770000Y-80210000D01*
G36*
X137770000Y-80210000D02*
G01*
X136570000Y-80210000D01*
X136570000Y-80010000D01*
X137770000Y-80010000D01*
X137770000Y-80210000D01*
G37*
X137770000Y-80610000D02*
X136570000Y-80610000D01*
X136570000Y-80410000D01*
X137770000Y-80410000D01*
X137770000Y-80610000D01*
G36*
X137770000Y-80610000D02*
G01*
X136570000Y-80610000D01*
X136570000Y-80410000D01*
X137770000Y-80410000D01*
X137770000Y-80610000D01*
G37*
X137770000Y-81010000D02*
X136570000Y-81010000D01*
X136570000Y-80810000D01*
X137770000Y-80810000D01*
X137770000Y-81010000D01*
G36*
X137770000Y-81010000D02*
G01*
X136570000Y-81010000D01*
X136570000Y-80810000D01*
X137770000Y-80810000D01*
X137770000Y-81010000D01*
G37*
X137770000Y-81410000D02*
X136570000Y-81410000D01*
X136570000Y-81210000D01*
X137770000Y-81210000D01*
X137770000Y-81410000D01*
G36*
X137770000Y-81410000D02*
G01*
X136570000Y-81410000D01*
X136570000Y-81210000D01*
X137770000Y-81210000D01*
X137770000Y-81410000D01*
G37*
X137770000Y-81810000D02*
X136570000Y-81810000D01*
X136570000Y-81610000D01*
X137770000Y-81610000D01*
X137770000Y-81810000D01*
G36*
X137770000Y-81810000D02*
G01*
X136570000Y-81810000D01*
X136570000Y-81610000D01*
X137770000Y-81610000D01*
X137770000Y-81810000D01*
G37*
X137770000Y-81810000D02*
X136570000Y-81810000D01*
X136570000Y-81610000D01*
X137770000Y-81610000D01*
X137770000Y-81810000D01*
G36*
X137770000Y-81810000D02*
G01*
X136570000Y-81810000D01*
X136570000Y-81610000D01*
X137770000Y-81610000D01*
X137770000Y-81810000D01*
G37*
X137770000Y-82210000D02*
X136570000Y-82210000D01*
X136570000Y-82010000D01*
X137770000Y-82010000D01*
X137770000Y-82210000D01*
G36*
X137770000Y-82210000D02*
G01*
X136570000Y-82210000D01*
X136570000Y-82010000D01*
X137770000Y-82010000D01*
X137770000Y-82210000D01*
G37*
X137770000Y-82610000D02*
X136570000Y-82610000D01*
X136570000Y-82410000D01*
X137770000Y-82410000D01*
X137770000Y-82610000D01*
G36*
X137770000Y-82610000D02*
G01*
X136570000Y-82610000D01*
X136570000Y-82410000D01*
X137770000Y-82410000D01*
X137770000Y-82610000D01*
G37*
X137770000Y-83010000D02*
X136570000Y-83010000D01*
X136570000Y-82810000D01*
X137770000Y-82810000D01*
X137770000Y-83010000D01*
G36*
X137770000Y-83010000D02*
G01*
X136570000Y-83010000D01*
X136570000Y-82810000D01*
X137770000Y-82810000D01*
X137770000Y-83010000D01*
G37*
X137770000Y-83410000D02*
X136570000Y-83410000D01*
X136570000Y-83210000D01*
X137770000Y-83210000D01*
X137770000Y-83410000D01*
G36*
X137770000Y-83410000D02*
G01*
X136570000Y-83410000D01*
X136570000Y-83210000D01*
X137770000Y-83210000D01*
X137770000Y-83410000D01*
G37*
X137770000Y-83810000D02*
X136570000Y-83810000D01*
X136570000Y-83610000D01*
X137770000Y-83610000D01*
X137770000Y-83810000D01*
G36*
X137770000Y-83810000D02*
G01*
X136570000Y-83810000D01*
X136570000Y-83610000D01*
X137770000Y-83610000D01*
X137770000Y-83810000D01*
G37*
X137770000Y-84210000D02*
X136570000Y-84210000D01*
X136570000Y-84010000D01*
X137770000Y-84010000D01*
X137770000Y-84210000D01*
G36*
X137770000Y-84210000D02*
G01*
X136570000Y-84210000D01*
X136570000Y-84010000D01*
X137770000Y-84010000D01*
X137770000Y-84210000D01*
G37*
X137770000Y-84610000D02*
X136570000Y-84610000D01*
X136570000Y-84410000D01*
X137770000Y-84410000D01*
X137770000Y-84610000D01*
G36*
X137770000Y-84610000D02*
G01*
X136570000Y-84610000D01*
X136570000Y-84410000D01*
X137770000Y-84410000D01*
X137770000Y-84610000D01*
G37*
X137770000Y-85010000D02*
X136570000Y-85010000D01*
X136570000Y-84810000D01*
X137770000Y-84810000D01*
X137770000Y-85010000D01*
G36*
X137770000Y-85010000D02*
G01*
X136570000Y-85010000D01*
X136570000Y-84810000D01*
X137770000Y-84810000D01*
X137770000Y-85010000D01*
G37*
X137770000Y-85410000D02*
X136570000Y-85410000D01*
X136570000Y-85210000D01*
X137770000Y-85210000D01*
X137770000Y-85410000D01*
G36*
X137770000Y-85410000D02*
G01*
X136570000Y-85410000D01*
X136570000Y-85210000D01*
X137770000Y-85210000D01*
X137770000Y-85410000D01*
G37*
X137770000Y-85410000D02*
X136570000Y-85410000D01*
X136570000Y-85210000D01*
X137770000Y-85210000D01*
X137770000Y-85410000D01*
G36*
X137770000Y-85410000D02*
G01*
X136570000Y-85410000D01*
X136570000Y-85210000D01*
X137770000Y-85210000D01*
X137770000Y-85410000D01*
G37*
X137770000Y-85810000D02*
X136570000Y-85810000D01*
X136570000Y-85610000D01*
X137770000Y-85610000D01*
X137770000Y-85810000D01*
G36*
X137770000Y-85810000D02*
G01*
X136570000Y-85810000D01*
X136570000Y-85610000D01*
X137770000Y-85610000D01*
X137770000Y-85810000D01*
G37*
X137770000Y-86210000D02*
X136570000Y-86210000D01*
X136570000Y-86010000D01*
X137770000Y-86010000D01*
X137770000Y-86210000D01*
G36*
X137770000Y-86210000D02*
G01*
X136570000Y-86210000D01*
X136570000Y-86010000D01*
X137770000Y-86010000D01*
X137770000Y-86210000D01*
G37*
X137770000Y-86610000D02*
X136570000Y-86610000D01*
X136570000Y-86410000D01*
X137770000Y-86410000D01*
X137770000Y-86610000D01*
G36*
X137770000Y-86610000D02*
G01*
X136570000Y-86610000D01*
X136570000Y-86410000D01*
X137770000Y-86410000D01*
X137770000Y-86610000D01*
G37*
X137770000Y-87010000D02*
X136570000Y-87010000D01*
X136570000Y-86810000D01*
X137770000Y-86810000D01*
X137770000Y-87010000D01*
G36*
X137770000Y-87010000D02*
G01*
X136570000Y-87010000D01*
X136570000Y-86810000D01*
X137770000Y-86810000D01*
X137770000Y-87010000D01*
G37*
X137770000Y-87010000D02*
X136570000Y-87010000D01*
X136570000Y-86810000D01*
X137770000Y-86810000D01*
X137770000Y-87010000D01*
G36*
X137770000Y-87010000D02*
G01*
X136570000Y-87010000D01*
X136570000Y-86810000D01*
X137770000Y-86810000D01*
X137770000Y-87010000D01*
G37*
X141190000Y-71410000D02*
X139990000Y-71410000D01*
X139990000Y-71210000D01*
X141190000Y-71210000D01*
X141190000Y-71410000D01*
G36*
X141190000Y-71410000D02*
G01*
X139990000Y-71410000D01*
X139990000Y-71210000D01*
X141190000Y-71210000D01*
X141190000Y-71410000D01*
G37*
X141190000Y-71410000D02*
X139990000Y-71410000D01*
X139990000Y-71210000D01*
X141190000Y-71210000D01*
X141190000Y-71410000D01*
G36*
X141190000Y-71410000D02*
G01*
X139990000Y-71410000D01*
X139990000Y-71210000D01*
X141190000Y-71210000D01*
X141190000Y-71410000D01*
G37*
X141190000Y-71810000D02*
X139990000Y-71810000D01*
X139990000Y-71610000D01*
X141190000Y-71610000D01*
X141190000Y-71810000D01*
G36*
X141190000Y-71810000D02*
G01*
X139990000Y-71810000D01*
X139990000Y-71610000D01*
X141190000Y-71610000D01*
X141190000Y-71810000D01*
G37*
X141190000Y-72210000D02*
X139990000Y-72210000D01*
X139990000Y-72010000D01*
X141190000Y-72010000D01*
X141190000Y-72210000D01*
G36*
X141190000Y-72210000D02*
G01*
X139990000Y-72210000D01*
X139990000Y-72010000D01*
X141190000Y-72010000D01*
X141190000Y-72210000D01*
G37*
X141190000Y-72610000D02*
X139990000Y-72610000D01*
X139990000Y-72410000D01*
X141190000Y-72410000D01*
X141190000Y-72610000D01*
G36*
X141190000Y-72610000D02*
G01*
X139990000Y-72610000D01*
X139990000Y-72410000D01*
X141190000Y-72410000D01*
X141190000Y-72610000D01*
G37*
X141190000Y-73010000D02*
X139990000Y-73010000D01*
X139990000Y-72810000D01*
X141190000Y-72810000D01*
X141190000Y-73010000D01*
G36*
X141190000Y-73010000D02*
G01*
X139990000Y-73010000D01*
X139990000Y-72810000D01*
X141190000Y-72810000D01*
X141190000Y-73010000D01*
G37*
X141190000Y-73010000D02*
X139990000Y-73010000D01*
X139990000Y-72810000D01*
X141190000Y-72810000D01*
X141190000Y-73010000D01*
G36*
X141190000Y-73010000D02*
G01*
X139990000Y-73010000D01*
X139990000Y-72810000D01*
X141190000Y-72810000D01*
X141190000Y-73010000D01*
G37*
X141190000Y-73410000D02*
X139990000Y-73410000D01*
X139990000Y-73210000D01*
X141190000Y-73210000D01*
X141190000Y-73410000D01*
G36*
X141190000Y-73410000D02*
G01*
X139990000Y-73410000D01*
X139990000Y-73210000D01*
X141190000Y-73210000D01*
X141190000Y-73410000D01*
G37*
X141190000Y-73810000D02*
X139990000Y-73810000D01*
X139990000Y-73610000D01*
X141190000Y-73610000D01*
X141190000Y-73810000D01*
G36*
X141190000Y-73810000D02*
G01*
X139990000Y-73810000D01*
X139990000Y-73610000D01*
X141190000Y-73610000D01*
X141190000Y-73810000D01*
G37*
X141190000Y-74210000D02*
X139990000Y-74210000D01*
X139990000Y-74010000D01*
X141190000Y-74010000D01*
X141190000Y-74210000D01*
G36*
X141190000Y-74210000D02*
G01*
X139990000Y-74210000D01*
X139990000Y-74010000D01*
X141190000Y-74010000D01*
X141190000Y-74210000D01*
G37*
X141190000Y-74610000D02*
X139990000Y-74610000D01*
X139990000Y-74410000D01*
X141190000Y-74410000D01*
X141190000Y-74610000D01*
G36*
X141190000Y-74610000D02*
G01*
X139990000Y-74610000D01*
X139990000Y-74410000D01*
X141190000Y-74410000D01*
X141190000Y-74610000D01*
G37*
X141190000Y-75010000D02*
X139990000Y-75010000D01*
X139990000Y-74810000D01*
X141190000Y-74810000D01*
X141190000Y-75010000D01*
G36*
X141190000Y-75010000D02*
G01*
X139990000Y-75010000D01*
X139990000Y-74810000D01*
X141190000Y-74810000D01*
X141190000Y-75010000D01*
G37*
X141190000Y-75410000D02*
X139990000Y-75410000D01*
X139990000Y-75210000D01*
X141190000Y-75210000D01*
X141190000Y-75410000D01*
G36*
X141190000Y-75410000D02*
G01*
X139990000Y-75410000D01*
X139990000Y-75210000D01*
X141190000Y-75210000D01*
X141190000Y-75410000D01*
G37*
X141190000Y-75810000D02*
X139990000Y-75810000D01*
X139990000Y-75610000D01*
X141190000Y-75610000D01*
X141190000Y-75810000D01*
G36*
X141190000Y-75810000D02*
G01*
X139990000Y-75810000D01*
X139990000Y-75610000D01*
X141190000Y-75610000D01*
X141190000Y-75810000D01*
G37*
X141190000Y-76210000D02*
X139990000Y-76210000D01*
X139990000Y-76010000D01*
X141190000Y-76010000D01*
X141190000Y-76210000D01*
G36*
X141190000Y-76210000D02*
G01*
X139990000Y-76210000D01*
X139990000Y-76010000D01*
X141190000Y-76010000D01*
X141190000Y-76210000D01*
G37*
X141190000Y-76610000D02*
X139990000Y-76610000D01*
X139990000Y-76410000D01*
X141190000Y-76410000D01*
X141190000Y-76610000D01*
G36*
X141190000Y-76610000D02*
G01*
X139990000Y-76610000D01*
X139990000Y-76410000D01*
X141190000Y-76410000D01*
X141190000Y-76610000D01*
G37*
X141190000Y-76610000D02*
X139990000Y-76610000D01*
X139990000Y-76410000D01*
X141190000Y-76410000D01*
X141190000Y-76610000D01*
G36*
X141190000Y-76610000D02*
G01*
X139990000Y-76610000D01*
X139990000Y-76410000D01*
X141190000Y-76410000D01*
X141190000Y-76610000D01*
G37*
X141190000Y-77010000D02*
X139990000Y-77010000D01*
X139990000Y-76810000D01*
X141190000Y-76810000D01*
X141190000Y-77010000D01*
G36*
X141190000Y-77010000D02*
G01*
X139990000Y-77010000D01*
X139990000Y-76810000D01*
X141190000Y-76810000D01*
X141190000Y-77010000D01*
G37*
X141190000Y-77410000D02*
X139990000Y-77410000D01*
X139990000Y-77210000D01*
X141190000Y-77210000D01*
X141190000Y-77410000D01*
G36*
X141190000Y-77410000D02*
G01*
X139990000Y-77410000D01*
X139990000Y-77210000D01*
X141190000Y-77210000D01*
X141190000Y-77410000D01*
G37*
X141190000Y-77810000D02*
X139990000Y-77810000D01*
X139990000Y-77610000D01*
X141190000Y-77610000D01*
X141190000Y-77810000D01*
G36*
X141190000Y-77810000D02*
G01*
X139990000Y-77810000D01*
X139990000Y-77610000D01*
X141190000Y-77610000D01*
X141190000Y-77810000D01*
G37*
X141190000Y-78210000D02*
X139990000Y-78210000D01*
X139990000Y-78010000D01*
X141190000Y-78010000D01*
X141190000Y-78210000D01*
G36*
X141190000Y-78210000D02*
G01*
X139990000Y-78210000D01*
X139990000Y-78010000D01*
X141190000Y-78010000D01*
X141190000Y-78210000D01*
G37*
X141190000Y-78610000D02*
X139990000Y-78610000D01*
X139990000Y-78410000D01*
X141190000Y-78410000D01*
X141190000Y-78610000D01*
G36*
X141190000Y-78610000D02*
G01*
X139990000Y-78610000D01*
X139990000Y-78410000D01*
X141190000Y-78410000D01*
X141190000Y-78610000D01*
G37*
X141190000Y-79010000D02*
X139990000Y-79010000D01*
X139990000Y-78810000D01*
X141190000Y-78810000D01*
X141190000Y-79010000D01*
G36*
X141190000Y-79010000D02*
G01*
X139990000Y-79010000D01*
X139990000Y-78810000D01*
X141190000Y-78810000D01*
X141190000Y-79010000D01*
G37*
X141190000Y-79410000D02*
X139990000Y-79410000D01*
X139990000Y-79210000D01*
X141190000Y-79210000D01*
X141190000Y-79410000D01*
G36*
X141190000Y-79410000D02*
G01*
X139990000Y-79410000D01*
X139990000Y-79210000D01*
X141190000Y-79210000D01*
X141190000Y-79410000D01*
G37*
X141190000Y-79810000D02*
X139990000Y-79810000D01*
X139990000Y-79610000D01*
X141190000Y-79610000D01*
X141190000Y-79810000D01*
G36*
X141190000Y-79810000D02*
G01*
X139990000Y-79810000D01*
X139990000Y-79610000D01*
X141190000Y-79610000D01*
X141190000Y-79810000D01*
G37*
X141190000Y-80210000D02*
X139990000Y-80210000D01*
X139990000Y-80010000D01*
X141190000Y-80010000D01*
X141190000Y-80210000D01*
G36*
X141190000Y-80210000D02*
G01*
X139990000Y-80210000D01*
X139990000Y-80010000D01*
X141190000Y-80010000D01*
X141190000Y-80210000D01*
G37*
X141190000Y-80610000D02*
X139990000Y-80610000D01*
X139990000Y-80410000D01*
X141190000Y-80410000D01*
X141190000Y-80610000D01*
G36*
X141190000Y-80610000D02*
G01*
X139990000Y-80610000D01*
X139990000Y-80410000D01*
X141190000Y-80410000D01*
X141190000Y-80610000D01*
G37*
X141190000Y-81010000D02*
X139990000Y-81010000D01*
X139990000Y-80810000D01*
X141190000Y-80810000D01*
X141190000Y-81010000D01*
G36*
X141190000Y-81010000D02*
G01*
X139990000Y-81010000D01*
X139990000Y-80810000D01*
X141190000Y-80810000D01*
X141190000Y-81010000D01*
G37*
X141190000Y-81410000D02*
X139990000Y-81410000D01*
X139990000Y-81210000D01*
X141190000Y-81210000D01*
X141190000Y-81410000D01*
G36*
X141190000Y-81410000D02*
G01*
X139990000Y-81410000D01*
X139990000Y-81210000D01*
X141190000Y-81210000D01*
X141190000Y-81410000D01*
G37*
X141190000Y-81810000D02*
X139990000Y-81810000D01*
X139990000Y-81610000D01*
X141190000Y-81610000D01*
X141190000Y-81810000D01*
G36*
X141190000Y-81810000D02*
G01*
X139990000Y-81810000D01*
X139990000Y-81610000D01*
X141190000Y-81610000D01*
X141190000Y-81810000D01*
G37*
X141190000Y-82210000D02*
X139990000Y-82210000D01*
X139990000Y-82010000D01*
X141190000Y-82010000D01*
X141190000Y-82210000D01*
G36*
X141190000Y-82210000D02*
G01*
X139990000Y-82210000D01*
X139990000Y-82010000D01*
X141190000Y-82010000D01*
X141190000Y-82210000D01*
G37*
X141190000Y-82610000D02*
X139990000Y-82610000D01*
X139990000Y-82410000D01*
X141190000Y-82410000D01*
X141190000Y-82610000D01*
G36*
X141190000Y-82610000D02*
G01*
X139990000Y-82610000D01*
X139990000Y-82410000D01*
X141190000Y-82410000D01*
X141190000Y-82610000D01*
G37*
X141190000Y-83010000D02*
X139990000Y-83010000D01*
X139990000Y-82810000D01*
X141190000Y-82810000D01*
X141190000Y-83010000D01*
G36*
X141190000Y-83010000D02*
G01*
X139990000Y-83010000D01*
X139990000Y-82810000D01*
X141190000Y-82810000D01*
X141190000Y-83010000D01*
G37*
X141190000Y-83410000D02*
X139990000Y-83410000D01*
X139990000Y-83210000D01*
X141190000Y-83210000D01*
X141190000Y-83410000D01*
G36*
X141190000Y-83410000D02*
G01*
X139990000Y-83410000D01*
X139990000Y-83210000D01*
X141190000Y-83210000D01*
X141190000Y-83410000D01*
G37*
X141190000Y-83810000D02*
X139990000Y-83810000D01*
X139990000Y-83610000D01*
X141190000Y-83610000D01*
X141190000Y-83810000D01*
G36*
X141190000Y-83810000D02*
G01*
X139990000Y-83810000D01*
X139990000Y-83610000D01*
X141190000Y-83610000D01*
X141190000Y-83810000D01*
G37*
X141190000Y-84210000D02*
X139990000Y-84210000D01*
X139990000Y-84010000D01*
X141190000Y-84010000D01*
X141190000Y-84210000D01*
G36*
X141190000Y-84210000D02*
G01*
X139990000Y-84210000D01*
X139990000Y-84010000D01*
X141190000Y-84010000D01*
X141190000Y-84210000D01*
G37*
X141190000Y-84610000D02*
X139990000Y-84610000D01*
X139990000Y-84410000D01*
X141190000Y-84410000D01*
X141190000Y-84610000D01*
G36*
X141190000Y-84610000D02*
G01*
X139990000Y-84610000D01*
X139990000Y-84410000D01*
X141190000Y-84410000D01*
X141190000Y-84610000D01*
G37*
X141190000Y-85010000D02*
X139990000Y-85010000D01*
X139990000Y-84810000D01*
X141190000Y-84810000D01*
X141190000Y-85010000D01*
G36*
X141190000Y-85010000D02*
G01*
X139990000Y-85010000D01*
X139990000Y-84810000D01*
X141190000Y-84810000D01*
X141190000Y-85010000D01*
G37*
X141190000Y-85410000D02*
X139990000Y-85410000D01*
X139990000Y-85210000D01*
X141190000Y-85210000D01*
X141190000Y-85410000D01*
G36*
X141190000Y-85410000D02*
G01*
X139990000Y-85410000D01*
X139990000Y-85210000D01*
X141190000Y-85210000D01*
X141190000Y-85410000D01*
G37*
X141190000Y-85810000D02*
X139990000Y-85810000D01*
X139990000Y-85610000D01*
X141190000Y-85610000D01*
X141190000Y-85810000D01*
G36*
X141190000Y-85810000D02*
G01*
X139990000Y-85810000D01*
X139990000Y-85610000D01*
X141190000Y-85610000D01*
X141190000Y-85810000D01*
G37*
X141190000Y-86210000D02*
X139990000Y-86210000D01*
X139990000Y-86010000D01*
X141190000Y-86010000D01*
X141190000Y-86210000D01*
G36*
X141190000Y-86210000D02*
G01*
X139990000Y-86210000D01*
X139990000Y-86010000D01*
X141190000Y-86010000D01*
X141190000Y-86210000D01*
G37*
X141190000Y-86610000D02*
X139990000Y-86610000D01*
X139990000Y-86410000D01*
X141190000Y-86410000D01*
X141190000Y-86610000D01*
G36*
X141190000Y-86610000D02*
G01*
X139990000Y-86610000D01*
X139990000Y-86410000D01*
X141190000Y-86410000D01*
X141190000Y-86610000D01*
G37*
X141190000Y-87010000D02*
X139990000Y-87010000D01*
X139990000Y-86810000D01*
X141190000Y-86810000D01*
X141190000Y-87010000D01*
G36*
X141190000Y-87010000D02*
G01*
X139990000Y-87010000D01*
X139990000Y-86810000D01*
X141190000Y-86810000D01*
X141190000Y-87010000D01*
G37*
%TO.C,J4*%
X124970000Y-98250000D02*
X123770000Y-98250000D01*
X123770000Y-98050000D01*
X124970000Y-98050000D01*
X124970000Y-98250000D01*
G36*
X124970000Y-98250000D02*
G01*
X123770000Y-98250000D01*
X123770000Y-98050000D01*
X124970000Y-98050000D01*
X124970000Y-98250000D01*
G37*
X124970000Y-98650000D02*
X123770000Y-98650000D01*
X123770000Y-98450000D01*
X124970000Y-98450000D01*
X124970000Y-98650000D01*
G36*
X124970000Y-98650000D02*
G01*
X123770000Y-98650000D01*
X123770000Y-98450000D01*
X124970000Y-98450000D01*
X124970000Y-98650000D01*
G37*
X124970000Y-99050000D02*
X123770000Y-99050000D01*
X123770000Y-98850000D01*
X124970000Y-98850000D01*
X124970000Y-99050000D01*
G36*
X124970000Y-99050000D02*
G01*
X123770000Y-99050000D01*
X123770000Y-98850000D01*
X124970000Y-98850000D01*
X124970000Y-99050000D01*
G37*
X124970000Y-99450000D02*
X123770000Y-99450000D01*
X123770000Y-99250000D01*
X124970000Y-99250000D01*
X124970000Y-99450000D01*
G36*
X124970000Y-99450000D02*
G01*
X123770000Y-99450000D01*
X123770000Y-99250000D01*
X124970000Y-99250000D01*
X124970000Y-99450000D01*
G37*
X124970000Y-99850000D02*
X123770000Y-99850000D01*
X123770000Y-99650000D01*
X124970000Y-99650000D01*
X124970000Y-99850000D01*
G36*
X124970000Y-99850000D02*
G01*
X123770000Y-99850000D01*
X123770000Y-99650000D01*
X124970000Y-99650000D01*
X124970000Y-99850000D01*
G37*
X124970000Y-100250000D02*
X123770000Y-100250000D01*
X123770000Y-100050000D01*
X124970000Y-100050000D01*
X124970000Y-100250000D01*
G36*
X124970000Y-100250000D02*
G01*
X123770000Y-100250000D01*
X123770000Y-100050000D01*
X124970000Y-100050000D01*
X124970000Y-100250000D01*
G37*
X124970000Y-100650000D02*
X123770000Y-100650000D01*
X123770000Y-100450000D01*
X124970000Y-100450000D01*
X124970000Y-100650000D01*
G36*
X124970000Y-100650000D02*
G01*
X123770000Y-100650000D01*
X123770000Y-100450000D01*
X124970000Y-100450000D01*
X124970000Y-100650000D01*
G37*
X124970000Y-101050000D02*
X123770000Y-101050000D01*
X123770000Y-100850000D01*
X124970000Y-100850000D01*
X124970000Y-101050000D01*
G36*
X124970000Y-101050000D02*
G01*
X123770000Y-101050000D01*
X123770000Y-100850000D01*
X124970000Y-100850000D01*
X124970000Y-101050000D01*
G37*
X124970000Y-101450000D02*
X123770000Y-101450000D01*
X123770000Y-101250000D01*
X124970000Y-101250000D01*
X124970000Y-101450000D01*
G36*
X124970000Y-101450000D02*
G01*
X123770000Y-101450000D01*
X123770000Y-101250000D01*
X124970000Y-101250000D01*
X124970000Y-101450000D01*
G37*
X124970000Y-101850000D02*
X123770000Y-101850000D01*
X123770000Y-101650000D01*
X124970000Y-101650000D01*
X124970000Y-101850000D01*
G36*
X124970000Y-101850000D02*
G01*
X123770000Y-101850000D01*
X123770000Y-101650000D01*
X124970000Y-101650000D01*
X124970000Y-101850000D01*
G37*
X124970000Y-102250000D02*
X123770000Y-102250000D01*
X123770000Y-102050000D01*
X124970000Y-102050000D01*
X124970000Y-102250000D01*
G36*
X124970000Y-102250000D02*
G01*
X123770000Y-102250000D01*
X123770000Y-102050000D01*
X124970000Y-102050000D01*
X124970000Y-102250000D01*
G37*
X124970000Y-102650000D02*
X123770000Y-102650000D01*
X123770000Y-102450000D01*
X124970000Y-102450000D01*
X124970000Y-102650000D01*
G36*
X124970000Y-102650000D02*
G01*
X123770000Y-102650000D01*
X123770000Y-102450000D01*
X124970000Y-102450000D01*
X124970000Y-102650000D01*
G37*
X124970000Y-103050000D02*
X123770000Y-103050000D01*
X123770000Y-102850000D01*
X124970000Y-102850000D01*
X124970000Y-103050000D01*
G36*
X124970000Y-103050000D02*
G01*
X123770000Y-103050000D01*
X123770000Y-102850000D01*
X124970000Y-102850000D01*
X124970000Y-103050000D01*
G37*
X124970000Y-103450000D02*
X123770000Y-103450000D01*
X123770000Y-103250000D01*
X124970000Y-103250000D01*
X124970000Y-103450000D01*
G36*
X124970000Y-103450000D02*
G01*
X123770000Y-103450000D01*
X123770000Y-103250000D01*
X124970000Y-103250000D01*
X124970000Y-103450000D01*
G37*
X124970000Y-103850000D02*
X123770000Y-103850000D01*
X123770000Y-103650000D01*
X124970000Y-103650000D01*
X124970000Y-103850000D01*
G36*
X124970000Y-103850000D02*
G01*
X123770000Y-103850000D01*
X123770000Y-103650000D01*
X124970000Y-103650000D01*
X124970000Y-103850000D01*
G37*
X124970000Y-104250000D02*
X123770000Y-104250000D01*
X123770000Y-104050000D01*
X124970000Y-104050000D01*
X124970000Y-104250000D01*
G36*
X124970000Y-104250000D02*
G01*
X123770000Y-104250000D01*
X123770000Y-104050000D01*
X124970000Y-104050000D01*
X124970000Y-104250000D01*
G37*
X124970000Y-104650000D02*
X123770000Y-104650000D01*
X123770000Y-104450000D01*
X124970000Y-104450000D01*
X124970000Y-104650000D01*
G36*
X124970000Y-104650000D02*
G01*
X123770000Y-104650000D01*
X123770000Y-104450000D01*
X124970000Y-104450000D01*
X124970000Y-104650000D01*
G37*
X124970000Y-105050000D02*
X123770000Y-105050000D01*
X123770000Y-104850000D01*
X124970000Y-104850000D01*
X124970000Y-105050000D01*
G36*
X124970000Y-105050000D02*
G01*
X123770000Y-105050000D01*
X123770000Y-104850000D01*
X124970000Y-104850000D01*
X124970000Y-105050000D01*
G37*
X124970000Y-105450000D02*
X123770000Y-105450000D01*
X123770000Y-105250000D01*
X124970000Y-105250000D01*
X124970000Y-105450000D01*
G36*
X124970000Y-105450000D02*
G01*
X123770000Y-105450000D01*
X123770000Y-105250000D01*
X124970000Y-105250000D01*
X124970000Y-105450000D01*
G37*
X124970000Y-105850000D02*
X123770000Y-105850000D01*
X123770000Y-105650000D01*
X124970000Y-105650000D01*
X124970000Y-105850000D01*
G36*
X124970000Y-105850000D02*
G01*
X123770000Y-105850000D01*
X123770000Y-105650000D01*
X124970000Y-105650000D01*
X124970000Y-105850000D01*
G37*
X124970000Y-106250000D02*
X123770000Y-106250000D01*
X123770000Y-106050000D01*
X124970000Y-106050000D01*
X124970000Y-106250000D01*
G36*
X124970000Y-106250000D02*
G01*
X123770000Y-106250000D01*
X123770000Y-106050000D01*
X124970000Y-106050000D01*
X124970000Y-106250000D01*
G37*
X124970000Y-106650000D02*
X123770000Y-106650000D01*
X123770000Y-106450000D01*
X124970000Y-106450000D01*
X124970000Y-106650000D01*
G36*
X124970000Y-106650000D02*
G01*
X123770000Y-106650000D01*
X123770000Y-106450000D01*
X124970000Y-106450000D01*
X124970000Y-106650000D01*
G37*
X124970000Y-107050000D02*
X123770000Y-107050000D01*
X123770000Y-106850000D01*
X124970000Y-106850000D01*
X124970000Y-107050000D01*
G36*
X124970000Y-107050000D02*
G01*
X123770000Y-107050000D01*
X123770000Y-106850000D01*
X124970000Y-106850000D01*
X124970000Y-107050000D01*
G37*
X124970000Y-107450000D02*
X123770000Y-107450000D01*
X123770000Y-107250000D01*
X124970000Y-107250000D01*
X124970000Y-107450000D01*
G36*
X124970000Y-107450000D02*
G01*
X123770000Y-107450000D01*
X123770000Y-107250000D01*
X124970000Y-107250000D01*
X124970000Y-107450000D01*
G37*
X124970000Y-107850000D02*
X123770000Y-107850000D01*
X123770000Y-107650000D01*
X124970000Y-107650000D01*
X124970000Y-107850000D01*
G36*
X124970000Y-107850000D02*
G01*
X123770000Y-107850000D01*
X123770000Y-107650000D01*
X124970000Y-107650000D01*
X124970000Y-107850000D01*
G37*
X124970000Y-108250000D02*
X123770000Y-108250000D01*
X123770000Y-108050000D01*
X124970000Y-108050000D01*
X124970000Y-108250000D01*
G36*
X124970000Y-108250000D02*
G01*
X123770000Y-108250000D01*
X123770000Y-108050000D01*
X124970000Y-108050000D01*
X124970000Y-108250000D01*
G37*
X124970000Y-108650000D02*
X123770000Y-108650000D01*
X123770000Y-108450000D01*
X124970000Y-108450000D01*
X124970000Y-108650000D01*
G36*
X124970000Y-108650000D02*
G01*
X123770000Y-108650000D01*
X123770000Y-108450000D01*
X124970000Y-108450000D01*
X124970000Y-108650000D01*
G37*
X124970000Y-108650000D02*
X123770000Y-108650000D01*
X123770000Y-108450000D01*
X124970000Y-108450000D01*
X124970000Y-108650000D01*
G36*
X124970000Y-108650000D02*
G01*
X123770000Y-108650000D01*
X123770000Y-108450000D01*
X124970000Y-108450000D01*
X124970000Y-108650000D01*
G37*
X124970000Y-109050000D02*
X123770000Y-109050000D01*
X123770000Y-108850000D01*
X124970000Y-108850000D01*
X124970000Y-109050000D01*
G36*
X124970000Y-109050000D02*
G01*
X123770000Y-109050000D01*
X123770000Y-108850000D01*
X124970000Y-108850000D01*
X124970000Y-109050000D01*
G37*
X124970000Y-109450000D02*
X123770000Y-109450000D01*
X123770000Y-109250000D01*
X124970000Y-109250000D01*
X124970000Y-109450000D01*
G36*
X124970000Y-109450000D02*
G01*
X123770000Y-109450000D01*
X123770000Y-109250000D01*
X124970000Y-109250000D01*
X124970000Y-109450000D01*
G37*
X124970000Y-109850000D02*
X123770000Y-109850000D01*
X123770000Y-109650000D01*
X124970000Y-109650000D01*
X124970000Y-109850000D01*
G36*
X124970000Y-109850000D02*
G01*
X123770000Y-109850000D01*
X123770000Y-109650000D01*
X124970000Y-109650000D01*
X124970000Y-109850000D01*
G37*
X124970000Y-110250000D02*
X123770000Y-110250000D01*
X123770000Y-110050000D01*
X124970000Y-110050000D01*
X124970000Y-110250000D01*
G36*
X124970000Y-110250000D02*
G01*
X123770000Y-110250000D01*
X123770000Y-110050000D01*
X124970000Y-110050000D01*
X124970000Y-110250000D01*
G37*
X124970000Y-110650000D02*
X123770000Y-110650000D01*
X123770000Y-110450000D01*
X124970000Y-110450000D01*
X124970000Y-110650000D01*
G36*
X124970000Y-110650000D02*
G01*
X123770000Y-110650000D01*
X123770000Y-110450000D01*
X124970000Y-110450000D01*
X124970000Y-110650000D01*
G37*
X124970000Y-111050000D02*
X123770000Y-111050000D01*
X123770000Y-110850000D01*
X124970000Y-110850000D01*
X124970000Y-111050000D01*
G36*
X124970000Y-111050000D02*
G01*
X123770000Y-111050000D01*
X123770000Y-110850000D01*
X124970000Y-110850000D01*
X124970000Y-111050000D01*
G37*
X124970000Y-111450000D02*
X123770000Y-111450000D01*
X123770000Y-111250000D01*
X124970000Y-111250000D01*
X124970000Y-111450000D01*
G36*
X124970000Y-111450000D02*
G01*
X123770000Y-111450000D01*
X123770000Y-111250000D01*
X124970000Y-111250000D01*
X124970000Y-111450000D01*
G37*
X124970000Y-111850000D02*
X123770000Y-111850000D01*
X123770000Y-111650000D01*
X124970000Y-111650000D01*
X124970000Y-111850000D01*
G36*
X124970000Y-111850000D02*
G01*
X123770000Y-111850000D01*
X123770000Y-111650000D01*
X124970000Y-111650000D01*
X124970000Y-111850000D01*
G37*
X124970000Y-112250000D02*
X123770000Y-112250000D01*
X123770000Y-112050000D01*
X124970000Y-112050000D01*
X124970000Y-112250000D01*
G36*
X124970000Y-112250000D02*
G01*
X123770000Y-112250000D01*
X123770000Y-112050000D01*
X124970000Y-112050000D01*
X124970000Y-112250000D01*
G37*
X124970000Y-112250000D02*
X123770000Y-112250000D01*
X123770000Y-112050000D01*
X124970000Y-112050000D01*
X124970000Y-112250000D01*
G36*
X124970000Y-112250000D02*
G01*
X123770000Y-112250000D01*
X123770000Y-112050000D01*
X124970000Y-112050000D01*
X124970000Y-112250000D01*
G37*
X124970000Y-112650000D02*
X123770000Y-112650000D01*
X123770000Y-112450000D01*
X124970000Y-112450000D01*
X124970000Y-112650000D01*
G36*
X124970000Y-112650000D02*
G01*
X123770000Y-112650000D01*
X123770000Y-112450000D01*
X124970000Y-112450000D01*
X124970000Y-112650000D01*
G37*
X124970000Y-113050000D02*
X123770000Y-113050000D01*
X123770000Y-112850000D01*
X124970000Y-112850000D01*
X124970000Y-113050000D01*
G36*
X124970000Y-113050000D02*
G01*
X123770000Y-113050000D01*
X123770000Y-112850000D01*
X124970000Y-112850000D01*
X124970000Y-113050000D01*
G37*
X124970000Y-113450000D02*
X123770000Y-113450000D01*
X123770000Y-113250000D01*
X124970000Y-113250000D01*
X124970000Y-113450000D01*
G36*
X124970000Y-113450000D02*
G01*
X123770000Y-113450000D01*
X123770000Y-113250000D01*
X124970000Y-113250000D01*
X124970000Y-113450000D01*
G37*
X124970000Y-113850000D02*
X123770000Y-113850000D01*
X123770000Y-113650000D01*
X124970000Y-113650000D01*
X124970000Y-113850000D01*
G36*
X124970000Y-113850000D02*
G01*
X123770000Y-113850000D01*
X123770000Y-113650000D01*
X124970000Y-113650000D01*
X124970000Y-113850000D01*
G37*
X124970000Y-113850000D02*
X123770000Y-113850000D01*
X123770000Y-113650000D01*
X124970000Y-113650000D01*
X124970000Y-113850000D01*
G36*
X124970000Y-113850000D02*
G01*
X123770000Y-113850000D01*
X123770000Y-113650000D01*
X124970000Y-113650000D01*
X124970000Y-113850000D01*
G37*
X128390000Y-98250000D02*
X127190000Y-98250000D01*
X127190000Y-98050000D01*
X128390000Y-98050000D01*
X128390000Y-98250000D01*
G36*
X128390000Y-98250000D02*
G01*
X127190000Y-98250000D01*
X127190000Y-98050000D01*
X128390000Y-98050000D01*
X128390000Y-98250000D01*
G37*
X128390000Y-98250000D02*
X127190000Y-98250000D01*
X127190000Y-98050000D01*
X128390000Y-98050000D01*
X128390000Y-98250000D01*
G36*
X128390000Y-98250000D02*
G01*
X127190000Y-98250000D01*
X127190000Y-98050000D01*
X128390000Y-98050000D01*
X128390000Y-98250000D01*
G37*
X128390000Y-98650000D02*
X127190000Y-98650000D01*
X127190000Y-98450000D01*
X128390000Y-98450000D01*
X128390000Y-98650000D01*
G36*
X128390000Y-98650000D02*
G01*
X127190000Y-98650000D01*
X127190000Y-98450000D01*
X128390000Y-98450000D01*
X128390000Y-98650000D01*
G37*
X128390000Y-99050000D02*
X127190000Y-99050000D01*
X127190000Y-98850000D01*
X128390000Y-98850000D01*
X128390000Y-99050000D01*
G36*
X128390000Y-99050000D02*
G01*
X127190000Y-99050000D01*
X127190000Y-98850000D01*
X128390000Y-98850000D01*
X128390000Y-99050000D01*
G37*
X128390000Y-99450000D02*
X127190000Y-99450000D01*
X127190000Y-99250000D01*
X128390000Y-99250000D01*
X128390000Y-99450000D01*
G36*
X128390000Y-99450000D02*
G01*
X127190000Y-99450000D01*
X127190000Y-99250000D01*
X128390000Y-99250000D01*
X128390000Y-99450000D01*
G37*
X128390000Y-99850000D02*
X127190000Y-99850000D01*
X127190000Y-99650000D01*
X128390000Y-99650000D01*
X128390000Y-99850000D01*
G36*
X128390000Y-99850000D02*
G01*
X127190000Y-99850000D01*
X127190000Y-99650000D01*
X128390000Y-99650000D01*
X128390000Y-99850000D01*
G37*
X128390000Y-99850000D02*
X127190000Y-99850000D01*
X127190000Y-99650000D01*
X128390000Y-99650000D01*
X128390000Y-99850000D01*
G36*
X128390000Y-99850000D02*
G01*
X127190000Y-99850000D01*
X127190000Y-99650000D01*
X128390000Y-99650000D01*
X128390000Y-99850000D01*
G37*
X128390000Y-100250000D02*
X127190000Y-100250000D01*
X127190000Y-100050000D01*
X128390000Y-100050000D01*
X128390000Y-100250000D01*
G36*
X128390000Y-100250000D02*
G01*
X127190000Y-100250000D01*
X127190000Y-100050000D01*
X128390000Y-100050000D01*
X128390000Y-100250000D01*
G37*
X128390000Y-100650000D02*
X127190000Y-100650000D01*
X127190000Y-100450000D01*
X128390000Y-100450000D01*
X128390000Y-100650000D01*
G36*
X128390000Y-100650000D02*
G01*
X127190000Y-100650000D01*
X127190000Y-100450000D01*
X128390000Y-100450000D01*
X128390000Y-100650000D01*
G37*
X128390000Y-101050000D02*
X127190000Y-101050000D01*
X127190000Y-100850000D01*
X128390000Y-100850000D01*
X128390000Y-101050000D01*
G36*
X128390000Y-101050000D02*
G01*
X127190000Y-101050000D01*
X127190000Y-100850000D01*
X128390000Y-100850000D01*
X128390000Y-101050000D01*
G37*
X128390000Y-101450000D02*
X127190000Y-101450000D01*
X127190000Y-101250000D01*
X128390000Y-101250000D01*
X128390000Y-101450000D01*
G36*
X128390000Y-101450000D02*
G01*
X127190000Y-101450000D01*
X127190000Y-101250000D01*
X128390000Y-101250000D01*
X128390000Y-101450000D01*
G37*
X128390000Y-101850000D02*
X127190000Y-101850000D01*
X127190000Y-101650000D01*
X128390000Y-101650000D01*
X128390000Y-101850000D01*
G36*
X128390000Y-101850000D02*
G01*
X127190000Y-101850000D01*
X127190000Y-101650000D01*
X128390000Y-101650000D01*
X128390000Y-101850000D01*
G37*
X128390000Y-102250000D02*
X127190000Y-102250000D01*
X127190000Y-102050000D01*
X128390000Y-102050000D01*
X128390000Y-102250000D01*
G36*
X128390000Y-102250000D02*
G01*
X127190000Y-102250000D01*
X127190000Y-102050000D01*
X128390000Y-102050000D01*
X128390000Y-102250000D01*
G37*
X128390000Y-102650000D02*
X127190000Y-102650000D01*
X127190000Y-102450000D01*
X128390000Y-102450000D01*
X128390000Y-102650000D01*
G36*
X128390000Y-102650000D02*
G01*
X127190000Y-102650000D01*
X127190000Y-102450000D01*
X128390000Y-102450000D01*
X128390000Y-102650000D01*
G37*
X128390000Y-103050000D02*
X127190000Y-103050000D01*
X127190000Y-102850000D01*
X128390000Y-102850000D01*
X128390000Y-103050000D01*
G36*
X128390000Y-103050000D02*
G01*
X127190000Y-103050000D01*
X127190000Y-102850000D01*
X128390000Y-102850000D01*
X128390000Y-103050000D01*
G37*
X128390000Y-103450000D02*
X127190000Y-103450000D01*
X127190000Y-103250000D01*
X128390000Y-103250000D01*
X128390000Y-103450000D01*
G36*
X128390000Y-103450000D02*
G01*
X127190000Y-103450000D01*
X127190000Y-103250000D01*
X128390000Y-103250000D01*
X128390000Y-103450000D01*
G37*
X128390000Y-103450000D02*
X127190000Y-103450000D01*
X127190000Y-103250000D01*
X128390000Y-103250000D01*
X128390000Y-103450000D01*
G36*
X128390000Y-103450000D02*
G01*
X127190000Y-103450000D01*
X127190000Y-103250000D01*
X128390000Y-103250000D01*
X128390000Y-103450000D01*
G37*
X128390000Y-103850000D02*
X127190000Y-103850000D01*
X127190000Y-103650000D01*
X128390000Y-103650000D01*
X128390000Y-103850000D01*
G36*
X128390000Y-103850000D02*
G01*
X127190000Y-103850000D01*
X127190000Y-103650000D01*
X128390000Y-103650000D01*
X128390000Y-103850000D01*
G37*
X128390000Y-104250000D02*
X127190000Y-104250000D01*
X127190000Y-104050000D01*
X128390000Y-104050000D01*
X128390000Y-104250000D01*
G36*
X128390000Y-104250000D02*
G01*
X127190000Y-104250000D01*
X127190000Y-104050000D01*
X128390000Y-104050000D01*
X128390000Y-104250000D01*
G37*
X128390000Y-104650000D02*
X127190000Y-104650000D01*
X127190000Y-104450000D01*
X128390000Y-104450000D01*
X128390000Y-104650000D01*
G36*
X128390000Y-104650000D02*
G01*
X127190000Y-104650000D01*
X127190000Y-104450000D01*
X128390000Y-104450000D01*
X128390000Y-104650000D01*
G37*
X128390000Y-105050000D02*
X127190000Y-105050000D01*
X127190000Y-104850000D01*
X128390000Y-104850000D01*
X128390000Y-105050000D01*
G36*
X128390000Y-105050000D02*
G01*
X127190000Y-105050000D01*
X127190000Y-104850000D01*
X128390000Y-104850000D01*
X128390000Y-105050000D01*
G37*
X128390000Y-105450000D02*
X127190000Y-105450000D01*
X127190000Y-105250000D01*
X128390000Y-105250000D01*
X128390000Y-105450000D01*
G36*
X128390000Y-105450000D02*
G01*
X127190000Y-105450000D01*
X127190000Y-105250000D01*
X128390000Y-105250000D01*
X128390000Y-105450000D01*
G37*
X128390000Y-105850000D02*
X127190000Y-105850000D01*
X127190000Y-105650000D01*
X128390000Y-105650000D01*
X128390000Y-105850000D01*
G36*
X128390000Y-105850000D02*
G01*
X127190000Y-105850000D01*
X127190000Y-105650000D01*
X128390000Y-105650000D01*
X128390000Y-105850000D01*
G37*
X128390000Y-106250000D02*
X127190000Y-106250000D01*
X127190000Y-106050000D01*
X128390000Y-106050000D01*
X128390000Y-106250000D01*
G36*
X128390000Y-106250000D02*
G01*
X127190000Y-106250000D01*
X127190000Y-106050000D01*
X128390000Y-106050000D01*
X128390000Y-106250000D01*
G37*
X128390000Y-106650000D02*
X127190000Y-106650000D01*
X127190000Y-106450000D01*
X128390000Y-106450000D01*
X128390000Y-106650000D01*
G36*
X128390000Y-106650000D02*
G01*
X127190000Y-106650000D01*
X127190000Y-106450000D01*
X128390000Y-106450000D01*
X128390000Y-106650000D01*
G37*
X128390000Y-107050000D02*
X127190000Y-107050000D01*
X127190000Y-106850000D01*
X128390000Y-106850000D01*
X128390000Y-107050000D01*
G36*
X128390000Y-107050000D02*
G01*
X127190000Y-107050000D01*
X127190000Y-106850000D01*
X128390000Y-106850000D01*
X128390000Y-107050000D01*
G37*
X128390000Y-107450000D02*
X127190000Y-107450000D01*
X127190000Y-107250000D01*
X128390000Y-107250000D01*
X128390000Y-107450000D01*
G36*
X128390000Y-107450000D02*
G01*
X127190000Y-107450000D01*
X127190000Y-107250000D01*
X128390000Y-107250000D01*
X128390000Y-107450000D01*
G37*
X128390000Y-107850000D02*
X127190000Y-107850000D01*
X127190000Y-107650000D01*
X128390000Y-107650000D01*
X128390000Y-107850000D01*
G36*
X128390000Y-107850000D02*
G01*
X127190000Y-107850000D01*
X127190000Y-107650000D01*
X128390000Y-107650000D01*
X128390000Y-107850000D01*
G37*
X128390000Y-108250000D02*
X127190000Y-108250000D01*
X127190000Y-108050000D01*
X128390000Y-108050000D01*
X128390000Y-108250000D01*
G36*
X128390000Y-108250000D02*
G01*
X127190000Y-108250000D01*
X127190000Y-108050000D01*
X128390000Y-108050000D01*
X128390000Y-108250000D01*
G37*
X128390000Y-108650000D02*
X127190000Y-108650000D01*
X127190000Y-108450000D01*
X128390000Y-108450000D01*
X128390000Y-108650000D01*
G36*
X128390000Y-108650000D02*
G01*
X127190000Y-108650000D01*
X127190000Y-108450000D01*
X128390000Y-108450000D01*
X128390000Y-108650000D01*
G37*
X128390000Y-109050000D02*
X127190000Y-109050000D01*
X127190000Y-108850000D01*
X128390000Y-108850000D01*
X128390000Y-109050000D01*
G36*
X128390000Y-109050000D02*
G01*
X127190000Y-109050000D01*
X127190000Y-108850000D01*
X128390000Y-108850000D01*
X128390000Y-109050000D01*
G37*
X128390000Y-109450000D02*
X127190000Y-109450000D01*
X127190000Y-109250000D01*
X128390000Y-109250000D01*
X128390000Y-109450000D01*
G36*
X128390000Y-109450000D02*
G01*
X127190000Y-109450000D01*
X127190000Y-109250000D01*
X128390000Y-109250000D01*
X128390000Y-109450000D01*
G37*
X128390000Y-109850000D02*
X127190000Y-109850000D01*
X127190000Y-109650000D01*
X128390000Y-109650000D01*
X128390000Y-109850000D01*
G36*
X128390000Y-109850000D02*
G01*
X127190000Y-109850000D01*
X127190000Y-109650000D01*
X128390000Y-109650000D01*
X128390000Y-109850000D01*
G37*
X128390000Y-110250000D02*
X127190000Y-110250000D01*
X127190000Y-110050000D01*
X128390000Y-110050000D01*
X128390000Y-110250000D01*
G36*
X128390000Y-110250000D02*
G01*
X127190000Y-110250000D01*
X127190000Y-110050000D01*
X128390000Y-110050000D01*
X128390000Y-110250000D01*
G37*
X128390000Y-110650000D02*
X127190000Y-110650000D01*
X127190000Y-110450000D01*
X128390000Y-110450000D01*
X128390000Y-110650000D01*
G36*
X128390000Y-110650000D02*
G01*
X127190000Y-110650000D01*
X127190000Y-110450000D01*
X128390000Y-110450000D01*
X128390000Y-110650000D01*
G37*
X128390000Y-111050000D02*
X127190000Y-111050000D01*
X127190000Y-110850000D01*
X128390000Y-110850000D01*
X128390000Y-111050000D01*
G36*
X128390000Y-111050000D02*
G01*
X127190000Y-111050000D01*
X127190000Y-110850000D01*
X128390000Y-110850000D01*
X128390000Y-111050000D01*
G37*
X128390000Y-111450000D02*
X127190000Y-111450000D01*
X127190000Y-111250000D01*
X128390000Y-111250000D01*
X128390000Y-111450000D01*
G36*
X128390000Y-111450000D02*
G01*
X127190000Y-111450000D01*
X127190000Y-111250000D01*
X128390000Y-111250000D01*
X128390000Y-111450000D01*
G37*
X128390000Y-111850000D02*
X127190000Y-111850000D01*
X127190000Y-111650000D01*
X128390000Y-111650000D01*
X128390000Y-111850000D01*
G36*
X128390000Y-111850000D02*
G01*
X127190000Y-111850000D01*
X127190000Y-111650000D01*
X128390000Y-111650000D01*
X128390000Y-111850000D01*
G37*
X128390000Y-112250000D02*
X127190000Y-112250000D01*
X127190000Y-112050000D01*
X128390000Y-112050000D01*
X128390000Y-112250000D01*
G36*
X128390000Y-112250000D02*
G01*
X127190000Y-112250000D01*
X127190000Y-112050000D01*
X128390000Y-112050000D01*
X128390000Y-112250000D01*
G37*
X128390000Y-112650000D02*
X127190000Y-112650000D01*
X127190000Y-112450000D01*
X128390000Y-112450000D01*
X128390000Y-112650000D01*
G36*
X128390000Y-112650000D02*
G01*
X127190000Y-112650000D01*
X127190000Y-112450000D01*
X128390000Y-112450000D01*
X128390000Y-112650000D01*
G37*
X128390000Y-113050000D02*
X127190000Y-113050000D01*
X127190000Y-112850000D01*
X128390000Y-112850000D01*
X128390000Y-113050000D01*
G36*
X128390000Y-113050000D02*
G01*
X127190000Y-113050000D01*
X127190000Y-112850000D01*
X128390000Y-112850000D01*
X128390000Y-113050000D01*
G37*
X128390000Y-113450000D02*
X127190000Y-113450000D01*
X127190000Y-113250000D01*
X128390000Y-113250000D01*
X128390000Y-113450000D01*
G36*
X128390000Y-113450000D02*
G01*
X127190000Y-113450000D01*
X127190000Y-113250000D01*
X128390000Y-113250000D01*
X128390000Y-113450000D01*
G37*
X128390000Y-113850000D02*
X127190000Y-113850000D01*
X127190000Y-113650000D01*
X128390000Y-113650000D01*
X128390000Y-113850000D01*
G36*
X128390000Y-113850000D02*
G01*
X127190000Y-113850000D01*
X127190000Y-113650000D01*
X128390000Y-113650000D01*
X128390000Y-113850000D01*
G37*
%TO.C,J8*%
X164610000Y-71410000D02*
X163410000Y-71410000D01*
X163410000Y-71210000D01*
X164610000Y-71210000D01*
X164610000Y-71410000D01*
G36*
X164610000Y-71410000D02*
G01*
X163410000Y-71410000D01*
X163410000Y-71210000D01*
X164610000Y-71210000D01*
X164610000Y-71410000D01*
G37*
X164610000Y-71810000D02*
X163410000Y-71810000D01*
X163410000Y-71610000D01*
X164610000Y-71610000D01*
X164610000Y-71810000D01*
G36*
X164610000Y-71810000D02*
G01*
X163410000Y-71810000D01*
X163410000Y-71610000D01*
X164610000Y-71610000D01*
X164610000Y-71810000D01*
G37*
X164610000Y-72210000D02*
X163410000Y-72210000D01*
X163410000Y-72010000D01*
X164610000Y-72010000D01*
X164610000Y-72210000D01*
G36*
X164610000Y-72210000D02*
G01*
X163410000Y-72210000D01*
X163410000Y-72010000D01*
X164610000Y-72010000D01*
X164610000Y-72210000D01*
G37*
X164610000Y-72610000D02*
X163410000Y-72610000D01*
X163410000Y-72410000D01*
X164610000Y-72410000D01*
X164610000Y-72610000D01*
G36*
X164610000Y-72610000D02*
G01*
X163410000Y-72610000D01*
X163410000Y-72410000D01*
X164610000Y-72410000D01*
X164610000Y-72610000D01*
G37*
X164610000Y-73010000D02*
X163410000Y-73010000D01*
X163410000Y-72810000D01*
X164610000Y-72810000D01*
X164610000Y-73010000D01*
G36*
X164610000Y-73010000D02*
G01*
X163410000Y-73010000D01*
X163410000Y-72810000D01*
X164610000Y-72810000D01*
X164610000Y-73010000D01*
G37*
X164610000Y-73410000D02*
X163410000Y-73410000D01*
X163410000Y-73210000D01*
X164610000Y-73210000D01*
X164610000Y-73410000D01*
G36*
X164610000Y-73410000D02*
G01*
X163410000Y-73410000D01*
X163410000Y-73210000D01*
X164610000Y-73210000D01*
X164610000Y-73410000D01*
G37*
X164610000Y-73810000D02*
X163410000Y-73810000D01*
X163410000Y-73610000D01*
X164610000Y-73610000D01*
X164610000Y-73810000D01*
G36*
X164610000Y-73810000D02*
G01*
X163410000Y-73810000D01*
X163410000Y-73610000D01*
X164610000Y-73610000D01*
X164610000Y-73810000D01*
G37*
X164610000Y-74210000D02*
X163410000Y-74210000D01*
X163410000Y-74010000D01*
X164610000Y-74010000D01*
X164610000Y-74210000D01*
G36*
X164610000Y-74210000D02*
G01*
X163410000Y-74210000D01*
X163410000Y-74010000D01*
X164610000Y-74010000D01*
X164610000Y-74210000D01*
G37*
X164610000Y-74610000D02*
X163410000Y-74610000D01*
X163410000Y-74410000D01*
X164610000Y-74410000D01*
X164610000Y-74610000D01*
G36*
X164610000Y-74610000D02*
G01*
X163410000Y-74610000D01*
X163410000Y-74410000D01*
X164610000Y-74410000D01*
X164610000Y-74610000D01*
G37*
X164610000Y-75010000D02*
X163410000Y-75010000D01*
X163410000Y-74810000D01*
X164610000Y-74810000D01*
X164610000Y-75010000D01*
G36*
X164610000Y-75010000D02*
G01*
X163410000Y-75010000D01*
X163410000Y-74810000D01*
X164610000Y-74810000D01*
X164610000Y-75010000D01*
G37*
X164610000Y-75410000D02*
X163410000Y-75410000D01*
X163410000Y-75210000D01*
X164610000Y-75210000D01*
X164610000Y-75410000D01*
G36*
X164610000Y-75410000D02*
G01*
X163410000Y-75410000D01*
X163410000Y-75210000D01*
X164610000Y-75210000D01*
X164610000Y-75410000D01*
G37*
X164610000Y-75810000D02*
X163410000Y-75810000D01*
X163410000Y-75610000D01*
X164610000Y-75610000D01*
X164610000Y-75810000D01*
G36*
X164610000Y-75810000D02*
G01*
X163410000Y-75810000D01*
X163410000Y-75610000D01*
X164610000Y-75610000D01*
X164610000Y-75810000D01*
G37*
X164610000Y-76210000D02*
X163410000Y-76210000D01*
X163410000Y-76010000D01*
X164610000Y-76010000D01*
X164610000Y-76210000D01*
G36*
X164610000Y-76210000D02*
G01*
X163410000Y-76210000D01*
X163410000Y-76010000D01*
X164610000Y-76010000D01*
X164610000Y-76210000D01*
G37*
X164610000Y-76610000D02*
X163410000Y-76610000D01*
X163410000Y-76410000D01*
X164610000Y-76410000D01*
X164610000Y-76610000D01*
G36*
X164610000Y-76610000D02*
G01*
X163410000Y-76610000D01*
X163410000Y-76410000D01*
X164610000Y-76410000D01*
X164610000Y-76610000D01*
G37*
X164610000Y-77010000D02*
X163410000Y-77010000D01*
X163410000Y-76810000D01*
X164610000Y-76810000D01*
X164610000Y-77010000D01*
G36*
X164610000Y-77010000D02*
G01*
X163410000Y-77010000D01*
X163410000Y-76810000D01*
X164610000Y-76810000D01*
X164610000Y-77010000D01*
G37*
X164610000Y-77410000D02*
X163410000Y-77410000D01*
X163410000Y-77210000D01*
X164610000Y-77210000D01*
X164610000Y-77410000D01*
G36*
X164610000Y-77410000D02*
G01*
X163410000Y-77410000D01*
X163410000Y-77210000D01*
X164610000Y-77210000D01*
X164610000Y-77410000D01*
G37*
X164610000Y-77810000D02*
X163410000Y-77810000D01*
X163410000Y-77610000D01*
X164610000Y-77610000D01*
X164610000Y-77810000D01*
G36*
X164610000Y-77810000D02*
G01*
X163410000Y-77810000D01*
X163410000Y-77610000D01*
X164610000Y-77610000D01*
X164610000Y-77810000D01*
G37*
X164610000Y-78210000D02*
X163410000Y-78210000D01*
X163410000Y-78010000D01*
X164610000Y-78010000D01*
X164610000Y-78210000D01*
G36*
X164610000Y-78210000D02*
G01*
X163410000Y-78210000D01*
X163410000Y-78010000D01*
X164610000Y-78010000D01*
X164610000Y-78210000D01*
G37*
X164610000Y-78610000D02*
X163410000Y-78610000D01*
X163410000Y-78410000D01*
X164610000Y-78410000D01*
X164610000Y-78610000D01*
G36*
X164610000Y-78610000D02*
G01*
X163410000Y-78610000D01*
X163410000Y-78410000D01*
X164610000Y-78410000D01*
X164610000Y-78610000D01*
G37*
X164610000Y-79010000D02*
X163410000Y-79010000D01*
X163410000Y-78810000D01*
X164610000Y-78810000D01*
X164610000Y-79010000D01*
G36*
X164610000Y-79010000D02*
G01*
X163410000Y-79010000D01*
X163410000Y-78810000D01*
X164610000Y-78810000D01*
X164610000Y-79010000D01*
G37*
X164610000Y-79410000D02*
X163410000Y-79410000D01*
X163410000Y-79210000D01*
X164610000Y-79210000D01*
X164610000Y-79410000D01*
G36*
X164610000Y-79410000D02*
G01*
X163410000Y-79410000D01*
X163410000Y-79210000D01*
X164610000Y-79210000D01*
X164610000Y-79410000D01*
G37*
X164610000Y-79810000D02*
X163410000Y-79810000D01*
X163410000Y-79610000D01*
X164610000Y-79610000D01*
X164610000Y-79810000D01*
G36*
X164610000Y-79810000D02*
G01*
X163410000Y-79810000D01*
X163410000Y-79610000D01*
X164610000Y-79610000D01*
X164610000Y-79810000D01*
G37*
X164610000Y-80210000D02*
X163410000Y-80210000D01*
X163410000Y-80010000D01*
X164610000Y-80010000D01*
X164610000Y-80210000D01*
G36*
X164610000Y-80210000D02*
G01*
X163410000Y-80210000D01*
X163410000Y-80010000D01*
X164610000Y-80010000D01*
X164610000Y-80210000D01*
G37*
X164610000Y-80610000D02*
X163410000Y-80610000D01*
X163410000Y-80410000D01*
X164610000Y-80410000D01*
X164610000Y-80610000D01*
G36*
X164610000Y-80610000D02*
G01*
X163410000Y-80610000D01*
X163410000Y-80410000D01*
X164610000Y-80410000D01*
X164610000Y-80610000D01*
G37*
X164610000Y-81010000D02*
X163410000Y-81010000D01*
X163410000Y-80810000D01*
X164610000Y-80810000D01*
X164610000Y-81010000D01*
G36*
X164610000Y-81010000D02*
G01*
X163410000Y-81010000D01*
X163410000Y-80810000D01*
X164610000Y-80810000D01*
X164610000Y-81010000D01*
G37*
X164610000Y-81410000D02*
X163410000Y-81410000D01*
X163410000Y-81210000D01*
X164610000Y-81210000D01*
X164610000Y-81410000D01*
G36*
X164610000Y-81410000D02*
G01*
X163410000Y-81410000D01*
X163410000Y-81210000D01*
X164610000Y-81210000D01*
X164610000Y-81410000D01*
G37*
X164610000Y-81810000D02*
X163410000Y-81810000D01*
X163410000Y-81610000D01*
X164610000Y-81610000D01*
X164610000Y-81810000D01*
G36*
X164610000Y-81810000D02*
G01*
X163410000Y-81810000D01*
X163410000Y-81610000D01*
X164610000Y-81610000D01*
X164610000Y-81810000D01*
G37*
X164610000Y-81810000D02*
X163410000Y-81810000D01*
X163410000Y-81610000D01*
X164610000Y-81610000D01*
X164610000Y-81810000D01*
G36*
X164610000Y-81810000D02*
G01*
X163410000Y-81810000D01*
X163410000Y-81610000D01*
X164610000Y-81610000D01*
X164610000Y-81810000D01*
G37*
X164610000Y-82210000D02*
X163410000Y-82210000D01*
X163410000Y-82010000D01*
X164610000Y-82010000D01*
X164610000Y-82210000D01*
G36*
X164610000Y-82210000D02*
G01*
X163410000Y-82210000D01*
X163410000Y-82010000D01*
X164610000Y-82010000D01*
X164610000Y-82210000D01*
G37*
X164610000Y-82610000D02*
X163410000Y-82610000D01*
X163410000Y-82410000D01*
X164610000Y-82410000D01*
X164610000Y-82610000D01*
G36*
X164610000Y-82610000D02*
G01*
X163410000Y-82610000D01*
X163410000Y-82410000D01*
X164610000Y-82410000D01*
X164610000Y-82610000D01*
G37*
X164610000Y-83010000D02*
X163410000Y-83010000D01*
X163410000Y-82810000D01*
X164610000Y-82810000D01*
X164610000Y-83010000D01*
G36*
X164610000Y-83010000D02*
G01*
X163410000Y-83010000D01*
X163410000Y-82810000D01*
X164610000Y-82810000D01*
X164610000Y-83010000D01*
G37*
X164610000Y-83410000D02*
X163410000Y-83410000D01*
X163410000Y-83210000D01*
X164610000Y-83210000D01*
X164610000Y-83410000D01*
G36*
X164610000Y-83410000D02*
G01*
X163410000Y-83410000D01*
X163410000Y-83210000D01*
X164610000Y-83210000D01*
X164610000Y-83410000D01*
G37*
X164610000Y-83810000D02*
X163410000Y-83810000D01*
X163410000Y-83610000D01*
X164610000Y-83610000D01*
X164610000Y-83810000D01*
G36*
X164610000Y-83810000D02*
G01*
X163410000Y-83810000D01*
X163410000Y-83610000D01*
X164610000Y-83610000D01*
X164610000Y-83810000D01*
G37*
X164610000Y-84210000D02*
X163410000Y-84210000D01*
X163410000Y-84010000D01*
X164610000Y-84010000D01*
X164610000Y-84210000D01*
G36*
X164610000Y-84210000D02*
G01*
X163410000Y-84210000D01*
X163410000Y-84010000D01*
X164610000Y-84010000D01*
X164610000Y-84210000D01*
G37*
X164610000Y-84610000D02*
X163410000Y-84610000D01*
X163410000Y-84410000D01*
X164610000Y-84410000D01*
X164610000Y-84610000D01*
G36*
X164610000Y-84610000D02*
G01*
X163410000Y-84610000D01*
X163410000Y-84410000D01*
X164610000Y-84410000D01*
X164610000Y-84610000D01*
G37*
X164610000Y-85010000D02*
X163410000Y-85010000D01*
X163410000Y-84810000D01*
X164610000Y-84810000D01*
X164610000Y-85010000D01*
G36*
X164610000Y-85010000D02*
G01*
X163410000Y-85010000D01*
X163410000Y-84810000D01*
X164610000Y-84810000D01*
X164610000Y-85010000D01*
G37*
X164610000Y-85410000D02*
X163410000Y-85410000D01*
X163410000Y-85210000D01*
X164610000Y-85210000D01*
X164610000Y-85410000D01*
G36*
X164610000Y-85410000D02*
G01*
X163410000Y-85410000D01*
X163410000Y-85210000D01*
X164610000Y-85210000D01*
X164610000Y-85410000D01*
G37*
X164610000Y-85410000D02*
X163410000Y-85410000D01*
X163410000Y-85210000D01*
X164610000Y-85210000D01*
X164610000Y-85410000D01*
G36*
X164610000Y-85410000D02*
G01*
X163410000Y-85410000D01*
X163410000Y-85210000D01*
X164610000Y-85210000D01*
X164610000Y-85410000D01*
G37*
X164610000Y-85810000D02*
X163410000Y-85810000D01*
X163410000Y-85610000D01*
X164610000Y-85610000D01*
X164610000Y-85810000D01*
G36*
X164610000Y-85810000D02*
G01*
X163410000Y-85810000D01*
X163410000Y-85610000D01*
X164610000Y-85610000D01*
X164610000Y-85810000D01*
G37*
X164610000Y-86210000D02*
X163410000Y-86210000D01*
X163410000Y-86010000D01*
X164610000Y-86010000D01*
X164610000Y-86210000D01*
G36*
X164610000Y-86210000D02*
G01*
X163410000Y-86210000D01*
X163410000Y-86010000D01*
X164610000Y-86010000D01*
X164610000Y-86210000D01*
G37*
X164610000Y-86610000D02*
X163410000Y-86610000D01*
X163410000Y-86410000D01*
X164610000Y-86410000D01*
X164610000Y-86610000D01*
G36*
X164610000Y-86610000D02*
G01*
X163410000Y-86610000D01*
X163410000Y-86410000D01*
X164610000Y-86410000D01*
X164610000Y-86610000D01*
G37*
X164610000Y-87010000D02*
X163410000Y-87010000D01*
X163410000Y-86810000D01*
X164610000Y-86810000D01*
X164610000Y-87010000D01*
G36*
X164610000Y-87010000D02*
G01*
X163410000Y-87010000D01*
X163410000Y-86810000D01*
X164610000Y-86810000D01*
X164610000Y-87010000D01*
G37*
X164610000Y-87010000D02*
X163410000Y-87010000D01*
X163410000Y-86810000D01*
X164610000Y-86810000D01*
X164610000Y-87010000D01*
G36*
X164610000Y-87010000D02*
G01*
X163410000Y-87010000D01*
X163410000Y-86810000D01*
X164610000Y-86810000D01*
X164610000Y-87010000D01*
G37*
X168030000Y-71410000D02*
X166830000Y-71410000D01*
X166830000Y-71210000D01*
X168030000Y-71210000D01*
X168030000Y-71410000D01*
G36*
X168030000Y-71410000D02*
G01*
X166830000Y-71410000D01*
X166830000Y-71210000D01*
X168030000Y-71210000D01*
X168030000Y-71410000D01*
G37*
X168030000Y-71410000D02*
X166830000Y-71410000D01*
X166830000Y-71210000D01*
X168030000Y-71210000D01*
X168030000Y-71410000D01*
G36*
X168030000Y-71410000D02*
G01*
X166830000Y-71410000D01*
X166830000Y-71210000D01*
X168030000Y-71210000D01*
X168030000Y-71410000D01*
G37*
X168030000Y-71810000D02*
X166830000Y-71810000D01*
X166830000Y-71610000D01*
X168030000Y-71610000D01*
X168030000Y-71810000D01*
G36*
X168030000Y-71810000D02*
G01*
X166830000Y-71810000D01*
X166830000Y-71610000D01*
X168030000Y-71610000D01*
X168030000Y-71810000D01*
G37*
X168030000Y-72210000D02*
X166830000Y-72210000D01*
X166830000Y-72010000D01*
X168030000Y-72010000D01*
X168030000Y-72210000D01*
G36*
X168030000Y-72210000D02*
G01*
X166830000Y-72210000D01*
X166830000Y-72010000D01*
X168030000Y-72010000D01*
X168030000Y-72210000D01*
G37*
X168030000Y-72610000D02*
X166830000Y-72610000D01*
X166830000Y-72410000D01*
X168030000Y-72410000D01*
X168030000Y-72610000D01*
G36*
X168030000Y-72610000D02*
G01*
X166830000Y-72610000D01*
X166830000Y-72410000D01*
X168030000Y-72410000D01*
X168030000Y-72610000D01*
G37*
X168030000Y-73010000D02*
X166830000Y-73010000D01*
X166830000Y-72810000D01*
X168030000Y-72810000D01*
X168030000Y-73010000D01*
G36*
X168030000Y-73010000D02*
G01*
X166830000Y-73010000D01*
X166830000Y-72810000D01*
X168030000Y-72810000D01*
X168030000Y-73010000D01*
G37*
X168030000Y-73010000D02*
X166830000Y-73010000D01*
X166830000Y-72810000D01*
X168030000Y-72810000D01*
X168030000Y-73010000D01*
G36*
X168030000Y-73010000D02*
G01*
X166830000Y-73010000D01*
X166830000Y-72810000D01*
X168030000Y-72810000D01*
X168030000Y-73010000D01*
G37*
X168030000Y-73410000D02*
X166830000Y-73410000D01*
X166830000Y-73210000D01*
X168030000Y-73210000D01*
X168030000Y-73410000D01*
G36*
X168030000Y-73410000D02*
G01*
X166830000Y-73410000D01*
X166830000Y-73210000D01*
X168030000Y-73210000D01*
X168030000Y-73410000D01*
G37*
X168030000Y-73810000D02*
X166830000Y-73810000D01*
X166830000Y-73610000D01*
X168030000Y-73610000D01*
X168030000Y-73810000D01*
G36*
X168030000Y-73810000D02*
G01*
X166830000Y-73810000D01*
X166830000Y-73610000D01*
X168030000Y-73610000D01*
X168030000Y-73810000D01*
G37*
X168030000Y-74210000D02*
X166830000Y-74210000D01*
X166830000Y-74010000D01*
X168030000Y-74010000D01*
X168030000Y-74210000D01*
G36*
X168030000Y-74210000D02*
G01*
X166830000Y-74210000D01*
X166830000Y-74010000D01*
X168030000Y-74010000D01*
X168030000Y-74210000D01*
G37*
X168030000Y-74610000D02*
X166830000Y-74610000D01*
X166830000Y-74410000D01*
X168030000Y-74410000D01*
X168030000Y-74610000D01*
G36*
X168030000Y-74610000D02*
G01*
X166830000Y-74610000D01*
X166830000Y-74410000D01*
X168030000Y-74410000D01*
X168030000Y-74610000D01*
G37*
X168030000Y-75010000D02*
X166830000Y-75010000D01*
X166830000Y-74810000D01*
X168030000Y-74810000D01*
X168030000Y-75010000D01*
G36*
X168030000Y-75010000D02*
G01*
X166830000Y-75010000D01*
X166830000Y-74810000D01*
X168030000Y-74810000D01*
X168030000Y-75010000D01*
G37*
X168030000Y-75410000D02*
X166830000Y-75410000D01*
X166830000Y-75210000D01*
X168030000Y-75210000D01*
X168030000Y-75410000D01*
G36*
X168030000Y-75410000D02*
G01*
X166830000Y-75410000D01*
X166830000Y-75210000D01*
X168030000Y-75210000D01*
X168030000Y-75410000D01*
G37*
X168030000Y-75810000D02*
X166830000Y-75810000D01*
X166830000Y-75610000D01*
X168030000Y-75610000D01*
X168030000Y-75810000D01*
G36*
X168030000Y-75810000D02*
G01*
X166830000Y-75810000D01*
X166830000Y-75610000D01*
X168030000Y-75610000D01*
X168030000Y-75810000D01*
G37*
X168030000Y-76210000D02*
X166830000Y-76210000D01*
X166830000Y-76010000D01*
X168030000Y-76010000D01*
X168030000Y-76210000D01*
G36*
X168030000Y-76210000D02*
G01*
X166830000Y-76210000D01*
X166830000Y-76010000D01*
X168030000Y-76010000D01*
X168030000Y-76210000D01*
G37*
X168030000Y-76610000D02*
X166830000Y-76610000D01*
X166830000Y-76410000D01*
X168030000Y-76410000D01*
X168030000Y-76610000D01*
G36*
X168030000Y-76610000D02*
G01*
X166830000Y-76610000D01*
X166830000Y-76410000D01*
X168030000Y-76410000D01*
X168030000Y-76610000D01*
G37*
X168030000Y-76610000D02*
X166830000Y-76610000D01*
X166830000Y-76410000D01*
X168030000Y-76410000D01*
X168030000Y-76610000D01*
G36*
X168030000Y-76610000D02*
G01*
X166830000Y-76610000D01*
X166830000Y-76410000D01*
X168030000Y-76410000D01*
X168030000Y-76610000D01*
G37*
X168030000Y-77010000D02*
X166830000Y-77010000D01*
X166830000Y-76810000D01*
X168030000Y-76810000D01*
X168030000Y-77010000D01*
G36*
X168030000Y-77010000D02*
G01*
X166830000Y-77010000D01*
X166830000Y-76810000D01*
X168030000Y-76810000D01*
X168030000Y-77010000D01*
G37*
X168030000Y-77410000D02*
X166830000Y-77410000D01*
X166830000Y-77210000D01*
X168030000Y-77210000D01*
X168030000Y-77410000D01*
G36*
X168030000Y-77410000D02*
G01*
X166830000Y-77410000D01*
X166830000Y-77210000D01*
X168030000Y-77210000D01*
X168030000Y-77410000D01*
G37*
X168030000Y-77810000D02*
X166830000Y-77810000D01*
X166830000Y-77610000D01*
X168030000Y-77610000D01*
X168030000Y-77810000D01*
G36*
X168030000Y-77810000D02*
G01*
X166830000Y-77810000D01*
X166830000Y-77610000D01*
X168030000Y-77610000D01*
X168030000Y-77810000D01*
G37*
X168030000Y-78210000D02*
X166830000Y-78210000D01*
X166830000Y-78010000D01*
X168030000Y-78010000D01*
X168030000Y-78210000D01*
G36*
X168030000Y-78210000D02*
G01*
X166830000Y-78210000D01*
X166830000Y-78010000D01*
X168030000Y-78010000D01*
X168030000Y-78210000D01*
G37*
X168030000Y-78610000D02*
X166830000Y-78610000D01*
X166830000Y-78410000D01*
X168030000Y-78410000D01*
X168030000Y-78610000D01*
G36*
X168030000Y-78610000D02*
G01*
X166830000Y-78610000D01*
X166830000Y-78410000D01*
X168030000Y-78410000D01*
X168030000Y-78610000D01*
G37*
X168030000Y-79010000D02*
X166830000Y-79010000D01*
X166830000Y-78810000D01*
X168030000Y-78810000D01*
X168030000Y-79010000D01*
G36*
X168030000Y-79010000D02*
G01*
X166830000Y-79010000D01*
X166830000Y-78810000D01*
X168030000Y-78810000D01*
X168030000Y-79010000D01*
G37*
X168030000Y-79410000D02*
X166830000Y-79410000D01*
X166830000Y-79210000D01*
X168030000Y-79210000D01*
X168030000Y-79410000D01*
G36*
X168030000Y-79410000D02*
G01*
X166830000Y-79410000D01*
X166830000Y-79210000D01*
X168030000Y-79210000D01*
X168030000Y-79410000D01*
G37*
X168030000Y-79810000D02*
X166830000Y-79810000D01*
X166830000Y-79610000D01*
X168030000Y-79610000D01*
X168030000Y-79810000D01*
G36*
X168030000Y-79810000D02*
G01*
X166830000Y-79810000D01*
X166830000Y-79610000D01*
X168030000Y-79610000D01*
X168030000Y-79810000D01*
G37*
X168030000Y-80210000D02*
X166830000Y-80210000D01*
X166830000Y-80010000D01*
X168030000Y-80010000D01*
X168030000Y-80210000D01*
G36*
X168030000Y-80210000D02*
G01*
X166830000Y-80210000D01*
X166830000Y-80010000D01*
X168030000Y-80010000D01*
X168030000Y-80210000D01*
G37*
X168030000Y-80610000D02*
X166830000Y-80610000D01*
X166830000Y-80410000D01*
X168030000Y-80410000D01*
X168030000Y-80610000D01*
G36*
X168030000Y-80610000D02*
G01*
X166830000Y-80610000D01*
X166830000Y-80410000D01*
X168030000Y-80410000D01*
X168030000Y-80610000D01*
G37*
X168030000Y-81010000D02*
X166830000Y-81010000D01*
X166830000Y-80810000D01*
X168030000Y-80810000D01*
X168030000Y-81010000D01*
G36*
X168030000Y-81010000D02*
G01*
X166830000Y-81010000D01*
X166830000Y-80810000D01*
X168030000Y-80810000D01*
X168030000Y-81010000D01*
G37*
X168030000Y-81410000D02*
X166830000Y-81410000D01*
X166830000Y-81210000D01*
X168030000Y-81210000D01*
X168030000Y-81410000D01*
G36*
X168030000Y-81410000D02*
G01*
X166830000Y-81410000D01*
X166830000Y-81210000D01*
X168030000Y-81210000D01*
X168030000Y-81410000D01*
G37*
X168030000Y-81810000D02*
X166830000Y-81810000D01*
X166830000Y-81610000D01*
X168030000Y-81610000D01*
X168030000Y-81810000D01*
G36*
X168030000Y-81810000D02*
G01*
X166830000Y-81810000D01*
X166830000Y-81610000D01*
X168030000Y-81610000D01*
X168030000Y-81810000D01*
G37*
X168030000Y-82210000D02*
X166830000Y-82210000D01*
X166830000Y-82010000D01*
X168030000Y-82010000D01*
X168030000Y-82210000D01*
G36*
X168030000Y-82210000D02*
G01*
X166830000Y-82210000D01*
X166830000Y-82010000D01*
X168030000Y-82010000D01*
X168030000Y-82210000D01*
G37*
X168030000Y-82610000D02*
X166830000Y-82610000D01*
X166830000Y-82410000D01*
X168030000Y-82410000D01*
X168030000Y-82610000D01*
G36*
X168030000Y-82610000D02*
G01*
X166830000Y-82610000D01*
X166830000Y-82410000D01*
X168030000Y-82410000D01*
X168030000Y-82610000D01*
G37*
X168030000Y-83010000D02*
X166830000Y-83010000D01*
X166830000Y-82810000D01*
X168030000Y-82810000D01*
X168030000Y-83010000D01*
G36*
X168030000Y-83010000D02*
G01*
X166830000Y-83010000D01*
X166830000Y-82810000D01*
X168030000Y-82810000D01*
X168030000Y-83010000D01*
G37*
X168030000Y-83410000D02*
X166830000Y-83410000D01*
X166830000Y-83210000D01*
X168030000Y-83210000D01*
X168030000Y-83410000D01*
G36*
X168030000Y-83410000D02*
G01*
X166830000Y-83410000D01*
X166830000Y-83210000D01*
X168030000Y-83210000D01*
X168030000Y-83410000D01*
G37*
X168030000Y-83810000D02*
X166830000Y-83810000D01*
X166830000Y-83610000D01*
X168030000Y-83610000D01*
X168030000Y-83810000D01*
G36*
X168030000Y-83810000D02*
G01*
X166830000Y-83810000D01*
X166830000Y-83610000D01*
X168030000Y-83610000D01*
X168030000Y-83810000D01*
G37*
X168030000Y-84210000D02*
X166830000Y-84210000D01*
X166830000Y-84010000D01*
X168030000Y-84010000D01*
X168030000Y-84210000D01*
G36*
X168030000Y-84210000D02*
G01*
X166830000Y-84210000D01*
X166830000Y-84010000D01*
X168030000Y-84010000D01*
X168030000Y-84210000D01*
G37*
X168030000Y-84610000D02*
X166830000Y-84610000D01*
X166830000Y-84410000D01*
X168030000Y-84410000D01*
X168030000Y-84610000D01*
G36*
X168030000Y-84610000D02*
G01*
X166830000Y-84610000D01*
X166830000Y-84410000D01*
X168030000Y-84410000D01*
X168030000Y-84610000D01*
G37*
X168030000Y-85010000D02*
X166830000Y-85010000D01*
X166830000Y-84810000D01*
X168030000Y-84810000D01*
X168030000Y-85010000D01*
G36*
X168030000Y-85010000D02*
G01*
X166830000Y-85010000D01*
X166830000Y-84810000D01*
X168030000Y-84810000D01*
X168030000Y-85010000D01*
G37*
X168030000Y-85410000D02*
X166830000Y-85410000D01*
X166830000Y-85210000D01*
X168030000Y-85210000D01*
X168030000Y-85410000D01*
G36*
X168030000Y-85410000D02*
G01*
X166830000Y-85410000D01*
X166830000Y-85210000D01*
X168030000Y-85210000D01*
X168030000Y-85410000D01*
G37*
X168030000Y-85810000D02*
X166830000Y-85810000D01*
X166830000Y-85610000D01*
X168030000Y-85610000D01*
X168030000Y-85810000D01*
G36*
X168030000Y-85810000D02*
G01*
X166830000Y-85810000D01*
X166830000Y-85610000D01*
X168030000Y-85610000D01*
X168030000Y-85810000D01*
G37*
X168030000Y-86210000D02*
X166830000Y-86210000D01*
X166830000Y-86010000D01*
X168030000Y-86010000D01*
X168030000Y-86210000D01*
G36*
X168030000Y-86210000D02*
G01*
X166830000Y-86210000D01*
X166830000Y-86010000D01*
X168030000Y-86010000D01*
X168030000Y-86210000D01*
G37*
X168030000Y-86610000D02*
X166830000Y-86610000D01*
X166830000Y-86410000D01*
X168030000Y-86410000D01*
X168030000Y-86610000D01*
G36*
X168030000Y-86610000D02*
G01*
X166830000Y-86610000D01*
X166830000Y-86410000D01*
X168030000Y-86410000D01*
X168030000Y-86610000D01*
G37*
X168030000Y-87010000D02*
X166830000Y-87010000D01*
X166830000Y-86810000D01*
X168030000Y-86810000D01*
X168030000Y-87010000D01*
G36*
X168030000Y-87010000D02*
G01*
X166830000Y-87010000D01*
X166830000Y-86810000D01*
X168030000Y-86810000D01*
X168030000Y-87010000D01*
G37*
%TO.C,J5*%
X137770000Y-98250000D02*
X136570000Y-98250000D01*
X136570000Y-98050000D01*
X137770000Y-98050000D01*
X137770000Y-98250000D01*
G36*
X137770000Y-98250000D02*
G01*
X136570000Y-98250000D01*
X136570000Y-98050000D01*
X137770000Y-98050000D01*
X137770000Y-98250000D01*
G37*
X137770000Y-98650000D02*
X136570000Y-98650000D01*
X136570000Y-98450000D01*
X137770000Y-98450000D01*
X137770000Y-98650000D01*
G36*
X137770000Y-98650000D02*
G01*
X136570000Y-98650000D01*
X136570000Y-98450000D01*
X137770000Y-98450000D01*
X137770000Y-98650000D01*
G37*
X137770000Y-99050000D02*
X136570000Y-99050000D01*
X136570000Y-98850000D01*
X137770000Y-98850000D01*
X137770000Y-99050000D01*
G36*
X137770000Y-99050000D02*
G01*
X136570000Y-99050000D01*
X136570000Y-98850000D01*
X137770000Y-98850000D01*
X137770000Y-99050000D01*
G37*
X137770000Y-99450000D02*
X136570000Y-99450000D01*
X136570000Y-99250000D01*
X137770000Y-99250000D01*
X137770000Y-99450000D01*
G36*
X137770000Y-99450000D02*
G01*
X136570000Y-99450000D01*
X136570000Y-99250000D01*
X137770000Y-99250000D01*
X137770000Y-99450000D01*
G37*
X137770000Y-99850000D02*
X136570000Y-99850000D01*
X136570000Y-99650000D01*
X137770000Y-99650000D01*
X137770000Y-99850000D01*
G36*
X137770000Y-99850000D02*
G01*
X136570000Y-99850000D01*
X136570000Y-99650000D01*
X137770000Y-99650000D01*
X137770000Y-99850000D01*
G37*
X137770000Y-100250000D02*
X136570000Y-100250000D01*
X136570000Y-100050000D01*
X137770000Y-100050000D01*
X137770000Y-100250000D01*
G36*
X137770000Y-100250000D02*
G01*
X136570000Y-100250000D01*
X136570000Y-100050000D01*
X137770000Y-100050000D01*
X137770000Y-100250000D01*
G37*
X137770000Y-100650000D02*
X136570000Y-100650000D01*
X136570000Y-100450000D01*
X137770000Y-100450000D01*
X137770000Y-100650000D01*
G36*
X137770000Y-100650000D02*
G01*
X136570000Y-100650000D01*
X136570000Y-100450000D01*
X137770000Y-100450000D01*
X137770000Y-100650000D01*
G37*
X137770000Y-101050000D02*
X136570000Y-101050000D01*
X136570000Y-100850000D01*
X137770000Y-100850000D01*
X137770000Y-101050000D01*
G36*
X137770000Y-101050000D02*
G01*
X136570000Y-101050000D01*
X136570000Y-100850000D01*
X137770000Y-100850000D01*
X137770000Y-101050000D01*
G37*
X137770000Y-101450000D02*
X136570000Y-101450000D01*
X136570000Y-101250000D01*
X137770000Y-101250000D01*
X137770000Y-101450000D01*
G36*
X137770000Y-101450000D02*
G01*
X136570000Y-101450000D01*
X136570000Y-101250000D01*
X137770000Y-101250000D01*
X137770000Y-101450000D01*
G37*
X137770000Y-101850000D02*
X136570000Y-101850000D01*
X136570000Y-101650000D01*
X137770000Y-101650000D01*
X137770000Y-101850000D01*
G36*
X137770000Y-101850000D02*
G01*
X136570000Y-101850000D01*
X136570000Y-101650000D01*
X137770000Y-101650000D01*
X137770000Y-101850000D01*
G37*
X137770000Y-102250000D02*
X136570000Y-102250000D01*
X136570000Y-102050000D01*
X137770000Y-102050000D01*
X137770000Y-102250000D01*
G36*
X137770000Y-102250000D02*
G01*
X136570000Y-102250000D01*
X136570000Y-102050000D01*
X137770000Y-102050000D01*
X137770000Y-102250000D01*
G37*
X137770000Y-102650000D02*
X136570000Y-102650000D01*
X136570000Y-102450000D01*
X137770000Y-102450000D01*
X137770000Y-102650000D01*
G36*
X137770000Y-102650000D02*
G01*
X136570000Y-102650000D01*
X136570000Y-102450000D01*
X137770000Y-102450000D01*
X137770000Y-102650000D01*
G37*
X137770000Y-103050000D02*
X136570000Y-103050000D01*
X136570000Y-102850000D01*
X137770000Y-102850000D01*
X137770000Y-103050000D01*
G36*
X137770000Y-103050000D02*
G01*
X136570000Y-103050000D01*
X136570000Y-102850000D01*
X137770000Y-102850000D01*
X137770000Y-103050000D01*
G37*
X137770000Y-103450000D02*
X136570000Y-103450000D01*
X136570000Y-103250000D01*
X137770000Y-103250000D01*
X137770000Y-103450000D01*
G36*
X137770000Y-103450000D02*
G01*
X136570000Y-103450000D01*
X136570000Y-103250000D01*
X137770000Y-103250000D01*
X137770000Y-103450000D01*
G37*
X137770000Y-103850000D02*
X136570000Y-103850000D01*
X136570000Y-103650000D01*
X137770000Y-103650000D01*
X137770000Y-103850000D01*
G36*
X137770000Y-103850000D02*
G01*
X136570000Y-103850000D01*
X136570000Y-103650000D01*
X137770000Y-103650000D01*
X137770000Y-103850000D01*
G37*
X137770000Y-104250000D02*
X136570000Y-104250000D01*
X136570000Y-104050000D01*
X137770000Y-104050000D01*
X137770000Y-104250000D01*
G36*
X137770000Y-104250000D02*
G01*
X136570000Y-104250000D01*
X136570000Y-104050000D01*
X137770000Y-104050000D01*
X137770000Y-104250000D01*
G37*
X137770000Y-104650000D02*
X136570000Y-104650000D01*
X136570000Y-104450000D01*
X137770000Y-104450000D01*
X137770000Y-104650000D01*
G36*
X137770000Y-104650000D02*
G01*
X136570000Y-104650000D01*
X136570000Y-104450000D01*
X137770000Y-104450000D01*
X137770000Y-104650000D01*
G37*
X137770000Y-105050000D02*
X136570000Y-105050000D01*
X136570000Y-104850000D01*
X137770000Y-104850000D01*
X137770000Y-105050000D01*
G36*
X137770000Y-105050000D02*
G01*
X136570000Y-105050000D01*
X136570000Y-104850000D01*
X137770000Y-104850000D01*
X137770000Y-105050000D01*
G37*
X137770000Y-105450000D02*
X136570000Y-105450000D01*
X136570000Y-105250000D01*
X137770000Y-105250000D01*
X137770000Y-105450000D01*
G36*
X137770000Y-105450000D02*
G01*
X136570000Y-105450000D01*
X136570000Y-105250000D01*
X137770000Y-105250000D01*
X137770000Y-105450000D01*
G37*
X137770000Y-105850000D02*
X136570000Y-105850000D01*
X136570000Y-105650000D01*
X137770000Y-105650000D01*
X137770000Y-105850000D01*
G36*
X137770000Y-105850000D02*
G01*
X136570000Y-105850000D01*
X136570000Y-105650000D01*
X137770000Y-105650000D01*
X137770000Y-105850000D01*
G37*
X137770000Y-106250000D02*
X136570000Y-106250000D01*
X136570000Y-106050000D01*
X137770000Y-106050000D01*
X137770000Y-106250000D01*
G36*
X137770000Y-106250000D02*
G01*
X136570000Y-106250000D01*
X136570000Y-106050000D01*
X137770000Y-106050000D01*
X137770000Y-106250000D01*
G37*
X137770000Y-106650000D02*
X136570000Y-106650000D01*
X136570000Y-106450000D01*
X137770000Y-106450000D01*
X137770000Y-106650000D01*
G36*
X137770000Y-106650000D02*
G01*
X136570000Y-106650000D01*
X136570000Y-106450000D01*
X137770000Y-106450000D01*
X137770000Y-106650000D01*
G37*
X137770000Y-107050000D02*
X136570000Y-107050000D01*
X136570000Y-106850000D01*
X137770000Y-106850000D01*
X137770000Y-107050000D01*
G36*
X137770000Y-107050000D02*
G01*
X136570000Y-107050000D01*
X136570000Y-106850000D01*
X137770000Y-106850000D01*
X137770000Y-107050000D01*
G37*
X137770000Y-107450000D02*
X136570000Y-107450000D01*
X136570000Y-107250000D01*
X137770000Y-107250000D01*
X137770000Y-107450000D01*
G36*
X137770000Y-107450000D02*
G01*
X136570000Y-107450000D01*
X136570000Y-107250000D01*
X137770000Y-107250000D01*
X137770000Y-107450000D01*
G37*
X137770000Y-107850000D02*
X136570000Y-107850000D01*
X136570000Y-107650000D01*
X137770000Y-107650000D01*
X137770000Y-107850000D01*
G36*
X137770000Y-107850000D02*
G01*
X136570000Y-107850000D01*
X136570000Y-107650000D01*
X137770000Y-107650000D01*
X137770000Y-107850000D01*
G37*
X137770000Y-108250000D02*
X136570000Y-108250000D01*
X136570000Y-108050000D01*
X137770000Y-108050000D01*
X137770000Y-108250000D01*
G36*
X137770000Y-108250000D02*
G01*
X136570000Y-108250000D01*
X136570000Y-108050000D01*
X137770000Y-108050000D01*
X137770000Y-108250000D01*
G37*
X137770000Y-108650000D02*
X136570000Y-108650000D01*
X136570000Y-108450000D01*
X137770000Y-108450000D01*
X137770000Y-108650000D01*
G36*
X137770000Y-108650000D02*
G01*
X136570000Y-108650000D01*
X136570000Y-108450000D01*
X137770000Y-108450000D01*
X137770000Y-108650000D01*
G37*
X137770000Y-108650000D02*
X136570000Y-108650000D01*
X136570000Y-108450000D01*
X137770000Y-108450000D01*
X137770000Y-108650000D01*
G36*
X137770000Y-108650000D02*
G01*
X136570000Y-108650000D01*
X136570000Y-108450000D01*
X137770000Y-108450000D01*
X137770000Y-108650000D01*
G37*
X137770000Y-109050000D02*
X136570000Y-109050000D01*
X136570000Y-108850000D01*
X137770000Y-108850000D01*
X137770000Y-109050000D01*
G36*
X137770000Y-109050000D02*
G01*
X136570000Y-109050000D01*
X136570000Y-108850000D01*
X137770000Y-108850000D01*
X137770000Y-109050000D01*
G37*
X137770000Y-109450000D02*
X136570000Y-109450000D01*
X136570000Y-109250000D01*
X137770000Y-109250000D01*
X137770000Y-109450000D01*
G36*
X137770000Y-109450000D02*
G01*
X136570000Y-109450000D01*
X136570000Y-109250000D01*
X137770000Y-109250000D01*
X137770000Y-109450000D01*
G37*
X137770000Y-109850000D02*
X136570000Y-109850000D01*
X136570000Y-109650000D01*
X137770000Y-109650000D01*
X137770000Y-109850000D01*
G36*
X137770000Y-109850000D02*
G01*
X136570000Y-109850000D01*
X136570000Y-109650000D01*
X137770000Y-109650000D01*
X137770000Y-109850000D01*
G37*
X137770000Y-110250000D02*
X136570000Y-110250000D01*
X136570000Y-110050000D01*
X137770000Y-110050000D01*
X137770000Y-110250000D01*
G36*
X137770000Y-110250000D02*
G01*
X136570000Y-110250000D01*
X136570000Y-110050000D01*
X137770000Y-110050000D01*
X137770000Y-110250000D01*
G37*
X137770000Y-110650000D02*
X136570000Y-110650000D01*
X136570000Y-110450000D01*
X137770000Y-110450000D01*
X137770000Y-110650000D01*
G36*
X137770000Y-110650000D02*
G01*
X136570000Y-110650000D01*
X136570000Y-110450000D01*
X137770000Y-110450000D01*
X137770000Y-110650000D01*
G37*
X137770000Y-111050000D02*
X136570000Y-111050000D01*
X136570000Y-110850000D01*
X137770000Y-110850000D01*
X137770000Y-111050000D01*
G36*
X137770000Y-111050000D02*
G01*
X136570000Y-111050000D01*
X136570000Y-110850000D01*
X137770000Y-110850000D01*
X137770000Y-111050000D01*
G37*
X137770000Y-111450000D02*
X136570000Y-111450000D01*
X136570000Y-111250000D01*
X137770000Y-111250000D01*
X137770000Y-111450000D01*
G36*
X137770000Y-111450000D02*
G01*
X136570000Y-111450000D01*
X136570000Y-111250000D01*
X137770000Y-111250000D01*
X137770000Y-111450000D01*
G37*
X137770000Y-111850000D02*
X136570000Y-111850000D01*
X136570000Y-111650000D01*
X137770000Y-111650000D01*
X137770000Y-111850000D01*
G36*
X137770000Y-111850000D02*
G01*
X136570000Y-111850000D01*
X136570000Y-111650000D01*
X137770000Y-111650000D01*
X137770000Y-111850000D01*
G37*
X137770000Y-112250000D02*
X136570000Y-112250000D01*
X136570000Y-112050000D01*
X137770000Y-112050000D01*
X137770000Y-112250000D01*
G36*
X137770000Y-112250000D02*
G01*
X136570000Y-112250000D01*
X136570000Y-112050000D01*
X137770000Y-112050000D01*
X137770000Y-112250000D01*
G37*
X137770000Y-112250000D02*
X136570000Y-112250000D01*
X136570000Y-112050000D01*
X137770000Y-112050000D01*
X137770000Y-112250000D01*
G36*
X137770000Y-112250000D02*
G01*
X136570000Y-112250000D01*
X136570000Y-112050000D01*
X137770000Y-112050000D01*
X137770000Y-112250000D01*
G37*
X137770000Y-112650000D02*
X136570000Y-112650000D01*
X136570000Y-112450000D01*
X137770000Y-112450000D01*
X137770000Y-112650000D01*
G36*
X137770000Y-112650000D02*
G01*
X136570000Y-112650000D01*
X136570000Y-112450000D01*
X137770000Y-112450000D01*
X137770000Y-112650000D01*
G37*
X137770000Y-113050000D02*
X136570000Y-113050000D01*
X136570000Y-112850000D01*
X137770000Y-112850000D01*
X137770000Y-113050000D01*
G36*
X137770000Y-113050000D02*
G01*
X136570000Y-113050000D01*
X136570000Y-112850000D01*
X137770000Y-112850000D01*
X137770000Y-113050000D01*
G37*
X137770000Y-113450000D02*
X136570000Y-113450000D01*
X136570000Y-113250000D01*
X137770000Y-113250000D01*
X137770000Y-113450000D01*
G36*
X137770000Y-113450000D02*
G01*
X136570000Y-113450000D01*
X136570000Y-113250000D01*
X137770000Y-113250000D01*
X137770000Y-113450000D01*
G37*
X137770000Y-113850000D02*
X136570000Y-113850000D01*
X136570000Y-113650000D01*
X137770000Y-113650000D01*
X137770000Y-113850000D01*
G36*
X137770000Y-113850000D02*
G01*
X136570000Y-113850000D01*
X136570000Y-113650000D01*
X137770000Y-113650000D01*
X137770000Y-113850000D01*
G37*
X137770000Y-113850000D02*
X136570000Y-113850000D01*
X136570000Y-113650000D01*
X137770000Y-113650000D01*
X137770000Y-113850000D01*
G36*
X137770000Y-113850000D02*
G01*
X136570000Y-113850000D01*
X136570000Y-113650000D01*
X137770000Y-113650000D01*
X137770000Y-113850000D01*
G37*
X141190000Y-98250000D02*
X139990000Y-98250000D01*
X139990000Y-98050000D01*
X141190000Y-98050000D01*
X141190000Y-98250000D01*
G36*
X141190000Y-98250000D02*
G01*
X139990000Y-98250000D01*
X139990000Y-98050000D01*
X141190000Y-98050000D01*
X141190000Y-98250000D01*
G37*
X141190000Y-98250000D02*
X139990000Y-98250000D01*
X139990000Y-98050000D01*
X141190000Y-98050000D01*
X141190000Y-98250000D01*
G36*
X141190000Y-98250000D02*
G01*
X139990000Y-98250000D01*
X139990000Y-98050000D01*
X141190000Y-98050000D01*
X141190000Y-98250000D01*
G37*
X141190000Y-98650000D02*
X139990000Y-98650000D01*
X139990000Y-98450000D01*
X141190000Y-98450000D01*
X141190000Y-98650000D01*
G36*
X141190000Y-98650000D02*
G01*
X139990000Y-98650000D01*
X139990000Y-98450000D01*
X141190000Y-98450000D01*
X141190000Y-98650000D01*
G37*
X141190000Y-99050000D02*
X139990000Y-99050000D01*
X139990000Y-98850000D01*
X141190000Y-98850000D01*
X141190000Y-99050000D01*
G36*
X141190000Y-99050000D02*
G01*
X139990000Y-99050000D01*
X139990000Y-98850000D01*
X141190000Y-98850000D01*
X141190000Y-99050000D01*
G37*
X141190000Y-99450000D02*
X139990000Y-99450000D01*
X139990000Y-99250000D01*
X141190000Y-99250000D01*
X141190000Y-99450000D01*
G36*
X141190000Y-99450000D02*
G01*
X139990000Y-99450000D01*
X139990000Y-99250000D01*
X141190000Y-99250000D01*
X141190000Y-99450000D01*
G37*
X141190000Y-99850000D02*
X139990000Y-99850000D01*
X139990000Y-99650000D01*
X141190000Y-99650000D01*
X141190000Y-99850000D01*
G36*
X141190000Y-99850000D02*
G01*
X139990000Y-99850000D01*
X139990000Y-99650000D01*
X141190000Y-99650000D01*
X141190000Y-99850000D01*
G37*
X141190000Y-99850000D02*
X139990000Y-99850000D01*
X139990000Y-99650000D01*
X141190000Y-99650000D01*
X141190000Y-99850000D01*
G36*
X141190000Y-99850000D02*
G01*
X139990000Y-99850000D01*
X139990000Y-99650000D01*
X141190000Y-99650000D01*
X141190000Y-99850000D01*
G37*
X141190000Y-100250000D02*
X139990000Y-100250000D01*
X139990000Y-100050000D01*
X141190000Y-100050000D01*
X141190000Y-100250000D01*
G36*
X141190000Y-100250000D02*
G01*
X139990000Y-100250000D01*
X139990000Y-100050000D01*
X141190000Y-100050000D01*
X141190000Y-100250000D01*
G37*
X141190000Y-100650000D02*
X139990000Y-100650000D01*
X139990000Y-100450000D01*
X141190000Y-100450000D01*
X141190000Y-100650000D01*
G36*
X141190000Y-100650000D02*
G01*
X139990000Y-100650000D01*
X139990000Y-100450000D01*
X141190000Y-100450000D01*
X141190000Y-100650000D01*
G37*
X141190000Y-101050000D02*
X139990000Y-101050000D01*
X139990000Y-100850000D01*
X141190000Y-100850000D01*
X141190000Y-101050000D01*
G36*
X141190000Y-101050000D02*
G01*
X139990000Y-101050000D01*
X139990000Y-100850000D01*
X141190000Y-100850000D01*
X141190000Y-101050000D01*
G37*
X141190000Y-101450000D02*
X139990000Y-101450000D01*
X139990000Y-101250000D01*
X141190000Y-101250000D01*
X141190000Y-101450000D01*
G36*
X141190000Y-101450000D02*
G01*
X139990000Y-101450000D01*
X139990000Y-101250000D01*
X141190000Y-101250000D01*
X141190000Y-101450000D01*
G37*
X141190000Y-101850000D02*
X139990000Y-101850000D01*
X139990000Y-101650000D01*
X141190000Y-101650000D01*
X141190000Y-101850000D01*
G36*
X141190000Y-101850000D02*
G01*
X139990000Y-101850000D01*
X139990000Y-101650000D01*
X141190000Y-101650000D01*
X141190000Y-101850000D01*
G37*
X141190000Y-102250000D02*
X139990000Y-102250000D01*
X139990000Y-102050000D01*
X141190000Y-102050000D01*
X141190000Y-102250000D01*
G36*
X141190000Y-102250000D02*
G01*
X139990000Y-102250000D01*
X139990000Y-102050000D01*
X141190000Y-102050000D01*
X141190000Y-102250000D01*
G37*
X141190000Y-102650000D02*
X139990000Y-102650000D01*
X139990000Y-102450000D01*
X141190000Y-102450000D01*
X141190000Y-102650000D01*
G36*
X141190000Y-102650000D02*
G01*
X139990000Y-102650000D01*
X139990000Y-102450000D01*
X141190000Y-102450000D01*
X141190000Y-102650000D01*
G37*
X141190000Y-103050000D02*
X139990000Y-103050000D01*
X139990000Y-102850000D01*
X141190000Y-102850000D01*
X141190000Y-103050000D01*
G36*
X141190000Y-103050000D02*
G01*
X139990000Y-103050000D01*
X139990000Y-102850000D01*
X141190000Y-102850000D01*
X141190000Y-103050000D01*
G37*
X141190000Y-103450000D02*
X139990000Y-103450000D01*
X139990000Y-103250000D01*
X141190000Y-103250000D01*
X141190000Y-103450000D01*
G36*
X141190000Y-103450000D02*
G01*
X139990000Y-103450000D01*
X139990000Y-103250000D01*
X141190000Y-103250000D01*
X141190000Y-103450000D01*
G37*
X141190000Y-103450000D02*
X139990000Y-103450000D01*
X139990000Y-103250000D01*
X141190000Y-103250000D01*
X141190000Y-103450000D01*
G36*
X141190000Y-103450000D02*
G01*
X139990000Y-103450000D01*
X139990000Y-103250000D01*
X141190000Y-103250000D01*
X141190000Y-103450000D01*
G37*
X141190000Y-103850000D02*
X139990000Y-103850000D01*
X139990000Y-103650000D01*
X141190000Y-103650000D01*
X141190000Y-103850000D01*
G36*
X141190000Y-103850000D02*
G01*
X139990000Y-103850000D01*
X139990000Y-103650000D01*
X141190000Y-103650000D01*
X141190000Y-103850000D01*
G37*
X141190000Y-104250000D02*
X139990000Y-104250000D01*
X139990000Y-104050000D01*
X141190000Y-104050000D01*
X141190000Y-104250000D01*
G36*
X141190000Y-104250000D02*
G01*
X139990000Y-104250000D01*
X139990000Y-104050000D01*
X141190000Y-104050000D01*
X141190000Y-104250000D01*
G37*
X141190000Y-104650000D02*
X139990000Y-104650000D01*
X139990000Y-104450000D01*
X141190000Y-104450000D01*
X141190000Y-104650000D01*
G36*
X141190000Y-104650000D02*
G01*
X139990000Y-104650000D01*
X139990000Y-104450000D01*
X141190000Y-104450000D01*
X141190000Y-104650000D01*
G37*
X141190000Y-105050000D02*
X139990000Y-105050000D01*
X139990000Y-104850000D01*
X141190000Y-104850000D01*
X141190000Y-105050000D01*
G36*
X141190000Y-105050000D02*
G01*
X139990000Y-105050000D01*
X139990000Y-104850000D01*
X141190000Y-104850000D01*
X141190000Y-105050000D01*
G37*
X141190000Y-105450000D02*
X139990000Y-105450000D01*
X139990000Y-105250000D01*
X141190000Y-105250000D01*
X141190000Y-105450000D01*
G36*
X141190000Y-105450000D02*
G01*
X139990000Y-105450000D01*
X139990000Y-105250000D01*
X141190000Y-105250000D01*
X141190000Y-105450000D01*
G37*
X141190000Y-105850000D02*
X139990000Y-105850000D01*
X139990000Y-105650000D01*
X141190000Y-105650000D01*
X141190000Y-105850000D01*
G36*
X141190000Y-105850000D02*
G01*
X139990000Y-105850000D01*
X139990000Y-105650000D01*
X141190000Y-105650000D01*
X141190000Y-105850000D01*
G37*
X141190000Y-106250000D02*
X139990000Y-106250000D01*
X139990000Y-106050000D01*
X141190000Y-106050000D01*
X141190000Y-106250000D01*
G36*
X141190000Y-106250000D02*
G01*
X139990000Y-106250000D01*
X139990000Y-106050000D01*
X141190000Y-106050000D01*
X141190000Y-106250000D01*
G37*
X141190000Y-106650000D02*
X139990000Y-106650000D01*
X139990000Y-106450000D01*
X141190000Y-106450000D01*
X141190000Y-106650000D01*
G36*
X141190000Y-106650000D02*
G01*
X139990000Y-106650000D01*
X139990000Y-106450000D01*
X141190000Y-106450000D01*
X141190000Y-106650000D01*
G37*
X141190000Y-107050000D02*
X139990000Y-107050000D01*
X139990000Y-106850000D01*
X141190000Y-106850000D01*
X141190000Y-107050000D01*
G36*
X141190000Y-107050000D02*
G01*
X139990000Y-107050000D01*
X139990000Y-106850000D01*
X141190000Y-106850000D01*
X141190000Y-107050000D01*
G37*
X141190000Y-107450000D02*
X139990000Y-107450000D01*
X139990000Y-107250000D01*
X141190000Y-107250000D01*
X141190000Y-107450000D01*
G36*
X141190000Y-107450000D02*
G01*
X139990000Y-107450000D01*
X139990000Y-107250000D01*
X141190000Y-107250000D01*
X141190000Y-107450000D01*
G37*
X141190000Y-107850000D02*
X139990000Y-107850000D01*
X139990000Y-107650000D01*
X141190000Y-107650000D01*
X141190000Y-107850000D01*
G36*
X141190000Y-107850000D02*
G01*
X139990000Y-107850000D01*
X139990000Y-107650000D01*
X141190000Y-107650000D01*
X141190000Y-107850000D01*
G37*
X141190000Y-108250000D02*
X139990000Y-108250000D01*
X139990000Y-108050000D01*
X141190000Y-108050000D01*
X141190000Y-108250000D01*
G36*
X141190000Y-108250000D02*
G01*
X139990000Y-108250000D01*
X139990000Y-108050000D01*
X141190000Y-108050000D01*
X141190000Y-108250000D01*
G37*
X141190000Y-108650000D02*
X139990000Y-108650000D01*
X139990000Y-108450000D01*
X141190000Y-108450000D01*
X141190000Y-108650000D01*
G36*
X141190000Y-108650000D02*
G01*
X139990000Y-108650000D01*
X139990000Y-108450000D01*
X141190000Y-108450000D01*
X141190000Y-108650000D01*
G37*
X141190000Y-109050000D02*
X139990000Y-109050000D01*
X139990000Y-108850000D01*
X141190000Y-108850000D01*
X141190000Y-109050000D01*
G36*
X141190000Y-109050000D02*
G01*
X139990000Y-109050000D01*
X139990000Y-108850000D01*
X141190000Y-108850000D01*
X141190000Y-109050000D01*
G37*
X141190000Y-109450000D02*
X139990000Y-109450000D01*
X139990000Y-109250000D01*
X141190000Y-109250000D01*
X141190000Y-109450000D01*
G36*
X141190000Y-109450000D02*
G01*
X139990000Y-109450000D01*
X139990000Y-109250000D01*
X141190000Y-109250000D01*
X141190000Y-109450000D01*
G37*
X141190000Y-109850000D02*
X139990000Y-109850000D01*
X139990000Y-109650000D01*
X141190000Y-109650000D01*
X141190000Y-109850000D01*
G36*
X141190000Y-109850000D02*
G01*
X139990000Y-109850000D01*
X139990000Y-109650000D01*
X141190000Y-109650000D01*
X141190000Y-109850000D01*
G37*
X141190000Y-110250000D02*
X139990000Y-110250000D01*
X139990000Y-110050000D01*
X141190000Y-110050000D01*
X141190000Y-110250000D01*
G36*
X141190000Y-110250000D02*
G01*
X139990000Y-110250000D01*
X139990000Y-110050000D01*
X141190000Y-110050000D01*
X141190000Y-110250000D01*
G37*
X141190000Y-110650000D02*
X139990000Y-110650000D01*
X139990000Y-110450000D01*
X141190000Y-110450000D01*
X141190000Y-110650000D01*
G36*
X141190000Y-110650000D02*
G01*
X139990000Y-110650000D01*
X139990000Y-110450000D01*
X141190000Y-110450000D01*
X141190000Y-110650000D01*
G37*
X141190000Y-111050000D02*
X139990000Y-111050000D01*
X139990000Y-110850000D01*
X141190000Y-110850000D01*
X141190000Y-111050000D01*
G36*
X141190000Y-111050000D02*
G01*
X139990000Y-111050000D01*
X139990000Y-110850000D01*
X141190000Y-110850000D01*
X141190000Y-111050000D01*
G37*
X141190000Y-111450000D02*
X139990000Y-111450000D01*
X139990000Y-111250000D01*
X141190000Y-111250000D01*
X141190000Y-111450000D01*
G36*
X141190000Y-111450000D02*
G01*
X139990000Y-111450000D01*
X139990000Y-111250000D01*
X141190000Y-111250000D01*
X141190000Y-111450000D01*
G37*
X141190000Y-111850000D02*
X139990000Y-111850000D01*
X139990000Y-111650000D01*
X141190000Y-111650000D01*
X141190000Y-111850000D01*
G36*
X141190000Y-111850000D02*
G01*
X139990000Y-111850000D01*
X139990000Y-111650000D01*
X141190000Y-111650000D01*
X141190000Y-111850000D01*
G37*
X141190000Y-112250000D02*
X139990000Y-112250000D01*
X139990000Y-112050000D01*
X141190000Y-112050000D01*
X141190000Y-112250000D01*
G36*
X141190000Y-112250000D02*
G01*
X139990000Y-112250000D01*
X139990000Y-112050000D01*
X141190000Y-112050000D01*
X141190000Y-112250000D01*
G37*
X141190000Y-112650000D02*
X139990000Y-112650000D01*
X139990000Y-112450000D01*
X141190000Y-112450000D01*
X141190000Y-112650000D01*
G36*
X141190000Y-112650000D02*
G01*
X139990000Y-112650000D01*
X139990000Y-112450000D01*
X141190000Y-112450000D01*
X141190000Y-112650000D01*
G37*
X141190000Y-113050000D02*
X139990000Y-113050000D01*
X139990000Y-112850000D01*
X141190000Y-112850000D01*
X141190000Y-113050000D01*
G36*
X141190000Y-113050000D02*
G01*
X139990000Y-113050000D01*
X139990000Y-112850000D01*
X141190000Y-112850000D01*
X141190000Y-113050000D01*
G37*
X141190000Y-113450000D02*
X139990000Y-113450000D01*
X139990000Y-113250000D01*
X141190000Y-113250000D01*
X141190000Y-113450000D01*
G36*
X141190000Y-113450000D02*
G01*
X139990000Y-113450000D01*
X139990000Y-113250000D01*
X141190000Y-113250000D01*
X141190000Y-113450000D01*
G37*
X141190000Y-113850000D02*
X139990000Y-113850000D01*
X139990000Y-113650000D01*
X141190000Y-113650000D01*
X141190000Y-113850000D01*
G36*
X141190000Y-113850000D02*
G01*
X139990000Y-113850000D01*
X139990000Y-113650000D01*
X141190000Y-113650000D01*
X141190000Y-113850000D01*
G37*
%TO.C,J2*%
X124970000Y-71410000D02*
X123770000Y-71410000D01*
X123770000Y-71210000D01*
X124970000Y-71210000D01*
X124970000Y-71410000D01*
G36*
X124970000Y-71410000D02*
G01*
X123770000Y-71410000D01*
X123770000Y-71210000D01*
X124970000Y-71210000D01*
X124970000Y-71410000D01*
G37*
X124970000Y-71810000D02*
X123770000Y-71810000D01*
X123770000Y-71610000D01*
X124970000Y-71610000D01*
X124970000Y-71810000D01*
G36*
X124970000Y-71810000D02*
G01*
X123770000Y-71810000D01*
X123770000Y-71610000D01*
X124970000Y-71610000D01*
X124970000Y-71810000D01*
G37*
X124970000Y-72210000D02*
X123770000Y-72210000D01*
X123770000Y-72010000D01*
X124970000Y-72010000D01*
X124970000Y-72210000D01*
G36*
X124970000Y-72210000D02*
G01*
X123770000Y-72210000D01*
X123770000Y-72010000D01*
X124970000Y-72010000D01*
X124970000Y-72210000D01*
G37*
X124970000Y-72610000D02*
X123770000Y-72610000D01*
X123770000Y-72410000D01*
X124970000Y-72410000D01*
X124970000Y-72610000D01*
G36*
X124970000Y-72610000D02*
G01*
X123770000Y-72610000D01*
X123770000Y-72410000D01*
X124970000Y-72410000D01*
X124970000Y-72610000D01*
G37*
X124970000Y-73010000D02*
X123770000Y-73010000D01*
X123770000Y-72810000D01*
X124970000Y-72810000D01*
X124970000Y-73010000D01*
G36*
X124970000Y-73010000D02*
G01*
X123770000Y-73010000D01*
X123770000Y-72810000D01*
X124970000Y-72810000D01*
X124970000Y-73010000D01*
G37*
X124970000Y-73410000D02*
X123770000Y-73410000D01*
X123770000Y-73210000D01*
X124970000Y-73210000D01*
X124970000Y-73410000D01*
G36*
X124970000Y-73410000D02*
G01*
X123770000Y-73410000D01*
X123770000Y-73210000D01*
X124970000Y-73210000D01*
X124970000Y-73410000D01*
G37*
X124970000Y-73810000D02*
X123770000Y-73810000D01*
X123770000Y-73610000D01*
X124970000Y-73610000D01*
X124970000Y-73810000D01*
G36*
X124970000Y-73810000D02*
G01*
X123770000Y-73810000D01*
X123770000Y-73610000D01*
X124970000Y-73610000D01*
X124970000Y-73810000D01*
G37*
X124970000Y-74210000D02*
X123770000Y-74210000D01*
X123770000Y-74010000D01*
X124970000Y-74010000D01*
X124970000Y-74210000D01*
G36*
X124970000Y-74210000D02*
G01*
X123770000Y-74210000D01*
X123770000Y-74010000D01*
X124970000Y-74010000D01*
X124970000Y-74210000D01*
G37*
X124970000Y-74610000D02*
X123770000Y-74610000D01*
X123770000Y-74410000D01*
X124970000Y-74410000D01*
X124970000Y-74610000D01*
G36*
X124970000Y-74610000D02*
G01*
X123770000Y-74610000D01*
X123770000Y-74410000D01*
X124970000Y-74410000D01*
X124970000Y-74610000D01*
G37*
X124970000Y-75010000D02*
X123770000Y-75010000D01*
X123770000Y-74810000D01*
X124970000Y-74810000D01*
X124970000Y-75010000D01*
G36*
X124970000Y-75010000D02*
G01*
X123770000Y-75010000D01*
X123770000Y-74810000D01*
X124970000Y-74810000D01*
X124970000Y-75010000D01*
G37*
X124970000Y-75410000D02*
X123770000Y-75410000D01*
X123770000Y-75210000D01*
X124970000Y-75210000D01*
X124970000Y-75410000D01*
G36*
X124970000Y-75410000D02*
G01*
X123770000Y-75410000D01*
X123770000Y-75210000D01*
X124970000Y-75210000D01*
X124970000Y-75410000D01*
G37*
X124970000Y-75810000D02*
X123770000Y-75810000D01*
X123770000Y-75610000D01*
X124970000Y-75610000D01*
X124970000Y-75810000D01*
G36*
X124970000Y-75810000D02*
G01*
X123770000Y-75810000D01*
X123770000Y-75610000D01*
X124970000Y-75610000D01*
X124970000Y-75810000D01*
G37*
X124970000Y-76210000D02*
X123770000Y-76210000D01*
X123770000Y-76010000D01*
X124970000Y-76010000D01*
X124970000Y-76210000D01*
G36*
X124970000Y-76210000D02*
G01*
X123770000Y-76210000D01*
X123770000Y-76010000D01*
X124970000Y-76010000D01*
X124970000Y-76210000D01*
G37*
X124970000Y-76610000D02*
X123770000Y-76610000D01*
X123770000Y-76410000D01*
X124970000Y-76410000D01*
X124970000Y-76610000D01*
G36*
X124970000Y-76610000D02*
G01*
X123770000Y-76610000D01*
X123770000Y-76410000D01*
X124970000Y-76410000D01*
X124970000Y-76610000D01*
G37*
X124970000Y-77010000D02*
X123770000Y-77010000D01*
X123770000Y-76810000D01*
X124970000Y-76810000D01*
X124970000Y-77010000D01*
G36*
X124970000Y-77010000D02*
G01*
X123770000Y-77010000D01*
X123770000Y-76810000D01*
X124970000Y-76810000D01*
X124970000Y-77010000D01*
G37*
X124970000Y-77410000D02*
X123770000Y-77410000D01*
X123770000Y-77210000D01*
X124970000Y-77210000D01*
X124970000Y-77410000D01*
G36*
X124970000Y-77410000D02*
G01*
X123770000Y-77410000D01*
X123770000Y-77210000D01*
X124970000Y-77210000D01*
X124970000Y-77410000D01*
G37*
X124970000Y-77810000D02*
X123770000Y-77810000D01*
X123770000Y-77610000D01*
X124970000Y-77610000D01*
X124970000Y-77810000D01*
G36*
X124970000Y-77810000D02*
G01*
X123770000Y-77810000D01*
X123770000Y-77610000D01*
X124970000Y-77610000D01*
X124970000Y-77810000D01*
G37*
X124970000Y-78210000D02*
X123770000Y-78210000D01*
X123770000Y-78010000D01*
X124970000Y-78010000D01*
X124970000Y-78210000D01*
G36*
X124970000Y-78210000D02*
G01*
X123770000Y-78210000D01*
X123770000Y-78010000D01*
X124970000Y-78010000D01*
X124970000Y-78210000D01*
G37*
X124970000Y-78610000D02*
X123770000Y-78610000D01*
X123770000Y-78410000D01*
X124970000Y-78410000D01*
X124970000Y-78610000D01*
G36*
X124970000Y-78610000D02*
G01*
X123770000Y-78610000D01*
X123770000Y-78410000D01*
X124970000Y-78410000D01*
X124970000Y-78610000D01*
G37*
X124970000Y-79010000D02*
X123770000Y-79010000D01*
X123770000Y-78810000D01*
X124970000Y-78810000D01*
X124970000Y-79010000D01*
G36*
X124970000Y-79010000D02*
G01*
X123770000Y-79010000D01*
X123770000Y-78810000D01*
X124970000Y-78810000D01*
X124970000Y-79010000D01*
G37*
X124970000Y-79410000D02*
X123770000Y-79410000D01*
X123770000Y-79210000D01*
X124970000Y-79210000D01*
X124970000Y-79410000D01*
G36*
X124970000Y-79410000D02*
G01*
X123770000Y-79410000D01*
X123770000Y-79210000D01*
X124970000Y-79210000D01*
X124970000Y-79410000D01*
G37*
X124970000Y-79810000D02*
X123770000Y-79810000D01*
X123770000Y-79610000D01*
X124970000Y-79610000D01*
X124970000Y-79810000D01*
G36*
X124970000Y-79810000D02*
G01*
X123770000Y-79810000D01*
X123770000Y-79610000D01*
X124970000Y-79610000D01*
X124970000Y-79810000D01*
G37*
X124970000Y-80210000D02*
X123770000Y-80210000D01*
X123770000Y-80010000D01*
X124970000Y-80010000D01*
X124970000Y-80210000D01*
G36*
X124970000Y-80210000D02*
G01*
X123770000Y-80210000D01*
X123770000Y-80010000D01*
X124970000Y-80010000D01*
X124970000Y-80210000D01*
G37*
X124970000Y-80610000D02*
X123770000Y-80610000D01*
X123770000Y-80410000D01*
X124970000Y-80410000D01*
X124970000Y-80610000D01*
G36*
X124970000Y-80610000D02*
G01*
X123770000Y-80610000D01*
X123770000Y-80410000D01*
X124970000Y-80410000D01*
X124970000Y-80610000D01*
G37*
X124970000Y-81010000D02*
X123770000Y-81010000D01*
X123770000Y-80810000D01*
X124970000Y-80810000D01*
X124970000Y-81010000D01*
G36*
X124970000Y-81010000D02*
G01*
X123770000Y-81010000D01*
X123770000Y-80810000D01*
X124970000Y-80810000D01*
X124970000Y-81010000D01*
G37*
X124970000Y-81410000D02*
X123770000Y-81410000D01*
X123770000Y-81210000D01*
X124970000Y-81210000D01*
X124970000Y-81410000D01*
G36*
X124970000Y-81410000D02*
G01*
X123770000Y-81410000D01*
X123770000Y-81210000D01*
X124970000Y-81210000D01*
X124970000Y-81410000D01*
G37*
X124970000Y-81810000D02*
X123770000Y-81810000D01*
X123770000Y-81610000D01*
X124970000Y-81610000D01*
X124970000Y-81810000D01*
G36*
X124970000Y-81810000D02*
G01*
X123770000Y-81810000D01*
X123770000Y-81610000D01*
X124970000Y-81610000D01*
X124970000Y-81810000D01*
G37*
X124970000Y-81810000D02*
X123770000Y-81810000D01*
X123770000Y-81610000D01*
X124970000Y-81610000D01*
X124970000Y-81810000D01*
G36*
X124970000Y-81810000D02*
G01*
X123770000Y-81810000D01*
X123770000Y-81610000D01*
X124970000Y-81610000D01*
X124970000Y-81810000D01*
G37*
X124970000Y-82210000D02*
X123770000Y-82210000D01*
X123770000Y-82010000D01*
X124970000Y-82010000D01*
X124970000Y-82210000D01*
G36*
X124970000Y-82210000D02*
G01*
X123770000Y-82210000D01*
X123770000Y-82010000D01*
X124970000Y-82010000D01*
X124970000Y-82210000D01*
G37*
X124970000Y-82610000D02*
X123770000Y-82610000D01*
X123770000Y-82410000D01*
X124970000Y-82410000D01*
X124970000Y-82610000D01*
G36*
X124970000Y-82610000D02*
G01*
X123770000Y-82610000D01*
X123770000Y-82410000D01*
X124970000Y-82410000D01*
X124970000Y-82610000D01*
G37*
X124970000Y-83010000D02*
X123770000Y-83010000D01*
X123770000Y-82810000D01*
X124970000Y-82810000D01*
X124970000Y-83010000D01*
G36*
X124970000Y-83010000D02*
G01*
X123770000Y-83010000D01*
X123770000Y-82810000D01*
X124970000Y-82810000D01*
X124970000Y-83010000D01*
G37*
X124970000Y-83410000D02*
X123770000Y-83410000D01*
X123770000Y-83210000D01*
X124970000Y-83210000D01*
X124970000Y-83410000D01*
G36*
X124970000Y-83410000D02*
G01*
X123770000Y-83410000D01*
X123770000Y-83210000D01*
X124970000Y-83210000D01*
X124970000Y-83410000D01*
G37*
X124970000Y-83810000D02*
X123770000Y-83810000D01*
X123770000Y-83610000D01*
X124970000Y-83610000D01*
X124970000Y-83810000D01*
G36*
X124970000Y-83810000D02*
G01*
X123770000Y-83810000D01*
X123770000Y-83610000D01*
X124970000Y-83610000D01*
X124970000Y-83810000D01*
G37*
X124970000Y-84210000D02*
X123770000Y-84210000D01*
X123770000Y-84010000D01*
X124970000Y-84010000D01*
X124970000Y-84210000D01*
G36*
X124970000Y-84210000D02*
G01*
X123770000Y-84210000D01*
X123770000Y-84010000D01*
X124970000Y-84010000D01*
X124970000Y-84210000D01*
G37*
X124970000Y-84610000D02*
X123770000Y-84610000D01*
X123770000Y-84410000D01*
X124970000Y-84410000D01*
X124970000Y-84610000D01*
G36*
X124970000Y-84610000D02*
G01*
X123770000Y-84610000D01*
X123770000Y-84410000D01*
X124970000Y-84410000D01*
X124970000Y-84610000D01*
G37*
X124970000Y-85010000D02*
X123770000Y-85010000D01*
X123770000Y-84810000D01*
X124970000Y-84810000D01*
X124970000Y-85010000D01*
G36*
X124970000Y-85010000D02*
G01*
X123770000Y-85010000D01*
X123770000Y-84810000D01*
X124970000Y-84810000D01*
X124970000Y-85010000D01*
G37*
X124970000Y-85410000D02*
X123770000Y-85410000D01*
X123770000Y-85210000D01*
X124970000Y-85210000D01*
X124970000Y-85410000D01*
G36*
X124970000Y-85410000D02*
G01*
X123770000Y-85410000D01*
X123770000Y-85210000D01*
X124970000Y-85210000D01*
X124970000Y-85410000D01*
G37*
X124970000Y-85410000D02*
X123770000Y-85410000D01*
X123770000Y-85210000D01*
X124970000Y-85210000D01*
X124970000Y-85410000D01*
G36*
X124970000Y-85410000D02*
G01*
X123770000Y-85410000D01*
X123770000Y-85210000D01*
X124970000Y-85210000D01*
X124970000Y-85410000D01*
G37*
X124970000Y-85810000D02*
X123770000Y-85810000D01*
X123770000Y-85610000D01*
X124970000Y-85610000D01*
X124970000Y-85810000D01*
G36*
X124970000Y-85810000D02*
G01*
X123770000Y-85810000D01*
X123770000Y-85610000D01*
X124970000Y-85610000D01*
X124970000Y-85810000D01*
G37*
X124970000Y-86210000D02*
X123770000Y-86210000D01*
X123770000Y-86010000D01*
X124970000Y-86010000D01*
X124970000Y-86210000D01*
G36*
X124970000Y-86210000D02*
G01*
X123770000Y-86210000D01*
X123770000Y-86010000D01*
X124970000Y-86010000D01*
X124970000Y-86210000D01*
G37*
X124970000Y-86610000D02*
X123770000Y-86610000D01*
X123770000Y-86410000D01*
X124970000Y-86410000D01*
X124970000Y-86610000D01*
G36*
X124970000Y-86610000D02*
G01*
X123770000Y-86610000D01*
X123770000Y-86410000D01*
X124970000Y-86410000D01*
X124970000Y-86610000D01*
G37*
X124970000Y-87010000D02*
X123770000Y-87010000D01*
X123770000Y-86810000D01*
X124970000Y-86810000D01*
X124970000Y-87010000D01*
G36*
X124970000Y-87010000D02*
G01*
X123770000Y-87010000D01*
X123770000Y-86810000D01*
X124970000Y-86810000D01*
X124970000Y-87010000D01*
G37*
X124970000Y-87010000D02*
X123770000Y-87010000D01*
X123770000Y-86810000D01*
X124970000Y-86810000D01*
X124970000Y-87010000D01*
G36*
X124970000Y-87010000D02*
G01*
X123770000Y-87010000D01*
X123770000Y-86810000D01*
X124970000Y-86810000D01*
X124970000Y-87010000D01*
G37*
X128390000Y-71410000D02*
X127190000Y-71410000D01*
X127190000Y-71210000D01*
X128390000Y-71210000D01*
X128390000Y-71410000D01*
G36*
X128390000Y-71410000D02*
G01*
X127190000Y-71410000D01*
X127190000Y-71210000D01*
X128390000Y-71210000D01*
X128390000Y-71410000D01*
G37*
X128390000Y-71410000D02*
X127190000Y-71410000D01*
X127190000Y-71210000D01*
X128390000Y-71210000D01*
X128390000Y-71410000D01*
G36*
X128390000Y-71410000D02*
G01*
X127190000Y-71410000D01*
X127190000Y-71210000D01*
X128390000Y-71210000D01*
X128390000Y-71410000D01*
G37*
X128390000Y-71810000D02*
X127190000Y-71810000D01*
X127190000Y-71610000D01*
X128390000Y-71610000D01*
X128390000Y-71810000D01*
G36*
X128390000Y-71810000D02*
G01*
X127190000Y-71810000D01*
X127190000Y-71610000D01*
X128390000Y-71610000D01*
X128390000Y-71810000D01*
G37*
X128390000Y-72210000D02*
X127190000Y-72210000D01*
X127190000Y-72010000D01*
X128390000Y-72010000D01*
X128390000Y-72210000D01*
G36*
X128390000Y-72210000D02*
G01*
X127190000Y-72210000D01*
X127190000Y-72010000D01*
X128390000Y-72010000D01*
X128390000Y-72210000D01*
G37*
X128390000Y-72610000D02*
X127190000Y-72610000D01*
X127190000Y-72410000D01*
X128390000Y-72410000D01*
X128390000Y-72610000D01*
G36*
X128390000Y-72610000D02*
G01*
X127190000Y-72610000D01*
X127190000Y-72410000D01*
X128390000Y-72410000D01*
X128390000Y-72610000D01*
G37*
X128390000Y-73010000D02*
X127190000Y-73010000D01*
X127190000Y-72810000D01*
X128390000Y-72810000D01*
X128390000Y-73010000D01*
G36*
X128390000Y-73010000D02*
G01*
X127190000Y-73010000D01*
X127190000Y-72810000D01*
X128390000Y-72810000D01*
X128390000Y-73010000D01*
G37*
X128390000Y-73010000D02*
X127190000Y-73010000D01*
X127190000Y-72810000D01*
X128390000Y-72810000D01*
X128390000Y-73010000D01*
G36*
X128390000Y-73010000D02*
G01*
X127190000Y-73010000D01*
X127190000Y-72810000D01*
X128390000Y-72810000D01*
X128390000Y-73010000D01*
G37*
X128390000Y-73410000D02*
X127190000Y-73410000D01*
X127190000Y-73210000D01*
X128390000Y-73210000D01*
X128390000Y-73410000D01*
G36*
X128390000Y-73410000D02*
G01*
X127190000Y-73410000D01*
X127190000Y-73210000D01*
X128390000Y-73210000D01*
X128390000Y-73410000D01*
G37*
X128390000Y-73810000D02*
X127190000Y-73810000D01*
X127190000Y-73610000D01*
X128390000Y-73610000D01*
X128390000Y-73810000D01*
G36*
X128390000Y-73810000D02*
G01*
X127190000Y-73810000D01*
X127190000Y-73610000D01*
X128390000Y-73610000D01*
X128390000Y-73810000D01*
G37*
X128390000Y-74210000D02*
X127190000Y-74210000D01*
X127190000Y-74010000D01*
X128390000Y-74010000D01*
X128390000Y-74210000D01*
G36*
X128390000Y-74210000D02*
G01*
X127190000Y-74210000D01*
X127190000Y-74010000D01*
X128390000Y-74010000D01*
X128390000Y-74210000D01*
G37*
X128390000Y-74610000D02*
X127190000Y-74610000D01*
X127190000Y-74410000D01*
X128390000Y-74410000D01*
X128390000Y-74610000D01*
G36*
X128390000Y-74610000D02*
G01*
X127190000Y-74610000D01*
X127190000Y-74410000D01*
X128390000Y-74410000D01*
X128390000Y-74610000D01*
G37*
X128390000Y-75010000D02*
X127190000Y-75010000D01*
X127190000Y-74810000D01*
X128390000Y-74810000D01*
X128390000Y-75010000D01*
G36*
X128390000Y-75010000D02*
G01*
X127190000Y-75010000D01*
X127190000Y-74810000D01*
X128390000Y-74810000D01*
X128390000Y-75010000D01*
G37*
X128390000Y-75410000D02*
X127190000Y-75410000D01*
X127190000Y-75210000D01*
X128390000Y-75210000D01*
X128390000Y-75410000D01*
G36*
X128390000Y-75410000D02*
G01*
X127190000Y-75410000D01*
X127190000Y-75210000D01*
X128390000Y-75210000D01*
X128390000Y-75410000D01*
G37*
X128390000Y-75810000D02*
X127190000Y-75810000D01*
X127190000Y-75610000D01*
X128390000Y-75610000D01*
X128390000Y-75810000D01*
G36*
X128390000Y-75810000D02*
G01*
X127190000Y-75810000D01*
X127190000Y-75610000D01*
X128390000Y-75610000D01*
X128390000Y-75810000D01*
G37*
X128390000Y-76210000D02*
X127190000Y-76210000D01*
X127190000Y-76010000D01*
X128390000Y-76010000D01*
X128390000Y-76210000D01*
G36*
X128390000Y-76210000D02*
G01*
X127190000Y-76210000D01*
X127190000Y-76010000D01*
X128390000Y-76010000D01*
X128390000Y-76210000D01*
G37*
X128390000Y-76610000D02*
X127190000Y-76610000D01*
X127190000Y-76410000D01*
X128390000Y-76410000D01*
X128390000Y-76610000D01*
G36*
X128390000Y-76610000D02*
G01*
X127190000Y-76610000D01*
X127190000Y-76410000D01*
X128390000Y-76410000D01*
X128390000Y-76610000D01*
G37*
X128390000Y-76610000D02*
X127190000Y-76610000D01*
X127190000Y-76410000D01*
X128390000Y-76410000D01*
X128390000Y-76610000D01*
G36*
X128390000Y-76610000D02*
G01*
X127190000Y-76610000D01*
X127190000Y-76410000D01*
X128390000Y-76410000D01*
X128390000Y-76610000D01*
G37*
X128390000Y-77010000D02*
X127190000Y-77010000D01*
X127190000Y-76810000D01*
X128390000Y-76810000D01*
X128390000Y-77010000D01*
G36*
X128390000Y-77010000D02*
G01*
X127190000Y-77010000D01*
X127190000Y-76810000D01*
X128390000Y-76810000D01*
X128390000Y-77010000D01*
G37*
X128390000Y-77410000D02*
X127190000Y-77410000D01*
X127190000Y-77210000D01*
X128390000Y-77210000D01*
X128390000Y-77410000D01*
G36*
X128390000Y-77410000D02*
G01*
X127190000Y-77410000D01*
X127190000Y-77210000D01*
X128390000Y-77210000D01*
X128390000Y-77410000D01*
G37*
X128390000Y-77810000D02*
X127190000Y-77810000D01*
X127190000Y-77610000D01*
X128390000Y-77610000D01*
X128390000Y-77810000D01*
G36*
X128390000Y-77810000D02*
G01*
X127190000Y-77810000D01*
X127190000Y-77610000D01*
X128390000Y-77610000D01*
X128390000Y-77810000D01*
G37*
X128390000Y-78210000D02*
X127190000Y-78210000D01*
X127190000Y-78010000D01*
X128390000Y-78010000D01*
X128390000Y-78210000D01*
G36*
X128390000Y-78210000D02*
G01*
X127190000Y-78210000D01*
X127190000Y-78010000D01*
X128390000Y-78010000D01*
X128390000Y-78210000D01*
G37*
X128390000Y-78610000D02*
X127190000Y-78610000D01*
X127190000Y-78410000D01*
X128390000Y-78410000D01*
X128390000Y-78610000D01*
G36*
X128390000Y-78610000D02*
G01*
X127190000Y-78610000D01*
X127190000Y-78410000D01*
X128390000Y-78410000D01*
X128390000Y-78610000D01*
G37*
X128390000Y-79010000D02*
X127190000Y-79010000D01*
X127190000Y-78810000D01*
X128390000Y-78810000D01*
X128390000Y-79010000D01*
G36*
X128390000Y-79010000D02*
G01*
X127190000Y-79010000D01*
X127190000Y-78810000D01*
X128390000Y-78810000D01*
X128390000Y-79010000D01*
G37*
X128390000Y-79410000D02*
X127190000Y-79410000D01*
X127190000Y-79210000D01*
X128390000Y-79210000D01*
X128390000Y-79410000D01*
G36*
X128390000Y-79410000D02*
G01*
X127190000Y-79410000D01*
X127190000Y-79210000D01*
X128390000Y-79210000D01*
X128390000Y-79410000D01*
G37*
X128390000Y-79810000D02*
X127190000Y-79810000D01*
X127190000Y-79610000D01*
X128390000Y-79610000D01*
X128390000Y-79810000D01*
G36*
X128390000Y-79810000D02*
G01*
X127190000Y-79810000D01*
X127190000Y-79610000D01*
X128390000Y-79610000D01*
X128390000Y-79810000D01*
G37*
X128390000Y-80210000D02*
X127190000Y-80210000D01*
X127190000Y-80010000D01*
X128390000Y-80010000D01*
X128390000Y-80210000D01*
G36*
X128390000Y-80210000D02*
G01*
X127190000Y-80210000D01*
X127190000Y-80010000D01*
X128390000Y-80010000D01*
X128390000Y-80210000D01*
G37*
X128390000Y-80610000D02*
X127190000Y-80610000D01*
X127190000Y-80410000D01*
X128390000Y-80410000D01*
X128390000Y-80610000D01*
G36*
X128390000Y-80610000D02*
G01*
X127190000Y-80610000D01*
X127190000Y-80410000D01*
X128390000Y-80410000D01*
X128390000Y-80610000D01*
G37*
X128390000Y-81010000D02*
X127190000Y-81010000D01*
X127190000Y-80810000D01*
X128390000Y-80810000D01*
X128390000Y-81010000D01*
G36*
X128390000Y-81010000D02*
G01*
X127190000Y-81010000D01*
X127190000Y-80810000D01*
X128390000Y-80810000D01*
X128390000Y-81010000D01*
G37*
X128390000Y-81410000D02*
X127190000Y-81410000D01*
X127190000Y-81210000D01*
X128390000Y-81210000D01*
X128390000Y-81410000D01*
G36*
X128390000Y-81410000D02*
G01*
X127190000Y-81410000D01*
X127190000Y-81210000D01*
X128390000Y-81210000D01*
X128390000Y-81410000D01*
G37*
X128390000Y-81810000D02*
X127190000Y-81810000D01*
X127190000Y-81610000D01*
X128390000Y-81610000D01*
X128390000Y-81810000D01*
G36*
X128390000Y-81810000D02*
G01*
X127190000Y-81810000D01*
X127190000Y-81610000D01*
X128390000Y-81610000D01*
X128390000Y-81810000D01*
G37*
X128390000Y-82210000D02*
X127190000Y-82210000D01*
X127190000Y-82010000D01*
X128390000Y-82010000D01*
X128390000Y-82210000D01*
G36*
X128390000Y-82210000D02*
G01*
X127190000Y-82210000D01*
X127190000Y-82010000D01*
X128390000Y-82010000D01*
X128390000Y-82210000D01*
G37*
X128390000Y-82610000D02*
X127190000Y-82610000D01*
X127190000Y-82410000D01*
X128390000Y-82410000D01*
X128390000Y-82610000D01*
G36*
X128390000Y-82610000D02*
G01*
X127190000Y-82610000D01*
X127190000Y-82410000D01*
X128390000Y-82410000D01*
X128390000Y-82610000D01*
G37*
X128390000Y-83010000D02*
X127190000Y-83010000D01*
X127190000Y-82810000D01*
X128390000Y-82810000D01*
X128390000Y-83010000D01*
G36*
X128390000Y-83010000D02*
G01*
X127190000Y-83010000D01*
X127190000Y-82810000D01*
X128390000Y-82810000D01*
X128390000Y-83010000D01*
G37*
X128390000Y-83410000D02*
X127190000Y-83410000D01*
X127190000Y-83210000D01*
X128390000Y-83210000D01*
X128390000Y-83410000D01*
G36*
X128390000Y-83410000D02*
G01*
X127190000Y-83410000D01*
X127190000Y-83210000D01*
X128390000Y-83210000D01*
X128390000Y-83410000D01*
G37*
X128390000Y-83810000D02*
X127190000Y-83810000D01*
X127190000Y-83610000D01*
X128390000Y-83610000D01*
X128390000Y-83810000D01*
G36*
X128390000Y-83810000D02*
G01*
X127190000Y-83810000D01*
X127190000Y-83610000D01*
X128390000Y-83610000D01*
X128390000Y-83810000D01*
G37*
X128390000Y-84210000D02*
X127190000Y-84210000D01*
X127190000Y-84010000D01*
X128390000Y-84010000D01*
X128390000Y-84210000D01*
G36*
X128390000Y-84210000D02*
G01*
X127190000Y-84210000D01*
X127190000Y-84010000D01*
X128390000Y-84010000D01*
X128390000Y-84210000D01*
G37*
X128390000Y-84610000D02*
X127190000Y-84610000D01*
X127190000Y-84410000D01*
X128390000Y-84410000D01*
X128390000Y-84610000D01*
G36*
X128390000Y-84610000D02*
G01*
X127190000Y-84610000D01*
X127190000Y-84410000D01*
X128390000Y-84410000D01*
X128390000Y-84610000D01*
G37*
X128390000Y-85010000D02*
X127190000Y-85010000D01*
X127190000Y-84810000D01*
X128390000Y-84810000D01*
X128390000Y-85010000D01*
G36*
X128390000Y-85010000D02*
G01*
X127190000Y-85010000D01*
X127190000Y-84810000D01*
X128390000Y-84810000D01*
X128390000Y-85010000D01*
G37*
X128390000Y-85410000D02*
X127190000Y-85410000D01*
X127190000Y-85210000D01*
X128390000Y-85210000D01*
X128390000Y-85410000D01*
G36*
X128390000Y-85410000D02*
G01*
X127190000Y-85410000D01*
X127190000Y-85210000D01*
X128390000Y-85210000D01*
X128390000Y-85410000D01*
G37*
X128390000Y-85810000D02*
X127190000Y-85810000D01*
X127190000Y-85610000D01*
X128390000Y-85610000D01*
X128390000Y-85810000D01*
G36*
X128390000Y-85810000D02*
G01*
X127190000Y-85810000D01*
X127190000Y-85610000D01*
X128390000Y-85610000D01*
X128390000Y-85810000D01*
G37*
X128390000Y-86210000D02*
X127190000Y-86210000D01*
X127190000Y-86010000D01*
X128390000Y-86010000D01*
X128390000Y-86210000D01*
G36*
X128390000Y-86210000D02*
G01*
X127190000Y-86210000D01*
X127190000Y-86010000D01*
X128390000Y-86010000D01*
X128390000Y-86210000D01*
G37*
X128390000Y-86610000D02*
X127190000Y-86610000D01*
X127190000Y-86410000D01*
X128390000Y-86410000D01*
X128390000Y-86610000D01*
G36*
X128390000Y-86610000D02*
G01*
X127190000Y-86610000D01*
X127190000Y-86410000D01*
X128390000Y-86410000D01*
X128390000Y-86610000D01*
G37*
X128390000Y-87010000D02*
X127190000Y-87010000D01*
X127190000Y-86810000D01*
X128390000Y-86810000D01*
X128390000Y-87010000D01*
G36*
X128390000Y-87010000D02*
G01*
X127190000Y-87010000D01*
X127190000Y-86810000D01*
X128390000Y-86810000D01*
X128390000Y-87010000D01*
G37*
%TD*%
D11*
%TO.C,J1*%
X215445000Y-100715000D03*
X217945000Y-100715000D03*
D12*
X212195000Y-96515000D03*
X221195000Y-96515000D03*
%TD*%
M02*
