M48
; DRILL file {KiCad 8.0.2} date 2024-07-16T15:49:23+0200
; FORMAT={-:-/ absolute / inch / decimal}
; #@! TF.CreationDate,2024-07-16T15:49:23+02:00
; #@! TF.GenerationSoftware,Kicad,Pcbnew,8.0.2
; #@! TF.FileFunction,Plated,3,6,Blind
FMAT,2
INCH
; #@! TA.AperFunction,Plated,Buried,ViaDrill
T1C0.0079
%
G90
G05
T1
X5.1043Y-3.3004
X5.1043Y-3.3713
X5.1044Y-2.8279
X5.1044Y-2.8988
X5.1044Y-2.9854
X5.1044Y-3.0563
X5.1044Y-3.1433
X5.1044Y-3.2141
X5.1044Y-4.0425
X5.1044Y-4.1134
X5.1044Y-4.3578
X5.1044Y-4.4287
X5.1051Y-3.885
X5.1051Y-3.9559
X5.1051Y-4.2
X5.1051Y-4.2708
X5.128Y-3.324
X5.128Y-3.3949
X5.128Y-2.8515
X5.128Y-2.9224
X5.128Y-3.009
X5.128Y-3.0799
X5.128Y-3.1669
X5.128Y-3.2378
X5.128Y-4.0661
X5.128Y-4.137
X5.128Y-4.3815
X5.128Y-4.4523
X5.1288Y-3.9086
X5.1288Y-3.9795
X5.1288Y-4.2236
X5.1288Y-4.2945
X6.3599Y-3.9086
X6.3599Y-3.9795
X6.3599Y-4.2236
X6.3599Y-4.2945
X6.3607Y-2.8515
X6.3607Y-2.9224
X6.3607Y-3.009
X6.3607Y-3.0799
X6.3607Y-3.1669
X6.3607Y-3.2378
X6.3607Y-4.0661
X6.3607Y-4.137
X6.3607Y-4.3815
X6.3607Y-4.4523
X6.3607Y-3.324
X6.3607Y-3.3949
X6.3835Y-3.885
X6.3835Y-3.9559
X6.3835Y-4.2
X6.3835Y-4.2708
X6.3843Y-2.8279
X6.3843Y-2.8988
X6.3843Y-2.9854
X6.3843Y-3.0563
X6.3843Y-3.1433
X6.3843Y-3.2141
X6.3843Y-4.0425
X6.3843Y-4.1134
X6.3843Y-4.3578
X6.3843Y-4.4287
X6.3843Y-3.3004
X6.3843Y-3.3713
M30
