M48
; DRILL file {KiCad 8.0.2} date 2024-07-16T15:49:23+0200
; FORMAT={-:-/ absolute / inch / decimal}
; #@! TF.CreationDate,2024-07-16T15:49:23+02:00
; #@! TF.GenerationSoftware,Kicad,Pcbnew,8.0.2
; #@! TF.FileFunction,Plated,1,5,Blind
FMAT,2
INCH
; #@! TA.AperFunction,Plated,Buried,ViaDrill
T1C0.0079
%
G90
G05
T1
X3.2016Y-3.5228
X3.2209Y-3.4992
X3.2209Y-3.6685
X3.2402Y-3.5228
X3.2402Y-3.6449
X3.2594Y-3.4992
X3.2594Y-3.6685
X3.2787Y-3.5228
X3.2787Y-3.6449
X3.298Y-3.4992
X3.298Y-3.6685
X3.3173Y-3.5228
X3.3173Y-3.6449
X3.3366Y-3.4992
X3.3366Y-3.6685
X3.3366Y-3.6685
X3.3559Y-3.5228
X3.3559Y-3.6449
X3.3752Y-3.4992
X3.3752Y-3.6685
X3.3945Y-3.5228
X3.3945Y-3.6449
X3.4138Y-3.4992
X3.4138Y-3.6685
X3.4331Y-3.5228
X3.4331Y-3.6449
X3.4524Y-3.4992
X3.4524Y-3.6685
X3.4717Y-3.5228
X3.4717Y-3.6449
X3.4909Y-3.4992
X3.4909Y-3.6685
X3.5102Y-3.5228
X3.5102Y-3.6449
X3.5295Y-3.4992
X3.5295Y-3.6685
X3.5488Y-3.5228
X3.5488Y-3.6449
X3.5681Y-3.4992
X3.5681Y-3.6685
X3.5874Y-3.5228
X3.5874Y-3.6449
X3.6067Y-3.4992
X3.6067Y-3.6685
X3.626Y-3.5228
X3.626Y-3.6449
X3.6453Y-3.4992
X3.6453Y-3.6685
X3.6646Y-3.5228
X3.6646Y-3.6449
X3.6839Y-3.4992
X3.6839Y-3.6685
X3.7031Y-3.5228
X3.7031Y-3.6449
X3.7224Y-3.4992
X3.7224Y-3.6685
X3.7417Y-3.5228
X3.7417Y-3.6449
X3.761Y-3.4992
X3.761Y-3.6685
X3.7803Y-3.5228
X3.7803Y-3.6449
X3.7996Y-3.4992
X3.7996Y-3.6685
X3.8189Y-3.6449
X5.1024Y-3.5228
X5.1217Y-3.4992
X5.1217Y-3.6685
X5.141Y-3.5228
X5.141Y-3.6449
X5.1603Y-3.4992
X5.1603Y-3.6685
X5.1796Y-3.5228
X5.1796Y-3.6449
X5.1988Y-3.4992
X5.1988Y-3.6685
X5.2181Y-3.5228
X5.2181Y-3.6449
X5.2374Y-3.4992
X5.2374Y-3.6685
X5.2567Y-3.5228
X5.2567Y-3.6449
X5.276Y-3.4992
X5.276Y-3.6685
X5.2953Y-3.5228
X5.2953Y-3.6449
X5.3146Y-3.4992
X5.3146Y-3.6685
X5.3339Y-3.5228
X5.3339Y-3.6449
X5.3532Y-3.4992
X5.3532Y-3.6685
X5.3725Y-3.5228
X5.3725Y-3.6449
X5.3918Y-3.4992
X5.3918Y-3.6685
X5.4111Y-3.5228
X5.4111Y-3.6449
X5.4303Y-3.4992
X5.4303Y-3.6685
X5.4496Y-3.5228
X5.4496Y-3.6449
X5.4689Y-3.4992
X5.4689Y-3.6685
X5.4882Y-3.5228
X5.4882Y-3.6449
X5.5075Y-3.4992
X5.5075Y-3.6685
X5.5268Y-3.5228
X5.5268Y-3.6449
X5.5461Y-3.4992
X5.5461Y-3.6685
X5.5654Y-3.5228
X5.5654Y-3.6449
X5.5847Y-3.4992
X5.5847Y-3.6685
X5.5847Y-3.6685
X5.604Y-3.5228
X5.604Y-3.6449
X5.6232Y-3.4992
X5.6233Y-3.6685
X5.6425Y-3.6449
X5.6425Y-3.5228
X5.6618Y-3.4992
X5.6618Y-3.6685
X5.6811Y-3.5228
X5.6811Y-3.6449
X5.7004Y-3.4992
X5.7004Y-3.6685
X5.7197Y-3.6449
X5.7685Y-3.5228
X5.7878Y-3.4992
X5.7878Y-3.6685
X5.8071Y-3.5228
X5.8071Y-3.6449
X5.8264Y-3.4992
X5.8264Y-3.6685
X5.8457Y-3.6449
X5.8457Y-3.5228
X5.865Y-3.4992
X5.865Y-3.6685
X5.8843Y-3.5228
X5.8843Y-3.6449
X5.9035Y-3.4992
X5.9035Y-3.4992
X5.9035Y-3.6685
X5.9228Y-3.5228
X5.9228Y-3.6449
X5.9421Y-3.4992
X5.9421Y-3.6685
X5.9614Y-3.5228
X5.9614Y-3.6449
X5.9807Y-3.4992
X5.9807Y-3.6685
X6.0Y-3.5228
X6.0Y-3.6449
X6.0193Y-3.4992
X6.0193Y-3.6685
X6.0386Y-3.5228
X6.0386Y-3.6449
X6.0579Y-3.4992
X6.0579Y-3.6685
X6.0772Y-3.5228
X6.0772Y-3.6449
X6.0965Y-3.4992
X6.0965Y-3.6685
X6.1157Y-3.5228
X6.1157Y-3.6449
X6.135Y-3.4992
X6.135Y-3.6685
X6.1543Y-3.5228
X6.1543Y-3.6449
X6.1736Y-3.4992
X6.1736Y-3.6685
X6.1929Y-3.5228
X6.1929Y-3.6449
X6.2122Y-3.4992
X6.2122Y-3.6685
X6.2315Y-3.5228
X6.2315Y-3.6449
X6.2508Y-3.4992
X6.2508Y-3.6685
X6.2701Y-3.5228
X6.2701Y-3.6449
X6.2894Y-3.4992
X6.2894Y-3.6685
X6.3087Y-3.5228
X6.3087Y-3.6449
X6.328Y-3.4992
X6.328Y-3.6685
X6.3472Y-3.5228
X6.3472Y-3.6449
X6.3665Y-3.4992
X6.3665Y-3.6685
X6.3858Y-3.6449
X7.6693Y-3.5228
X7.6886Y-3.4992
X7.6886Y-3.6685
X7.7079Y-3.5228
X7.7079Y-3.6449
X7.7272Y-3.4992
X7.7272Y-3.6685
X7.7465Y-3.5228
X7.7465Y-3.6449
X7.7658Y-3.4992
X7.7658Y-3.6685
X7.7851Y-3.5228
X7.7851Y-3.6449
X7.8044Y-3.4992
X7.8044Y-3.6685
X7.8236Y-3.5228
X7.8236Y-3.6449
X7.8429Y-3.4992
X7.8429Y-3.6685
X7.8622Y-3.5228
X7.8622Y-3.6449
X7.8815Y-3.4992
X7.8815Y-3.6685
X7.9008Y-3.5228
X7.9008Y-3.6449
X7.9201Y-3.4992
X7.9201Y-3.6685
X7.9394Y-3.5228
X7.9394Y-3.6449
X7.9587Y-3.4992
X7.9587Y-3.6685
X7.978Y-3.5228
X7.978Y-3.6449
X7.9973Y-3.4992
X7.9973Y-3.6685
X8.0166Y-3.5228
X8.0166Y-3.6449
X8.0359Y-3.4992
X8.0359Y-3.6685
X8.0551Y-3.5228
X8.0551Y-3.6449
X8.0744Y-3.4992
X8.0744Y-3.6685
X8.0937Y-3.5228
X8.0937Y-3.6449
X8.113Y-3.4992
X8.113Y-3.6685
X8.1323Y-3.5228
X8.1323Y-3.6449
X8.1516Y-3.4992
X8.1516Y-3.6685
X8.1516Y-3.6685
X8.1709Y-3.5228
X8.1709Y-3.6449
X8.1902Y-3.4992
X8.1902Y-3.6685
X8.2094Y-3.6449
X8.2095Y-3.5228
X8.2287Y-3.4992
X8.2287Y-3.6685
X8.248Y-3.5228
X8.248Y-3.6449
X8.2673Y-3.4992
X8.2673Y-3.6685
X8.2866Y-3.6449
M30
