M48
; DRILL file {KiCad 8.0.2} date 2024-07-16T15:49:23+0200
; FORMAT={-:-/ absolute / inch / decimal}
; #@! TF.CreationDate,2024-07-16T15:49:23+02:00
; #@! TF.GenerationSoftware,Kicad,Pcbnew,8.0.2
; #@! TF.FileFunction,Plated,1,3,Blind
FMAT,2
INCH
; #@! TA.AperFunction,Plated,Buried,ViaDrill
T1C0.0079
%
G90
G05
T1
X3.8189Y-3.5228
X3.8382Y-3.4992
X3.8382Y-3.6685
X3.8575Y-3.5228
X3.8575Y-3.6449
X3.8768Y-3.4992
X3.8768Y-3.6685
X3.8961Y-3.5228
X3.8961Y-3.6449
X3.9154Y-3.4992
X3.9154Y-3.6685
X3.9346Y-3.5228
X3.9346Y-3.6449
X3.9539Y-3.4992
X3.9539Y-3.6685
X3.9732Y-3.5228
X3.9732Y-3.6449
X3.9925Y-3.4992
X3.9925Y-3.6685
X4.0118Y-3.5228
X4.0118Y-3.6449
X4.0311Y-3.4992
X4.0311Y-3.6685
X4.0504Y-3.5228
X4.0504Y-3.6449
X4.0697Y-3.4992
X4.0697Y-3.6685
X4.089Y-3.5228
X4.089Y-3.6449
X4.1083Y-3.4992
X4.1083Y-3.6685
X4.1276Y-3.5228
X4.1276Y-3.6449
X4.1469Y-3.4992
X4.1469Y-3.6685
X4.1661Y-3.5228
X4.1661Y-3.6449
X4.1854Y-3.4992
X4.1854Y-3.6685
X4.2047Y-3.5228
X4.2047Y-3.6449
X4.224Y-3.4992
X4.224Y-3.6685
X4.2433Y-3.5228
X4.2433Y-3.6449
X4.2626Y-3.4992
X4.2626Y-3.6685
X4.2819Y-3.5228
X4.2819Y-3.6449
X4.3012Y-3.4992
X4.3012Y-3.6685
X4.3205Y-3.5228
X4.3205Y-3.6449
X4.3398Y-3.4992
X4.3398Y-3.6685
X4.3591Y-3.5228
X4.3591Y-3.6449
X4.3783Y-3.4992
X4.3783Y-3.6685
X4.3976Y-3.5228
X4.3976Y-3.6449
X4.4169Y-3.4992
X4.4169Y-3.6685
X4.4362Y-3.6449
X4.485Y-3.5228
X4.5044Y-3.4992
X4.5044Y-3.6685
X4.5236Y-3.5228
X4.5236Y-3.6449
X4.5429Y-3.4992
X4.5429Y-3.6685
X4.5622Y-3.5228
X4.5622Y-3.6449
X4.5815Y-3.4992
X4.5815Y-3.6685
X4.6008Y-3.5228
X4.6008Y-3.6449
X4.6201Y-3.4992
X4.6201Y-3.6685
X4.6394Y-3.5228
X4.6394Y-3.6449
X4.6587Y-3.4992
X4.6587Y-3.6685
X4.678Y-3.5228
X4.678Y-3.6449
X4.6973Y-3.4992
X4.6973Y-3.6685
X4.7166Y-3.5228
X4.7166Y-3.6449
X4.7359Y-3.4992
X4.7359Y-3.6685
X4.7551Y-3.5228
X4.7551Y-3.6449
X4.7744Y-3.4992
X4.7744Y-3.6685
X4.7937Y-3.5228
X4.7937Y-3.6449
X4.813Y-3.4992
X4.813Y-3.6685
X4.8323Y-3.5228
X4.8323Y-3.6449
X4.8516Y-3.4992
X4.8516Y-3.6685
X4.8709Y-3.5228
X4.8709Y-3.6449
X4.8902Y-3.4992
X4.8902Y-3.6685
X4.9095Y-3.5228
X4.9095Y-3.6449
X4.9288Y-3.4992
X4.9288Y-3.6685
X4.9481Y-3.5228
X4.9481Y-3.6449
X4.9674Y-3.4992
X4.9674Y-3.6685
X4.9866Y-3.5228
X4.9866Y-3.6449
X5.0059Y-3.4992
X5.0059Y-3.6685
X5.0252Y-3.5228
X5.0252Y-3.6449
X5.0445Y-3.4992
X5.0445Y-3.6685
X5.0638Y-3.5228
X5.0638Y-3.6449
X5.0831Y-3.4992
X5.0831Y-3.6685
X5.1024Y-3.6449
X6.3858Y-3.5228
X6.4051Y-3.4992
X6.4051Y-3.6685
X6.4244Y-3.5228
X6.4244Y-3.6449
X6.4437Y-3.4992
X6.4437Y-3.6685
X6.463Y-3.5228
X6.463Y-3.6449
X6.4823Y-3.4992
X6.4823Y-3.6685
X6.5016Y-3.5228
X6.5016Y-3.6449
X6.5209Y-3.4992
X6.5209Y-3.6685
X6.5402Y-3.5228
X6.5402Y-3.6449
X6.5594Y-3.4992
X6.5594Y-3.6685
X6.5787Y-3.5228
X6.5787Y-3.6449
X6.598Y-3.4992
X6.598Y-3.6685
X6.6173Y-3.5228
X6.6173Y-3.6449
X6.6366Y-3.4992
X6.6366Y-3.6685
X6.6559Y-3.5228
X6.6559Y-3.6449
X6.6752Y-3.4992
X6.6752Y-3.6685
X6.6945Y-3.5228
X6.6945Y-3.6449
X6.7138Y-3.4992
X6.7138Y-3.6685
X6.7331Y-3.5228
X6.7331Y-3.6449
X6.7524Y-3.4992
X6.7524Y-3.6685
X6.7717Y-3.5228
X6.7717Y-3.6449
X6.7909Y-3.4992
X6.7909Y-3.6685
X6.8102Y-3.5228
X6.8102Y-3.6449
X6.8295Y-3.4992
X6.8295Y-3.6685
X6.8488Y-3.5228
X6.8488Y-3.6449
X6.8681Y-3.4992
X6.8681Y-3.6685
X6.8874Y-3.5228
X6.8874Y-3.6449
X6.9067Y-3.4992
X6.9067Y-3.6685
X6.926Y-3.5228
X6.926Y-3.6449
X6.9453Y-3.4992
X6.9453Y-3.6685
X6.9646Y-3.5228
X6.9646Y-3.6449
X6.9839Y-3.4992
X6.9839Y-3.6685
X7.0032Y-3.6449
X7.052Y-3.5228
X7.0713Y-3.4992
X7.0713Y-3.6685
X7.0906Y-3.5228
X7.0906Y-3.6449
X7.1099Y-3.4992
X7.1099Y-3.6685
X7.1292Y-3.5228
X7.1292Y-3.6449
X7.1485Y-3.4992
X7.1485Y-3.6685
X7.1677Y-3.5228
X7.1677Y-3.6449
X7.187Y-3.4992
X7.187Y-3.6685
X7.2063Y-3.5228
X7.2063Y-3.6449
X7.2256Y-3.4992
X7.2256Y-3.6685
X7.2449Y-3.5228
X7.2449Y-3.6449
X7.2642Y-3.4992
X7.2642Y-3.6685
X7.2835Y-3.5228
X7.2835Y-3.6449
X7.3028Y-3.4992
X7.3028Y-3.6685
X7.3221Y-3.5228
X7.3221Y-3.6449
X7.3414Y-3.4992
X7.3414Y-3.6685
X7.3607Y-3.5228
X7.3607Y-3.6449
X7.3799Y-3.4992
X7.3799Y-3.6685
X7.3992Y-3.5228
X7.3992Y-3.6449
X7.4185Y-3.4992
X7.4185Y-3.6685
X7.4378Y-3.5228
X7.4378Y-3.6449
X7.4571Y-3.4992
X7.4571Y-3.6685
X7.4764Y-3.5228
X7.4764Y-3.6449
X7.4957Y-3.4992
X7.4957Y-3.6685
X7.515Y-3.5228
X7.515Y-3.6449
X7.5343Y-3.4992
X7.5343Y-3.6685
X7.5536Y-3.5228
X7.5536Y-3.6449
X7.5729Y-3.4992
X7.5729Y-3.6685
X7.5922Y-3.5228
X7.5922Y-3.6449
X7.6114Y-3.4992
X7.6114Y-3.6685
X7.6307Y-3.5228
X7.6307Y-3.6449
X7.65Y-3.4992
X7.65Y-3.6685
X7.6693Y-3.6449
M30
