M48
; DRILL file {KiCad 8.0.2} date 2024-07-16T15:49:23+0200
; FORMAT={-:-/ absolute / inch / decimal}
; #@! TF.CreationDate,2024-07-16T15:49:23+02:00
; #@! TF.GenerationSoftware,Kicad,Pcbnew,8.0.2
; #@! TF.FileFunction,Plated,1,6,PTH
FMAT,2
INCH
; #@! TA.AperFunction,Plated,PTH,ViaDrill
T1C0.0079
; #@! TA.AperFunction,Plated,PTH,ViaDrill
T2C0.0236
; #@! TA.AperFunction,Plated,PTH,ComponentDrill
T3C0.0866
%
G90
G05
T1
X3.065Y-3.5766
X5.3036Y-2.8508
X5.3036Y-2.9216
X5.3036Y-3.0082
X5.3036Y-3.0791
X5.3036Y-3.1657
X5.3036Y-3.2366
X5.3036Y-3.3228
X5.3036Y-3.3937
X5.3036Y-3.9078
X5.3036Y-3.9787
X5.3036Y-4.0641
X5.3036Y-4.135
X5.3036Y-4.2224
X5.3036Y-4.2933
X5.3036Y-4.3803
X5.3036Y-4.4512
X5.3272Y-2.8271
X5.3272Y-2.898
X5.3272Y-2.9846
X5.3272Y-3.0555
X5.3272Y-3.1421
X5.3272Y-3.213
X5.3272Y-3.2992
X5.3272Y-3.3701
X5.3272Y-3.8842
X5.3272Y-3.9551
X5.3272Y-4.0405
X5.3272Y-4.1114
X5.3272Y-4.1988
X5.3272Y-4.2697
X5.3272Y-4.3567
X5.3272Y-4.4275
X5.8115Y-3.9139
X5.8119Y-3.3622
X6.161Y-3.2996
X6.161Y-3.3705
X6.1611Y-2.8271
X6.1611Y-2.898
X6.1611Y-2.9846
X6.1611Y-3.0555
X6.1611Y-3.1425
X6.1611Y-3.2134
X6.1611Y-4.0417
X6.1611Y-4.1126
X6.1611Y-4.3571
X6.1611Y-4.4279
X6.1618Y-3.8842
X6.1618Y-3.9551
X6.1618Y-4.1992
X6.1618Y-4.2701
X6.1846Y-3.3232
X6.1846Y-3.3941
X6.1847Y-2.8508
X6.1847Y-2.9216
X6.1847Y-3.0082
X6.1847Y-3.0791
X6.1847Y-3.1661
X6.1847Y-3.237
X6.1847Y-4.0653
X6.1847Y-4.1362
X6.1847Y-4.3807
X6.1847Y-4.4515
X6.1855Y-3.9078
X6.1855Y-3.9787
X6.1855Y-4.2228
X6.1855Y-4.2937
T2
X8.0986Y-4.2667
X8.1002Y-4.1077
X8.103Y-4.1884
X8.1037Y-4.0266
X8.1037Y-4.3482
X8.1269Y-4.44
X8.1809Y-4.0691
X8.1809Y-4.1478
X8.1809Y-4.2266
X8.1809Y-4.3053
X8.1809Y-4.3841
X8.1947Y-3.9612
X8.2297Y-4.4329
X8.2809Y-4.0691
X8.2809Y-4.1478
X8.2809Y-4.2266
X8.2809Y-4.3053
X8.2809Y-4.3841
X8.3328Y-4.4314
X8.338Y-3.96
X8.351Y-3.8026
X8.3809Y-4.0691
X8.3809Y-4.1478
X8.3809Y-4.2266
X8.3809Y-4.3053
X8.3809Y-4.3841
X8.4297Y-4.4329
X8.4809Y-4.0691
X8.4809Y-4.1478
X8.4809Y-4.2266
X8.4809Y-4.3053
X8.4809Y-4.3841
X8.5222Y-4.4329
X8.5364Y-3.803
X8.5447Y-4.1844
X8.5447Y-4.2671
X8.5463Y-4.1053
X8.5463Y-4.3447
X8.5805Y-3.9652
X8.7085Y-3.7998
T3
X2.7108Y-2.7841
X2.7108Y-4.4734
X8.7774Y-2.7841
X8.7774Y-4.4734
T3
G00X3.3819Y-2.5281
M15
G01X3.3819Y-2.6463
M16
G05
G00X3.3819Y-4.6112
M15
G01X3.3819Y-4.7293
M16
G05
G00X4.563Y-2.5281
M15
G01X4.563Y-2.6463
M16
G05
G00X4.563Y-4.6112
M15
G01X4.563Y-4.7293
M16
G05
G00X5.7441Y-2.5281
M15
G01X5.7441Y-2.6463
M16
G05
G00X5.7441Y-4.6112
M15
G01X5.7441Y-4.7293
M16
G05
G00X6.9252Y-2.5281
M15
G01X6.9252Y-2.6463
M16
G05
G00X6.9252Y-4.6112
M15
G01X6.9252Y-4.7293
M16
G05
G00X8.1063Y-2.5281
M15
G01X8.1063Y-2.6463
M16
G05
G00X8.1063Y-4.6112
M15
G01X8.1063Y-4.7293
M16
G05
M30
