M48
; DRILL file {KiCad 8.0.2} date 2024-07-16T15:49:23+0200
; FORMAT={-:-/ absolute / inch / decimal}
; #@! TF.CreationDate,2024-07-16T15:49:23+02:00
; #@! TF.GenerationSoftware,Kicad,Pcbnew,8.0.2
; #@! TF.FileFunction,Plated,5,6,Blind
FMAT,2
INCH
; #@! TA.AperFunction,Plated,Buried,ViaDrill
T1C0.0079
%
G90
G05
T1
X4.7996Y-2.8515
X4.7996Y-2.9224
X4.7996Y-3.009
X4.7996Y-3.0799
X4.7996Y-3.1665
X4.7996Y-3.2374
X4.7996Y-3.3236
X4.7996Y-3.3945
X4.7996Y-3.9086
X4.7996Y-3.9795
X4.7996Y-4.0649
X4.7996Y-4.1358
X4.7996Y-4.2232
X4.7996Y-4.2941
X4.7996Y-4.3811
X4.7996Y-4.4519
X4.8233Y-2.8279
X4.8233Y-2.8988
X4.8233Y-2.9854
X4.8233Y-3.0563
X4.8233Y-3.1429
X4.8233Y-3.2138
X4.8233Y-3.3
X4.8233Y-3.3708
X4.8233Y-3.885
X4.8233Y-3.9559
X4.8233Y-4.0413
X4.8233Y-4.1122
X4.8233Y-4.1996
X4.8233Y-4.2704
X4.8233Y-4.3575
X4.8233Y-4.4283
X5.6083Y-3.2996
X5.6083Y-3.3705
X5.6083Y-2.8271
X5.6083Y-2.898
X5.6083Y-2.9846
X5.6083Y-3.0555
X5.6083Y-3.1425
X5.6083Y-3.2134
X5.6083Y-4.0417
X5.6083Y-4.1126
X5.6083Y-4.3571
X5.6083Y-4.4279
X5.6091Y-3.8842
X5.6091Y-3.9551
X5.6091Y-4.1992
X5.6091Y-4.2701
X5.6319Y-3.3232
X5.6319Y-3.3941
X5.6319Y-2.8508
X5.6319Y-2.9216
X5.6319Y-3.0082
X5.6319Y-3.0791
X5.6319Y-3.1661
X5.6319Y-3.237
X5.6319Y-4.0653
X5.6319Y-4.1362
X5.6319Y-4.3807
X5.6319Y-4.4515
X5.6327Y-3.9078
X5.6327Y-3.9787
X5.6327Y-4.2228
X5.6327Y-4.2937
X5.8563Y-2.8508
X5.8563Y-2.9216
X5.8563Y-3.0082
X5.8563Y-3.0791
X5.8563Y-3.1657
X5.8563Y-3.2366
X5.8563Y-3.3228
X5.8563Y-3.3937
X5.8563Y-3.9078
X5.8563Y-3.9787
X5.8563Y-4.0641
X5.8563Y-4.135
X5.8563Y-4.2224
X5.8563Y-4.2933
X5.8563Y-4.3803
X5.8563Y-4.4512
X5.8799Y-2.8271
X5.8799Y-2.898
X5.8799Y-2.9846
X5.8799Y-3.0555
X5.8799Y-3.1421
X5.8799Y-3.213
X5.8799Y-3.2992
X5.8799Y-3.3701
X5.8799Y-3.8842
X5.8799Y-3.9551
X5.8799Y-4.0405
X5.8799Y-4.1114
X5.8799Y-4.1988
X5.8799Y-4.2697
X5.8799Y-4.3567
X5.8799Y-4.4275
X6.6654Y-2.8279
X6.6654Y-2.8988
X6.6654Y-2.9854
X6.6654Y-3.0563
X6.6654Y-3.1429
X6.6654Y-3.2138
X6.6654Y-3.3
X6.6654Y-3.3708
X6.6654Y-3.885
X6.6654Y-3.9559
X6.6654Y-4.0413
X6.6654Y-4.1122
X6.6654Y-4.1996
X6.6654Y-4.2704
X6.6654Y-4.3575
X6.6654Y-4.4283
X6.689Y-2.8515
X6.689Y-2.9224
X6.689Y-3.009
X6.689Y-3.0799
X6.689Y-3.1665
X6.689Y-3.2374
X6.689Y-3.3236
X6.689Y-3.3945
X6.689Y-3.9086
X6.689Y-3.9795
X6.689Y-4.0649
X6.689Y-4.1358
X6.689Y-4.2232
X6.689Y-4.2941
X6.689Y-4.3811
X6.689Y-4.4519
M30
