%TF.GenerationSoftware,KiCad,Pcbnew,8.0.2*%
%TF.CreationDate,2024-07-16T15:49:33+02:00*%
%TF.ProjectId,4-MPPC_FARICH_Prototype,342d4d50-5043-45f4-9641-524943485f50,rev?*%
%TF.SameCoordinates,Original*%
%TF.FileFunction,Paste,Top*%
%TF.FilePolarity,Positive*%
%FSLAX46Y46*%
G04 Gerber Fmt 4.6, Leading zero omitted, Abs format (unit mm)*
G04 Created by KiCad (PCBNEW 8.0.2) date 2024-07-16 15:49:33*
%MOMM*%
%LPD*%
G01*
G04 APERTURE LIST*
G04 Aperture macros list*
%AMRoundRect*
0 Rectangle with rounded corners*
0 $1 Rounding radius*
0 $2 $3 $4 $5 $6 $7 $8 $9 X,Y pos of 4 corners*
0 Add a 4 corners polygon primitive as box body*
4,1,4,$2,$3,$4,$5,$6,$7,$8,$9,$2,$3,0*
0 Add four circle primitives for the rounded corners*
1,1,$1+$1,$2,$3*
1,1,$1+$1,$4,$5*
1,1,$1+$1,$6,$7*
1,1,$1+$1,$8,$9*
0 Add four rect primitives between the rounded corners*
20,1,$1+$1,$2,$3,$4,$5,0*
20,1,$1+$1,$4,$5,$6,$7,0*
20,1,$1+$1,$6,$7,$8,$9,0*
20,1,$1+$1,$8,$9,$2,$3,0*%
G04 Aperture macros list end*
%ADD10RoundRect,0.237500X-0.237500X0.250000X-0.237500X-0.250000X0.237500X-0.250000X0.237500X0.250000X0*%
%ADD11RoundRect,0.237500X0.300000X0.237500X-0.300000X0.237500X-0.300000X-0.237500X0.300000X-0.237500X0*%
%ADD12RoundRect,0.237500X0.237500X-0.250000X0.237500X0.250000X-0.237500X0.250000X-0.237500X-0.250000X0*%
%ADD13C,0.450000*%
%ADD14RoundRect,0.237500X-0.250000X-0.237500X0.250000X-0.237500X0.250000X0.237500X-0.250000X0.237500X0*%
%ADD15RoundRect,0.237500X-0.237500X0.300000X-0.237500X-0.300000X0.237500X-0.300000X0.237500X0.300000X0*%
%ADD16RoundRect,0.237500X-0.300000X-0.237500X0.300000X-0.237500X0.300000X0.237500X-0.300000X0.237500X0*%
%ADD17RoundRect,0.237500X0.237500X-0.300000X0.237500X0.300000X-0.237500X0.300000X-0.237500X-0.300000X0*%
%ADD18RoundRect,0.237500X0.250000X0.237500X-0.250000X0.237500X-0.250000X-0.237500X0.250000X-0.237500X0*%
G04 APERTURE END LIST*
D10*
%TO.C,R4*%
X178720707Y-101126793D03*
X178720707Y-102951793D03*
%TD*%
D11*
%TO.C,C2*%
X113313207Y-99549293D03*
X111588207Y-99549293D03*
%TD*%
D12*
%TO.C,R7*%
X178565707Y-83669889D03*
X178565707Y-81844889D03*
%TD*%
D13*
%TO.C,MPPC1*%
X112680000Y-92580000D03*
X112190000Y-88880000D03*
X112190000Y-93180000D03*
X111700000Y-89480000D03*
X111700000Y-92580000D03*
X111210000Y-88880000D03*
X111210000Y-93180000D03*
X110720000Y-89480000D03*
X110720000Y-92580000D03*
X110230000Y-88880000D03*
X110230000Y-93180000D03*
X109740000Y-89480000D03*
X109740000Y-92580000D03*
X109250000Y-88880000D03*
X109250000Y-93180000D03*
X108760000Y-89480000D03*
X108760000Y-92580000D03*
X108270000Y-88880000D03*
X108270000Y-93180000D03*
X107780000Y-89480000D03*
X107780000Y-92580000D03*
X107290000Y-88880000D03*
X107290000Y-93180000D03*
X106800000Y-89480000D03*
X106800000Y-92580000D03*
X106310000Y-88880000D03*
X106310000Y-93180000D03*
X105820000Y-89480000D03*
X105820000Y-92580000D03*
X105330000Y-88880000D03*
X105330000Y-93180000D03*
X104840000Y-89480000D03*
X104840000Y-92580000D03*
X104350000Y-88880000D03*
X104350000Y-93180000D03*
X103860000Y-89480000D03*
X103860000Y-92580000D03*
X103370000Y-88880000D03*
X103370000Y-93180000D03*
X102880000Y-89480000D03*
X102880000Y-92580000D03*
X102390000Y-88880000D03*
X102390000Y-93180000D03*
X101900000Y-89480000D03*
X101900000Y-92580000D03*
X101410000Y-88880000D03*
X101410000Y-93180000D03*
X100920000Y-89480000D03*
X100920000Y-92580000D03*
X100430000Y-88880000D03*
X100430000Y-93180000D03*
X99940000Y-89480000D03*
X99940000Y-92580000D03*
X99450000Y-88880000D03*
X99450000Y-93180000D03*
X98960000Y-89480000D03*
X98960000Y-92580000D03*
X98470000Y-88880000D03*
X98470000Y-93180000D03*
X97980000Y-89480000D03*
X97980000Y-92580000D03*
X97490000Y-88880000D03*
X97490000Y-93180000D03*
X97000000Y-89480000D03*
X97000000Y-92580000D03*
X96510000Y-88880000D03*
X96510000Y-93180000D03*
X96020000Y-89480000D03*
X96020000Y-92580000D03*
X95530000Y-88880000D03*
X95530000Y-93180000D03*
X95040000Y-89480000D03*
X95040000Y-92580000D03*
X94550000Y-88880000D03*
X94550000Y-93180000D03*
X94060000Y-89480000D03*
X94060000Y-92580000D03*
X93570000Y-88880000D03*
X93570000Y-93180000D03*
X93080000Y-89480000D03*
X93080000Y-92580000D03*
X92590000Y-88880000D03*
X92590000Y-93180000D03*
X92100000Y-89480000D03*
X92100000Y-92580000D03*
X91610000Y-88880000D03*
X91610000Y-93180000D03*
X91120000Y-89480000D03*
X91120000Y-92580000D03*
X90630000Y-88880000D03*
X90630000Y-93180000D03*
X90140000Y-89480000D03*
X90140000Y-92580000D03*
X89650000Y-88880000D03*
X89650000Y-93180000D03*
X89160000Y-89480000D03*
X89160000Y-92580000D03*
X88670000Y-88880000D03*
X88670000Y-93180000D03*
X88180000Y-89480000D03*
X88180000Y-92580000D03*
X87690000Y-88880000D03*
X87690000Y-93180000D03*
X87200000Y-89480000D03*
X87200000Y-92580000D03*
X86710000Y-88880000D03*
X86710000Y-93180000D03*
X86220000Y-89480000D03*
X86220000Y-92580000D03*
X85730000Y-88880000D03*
X85730000Y-93180000D03*
X85240000Y-89480000D03*
X85240000Y-92580000D03*
X84750000Y-88880000D03*
X84750000Y-93180000D03*
X84260000Y-89480000D03*
X84260000Y-92580000D03*
X83770000Y-88880000D03*
X83770000Y-93180000D03*
X83280000Y-89480000D03*
X83280000Y-92580000D03*
X82790000Y-88880000D03*
X82790000Y-93180000D03*
X82300000Y-89480000D03*
X82300000Y-92580000D03*
X81810000Y-88880000D03*
X81810000Y-93180000D03*
X81320000Y-89480000D03*
X81320000Y-92580000D03*
X81810000Y-91030000D03*
X82790000Y-91030000D03*
X83770000Y-91030000D03*
X84750000Y-91030000D03*
X85730000Y-91030000D03*
X86710000Y-91030000D03*
X87690000Y-91030000D03*
X88670000Y-91030000D03*
X89650000Y-91030000D03*
X90630000Y-91030000D03*
X91610000Y-91030000D03*
X92590000Y-91030000D03*
X93570000Y-91030000D03*
X94550000Y-91030000D03*
X95530000Y-91030000D03*
X96510000Y-91030000D03*
X97490000Y-91030000D03*
X98470000Y-91030000D03*
X99450000Y-91030000D03*
X100430000Y-91030000D03*
X101410000Y-91030000D03*
X102390000Y-91030000D03*
X103370000Y-91030000D03*
X104350000Y-91030000D03*
X105330000Y-91030000D03*
X106310000Y-91030000D03*
X107290000Y-91030000D03*
X108270000Y-91030000D03*
X109250000Y-91030000D03*
X110230000Y-91030000D03*
X111210000Y-91030000D03*
X112190000Y-91030000D03*
X112680000Y-89480000D03*
%TD*%
%TO.C,MPPC4*%
X210480000Y-92580000D03*
X209990000Y-88880000D03*
X209990000Y-93180000D03*
X209500000Y-89480000D03*
X209500000Y-92580000D03*
X209010000Y-88880000D03*
X209010000Y-93180000D03*
X208520000Y-89480000D03*
X208520000Y-92580000D03*
X208030000Y-88880000D03*
X208030000Y-93180000D03*
X207540000Y-89480000D03*
X207540000Y-92580000D03*
X207050000Y-88880000D03*
X207050000Y-93180000D03*
X206560000Y-89480000D03*
X206560000Y-92580000D03*
X206070000Y-88880000D03*
X206070000Y-93180000D03*
X205580000Y-89480000D03*
X205580000Y-92580000D03*
X205090000Y-88880000D03*
X205090000Y-93180000D03*
X204600000Y-89480000D03*
X204600000Y-92580000D03*
X204110000Y-88880000D03*
X204110000Y-93180000D03*
X203620000Y-89480000D03*
X203620000Y-92580000D03*
X203130000Y-88880000D03*
X203130000Y-93180000D03*
X202640000Y-89480000D03*
X202640000Y-92580000D03*
X202150000Y-88880000D03*
X202150000Y-93180000D03*
X201660000Y-89480000D03*
X201660000Y-92580000D03*
X201170000Y-88880000D03*
X201170000Y-93180000D03*
X200680000Y-89480000D03*
X200680000Y-92580000D03*
X200190000Y-88880000D03*
X200190000Y-93180000D03*
X199700000Y-89480000D03*
X199700000Y-92580000D03*
X199210000Y-88880000D03*
X199210000Y-93180000D03*
X198720000Y-89480000D03*
X198720000Y-92580000D03*
X198230000Y-88880000D03*
X198230000Y-93180000D03*
X197740000Y-89480000D03*
X197740000Y-92580000D03*
X197250000Y-88880000D03*
X197250000Y-93180000D03*
X196760000Y-89480000D03*
X196760000Y-92580000D03*
X196270000Y-88880000D03*
X196270000Y-93180000D03*
X195780000Y-89480000D03*
X195780000Y-92580000D03*
X195290000Y-88880000D03*
X195290000Y-93180000D03*
X194800000Y-89480000D03*
X194800000Y-92580000D03*
X194310000Y-88880000D03*
X194310000Y-93180000D03*
X193820000Y-89480000D03*
X193820000Y-92580000D03*
X193330000Y-88880000D03*
X193330000Y-93180000D03*
X192840000Y-89480000D03*
X192840000Y-92580000D03*
X192350000Y-88880000D03*
X192350000Y-93180000D03*
X191860000Y-89480000D03*
X191860000Y-92580000D03*
X191370000Y-88880000D03*
X191370000Y-93180000D03*
X190880000Y-89480000D03*
X190880000Y-92580000D03*
X190390000Y-88880000D03*
X190390000Y-93180000D03*
X189900000Y-89480000D03*
X189900000Y-92580000D03*
X189410000Y-88880000D03*
X189410000Y-93180000D03*
X188920000Y-89480000D03*
X188920000Y-92580000D03*
X188430000Y-88880000D03*
X188430000Y-93180000D03*
X187940000Y-89480000D03*
X187940000Y-92580000D03*
X187450000Y-88880000D03*
X187450000Y-93180000D03*
X186960000Y-89480000D03*
X186960000Y-92580000D03*
X186470000Y-88880000D03*
X186470000Y-93180000D03*
X185980000Y-89480000D03*
X185980000Y-92580000D03*
X185490000Y-88880000D03*
X185490000Y-93180000D03*
X185000000Y-89480000D03*
X185000000Y-92580000D03*
X184510000Y-88880000D03*
X184510000Y-93180000D03*
X184020000Y-89480000D03*
X184020000Y-92580000D03*
X183530000Y-88880000D03*
X183530000Y-93180000D03*
X183040000Y-89480000D03*
X183040000Y-92580000D03*
X182550000Y-88880000D03*
X182550000Y-93180000D03*
X182060000Y-89480000D03*
X182060000Y-92580000D03*
X181570000Y-88880000D03*
X181570000Y-93180000D03*
X181080000Y-89480000D03*
X181080000Y-92580000D03*
X180590000Y-88880000D03*
X180590000Y-93180000D03*
X180100000Y-89480000D03*
X180100000Y-92580000D03*
X179610000Y-88880000D03*
X179610000Y-93180000D03*
X179120000Y-89480000D03*
X179120000Y-92580000D03*
X179610000Y-91030000D03*
X180590000Y-91030000D03*
X181570000Y-91030000D03*
X182550000Y-91030000D03*
X183530000Y-91030000D03*
X184510000Y-91030000D03*
X185490000Y-91030000D03*
X186470000Y-91030000D03*
X187450000Y-91030000D03*
X188430000Y-91030000D03*
X189410000Y-91030000D03*
X190390000Y-91030000D03*
X191370000Y-91030000D03*
X192350000Y-91030000D03*
X193330000Y-91030000D03*
X194310000Y-91030000D03*
X195290000Y-91030000D03*
X196270000Y-91030000D03*
X197250000Y-91030000D03*
X198230000Y-91030000D03*
X199210000Y-91030000D03*
X200190000Y-91030000D03*
X201170000Y-91030000D03*
X202150000Y-91030000D03*
X203130000Y-91030000D03*
X204110000Y-91030000D03*
X205090000Y-91030000D03*
X206070000Y-91030000D03*
X207050000Y-91030000D03*
X208030000Y-91030000D03*
X209010000Y-91030000D03*
X209990000Y-91030000D03*
X210480000Y-89480000D03*
%TD*%
D10*
%TO.C,R3*%
X145830707Y-101101793D03*
X145830707Y-102926793D03*
%TD*%
D14*
%TO.C,R8*%
X215805707Y-89439293D03*
X217630707Y-89439293D03*
%TD*%
D15*
%TO.C,C8*%
X214118207Y-89496793D03*
X214118207Y-91221793D03*
%TD*%
D16*
%TO.C,C6*%
X145896457Y-85399888D03*
X147621457Y-85399888D03*
%TD*%
%TO.C,C4*%
X178778207Y-99439293D03*
X180503207Y-99439293D03*
%TD*%
D12*
%TO.C,R1*%
X113358957Y-83539888D03*
X113358957Y-81714888D03*
%TD*%
D17*
%TO.C,C5*%
X77850707Y-92571793D03*
X77850707Y-90846793D03*
%TD*%
D11*
%TO.C,C1*%
X113301457Y-85227388D03*
X111576457Y-85227388D03*
%TD*%
D16*
%TO.C,C7*%
X178625707Y-85247389D03*
X180350707Y-85247389D03*
%TD*%
D12*
%TO.C,R6*%
X145838957Y-83712388D03*
X145838957Y-81887388D03*
%TD*%
D13*
%TO.C,MPPC3*%
X177880000Y-92580000D03*
X177390000Y-88880000D03*
X177390000Y-93180000D03*
X176900000Y-89480000D03*
X176900000Y-92580000D03*
X176410000Y-88880000D03*
X176410000Y-93180000D03*
X175920000Y-89480000D03*
X175920000Y-92580000D03*
X175430000Y-88880000D03*
X175430000Y-93180000D03*
X174940000Y-89480000D03*
X174940000Y-92580000D03*
X174450000Y-88880000D03*
X174450000Y-93180000D03*
X173960000Y-89480000D03*
X173960000Y-92580000D03*
X173470000Y-88880000D03*
X173470000Y-93180000D03*
X172980000Y-89480000D03*
X172980000Y-92580000D03*
X172490000Y-88880000D03*
X172490000Y-93180000D03*
X172000000Y-89480000D03*
X172000000Y-92580000D03*
X171510000Y-88880000D03*
X171510000Y-93180000D03*
X171020000Y-89480000D03*
X171020000Y-92580000D03*
X170530000Y-88880000D03*
X170530000Y-93180000D03*
X170040000Y-89480000D03*
X170040000Y-92580000D03*
X169550000Y-88880000D03*
X169550000Y-93180000D03*
X169060000Y-89480000D03*
X169060000Y-92580000D03*
X168570000Y-88880000D03*
X168570000Y-93180000D03*
X168080000Y-89480000D03*
X168080000Y-92580000D03*
X167590000Y-88880000D03*
X167590000Y-93180000D03*
X167100000Y-89480000D03*
X167100000Y-92580000D03*
X166610000Y-88880000D03*
X166610000Y-93180000D03*
X166120000Y-89480000D03*
X166120000Y-92580000D03*
X165630000Y-88880000D03*
X165630000Y-93180000D03*
X165140000Y-89480000D03*
X165140000Y-92580000D03*
X164650000Y-88880000D03*
X164650000Y-93180000D03*
X164160000Y-89480000D03*
X164160000Y-92580000D03*
X163670000Y-88880000D03*
X163670000Y-93180000D03*
X163180000Y-89480000D03*
X163180000Y-92580000D03*
X162690000Y-88880000D03*
X162690000Y-93180000D03*
X162200000Y-89480000D03*
X162200000Y-92580000D03*
X161710000Y-88880000D03*
X161710000Y-93180000D03*
X161220000Y-89480000D03*
X161220000Y-92580000D03*
X160730000Y-88880000D03*
X160730000Y-93180000D03*
X160240000Y-89480000D03*
X160240000Y-92580000D03*
X159750000Y-88880000D03*
X159750000Y-93180000D03*
X159260000Y-89480000D03*
X159260000Y-92580000D03*
X158770000Y-88880000D03*
X158770000Y-93180000D03*
X158280000Y-89480000D03*
X158280000Y-92580000D03*
X157790000Y-88880000D03*
X157790000Y-93180000D03*
X157300000Y-89480000D03*
X157300000Y-92580000D03*
X156810000Y-88880000D03*
X156810000Y-93180000D03*
X156320000Y-89480000D03*
X156320000Y-92580000D03*
X155830000Y-88880000D03*
X155830000Y-93180000D03*
X155340000Y-89480000D03*
X155340000Y-92580000D03*
X154850000Y-88880000D03*
X154850000Y-93180000D03*
X154360000Y-89480000D03*
X154360000Y-92580000D03*
X153870000Y-88880000D03*
X153870000Y-93180000D03*
X153380000Y-89480000D03*
X153380000Y-92580000D03*
X152890000Y-88880000D03*
X152890000Y-93180000D03*
X152400000Y-89480000D03*
X152400000Y-92580000D03*
X151910000Y-88880000D03*
X151910000Y-93180000D03*
X151420000Y-89480000D03*
X151420000Y-92580000D03*
X150930000Y-88880000D03*
X150930000Y-93180000D03*
X150440000Y-89480000D03*
X150440000Y-92580000D03*
X149950000Y-88880000D03*
X149950000Y-93180000D03*
X149460000Y-89480000D03*
X149460000Y-92580000D03*
X148970000Y-88880000D03*
X148970000Y-93180000D03*
X148480000Y-89480000D03*
X148480000Y-92580000D03*
X147990000Y-88880000D03*
X147990000Y-93180000D03*
X147500000Y-89480000D03*
X147500000Y-92580000D03*
X147010000Y-88880000D03*
X147010000Y-93180000D03*
X146520000Y-89480000D03*
X146520000Y-92580000D03*
X147010000Y-91030000D03*
X147990000Y-91030000D03*
X148970000Y-91030000D03*
X149950000Y-91030000D03*
X150930000Y-91030000D03*
X151910000Y-91030000D03*
X152890000Y-91030000D03*
X153870000Y-91030000D03*
X154850000Y-91030000D03*
X155830000Y-91030000D03*
X156810000Y-91030000D03*
X157790000Y-91030000D03*
X158770000Y-91030000D03*
X159750000Y-91030000D03*
X160730000Y-91030000D03*
X161710000Y-91030000D03*
X162690000Y-91030000D03*
X163670000Y-91030000D03*
X164650000Y-91030000D03*
X165630000Y-91030000D03*
X166610000Y-91030000D03*
X167590000Y-91030000D03*
X168570000Y-91030000D03*
X169550000Y-91030000D03*
X170530000Y-91030000D03*
X171510000Y-91030000D03*
X172490000Y-91030000D03*
X173470000Y-91030000D03*
X174450000Y-91030000D03*
X175430000Y-91030000D03*
X176410000Y-91030000D03*
X177390000Y-91030000D03*
X177880000Y-89480000D03*
%TD*%
D18*
%TO.C,R5*%
X76163207Y-92629293D03*
X74338207Y-92629293D03*
%TD*%
D10*
%TO.C,R2*%
X113370707Y-101236793D03*
X113370707Y-103061793D03*
%TD*%
D16*
%TO.C,C3*%
X145888207Y-99414293D03*
X147613207Y-99414293D03*
%TD*%
D13*
%TO.C,MPPC2*%
X145280000Y-92580000D03*
X144790000Y-88880000D03*
X144790000Y-93180000D03*
X144300000Y-89480000D03*
X144300000Y-92580000D03*
X143810000Y-88880000D03*
X143810000Y-93180000D03*
X143320000Y-89480000D03*
X143320000Y-92580000D03*
X142830000Y-88880000D03*
X142830000Y-93180000D03*
X142340000Y-89480000D03*
X142340000Y-92580000D03*
X141850000Y-88880000D03*
X141850000Y-93180000D03*
X141360000Y-89480000D03*
X141360000Y-92580000D03*
X140870000Y-88880000D03*
X140870000Y-93180000D03*
X140380000Y-89480000D03*
X140380000Y-92580000D03*
X139890000Y-88880000D03*
X139890000Y-93180000D03*
X139400000Y-89480000D03*
X139400000Y-92580000D03*
X138910000Y-88880000D03*
X138910000Y-93180000D03*
X138420000Y-89480000D03*
X138420000Y-92580000D03*
X137930000Y-88880000D03*
X137930000Y-93180000D03*
X137440000Y-89480000D03*
X137440000Y-92580000D03*
X136950000Y-88880000D03*
X136950000Y-93180000D03*
X136460000Y-89480000D03*
X136460000Y-92580000D03*
X135970000Y-88880000D03*
X135970000Y-93180000D03*
X135480000Y-89480000D03*
X135480000Y-92580000D03*
X134990000Y-88880000D03*
X134990000Y-93180000D03*
X134500000Y-89480000D03*
X134500000Y-92580000D03*
X134010000Y-88880000D03*
X134010000Y-93180000D03*
X133520000Y-89480000D03*
X133520000Y-92580000D03*
X133030000Y-88880000D03*
X133030000Y-93180000D03*
X132540000Y-89480000D03*
X132540000Y-92580000D03*
X132050000Y-88880000D03*
X132050000Y-93180000D03*
X131560000Y-89480000D03*
X131560000Y-92580000D03*
X131070000Y-88880000D03*
X131070000Y-93180000D03*
X130580000Y-89480000D03*
X130580000Y-92580000D03*
X130090000Y-88880000D03*
X130090000Y-93180000D03*
X129600000Y-89480000D03*
X129600000Y-92580000D03*
X129110000Y-88880000D03*
X129110000Y-93180000D03*
X128620000Y-89480000D03*
X128620000Y-92580000D03*
X128130000Y-88880000D03*
X128130000Y-93180000D03*
X127640000Y-89480000D03*
X127640000Y-92580000D03*
X127150000Y-88880000D03*
X127150000Y-93180000D03*
X126660000Y-89480000D03*
X126660000Y-92580000D03*
X126170000Y-88880000D03*
X126170000Y-93180000D03*
X125680000Y-89480000D03*
X125680000Y-92580000D03*
X125190000Y-88880000D03*
X125190000Y-93180000D03*
X124700000Y-89480000D03*
X124700000Y-92580000D03*
X124210000Y-88880000D03*
X124210000Y-93180000D03*
X123720000Y-89480000D03*
X123720000Y-92580000D03*
X123230000Y-88880000D03*
X123230000Y-93180000D03*
X122740000Y-89480000D03*
X122740000Y-92580000D03*
X122250000Y-88880000D03*
X122250000Y-93180000D03*
X121760000Y-89480000D03*
X121760000Y-92580000D03*
X121270000Y-88880000D03*
X121270000Y-93180000D03*
X120780000Y-89480000D03*
X120780000Y-92580000D03*
X120290000Y-88880000D03*
X120290000Y-93180000D03*
X119800000Y-89480000D03*
X119800000Y-92580000D03*
X119310000Y-88880000D03*
X119310000Y-93180000D03*
X118820000Y-89480000D03*
X118820000Y-92580000D03*
X118330000Y-88880000D03*
X118330000Y-93180000D03*
X117840000Y-89480000D03*
X117840000Y-92580000D03*
X117350000Y-88880000D03*
X117350000Y-93180000D03*
X116860000Y-89480000D03*
X116860000Y-92580000D03*
X116370000Y-88880000D03*
X116370000Y-93180000D03*
X115880000Y-89480000D03*
X115880000Y-92580000D03*
X115390000Y-88880000D03*
X115390000Y-93180000D03*
X114900000Y-89480000D03*
X114900000Y-92580000D03*
X114410000Y-88880000D03*
X114410000Y-93180000D03*
X113920000Y-89480000D03*
X113920000Y-92580000D03*
X114410000Y-91030000D03*
X115390000Y-91030000D03*
X116370000Y-91030000D03*
X117350000Y-91030000D03*
X118330000Y-91030000D03*
X119310000Y-91030000D03*
X120290000Y-91030000D03*
X121270000Y-91030000D03*
X122250000Y-91030000D03*
X123230000Y-91030000D03*
X124210000Y-91030000D03*
X125190000Y-91030000D03*
X126170000Y-91030000D03*
X127150000Y-91030000D03*
X128130000Y-91030000D03*
X129110000Y-91030000D03*
X130090000Y-91030000D03*
X131070000Y-91030000D03*
X132050000Y-91030000D03*
X133030000Y-91030000D03*
X134010000Y-91030000D03*
X134990000Y-91030000D03*
X135970000Y-91030000D03*
X136950000Y-91030000D03*
X137930000Y-91030000D03*
X138910000Y-91030000D03*
X139890000Y-91030000D03*
X140870000Y-91030000D03*
X141850000Y-91030000D03*
X142830000Y-91030000D03*
X143810000Y-91030000D03*
X144790000Y-91030000D03*
X145280000Y-89480000D03*
%TD*%
M02*
