%TF.GenerationSoftware,KiCad,Pcbnew,8.0.2*%
%TF.CreationDate,2024-07-16T15:49:33+02:00*%
%TF.ProjectId,4-MPPC_FARICH_Prototype,342d4d50-5043-45f4-9641-524943485f50,rev?*%
%TF.SameCoordinates,Original*%
%TF.FileFunction,Legend,Top*%
%TF.FilePolarity,Positive*%
%FSLAX46Y46*%
G04 Gerber Fmt 4.6, Leading zero omitted, Abs format (unit mm)*
G04 Created by KiCad (PCBNEW 8.0.2) date 2024-07-16 15:49:33*
%MOMM*%
%LPD*%
G01*
G04 APERTURE LIST*
%ADD10C,0.158750*%
%ADD11C,0.150000*%
%ADD12C,0.100000*%
%ADD13C,0.120000*%
%ADD14C,0.300000*%
G04 APERTURE END LIST*
D10*
X205476666Y-117934271D02*
X206262857Y-117934271D01*
X206262857Y-117934271D02*
X205839523Y-118418080D01*
X205839523Y-118418080D02*
X206020952Y-118418080D01*
X206020952Y-118418080D02*
X206141904Y-118478556D01*
X206141904Y-118478556D02*
X206202380Y-118539033D01*
X206202380Y-118539033D02*
X206262857Y-118659985D01*
X206262857Y-118659985D02*
X206262857Y-118962366D01*
X206262857Y-118962366D02*
X206202380Y-119083318D01*
X206202380Y-119083318D02*
X206141904Y-119143795D01*
X206141904Y-119143795D02*
X206020952Y-119204271D01*
X206020952Y-119204271D02*
X205658095Y-119204271D01*
X205658095Y-119204271D02*
X205537142Y-119143795D01*
X205537142Y-119143795D02*
X205476666Y-119083318D01*
X116141904Y-65024271D02*
X115899999Y-65024271D01*
X115899999Y-65024271D02*
X115779047Y-65084747D01*
X115779047Y-65084747D02*
X115718571Y-65145223D01*
X115718571Y-65145223D02*
X115597618Y-65326652D01*
X115597618Y-65326652D02*
X115537142Y-65568556D01*
X115537142Y-65568556D02*
X115537142Y-66052366D01*
X115537142Y-66052366D02*
X115597618Y-66173318D01*
X115597618Y-66173318D02*
X115658095Y-66233795D01*
X115658095Y-66233795D02*
X115779047Y-66294271D01*
X115779047Y-66294271D02*
X116020952Y-66294271D01*
X116020952Y-66294271D02*
X116141904Y-66233795D01*
X116141904Y-66233795D02*
X116202380Y-66173318D01*
X116202380Y-66173318D02*
X116262857Y-66052366D01*
X116262857Y-66052366D02*
X116262857Y-65749985D01*
X116262857Y-65749985D02*
X116202380Y-65629033D01*
X116202380Y-65629033D02*
X116141904Y-65568556D01*
X116141904Y-65568556D02*
X116020952Y-65508080D01*
X116020952Y-65508080D02*
X115779047Y-65508080D01*
X115779047Y-65508080D02*
X115658095Y-65568556D01*
X115658095Y-65568556D02*
X115597618Y-65629033D01*
X115597618Y-65629033D02*
X115537142Y-65749985D01*
D11*
X179115526Y-105005959D02*
X178639335Y-105339292D01*
X179115526Y-105577387D02*
X178115526Y-105577387D01*
X178115526Y-105577387D02*
X178115526Y-105196435D01*
X178115526Y-105196435D02*
X178163145Y-105101197D01*
X178163145Y-105101197D02*
X178210764Y-105053578D01*
X178210764Y-105053578D02*
X178306002Y-105005959D01*
X178306002Y-105005959D02*
X178448859Y-105005959D01*
X178448859Y-105005959D02*
X178544097Y-105053578D01*
X178544097Y-105053578D02*
X178591716Y-105101197D01*
X178591716Y-105101197D02*
X178639335Y-105196435D01*
X178639335Y-105196435D02*
X178639335Y-105577387D01*
X178448859Y-104148816D02*
X179115526Y-104148816D01*
X178067907Y-104386911D02*
X178782192Y-104625006D01*
X178782192Y-104625006D02*
X178782192Y-104005959D01*
X109614040Y-99948873D02*
X109566421Y-99996493D01*
X109566421Y-99996493D02*
X109423564Y-100044112D01*
X109423564Y-100044112D02*
X109328326Y-100044112D01*
X109328326Y-100044112D02*
X109185469Y-99996493D01*
X109185469Y-99996493D02*
X109090231Y-99901254D01*
X109090231Y-99901254D02*
X109042612Y-99806016D01*
X109042612Y-99806016D02*
X108994993Y-99615540D01*
X108994993Y-99615540D02*
X108994993Y-99472683D01*
X108994993Y-99472683D02*
X109042612Y-99282207D01*
X109042612Y-99282207D02*
X109090231Y-99186969D01*
X109090231Y-99186969D02*
X109185469Y-99091731D01*
X109185469Y-99091731D02*
X109328326Y-99044112D01*
X109328326Y-99044112D02*
X109423564Y-99044112D01*
X109423564Y-99044112D02*
X109566421Y-99091731D01*
X109566421Y-99091731D02*
X109614040Y-99139350D01*
X109994993Y-99139350D02*
X110042612Y-99091731D01*
X110042612Y-99091731D02*
X110137850Y-99044112D01*
X110137850Y-99044112D02*
X110375945Y-99044112D01*
X110375945Y-99044112D02*
X110471183Y-99091731D01*
X110471183Y-99091731D02*
X110518802Y-99139350D01*
X110518802Y-99139350D02*
X110566421Y-99234588D01*
X110566421Y-99234588D02*
X110566421Y-99329826D01*
X110566421Y-99329826D02*
X110518802Y-99472683D01*
X110518802Y-99472683D02*
X109947374Y-100044112D01*
X109947374Y-100044112D02*
X110566421Y-100044112D01*
X179023026Y-80054055D02*
X178546835Y-80387388D01*
X179023026Y-80625483D02*
X178023026Y-80625483D01*
X178023026Y-80625483D02*
X178023026Y-80244531D01*
X178023026Y-80244531D02*
X178070645Y-80149293D01*
X178070645Y-80149293D02*
X178118264Y-80101674D01*
X178118264Y-80101674D02*
X178213502Y-80054055D01*
X178213502Y-80054055D02*
X178356359Y-80054055D01*
X178356359Y-80054055D02*
X178451597Y-80101674D01*
X178451597Y-80101674D02*
X178499216Y-80149293D01*
X178499216Y-80149293D02*
X178546835Y-80244531D01*
X178546835Y-80244531D02*
X178546835Y-80625483D01*
X178023026Y-79720721D02*
X178023026Y-79054055D01*
X178023026Y-79054055D02*
X179023026Y-79482626D01*
D12*
X94690476Y-87687419D02*
X94690476Y-86687419D01*
X94690476Y-86687419D02*
X95023809Y-87401704D01*
X95023809Y-87401704D02*
X95357142Y-86687419D01*
X95357142Y-86687419D02*
X95357142Y-87687419D01*
X95833333Y-87687419D02*
X95833333Y-86687419D01*
X95833333Y-86687419D02*
X96214285Y-86687419D01*
X96214285Y-86687419D02*
X96309523Y-86735038D01*
X96309523Y-86735038D02*
X96357142Y-86782657D01*
X96357142Y-86782657D02*
X96404761Y-86877895D01*
X96404761Y-86877895D02*
X96404761Y-87020752D01*
X96404761Y-87020752D02*
X96357142Y-87115990D01*
X96357142Y-87115990D02*
X96309523Y-87163609D01*
X96309523Y-87163609D02*
X96214285Y-87211228D01*
X96214285Y-87211228D02*
X95833333Y-87211228D01*
X96833333Y-87687419D02*
X96833333Y-86687419D01*
X96833333Y-86687419D02*
X97214285Y-86687419D01*
X97214285Y-86687419D02*
X97309523Y-86735038D01*
X97309523Y-86735038D02*
X97357142Y-86782657D01*
X97357142Y-86782657D02*
X97404761Y-86877895D01*
X97404761Y-86877895D02*
X97404761Y-87020752D01*
X97404761Y-87020752D02*
X97357142Y-87115990D01*
X97357142Y-87115990D02*
X97309523Y-87163609D01*
X97309523Y-87163609D02*
X97214285Y-87211228D01*
X97214285Y-87211228D02*
X96833333Y-87211228D01*
X98404761Y-87592180D02*
X98357142Y-87639800D01*
X98357142Y-87639800D02*
X98214285Y-87687419D01*
X98214285Y-87687419D02*
X98119047Y-87687419D01*
X98119047Y-87687419D02*
X97976190Y-87639800D01*
X97976190Y-87639800D02*
X97880952Y-87544561D01*
X97880952Y-87544561D02*
X97833333Y-87449323D01*
X97833333Y-87449323D02*
X97785714Y-87258847D01*
X97785714Y-87258847D02*
X97785714Y-87115990D01*
X97785714Y-87115990D02*
X97833333Y-86925514D01*
X97833333Y-86925514D02*
X97880952Y-86830276D01*
X97880952Y-86830276D02*
X97976190Y-86735038D01*
X97976190Y-86735038D02*
X98119047Y-86687419D01*
X98119047Y-86687419D02*
X98214285Y-86687419D01*
X98214285Y-86687419D02*
X98357142Y-86735038D01*
X98357142Y-86735038D02*
X98404761Y-86782657D01*
X99357142Y-87687419D02*
X98785714Y-87687419D01*
X99071428Y-87687419D02*
X99071428Y-86687419D01*
X99071428Y-86687419D02*
X98976190Y-86830276D01*
X98976190Y-86830276D02*
X98880952Y-86925514D01*
X98880952Y-86925514D02*
X98785714Y-86973133D01*
D10*
X85779047Y-65568556D02*
X85658095Y-65508080D01*
X85658095Y-65508080D02*
X85597618Y-65447604D01*
X85597618Y-65447604D02*
X85537142Y-65326652D01*
X85537142Y-65326652D02*
X85537142Y-65266175D01*
X85537142Y-65266175D02*
X85597618Y-65145223D01*
X85597618Y-65145223D02*
X85658095Y-65084747D01*
X85658095Y-65084747D02*
X85779047Y-65024271D01*
X85779047Y-65024271D02*
X86020952Y-65024271D01*
X86020952Y-65024271D02*
X86141904Y-65084747D01*
X86141904Y-65084747D02*
X86202380Y-65145223D01*
X86202380Y-65145223D02*
X86262857Y-65266175D01*
X86262857Y-65266175D02*
X86262857Y-65326652D01*
X86262857Y-65326652D02*
X86202380Y-65447604D01*
X86202380Y-65447604D02*
X86141904Y-65508080D01*
X86141904Y-65508080D02*
X86020952Y-65568556D01*
X86020952Y-65568556D02*
X85779047Y-65568556D01*
X85779047Y-65568556D02*
X85658095Y-65629033D01*
X85658095Y-65629033D02*
X85597618Y-65689509D01*
X85597618Y-65689509D02*
X85537142Y-65810461D01*
X85537142Y-65810461D02*
X85537142Y-66052366D01*
X85537142Y-66052366D02*
X85597618Y-66173318D01*
X85597618Y-66173318D02*
X85658095Y-66233795D01*
X85658095Y-66233795D02*
X85779047Y-66294271D01*
X85779047Y-66294271D02*
X86020952Y-66294271D01*
X86020952Y-66294271D02*
X86141904Y-66233795D01*
X86141904Y-66233795D02*
X86202380Y-66173318D01*
X86202380Y-66173318D02*
X86262857Y-66052366D01*
X86262857Y-66052366D02*
X86262857Y-65810461D01*
X86262857Y-65810461D02*
X86202380Y-65689509D01*
X86202380Y-65689509D02*
X86141904Y-65629033D01*
X86141904Y-65629033D02*
X86020952Y-65568556D01*
D12*
X192490476Y-87687419D02*
X192490476Y-86687419D01*
X192490476Y-86687419D02*
X192823809Y-87401704D01*
X192823809Y-87401704D02*
X193157142Y-86687419D01*
X193157142Y-86687419D02*
X193157142Y-87687419D01*
X193633333Y-87687419D02*
X193633333Y-86687419D01*
X193633333Y-86687419D02*
X194014285Y-86687419D01*
X194014285Y-86687419D02*
X194109523Y-86735038D01*
X194109523Y-86735038D02*
X194157142Y-86782657D01*
X194157142Y-86782657D02*
X194204761Y-86877895D01*
X194204761Y-86877895D02*
X194204761Y-87020752D01*
X194204761Y-87020752D02*
X194157142Y-87115990D01*
X194157142Y-87115990D02*
X194109523Y-87163609D01*
X194109523Y-87163609D02*
X194014285Y-87211228D01*
X194014285Y-87211228D02*
X193633333Y-87211228D01*
X194633333Y-87687419D02*
X194633333Y-86687419D01*
X194633333Y-86687419D02*
X195014285Y-86687419D01*
X195014285Y-86687419D02*
X195109523Y-86735038D01*
X195109523Y-86735038D02*
X195157142Y-86782657D01*
X195157142Y-86782657D02*
X195204761Y-86877895D01*
X195204761Y-86877895D02*
X195204761Y-87020752D01*
X195204761Y-87020752D02*
X195157142Y-87115990D01*
X195157142Y-87115990D02*
X195109523Y-87163609D01*
X195109523Y-87163609D02*
X195014285Y-87211228D01*
X195014285Y-87211228D02*
X194633333Y-87211228D01*
X196204761Y-87592180D02*
X196157142Y-87639800D01*
X196157142Y-87639800D02*
X196014285Y-87687419D01*
X196014285Y-87687419D02*
X195919047Y-87687419D01*
X195919047Y-87687419D02*
X195776190Y-87639800D01*
X195776190Y-87639800D02*
X195680952Y-87544561D01*
X195680952Y-87544561D02*
X195633333Y-87449323D01*
X195633333Y-87449323D02*
X195585714Y-87258847D01*
X195585714Y-87258847D02*
X195585714Y-87115990D01*
X195585714Y-87115990D02*
X195633333Y-86925514D01*
X195633333Y-86925514D02*
X195680952Y-86830276D01*
X195680952Y-86830276D02*
X195776190Y-86735038D01*
X195776190Y-86735038D02*
X195919047Y-86687419D01*
X195919047Y-86687419D02*
X196014285Y-86687419D01*
X196014285Y-86687419D02*
X196157142Y-86735038D01*
X196157142Y-86735038D02*
X196204761Y-86782657D01*
X197061904Y-87020752D02*
X197061904Y-87687419D01*
X196823809Y-86639800D02*
X196585714Y-87354085D01*
X196585714Y-87354085D02*
X197204761Y-87354085D01*
D11*
X146335526Y-105040959D02*
X145859335Y-105374292D01*
X146335526Y-105612387D02*
X145335526Y-105612387D01*
X145335526Y-105612387D02*
X145335526Y-105231435D01*
X145335526Y-105231435D02*
X145383145Y-105136197D01*
X145383145Y-105136197D02*
X145430764Y-105088578D01*
X145430764Y-105088578D02*
X145526002Y-105040959D01*
X145526002Y-105040959D02*
X145668859Y-105040959D01*
X145668859Y-105040959D02*
X145764097Y-105088578D01*
X145764097Y-105088578D02*
X145811716Y-105136197D01*
X145811716Y-105136197D02*
X145859335Y-105231435D01*
X145859335Y-105231435D02*
X145859335Y-105612387D01*
X145335526Y-104707625D02*
X145335526Y-104088578D01*
X145335526Y-104088578D02*
X145716478Y-104421911D01*
X145716478Y-104421911D02*
X145716478Y-104279054D01*
X145716478Y-104279054D02*
X145764097Y-104183816D01*
X145764097Y-104183816D02*
X145811716Y-104136197D01*
X145811716Y-104136197D02*
X145906954Y-104088578D01*
X145906954Y-104088578D02*
X146145049Y-104088578D01*
X146145049Y-104088578D02*
X146240287Y-104136197D01*
X146240287Y-104136197D02*
X146287907Y-104183816D01*
X146287907Y-104183816D02*
X146335526Y-104279054D01*
X146335526Y-104279054D02*
X146335526Y-104564768D01*
X146335526Y-104564768D02*
X146287907Y-104660006D01*
X146287907Y-104660006D02*
X146240287Y-104707625D01*
X216541540Y-91564112D02*
X216208207Y-91087921D01*
X215970112Y-91564112D02*
X215970112Y-90564112D01*
X215970112Y-90564112D02*
X216351064Y-90564112D01*
X216351064Y-90564112D02*
X216446302Y-90611731D01*
X216446302Y-90611731D02*
X216493921Y-90659350D01*
X216493921Y-90659350D02*
X216541540Y-90754588D01*
X216541540Y-90754588D02*
X216541540Y-90897445D01*
X216541540Y-90897445D02*
X216493921Y-90992683D01*
X216493921Y-90992683D02*
X216446302Y-91040302D01*
X216446302Y-91040302D02*
X216351064Y-91087921D01*
X216351064Y-91087921D02*
X215970112Y-91087921D01*
X217112969Y-90992683D02*
X217017731Y-90945064D01*
X217017731Y-90945064D02*
X216970112Y-90897445D01*
X216970112Y-90897445D02*
X216922493Y-90802207D01*
X216922493Y-90802207D02*
X216922493Y-90754588D01*
X216922493Y-90754588D02*
X216970112Y-90659350D01*
X216970112Y-90659350D02*
X217017731Y-90611731D01*
X217017731Y-90611731D02*
X217112969Y-90564112D01*
X217112969Y-90564112D02*
X217303445Y-90564112D01*
X217303445Y-90564112D02*
X217398683Y-90611731D01*
X217398683Y-90611731D02*
X217446302Y-90659350D01*
X217446302Y-90659350D02*
X217493921Y-90754588D01*
X217493921Y-90754588D02*
X217493921Y-90802207D01*
X217493921Y-90802207D02*
X217446302Y-90897445D01*
X217446302Y-90897445D02*
X217398683Y-90945064D01*
X217398683Y-90945064D02*
X217303445Y-90992683D01*
X217303445Y-90992683D02*
X217112969Y-90992683D01*
X217112969Y-90992683D02*
X217017731Y-91040302D01*
X217017731Y-91040302D02*
X216970112Y-91087921D01*
X216970112Y-91087921D02*
X216922493Y-91183159D01*
X216922493Y-91183159D02*
X216922493Y-91373635D01*
X216922493Y-91373635D02*
X216970112Y-91468873D01*
X216970112Y-91468873D02*
X217017731Y-91516493D01*
X217017731Y-91516493D02*
X217112969Y-91564112D01*
X217112969Y-91564112D02*
X217303445Y-91564112D01*
X217303445Y-91564112D02*
X217398683Y-91516493D01*
X217398683Y-91516493D02*
X217446302Y-91468873D01*
X217446302Y-91468873D02*
X217493921Y-91373635D01*
X217493921Y-91373635D02*
X217493921Y-91183159D01*
X217493921Y-91183159D02*
X217446302Y-91087921D01*
X217446302Y-91087921D02*
X217398683Y-91040302D01*
X217398683Y-91040302D02*
X217303445Y-90992683D01*
X214500287Y-93215959D02*
X214547907Y-93263578D01*
X214547907Y-93263578D02*
X214595526Y-93406435D01*
X214595526Y-93406435D02*
X214595526Y-93501673D01*
X214595526Y-93501673D02*
X214547907Y-93644530D01*
X214547907Y-93644530D02*
X214452668Y-93739768D01*
X214452668Y-93739768D02*
X214357430Y-93787387D01*
X214357430Y-93787387D02*
X214166954Y-93835006D01*
X214166954Y-93835006D02*
X214024097Y-93835006D01*
X214024097Y-93835006D02*
X213833621Y-93787387D01*
X213833621Y-93787387D02*
X213738383Y-93739768D01*
X213738383Y-93739768D02*
X213643145Y-93644530D01*
X213643145Y-93644530D02*
X213595526Y-93501673D01*
X213595526Y-93501673D02*
X213595526Y-93406435D01*
X213595526Y-93406435D02*
X213643145Y-93263578D01*
X213643145Y-93263578D02*
X213690764Y-93215959D01*
X214024097Y-92644530D02*
X213976478Y-92739768D01*
X213976478Y-92739768D02*
X213928859Y-92787387D01*
X213928859Y-92787387D02*
X213833621Y-92835006D01*
X213833621Y-92835006D02*
X213786002Y-92835006D01*
X213786002Y-92835006D02*
X213690764Y-92787387D01*
X213690764Y-92787387D02*
X213643145Y-92739768D01*
X213643145Y-92739768D02*
X213595526Y-92644530D01*
X213595526Y-92644530D02*
X213595526Y-92454054D01*
X213595526Y-92454054D02*
X213643145Y-92358816D01*
X213643145Y-92358816D02*
X213690764Y-92311197D01*
X213690764Y-92311197D02*
X213786002Y-92263578D01*
X213786002Y-92263578D02*
X213833621Y-92263578D01*
X213833621Y-92263578D02*
X213928859Y-92311197D01*
X213928859Y-92311197D02*
X213976478Y-92358816D01*
X213976478Y-92358816D02*
X214024097Y-92454054D01*
X214024097Y-92454054D02*
X214024097Y-92644530D01*
X214024097Y-92644530D02*
X214071716Y-92739768D01*
X214071716Y-92739768D02*
X214119335Y-92787387D01*
X214119335Y-92787387D02*
X214214573Y-92835006D01*
X214214573Y-92835006D02*
X214405049Y-92835006D01*
X214405049Y-92835006D02*
X214500287Y-92787387D01*
X214500287Y-92787387D02*
X214547907Y-92739768D01*
X214547907Y-92739768D02*
X214595526Y-92644530D01*
X214595526Y-92644530D02*
X214595526Y-92454054D01*
X214595526Y-92454054D02*
X214547907Y-92358816D01*
X214547907Y-92358816D02*
X214500287Y-92311197D01*
X214500287Y-92311197D02*
X214405049Y-92263578D01*
X214405049Y-92263578D02*
X214214573Y-92263578D01*
X214214573Y-92263578D02*
X214119335Y-92311197D01*
X214119335Y-92311197D02*
X214071716Y-92358816D01*
X214071716Y-92358816D02*
X214024097Y-92454054D01*
X149609790Y-85739468D02*
X149562171Y-85787088D01*
X149562171Y-85787088D02*
X149419314Y-85834707D01*
X149419314Y-85834707D02*
X149324076Y-85834707D01*
X149324076Y-85834707D02*
X149181219Y-85787088D01*
X149181219Y-85787088D02*
X149085981Y-85691849D01*
X149085981Y-85691849D02*
X149038362Y-85596611D01*
X149038362Y-85596611D02*
X148990743Y-85406135D01*
X148990743Y-85406135D02*
X148990743Y-85263278D01*
X148990743Y-85263278D02*
X149038362Y-85072802D01*
X149038362Y-85072802D02*
X149085981Y-84977564D01*
X149085981Y-84977564D02*
X149181219Y-84882326D01*
X149181219Y-84882326D02*
X149324076Y-84834707D01*
X149324076Y-84834707D02*
X149419314Y-84834707D01*
X149419314Y-84834707D02*
X149562171Y-84882326D01*
X149562171Y-84882326D02*
X149609790Y-84929945D01*
X150466933Y-84834707D02*
X150276457Y-84834707D01*
X150276457Y-84834707D02*
X150181219Y-84882326D01*
X150181219Y-84882326D02*
X150133600Y-84929945D01*
X150133600Y-84929945D02*
X150038362Y-85072802D01*
X150038362Y-85072802D02*
X149990743Y-85263278D01*
X149990743Y-85263278D02*
X149990743Y-85644230D01*
X149990743Y-85644230D02*
X150038362Y-85739468D01*
X150038362Y-85739468D02*
X150085981Y-85787088D01*
X150085981Y-85787088D02*
X150181219Y-85834707D01*
X150181219Y-85834707D02*
X150371695Y-85834707D01*
X150371695Y-85834707D02*
X150466933Y-85787088D01*
X150466933Y-85787088D02*
X150514552Y-85739468D01*
X150514552Y-85739468D02*
X150562171Y-85644230D01*
X150562171Y-85644230D02*
X150562171Y-85406135D01*
X150562171Y-85406135D02*
X150514552Y-85310897D01*
X150514552Y-85310897D02*
X150466933Y-85263278D01*
X150466933Y-85263278D02*
X150371695Y-85215659D01*
X150371695Y-85215659D02*
X150181219Y-85215659D01*
X150181219Y-85215659D02*
X150085981Y-85263278D01*
X150085981Y-85263278D02*
X150038362Y-85310897D01*
X150038362Y-85310897D02*
X149990743Y-85406135D01*
D10*
X116202380Y-117934271D02*
X115597618Y-117934271D01*
X115597618Y-117934271D02*
X115537142Y-118539033D01*
X115537142Y-118539033D02*
X115597618Y-118478556D01*
X115597618Y-118478556D02*
X115718571Y-118418080D01*
X115718571Y-118418080D02*
X116020952Y-118418080D01*
X116020952Y-118418080D02*
X116141904Y-118478556D01*
X116141904Y-118478556D02*
X116202380Y-118539033D01*
X116202380Y-118539033D02*
X116262857Y-118659985D01*
X116262857Y-118659985D02*
X116262857Y-118962366D01*
X116262857Y-118962366D02*
X116202380Y-119083318D01*
X116202380Y-119083318D02*
X116141904Y-119143795D01*
X116141904Y-119143795D02*
X116020952Y-119204271D01*
X116020952Y-119204271D02*
X115718571Y-119204271D01*
X115718571Y-119204271D02*
X115597618Y-119143795D01*
X115597618Y-119143795D02*
X115537142Y-119083318D01*
D11*
X182264040Y-99848873D02*
X182216421Y-99896493D01*
X182216421Y-99896493D02*
X182073564Y-99944112D01*
X182073564Y-99944112D02*
X181978326Y-99944112D01*
X181978326Y-99944112D02*
X181835469Y-99896493D01*
X181835469Y-99896493D02*
X181740231Y-99801254D01*
X181740231Y-99801254D02*
X181692612Y-99706016D01*
X181692612Y-99706016D02*
X181644993Y-99515540D01*
X181644993Y-99515540D02*
X181644993Y-99372683D01*
X181644993Y-99372683D02*
X181692612Y-99182207D01*
X181692612Y-99182207D02*
X181740231Y-99086969D01*
X181740231Y-99086969D02*
X181835469Y-98991731D01*
X181835469Y-98991731D02*
X181978326Y-98944112D01*
X181978326Y-98944112D02*
X182073564Y-98944112D01*
X182073564Y-98944112D02*
X182216421Y-98991731D01*
X182216421Y-98991731D02*
X182264040Y-99039350D01*
X183121183Y-99277445D02*
X183121183Y-99944112D01*
X182883088Y-98896493D02*
X182644993Y-99610778D01*
X182644993Y-99610778D02*
X183264040Y-99610778D01*
D10*
X85476666Y-117934271D02*
X86323333Y-117934271D01*
X86323333Y-117934271D02*
X85779047Y-119204271D01*
X175537142Y-65145223D02*
X175597618Y-65084747D01*
X175597618Y-65084747D02*
X175718571Y-65024271D01*
X175718571Y-65024271D02*
X176020952Y-65024271D01*
X176020952Y-65024271D02*
X176141904Y-65084747D01*
X176141904Y-65084747D02*
X176202380Y-65145223D01*
X176202380Y-65145223D02*
X176262857Y-65266175D01*
X176262857Y-65266175D02*
X176262857Y-65387128D01*
X176262857Y-65387128D02*
X176202380Y-65568556D01*
X176202380Y-65568556D02*
X175476666Y-66294271D01*
X175476666Y-66294271D02*
X176262857Y-66294271D01*
D11*
X113823776Y-80044054D02*
X113347585Y-80377387D01*
X113823776Y-80615482D02*
X112823776Y-80615482D01*
X112823776Y-80615482D02*
X112823776Y-80234530D01*
X112823776Y-80234530D02*
X112871395Y-80139292D01*
X112871395Y-80139292D02*
X112919014Y-80091673D01*
X112919014Y-80091673D02*
X113014252Y-80044054D01*
X113014252Y-80044054D02*
X113157109Y-80044054D01*
X113157109Y-80044054D02*
X113252347Y-80091673D01*
X113252347Y-80091673D02*
X113299966Y-80139292D01*
X113299966Y-80139292D02*
X113347585Y-80234530D01*
X113347585Y-80234530D02*
X113347585Y-80615482D01*
X113823776Y-79091673D02*
X113823776Y-79663101D01*
X113823776Y-79377387D02*
X112823776Y-79377387D01*
X112823776Y-79377387D02*
X112966633Y-79472625D01*
X112966633Y-79472625D02*
X113061871Y-79567863D01*
X113061871Y-79567863D02*
X113109490Y-79663101D01*
X78200287Y-89115959D02*
X78247907Y-89163578D01*
X78247907Y-89163578D02*
X78295526Y-89306435D01*
X78295526Y-89306435D02*
X78295526Y-89401673D01*
X78295526Y-89401673D02*
X78247907Y-89544530D01*
X78247907Y-89544530D02*
X78152668Y-89639768D01*
X78152668Y-89639768D02*
X78057430Y-89687387D01*
X78057430Y-89687387D02*
X77866954Y-89735006D01*
X77866954Y-89735006D02*
X77724097Y-89735006D01*
X77724097Y-89735006D02*
X77533621Y-89687387D01*
X77533621Y-89687387D02*
X77438383Y-89639768D01*
X77438383Y-89639768D02*
X77343145Y-89544530D01*
X77343145Y-89544530D02*
X77295526Y-89401673D01*
X77295526Y-89401673D02*
X77295526Y-89306435D01*
X77295526Y-89306435D02*
X77343145Y-89163578D01*
X77343145Y-89163578D02*
X77390764Y-89115959D01*
X77295526Y-88211197D02*
X77295526Y-88687387D01*
X77295526Y-88687387D02*
X77771716Y-88735006D01*
X77771716Y-88735006D02*
X77724097Y-88687387D01*
X77724097Y-88687387D02*
X77676478Y-88592149D01*
X77676478Y-88592149D02*
X77676478Y-88354054D01*
X77676478Y-88354054D02*
X77724097Y-88258816D01*
X77724097Y-88258816D02*
X77771716Y-88211197D01*
X77771716Y-88211197D02*
X77866954Y-88163578D01*
X77866954Y-88163578D02*
X78105049Y-88163578D01*
X78105049Y-88163578D02*
X78200287Y-88211197D01*
X78200287Y-88211197D02*
X78247907Y-88258816D01*
X78247907Y-88258816D02*
X78295526Y-88354054D01*
X78295526Y-88354054D02*
X78295526Y-88592149D01*
X78295526Y-88592149D02*
X78247907Y-88687387D01*
X78247907Y-88687387D02*
X78200287Y-88735006D01*
X109522290Y-85596968D02*
X109474671Y-85644588D01*
X109474671Y-85644588D02*
X109331814Y-85692207D01*
X109331814Y-85692207D02*
X109236576Y-85692207D01*
X109236576Y-85692207D02*
X109093719Y-85644588D01*
X109093719Y-85644588D02*
X108998481Y-85549349D01*
X108998481Y-85549349D02*
X108950862Y-85454111D01*
X108950862Y-85454111D02*
X108903243Y-85263635D01*
X108903243Y-85263635D02*
X108903243Y-85120778D01*
X108903243Y-85120778D02*
X108950862Y-84930302D01*
X108950862Y-84930302D02*
X108998481Y-84835064D01*
X108998481Y-84835064D02*
X109093719Y-84739826D01*
X109093719Y-84739826D02*
X109236576Y-84692207D01*
X109236576Y-84692207D02*
X109331814Y-84692207D01*
X109331814Y-84692207D02*
X109474671Y-84739826D01*
X109474671Y-84739826D02*
X109522290Y-84787445D01*
X110474671Y-85692207D02*
X109903243Y-85692207D01*
X110188957Y-85692207D02*
X110188957Y-84692207D01*
X110188957Y-84692207D02*
X110093719Y-84835064D01*
X110093719Y-84835064D02*
X109998481Y-84930302D01*
X109998481Y-84930302D02*
X109903243Y-84977921D01*
X182031540Y-85586969D02*
X181983921Y-85634589D01*
X181983921Y-85634589D02*
X181841064Y-85682208D01*
X181841064Y-85682208D02*
X181745826Y-85682208D01*
X181745826Y-85682208D02*
X181602969Y-85634589D01*
X181602969Y-85634589D02*
X181507731Y-85539350D01*
X181507731Y-85539350D02*
X181460112Y-85444112D01*
X181460112Y-85444112D02*
X181412493Y-85253636D01*
X181412493Y-85253636D02*
X181412493Y-85110779D01*
X181412493Y-85110779D02*
X181460112Y-84920303D01*
X181460112Y-84920303D02*
X181507731Y-84825065D01*
X181507731Y-84825065D02*
X181602969Y-84729827D01*
X181602969Y-84729827D02*
X181745826Y-84682208D01*
X181745826Y-84682208D02*
X181841064Y-84682208D01*
X181841064Y-84682208D02*
X181983921Y-84729827D01*
X181983921Y-84729827D02*
X182031540Y-84777446D01*
X182364874Y-84682208D02*
X183031540Y-84682208D01*
X183031540Y-84682208D02*
X182602969Y-85682208D01*
D10*
X206141904Y-65447604D02*
X206141904Y-66294271D01*
X205839523Y-64963795D02*
X205537142Y-65870937D01*
X205537142Y-65870937D02*
X206323333Y-65870937D01*
D11*
X146333776Y-79901554D02*
X145857585Y-80234887D01*
X146333776Y-80472982D02*
X145333776Y-80472982D01*
X145333776Y-80472982D02*
X145333776Y-80092030D01*
X145333776Y-80092030D02*
X145381395Y-79996792D01*
X145381395Y-79996792D02*
X145429014Y-79949173D01*
X145429014Y-79949173D02*
X145524252Y-79901554D01*
X145524252Y-79901554D02*
X145667109Y-79901554D01*
X145667109Y-79901554D02*
X145762347Y-79949173D01*
X145762347Y-79949173D02*
X145809966Y-79996792D01*
X145809966Y-79996792D02*
X145857585Y-80092030D01*
X145857585Y-80092030D02*
X145857585Y-80472982D01*
X145333776Y-79044411D02*
X145333776Y-79234887D01*
X145333776Y-79234887D02*
X145381395Y-79330125D01*
X145381395Y-79330125D02*
X145429014Y-79377744D01*
X145429014Y-79377744D02*
X145571871Y-79472982D01*
X145571871Y-79472982D02*
X145762347Y-79520601D01*
X145762347Y-79520601D02*
X146143299Y-79520601D01*
X146143299Y-79520601D02*
X146238537Y-79472982D01*
X146238537Y-79472982D02*
X146286157Y-79425363D01*
X146286157Y-79425363D02*
X146333776Y-79330125D01*
X146333776Y-79330125D02*
X146333776Y-79139649D01*
X146333776Y-79139649D02*
X146286157Y-79044411D01*
X146286157Y-79044411D02*
X146238537Y-78996792D01*
X146238537Y-78996792D02*
X146143299Y-78949173D01*
X146143299Y-78949173D02*
X145905204Y-78949173D01*
X145905204Y-78949173D02*
X145809966Y-78996792D01*
X145809966Y-78996792D02*
X145762347Y-79044411D01*
X145762347Y-79044411D02*
X145714728Y-79139649D01*
X145714728Y-79139649D02*
X145714728Y-79330125D01*
X145714728Y-79330125D02*
X145762347Y-79425363D01*
X145762347Y-79425363D02*
X145809966Y-79472982D01*
X145809966Y-79472982D02*
X145905204Y-79520601D01*
D12*
X159890476Y-87687419D02*
X159890476Y-86687419D01*
X159890476Y-86687419D02*
X160223809Y-87401704D01*
X160223809Y-87401704D02*
X160557142Y-86687419D01*
X160557142Y-86687419D02*
X160557142Y-87687419D01*
X161033333Y-87687419D02*
X161033333Y-86687419D01*
X161033333Y-86687419D02*
X161414285Y-86687419D01*
X161414285Y-86687419D02*
X161509523Y-86735038D01*
X161509523Y-86735038D02*
X161557142Y-86782657D01*
X161557142Y-86782657D02*
X161604761Y-86877895D01*
X161604761Y-86877895D02*
X161604761Y-87020752D01*
X161604761Y-87020752D02*
X161557142Y-87115990D01*
X161557142Y-87115990D02*
X161509523Y-87163609D01*
X161509523Y-87163609D02*
X161414285Y-87211228D01*
X161414285Y-87211228D02*
X161033333Y-87211228D01*
X162033333Y-87687419D02*
X162033333Y-86687419D01*
X162033333Y-86687419D02*
X162414285Y-86687419D01*
X162414285Y-86687419D02*
X162509523Y-86735038D01*
X162509523Y-86735038D02*
X162557142Y-86782657D01*
X162557142Y-86782657D02*
X162604761Y-86877895D01*
X162604761Y-86877895D02*
X162604761Y-87020752D01*
X162604761Y-87020752D02*
X162557142Y-87115990D01*
X162557142Y-87115990D02*
X162509523Y-87163609D01*
X162509523Y-87163609D02*
X162414285Y-87211228D01*
X162414285Y-87211228D02*
X162033333Y-87211228D01*
X163604761Y-87592180D02*
X163557142Y-87639800D01*
X163557142Y-87639800D02*
X163414285Y-87687419D01*
X163414285Y-87687419D02*
X163319047Y-87687419D01*
X163319047Y-87687419D02*
X163176190Y-87639800D01*
X163176190Y-87639800D02*
X163080952Y-87544561D01*
X163080952Y-87544561D02*
X163033333Y-87449323D01*
X163033333Y-87449323D02*
X162985714Y-87258847D01*
X162985714Y-87258847D02*
X162985714Y-87115990D01*
X162985714Y-87115990D02*
X163033333Y-86925514D01*
X163033333Y-86925514D02*
X163080952Y-86830276D01*
X163080952Y-86830276D02*
X163176190Y-86735038D01*
X163176190Y-86735038D02*
X163319047Y-86687419D01*
X163319047Y-86687419D02*
X163414285Y-86687419D01*
X163414285Y-86687419D02*
X163557142Y-86735038D01*
X163557142Y-86735038D02*
X163604761Y-86782657D01*
X163938095Y-86687419D02*
X164557142Y-86687419D01*
X164557142Y-86687419D02*
X164223809Y-87068371D01*
X164223809Y-87068371D02*
X164366666Y-87068371D01*
X164366666Y-87068371D02*
X164461904Y-87115990D01*
X164461904Y-87115990D02*
X164509523Y-87163609D01*
X164509523Y-87163609D02*
X164557142Y-87258847D01*
X164557142Y-87258847D02*
X164557142Y-87496942D01*
X164557142Y-87496942D02*
X164509523Y-87592180D01*
X164509523Y-87592180D02*
X164461904Y-87639800D01*
X164461904Y-87639800D02*
X164366666Y-87687419D01*
X164366666Y-87687419D02*
X164080952Y-87687419D01*
X164080952Y-87687419D02*
X163985714Y-87639800D01*
X163985714Y-87639800D02*
X163938095Y-87592180D01*
D11*
X72294040Y-93084112D02*
X71960707Y-92607921D01*
X71722612Y-93084112D02*
X71722612Y-92084112D01*
X71722612Y-92084112D02*
X72103564Y-92084112D01*
X72103564Y-92084112D02*
X72198802Y-92131731D01*
X72198802Y-92131731D02*
X72246421Y-92179350D01*
X72246421Y-92179350D02*
X72294040Y-92274588D01*
X72294040Y-92274588D02*
X72294040Y-92417445D01*
X72294040Y-92417445D02*
X72246421Y-92512683D01*
X72246421Y-92512683D02*
X72198802Y-92560302D01*
X72198802Y-92560302D02*
X72103564Y-92607921D01*
X72103564Y-92607921D02*
X71722612Y-92607921D01*
X73198802Y-92084112D02*
X72722612Y-92084112D01*
X72722612Y-92084112D02*
X72674993Y-92560302D01*
X72674993Y-92560302D02*
X72722612Y-92512683D01*
X72722612Y-92512683D02*
X72817850Y-92465064D01*
X72817850Y-92465064D02*
X73055945Y-92465064D01*
X73055945Y-92465064D02*
X73151183Y-92512683D01*
X73151183Y-92512683D02*
X73198802Y-92560302D01*
X73198802Y-92560302D02*
X73246421Y-92655540D01*
X73246421Y-92655540D02*
X73246421Y-92893635D01*
X73246421Y-92893635D02*
X73198802Y-92988873D01*
X73198802Y-92988873D02*
X73151183Y-93036493D01*
X73151183Y-93036493D02*
X73055945Y-93084112D01*
X73055945Y-93084112D02*
X72817850Y-93084112D01*
X72817850Y-93084112D02*
X72722612Y-93036493D01*
X72722612Y-93036493D02*
X72674993Y-92988873D01*
X113825526Y-104905959D02*
X113349335Y-105239292D01*
X113825526Y-105477387D02*
X112825526Y-105477387D01*
X112825526Y-105477387D02*
X112825526Y-105096435D01*
X112825526Y-105096435D02*
X112873145Y-105001197D01*
X112873145Y-105001197D02*
X112920764Y-104953578D01*
X112920764Y-104953578D02*
X113016002Y-104905959D01*
X113016002Y-104905959D02*
X113158859Y-104905959D01*
X113158859Y-104905959D02*
X113254097Y-104953578D01*
X113254097Y-104953578D02*
X113301716Y-105001197D01*
X113301716Y-105001197D02*
X113349335Y-105096435D01*
X113349335Y-105096435D02*
X113349335Y-105477387D01*
X112920764Y-104525006D02*
X112873145Y-104477387D01*
X112873145Y-104477387D02*
X112825526Y-104382149D01*
X112825526Y-104382149D02*
X112825526Y-104144054D01*
X112825526Y-104144054D02*
X112873145Y-104048816D01*
X112873145Y-104048816D02*
X112920764Y-104001197D01*
X112920764Y-104001197D02*
X113016002Y-103953578D01*
X113016002Y-103953578D02*
X113111240Y-103953578D01*
X113111240Y-103953578D02*
X113254097Y-104001197D01*
X113254097Y-104001197D02*
X113825526Y-104572625D01*
X113825526Y-104572625D02*
X113825526Y-103953578D01*
X149324040Y-99813873D02*
X149276421Y-99861493D01*
X149276421Y-99861493D02*
X149133564Y-99909112D01*
X149133564Y-99909112D02*
X149038326Y-99909112D01*
X149038326Y-99909112D02*
X148895469Y-99861493D01*
X148895469Y-99861493D02*
X148800231Y-99766254D01*
X148800231Y-99766254D02*
X148752612Y-99671016D01*
X148752612Y-99671016D02*
X148704993Y-99480540D01*
X148704993Y-99480540D02*
X148704993Y-99337683D01*
X148704993Y-99337683D02*
X148752612Y-99147207D01*
X148752612Y-99147207D02*
X148800231Y-99051969D01*
X148800231Y-99051969D02*
X148895469Y-98956731D01*
X148895469Y-98956731D02*
X149038326Y-98909112D01*
X149038326Y-98909112D02*
X149133564Y-98909112D01*
X149133564Y-98909112D02*
X149276421Y-98956731D01*
X149276421Y-98956731D02*
X149324040Y-99004350D01*
X149657374Y-98909112D02*
X150276421Y-98909112D01*
X150276421Y-98909112D02*
X149943088Y-99290064D01*
X149943088Y-99290064D02*
X150085945Y-99290064D01*
X150085945Y-99290064D02*
X150181183Y-99337683D01*
X150181183Y-99337683D02*
X150228802Y-99385302D01*
X150228802Y-99385302D02*
X150276421Y-99480540D01*
X150276421Y-99480540D02*
X150276421Y-99718635D01*
X150276421Y-99718635D02*
X150228802Y-99813873D01*
X150228802Y-99813873D02*
X150181183Y-99861493D01*
X150181183Y-99861493D02*
X150085945Y-99909112D01*
X150085945Y-99909112D02*
X149800231Y-99909112D01*
X149800231Y-99909112D02*
X149704993Y-99861493D01*
X149704993Y-99861493D02*
X149657374Y-99813873D01*
D10*
X176262857Y-119204271D02*
X175537142Y-119204271D01*
X175899999Y-119204271D02*
X175899999Y-117934271D01*
X175899999Y-117934271D02*
X175779047Y-118115699D01*
X175779047Y-118115699D02*
X175658095Y-118236652D01*
X175658095Y-118236652D02*
X175537142Y-118297128D01*
D12*
X127290476Y-87687419D02*
X127290476Y-86687419D01*
X127290476Y-86687419D02*
X127623809Y-87401704D01*
X127623809Y-87401704D02*
X127957142Y-86687419D01*
X127957142Y-86687419D02*
X127957142Y-87687419D01*
X128433333Y-87687419D02*
X128433333Y-86687419D01*
X128433333Y-86687419D02*
X128814285Y-86687419D01*
X128814285Y-86687419D02*
X128909523Y-86735038D01*
X128909523Y-86735038D02*
X128957142Y-86782657D01*
X128957142Y-86782657D02*
X129004761Y-86877895D01*
X129004761Y-86877895D02*
X129004761Y-87020752D01*
X129004761Y-87020752D02*
X128957142Y-87115990D01*
X128957142Y-87115990D02*
X128909523Y-87163609D01*
X128909523Y-87163609D02*
X128814285Y-87211228D01*
X128814285Y-87211228D02*
X128433333Y-87211228D01*
X129433333Y-87687419D02*
X129433333Y-86687419D01*
X129433333Y-86687419D02*
X129814285Y-86687419D01*
X129814285Y-86687419D02*
X129909523Y-86735038D01*
X129909523Y-86735038D02*
X129957142Y-86782657D01*
X129957142Y-86782657D02*
X130004761Y-86877895D01*
X130004761Y-86877895D02*
X130004761Y-87020752D01*
X130004761Y-87020752D02*
X129957142Y-87115990D01*
X129957142Y-87115990D02*
X129909523Y-87163609D01*
X129909523Y-87163609D02*
X129814285Y-87211228D01*
X129814285Y-87211228D02*
X129433333Y-87211228D01*
X131004761Y-87592180D02*
X130957142Y-87639800D01*
X130957142Y-87639800D02*
X130814285Y-87687419D01*
X130814285Y-87687419D02*
X130719047Y-87687419D01*
X130719047Y-87687419D02*
X130576190Y-87639800D01*
X130576190Y-87639800D02*
X130480952Y-87544561D01*
X130480952Y-87544561D02*
X130433333Y-87449323D01*
X130433333Y-87449323D02*
X130385714Y-87258847D01*
X130385714Y-87258847D02*
X130385714Y-87115990D01*
X130385714Y-87115990D02*
X130433333Y-86925514D01*
X130433333Y-86925514D02*
X130480952Y-86830276D01*
X130480952Y-86830276D02*
X130576190Y-86735038D01*
X130576190Y-86735038D02*
X130719047Y-86687419D01*
X130719047Y-86687419D02*
X130814285Y-86687419D01*
X130814285Y-86687419D02*
X130957142Y-86735038D01*
X130957142Y-86735038D02*
X131004761Y-86782657D01*
X131385714Y-86782657D02*
X131433333Y-86735038D01*
X131433333Y-86735038D02*
X131528571Y-86687419D01*
X131528571Y-86687419D02*
X131766666Y-86687419D01*
X131766666Y-86687419D02*
X131861904Y-86735038D01*
X131861904Y-86735038D02*
X131909523Y-86782657D01*
X131909523Y-86782657D02*
X131957142Y-86877895D01*
X131957142Y-86877895D02*
X131957142Y-86973133D01*
X131957142Y-86973133D02*
X131909523Y-87115990D01*
X131909523Y-87115990D02*
X131338095Y-87687419D01*
X131338095Y-87687419D02*
X131957142Y-87687419D01*
D13*
%TO.C,R4*%
X178198207Y-101784569D02*
X178198207Y-102294017D01*
X179243207Y-101784569D02*
X179243207Y-102294017D01*
%TO.C,C2*%
X112596974Y-99039293D02*
X112304440Y-99039293D01*
X112596974Y-100059293D02*
X112304440Y-100059293D01*
%TO.C,R7*%
X178043207Y-83012113D02*
X178043207Y-82502665D01*
X179088207Y-83012113D02*
X179088207Y-82502665D01*
%TO.C,MPPC1*%
D12*
X80730000Y-95080000D02*
X113270000Y-95080000D01*
X113270000Y-88480000D01*
X80730000Y-88480000D01*
X80730000Y-95080000D01*
D14*
X113050000Y-94670000D02*
G75*
G02*
X112750000Y-94670000I-150000J0D01*
G01*
X112750000Y-94670000D02*
G75*
G02*
X113050000Y-94670000I150000J0D01*
G01*
%TO.C,MPPC4*%
D12*
X178530000Y-95080000D02*
X211070000Y-95080000D01*
X211070000Y-88480000D01*
X178530000Y-88480000D01*
X178530000Y-95080000D01*
D14*
X210850000Y-94670000D02*
G75*
G02*
X210550000Y-94670000I-150000J0D01*
G01*
X210550000Y-94670000D02*
G75*
G02*
X210850000Y-94670000I150000J0D01*
G01*
D13*
%TO.C,R3*%
X145308207Y-101759569D02*
X145308207Y-102269017D01*
X146353207Y-101759569D02*
X146353207Y-102269017D01*
%TO.C,R8*%
X216463483Y-88916793D02*
X216972931Y-88916793D01*
X216463483Y-89961793D02*
X216972931Y-89961793D01*
%TO.C,C8*%
X213608207Y-90213026D02*
X213608207Y-90505560D01*
X214628207Y-90213026D02*
X214628207Y-90505560D01*
%TO.C,C6*%
X146612690Y-84889888D02*
X146905224Y-84889888D01*
X146612690Y-85909888D02*
X146905224Y-85909888D01*
%TO.C,C4*%
X179494440Y-98929293D02*
X179786974Y-98929293D01*
X179494440Y-99949293D02*
X179786974Y-99949293D01*
%TO.C,R1*%
X112836457Y-82882112D02*
X112836457Y-82372664D01*
X113881457Y-82882112D02*
X113881457Y-82372664D01*
%TO.C,C5*%
X77340707Y-91855560D02*
X77340707Y-91563026D01*
X78360707Y-91855560D02*
X78360707Y-91563026D01*
%TO.C,C1*%
X112585224Y-84717388D02*
X112292690Y-84717388D01*
X112585224Y-85737388D02*
X112292690Y-85737388D01*
%TO.C,C7*%
X179341940Y-84737389D02*
X179634474Y-84737389D01*
X179341940Y-85757389D02*
X179634474Y-85757389D01*
%TO.C,R6*%
X145316457Y-83054612D02*
X145316457Y-82545164D01*
X146361457Y-83054612D02*
X146361457Y-82545164D01*
%TO.C,MPPC3*%
D12*
X145930000Y-95080000D02*
X178470000Y-95080000D01*
X178470000Y-88480000D01*
X145930000Y-88480000D01*
X145930000Y-95080000D01*
D14*
X178250000Y-94670000D02*
G75*
G02*
X177950000Y-94670000I-150000J0D01*
G01*
X177950000Y-94670000D02*
G75*
G02*
X178250000Y-94670000I150000J0D01*
G01*
D13*
%TO.C,R5*%
X75505431Y-92106793D02*
X74995983Y-92106793D01*
X75505431Y-93151793D02*
X74995983Y-93151793D01*
%TO.C,R2*%
X112848207Y-101894569D02*
X112848207Y-102404017D01*
X113893207Y-101894569D02*
X113893207Y-102404017D01*
%TO.C,C3*%
X146604440Y-98904293D02*
X146896974Y-98904293D01*
X146604440Y-99924293D02*
X146896974Y-99924293D01*
%TO.C,MPPC2*%
D12*
X113330000Y-95080000D02*
X145870000Y-95080000D01*
X145870000Y-88480000D01*
X113330000Y-88480000D01*
X113330000Y-95080000D01*
D14*
X145650000Y-94670000D02*
G75*
G02*
X145350000Y-94670000I-150000J0D01*
G01*
X145350000Y-94670000D02*
G75*
G02*
X145650000Y-94670000I150000J0D01*
G01*
%TD*%
M02*
