M48
; DRILL file {KiCad 9.0.6} date 2025-11-12T11:45:16+0100
; FORMAT={-:-/ absolute / metric / decimal}
; #@! TF.CreationDate,2025-11-12T11:45:16+01:00
; #@! TF.GenerationSoftware,Kicad,Pcbnew,9.0.6
; #@! TF.FileFunction,Plated,1,3,Blind
FMAT,2
METRIC
; #@! TA.AperFunction,Plated,Buried,ViaDrill
T1C0.200
%
G90
G05
T1
X84.93Y-62.217
X85.91Y-59.117
X85.91Y-62.217
X86.89Y-59.117
X86.89Y-62.217
X87.38Y-58.517
X87.38Y-62.817
X87.87Y-59.117
X87.87Y-62.217
X88.85Y-59.117
X88.85Y-62.217
X89.83Y-59.117
X89.83Y-62.217
X90.32Y-58.517
X90.81Y-59.117
X90.81Y-62.217
X91.3Y-62.817
X91.79Y-59.117
X91.79Y-62.217
X92.28Y-62.817
X92.77Y-59.117
X92.77Y-62.217
X93.26Y-58.517
X93.75Y-59.117
X93.75Y-62.217
X93.805Y-53.264
X94.24Y-62.817
X94.615Y-66.774
X94.73Y-59.117
X94.73Y-62.217
X95.22Y-58.517
X95.71Y-59.117
X95.71Y-62.217
X96.2Y-62.817
X96.69Y-59.117
X96.69Y-62.217
X97.005Y-53.264
X97.18Y-58.517
X97.18Y-62.817
X97.67Y-59.117
X97.67Y-62.217
X97.815Y-66.774
X98.65Y-59.117
X98.65Y-62.217
X99.14Y-58.517
X99.14Y-62.817
X99.63Y-59.117
X99.63Y-62.217
X100.12Y-58.517
X100.205Y-53.264
X100.61Y-59.117
X100.61Y-62.217
X101.015Y-66.774
X101.1Y-62.817
X101.59Y-59.117
X101.59Y-62.217
X102.08Y-58.517
X102.08Y-62.817
X102.57Y-59.117
X102.57Y-62.217
X103.405Y-53.264
X103.55Y-59.117
X103.55Y-62.217
X104.04Y-58.517
X104.04Y-62.817
X104.215Y-66.774
X104.53Y-59.117
X104.53Y-62.217
X105.02Y-58.517
X105.51Y-59.117
X105.51Y-62.217
X106.0Y-62.817
X106.49Y-59.117
X106.49Y-62.217
X106.605Y-53.264
X106.98Y-58.517
X106.98Y-62.817
X107.415Y-66.774
X107.47Y-59.117
X107.47Y-62.217
X108.45Y-59.117
X108.45Y-62.217
X108.94Y-58.517
X109.43Y-59.117
X109.43Y-62.217
X109.92Y-58.517
X109.92Y-62.817
X110.41Y-59.117
X110.41Y-62.217
X111.39Y-59.117
X111.39Y-62.217
X112.37Y-59.117
X112.37Y-62.217
X112.86Y-58.517
X113.35Y-59.117
X113.35Y-62.217
X113.84Y-62.817
X114.33Y-59.117
X114.33Y-62.217
X115.31Y-59.117
X115.31Y-62.217
X116.29Y-59.117
M30
