M48
; DRILL file {KiCad 9.0.6} date 2025-11-12T11:45:16+0100
; FORMAT={-:-/ absolute / metric / decimal}
; #@! TF.CreationDate,2025-11-12T11:45:16+01:00
; #@! TF.GenerationSoftware,Kicad,Pcbnew,9.0.6
; #@! TF.FileFunction,MixedPlating,1,10
FMAT,2
METRIC
; #@! TA.AperFunction,Plated,PTH,ViaDrill
T1C0.200
; #@! TA.AperFunction,Plated,PTH,ComponentDrill
T2C1.800
; #@! TA.AperFunction,NonPlated,NPTH,ComponentDrill
T3C0.950
%
G90
G05
T1
X84.94Y-46.887
X85.01Y-68.877
X85.03Y-70.197
X85.03Y-71.477
X85.04Y-63.957
X85.06Y-67.327
X85.1Y-48.077
X85.1Y-65.777
X85.13Y-73.297
X85.327Y-55.874
X85.42Y-58.517
X85.42Y-62.817
X85.43Y-53.077
X85.55Y-52.357
X85.57Y-72.467
X85.59Y-68.227
X85.6Y-66.557
X85.67Y-50.747
X85.67Y-51.667
X85.68Y-64.847
X85.68Y-70.58
X86.103Y-71.709
X86.103Y-49.625
X86.11Y-47.167
X86.4Y-58.517
X86.4Y-62.817
X86.53Y-57.307
X86.7Y-73.707
X87.38Y-74.377
X87.401Y-48.328
X87.74Y-54.507
X88.049Y-73.655
X88.049Y-47.679
X88.1Y-77.417
X88.27Y-75.137
X88.33Y-57.317
X88.36Y-58.517
X88.36Y-62.817
X88.698Y-74.304
X88.698Y-47.03
X88.71Y-68.537
X89.34Y-58.517
X89.34Y-62.817
X89.66Y-57.517
X90.119Y-48.287
X90.32Y-62.817
X90.63Y-47.477
X90.95Y-54.467
X91.15Y-74.142
X91.3Y-58.517
X91.402Y-44.167
X91.402Y-75.567
X91.402Y-77.167
X91.45Y-57.397
X91.89Y-68.487
X92.037Y-44.167
X92.037Y-45.767
X92.037Y-75.567
X92.037Y-77.167
X92.28Y-58.517
X92.52Y-72.787
X92.672Y-75.567
X93.11Y-57.267
X93.26Y-62.817
X93.307Y-75.567
X93.63Y-73.367
X93.86Y-63.727
X93.942Y-45.767
X94.21Y-54.457
X94.24Y-58.517
X94.25Y-50.507
X94.506Y-57.405
X95.22Y-62.817
X95.847Y-44.167
X95.98Y-47.057
X96.2Y-58.517
X96.33Y-57.267
X96.483Y-44.167
X97.117Y-77.167
X97.4Y-54.577
X97.59Y-50.597
X97.752Y-44.167
X97.752Y-77.167
X97.98Y-57.337
X98.16Y-58.517
X98.16Y-62.817
X98.387Y-77.167
X99.022Y-44.167
X99.6Y-63.667
X99.62Y-57.247
X99.657Y-77.167
X100.12Y-62.817
X100.292Y-44.167
X100.53Y-54.507
X100.927Y-77.167
X101.1Y-58.517
X101.56Y-72.717
X101.562Y-44.167
X101.61Y-57.227
X102.197Y-77.167
X102.832Y-44.167
X102.9Y-57.447
X103.06Y-58.517
X103.06Y-62.817
X103.1Y-63.657
X103.468Y-44.167
X103.468Y-77.167
X103.77Y-54.517
X103.89Y-50.087
X104.102Y-44.167
X104.737Y-77.167
X104.81Y-72.737
X105.02Y-62.817
X105.373Y-77.167
X106.0Y-58.517
X107.03Y-54.487
X107.11Y-49.817
X107.42Y-57.437
X107.96Y-58.517
X107.96Y-62.817
X108.51Y-57.157
X108.547Y-45.767
X108.8Y-73.257
X108.94Y-62.817
X109.01Y-63.637
X109.182Y-44.167
X109.182Y-45.767
X109.182Y-75.567
X109.182Y-77.167
X109.817Y-44.167
X109.817Y-45.767
X109.817Y-77.167
X110.21Y-54.547
X110.32Y-50.587
X110.42Y-57.397
X110.56Y-46.617
X110.66Y-73.807
X110.71Y-47.797
X110.9Y-58.517
X110.9Y-62.817
X111.19Y-68.557
X111.88Y-58.517
X111.88Y-62.817
X111.92Y-56.797
X112.522Y-47.03
X112.522Y-74.304
X112.86Y-62.817
X112.99Y-77.37
X113.06Y-63.747
X113.171Y-47.679
X113.171Y-73.655
X113.23Y-46.496
X113.41Y-54.517
X113.5Y-50.737
X113.819Y-73.007
X113.84Y-58.517
X114.32Y-47.477
X114.5Y-68.527
X114.6Y-72.767
X114.82Y-58.517
X114.82Y-62.817
X115.008Y-73.974
X115.117Y-49.625
X115.117Y-71.709
X115.2Y-57.207
X115.46Y-69.507
X115.485Y-70.735
X115.49Y-48.297
X115.53Y-54.947
X115.54Y-55.987
X115.56Y-51.05
X115.56Y-53.057
X115.79Y-65.837
X115.79Y-67.147
X115.8Y-58.517
X115.8Y-62.817
X115.8Y-68.497
X115.897Y-64.054
X116.04Y-57.447
X116.09Y-53.957
X116.17Y-52.25
X116.21Y-50.747
X116.245Y-49.408
X116.29Y-47.607
X116.3Y-46.647
X116.38Y-72.91
T3
X90.0Y-44.967
X90.0Y-76.367
X111.22Y-45.437
X111.22Y-76.837
T2
G00X86.14Y-45.167
M15
G01X86.54Y-45.167
M16
G05
G00X86.14Y-76.167
M15
G01X86.54Y-76.167
M16
G05
G00X114.68Y-76.167
M15
G01X115.08Y-76.167
M16
G05
G00X114.68Y-45.167
M15
G01X115.08Y-45.167
M16
G05
M30
