M48
; DRILL file {KiCad 9.0.6} date 2025-11-12T11:45:16+0100
; FORMAT={-:-/ absolute / metric / decimal}
; #@! TF.CreationDate,2025-11-12T11:45:16+01:00
; #@! TF.GenerationSoftware,Kicad,Pcbnew,9.0.6
; #@! TF.FileFunction,Plated,7,10,Blind
FMAT,2
METRIC
; #@! TA.AperFunction,Plated,Buried,ViaDrill
T1C0.200
%
G90
G05
T1
X86.765Y-68.432
X86.765Y-72.662
X88.855Y-49.212
X88.855Y-52.902
X89.965Y-68.432
X89.965Y-72.662
X92.055Y-48.672
X92.055Y-52.902
X92.672Y-44.167
X93.165Y-68.432
X93.165Y-72.662
X93.307Y-44.167
X93.942Y-44.167
X94.578Y-44.167
X95.255Y-48.672
X95.255Y-52.902
X96.365Y-68.432
X96.365Y-72.662
X98.455Y-48.672
X98.455Y-52.902
X99.565Y-68.432
X99.565Y-72.662
X101.655Y-48.672
X101.655Y-52.902
X102.765Y-68.432
X102.765Y-72.662
X104.855Y-48.672
X104.855Y-52.902
X105.965Y-68.432
X105.965Y-72.662
X106.642Y-77.167
X107.277Y-77.167
X107.912Y-77.167
X108.055Y-48.672
X108.055Y-52.902
X108.547Y-77.167
X109.165Y-68.432
X109.165Y-72.662
X111.255Y-48.672
X111.255Y-52.902
X112.365Y-68.432
X112.365Y-72.122
X114.455Y-48.672
X114.455Y-52.902
M30
