%TF.GenerationSoftware,KiCad,Pcbnew,9.0.6*%
%TF.CreationDate,2025-11-12T11:45:24+01:00*%
%TF.ProjectId,S13552_64Ch_Adapter_BGA2803_V2,53313335-3532-45f3-9634-43685f416461,1*%
%TF.SameCoordinates,Original*%
%TF.FileFunction,Soldermask,Bot*%
%TF.FilePolarity,Negative*%
%FSLAX46Y46*%
G04 Gerber Fmt 4.6, Leading zero omitted, Abs format (unit mm)*
G04 Created by KiCad (PCBNEW 9.0.6) date 2025-11-12 11:45:24*
%MOMM*%
%LPD*%
G01*
G04 APERTURE LIST*
G04 Aperture macros list*
%AMRoundRect*
0 Rectangle with rounded corners*
0 $1 Rounding radius*
0 $2 $3 $4 $5 $6 $7 $8 $9 X,Y pos of 4 corners*
0 Add a 4 corners polygon primitive as box body*
4,1,4,$2,$3,$4,$5,$6,$7,$8,$9,$2,$3,0*
0 Add four circle primitives for the rounded corners*
1,1,$1+$1,$2,$3*
1,1,$1+$1,$4,$5*
1,1,$1+$1,$6,$7*
1,1,$1+$1,$8,$9*
0 Add four rect primitives between the rounded corners*
20,1,$1+$1,$2,$3,$4,$5,0*
20,1,$1+$1,$4,$5,$6,$7,0*
20,1,$1+$1,$6,$7,$8,$9,0*
20,1,$1+$1,$8,$9,$2,$3,0*%
G04 Aperture macros list end*
%ADD10O,3.000000X2.600000*%
%ADD11RoundRect,0.100000X0.130000X0.100000X-0.130000X0.100000X-0.130000X-0.100000X0.130000X-0.100000X0*%
%ADD12RoundRect,0.100000X-0.225000X-0.100000X0.225000X-0.100000X0.225000X0.100000X-0.225000X0.100000X0*%
%ADD13RoundRect,0.100000X-0.130000X-0.100000X0.130000X-0.100000X0.130000X0.100000X-0.130000X0.100000X0*%
%ADD14C,1.000000*%
%ADD15RoundRect,0.100000X0.225000X0.100000X-0.225000X0.100000X-0.225000X-0.100000X0.225000X-0.100000X0*%
%ADD16C,0.950000*%
%ADD17RoundRect,0.102000X-0.175000X-0.500000X0.175000X-0.500000X0.175000X0.500000X-0.175000X0.500000X0*%
%ADD18RoundRect,0.100000X0.100000X-0.130000X0.100000X0.130000X-0.100000X0.130000X-0.100000X-0.130000X0*%
%ADD19RoundRect,0.100000X-0.100000X0.130000X-0.100000X-0.130000X0.100000X-0.130000X0.100000X0.130000X0*%
G04 APERTURE END LIST*
D10*
%TO.C,H102*%
X86340000Y-45167114D03*
%TD*%
%TO.C,H104*%
X114879999Y-76167098D03*
%TD*%
%TO.C,H103*%
X86340000Y-76167098D03*
%TD*%
%TO.C,H101*%
X114880000Y-45167114D03*
%TD*%
D11*
%TO.C,C308*%
X113005000Y-69132107D03*
X112365000Y-69132107D03*
%TD*%
%TO.C,C258*%
X109805000Y-64902107D03*
X109165000Y-64902107D03*
%TD*%
D12*
%TO.C,U63*%
X109260000Y-51087107D03*
X109260000Y-50437107D03*
X109260000Y-49787107D03*
X111160000Y-49787107D03*
X111160000Y-50437107D03*
X111160000Y-51087107D03*
%TD*%
D11*
%TO.C,C171*%
X92055000Y-72122107D03*
X91415000Y-72122107D03*
%TD*%
%TO.C,C261*%
X111255000Y-67892107D03*
X110615000Y-67892107D03*
%TD*%
D13*
%TO.C,C240*%
X94615000Y-55892107D03*
X95255000Y-55892107D03*
%TD*%
D11*
%TO.C,C170*%
X90605000Y-69672107D03*
X89965000Y-69672107D03*
%TD*%
%TO.C,C314*%
X101655000Y-65442107D03*
X101015000Y-65442107D03*
%TD*%
D14*
%TO.C,FID6*%
X115300000Y-47380000D03*
%TD*%
D11*
%TO.C,C150*%
X87405000Y-65442107D03*
X86765000Y-65442107D03*
%TD*%
%TO.C,C167*%
X103405000Y-67892107D03*
X102765000Y-67892107D03*
%TD*%
%TO.C,R54*%
X97005000Y-72662107D03*
X96365000Y-72662107D03*
%TD*%
%TO.C,C316*%
X101655000Y-67892107D03*
X101015000Y-67892107D03*
%TD*%
%TO.C,C153*%
X103405000Y-69132107D03*
X102765000Y-69132107D03*
%TD*%
D13*
%TO.C,R52*%
X94615000Y-52902107D03*
X95255000Y-52902107D03*
%TD*%
D11*
%TO.C,C234*%
X95255000Y-69672107D03*
X94615000Y-69672107D03*
%TD*%
D13*
%TO.C,C215*%
X107415000Y-55892107D03*
X108055000Y-55892107D03*
%TD*%
%TO.C,C255*%
X94615000Y-51662107D03*
X95255000Y-51662107D03*
%TD*%
D12*
%TO.C,U59*%
X109260000Y-55317107D03*
X109260000Y-54667107D03*
X109260000Y-54017107D03*
X111160000Y-54017107D03*
X111160000Y-54667107D03*
X111160000Y-55317107D03*
%TD*%
D13*
%TO.C,C182*%
X104215000Y-49212107D03*
X104855000Y-49212107D03*
%TD*%
D11*
%TO.C,R38*%
X90605000Y-72662107D03*
X89965000Y-72662107D03*
%TD*%
%TO.C,C259*%
X111255000Y-65442107D03*
X110615000Y-65442107D03*
%TD*%
D13*
%TO.C,C212*%
X97815000Y-49212107D03*
X98455000Y-49212107D03*
%TD*%
%TO.C,C195*%
X101015000Y-55892107D03*
X101655000Y-55892107D03*
%TD*%
D11*
%TO.C,C166*%
X104855000Y-67892107D03*
X104215000Y-67892107D03*
%TD*%
%TO.C,C312*%
X113005000Y-72122107D03*
X112365000Y-72122107D03*
%TD*%
D13*
%TO.C,C214*%
X105965000Y-55892107D03*
X106605000Y-55892107D03*
%TD*%
%TO.C,C225*%
X113815000Y-51662107D03*
X114455000Y-51662107D03*
%TD*%
%TO.C,C181*%
X102765000Y-49212107D03*
X103405000Y-49212107D03*
%TD*%
%TO.C,C187*%
X88215000Y-49212107D03*
X88855000Y-49212107D03*
%TD*%
D11*
%TO.C,C309*%
X114455000Y-69672107D03*
X113815000Y-69672107D03*
%TD*%
D15*
%TO.C,U31*%
X101560000Y-70247107D03*
X101560000Y-70897107D03*
X101560000Y-71547107D03*
X99660000Y-71547107D03*
X99660000Y-70897107D03*
X99660000Y-70247107D03*
%TD*%
%TO.C,U49*%
X95160000Y-70247107D03*
X95160000Y-70897107D03*
X95160000Y-71547107D03*
X93260000Y-71547107D03*
X93260000Y-70897107D03*
X93260000Y-70247107D03*
%TD*%
%TO.C,U54*%
X111160000Y-66017107D03*
X111160000Y-66667107D03*
X111160000Y-67317107D03*
X109260000Y-67317107D03*
X109260000Y-66667107D03*
X109260000Y-66017107D03*
%TD*%
D11*
%TO.C,C311*%
X114455000Y-72122107D03*
X113815000Y-72122107D03*
%TD*%
%TO.C,C269*%
X92055000Y-65442107D03*
X91415000Y-65442107D03*
%TD*%
D13*
%TO.C,C162*%
X104215000Y-53442107D03*
X104855000Y-53442107D03*
%TD*%
%TO.C,C218*%
X97815000Y-56432107D03*
X98455000Y-56432107D03*
%TD*%
D15*
%TO.C,U36*%
X91960000Y-70247107D03*
X91960000Y-70897107D03*
X91960000Y-71547107D03*
X90060000Y-71547107D03*
X90060000Y-70897107D03*
X90060000Y-70247107D03*
%TD*%
D13*
%TO.C,C257*%
X94615000Y-49212107D03*
X95255000Y-49212107D03*
%TD*%
%TO.C,C273*%
X107415000Y-52202107D03*
X108055000Y-52202107D03*
%TD*%
D11*
%TO.C,C236*%
X95255000Y-72122107D03*
X94615000Y-72122107D03*
%TD*%
D13*
%TO.C,C295*%
X91415000Y-51662107D03*
X92055000Y-51662107D03*
%TD*%
D11*
%TO.C,R56*%
X109805000Y-68432107D03*
X109165000Y-68432107D03*
%TD*%
D13*
%TO.C,C280*%
X101015000Y-51662107D03*
X101655000Y-51662107D03*
%TD*%
D12*
%TO.C,U61*%
X90060000Y-51087107D03*
X90060000Y-50437107D03*
X90060000Y-49787107D03*
X91960000Y-49787107D03*
X91960000Y-50437107D03*
X91960000Y-51087107D03*
%TD*%
D11*
%TO.C,C164*%
X104855000Y-65442107D03*
X104215000Y-65442107D03*
%TD*%
%TO.C,C248*%
X97005000Y-69132107D03*
X96365000Y-69132107D03*
%TD*%
%TO.C,C151*%
X88855000Y-67892107D03*
X88215000Y-67892107D03*
%TD*%
%TO.C,R67*%
X100205000Y-68432107D03*
X99565000Y-68432107D03*
%TD*%
D13*
%TO.C,C180*%
X104215000Y-51662107D03*
X104855000Y-51662107D03*
%TD*%
D11*
%TO.C,C310*%
X113005000Y-69672107D03*
X112365000Y-69672107D03*
%TD*%
D13*
%TO.C,C211*%
X96365000Y-49212107D03*
X97005000Y-49212107D03*
%TD*%
%TO.C,C222*%
X97815000Y-53442107D03*
X98455000Y-53442107D03*
%TD*%
D11*
%TO.C,C300*%
X87405000Y-69672107D03*
X86765000Y-69672107D03*
%TD*%
D13*
%TO.C,R61*%
X110615000Y-52902107D03*
X111255000Y-52902107D03*
%TD*%
D11*
%TO.C,R39*%
X97005000Y-68432107D03*
X96365000Y-68432107D03*
%TD*%
D13*
%TO.C,C253*%
X94615000Y-52202107D03*
X95255000Y-52202107D03*
%TD*%
D11*
%TO.C,C321*%
X108055000Y-72122107D03*
X107415000Y-72122107D03*
%TD*%
D15*
%TO.C,U56*%
X91960000Y-66017107D03*
X91960000Y-66667107D03*
X91960000Y-67317107D03*
X90060000Y-67317107D03*
X90060000Y-66667107D03*
X90060000Y-66017107D03*
%TD*%
D11*
%TO.C,C301*%
X88855000Y-72122107D03*
X88215000Y-72122107D03*
%TD*%
D13*
%TO.C,C208*%
X97815000Y-52202107D03*
X98455000Y-52202107D03*
%TD*%
%TO.C,C198*%
X113815000Y-56432107D03*
X114455000Y-56432107D03*
%TD*%
%TO.C,C161*%
X102765000Y-53442107D03*
X103405000Y-53442107D03*
%TD*%
%TO.C,C209*%
X96365000Y-51662107D03*
X97005000Y-51662107D03*
%TD*%
%TO.C,C229*%
X86765000Y-55892107D03*
X87405000Y-55892107D03*
%TD*%
D15*
%TO.C,U60*%
X111160000Y-70247107D03*
X111160000Y-70897107D03*
X111160000Y-71547107D03*
X109260000Y-71547107D03*
X109260000Y-70897107D03*
X109260000Y-70247107D03*
%TD*%
D12*
%TO.C,U48*%
X86860000Y-55317107D03*
X86860000Y-54667107D03*
X86860000Y-54017107D03*
X88760000Y-54017107D03*
X88760000Y-54667107D03*
X88760000Y-55317107D03*
%TD*%
D11*
%TO.C,C157*%
X103405000Y-72122107D03*
X102765000Y-72122107D03*
%TD*%
D12*
%TO.C,U38*%
X102860000Y-51087107D03*
X102860000Y-50437107D03*
X102860000Y-49787107D03*
X104760000Y-49787107D03*
X104760000Y-50437107D03*
X104760000Y-51087107D03*
%TD*%
D11*
%TO.C,C251*%
X98455000Y-72122107D03*
X97815000Y-72122107D03*
%TD*%
%TO.C,C235*%
X93805000Y-69672107D03*
X93165000Y-69672107D03*
%TD*%
D12*
%TO.C,U46*%
X96460000Y-55317107D03*
X96460000Y-54667107D03*
X96460000Y-54017107D03*
X98360000Y-54017107D03*
X98360000Y-54667107D03*
X98360000Y-55317107D03*
%TD*%
D11*
%TO.C,C189*%
X108055000Y-65442107D03*
X107415000Y-65442107D03*
%TD*%
D13*
%TO.C,R55*%
X94615000Y-48672107D03*
X95255000Y-48672107D03*
%TD*%
%TO.C,C231*%
X86765000Y-53442107D03*
X87405000Y-53442107D03*
%TD*%
D15*
%TO.C,U66*%
X107960000Y-70247107D03*
X107960000Y-70897107D03*
X107960000Y-71547107D03*
X106060000Y-71547107D03*
X106060000Y-70897107D03*
X106060000Y-70247107D03*
%TD*%
D13*
%TO.C,C306*%
X109165000Y-49212107D03*
X109805000Y-49212107D03*
%TD*%
%TO.C,C285*%
X110615000Y-55892107D03*
X111255000Y-55892107D03*
%TD*%
D11*
%TO.C,C267*%
X113005000Y-67892107D03*
X112365000Y-67892107D03*
%TD*%
D13*
%TO.C,C201*%
X112365000Y-53442107D03*
X113005000Y-53442107D03*
%TD*%
D11*
%TO.C,C263*%
X113005000Y-64902107D03*
X112365000Y-64902107D03*
%TD*%
%TO.C,C163*%
X103405000Y-64902107D03*
X102765000Y-64902107D03*
%TD*%
D12*
%TO.C,U47*%
X112460000Y-51087107D03*
X112460000Y-50437107D03*
X112460000Y-49787107D03*
X114360000Y-49787107D03*
X114360000Y-50437107D03*
X114360000Y-51087107D03*
%TD*%
D13*
%TO.C,C185*%
X88215000Y-51662107D03*
X88855000Y-51662107D03*
%TD*%
D11*
%TO.C,C206*%
X95255000Y-67892107D03*
X94615000Y-67892107D03*
%TD*%
D13*
%TO.C,C178*%
X104215000Y-52202107D03*
X104855000Y-52202107D03*
%TD*%
D11*
%TO.C,C252*%
X97005000Y-72122107D03*
X96365000Y-72122107D03*
%TD*%
%TO.C,C143*%
X100205000Y-69132107D03*
X99565000Y-69132107D03*
%TD*%
D13*
%TO.C,C277*%
X107415000Y-49212107D03*
X108055000Y-49212107D03*
%TD*%
%TO.C,C184*%
X86765000Y-51662107D03*
X87405000Y-51662107D03*
%TD*%
%TO.C,C196*%
X99565000Y-53442107D03*
X100205000Y-53442107D03*
%TD*%
D11*
%TO.C,C205*%
X93805000Y-65442107D03*
X93165000Y-65442107D03*
%TD*%
%TO.C,C260*%
X109805000Y-65442107D03*
X109165000Y-65442107D03*
%TD*%
D12*
%TO.C,U41*%
X99660000Y-55317107D03*
X99660000Y-54667107D03*
X99660000Y-54017107D03*
X101560000Y-54017107D03*
X101560000Y-54667107D03*
X101560000Y-55317107D03*
%TD*%
D13*
%TO.C,R47*%
X107415000Y-52902107D03*
X108055000Y-52902107D03*
%TD*%
D15*
%TO.C,U55*%
X114360000Y-66017107D03*
X114360000Y-66667107D03*
X114360000Y-67317107D03*
X112460000Y-67317107D03*
X112460000Y-66667107D03*
X112460000Y-66017107D03*
%TD*%
D13*
%TO.C,C239*%
X93165000Y-55892107D03*
X93805000Y-55892107D03*
%TD*%
%TO.C,C217*%
X107415000Y-53442107D03*
X108055000Y-53442107D03*
%TD*%
D12*
%TO.C,U51*%
X90060000Y-55317107D03*
X90060000Y-54667107D03*
X90060000Y-54017107D03*
X91960000Y-54017107D03*
X91960000Y-54667107D03*
X91960000Y-55317107D03*
%TD*%
D11*
%TO.C,C152*%
X87405000Y-67892107D03*
X86765000Y-67892107D03*
%TD*%
%TO.C,C265*%
X113005000Y-65442107D03*
X112365000Y-65442107D03*
%TD*%
%TO.C,C268*%
X90605000Y-64902107D03*
X89965000Y-64902107D03*
%TD*%
%TO.C,C174*%
X98455000Y-65442107D03*
X97815000Y-65442107D03*
%TD*%
%TO.C,C318*%
X106605000Y-69132107D03*
X105965000Y-69132107D03*
%TD*%
D13*
%TO.C,R50*%
X88215000Y-52902107D03*
X88855000Y-52902107D03*
%TD*%
%TO.C,C297*%
X91415000Y-49212107D03*
X92055000Y-49212107D03*
%TD*%
%TO.C,C307*%
X110615000Y-49212107D03*
X111255000Y-49212107D03*
%TD*%
%TO.C,R40*%
X104215000Y-48672107D03*
X104855000Y-48672107D03*
%TD*%
D11*
%TO.C,C175*%
X97005000Y-65442107D03*
X96365000Y-65442107D03*
%TD*%
%TO.C,R66*%
X113005000Y-72662107D03*
X112365000Y-72662107D03*
%TD*%
D13*
%TO.C,C216*%
X105965000Y-53442107D03*
X106605000Y-53442107D03*
%TD*%
D11*
%TO.C,C271*%
X92055000Y-67892107D03*
X91415000Y-67892107D03*
%TD*%
%TO.C,R68*%
X106605000Y-72662107D03*
X105965000Y-72662107D03*
%TD*%
%TO.C,C270*%
X90605000Y-65442107D03*
X89965000Y-65442107D03*
%TD*%
D12*
%TO.C,U57*%
X106060000Y-51087107D03*
X106060000Y-50437107D03*
X106060000Y-49787107D03*
X107960000Y-49787107D03*
X107960000Y-50437107D03*
X107960000Y-51087107D03*
%TD*%
D11*
%TO.C,C148*%
X87405000Y-64902107D03*
X86765000Y-64902107D03*
%TD*%
D13*
%TO.C,R46*%
X97815000Y-48672107D03*
X98455000Y-48672107D03*
%TD*%
%TO.C,C228*%
X88215000Y-56432107D03*
X88855000Y-56432107D03*
%TD*%
D11*
%TO.C,C156*%
X104855000Y-72122107D03*
X104215000Y-72122107D03*
%TD*%
D13*
%TO.C,R53*%
X91415000Y-52902107D03*
X92055000Y-52902107D03*
%TD*%
D11*
%TO.C,C313*%
X100205000Y-64902107D03*
X99565000Y-64902107D03*
%TD*%
%TO.C,C237*%
X93805000Y-72122107D03*
X93165000Y-72122107D03*
%TD*%
D12*
%TO.C,U34*%
X102860000Y-55317107D03*
X102860000Y-54667107D03*
X102860000Y-54017107D03*
X104760000Y-54017107D03*
X104760000Y-54667107D03*
X104760000Y-55317107D03*
%TD*%
D11*
%TO.C,C168*%
X90605000Y-69132107D03*
X89965000Y-69132107D03*
%TD*%
%TO.C,C292*%
X109805000Y-72122107D03*
X109165000Y-72122107D03*
%TD*%
D13*
%TO.C,C186*%
X86765000Y-49212107D03*
X87405000Y-49212107D03*
%TD*%
D11*
%TO.C,C190*%
X106605000Y-65442107D03*
X105965000Y-65442107D03*
%TD*%
%TO.C,C207*%
X93805000Y-67892107D03*
X93165000Y-67892107D03*
%TD*%
%TO.C,C203*%
X93805000Y-64902107D03*
X93165000Y-64902107D03*
%TD*%
%TO.C,R64*%
X87405000Y-72662107D03*
X86765000Y-72662107D03*
%TD*%
%TO.C,C144*%
X101655000Y-69672107D03*
X101015000Y-69672107D03*
%TD*%
D12*
%TO.C,U39*%
X86860000Y-51087107D03*
X86860000Y-50437107D03*
X86860000Y-49787107D03*
X88760000Y-49787107D03*
X88760000Y-50437107D03*
X88760000Y-51087107D03*
%TD*%
D16*
%TO.C,J2*%
X90000000Y-76367098D03*
X111220000Y-76837098D03*
D17*
X91402500Y-75567098D03*
X91402500Y-77167098D03*
X92037500Y-75567098D03*
X92037500Y-77167098D03*
X92672500Y-75567098D03*
X92672500Y-77167098D03*
X93307500Y-75567098D03*
X93307500Y-77167098D03*
X93942500Y-75567098D03*
X93942500Y-77167098D03*
X94577500Y-75567098D03*
X94577500Y-77167098D03*
X95212500Y-75567098D03*
X95212500Y-77167098D03*
X95847500Y-75567098D03*
X95847500Y-77167098D03*
X96482500Y-75567098D03*
X96482500Y-77167098D03*
X97117500Y-75567098D03*
X97117500Y-77167098D03*
X97752500Y-75567098D03*
X97752500Y-77167098D03*
X98387500Y-75567098D03*
X98387500Y-77167098D03*
X99022500Y-75567098D03*
X99022500Y-77167098D03*
X99657500Y-75567098D03*
X99657500Y-77167098D03*
X100292500Y-75567098D03*
X100292500Y-77167098D03*
X100927500Y-75567098D03*
X100927500Y-77167098D03*
X101562500Y-75567098D03*
X101562500Y-77167098D03*
X102197500Y-75567098D03*
X102197500Y-77167098D03*
X102832500Y-75567098D03*
X102832500Y-77167098D03*
X103467500Y-75567098D03*
X103467500Y-77167098D03*
X104102500Y-75567098D03*
X104102500Y-77167098D03*
X104737500Y-75567098D03*
X104737500Y-77167098D03*
X105372500Y-75567098D03*
X105372500Y-77167098D03*
X106007500Y-75567098D03*
X106007500Y-77167098D03*
X106642500Y-75567098D03*
X106642500Y-77167098D03*
X107277500Y-75567098D03*
X107277500Y-77167098D03*
X107912500Y-75567098D03*
X107912500Y-77167098D03*
X108547500Y-75567098D03*
X108547500Y-77167098D03*
X109182500Y-75567098D03*
X109182500Y-77167098D03*
X109817500Y-75567098D03*
X109817500Y-77167098D03*
%TD*%
D11*
%TO.C,R58*%
X90605000Y-68432107D03*
X89965000Y-68432107D03*
%TD*%
D13*
%TO.C,C226*%
X112365000Y-49212107D03*
X113005000Y-49212107D03*
%TD*%
%TO.C,C246*%
X89965000Y-53442107D03*
X90605000Y-53442107D03*
%TD*%
%TO.C,C294*%
X89965000Y-51662107D03*
X90605000Y-51662107D03*
%TD*%
D11*
%TO.C,R45*%
X93805000Y-68432107D03*
X93165000Y-68432107D03*
%TD*%
D13*
%TO.C,C200*%
X113815000Y-55892107D03*
X114455000Y-55892107D03*
%TD*%
D11*
%TO.C,C262*%
X109805000Y-67892107D03*
X109165000Y-67892107D03*
%TD*%
%TO.C,C155*%
X103405000Y-69672107D03*
X102765000Y-69672107D03*
%TD*%
%TO.C,C290*%
X109805000Y-69672107D03*
X109165000Y-69672107D03*
%TD*%
D13*
%TO.C,C274*%
X105965000Y-51662107D03*
X106605000Y-51662107D03*
%TD*%
%TO.C,C202*%
X113815000Y-53442107D03*
X114455000Y-53442107D03*
%TD*%
D11*
%TO.C,C146*%
X101655000Y-72122107D03*
X101015000Y-72122107D03*
%TD*%
D13*
%TO.C,C159*%
X102765000Y-55892107D03*
X103405000Y-55892107D03*
%TD*%
D11*
%TO.C,C169*%
X92055000Y-69672107D03*
X91415000Y-69672107D03*
%TD*%
%TO.C,C250*%
X97005000Y-69672107D03*
X96365000Y-69672107D03*
%TD*%
D13*
%TO.C,C287*%
X110615000Y-53442107D03*
X111255000Y-53442107D03*
%TD*%
%TO.C,C283*%
X110615000Y-56432107D03*
X111255000Y-56432107D03*
%TD*%
D15*
%TO.C,U33*%
X104760000Y-70247107D03*
X104760000Y-70897107D03*
X104760000Y-71547107D03*
X102860000Y-71547107D03*
X102860000Y-70897107D03*
X102860000Y-70247107D03*
%TD*%
D13*
%TO.C,C221*%
X96365000Y-53442107D03*
X97005000Y-53442107D03*
%TD*%
%TO.C,R65*%
X110615000Y-48672107D03*
X111255000Y-48672107D03*
%TD*%
D11*
%TO.C,C322*%
X106605000Y-72122107D03*
X105965000Y-72122107D03*
%TD*%
%TO.C,C165*%
X103405000Y-65442107D03*
X102765000Y-65442107D03*
%TD*%
%TO.C,C191*%
X108055000Y-67892107D03*
X107415000Y-67892107D03*
%TD*%
D13*
%TO.C,C230*%
X88215000Y-55892107D03*
X88855000Y-55892107D03*
%TD*%
%TO.C,C254*%
X93165000Y-51662107D03*
X93805000Y-51662107D03*
%TD*%
D11*
%TO.C,C288*%
X109805000Y-69132107D03*
X109165000Y-69132107D03*
%TD*%
D15*
%TO.C,U52*%
X98360000Y-70247107D03*
X98360000Y-70897107D03*
X98360000Y-71547107D03*
X96460000Y-71547107D03*
X96460000Y-70897107D03*
X96460000Y-70247107D03*
%TD*%
D11*
%TO.C,C204*%
X95255000Y-65442107D03*
X94615000Y-65442107D03*
%TD*%
D13*
%TO.C,C282*%
X101015000Y-49212107D03*
X101655000Y-49212107D03*
%TD*%
%TO.C,C303*%
X110615000Y-52202107D03*
X111255000Y-52202107D03*
%TD*%
%TO.C,C199*%
X112365000Y-55892107D03*
X113005000Y-55892107D03*
%TD*%
D11*
%TO.C,C173*%
X97005000Y-64902107D03*
X96365000Y-64902107D03*
%TD*%
%TO.C,C289*%
X111255000Y-69672107D03*
X110615000Y-69672107D03*
%TD*%
D14*
%TO.C,FID5*%
X116040000Y-74040000D03*
%TD*%
D12*
%TO.C,U50*%
X93260000Y-55317107D03*
X93260000Y-54667107D03*
X93260000Y-54017107D03*
X95160000Y-54017107D03*
X95160000Y-54667107D03*
X95160000Y-55317107D03*
%TD*%
D11*
%TO.C,C302*%
X87405000Y-72122107D03*
X86765000Y-72122107D03*
%TD*%
D13*
%TO.C,R43*%
X101015000Y-52902107D03*
X101655000Y-52902107D03*
%TD*%
D12*
%TO.C,U45*%
X106060000Y-55317107D03*
X106060000Y-54667107D03*
X106060000Y-54017107D03*
X107960000Y-54017107D03*
X107960000Y-54667107D03*
X107960000Y-55317107D03*
%TD*%
D13*
%TO.C,C179*%
X102765000Y-51662107D03*
X103405000Y-51662107D03*
%TD*%
D11*
%TO.C,C299*%
X88855000Y-69672107D03*
X88215000Y-69672107D03*
%TD*%
D13*
%TO.C,C224*%
X112365000Y-51662107D03*
X113005000Y-51662107D03*
%TD*%
%TO.C,C281*%
X99565000Y-49212107D03*
X100205000Y-49212107D03*
%TD*%
%TO.C,R41*%
X88215000Y-48672107D03*
X88855000Y-48672107D03*
%TD*%
%TO.C,C305*%
X110615000Y-51662107D03*
X111255000Y-51662107D03*
%TD*%
D11*
%TO.C,C145*%
X100205000Y-69672107D03*
X99565000Y-69672107D03*
%TD*%
D13*
%TO.C,R36*%
X104215000Y-52902107D03*
X104855000Y-52902107D03*
%TD*%
%TO.C,C160*%
X104215000Y-55892107D03*
X104855000Y-55892107D03*
%TD*%
D18*
%TO.C,R2*%
X85327107Y-55417114D03*
X85327107Y-54777114D03*
%TD*%
D11*
%TO.C,R57*%
X113005000Y-68432107D03*
X112365000Y-68432107D03*
%TD*%
%TO.C,C177*%
X97005000Y-67892107D03*
X96365000Y-67892107D03*
%TD*%
D13*
%TO.C,R60*%
X101015000Y-48672107D03*
X101655000Y-48672107D03*
%TD*%
%TO.C,C293*%
X91415000Y-52202107D03*
X92055000Y-52202107D03*
%TD*%
%TO.C,C213*%
X107415000Y-56432107D03*
X108055000Y-56432107D03*
%TD*%
%TO.C,C286*%
X109165000Y-53442107D03*
X109805000Y-53442107D03*
%TD*%
D11*
%TO.C,C154*%
X104855000Y-69672107D03*
X104215000Y-69672107D03*
%TD*%
%TO.C,C188*%
X106605000Y-64902107D03*
X105965000Y-64902107D03*
%TD*%
D13*
%TO.C,C220*%
X97815000Y-55892107D03*
X98455000Y-55892107D03*
%TD*%
D11*
%TO.C,C233*%
X93805000Y-69132107D03*
X93165000Y-69132107D03*
%TD*%
%TO.C,R37*%
X103405000Y-68432107D03*
X102765000Y-68432107D03*
%TD*%
D13*
%TO.C,R59*%
X107415000Y-48672107D03*
X108055000Y-48672107D03*
%TD*%
%TO.C,C223*%
X113815000Y-52202107D03*
X114455000Y-52202107D03*
%TD*%
%TO.C,C227*%
X113815000Y-49212107D03*
X114455000Y-49212107D03*
%TD*%
%TO.C,R63*%
X91415000Y-48672107D03*
X92055000Y-48672107D03*
%TD*%
D11*
%TO.C,R51*%
X93805000Y-72662107D03*
X93165000Y-72662107D03*
%TD*%
D15*
%TO.C,U65*%
X101560000Y-66017107D03*
X101560000Y-66667107D03*
X101560000Y-67317107D03*
X99660000Y-67317107D03*
X99660000Y-66667107D03*
X99660000Y-66017107D03*
%TD*%
D13*
%TO.C,C278*%
X101015000Y-52202107D03*
X101655000Y-52202107D03*
%TD*%
D11*
%TO.C,C264*%
X114455000Y-65442107D03*
X113815000Y-65442107D03*
%TD*%
D13*
%TO.C,C242*%
X94615000Y-53442107D03*
X95255000Y-53442107D03*
%TD*%
%TO.C,C241*%
X93165000Y-53442107D03*
X93805000Y-53442107D03*
%TD*%
%TO.C,C219*%
X96365000Y-55892107D03*
X97005000Y-55892107D03*
%TD*%
D11*
%TO.C,R34*%
X87405000Y-68432107D03*
X86765000Y-68432107D03*
%TD*%
%TO.C,C317*%
X100205000Y-67892107D03*
X99565000Y-67892107D03*
%TD*%
D13*
%TO.C,C194*%
X99565000Y-55892107D03*
X100205000Y-55892107D03*
%TD*%
D15*
%TO.C,U40*%
X107960000Y-66017107D03*
X107960000Y-66667107D03*
X107960000Y-67317107D03*
X106060000Y-67317107D03*
X106060000Y-66667107D03*
X106060000Y-66017107D03*
%TD*%
D11*
%TO.C,C147*%
X100205000Y-72122107D03*
X99565000Y-72122107D03*
%TD*%
D13*
%TO.C,C276*%
X105965000Y-49212107D03*
X106605000Y-49212107D03*
%TD*%
D15*
%TO.C,U62*%
X88760000Y-70247107D03*
X88760000Y-70897107D03*
X88760000Y-71547107D03*
X86860000Y-71547107D03*
X86860000Y-70897107D03*
X86860000Y-70247107D03*
%TD*%
D11*
%TO.C,C172*%
X90605000Y-72122107D03*
X89965000Y-72122107D03*
%TD*%
D14*
%TO.C,FID4*%
X85780000Y-73830000D03*
%TD*%
D12*
%TO.C,U53*%
X93260000Y-51087107D03*
X93260000Y-50437107D03*
X93260000Y-49787107D03*
X95160000Y-49787107D03*
X95160000Y-50437107D03*
X95160000Y-51087107D03*
%TD*%
D16*
%TO.C,J1*%
X90000000Y-44967114D03*
X111220000Y-45437114D03*
D17*
X91402500Y-44167114D03*
X91402500Y-45767114D03*
X92037500Y-44167114D03*
X92037500Y-45767114D03*
X92672500Y-44167114D03*
X92672500Y-45767114D03*
X93307500Y-44167114D03*
X93307500Y-45767114D03*
X93942500Y-44167114D03*
X93942500Y-45767114D03*
X94577500Y-44167114D03*
X94577500Y-45767114D03*
X95212500Y-44167114D03*
X95212500Y-45767114D03*
X95847500Y-44167114D03*
X95847500Y-45767114D03*
X96482500Y-44167114D03*
X96482500Y-45767114D03*
X97117500Y-44167114D03*
X97117500Y-45767114D03*
X97752500Y-44167114D03*
X97752500Y-45767114D03*
X98387500Y-44167114D03*
X98387500Y-45767114D03*
X99022500Y-44167114D03*
X99022500Y-45767114D03*
X99657500Y-44167114D03*
X99657500Y-45767114D03*
X100292500Y-44167114D03*
X100292500Y-45767114D03*
X100927500Y-44167114D03*
X100927500Y-45767114D03*
X101562500Y-44167114D03*
X101562500Y-45767114D03*
X102197500Y-44167114D03*
X102197500Y-45767114D03*
X102832500Y-44167114D03*
X102832500Y-45767114D03*
X103467500Y-44167114D03*
X103467500Y-45767114D03*
X104102500Y-44167114D03*
X104102500Y-45767114D03*
X104737500Y-44167114D03*
X104737500Y-45767114D03*
X105372500Y-44167114D03*
X105372500Y-45767114D03*
X106007500Y-44167114D03*
X106007500Y-45767114D03*
X106642500Y-44167114D03*
X106642500Y-45767114D03*
X107277500Y-44167114D03*
X107277500Y-45767114D03*
X107912500Y-44167114D03*
X107912500Y-45767114D03*
X108547500Y-44167114D03*
X108547500Y-45767114D03*
X109182500Y-44167114D03*
X109182500Y-45767114D03*
X109817500Y-44167114D03*
X109817500Y-45767114D03*
%TD*%
D11*
%TO.C,C249*%
X98455000Y-69672107D03*
X97815000Y-69672107D03*
%TD*%
%TO.C,R62*%
X109805000Y-72662107D03*
X109165000Y-72662107D03*
%TD*%
%TO.C,C192*%
X106605000Y-67892107D03*
X105965000Y-67892107D03*
%TD*%
D13*
%TO.C,C279*%
X99565000Y-51662107D03*
X100205000Y-51662107D03*
%TD*%
D11*
%TO.C,C149*%
X88855000Y-65442107D03*
X88215000Y-65442107D03*
%TD*%
D13*
%TO.C,R44*%
X113815000Y-52902107D03*
X114455000Y-52902107D03*
%TD*%
%TO.C,C275*%
X107415000Y-51662107D03*
X108055000Y-51662107D03*
%TD*%
D15*
%TO.C,U64*%
X114360000Y-70247107D03*
X114360000Y-70897107D03*
X114360000Y-71547107D03*
X112460000Y-71547107D03*
X112460000Y-70897107D03*
X112460000Y-70247107D03*
%TD*%
D13*
%TO.C,C247*%
X91415000Y-53442107D03*
X92055000Y-53442107D03*
%TD*%
%TO.C,C245*%
X91415000Y-55892107D03*
X92055000Y-55892107D03*
%TD*%
%TO.C,C197*%
X101015000Y-53442107D03*
X101655000Y-53442107D03*
%TD*%
D11*
%TO.C,R33*%
X100205000Y-72662107D03*
X99565000Y-72662107D03*
%TD*%
D13*
%TO.C,R48*%
X97815000Y-52902107D03*
X98455000Y-52902107D03*
%TD*%
%TO.C,C238*%
X94615000Y-56432107D03*
X95255000Y-56432107D03*
%TD*%
D19*
%TO.C,R1*%
X115897107Y-64509214D03*
X115897107Y-65149214D03*
%TD*%
D11*
%TO.C,C266*%
X114455000Y-67892107D03*
X113815000Y-67892107D03*
%TD*%
%TO.C,C291*%
X111255000Y-72122107D03*
X110615000Y-72122107D03*
%TD*%
%TO.C,C319*%
X108055000Y-69672107D03*
X107415000Y-69672107D03*
%TD*%
D13*
%TO.C,C256*%
X93165000Y-49212107D03*
X93805000Y-49212107D03*
%TD*%
%TO.C,C232*%
X88215000Y-53442107D03*
X88855000Y-53442107D03*
%TD*%
D11*
%TO.C,C272*%
X90605000Y-67892107D03*
X89965000Y-67892107D03*
%TD*%
D12*
%TO.C,U58*%
X99660000Y-51087107D03*
X99660000Y-50437107D03*
X99660000Y-49787107D03*
X101560000Y-49787107D03*
X101560000Y-50437107D03*
X101560000Y-51087107D03*
%TD*%
D13*
%TO.C,C304*%
X109165000Y-51662107D03*
X109805000Y-51662107D03*
%TD*%
D11*
%TO.C,R35*%
X103405000Y-72662107D03*
X102765000Y-72662107D03*
%TD*%
D13*
%TO.C,C193*%
X101015000Y-56432107D03*
X101655000Y-56432107D03*
%TD*%
D12*
%TO.C,U42*%
X112460000Y-55317107D03*
X112460000Y-54667107D03*
X112460000Y-54017107D03*
X114360000Y-54017107D03*
X114360000Y-54667107D03*
X114360000Y-55317107D03*
%TD*%
D11*
%TO.C,C176*%
X98455000Y-67892107D03*
X97815000Y-67892107D03*
%TD*%
D15*
%TO.C,U37*%
X98360000Y-66017107D03*
X98360000Y-66667107D03*
X98360000Y-67317107D03*
X96460000Y-67317107D03*
X96460000Y-66667107D03*
X96460000Y-66017107D03*
%TD*%
D13*
%TO.C,C284*%
X109165000Y-55892107D03*
X109805000Y-55892107D03*
%TD*%
D11*
%TO.C,R42*%
X106605000Y-68432107D03*
X105965000Y-68432107D03*
%TD*%
D13*
%TO.C,C158*%
X104215000Y-56432107D03*
X104855000Y-56432107D03*
%TD*%
D12*
%TO.C,U44*%
X96460000Y-51087107D03*
X96460000Y-50437107D03*
X96460000Y-49787107D03*
X98360000Y-49787107D03*
X98360000Y-50437107D03*
X98360000Y-51087107D03*
%TD*%
D13*
%TO.C,C243*%
X91415000Y-56432107D03*
X92055000Y-56432107D03*
%TD*%
D11*
%TO.C,C320*%
X106605000Y-69672107D03*
X105965000Y-69672107D03*
%TD*%
D13*
%TO.C,R49*%
X113815000Y-48672107D03*
X114455000Y-48672107D03*
%TD*%
D11*
%TO.C,C298*%
X87405000Y-69132107D03*
X86765000Y-69132107D03*
%TD*%
D13*
%TO.C,C244*%
X89965000Y-55892107D03*
X90605000Y-55892107D03*
%TD*%
%TO.C,C296*%
X89965000Y-49212107D03*
X90605000Y-49212107D03*
%TD*%
D11*
%TO.C,C315*%
X100205000Y-65442107D03*
X99565000Y-65442107D03*
%TD*%
D15*
%TO.C,U32*%
X88760000Y-66017107D03*
X88760000Y-66667107D03*
X88760000Y-67317107D03*
X86860000Y-67317107D03*
X86860000Y-66667107D03*
X86860000Y-66017107D03*
%TD*%
%TO.C,U43*%
X95160000Y-66017107D03*
X95160000Y-66667107D03*
X95160000Y-67317107D03*
X93260000Y-67317107D03*
X93260000Y-66667107D03*
X93260000Y-66017107D03*
%TD*%
D13*
%TO.C,C210*%
X97815000Y-51662107D03*
X98455000Y-51662107D03*
%TD*%
D15*
%TO.C,U35*%
X104760000Y-66017107D03*
X104760000Y-66667107D03*
X104760000Y-67317107D03*
X102860000Y-67317107D03*
X102860000Y-66667107D03*
X102860000Y-66017107D03*
%TD*%
D13*
%TO.C,C183*%
X88215000Y-52202107D03*
X88855000Y-52202107D03*
%TD*%
M02*
