M48
; DRILL file {KiCad 9.0.6} date 2025-11-12T11:45:16+0100
; FORMAT={-:-/ absolute / metric / decimal}
; #@! TF.CreationDate,2025-11-12T11:45:16+01:00
; #@! TF.GenerationSoftware,Kicad,Pcbnew,9.0.6
; #@! TF.FileFunction,Plated,8,10,Blind
FMAT,2
METRIC
; #@! TA.AperFunction,Plated,Buried,ViaDrill
T1C0.200
%
G90
G05
T1
X91.8Y-63.337
X92.56Y-64.024
X93.73Y-52.777
X94.85Y-68.657
X96.86Y-47.597
X96.91Y-52.747
X97.68Y-46.707
X97.95Y-73.567
X98.12Y-68.597
X99.31Y-47.747
X99.78Y-47.097
X100.13Y-52.737
X101.24Y-73.977
X101.409Y-68.565
X101.5Y-47.097
X101.99Y-47.737
X103.19Y-52.707
X103.21Y-46.907
X104.06Y-47.697
X104.23Y-68.537
X105.1Y-47.397
X105.35Y-57.637
X106.3Y-52.707
X106.98Y-63.797
X107.61Y-68.627
X109.53Y-52.757
X112.77Y-52.777
M30
