M48
; DRILL file {KiCad 9.0.6} date 2025-11-12T11:45:16+0100
; FORMAT={-:-/ absolute / metric / decimal}
; #@! TF.CreationDate,2025-11-12T11:45:16+01:00
; #@! TF.GenerationSoftware,Kicad,Pcbnew,9.0.6
; #@! TF.FileFunction,Plated,3,10,Blind
FMAT,2
METRIC
; #@! TA.AperFunction,Plated,Buried,ViaDrill
T1C0.200
%
G90
G05
T1
X87.405Y-67.892
X88.215Y-52.902
X90.605Y-67.892
X91.415Y-52.902
X93.805Y-67.892
X94.615Y-53.442
X95.212Y-45.767
X95.847Y-75.567
X96.483Y-45.767
X97.005Y-67.892
X97.117Y-44.167
X97.117Y-75.567
X97.752Y-45.767
X97.815Y-53.442
X98.387Y-44.167
X98.387Y-75.567
X99.022Y-45.767
X99.022Y-77.167
X99.657Y-44.167
X99.657Y-75.567
X100.205Y-67.892
X100.292Y-45.767
X100.292Y-77.167
X100.927Y-44.167
X100.927Y-75.567
X101.015Y-53.442
X101.562Y-45.767
X101.562Y-77.167
X102.197Y-44.167
X102.197Y-75.567
X102.832Y-45.767
X102.832Y-77.167
X103.405Y-67.892
X103.468Y-75.567
X104.102Y-45.767
X104.102Y-77.167
X104.215Y-52.902
X104.737Y-75.567
X105.373Y-45.767
X106.007Y-75.567
X106.605Y-67.892
X107.415Y-53.442
X109.805Y-67.892
X110.615Y-53.442
X113.005Y-67.892
X113.815Y-53.442
M30
