M48
; DRILL file {KiCad 9.0.6} date 2025-11-12T11:45:16+0100
; FORMAT={-:-/ absolute / metric / decimal}
; #@! TF.CreationDate,2025-11-12T11:45:16+01:00
; #@! TF.GenerationSoftware,Kicad,Pcbnew,9.0.6
; #@! TF.FileFunction,Plated,1,7,Blind
FMAT,2
METRIC
; #@! TA.AperFunction,Plated,Buried,ViaDrill
T1C0.200
%
G90
G05
T1
X86.765Y-52.724
X86.782Y-71.03
X86.782Y-50.304
X87.431Y-71.679
X87.431Y-49.655
X88.079Y-72.328
X88.079Y-49.007
X88.728Y-72.976
X88.728Y-48.358
X88.855Y-67.314
X89.377Y-73.625
X89.377Y-47.709
X89.965Y-52.724
X92.055Y-67.314
X93.165Y-48.494
X93.165Y-52.724
X95.255Y-67.314
X95.255Y-71.544
X96.365Y-48.494
X96.365Y-52.724
X98.455Y-67.314
X98.455Y-71.544
X99.565Y-48.494
X99.565Y-52.724
X101.655Y-67.314
X101.655Y-71.544
X102.765Y-48.494
X102.765Y-52.724
X104.855Y-67.314
X104.855Y-71.544
X105.965Y-48.494
X105.965Y-52.724
X108.055Y-67.314
X108.055Y-71.544
X109.165Y-52.724
X111.255Y-67.314
X111.843Y-47.709
X111.843Y-73.625
X112.365Y-52.724
X112.492Y-48.358
X112.492Y-72.976
X113.141Y-49.007
X113.141Y-72.328
X113.789Y-49.655
X113.789Y-71.679
X114.438Y-50.304
X114.438Y-71.03
X114.455Y-67.314
M30
