M48
; DRILL file {KiCad 9.0.6} date 2025-11-12T11:45:16+0100
; FORMAT={-:-/ absolute / metric / decimal}
; #@! TF.CreationDate,2025-11-12T11:45:16+01:00
; #@! TF.GenerationSoftware,Kicad,Pcbnew,9.0.6
; #@! TF.FileFunction,Plated,9,10,Blind
FMAT,2
METRIC
; #@! TA.AperFunction,Plated,Buried,ViaDrill
T1C0.200
%
G90
G05
T1
X86.855Y-54.677
X86.86Y-70.887
X86.86Y-71.537
X86.86Y-50.437
X86.875Y-66.667
X86.875Y-67.317
X87.39Y-69.672
X87.4Y-55.902
X87.405Y-51.662
X87.405Y-65.452
X88.215Y-69.662
X88.225Y-55.892
X88.23Y-51.652
X88.23Y-65.442
X88.755Y-54.027
X88.755Y-54.677
X88.76Y-70.887
X88.76Y-49.787
X88.76Y-50.437
X88.775Y-66.667
X90.035Y-54.667
X90.045Y-50.447
X90.05Y-70.897
X90.05Y-71.547
X90.07Y-66.667
X90.07Y-67.317
X90.58Y-55.892
X90.58Y-69.682
X90.59Y-51.672
X90.6Y-65.452
X91.405Y-55.882
X91.405Y-69.672
X91.415Y-51.662
X91.425Y-65.442
X91.935Y-54.017
X91.935Y-54.667
X91.945Y-49.797
X91.945Y-50.447
X91.95Y-70.897
X91.97Y-66.667
X93.245Y-54.677
X93.265Y-50.437
X93.27Y-70.897
X93.27Y-71.547
X93.28Y-66.657
X93.28Y-67.307
X93.79Y-55.902
X93.8Y-69.682
X93.81Y-51.662
X93.81Y-65.442
X94.615Y-55.892
X94.625Y-69.672
X94.635Y-51.652
X94.635Y-65.432
X95.145Y-54.027
X95.145Y-54.677
X95.165Y-49.787
X95.165Y-50.437
X95.17Y-70.897
X95.18Y-66.657
X96.445Y-54.677
X96.455Y-50.437
X96.47Y-66.657
X96.47Y-67.307
X96.48Y-70.887
X96.48Y-71.537
X96.99Y-55.902
X97.0Y-51.662
X97.0Y-65.442
X97.01Y-69.672
X97.815Y-55.892
X97.825Y-51.652
X97.825Y-65.432
X97.835Y-69.662
X98.345Y-54.027
X98.345Y-54.677
X98.355Y-49.787
X98.355Y-50.437
X98.37Y-66.657
X98.38Y-70.887
X99.645Y-50.447
X99.665Y-54.677
X99.67Y-66.667
X99.67Y-67.317
X99.68Y-70.907
X99.68Y-71.557
X100.19Y-51.672
X100.2Y-65.452
X100.21Y-55.902
X100.21Y-69.692
X101.015Y-51.662
X101.025Y-65.442
X101.035Y-55.892
X101.035Y-69.682
X101.545Y-49.797
X101.545Y-50.447
X101.565Y-54.027
X101.565Y-54.677
X101.57Y-66.667
X101.58Y-70.907
X102.855Y-50.437
X102.855Y-54.667
X102.86Y-70.907
X102.86Y-71.557
X102.87Y-66.657
X102.87Y-67.307
X103.39Y-69.692
X103.4Y-51.662
X103.4Y-55.892
X103.4Y-65.442
X104.215Y-69.682
X104.225Y-51.652
X104.225Y-55.882
X104.225Y-65.432
X104.755Y-49.787
X104.755Y-50.437
X104.755Y-54.017
X104.755Y-54.667
X104.76Y-70.907
X104.77Y-66.657
X106.055Y-50.437
X106.055Y-54.677
X106.06Y-70.897
X106.06Y-71.547
X106.07Y-66.667
X106.07Y-67.317
X106.59Y-69.682
X106.6Y-51.662
X106.6Y-55.902
X106.6Y-65.452
X107.415Y-69.672
X107.425Y-51.652
X107.425Y-55.892
X107.425Y-65.442
X107.955Y-49.787
X107.955Y-50.437
X107.955Y-54.027
X107.955Y-54.677
X107.96Y-70.897
X107.97Y-66.667
X109.255Y-50.437
X109.26Y-70.887
X109.26Y-71.537
X109.265Y-54.677
X109.27Y-66.667
X109.27Y-67.317
X109.79Y-69.672
X109.8Y-51.662
X109.8Y-65.452
X109.81Y-55.902
X110.615Y-69.662
X110.625Y-51.652
X110.625Y-65.442
X110.635Y-55.892
X111.155Y-49.787
X111.155Y-50.437
X111.16Y-70.887
X111.165Y-54.027
X111.165Y-54.677
X111.17Y-66.667
X112.455Y-50.437
X112.455Y-54.677
X112.46Y-70.887
X112.46Y-71.537
X112.47Y-66.667
X112.47Y-67.317
X112.99Y-69.672
X113.0Y-51.662
X113.0Y-55.902
X113.0Y-65.452
X113.815Y-69.662
X113.825Y-51.652
X113.825Y-55.892
X113.825Y-65.442
X114.355Y-49.787
X114.355Y-50.437
X114.355Y-54.027
X114.355Y-54.677
X114.36Y-70.887
X114.37Y-66.667
M30
