M48
; DRILL file {KiCad 9.0.6} date 2025-11-12T11:45:16+0100
; FORMAT={-:-/ absolute / metric / decimal}
; #@! TF.CreationDate,2025-11-12T11:45:16+01:00
; #@! TF.GenerationSoftware,Kicad,Pcbnew,9.0.6
; #@! TF.FileFunction,Plated,5,10,Blind
FMAT,2
METRIC
; #@! TA.AperFunction,Plated,Buried,ViaDrill
T1C0.200
%
G90
G05
T1
X86.765Y-51.662
X86.765Y-55.892
X88.855Y-65.442
X88.855Y-69.672
X89.965Y-51.662
X89.965Y-55.892
X92.055Y-65.442
X92.055Y-69.672
X92.672Y-77.167
X93.165Y-51.662
X93.165Y-55.892
X93.307Y-77.167
X93.942Y-77.167
X94.578Y-77.167
X95.212Y-77.167
X95.255Y-65.442
X95.255Y-69.672
X96.365Y-51.662
X96.365Y-55.892
X98.455Y-65.442
X98.455Y-69.672
X99.565Y-51.662
X99.565Y-55.892
X101.655Y-65.442
X101.655Y-69.672
X102.765Y-51.662
X102.765Y-55.892
X104.855Y-65.442
X104.855Y-69.672
X105.965Y-51.662
X105.965Y-55.892
X106.007Y-44.167
X106.642Y-44.167
X107.277Y-44.167
X107.912Y-44.167
X108.055Y-65.442
X108.055Y-69.672
X108.547Y-44.167
X109.165Y-51.662
X109.165Y-55.892
X111.255Y-65.442
X111.255Y-69.672
X112.365Y-51.662
X112.365Y-55.892
X114.455Y-65.442
X114.455Y-69.672
M30
