M48
; DRILL file {KiCad 9.0.6} date 2025-11-12T11:45:16+0100
; FORMAT={-:-/ absolute / metric / decimal}
; #@! TF.CreationDate,2025-11-12T11:45:16+01:00
; #@! TF.GenerationSoftware,Kicad,Pcbnew,9.0.6
; #@! TF.FileFunction,Plated,1,4,Blind
FMAT,2
METRIC
; #@! TA.AperFunction,Plated,Buried,ViaDrill
T1C0.200
%
G90
G05
T1
X84.808Y-62.805
X85.91Y-58.171
X85.91Y-63.163
X86.89Y-58.171
X86.89Y-63.163
X87.87Y-58.171
X87.87Y-63.163
X88.85Y-58.171
X88.85Y-63.163
X89.83Y-58.171
X89.83Y-63.163
X90.81Y-58.171
X90.81Y-63.163
X91.79Y-58.171
X91.79Y-63.163
X92.77Y-58.171
X92.77Y-63.163
X93.75Y-58.171
X93.75Y-63.163
X94.73Y-58.171
X94.73Y-63.163
X95.71Y-58.171
X95.71Y-63.163
X96.69Y-58.171
X96.69Y-63.163
X97.67Y-58.171
X97.67Y-63.163
X98.65Y-58.171
X98.65Y-63.163
X99.63Y-58.171
X99.63Y-63.163
X100.61Y-58.171
X100.61Y-63.163
X101.59Y-58.171
X101.59Y-63.163
X102.57Y-58.171
X102.57Y-63.163
X103.55Y-58.171
X103.55Y-63.163
X104.53Y-58.171
X104.53Y-63.163
X105.51Y-58.171
X105.51Y-63.163
X106.49Y-58.171
X106.49Y-63.163
X107.47Y-58.171
X107.47Y-63.163
X108.45Y-58.171
X108.45Y-63.163
X109.43Y-58.171
X109.43Y-63.163
X110.41Y-58.171
X110.41Y-63.163
X111.39Y-58.171
X111.39Y-63.163
X112.37Y-58.171
X112.37Y-63.163
X113.35Y-58.171
X113.35Y-63.163
X114.33Y-58.171
X114.33Y-63.163
X115.31Y-58.171
X115.31Y-63.163
X116.4Y-58.52
M30
