M48
; DRILL file {KiCad 9.0.6} date 2025-11-12T11:45:16+0100
; FORMAT={-:-/ absolute / metric / decimal}
; #@! TF.CreationDate,2025-11-12T11:45:16+01:00
; #@! TF.GenerationSoftware,Kicad,Pcbnew,9.0.6
; #@! TF.FileFunction,Plated,1,5,Blind
FMAT,2
METRIC
; #@! TA.AperFunction,Plated,Buried,ViaDrill
T1C0.200
%
G90
G05
T1
X86.765Y-64.324
X88.855Y-55.714
X89.965Y-64.324
X92.055Y-55.714
X93.165Y-64.324
X93.165Y-68.554
X95.255Y-51.484
X95.255Y-55.714
X96.365Y-64.324
X96.365Y-68.554
X98.455Y-51.484
X98.455Y-55.714
X99.565Y-64.324
X99.565Y-68.554
X101.655Y-51.484
X101.655Y-55.714
X102.765Y-64.324
X102.765Y-68.554
X104.855Y-51.484
X104.855Y-55.714
X105.965Y-64.324
X105.965Y-68.554
X108.055Y-51.484
X108.055Y-55.714
X109.165Y-64.324
X111.255Y-55.714
X112.365Y-64.324
X114.455Y-55.714
M30
