%TF.GenerationSoftware,KiCad,Pcbnew,9.0.6*%
%TF.CreationDate,2025-11-12T11:45:24+01:00*%
%TF.ProjectId,S13552_64Ch_Adapter_BGA2803_V2,53313335-3532-45f3-9634-43685f416461,1*%
%TF.SameCoordinates,Original*%
%TF.FileFunction,Soldermask,Top*%
%TF.FilePolarity,Negative*%
%FSLAX46Y46*%
G04 Gerber Fmt 4.6, Leading zero omitted, Abs format (unit mm)*
G04 Created by KiCad (PCBNEW 9.0.6) date 2025-11-12 11:45:24*
%MOMM*%
%LPD*%
G01*
G04 APERTURE LIST*
G04 Aperture macros list*
%AMRoundRect*
0 Rectangle with rounded corners*
0 $1 Rounding radius*
0 $2 $3 $4 $5 $6 $7 $8 $9 X,Y pos of 4 corners*
0 Add a 4 corners polygon primitive as box body*
4,1,4,$2,$3,$4,$5,$6,$7,$8,$9,$2,$3,0*
0 Add four circle primitives for the rounded corners*
1,1,$1+$1,$2,$3*
1,1,$1+$1,$4,$5*
1,1,$1+$1,$6,$7*
1,1,$1+$1,$8,$9*
0 Add four rect primitives between the rounded corners*
20,1,$1+$1,$2,$3,$4,$5,0*
20,1,$1+$1,$4,$5,$6,$7,0*
20,1,$1+$1,$6,$7,$8,$9,0*
20,1,$1+$1,$8,$9,$2,$3,0*%
G04 Aperture macros list end*
%ADD10RoundRect,0.100000X0.130000X0.100000X-0.130000X0.100000X-0.130000X-0.100000X0.130000X-0.100000X0*%
%ADD11C,1.000000*%
%ADD12RoundRect,0.100000X-0.130000X-0.100000X0.130000X-0.100000X0.130000X0.100000X-0.130000X0.100000X0*%
%ADD13RoundRect,0.140000X-0.021213X0.219203X-0.219203X0.021213X0.021213X-0.219203X0.219203X-0.021213X0*%
%ADD14RoundRect,0.100000X0.225000X0.100000X-0.225000X0.100000X-0.225000X-0.100000X0.225000X-0.100000X0*%
%ADD15O,3.000000X2.600000*%
%ADD16RoundRect,0.100000X-0.225000X-0.100000X0.225000X-0.100000X0.225000X0.100000X-0.225000X0.100000X0*%
%ADD17RoundRect,0.140000X-0.219203X-0.021213X-0.021213X-0.219203X0.219203X0.021213X0.021213X0.219203X0*%
%ADD18RoundRect,0.140000X0.219203X0.021213X0.021213X0.219203X-0.219203X-0.021213X-0.021213X-0.219203X0*%
%ADD19RoundRect,0.225000X-0.250000X0.225000X-0.250000X-0.225000X0.250000X-0.225000X0.250000X0.225000X0*%
%ADD20RoundRect,0.140000X0.021213X-0.219203X0.219203X-0.021213X-0.021213X0.219203X-0.219203X0.021213X0*%
%ADD21C,0.450000*%
%ADD22RoundRect,0.225000X0.250000X-0.225000X0.250000X0.225000X-0.250000X0.225000X-0.250000X-0.225000X0*%
%ADD23C,0.950000*%
G04 APERTURE END LIST*
D10*
%TO.C,C66*%
X92055000Y-53264214D03*
X91415000Y-53264214D03*
%TD*%
%TO.C,C21*%
X101655000Y-53264214D03*
X101015000Y-53264214D03*
%TD*%
%TO.C,C39*%
X114455000Y-55714214D03*
X113815000Y-55714214D03*
%TD*%
D11*
%TO.C,FID1*%
X111130000Y-75370000D03*
%TD*%
D10*
%TO.C,R8*%
X100205000Y-52724214D03*
X99565000Y-52724214D03*
%TD*%
%TO.C,C34*%
X111255000Y-55714214D03*
X110615000Y-55714214D03*
%TD*%
%TO.C,C45*%
X93805000Y-51484214D03*
X93165000Y-51484214D03*
%TD*%
D12*
%TO.C,C83*%
X104215000Y-63784214D03*
X104855000Y-63784214D03*
%TD*%
%TO.C,C84*%
X102765000Y-64324214D03*
X103405000Y-64324214D03*
%TD*%
%TO.C,C127*%
X97815000Y-66774214D03*
X98455000Y-66774214D03*
%TD*%
%TO.C,R29*%
X97815000Y-67314214D03*
X98455000Y-67314214D03*
%TD*%
%TO.C,C136*%
X86765000Y-66774214D03*
X87405000Y-66774214D03*
%TD*%
D10*
%TO.C,C25*%
X103405000Y-55714214D03*
X102765000Y-55714214D03*
%TD*%
D13*
%TO.C,C329*%
X88728181Y-72976457D03*
X88049359Y-73655279D03*
%TD*%
D14*
%TO.C,U16*%
X107960000Y-50909214D03*
X107960000Y-50259214D03*
X107960000Y-49609214D03*
X106060000Y-49609214D03*
X106060000Y-50259214D03*
X106060000Y-50909214D03*
%TD*%
D15*
%TO.C,H102*%
X86340000Y-45167114D03*
%TD*%
D10*
%TO.C,C69*%
X108055000Y-51484214D03*
X107415000Y-51484214D03*
%TD*%
D12*
%TO.C,C109*%
X96365000Y-68554214D03*
X97005000Y-68554214D03*
%TD*%
D14*
%TO.C,U10*%
X114360000Y-55139214D03*
X114360000Y-54489214D03*
X114360000Y-53839214D03*
X112460000Y-53839214D03*
X112460000Y-54489214D03*
X112460000Y-55139214D03*
%TD*%
D16*
%TO.C,U18*%
X106060000Y-64899214D03*
X106060000Y-65549214D03*
X106060000Y-66199214D03*
X107960000Y-66199214D03*
X107960000Y-65549214D03*
X107960000Y-64899214D03*
%TD*%
D12*
%TO.C,C87*%
X104215000Y-66774214D03*
X104855000Y-66774214D03*
%TD*%
D10*
%TO.C,C12*%
X93805000Y-53264214D03*
X93165000Y-53264214D03*
%TD*%
%TO.C,C59*%
X104855000Y-51484214D03*
X104215000Y-51484214D03*
%TD*%
D16*
%TO.C,U17*%
X109260000Y-64899214D03*
X109260000Y-65549214D03*
X109260000Y-66199214D03*
X111160000Y-66199214D03*
X111160000Y-65549214D03*
X111160000Y-64899214D03*
%TD*%
D17*
%TO.C,C340*%
X113140589Y-72327687D03*
X113819411Y-73006509D03*
%TD*%
D10*
%TO.C,R16*%
X103405000Y-48494214D03*
X102765000Y-48494214D03*
%TD*%
%TO.C,C60*%
X103405000Y-51484214D03*
X102765000Y-51484214D03*
%TD*%
D12*
%TO.C,C89*%
X99565000Y-68554214D03*
X100205000Y-68554214D03*
%TD*%
%TO.C,C125*%
X97815000Y-64324214D03*
X98455000Y-64324214D03*
%TD*%
%TO.C,R26*%
X97815000Y-71544214D03*
X98455000Y-71544214D03*
%TD*%
%TO.C,C85*%
X104215000Y-64324214D03*
X104855000Y-64324214D03*
%TD*%
%TO.C,C108*%
X97815000Y-68014214D03*
X98455000Y-68014214D03*
%TD*%
%TO.C,C107*%
X94615000Y-66774214D03*
X95255000Y-66774214D03*
%TD*%
D16*
%TO.C,U23*%
X93260000Y-64899214D03*
X93260000Y-65549214D03*
X93260000Y-66199214D03*
X95160000Y-66199214D03*
X95160000Y-65549214D03*
X95160000Y-64899214D03*
%TD*%
D12*
%TO.C,C129*%
X105965000Y-68554214D03*
X106605000Y-68554214D03*
%TD*%
D14*
%TO.C,U8*%
X107960000Y-55139214D03*
X107960000Y-54489214D03*
X107960000Y-53839214D03*
X106060000Y-53839214D03*
X106060000Y-54489214D03*
X106060000Y-55139214D03*
%TD*%
%TO.C,U9*%
X111160000Y-55139214D03*
X111160000Y-54489214D03*
X111160000Y-53839214D03*
X109260000Y-53839214D03*
X109260000Y-54489214D03*
X109260000Y-55139214D03*
%TD*%
D10*
%TO.C,C62*%
X103405000Y-49034214D03*
X102765000Y-49034214D03*
%TD*%
D12*
%TO.C,C122*%
X104215000Y-71004214D03*
X104855000Y-71004214D03*
%TD*%
D18*
%TO.C,C324*%
X87430642Y-49655288D03*
X86751820Y-48976466D03*
%TD*%
D13*
%TO.C,C332*%
X86781870Y-71030146D03*
X86103048Y-71708968D03*
%TD*%
D19*
%TO.C,C1*%
X115897107Y-64054214D03*
X115897107Y-65604214D03*
%TD*%
D18*
%TO.C,C323*%
X86781871Y-50304059D03*
X86103049Y-49625237D03*
%TD*%
D16*
%TO.C,U22*%
X112460000Y-64899214D03*
X112460000Y-65549214D03*
X112460000Y-66199214D03*
X114360000Y-66199214D03*
X114360000Y-65549214D03*
X114360000Y-64899214D03*
%TD*%
D12*
%TO.C,C75*%
X110615000Y-64324214D03*
X111255000Y-64324214D03*
%TD*%
%TO.C,C117*%
X94615000Y-71004214D03*
X95255000Y-71004214D03*
%TD*%
D10*
%TO.C,C4*%
X88855000Y-55714214D03*
X88215000Y-55714214D03*
%TD*%
D12*
%TO.C,C92*%
X101015000Y-71004214D03*
X101655000Y-71004214D03*
%TD*%
%TO.C,C128*%
X107415000Y-68014214D03*
X108055000Y-68014214D03*
%TD*%
%TO.C,C138*%
X101015000Y-63784214D03*
X101655000Y-63784214D03*
%TD*%
%TO.C,R28*%
X104215000Y-71544214D03*
X104855000Y-71544214D03*
%TD*%
D10*
%TO.C,C53*%
X100205000Y-52024214D03*
X99565000Y-52024214D03*
%TD*%
%TO.C,C40*%
X113005000Y-55714214D03*
X112365000Y-55714214D03*
%TD*%
D15*
%TO.C,H104*%
X114879999Y-76167098D03*
%TD*%
D18*
%TO.C,C325*%
X88079412Y-49006518D03*
X87400590Y-48327696D03*
%TD*%
D12*
%TO.C,C142*%
X101015000Y-66774214D03*
X101655000Y-66774214D03*
%TD*%
D10*
%TO.C,C8*%
X93805000Y-56254214D03*
X93165000Y-56254214D03*
%TD*%
%TO.C,R13*%
X93805000Y-48494214D03*
X93165000Y-48494214D03*
%TD*%
D12*
%TO.C,C132*%
X107415000Y-71004214D03*
X108055000Y-71004214D03*
%TD*%
D16*
%TO.C,U20*%
X99660000Y-69129214D03*
X99660000Y-69779214D03*
X99660000Y-70429214D03*
X101560000Y-70429214D03*
X101560000Y-69779214D03*
X101560000Y-69129214D03*
%TD*%
D12*
%TO.C,R24*%
X113815000Y-67314214D03*
X114455000Y-67314214D03*
%TD*%
D13*
%TO.C,C330*%
X88079411Y-72327687D03*
X87400589Y-73006509D03*
%TD*%
D10*
%TO.C,C37*%
X109805000Y-53264214D03*
X109165000Y-53264214D03*
%TD*%
D14*
%TO.C,U14*%
X104760000Y-50909214D03*
X104760000Y-50259214D03*
X104760000Y-49609214D03*
X102860000Y-49609214D03*
X102860000Y-50259214D03*
X102860000Y-50909214D03*
%TD*%
D12*
%TO.C,C76*%
X109165000Y-66774214D03*
X109805000Y-66774214D03*
%TD*%
%TO.C,C74*%
X109165000Y-64324214D03*
X109805000Y-64324214D03*
%TD*%
D10*
%TO.C,C35*%
X109805000Y-55714214D03*
X109165000Y-55714214D03*
%TD*%
D12*
%TO.C,C134*%
X86765000Y-64324214D03*
X87405000Y-64324214D03*
%TD*%
D14*
%TO.C,U4*%
X95160000Y-55139214D03*
X95160000Y-54489214D03*
X95160000Y-53839214D03*
X93260000Y-53839214D03*
X93260000Y-54489214D03*
X93260000Y-55139214D03*
%TD*%
D17*
%TO.C,C338*%
X114438130Y-71030146D03*
X115116952Y-71708968D03*
%TD*%
D10*
%TO.C,C72*%
X106605000Y-49034214D03*
X105965000Y-49034214D03*
%TD*%
D12*
%TO.C,C99*%
X112365000Y-64324214D03*
X113005000Y-64324214D03*
%TD*%
%TO.C,C73*%
X110615000Y-63784214D03*
X111255000Y-63784214D03*
%TD*%
D15*
%TO.C,H103*%
X86340000Y-76167098D03*
%TD*%
D10*
%TO.C,C14*%
X98455000Y-55714214D03*
X97815000Y-55714214D03*
%TD*%
D16*
%TO.C,U19*%
X102860000Y-64899214D03*
X102860000Y-65549214D03*
X102860000Y-66199214D03*
X104760000Y-66199214D03*
X104760000Y-65549214D03*
X104760000Y-64899214D03*
%TD*%
D12*
%TO.C,C112*%
X97815000Y-71004214D03*
X98455000Y-71004214D03*
%TD*%
D10*
%TO.C,C70*%
X106605000Y-51484214D03*
X105965000Y-51484214D03*
%TD*%
%TO.C,C5*%
X87405000Y-55714214D03*
X86765000Y-55714214D03*
%TD*%
D16*
%TO.C,U24*%
X96460000Y-69129214D03*
X96460000Y-69779214D03*
X96460000Y-70429214D03*
X98360000Y-70429214D03*
X98360000Y-69779214D03*
X98360000Y-69129214D03*
%TD*%
D10*
%TO.C,C20*%
X100205000Y-55714214D03*
X99565000Y-55714214D03*
%TD*%
D11*
%TO.C,FID3*%
X86260000Y-69372107D03*
%TD*%
D10*
%TO.C,C23*%
X103405000Y-56254214D03*
X102765000Y-56254214D03*
%TD*%
%TO.C,R201*%
X87405000Y-52724214D03*
X86765000Y-52724214D03*
%TD*%
D12*
%TO.C,C110*%
X97815000Y-68554214D03*
X98455000Y-68554214D03*
%TD*%
D14*
%TO.C,U7*%
X104760000Y-55139214D03*
X104760000Y-54489214D03*
X104760000Y-53839214D03*
X102860000Y-53839214D03*
X102860000Y-54489214D03*
X102860000Y-55139214D03*
%TD*%
D10*
%TO.C,C28*%
X106605000Y-56254214D03*
X105965000Y-56254214D03*
%TD*%
D12*
%TO.C,C141*%
X99565000Y-66774214D03*
X100205000Y-66774214D03*
%TD*%
D10*
%TO.C,C65*%
X90605000Y-55714214D03*
X89965000Y-55714214D03*
%TD*%
D16*
%TO.C,U28*%
X106060000Y-69129214D03*
X106060000Y-69779214D03*
X106060000Y-70429214D03*
X107960000Y-70429214D03*
X107960000Y-69779214D03*
X107960000Y-69129214D03*
%TD*%
D10*
%TO.C,C6*%
X88855000Y-53264214D03*
X88215000Y-53264214D03*
%TD*%
D12*
%TO.C,C82*%
X107415000Y-66774214D03*
X108055000Y-66774214D03*
%TD*%
D10*
%TO.C,R18*%
X106605000Y-48494214D03*
X105965000Y-48494214D03*
%TD*%
D20*
%TO.C,C336*%
X113789359Y-49655288D03*
X114468181Y-48976466D03*
%TD*%
D21*
%TO.C,MPPC1*%
X116290000Y-59117107D03*
X115800000Y-62817107D03*
X115800000Y-58517107D03*
X115310000Y-62217107D03*
X115310000Y-59117107D03*
X114820000Y-62817107D03*
X114820000Y-58517107D03*
X114330000Y-62217107D03*
X114330000Y-59117107D03*
X113840000Y-62817107D03*
X113840000Y-58517107D03*
X113350000Y-62217107D03*
X113350000Y-59117107D03*
X112860000Y-62817107D03*
X112860000Y-58517107D03*
X112370000Y-62217107D03*
X112370000Y-59117107D03*
X111880000Y-62817107D03*
X111880000Y-58517107D03*
X111390000Y-62217107D03*
X111390000Y-59117107D03*
X110900000Y-62817107D03*
X110900000Y-58517107D03*
X110410000Y-62217107D03*
X110410000Y-59117107D03*
X109920000Y-62817107D03*
X109920000Y-58517107D03*
X109430000Y-62217107D03*
X109430000Y-59117107D03*
X108940000Y-62817107D03*
X108940000Y-58517107D03*
X108450000Y-62217107D03*
X108450000Y-59117107D03*
X107960000Y-62817107D03*
X107960000Y-58517107D03*
X107470000Y-62217107D03*
X107470000Y-59117107D03*
X106980000Y-62817107D03*
X106980000Y-58517107D03*
X106490000Y-62217107D03*
X106490000Y-59117107D03*
X106000000Y-62817107D03*
X106000000Y-58517107D03*
X105510000Y-62217107D03*
X105510000Y-59117107D03*
X105020000Y-62817107D03*
X105020000Y-58517107D03*
X104530000Y-62217107D03*
X104530000Y-59117107D03*
X104040000Y-62817107D03*
X104040000Y-58517107D03*
X103550000Y-62217107D03*
X103550000Y-59117107D03*
X103060000Y-62817107D03*
X103060000Y-58517107D03*
X102570000Y-62217107D03*
X102570000Y-59117107D03*
X102080000Y-62817107D03*
X102080000Y-58517107D03*
X101590000Y-62217107D03*
X101590000Y-59117107D03*
X101100000Y-62817107D03*
X101100000Y-58517107D03*
X100610000Y-62217107D03*
X100610000Y-59117107D03*
X100120000Y-62817107D03*
X100120000Y-58517107D03*
X99630000Y-62217107D03*
X99630000Y-59117107D03*
X99140000Y-62817107D03*
X99140000Y-58517107D03*
X98650000Y-62217107D03*
X98650000Y-59117107D03*
X98160000Y-62817107D03*
X98160000Y-58517107D03*
X97670000Y-62217107D03*
X97670000Y-59117107D03*
X97180000Y-62817107D03*
X97180000Y-58517107D03*
X96690000Y-62217107D03*
X96690000Y-59117107D03*
X96200000Y-62817107D03*
X96200000Y-58517107D03*
X95710000Y-62217107D03*
X95710000Y-59117107D03*
X95220000Y-62817107D03*
X95220000Y-58517107D03*
X94730000Y-62217107D03*
X94730000Y-59117107D03*
X94240000Y-62817107D03*
X94240000Y-58517107D03*
X93750000Y-62217107D03*
X93750000Y-59117107D03*
X93260000Y-62817107D03*
X93260000Y-58517107D03*
X92770000Y-62217107D03*
X92770000Y-59117107D03*
X92280000Y-62817107D03*
X92280000Y-58517107D03*
X91790000Y-62217107D03*
X91790000Y-59117107D03*
X91300000Y-62817107D03*
X91300000Y-58517107D03*
X90810000Y-62217107D03*
X90810000Y-59117107D03*
X90320000Y-62817107D03*
X90320000Y-58517107D03*
X89830000Y-62217107D03*
X89830000Y-59117107D03*
X89340000Y-62817107D03*
X89340000Y-58517107D03*
X88850000Y-62217107D03*
X88850000Y-59117107D03*
X88360000Y-62817107D03*
X88360000Y-58517107D03*
X87870000Y-62217107D03*
X87870000Y-59117107D03*
X87380000Y-62817107D03*
X87380000Y-58517107D03*
X86890000Y-62217107D03*
X86890000Y-59117107D03*
X86400000Y-62817107D03*
X86400000Y-58517107D03*
X85910000Y-62217107D03*
X85910000Y-59117107D03*
X85420000Y-62817107D03*
X85420000Y-58517107D03*
X84930000Y-62217107D03*
X101100000Y-60667107D03*
X102080000Y-60667107D03*
X103060000Y-60667107D03*
X104040000Y-60667107D03*
X105020000Y-60667107D03*
X106000000Y-60667107D03*
X106980000Y-60667107D03*
X107960000Y-60667107D03*
X108940000Y-60667107D03*
X109920000Y-60667107D03*
X110900000Y-60667107D03*
X111880000Y-60667107D03*
X112860000Y-60667107D03*
X113840000Y-60667107D03*
X114820000Y-60667107D03*
X115800000Y-60667107D03*
X116290000Y-62217107D03*
X84930000Y-59117107D03*
X85420000Y-60667107D03*
X86400000Y-60667107D03*
X87380000Y-60667107D03*
X88360000Y-60667107D03*
X89340000Y-60667107D03*
X90320000Y-60667107D03*
X91300000Y-60667107D03*
X92280000Y-60667107D03*
X93260000Y-60667107D03*
X94240000Y-60667107D03*
X95220000Y-60667107D03*
X96200000Y-60667107D03*
X97180000Y-60667107D03*
X98160000Y-60667107D03*
X99140000Y-60667107D03*
X100120000Y-60667107D03*
%TD*%
D12*
%TO.C,C121*%
X102765000Y-71004214D03*
X103405000Y-71004214D03*
%TD*%
D10*
%TO.C,C38*%
X113005000Y-56254214D03*
X112365000Y-56254214D03*
%TD*%
D12*
%TO.C,C115*%
X94615000Y-68554214D03*
X95255000Y-68554214D03*
%TD*%
%TO.C,R32*%
X101015000Y-67314214D03*
X101655000Y-67314214D03*
%TD*%
D10*
%TO.C,R10*%
X106605000Y-52724214D03*
X105965000Y-52724214D03*
%TD*%
D12*
%TO.C,C81*%
X105965000Y-66774214D03*
X106605000Y-66774214D03*
%TD*%
D10*
%TO.C,C71*%
X108055000Y-49034214D03*
X107415000Y-49034214D03*
%TD*%
%TO.C,C58*%
X103405000Y-52024214D03*
X102765000Y-52024214D03*
%TD*%
%TO.C,C16*%
X98455000Y-53264214D03*
X97815000Y-53264214D03*
%TD*%
D12*
%TO.C,C123*%
X97815000Y-63784214D03*
X98455000Y-63784214D03*
%TD*%
D10*
%TO.C,C43*%
X93805000Y-52024214D03*
X93165000Y-52024214D03*
%TD*%
%TO.C,C63*%
X90605000Y-56254214D03*
X89965000Y-56254214D03*
%TD*%
D12*
%TO.C,C102*%
X113815000Y-66774214D03*
X114455000Y-66774214D03*
%TD*%
D10*
%TO.C,R12*%
X113005000Y-52724214D03*
X112365000Y-52724214D03*
%TD*%
D12*
%TO.C,R25*%
X94615000Y-67314214D03*
X95255000Y-67314214D03*
%TD*%
%TO.C,C91*%
X99565000Y-71004214D03*
X100205000Y-71004214D03*
%TD*%
D17*
%TO.C,C342*%
X111843048Y-73625228D03*
X112521870Y-74304050D03*
%TD*%
D12*
%TO.C,C131*%
X105965000Y-71004214D03*
X106605000Y-71004214D03*
%TD*%
D13*
%TO.C,C331*%
X87430641Y-71678917D03*
X86751819Y-72357739D03*
%TD*%
D14*
%TO.C,U201*%
X88760000Y-55139214D03*
X88760000Y-54489214D03*
X88760000Y-53839214D03*
X86860000Y-53839214D03*
X86860000Y-54489214D03*
X86860000Y-55139214D03*
%TD*%
D10*
%TO.C,R17*%
X90605000Y-52724214D03*
X89965000Y-52724214D03*
%TD*%
%TO.C,C67*%
X90605000Y-53264214D03*
X89965000Y-53264214D03*
%TD*%
%TO.C,C15*%
X97005000Y-55714214D03*
X96365000Y-55714214D03*
%TD*%
D12*
%TO.C,C116*%
X93165000Y-71004214D03*
X93805000Y-71004214D03*
%TD*%
%TO.C,C96*%
X89965000Y-66774214D03*
X90605000Y-66774214D03*
%TD*%
D10*
%TO.C,R15*%
X100205000Y-48494214D03*
X99565000Y-48494214D03*
%TD*%
%TO.C,C3*%
X87405000Y-56254214D03*
X86765000Y-56254214D03*
%TD*%
%TO.C,C10*%
X93805000Y-55714214D03*
X93165000Y-55714214D03*
%TD*%
D16*
%TO.C,U30*%
X99660000Y-64899214D03*
X99660000Y-65549214D03*
X99660000Y-66199214D03*
X101560000Y-66199214D03*
X101560000Y-65549214D03*
X101560000Y-64899214D03*
%TD*%
D10*
%TO.C,C68*%
X106605000Y-52024214D03*
X105965000Y-52024214D03*
%TD*%
D14*
%TO.C,U5*%
X98360000Y-55139214D03*
X98360000Y-54489214D03*
X98360000Y-53839214D03*
X96460000Y-53839214D03*
X96460000Y-54489214D03*
X96460000Y-55139214D03*
%TD*%
%TO.C,U12*%
X98360000Y-50909214D03*
X98360000Y-50259214D03*
X98360000Y-49609214D03*
X96460000Y-49609214D03*
X96460000Y-50259214D03*
X96460000Y-50909214D03*
%TD*%
D12*
%TO.C,C97*%
X91415000Y-66774214D03*
X92055000Y-66774214D03*
%TD*%
%TO.C,C95*%
X91415000Y-64324214D03*
X92055000Y-64324214D03*
%TD*%
%TO.C,C106*%
X93165000Y-66774214D03*
X93805000Y-66774214D03*
%TD*%
D20*
%TO.C,C337*%
X114438130Y-50304059D03*
X115116952Y-49625237D03*
%TD*%
D12*
%TO.C,C103*%
X94615000Y-63784214D03*
X95255000Y-63784214D03*
%TD*%
D16*
%TO.C,U26*%
X102860000Y-69129214D03*
X102860000Y-69779214D03*
X102860000Y-70429214D03*
X104760000Y-70429214D03*
X104760000Y-69779214D03*
X104760000Y-69129214D03*
%TD*%
D14*
%TO.C,U13*%
X101560000Y-50909214D03*
X101560000Y-50259214D03*
X101560000Y-49609214D03*
X99660000Y-49609214D03*
X99660000Y-50259214D03*
X99660000Y-50909214D03*
%TD*%
D18*
%TO.C,C326*%
X88728182Y-48357748D03*
X88049360Y-47678926D03*
%TD*%
D10*
%TO.C,C17*%
X97005000Y-53264214D03*
X96365000Y-53264214D03*
%TD*%
D12*
%TO.C,C140*%
X101015000Y-64324214D03*
X101655000Y-64324214D03*
%TD*%
%TO.C,R19*%
X110615000Y-67314214D03*
X111255000Y-67314214D03*
%TD*%
D10*
%TO.C,C51*%
X98455000Y-49034214D03*
X97815000Y-49034214D03*
%TD*%
D12*
%TO.C,R23*%
X91415000Y-67314214D03*
X92055000Y-67314214D03*
%TD*%
%TO.C,C86*%
X102765000Y-66774214D03*
X103405000Y-66774214D03*
%TD*%
%TO.C,C90*%
X101015000Y-68554214D03*
X101655000Y-68554214D03*
%TD*%
D16*
%TO.C,U25*%
X93260000Y-69129214D03*
X93260000Y-69779214D03*
X93260000Y-70429214D03*
X95160000Y-70429214D03*
X95160000Y-69779214D03*
X95160000Y-69129214D03*
%TD*%
D10*
%TO.C,C33*%
X109805000Y-56254214D03*
X109165000Y-56254214D03*
%TD*%
D12*
%TO.C,C126*%
X96365000Y-66774214D03*
X97005000Y-66774214D03*
%TD*%
D10*
%TO.C,C48*%
X97005000Y-52024214D03*
X96365000Y-52024214D03*
%TD*%
D12*
%TO.C,R31*%
X88215000Y-67314214D03*
X88855000Y-67314214D03*
%TD*%
%TO.C,R30*%
X107415000Y-71544214D03*
X108055000Y-71544214D03*
%TD*%
D10*
%TO.C,C18*%
X100205000Y-56254214D03*
X99565000Y-56254214D03*
%TD*%
D12*
%TO.C,C113*%
X94615000Y-68014214D03*
X95255000Y-68014214D03*
%TD*%
%TO.C,C104*%
X93165000Y-64324214D03*
X93805000Y-64324214D03*
%TD*%
D16*
%TO.C,U29*%
X86860000Y-64899214D03*
X86860000Y-65549214D03*
X86860000Y-66199214D03*
X88760000Y-66199214D03*
X88760000Y-65549214D03*
X88760000Y-64899214D03*
%TD*%
D12*
%TO.C,C118*%
X104215000Y-68014214D03*
X104855000Y-68014214D03*
%TD*%
%TO.C,C124*%
X96365000Y-64324214D03*
X97005000Y-64324214D03*
%TD*%
D15*
%TO.C,H101*%
X114880000Y-45167114D03*
%TD*%
D10*
%TO.C,C19*%
X101655000Y-55714214D03*
X101015000Y-55714214D03*
%TD*%
%TO.C,C13*%
X97005000Y-56254214D03*
X96365000Y-56254214D03*
%TD*%
%TO.C,C32*%
X106605000Y-53264214D03*
X105965000Y-53264214D03*
%TD*%
%TO.C,R7*%
X97005000Y-52724214D03*
X96365000Y-52724214D03*
%TD*%
D14*
%TO.C,U15*%
X91960000Y-55139214D03*
X91960000Y-54489214D03*
X91960000Y-53839214D03*
X90060000Y-53839214D03*
X90060000Y-54489214D03*
X90060000Y-55139214D03*
%TD*%
D22*
%TO.C,C2*%
X85327107Y-55872114D03*
X85327107Y-54322114D03*
%TD*%
D12*
%TO.C,C111*%
X96365000Y-71004214D03*
X97005000Y-71004214D03*
%TD*%
D14*
%TO.C,U11*%
X95160000Y-50909214D03*
X95160000Y-50259214D03*
X95160000Y-49609214D03*
X93260000Y-49609214D03*
X93260000Y-50259214D03*
X93260000Y-50909214D03*
%TD*%
D17*
%TO.C,C339*%
X113789359Y-71678917D03*
X114468181Y-72357739D03*
%TD*%
D12*
%TO.C,C139*%
X99565000Y-64324214D03*
X100205000Y-64324214D03*
%TD*%
%TO.C,R22*%
X101015000Y-71544214D03*
X101655000Y-71544214D03*
%TD*%
D17*
%TO.C,C341*%
X112491819Y-72976457D03*
X113170641Y-73655279D03*
%TD*%
D10*
%TO.C,C46*%
X95255000Y-49034214D03*
X94615000Y-49034214D03*
%TD*%
%TO.C,C9*%
X95255000Y-55714214D03*
X94615000Y-55714214D03*
%TD*%
D12*
%TO.C,R27*%
X94615000Y-71544214D03*
X95255000Y-71544214D03*
%TD*%
%TO.C,C120*%
X104215000Y-68554214D03*
X104855000Y-68554214D03*
%TD*%
D10*
%TO.C,C29*%
X108055000Y-55714214D03*
X107415000Y-55714214D03*
%TD*%
D14*
%TO.C,U6*%
X101560000Y-55139214D03*
X101560000Y-54489214D03*
X101560000Y-53839214D03*
X99660000Y-53839214D03*
X99660000Y-54489214D03*
X99660000Y-55139214D03*
%TD*%
D10*
%TO.C,C54*%
X101655000Y-51484214D03*
X101015000Y-51484214D03*
%TD*%
D16*
%TO.C,U27*%
X96460000Y-64899214D03*
X96460000Y-65549214D03*
X96460000Y-66199214D03*
X98360000Y-66199214D03*
X98360000Y-65549214D03*
X98360000Y-64899214D03*
%TD*%
D10*
%TO.C,R14*%
X97005000Y-48494214D03*
X96365000Y-48494214D03*
%TD*%
D11*
%TO.C,FID2*%
X112240000Y-44320000D03*
%TD*%
D12*
%TO.C,C94*%
X89965000Y-64324214D03*
X90605000Y-64324214D03*
%TD*%
D10*
%TO.C,C56*%
X101655000Y-49034214D03*
X101015000Y-49034214D03*
%TD*%
%TO.C,R9*%
X103405000Y-52724214D03*
X102765000Y-52724214D03*
%TD*%
%TO.C,C7*%
X87405000Y-53264214D03*
X86765000Y-53264214D03*
%TD*%
D12*
%TO.C,C77*%
X110615000Y-66774214D03*
X111255000Y-66774214D03*
%TD*%
D10*
%TO.C,C61*%
X104855000Y-49034214D03*
X104215000Y-49034214D03*
%TD*%
D13*
%TO.C,C328*%
X89376952Y-73625228D03*
X88698130Y-74304050D03*
%TD*%
D10*
%TO.C,C57*%
X100205000Y-49034214D03*
X99565000Y-49034214D03*
%TD*%
D16*
%TO.C,U21*%
X90060000Y-64899214D03*
X90060000Y-65549214D03*
X90060000Y-66199214D03*
X91960000Y-66199214D03*
X91960000Y-65549214D03*
X91960000Y-64899214D03*
%TD*%
D10*
%TO.C,C31*%
X108055000Y-53264214D03*
X107415000Y-53264214D03*
%TD*%
D12*
%TO.C,C88*%
X101015000Y-68014214D03*
X101655000Y-68014214D03*
%TD*%
%TO.C,C79*%
X105965000Y-64324214D03*
X106605000Y-64324214D03*
%TD*%
D10*
%TO.C,C47*%
X93805000Y-49034214D03*
X93165000Y-49034214D03*
%TD*%
D12*
%TO.C,C105*%
X94615000Y-64324214D03*
X95255000Y-64324214D03*
%TD*%
D10*
%TO.C,C27*%
X103405000Y-53264214D03*
X102765000Y-53264214D03*
%TD*%
D12*
%TO.C,C130*%
X107415000Y-68554214D03*
X108055000Y-68554214D03*
%TD*%
%TO.C,C133*%
X88215000Y-63784214D03*
X88855000Y-63784214D03*
%TD*%
D10*
%TO.C,C41*%
X114455000Y-53264214D03*
X113815000Y-53264214D03*
%TD*%
D12*
%TO.C,C100*%
X113815000Y-64324214D03*
X114455000Y-64324214D03*
%TD*%
%TO.C,C78*%
X107415000Y-63784214D03*
X108055000Y-63784214D03*
%TD*%
D10*
%TO.C,C30*%
X106605000Y-55714214D03*
X105965000Y-55714214D03*
%TD*%
D20*
%TO.C,C333*%
X111843048Y-47708977D03*
X112521870Y-47030155D03*
%TD*%
D12*
%TO.C,R21*%
X104215000Y-67314214D03*
X104855000Y-67314214D03*
%TD*%
D10*
%TO.C,C36*%
X111255000Y-53264214D03*
X110615000Y-53264214D03*
%TD*%
D12*
%TO.C,R20*%
X107415000Y-67314214D03*
X108055000Y-67314214D03*
%TD*%
%TO.C,C80*%
X107415000Y-64324214D03*
X108055000Y-64324214D03*
%TD*%
D10*
%TO.C,C50*%
X97005000Y-51484214D03*
X96365000Y-51484214D03*
%TD*%
D12*
%TO.C,C135*%
X88215000Y-64324214D03*
X88855000Y-64324214D03*
%TD*%
%TO.C,C137*%
X88215000Y-66774214D03*
X88855000Y-66774214D03*
%TD*%
D18*
%TO.C,C327*%
X89376953Y-47708977D03*
X88698131Y-47030155D03*
%TD*%
D10*
%TO.C,C24*%
X104855000Y-55714214D03*
X104215000Y-55714214D03*
%TD*%
D12*
%TO.C,C114*%
X93165000Y-68554214D03*
X93805000Y-68554214D03*
%TD*%
D10*
%TO.C,C11*%
X95255000Y-53264214D03*
X94615000Y-53264214D03*
%TD*%
D20*
%TO.C,C334*%
X112491819Y-48357748D03*
X113170641Y-47678926D03*
%TD*%
D10*
%TO.C,C22*%
X100205000Y-53264214D03*
X99565000Y-53264214D03*
%TD*%
%TO.C,C44*%
X95255000Y-51484214D03*
X94615000Y-51484214D03*
%TD*%
%TO.C,R6*%
X93805000Y-52724214D03*
X93165000Y-52724214D03*
%TD*%
D12*
%TO.C,C101*%
X112365000Y-66774214D03*
X113005000Y-66774214D03*
%TD*%
D10*
%TO.C,R11*%
X109805000Y-52724214D03*
X109165000Y-52724214D03*
%TD*%
%TO.C,C26*%
X104855000Y-53264214D03*
X104215000Y-53264214D03*
%TD*%
D12*
%TO.C,C119*%
X102765000Y-68554214D03*
X103405000Y-68554214D03*
%TD*%
D10*
%TO.C,C52*%
X97005000Y-49034214D03*
X96365000Y-49034214D03*
%TD*%
D12*
%TO.C,C93*%
X91415000Y-63784214D03*
X92055000Y-63784214D03*
%TD*%
D10*
%TO.C,C55*%
X100205000Y-51484214D03*
X99565000Y-51484214D03*
%TD*%
%TO.C,C49*%
X98455000Y-51484214D03*
X97815000Y-51484214D03*
%TD*%
D20*
%TO.C,C335*%
X113140589Y-49006518D03*
X113819411Y-48327696D03*
%TD*%
D12*
%TO.C,C98*%
X113815000Y-63784214D03*
X114455000Y-63784214D03*
%TD*%
D10*
%TO.C,C42*%
X113005000Y-53264214D03*
X112365000Y-53264214D03*
%TD*%
%TO.C,C64*%
X92055000Y-55714214D03*
X91415000Y-55714214D03*
%TD*%
D23*
%TO.C,J2*%
X90000000Y-76367098D03*
X111220000Y-76837098D03*
%TD*%
%TO.C,J1*%
X90000000Y-44967114D03*
X111220000Y-45437114D03*
%TD*%
M02*
