%TF.GenerationSoftware,KiCad,Pcbnew,9.0.6*%
%TF.CreationDate,2025-11-12T11:45:24+01:00*%
%TF.ProjectId,S13552_64Ch_Adapter_BGA2803_V2,53313335-3532-45f3-9634-43685f416461,1*%
%TF.SameCoordinates,Original*%
%TF.FileFunction,Legend,Bot*%
%TF.FilePolarity,Positive*%
%FSLAX46Y46*%
G04 Gerber Fmt 4.6, Leading zero omitted, Abs format (unit mm)*
G04 Created by KiCad (PCBNEW 9.0.6) date 2025-11-12 11:45:24*
%MOMM*%
%LPD*%
G01*
G04 APERTURE LIST*
%ADD10C,0.150000*%
%ADD11C,0.200000*%
G04 APERTURE END LIST*
D10*
X112887106Y-74658369D02*
X112887106Y-75194083D01*
X112887106Y-75194083D02*
X112922821Y-75301226D01*
X112922821Y-75301226D02*
X112994249Y-75372655D01*
X112994249Y-75372655D02*
X113101392Y-75408369D01*
X113101392Y-75408369D02*
X113172821Y-75408369D01*
X112565677Y-74729797D02*
X112529963Y-74694083D01*
X112529963Y-74694083D02*
X112458535Y-74658369D01*
X112458535Y-74658369D02*
X112279963Y-74658369D01*
X112279963Y-74658369D02*
X112208535Y-74694083D01*
X112208535Y-74694083D02*
X112172820Y-74729797D01*
X112172820Y-74729797D02*
X112137106Y-74801226D01*
X112137106Y-74801226D02*
X112137106Y-74872655D01*
X112137106Y-74872655D02*
X112172820Y-74979797D01*
X112172820Y-74979797D02*
X112601392Y-75408369D01*
X112601392Y-75408369D02*
X112137106Y-75408369D01*
X110559999Y-46636271D02*
X110559999Y-47171985D01*
X110559999Y-47171985D02*
X110595714Y-47279128D01*
X110595714Y-47279128D02*
X110667142Y-47350557D01*
X110667142Y-47350557D02*
X110774285Y-47386271D01*
X110774285Y-47386271D02*
X110845714Y-47386271D01*
X109809999Y-47386271D02*
X110238570Y-47386271D01*
X110024285Y-47386271D02*
X110024285Y-46636271D01*
X110024285Y-46636271D02*
X110095713Y-46743414D01*
X110095713Y-46743414D02*
X110167142Y-46814842D01*
X110167142Y-46814842D02*
X110238570Y-46850557D01*
%TO.C,U63*%
X109985000Y-51037107D02*
G75*
G02*
X109835000Y-51037107I-75000J0D01*
G01*
X109835000Y-51037107D02*
G75*
G02*
X109985000Y-51037107I75000J0D01*
G01*
%TO.C,U59*%
X109985000Y-55267107D02*
G75*
G02*
X109835000Y-55267107I-75000J0D01*
G01*
X109835000Y-55267107D02*
G75*
G02*
X109985000Y-55267107I75000J0D01*
G01*
%TO.C,U31*%
X100985000Y-70297107D02*
G75*
G02*
X100835000Y-70297107I-75000J0D01*
G01*
X100835000Y-70297107D02*
G75*
G02*
X100985000Y-70297107I75000J0D01*
G01*
%TO.C,U49*%
X94585000Y-70297107D02*
G75*
G02*
X94435000Y-70297107I-75000J0D01*
G01*
X94435000Y-70297107D02*
G75*
G02*
X94585000Y-70297107I75000J0D01*
G01*
%TO.C,U54*%
X110585000Y-66067107D02*
G75*
G02*
X110435000Y-66067107I-75000J0D01*
G01*
X110435000Y-66067107D02*
G75*
G02*
X110585000Y-66067107I75000J0D01*
G01*
%TO.C,U36*%
X91385000Y-70297107D02*
G75*
G02*
X91235000Y-70297107I-75000J0D01*
G01*
X91235000Y-70297107D02*
G75*
G02*
X91385000Y-70297107I75000J0D01*
G01*
%TO.C,U61*%
X90785000Y-51037107D02*
G75*
G02*
X90635000Y-51037107I-75000J0D01*
G01*
X90635000Y-51037107D02*
G75*
G02*
X90785000Y-51037107I75000J0D01*
G01*
%TO.C,U56*%
X91385000Y-66067107D02*
G75*
G02*
X91235000Y-66067107I-75000J0D01*
G01*
X91235000Y-66067107D02*
G75*
G02*
X91385000Y-66067107I75000J0D01*
G01*
%TO.C,U60*%
X110585000Y-70297107D02*
G75*
G02*
X110435000Y-70297107I-75000J0D01*
G01*
X110435000Y-70297107D02*
G75*
G02*
X110585000Y-70297107I75000J0D01*
G01*
%TO.C,U48*%
X87585000Y-55267107D02*
G75*
G02*
X87435000Y-55267107I-75000J0D01*
G01*
X87435000Y-55267107D02*
G75*
G02*
X87585000Y-55267107I75000J0D01*
G01*
%TO.C,U38*%
X103585000Y-51037107D02*
G75*
G02*
X103435000Y-51037107I-75000J0D01*
G01*
X103435000Y-51037107D02*
G75*
G02*
X103585000Y-51037107I75000J0D01*
G01*
%TO.C,U46*%
X97185000Y-55267107D02*
G75*
G02*
X97035000Y-55267107I-75000J0D01*
G01*
X97035000Y-55267107D02*
G75*
G02*
X97185000Y-55267107I75000J0D01*
G01*
%TO.C,U66*%
X107385000Y-70297107D02*
G75*
G02*
X107235000Y-70297107I-75000J0D01*
G01*
X107235000Y-70297107D02*
G75*
G02*
X107385000Y-70297107I75000J0D01*
G01*
%TO.C,U47*%
X113185000Y-51037107D02*
G75*
G02*
X113035000Y-51037107I-75000J0D01*
G01*
X113035000Y-51037107D02*
G75*
G02*
X113185000Y-51037107I75000J0D01*
G01*
%TO.C,U41*%
X100385000Y-55267107D02*
G75*
G02*
X100235000Y-55267107I-75000J0D01*
G01*
X100235000Y-55267107D02*
G75*
G02*
X100385000Y-55267107I75000J0D01*
G01*
%TO.C,U55*%
X113785000Y-66067107D02*
G75*
G02*
X113635000Y-66067107I-75000J0D01*
G01*
X113635000Y-66067107D02*
G75*
G02*
X113785000Y-66067107I75000J0D01*
G01*
%TO.C,U51*%
X90785000Y-55267107D02*
G75*
G02*
X90635000Y-55267107I-75000J0D01*
G01*
X90635000Y-55267107D02*
G75*
G02*
X90785000Y-55267107I75000J0D01*
G01*
%TO.C,U57*%
X106785000Y-51037107D02*
G75*
G02*
X106635000Y-51037107I-75000J0D01*
G01*
X106635000Y-51037107D02*
G75*
G02*
X106785000Y-51037107I75000J0D01*
G01*
%TO.C,U34*%
X103585000Y-55267107D02*
G75*
G02*
X103435000Y-55267107I-75000J0D01*
G01*
X103435000Y-55267107D02*
G75*
G02*
X103585000Y-55267107I75000J0D01*
G01*
%TO.C,U39*%
X87585000Y-51037107D02*
G75*
G02*
X87435000Y-51037107I-75000J0D01*
G01*
X87435000Y-51037107D02*
G75*
G02*
X87585000Y-51037107I75000J0D01*
G01*
D11*
%TO.C,J2*%
X88725000Y-76117098D02*
X88725000Y-77617098D01*
X88725000Y-77617098D02*
X90877500Y-77617098D01*
X89725000Y-75117098D02*
X88725000Y-76117098D01*
X90877500Y-75117098D02*
X89725000Y-75117098D01*
X111495000Y-75117098D02*
X110342500Y-75117098D01*
X112045000Y-77617098D02*
X112495000Y-77617098D01*
X112495000Y-76117098D02*
X111495000Y-75117098D01*
X112495000Y-77617098D02*
X112495000Y-76117098D01*
X89110000Y-75367098D02*
G75*
G02*
X88910000Y-75367098I-100000J0D01*
G01*
X88910000Y-75367098D02*
G75*
G02*
X89110000Y-75367098I100000J0D01*
G01*
%TO.C,U33*%
D10*
X104185000Y-70297107D02*
G75*
G02*
X104035000Y-70297107I-75000J0D01*
G01*
X104035000Y-70297107D02*
G75*
G02*
X104185000Y-70297107I75000J0D01*
G01*
%TO.C,U52*%
X97785000Y-70297107D02*
G75*
G02*
X97635000Y-70297107I-75000J0D01*
G01*
X97635000Y-70297107D02*
G75*
G02*
X97785000Y-70297107I75000J0D01*
G01*
%TO.C,U50*%
X93985000Y-55267107D02*
G75*
G02*
X93835000Y-55267107I-75000J0D01*
G01*
X93835000Y-55267107D02*
G75*
G02*
X93985000Y-55267107I75000J0D01*
G01*
%TO.C,U45*%
X106785000Y-55267107D02*
G75*
G02*
X106635000Y-55267107I-75000J0D01*
G01*
X106635000Y-55267107D02*
G75*
G02*
X106785000Y-55267107I75000J0D01*
G01*
%TO.C,U65*%
X100985000Y-66067107D02*
G75*
G02*
X100835000Y-66067107I-75000J0D01*
G01*
X100835000Y-66067107D02*
G75*
G02*
X100985000Y-66067107I75000J0D01*
G01*
%TO.C,U40*%
X107385000Y-66067107D02*
G75*
G02*
X107235000Y-66067107I-75000J0D01*
G01*
X107235000Y-66067107D02*
G75*
G02*
X107385000Y-66067107I75000J0D01*
G01*
%TO.C,U62*%
X88185000Y-70297107D02*
G75*
G02*
X88035000Y-70297107I-75000J0D01*
G01*
X88035000Y-70297107D02*
G75*
G02*
X88185000Y-70297107I75000J0D01*
G01*
%TO.C,U53*%
X93985000Y-51037107D02*
G75*
G02*
X93835000Y-51037107I-75000J0D01*
G01*
X93835000Y-51037107D02*
G75*
G02*
X93985000Y-51037107I75000J0D01*
G01*
D11*
%TO.C,J1*%
X88725000Y-44717114D02*
X88725000Y-46217114D01*
X88725000Y-46217114D02*
X90877500Y-46217114D01*
X89725000Y-43717114D02*
X88725000Y-44717114D01*
X90877500Y-43717114D02*
X89725000Y-43717114D01*
X111495000Y-43717114D02*
X110342500Y-43717114D01*
X112045000Y-46217114D02*
X112495000Y-46217114D01*
X112495000Y-44717114D02*
X111495000Y-43717114D01*
X112495000Y-46217114D02*
X112495000Y-44717114D01*
X89110000Y-43967114D02*
G75*
G02*
X88910000Y-43967114I-100000J0D01*
G01*
X88910000Y-43967114D02*
G75*
G02*
X89110000Y-43967114I100000J0D01*
G01*
%TO.C,U64*%
D10*
X113785000Y-70297107D02*
G75*
G02*
X113635000Y-70297107I-75000J0D01*
G01*
X113635000Y-70297107D02*
G75*
G02*
X113785000Y-70297107I75000J0D01*
G01*
%TO.C,U58*%
X100385000Y-51037107D02*
G75*
G02*
X100235000Y-51037107I-75000J0D01*
G01*
X100235000Y-51037107D02*
G75*
G02*
X100385000Y-51037107I75000J0D01*
G01*
%TO.C,U42*%
X113185000Y-55267107D02*
G75*
G02*
X113035000Y-55267107I-75000J0D01*
G01*
X113035000Y-55267107D02*
G75*
G02*
X113185000Y-55267107I75000J0D01*
G01*
%TO.C,U37*%
X97785000Y-66067107D02*
G75*
G02*
X97635000Y-66067107I-75000J0D01*
G01*
X97635000Y-66067107D02*
G75*
G02*
X97785000Y-66067107I75000J0D01*
G01*
%TO.C,U44*%
X97185000Y-51037107D02*
G75*
G02*
X97035000Y-51037107I-75000J0D01*
G01*
X97035000Y-51037107D02*
G75*
G02*
X97185000Y-51037107I75000J0D01*
G01*
%TO.C,U32*%
X88185000Y-66067107D02*
G75*
G02*
X88035000Y-66067107I-75000J0D01*
G01*
X88035000Y-66067107D02*
G75*
G02*
X88185000Y-66067107I75000J0D01*
G01*
%TO.C,U43*%
X94585000Y-66067107D02*
G75*
G02*
X94435000Y-66067107I-75000J0D01*
G01*
X94435000Y-66067107D02*
G75*
G02*
X94585000Y-66067107I75000J0D01*
G01*
%TO.C,U35*%
X104185000Y-66067107D02*
G75*
G02*
X104035000Y-66067107I-75000J0D01*
G01*
X104035000Y-66067107D02*
G75*
G02*
X104185000Y-66067107I75000J0D01*
G01*
%TD*%
M02*
