M48
; DRILL file {KiCad 9.0.6} date 2025-11-12T11:45:16+0100
; FORMAT={-:-/ absolute / metric / decimal}
; #@! TF.CreationDate,2025-11-12T11:45:16+01:00
; #@! TF.GenerationSoftware,Kicad,Pcbnew,9.0.6
; #@! TF.FileFunction,Plated,1,2,Blind
FMAT,2
METRIC
; #@! TA.AperFunction,Plated,Buried,ViaDrill
T1C0.200
%
G90
G05
T1
X85.42Y-61.871
X86.4Y-61.871
X86.4Y-59.463
X86.86Y-53.839
X86.86Y-54.489
X86.86Y-65.549
X87.38Y-59.463
X87.38Y-61.871
X87.41Y-55.717
X87.42Y-64.327
X88.21Y-64.337
X88.215Y-55.714
X88.36Y-61.871
X88.36Y-59.463
X88.76Y-54.489
X88.76Y-65.549
X88.76Y-66.199
X89.34Y-61.871
X89.34Y-59.463
X90.06Y-53.839
X90.06Y-54.489
X90.06Y-65.549
X90.317Y-61.867
X90.32Y-59.463
X90.605Y-64.324
X90.61Y-55.707
X91.3Y-61.871
X91.3Y-59.463
X91.415Y-55.727
X91.43Y-64.327
X91.96Y-54.489
X91.96Y-65.549
X91.96Y-66.199
X92.28Y-59.463
X92.28Y-61.871
X93.26Y-69.767
X93.26Y-49.609
X93.26Y-50.259
X93.26Y-53.839
X93.26Y-54.489
X93.26Y-65.549
X93.26Y-59.463
X93.26Y-61.871
X93.72Y-67.537
X93.805Y-64.324
X93.805Y-68.554
X93.82Y-51.487
X93.84Y-55.727
X94.24Y-59.463
X94.24Y-61.871
X94.54Y-72.337
X94.615Y-55.714
X94.62Y-51.487
X94.63Y-64.297
X94.63Y-68.557
X94.89Y-52.507
X95.16Y-50.259
X95.16Y-54.489
X95.16Y-65.549
X95.16Y-66.199
X95.16Y-69.779
X95.16Y-70.429
X95.22Y-59.463
X95.22Y-61.871
X95.7Y-73.417
X96.2Y-59.463
X96.2Y-61.871
X96.46Y-49.609
X96.46Y-50.259
X96.46Y-53.839
X96.46Y-54.489
X96.46Y-65.549
X96.47Y-69.777
X96.86Y-74.737
X96.98Y-67.497
X97.0Y-51.477
X97.005Y-68.554
X97.01Y-55.717
X97.01Y-64.327
X97.18Y-59.463
X97.18Y-61.871
X97.815Y-51.484
X97.815Y-55.714
X97.82Y-64.317
X97.82Y-68.547
X98.08Y-52.547
X98.16Y-59.463
X98.16Y-61.871
X98.36Y-50.259
X98.36Y-54.489
X98.36Y-65.549
X98.36Y-66.199
X98.36Y-69.779
X98.36Y-70.429
X99.14Y-59.463
X99.14Y-61.871
X99.66Y-49.609
X99.66Y-50.259
X99.66Y-53.839
X99.66Y-54.489
X99.66Y-65.549
X99.66Y-69.779
X100.12Y-59.463
X100.12Y-61.871
X100.13Y-67.497
X100.205Y-64.324
X100.205Y-68.554
X100.21Y-55.717
X100.247Y-51.476
X101.015Y-51.484
X101.015Y-55.714
X101.02Y-64.327
X101.02Y-68.547
X101.1Y-59.463
X101.1Y-61.871
X101.35Y-52.517
X101.56Y-50.259
X101.56Y-54.489
X101.56Y-65.549
X101.56Y-66.199
X101.56Y-69.779
X101.56Y-70.429
X102.08Y-61.871
X102.08Y-59.463
X102.86Y-49.609
X102.86Y-50.259
X102.86Y-53.839
X102.86Y-54.489
X102.86Y-65.549
X102.86Y-69.779
X103.06Y-59.463
X103.06Y-61.871
X103.4Y-55.717
X103.405Y-64.324
X103.405Y-68.554
X103.41Y-67.437
X103.42Y-51.487
X104.04Y-59.463
X104.04Y-61.871
X104.215Y-51.484
X104.215Y-55.714
X104.22Y-68.547
X104.23Y-64.317
X104.47Y-52.527
X104.76Y-50.259
X104.76Y-54.489
X104.76Y-65.549
X104.76Y-66.199
X104.76Y-69.779
X104.76Y-70.429
X105.02Y-59.463
X105.02Y-61.871
X106.0Y-59.463
X106.0Y-61.871
X106.06Y-49.609
X106.06Y-50.259
X106.06Y-53.839
X106.06Y-54.489
X106.06Y-65.549
X106.06Y-69.779
X106.56Y-67.537
X106.605Y-64.324
X106.61Y-51.487
X106.61Y-55.717
X106.61Y-68.547
X106.98Y-59.463
X106.98Y-61.871
X107.4Y-68.577
X107.415Y-51.484
X107.415Y-55.714
X107.42Y-64.317
X107.56Y-52.487
X107.96Y-61.871
X107.96Y-50.259
X107.96Y-54.489
X107.96Y-65.549
X107.96Y-66.199
X107.96Y-69.779
X107.96Y-70.429
X107.96Y-59.463
X108.94Y-59.463
X108.94Y-61.871
X109.26Y-53.839
X109.26Y-54.489
X109.26Y-65.549
X109.805Y-64.324
X109.81Y-55.727
X109.92Y-59.463
X109.92Y-61.871
X110.59Y-64.337
X110.615Y-55.714
X110.9Y-59.463
X110.9Y-61.871
X111.16Y-54.489
X111.16Y-65.549
X111.16Y-66.199
X111.88Y-59.463
X111.88Y-61.871
X112.46Y-53.839
X112.46Y-54.489
X112.46Y-65.549
X112.86Y-59.463
X112.86Y-61.871
X113.005Y-64.324
X113.02Y-55.717
X113.8Y-64.347
X113.815Y-55.714
X113.84Y-59.463
X113.84Y-61.871
X114.36Y-54.489
X114.36Y-65.549
X114.36Y-66.199
X114.82Y-59.463
X114.82Y-61.871
X115.8Y-59.463
M30
