M48
; DRILL file {KiCad 9.0.6} date 2025-11-12T11:45:16+0100
; FORMAT={-:-/ absolute / metric / decimal}
; #@! TF.CreationDate,2025-11-12T11:45:16+01:00
; #@! TF.GenerationSoftware,Kicad,Pcbnew,9.0.6
; #@! TF.FileFunction,Plated,1,9,Blind
FMAT,2
METRIC
; #@! TA.AperFunction,Plated,Buried,ViaDrill
T1C0.200
%
G90
G05
T1
X86.741Y-72.113
X86.752Y-48.976
X87.401Y-73.007
X87.86Y-66.067
X87.86Y-70.797
X90.368Y-73.262
X91.01Y-70.917
X91.09Y-66.017
X94.24Y-65.967
X94.35Y-70.287
X97.27Y-70.307
X97.42Y-65.967
X99.01Y-72.317
X100.6Y-65.977
X103.81Y-66.007
X107.06Y-65.947
X110.23Y-66.027
X110.39Y-71.507
X111.84Y-49.017
X112.07Y-70.077
X113.43Y-66.057
X113.819Y-48.328
M30
