  0
SECTION
  2
HEADER
  9
$ACADVER
  1
AC1014
  9
$HANDSEED
  5
FFFF
  9
$INSUNITS
 70
     0
  9
$MEASUREMENT
 70
     1
  0
ENDSEC
  0
SECTION
  2
TABLES
  0
TABLE
  2
VPORT
  5
8
330
0
100
AcDbSymbolTable
 70
     4
  0
VPORT
  5
2E
330
8
100
AcDbSymbolTableRecord
100
AcDbViewportTableRecord
  2
*ACTIVE
 70
     0
 10
0.0
 20
0.0
 11
1.0
 21
1.0
 12
210.0
 22
148.5
 13
0.0
 23
0.0
 14
10.0
 24
10.0
 15
10.0
 25
10.0
 16
0.0
 26
0.0
 36
1.0
 17
0.0
 27
0.0
 37
0.0
 40
341.0
 41
1.24
 42
50.0
 43
0.0
 44
0.0
 50
0.0
 51
0.0
 71
     0
 72
   100
 73
     1
 74
     3
 75
     0
 76
     0
 77
     0
 78
     0
  0
ENDTAB
  0
TABLE
  2
LTYPE
  5
5
330
0
100
AcDbSymbolTable
 70
     1
  0
LTYPE
  5
14
330
5
100
AcDbSymbolTableRecord
100
AcDbLinetypeTableRecord
  2
BYBLOCK
 70
     0
  3

 72
    65
 73
     0
 40
0.0
  0
LTYPE
  5
15
330
5
100
AcDbSymbolTableRecord
100
AcDbLinetypeTableRecord
  2
BYLAYER
 70
     0
  3

 72
    65
 73
     0
 40
0.0
  0
LTYPE
  5
16
330
5
100
AcDbSymbolTableRecord
100
AcDbLinetypeTableRecord
  2
CONTINUOUS
 70
     0
  3
Solid line
 72
    65
 73
     0
 40
0.0
  0
ENDTAB
  0
TABLE
  2
LAYER
  5
2
100
AcDbSymbolTable
 70
2
  0
LAYER
  5
50
100
AcDbSymbolTableRecord
100
AcDbLayerTableRecord
  2
0
 70
0
  6
CONTINUOUS
  0
LAYER
  5
51
100
AcDbSymbolTableRecord
100
AcDbLayerTableRecord
  2
Image
 70
0
  6
CONTINUOUS
  0
ENDTAB
  0
TABLE
  2
STYLE
  5
3
330
0
100
AcDbSymbolTable
 70
     1
  0
STYLE
  5
11
330
3
100
AcDbSymbolTableRecord
100
AcDbTextStyleTableRecord
  2
STANDARD
 70
     0
 40
0.0
 41
1.0
 50
0.0
 71
     0
 42
2.5
  3
txt
  4

  0
ENDTAB
  0
TABLE
  2
VIEW
  5
6
330
0
100
AcDbSymbolTable
 70
     0
  0
ENDTAB
  0
TABLE
  2
UCS
  5
7
330
0
100
AcDbSymbolTable
 70
     0
  0
ENDTAB
  0
TABLE
  2
APPID
  5
9
330
0
100
AcDbSymbolTable
 70
     2
  0
APPID
  5
12
330
9
100
AcDbSymbolTableRecord
100
AcDbRegAppTableRecord
  2
ACAD
 70
     0
  0
ENDTAB
  0
TABLE
  2
DIMSTYLE
  5
A
330
0
100
AcDbSymbolTable
 70
     1
  0
DIMSTYLE
105
27
330
A
100
AcDbSymbolTableRecord
100
AcDbDimStyleTableRecord
  2
ISO-25
 70
     0
  3

  4

  5

  6

  7

 40
1.0
 41
2.5
 42
0.625
 43
3.75
 44
1.25
 45
0.0
 46
0.0
 47
0.0
 48
0.0
140
2.5
141
2.5
142
0.0
143
0.03937007874016
144
1.0
145
0.0
146
1.0
147
0.625
 71
     0
 72
     0
 73
     0
 74
     0
 75
     0
 76
     0
 77
     1
 78
     8
170
     0
171
     3
172
     1
173
     0
174
     0
175
     0
176
     0
177
     0
178
     0
270
     2
271
     2
272
     2
273
     2
274
     3
340
11
275
     0
280
     0
281
     0
282
     0
283
     0
284
     8
285
     0
286
     0
287
     3
288
     0
  0
ENDTAB
  0
TABLE
  2
BLOCK_RECORD
  5
1
330
0
100
AcDbSymbolTable
 70
     1
  0
BLOCK_RECORD
  5
1F
330
1
100
AcDbSymbolTableRecord
100
AcDbBlockTableRecord
  2
*MODEL_SPACE
  0
BLOCK_RECORD
  5
1B
330
1
100
AcDbSymbolTableRecord
100
AcDbBlockTableRecord
  2
*PAPER_SPACE
  0
ENDTAB
  0
ENDSEC
  0
SECTION
  2
BLOCKS
  0
BLOCK
  5
20
330
1F
100
AcDbEntity
  8
0
100
AcDbBlockBegin
  2
*MODEL_SPACE
 70
     0
 10
0.0
 20
0.0
 30
0.0
  3
*MODEL_SPACE
  1

  0
ENDBLK
  5
21
330
1F
100
AcDbEntity
  8
0
100
AcDbBlockEnd
  0
BLOCK
  5
1C
330
1B
100
AcDbEntity
 67
     1
  8
0
100
AcDbBlockBegin
  2
*PAPER_SPACE
  1

  0
ENDBLK
  5
1D
330
1B
100
AcDbEntity
 67
     1
  8
0
100
AcDbBlockEnd
  0
ENDSEC
  0
SECTION
  2
ENTITIES
  0
SPLINE
  5
100
100
AcDbEntity
  8
Image
 62
7
100
AcDbSpline
 70
8
 71
3
 72
8
 73
4
 74
0
 40
0
 40
0
 40
0
 40
0
 40
1
 40
1
 40
1
 40
1
 10
13.850113
 20
121.921252
 30
0.0
 10
14.970324
 20
121.922752
 30
0.0
 10
16.664781
 20
121.922752
 30
0.0
 10
17.615572
 20
121.921260
 30
0.0
  0
LWPOLYLINE
  5
101
100
AcDbEntity
  8
Image
 62
7
100
AcDbPolyline
 90
3
 70
0
 10
11.813367
 20
120.192529
 30
0.0
 10
11.813367
 20
121.918452
 30
0.0
 10
13.850113
 20
121.921252
 30
0.0
  0
LWPOLYLINE
  5
102
100
AcDbEntity
  8
Image
 62
7
100
AcDbPolyline
 90
7
 70
0
 10
17.615572
 20
121.921260
 30
0.0
 10
19.344285
 20
121.918460
 30
0.0
 10
19.344285
 20
120.192530
 30
0.0
 10
19.344285
 20
118.466599
 30
0.0
 10
15.578825
 20
118.466599
 30
0.0
 10
11.813367
 20
118.466599
 30
0.0
 10
11.813367
 20
120.192529
 30
0.0
  0
SPLINE
  5
103
100
AcDbEntity
  8
Image
 62
7
100
AcDbSpline
 70
8
 71
3
 72
8
 73
4
 74
0
 40
0
 40
0
 40
0
 40
0
 40
1
 40
1
 40
1
 40
1
 10
11.866475
 20
119.753625
 30
0.0
 10
11.866475
 20
119.082765
 30
0.0
 10
11.869675
 20
118.530691
 30
0.0
 10
11.873575
 20
118.526797
 30
0.0
  0
SPLINE
  5
104
100
AcDbEntity
  8
Image
 62
7
100
AcDbSpline
 70
8
 71
3
 72
8
 73
4
 74
0
 40
0
 40
0
 40
0
 40
0
 40
1
 40
1
 40
1
 40
1
 10
11.873575
 20
118.526797
 30
0.0
 10
11.877475
 20
118.522897
 30
0.0
 10
12.773691
 20
118.519697
 30
0.0
 10
13.865179
 20
118.519697
 30
0.0
  0
LWPOLYLINE
  5
105
100
AcDbEntity
  8
Image
 62
7
100
AcDbPolyline
 90
5
 70
0
 10
15.849684
 20
119.746543
 30
0.0
 10
15.849684
 20
120.973371
 30
0.0
 10
13.858080
 20
120.973371
 30
0.0
 10
11.866475
 20
120.973371
 30
0.0
 10
11.866475
 20
119.753625
 30
0.0
  0
SPLINE
  5
106
100
AcDbEntity
  8
Image
 62
7
100
AcDbSpline
 70
8
 71
3
 72
8
 73
4
 74
0
 40
0
 40
0
 40
0
 40
0
 40
1
 40
1
 40
1
 40
1
 10
13.342918
 20
118.657800
 30
0.0
 10
13.342918
 20
118.673450
 30
0.0
 10
13.350018
 20
118.679050
 30
0.0
 10
13.369808
 20
118.679050
 30
0.0
  0
SPLINE
  5
107
100
AcDbEntity
  8
Image
 62
7
100
AcDbSpline
 70
8
 71
3
 72
8
 73
4
 74
0
 40
0
 40
0
 40
0
 40
0
 40
1
 40
1
 40
1
 40
1
 10
13.369808
 20
118.679050
 30
0.0
 10
13.418328
 20
118.679050
 30
0.0
 10
13.415108
 20
118.701350
 30
0.0
 10
13.334878
 20
118.920697
 30
0.0
  0
SPLINE
  5
108
100
AcDbEntity
  8
Image
 62
7
100
AcDbSpline
 70
8
 71
3
 72
8
 73
4
 74
0
 40
0
 40
0
 40
0
 40
0
 40
1
 40
1
 40
1
 40
1
 10
13.334878
 20
118.920697
 30
0.0
 10
13.331678
 20
118.929497
 30
0.0
 10
13.341078
 20
118.933977
 30
0.0
 10
13.362888
 20
118.933977
 30
0.0
  0
SPLINE
  5
109
100
AcDbEntity
  8
Image
 62
7
100
AcDbSpline
 70
8
 71
3
 72
8
 73
4
 74
0
 40
0
 40
0
 40
0
 40
0
 40
1
 40
1
 40
1
 40
1
 10
13.362888
 20
118.933977
 30
0.0
 10
13.393898
 20
118.933977
 30
0.0
 10
13.396808
 20
118.930377
 30
0.0
 10
13.414478
 20
118.870267
 30
0.0
  0
SPLINE
  5
10a
100
AcDbEntity
  8
Image
 62
7
100
AcDbSpline
 70
8
 71
3
 72
8
 73
4
 74
0
 40
0
 40
0
 40
0
 40
0
 40
1
 40
1
 40
1
 40
1
 10
13.414478
 20
118.870267
 30
0.0
 10
13.424768
 20
118.835217
 30
0.0
 10
13.436008
 20
118.806547
 30
0.0
 10
13.439428
 20
118.806537
 30
0.0
  0
SPLINE
  5
10b
100
AcDbEntity
  8
Image
 62
7
100
AcDbSpline
 70
8
 71
3
 72
8
 73
4
 74
0
 40
0
 40
0
 40
0
 40
0
 40
1
 40
1
 40
1
 40
1
 10
13.439428
 20
118.806537
 30
0.0
 10
13.442928
 20
118.806528
 30
0.0
 10
13.453628
 20
118.835207
 30
0.0
 10
13.463368
 20
118.870247
 30
0.0
  0
SPLINE
  5
10c
100
AcDbEntity
  8
Image
 62
7
100
AcDbSpline
 70
8
 71
3
 72
8
 73
4
 74
0
 40
0
 40
0
 40
0
 40
0
 40
1
 40
1
 40
1
 40
1
 10
13.463368
 20
118.870247
 30
0.0
 10
13.477848
 20
118.922317
 30
0.0
 10
13.485178
 20
118.933977
 30
0.0
 10
13.503418
 20
118.933977
 30
0.0
  0
SPLINE
  5
10d
100
AcDbEntity
  8
Image
 62
7
100
AcDbSpline
 70
8
 71
3
 72
8
 73
4
 74
0
 40
0
 40
0
 40
0
 40
0
 40
1
 40
1
 40
1
 40
1
 10
13.503418
 20
118.933977
 30
0.0
 10
13.516808
 20
118.933977
 30
0.0
 10
13.523798
 20
118.928677
 30
0.0
 10
13.520868
 20
118.920697
 30
0.0
  0
SPLINE
  5
10e
100
AcDbEntity
  8
Image
 62
7
100
AcDbSpline
 70
8
 71
3
 72
8
 73
4
 74
0
 40
0
 40
0
 40
0
 40
0
 40
1
 40
1
 40
1
 40
1
 10
13.520868
 20
118.920697
 30
0.0
 10
13.518168
 20
118.913397
 30
0.0
 10
13.498128
 20
118.853567
 30
0.0
 10
13.476298
 20
118.787744
 30
0.0
  0
SPLINE
  5
10f
100
AcDbEntity
  8
Image
 62
7
100
AcDbSpline
 70
8
 71
3
 72
8
 73
4
 74
0
 40
0
 40
0
 40
0
 40
0
 40
1
 40
1
 40
1
 40
1
 10
13.476298
 20
118.787744
 30
0.0
 10
13.454478
 20
118.721924
 30
0.0
 10
13.429538
 20
118.660980
 30
0.0
 10
13.420868
 20
118.652316
 30
0.0
  0
SPLINE
  5
110
100
AcDbEntity
  8
Image
 62
7
100
AcDbSpline
 70
8
 71
3
 72
8
 73
4
 74
0
 40
0
 40
0
 40
0
 40
0
 40
1
 40
1
 40
1
 40
1
 10
13.420868
 20
118.652316
 30
0.0
 10
13.412268
 20
118.643716
 30
0.0
 10
13.391118
 20
118.636556
 30
0.0
 10
13.374008
 20
118.636556
 30
0.0
  0
SPLINE
  5
111
100
AcDbEntity
  8
Image
 62
7
100
AcDbSpline
 70
8
 71
3
 72
8
 73
4
 74
0
 40
0
 40
0
 40
0
 40
0
 40
1
 40
1
 40
1
 40
1
 10
13.374008
 20
118.636556
 30
0.0
 10
13.349988
 20
118.636556
 30
0.0
 10
13.342898
 20
118.641356
 30
0.0
 10
13.342898
 20
118.657806
 30
0.0
  0
LWPOLYLINE
  5
112
100
AcDbEntity
  8
Image
 62
7
100
AcDbPolyline
 90
3
 70
0
 10
13.865179
 20
118.519697
 30
0.0
 10
15.849701
 20
118.519697
 30
0.0
 10
15.849684
 20
119.746543
 30
0.0
  0
SPLINE
  5
113
100
AcDbEntity
  8
Image
 62
7
100
AcDbSpline
 70
8
 71
3
 72
8
 73
4
 74
0
 40
0
 40
0
 40
0
 40
0
 40
1
 40
1
 40
1
 40
1
 10
14.436729
 20
118.658032
 30
0.0
 10
14.419659
 20
118.675102
 30
0.0
 10
14.417559
 20
118.683842
 30
0.0
 10
14.426479
 20
118.700522
 30
0.0
  0
SPLINE
  5
114
100
AcDbEntity
  8
Image
 62
7
100
AcDbSpline
 70
8
 71
3
 72
8
 73
4
 74
0
 40
0
 40
0
 40
0
 40
0
 40
1
 40
1
 40
1
 40
1
 10
14.426479
 20
118.700522
 30
0.0
 10
14.432579
 20
118.712072
 30
0.0
 10
14.442669
 20
118.721522
 30
0.0
 10
14.448719
 20
118.721522
 30
0.0
  0
SPLINE
  5
115
100
AcDbEntity
  8
Image
 62
7
100
AcDbSpline
 70
8
 71
3
 72
8
 73
4
 74
0
 40
0
 40
0
 40
0
 40
0
 40
1
 40
1
 40
1
 40
1
 10
14.448719
 20
118.721522
 30
0.0
 10
14.454819
 20
118.721522
 30
0.0
 10
14.452219
 20
118.729022
 30
0.0
 10
14.443019
 20
118.738212
 30
0.0
  0
SPLINE
  5
116
100
AcDbEntity
  8
Image
 62
7
100
AcDbSpline
 70
8
 71
3
 72
8
 73
4
 74
0
 40
0
 40
0
 40
0
 40
0
 40
1
 40
1
 40
1
 40
1
 10
14.443019
 20
118.738212
 30
0.0
 10
14.420929
 20
118.760302
 30
0.0
 10
14.421929
 20
118.770232
 30
0.0
 10
14.449019
 20
118.797302
 30
0.0
  0
SPLINE
  5
117
100
AcDbEntity
  8
Image
 62
7
100
AcDbSpline
 70
8
 71
3
 72
8
 73
4
 74
0
 40
0
 40
0
 40
0
 40
0
 40
1
 40
1
 40
1
 40
1
 10
14.449019
 20
118.797302
 30
0.0
 10
14.469389
 20
118.817672
 30
0.0
 10
14.469939
 20
118.820972
 30
0.0
 10
14.454319
 20
118.829692
 30
0.0
  0
SPLINE
  5
118
100
AcDbEntity
  8
Image
 62
7
100
AcDbSpline
 70
8
 71
3
 72
8
 73
4
 74
0
 40
0
 40
0
 40
0
 40
0
 40
1
 40
1
 40
1
 40
1
 10
14.454319
 20
118.829692
 30
0.0
 10
14.444419
 20
118.835192
 30
0.0
 10
14.436949
 20
118.852782
 30
0.0
 10
14.436949
 20
118.870512
 30
0.0
  0
SPLINE
  5
119
100
AcDbEntity
  8
Image
 62
7
100
AcDbSpline
 70
8
 71
3
 72
8
 73
4
 74
0
 40
0
 40
0
 40
0
 40
0
 40
1
 40
1
 40
1
 40
1
 10
14.436949
 20
118.870512
 30
0.0
 10
14.436949
 20
118.912592
 30
0.0
 10
14.476339
 20
118.937532
 30
0.0
 10
14.541200
 20
118.936532
 30
0.0
  0
SPLINE
  5
11a
100
AcDbEntity
  8
Image
 62
7
100
AcDbSpline
 70
8
 71
3
 72
8
 73
4
 74
0
 40
0
 40
0
 40
0
 40
0
 40
1
 40
1
 40
1
 40
1
 10
14.541200
 20
118.936532
 30
0.0
 10
14.577250
 20
118.935965
 30
0.0
 10
14.596200
 20
118.941332
 30
0.0
 10
14.609970
 20
118.956102
 30
0.0
  0
SPLINE
  5
11b
100
AcDbEntity
  8
Image
 62
7
100
AcDbSpline
 70
8
 71
3
 72
8
 73
4
 74
0
 40
0
 40
0
 40
0
 40
0
 40
1
 40
1
 40
1
 40
1
 10
14.609970
 20
118.956102
 30
0.0
 10
14.620420
 20
118.967292
 30
0.0
 10
14.635960
 20
118.976452
 30
0.0
 10
14.644490
 20
118.976452
 30
0.0
  0
SPLINE
  5
11c
100
AcDbEntity
  8
Image
 62
7
100
AcDbSpline
 70
8
 71
3
 72
8
 73
4
 74
0
 40
0
 40
0
 40
0
 40
0
 40
1
 40
1
 40
1
 40
1
 10
14.644490
 20
118.976452
 30
0.0
 10
14.668550
 20
118.976452
 30
0.0
 10
14.662960
 20
118.937212
 30
0.0
 10
14.637990
 20
118.930672
 30
0.0
  0
SPLINE
  5
11d
100
AcDbEntity
  8
Image
 62
7
100
AcDbSpline
 70
8
 71
3
 72
8
 73
4
 74
0
 40
0
 40
0
 40
0
 40
0
 40
1
 40
1
 40
1
 40
1
 10
14.637990
 20
118.930672
 30
0.0
 10
14.618990
 20
118.925672
 30
0.0
 10
14.617650
 20
118.921772
 30
0.0
 10
14.628290
 20
118.901892
 30
0.0
  0
SPLINE
  5
11e
100
AcDbEntity
  8
Image
 62
7
100
AcDbSpline
 70
8
 71
3
 72
8
 73
4
 74
0
 40
0
 40
0
 40
0
 40
0
 40
1
 40
1
 40
1
 40
1
 10
14.628290
 20
118.901892
 30
0.0
 10
14.656780
 20
118.848652
 30
0.0
 10
14.613930
 20
118.806502
 30
0.0
 10
14.531310
 20
118.806502
 30
0.0
  0
SPLINE
  5
11f
100
AcDbEntity
  8
Image
 62
7
100
AcDbSpline
 70
8
 71
3
 72
8
 73
4
 74
0
 40
0
 40
0
 40
0
 40
0
 40
1
 40
1
 40
1
 40
1
 10
14.531310
 20
118.806502
 30
0.0
 10
14.496310
 20
118.806502
 30
0.0
 10
14.489190
 20
118.803102
 30
0.0
 10
14.492100
 20
118.787912
 30
0.0
  0
SPLINE
  5
120
100
AcDbEntity
  8
Image
 62
7
100
AcDbSpline
 70
8
 71
3
 72
8
 73
4
 74
0
 40
0
 40
0
 40
0
 40
0
 40
1
 40
1
 40
1
 40
1
 10
14.492100
 20
118.787912
 30
0.0
 10
14.494900
 20
118.773462
 30
0.0
 10
14.510300
 20
118.767922
 30
0.0
 10
14.561490
 20
118.763022
 30
0.0
  0
SPLINE
  5
121
100
AcDbEntity
  8
Image
 62
7
100
AcDbSpline
 70
8
 71
3
 72
8
 73
4
 74
0
 40
0
 40
0
 40
0
 40
0
 40
1
 40
1
 40
1
 40
1
 10
14.561490
 20
118.763022
 30
0.0
 10
14.597700
 20
118.759522
 30
0.0
 10
14.634690
 20
118.750602
 30
0.0
 10
14.643690
 20
118.743132
 30
0.0
  0
SPLINE
  5
122
100
AcDbEntity
  8
Image
 62
7
100
AcDbSpline
 70
8
 71
3
 72
8
 73
4
 74
0
 40
0
 40
0
 40
0
 40
0
 40
1
 40
1
 40
1
 40
1
 10
14.643690
 20
118.743132
 30
0.0
 10
14.668750
 20
118.722342
 30
0.0
 10
14.663360
 20
118.683192
 30
0.0
 10
14.632060
 20
118.658572
 30
0.0
  0
SPLINE
  5
123
100
AcDbEntity
  8
Image
 62
7
100
AcDbSpline
 70
8
 71
3
 72
8
 73
4
 74
0
 40
0
 40
0
 40
0
 40
0
 40
1
 40
1
 40
1
 40
1
 10
14.632060
 20
118.658572
 30
0.0
 10
14.592030
 20
118.627082
 30
0.0
 10
14.468039
 20
118.626752
 30
0.0
 10
14.436745
 20
118.658049
 30
0.0
  0
LWPOLYLINE
  5
124
100
AcDbEntity
  8
Image
 62
7
100
AcDbPolyline
 90
1
 70
1
 10
13.342898
 20
118.657806
 30
0.0
  0
SPLINE
  5
125
100
AcDbEntity
  8
Image
 62
7
100
AcDbSpline
 70
8
 71
3
 72
8
 73
4
 74
0
 40
0
 40
0
 40
0
 40
0
 40
1
 40
1
 40
1
 40
1
 10
14.594908
 20
118.682672
 30
0.0
 10
14.612608
 20
118.704012
 30
0.0
 10
14.598608
 20
118.710922
 30
0.0
 10
14.537878
 20
118.710922
 30
0.0
  0
SPLINE
  5
126
100
AcDbEntity
  8
Image
 62
7
100
AcDbSpline
 70
8
 71
3
 72
8
 73
4
 74
0
 40
0
 40
0
 40
0
 40
0
 40
1
 40
1
 40
1
 40
1
 10
14.537878
 20
118.710922
 30
0.0
 10
14.507688
 20
118.710922
 30
0.0
 10
14.479848
 20
118.707822
 30
0.0
 10
14.476008
 20
118.703922
 30
0.0
  0
SPLINE
  5
127
100
AcDbEntity
  8
Image
 62
7
100
AcDbSpline
 70
8
 71
3
 72
8
 73
4
 74
0
 40
0
 40
0
 40
0
 40
0
 40
1
 40
1
 40
1
 40
1
 10
14.476008
 20
118.703922
 30
0.0
 10
14.460508
 20
118.688422
 30
0.0
 10
14.495378
 20
118.668422
 30
0.0
 10
14.537878
 20
118.668422
 30
0.0
  0
SPLINE
  5
128
100
AcDbEntity
  8
Image
 62
7
100
AcDbSpline
 70
8
 71
3
 72
8
 73
4
 74
0
 40
0
 40
0
 40
0
 40
0
 40
1
 40
1
 40
1
 40
1
 10
14.537878
 20
118.668422
 30
0.0
 10
14.562738
 20
118.668422
 30
0.0
 10
14.588398
 20
118.674822
 30
0.0
 10
14.594908
 20
118.682672
 30
0.0
  0
LWPOLYLINE
  5
129
100
AcDbEntity
  8
Image
 62
7
100
AcDbPolyline
 90
1
 70
1
 10
14.436745
 20
118.658049
 30
0.0
  0
SPLINE
  5
12a
100
AcDbEntity
  8
Image
 62
7
100
AcDbSpline
 70
8
 71
3
 72
8
 73
4
 74
0
 40
0
 40
0
 40
0
 40
0
 40
1
 40
1
 40
1
 40
1
 10
14.572918
 20
118.865852
 30
0.0
 10
14.577018
 20
118.894402
 30
0.0
 10
14.550358
 20
118.916422
 30
0.0
 10
14.522458
 20
118.907572
 30
0.0
  0
SPLINE
  5
12b
100
AcDbEntity
  8
Image
 62
7
100
AcDbSpline
 70
8
 71
3
 72
8
 73
4
 74
0
 40
0
 40
0
 40
0
 40
0
 40
1
 40
1
 40
1
 40
1
 10
14.522458
 20
118.907572
 30
0.0
 10
14.501048
 20
118.900772
 30
0.0
 10
14.492078
 20
118.861152
 30
0.0
 10
14.508278
 20
118.844962
 30
0.0
  0
SPLINE
  5
12c
100
AcDbEntity
  8
Image
 62
7
100
AcDbSpline
 70
8
 71
3
 72
8
 73
4
 74
0
 40
0
 40
0
 40
0
 40
0
 40
1
 40
1
 40
1
 40
1
 10
14.508278
 20
118.844962
 30
0.0
 10
14.524368
 20
118.828872
 30
0.0
 10
14.569728
 20
118.843562
 30
0.0
 10
14.572918
 20
118.865852
 30
0.0
  0
LWPOLYLINE
  5
12d
100
AcDbEntity
  8
Image
 62
7
100
AcDbPolyline
 90
1
 70
1
 10
14.594908
 20
118.682672
 30
0.0
  0
SPLINE
  5
12e
100
AcDbEntity
  8
Image
 62
7
100
AcDbSpline
 70
8
 71
3
 72
8
 73
4
 74
0
 40
0
 40
0
 40
0
 40
0
 40
1
 40
1
 40
1
 40
1
 10
12.079689
 20
118.738892
 30
0.0
 10
12.054719
 20
118.770632
 30
0.0
 10
12.049609
 20
118.851522
 30
0.0
 10
12.069789
 20
118.895759
 30
0.0
  0
SPLINE
  5
12f
100
AcDbEntity
  8
Image
 62
7
100
AcDbSpline
 70
8
 71
3
 72
8
 73
4
 74
0
 40
0
 40
0
 40
0
 40
0
 40
1
 40
1
 40
1
 40
1
 10
12.069789
 20
118.895759
 30
0.0
 10
12.086229
 20
118.931849
 30
0.0
 10
12.132069
 20
118.947039
 30
0.0
 10
12.168109
 20
118.928339
 30
0.0
  0
LWPOLYLINE
  5
130
100
AcDbEntity
  8
Image
 62
7
100
AcDbPolyline
 90
1
 70
1
 10
14.572918
 20
118.865852
 30
0.0
  0
SPLINE
  5
131
100
AcDbEntity
  8
Image
 62
7
100
AcDbSpline
 70
8
 71
3
 72
8
 73
4
 74
0
 40
0
 40
0
 40
0
 40
0
 40
1
 40
1
 40
1
 40
1
 10
12.195789
 20
118.966479
 30
0.0
 10
12.195789
 20
119.015379
 30
0.0
 10
12.197689
 20
119.018959
 30
0.0
 10
12.222339
 20
119.018959
 30
0.0
  0
LWPOLYLINE
  5
132
100
AcDbEntity
  8
Image
 62
7
100
AcDbPolyline
 90
3
 70
0
 10
12.168109
 20
118.928339
 30
0.0
 10
12.195789
 20
118.913999
 30
0.0
 10
12.195789
 20
118.966479
 30
0.0
  0
SPLINE
  5
133
100
AcDbEntity
  8
Image
 62
7
100
AcDbSpline
 70
8
 71
3
 72
8
 73
4
 74
0
 40
0
 40
0
 40
0
 40
0
 40
1
 40
1
 40
1
 40
1
 10
12.222339
 20
118.710924
 30
0.0
 10
12.204709
 20
118.710924
 30
0.0
 10
12.195789
 20
118.716824
 30
0.0
 10
12.195789
 20
118.728494
 30
0.0
  0
SPLINE
  5
134
100
AcDbEntity
  8
Image
 62
7
100
AcDbSpline
 70
8
 71
3
 72
8
 73
4
 74
0
 40
0
 40
0
 40
0
 40
0
 40
1
 40
1
 40
1
 40
1
 10
12.195789
 20
118.728494
 30
0.0
 10
12.195789
 20
118.744844
 30
0.0
 10
12.194489
 20
118.744844
 30
0.0
 10
12.176369
 20
118.728494
 30
0.0
  0
SPLINE
  5
135
100
AcDbEntity
  8
Image
 62
7
100
AcDbSpline
 70
8
 71
3
 72
8
 73
4
 74
0
 40
0
 40
0
 40
0
 40
0
 40
1
 40
1
 40
1
 40
1
 10
12.176369
 20
118.728494
 30
0.0
 10
12.147089
 20
118.701994
 30
0.0
 10
12.105209
 20
118.706504
 30
0.0
 10
12.079729
 20
118.738904
 30
0.0
  0
LWPOLYLINE
  5
136
100
AcDbEntity
  8
Image
 62
7
100
AcDbPolyline
 90
5
 70
0
 10
12.222339
 20
119.018959
 30
0.0
 10
12.248889
 20
119.018959
 30
0.0
 10
12.248889
 20
118.864941
 30
0.0
 10
12.248889
 20
118.710924
 30
0.0
 10
12.222339
 20
118.710924
 30
0.0
  0
SPLINE
  5
137
100
AcDbEntity
  8
Image
 62
7
100
AcDbSpline
 70
8
 71
3
 72
8
 73
4
 74
0
 40
0
 40
0
 40
0
 40
0
 40
1
 40
1
 40
1
 40
1
 10
12.183012
 20
118.766152
 30
0.0
 10
12.200662
 20
118.783802
 30
0.0
 10
12.199012
 20
118.861812
 30
0.0
 10
12.180412
 20
118.886805
 30
0.0
  0
SPLINE
  5
138
100
AcDbEntity
  8
Image
 62
7
100
AcDbSpline
 70
8
 71
3
 72
8
 73
4
 74
0
 40
0
 40
0
 40
0
 40
0
 40
1
 40
1
 40
1
 40
1
 10
12.180412
 20
118.886805
 30
0.0
 10
12.146142
 20
118.932955
 30
0.0
 10
12.106982
 20
118.854665
 30
0.0
 10
12.126152
 20
118.778317
 30
0.0
  0
SPLINE
  5
139
100
AcDbEntity
  8
Image
 62
7
100
AcDbSpline
 70
8
 71
3
 72
8
 73
4
 74
0
 40
0
 40
0
 40
0
 40
0
 40
1
 40
1
 40
1
 40
1
 10
12.126152
 20
118.778317
 30
0.0
 10
12.132952
 20
118.751347
 30
0.0
 10
12.161962
 20
118.745127
 30
0.0
 10
12.182992
 20
118.766147
 30
0.0
  0
LWPOLYLINE
  5
13a
100
AcDbEntity
  8
Image
 62
7
100
AcDbPolyline
 90
1
 70
1
 10
12.079729
 20
118.738904
 30
0.0
  0
LWPOLYLINE
  5
13b
100
AcDbEntity
  8
Image
 62
7
100
AcDbPolyline
 90
1
 70
1
 10
12.182992
 20
118.766147
 30
0.0
  0
LWPOLYLINE
  5
13c
100
AcDbEntity
  8
Image
 62
7
100
AcDbPolyline
 90
8
 70
1
 10
12.312599
 20
118.822442
 30
0.0
 10
12.312599
 20
118.933972
 30
0.0
 10
12.344469
 20
118.933972
 30
0.0
 10
12.376339
 20
118.933972
 30
0.0
 10
12.376339
 20
118.822442
 30
0.0
 10
12.376339
 20
118.710912
 30
0.0
 10
12.344469
 20
118.710912
 30
0.0
 10
12.312599
 20
118.710912
 30
0.0
  0
SPLINE
  5
13d
100
AcDbEntity
  8
Image
 62
7
100
AcDbSpline
 70
8
 71
3
 72
8
 73
4
 74
0
 40
0
 40
0
 40
0
 40
0
 40
1
 40
1
 40
1
 40
1
 10
12.466612
 20
118.933972
 30
0.0
 10
12.483132
 20
118.933972
 30
0.0
 10
12.493162
 20
118.927872
 30
0.0
 10
12.493162
 20
118.918032
 30
0.0
  0
SPLINE
  5
13e
100
AcDbEntity
  8
Image
 62
7
100
AcDbSpline
 70
8
 71
3
 72
8
 73
4
 74
0
 40
0
 40
0
 40
0
 40
0
 40
1
 40
1
 40
1
 40
1
 10
12.493162
 20
118.918032
 30
0.0
 10
12.493162
 20
118.906232
 30
0.0
 10
12.499362
 20
118.908332
 30
0.0
 10
12.517062
 20
118.926032
 30
0.0
  0
LWPOLYLINE
  5
13f
100
AcDbEntity
  8
Image
 62
7
100
AcDbPolyline
 90
3
 70
0
 10
12.440062
 20
118.822442
 30
0.0
 10
12.440062
 20
118.933972
 30
0.0
 10
12.466612
 20
118.933972
 30
0.0
  0
SPLINE
  5
140
100
AcDbEntity
  8
Image
 62
7
100
AcDbSpline
 70
8
 71
3
 72
8
 73
4
 74
0
 40
0
 40
0
 40
0
 40
0
 40
1
 40
1
 40
1
 40
1
 10
12.544262
 20
118.921812
 30
0.0
 10
12.546362
 20
118.902812
 30
0.0
 10
12.538762
 20
118.884872
 30
0.0
 10
12.520362
 20
118.866532
 30
0.0
  0
SPLINE
  5
141
100
AcDbEntity
  8
Image
 62
7
100
AcDbSpline
 70
8
 71
3
 72
8
 73
4
 74
0
 40
0
 40
0
 40
0
 40
0
 40
1
 40
1
 40
1
 40
1
 10
12.520362
 20
118.866532
 30
0.0
 10
12.497232
 20
118.843402
 30
0.0
 10
12.493212
 20
118.829872
 30
0.0
 10
12.493212
 20
118.775162
 30
0.0
  0
SPLINE
  5
142
100
AcDbEntity
  8
Image
 62
7
100
AcDbSpline
 70
8
 71
3
 72
8
 73
4
 74
0
 40
0
 40
0
 40
0
 40
0
 40
1
 40
1
 40
1
 40
1
 10
12.493212
 20
118.775162
 30
0.0
 10
12.493212
 20
118.713752
 30
0.0
 10
12.492012
 20
118.710952
 30
0.0
 10
12.466662
 20
118.710952
 30
0.0
  0
LWPOLYLINE
  5
143
100
AcDbEntity
  8
Image
 62
7
100
AcDbPolyline
 90
3
 70
0
 10
12.517062
 20
118.926032
 30
0.0
 10
12.540962
 20
118.949932
 30
0.0
 10
12.544262
 20
118.921812
 30
0.0
  0
SPLINE
  5
144
100
AcDbEntity
  8
Image
 62
7
100
AcDbSpline
 70
8
 71
3
 72
8
 73
4
 74
0
 40
0
 40
0
 40
0
 40
0
 40
1
 40
1
 40
1
 40
1
 10
12.634469
 20
118.723622
 30
0.0
 10
12.610319
 20
118.735282
 30
0.0
 10
12.578149
 20
118.791342
 30
0.0
 10
12.578149
 20
118.821732
 30
0.0
  0
SPLINE
  5
145
100
AcDbEntity
  8
Image
 62
7
100
AcDbSpline
 70
8
 71
3
 72
8
 73
4
 74
0
 40
0
 40
0
 40
0
 40
0
 40
1
 40
1
 40
1
 40
1
 10
12.578149
 20
118.821732
 30
0.0
 10
12.578149
 20
118.853972
 30
0.0
 10
12.608079
 20
118.910942
 30
0.0
 10
12.631649
 20
118.923556
 30
0.0
  0
SPLINE
  5
146
100
AcDbEntity
  8
Image
 62
7
100
AcDbSpline
 70
8
 71
3
 72
8
 73
4
 74
0
 40
0
 40
0
 40
0
 40
0
 40
1
 40
1
 40
1
 40
1
 10
12.631649
 20
118.923556
 30
0.0
 10
12.676379
 20
118.947496
 30
0.0
 10
12.728679
 20
118.939186
 30
0.0
 10
12.761019
 20
118.903006
 30
0.0
  0
SPLINE
  5
147
100
AcDbEntity
  8
Image
 62
7
100
AcDbSpline
 70
8
 71
3
 72
8
 73
4
 74
0
 40
0
 40
0
 40
0
 40
0
 40
1
 40
1
 40
1
 40
1
 10
12.761019
 20
118.903006
 30
0.0
 10
12.777279
 20
118.884806
 30
0.0
 10
12.790589
 20
118.858036
 30
0.0
 10
12.790589
 20
118.843526
 30
0.0
  0
SPLINE
  5
148
100
AcDbEntity
  8
Image
 62
7
100
AcDbSpline
 70
8
 71
3
 72
8
 73
4
 74
0
 40
0
 40
0
 40
0
 40
0
 40
1
 40
1
 40
1
 40
1
 10
12.790589
 20
118.843526
 30
0.0
 10
12.790589
 20
118.818146
 30
0.0
 10
12.787989
 20
118.817136
 30
0.0
 10
12.722179
 20
118.817136
 30
0.0
  0
SPLINE
  5
149
100
AcDbEntity
  8
Image
 62
7
100
AcDbSpline
 70
8
 71
3
 72
8
 73
4
 74
0
 40
0
 40
0
 40
0
 40
0
 40
1
 40
1
 40
1
 40
1
 10
12.722179
 20
118.817136
 30
0.0
 10
12.684549
 20
118.817136
 30
0.0
 10
12.651649
 20
118.813536
 30
0.0
 10
12.649069
 20
118.809136
 30
0.0
  0
SPLINE
  5
14a
100
AcDbEntity
  8
Image
 62
7
100
AcDbSpline
 70
8
 71
3
 72
8
 73
4
 74
0
 40
0
 40
0
 40
0
 40
0
 40
1
 40
1
 40
1
 40
1
 10
12.649069
 20
118.809136
 30
0.0
 10
12.646469
 20
118.804736
 30
0.0
 10
12.648459
 20
118.790416
 30
0.0
 10
12.653469
 20
118.777266
 30
0.0
  0
SPLINE
  5
14b
100
AcDbEntity
  8
Image
 62
7
100
AcDbSpline
 70
8
 71
3
 72
8
 73
4
 74
0
 40
0
 40
0
 40
0
 40
0
 40
1
 40
1
 40
1
 40
1
 10
12.653469
 20
118.777266
 30
0.0
 10
12.664159
 20
118.748996
 30
0.0
 10
12.700629
 20
118.745506
 30
0.0
 10
12.727859
 20
118.770166
 30
0.0
  0
SPLINE
  5
14c
100
AcDbEntity
  8
Image
 62
7
100
AcDbSpline
 70
8
 71
3
 72
8
 73
4
 74
0
 40
0
 40
0
 40
0
 40
0
 40
1
 40
1
 40
1
 40
1
 10
12.727859
 20
118.770166
 30
0.0
 10
12.738069
 20
118.779366
 30
0.0
 10
12.757559
 20
118.785326
 30
0.0
 10
12.771179
 20
118.783346
 30
0.0
  0
SPLINE
  5
14d
100
AcDbEntity
  8
Image
 62
7
100
AcDbSpline
 70
8
 71
3
 72
8
 73
4
 74
0
 40
0
 40
0
 40
0
 40
0
 40
1
 40
1
 40
1
 40
1
 10
12.771179
 20
118.783346
 30
0.0
 10
12.795749
 20
118.779746
 30
0.0
 10
12.795689
 20
118.779446
 30
0.0
 10
12.762279
 20
118.745306
 30
0.0
  0
SPLINE
  5
14e
100
AcDbEntity
  8
Image
 62
7
100
AcDbSpline
 70
8
 71
3
 72
8
 73
4
 74
0
 40
0
 40
0
 40
0
 40
0
 40
1
 40
1
 40
1
 40
1
 10
12.762279
 20
118.745306
 30
0.0
 10
12.726359
 20
118.708626
 30
0.0
 10
12.681379
 20
118.700976
 30
0.0
 10
12.634558
 20
118.723596
 30
0.0
  0
LWPOLYLINE
  5
14f
100
AcDbEntity
  8
Image
 62
7
100
AcDbPolyline
 90
3
 70
0
 10
12.466662
 20
118.710952
 30
0.0
 10
12.440112
 20
118.710952
 30
0.0
 10
12.440062
 20
118.822442
 30
0.0
  0
SPLINE
  5
150
100
AcDbEntity
  8
Image
 62
7
100
AcDbSpline
 70
8
 71
3
 72
8
 73
4
 74
0
 40
0
 40
0
 40
0
 40
0
 40
1
 40
1
 40
1
 40
1
 10
12.726849
 20
118.863625
 30
0.0
 10
12.726849
 20
118.871625
 30
0.0
 10
12.719249
 20
118.884545
 30
0.0
 10
12.710029
 20
118.892215
 30
0.0
  0
SPLINE
  5
151
100
AcDbEntity
  8
Image
 62
7
100
AcDbSpline
 70
8
 71
3
 72
8
 73
4
 74
0
 40
0
 40
0
 40
0
 40
0
 40
1
 40
1
 40
1
 40
1
 10
12.710029
 20
118.892215
 30
0.0
 10
12.690299
 20
118.908585
 30
0.0
 10
12.659899
 20
118.894415
 30
0.0
 10
12.654379
 20
118.866445
 30
0.0
  0
SPLINE
  5
152
100
AcDbEntity
  8
Image
 62
7
100
AcDbSpline
 70
8
 71
3
 72
8
 73
4
 74
0
 40
0
 40
0
 40
0
 40
0
 40
1
 40
1
 40
1
 40
1
 10
12.654379
 20
118.866445
 30
0.0
 10
12.651679
 20
118.852875
 30
0.0
 10
12.659379
 20
118.848995
 30
0.0
 10
12.688899
 20
118.848995
 30
0.0
  0
SPLINE
  5
153
100
AcDbEntity
  8
Image
 62
7
100
AcDbSpline
 70
8
 71
3
 72
8
 73
4
 74
0
 40
0
 40
0
 40
0
 40
0
 40
1
 40
1
 40
1
 40
1
 10
12.688899
 20
118.848995
 30
0.0
 10
12.714059
 20
118.848995
 30
0.0
 10
12.726859
 20
118.853895
 30
0.0
 10
12.726859
 20
118.863625
 30
0.0
  0
LWPOLYLINE
  5
154
100
AcDbEntity
  8
Image
 62
7
100
AcDbPolyline
 90
1
 70
1
 10
12.634558
 20
118.723596
 30
0.0
  0
SPLINE
  5
155
100
AcDbEntity
  8
Image
 62
7
100
AcDbSpline
 70
8
 71
3
 72
8
 73
4
 74
0
 40
0
 40
0
 40
0
 40
0
 40
1
 40
1
 40
1
 40
1
 10
12.862369
 20
118.737613
 30
0.0
 10
12.847679
 20
118.752303
 30
0.0
 10
12.832919
 20
118.778033
 30
0.0
 10
12.829569
 20
118.794793
 30
0.0
  0
SPLINE
  5
156
100
AcDbEntity
  8
Image
 62
7
100
AcDbSpline
 70
8
 71
3
 72
8
 73
4
 74
0
 40
0
 40
0
 40
0
 40
0
 40
1
 40
1
 40
1
 40
1
 10
12.829569
 20
118.794793
 30
0.0
 10
12.820769
 20
118.838953
 30
0.0
 10
12.840729
 20
118.899673
 30
0.0
 10
12.870529
 20
118.919198
 30
0.0
  0
SPLINE
  5
157
100
AcDbEntity
  8
Image
 62
7
100
AcDbSpline
 70
8
 71
3
 72
8
 73
4
 74
0
 40
0
 40
0
 40
0
 40
0
 40
1
 40
1
 40
1
 40
1
 10
12.870529
 20
118.919198
 30
0.0
 10
12.922919
 20
118.953528
 30
0.0
 10
13.014069
 20
118.931608
 30
0.0
 10
13.027162
 20
118.881548
 30
0.0
  0
SPLINE
  5
158
100
AcDbEntity
  8
Image
 62
7
100
AcDbSpline
 70
8
 71
3
 72
8
 73
4
 74
0
 40
0
 40
0
 40
0
 40
0
 40
1
 40
1
 40
1
 40
1
 10
13.027162
 20
118.881548
 30
0.0
 10
13.031962
 20
118.863248
 30
0.0
 10
13.027991
 20
118.859618
 30
0.0
 10
13.003162
 20
118.859618
 30
0.0
  0
SPLINE
  5
159
100
AcDbEntity
  8
Image
 62
7
100
AcDbSpline
 70
8
 71
3
 72
8
 73
4
 74
0
 40
0
 40
0
 40
0
 40
0
 40
1
 40
1
 40
1
 40
1
 10
13.003162
 20
118.859618
 30
0.0
 10
12.986532
 20
118.859618
 30
0.0
 10
12.970732
 20
118.866618
 30
0.0
 10
12.967312
 20
118.875558
 30
0.0
  0
SPLINE
  5
15a
100
AcDbEntity
  8
Image
 62
7
100
AcDbSpline
 70
8
 71
3
 72
8
 73
4
 74
0
 40
0
 40
0
 40
0
 40
0
 40
1
 40
1
 40
1
 40
1
 10
12.967312
 20
118.875558
 30
0.0
 10
12.960012
 20
118.894678
 30
0.0
 10
12.927282
 20
118.896478
 30
0.0
 10
12.909542
 20
118.878758
 30
0.0
  0
SPLINE
  5
15b
100
AcDbEntity
  8
Image
 62
7
100
AcDbSpline
 70
8
 71
3
 72
8
 73
4
 74
0
 40
0
 40
0
 40
0
 40
0
 40
1
 40
1
 40
1
 40
1
 10
12.909542
 20
118.878758
 30
0.0
 10
12.902542
 20
118.871758
 30
0.0
 10
12.896792
 20
118.845628
 30
0.0
 10
12.896792
 20
118.820708
 30
0.0
  0
SPLINE
  5
15c
100
AcDbEntity
  8
Image
 62
7
100
AcDbSpline
 70
8
 71
3
 72
8
 73
4
 74
0
 40
0
 40
0
 40
0
 40
0
 40
1
 40
1
 40
1
 40
1
 10
12.896792
 20
118.820708
 30
0.0
 10
12.896792
 20
118.762498
 30
0.0
 10
12.926612
 20
118.740758
 30
0.0
 10
12.960282
 20
118.774418
 30
0.0
  0
SPLINE
  5
15d
100
AcDbEntity
  8
Image
 62
7
100
AcDbSpline
 70
8
 71
3
 72
8
 73
4
 74
0
 40
0
 40
0
 40
0
 40
0
 40
1
 40
1
 40
1
 40
1
 10
12.960282
 20
118.774418
 30
0.0
 10
12.982882
 20
118.797018
 30
0.0
 10
13.034872
 20
118.804018
 30
0.0
 10
13.034872
 20
118.784458
 30
0.0
  0
SPLINE
  5
15e
100
AcDbEntity
  8
Image
 62
7
100
AcDbSpline
 70
8
 71
3
 72
8
 73
4
 74
0
 40
0
 40
0
 40
0
 40
0
 40
1
 40
1
 40
1
 40
1
 10
13.034872
 20
118.784458
 30
0.0
 10
13.034872
 20
118.778158
 30
0.0
 10
13.020902
 20
118.759048
 30
0.0
 10
13.003822
 20
118.741978
 30
0.0
  0
SPLINE
  5
15f
100
AcDbEntity
  8
Image
 62
7
100
AcDbSpline
 70
8
 71
3
 72
8
 73
4
 74
0
 40
0
 40
0
 40
0
 40
0
 40
1
 40
1
 40
1
 40
1
 10
13.003822
 20
118.741978
 30
0.0
 10
12.962442
 20
118.700598
 30
0.0
 10
12.901269
 20
118.698718
 30
0.0
 10
12.862355
 20
118.737578
 30
0.0
  0
LWPOLYLINE
  5
160
100
AcDbEntity
  8
Image
 62
7
100
AcDbPolyline
 90
1
 70
1
 10
12.726859
 20
118.863625
 30
0.0
  0
SPLINE
  5
161
100
AcDbEntity
  8
Image
 62
7
100
AcDbSpline
 70
8
 71
3
 72
8
 73
4
 74
0
 40
0
 40
0
 40
0
 40
0
 40
1
 40
1
 40
1
 40
1
 10
13.100740
 20
118.723653
 30
0.0
 10
13.093240
 20
118.731153
 30
0.0
 10
13.087990
 20
118.766833
 30
0.0
 10
13.087990
 20
118.809623
 30
0.0
  0
SPLINE
  5
162
100
AcDbEntity
  8
Image
 62
7
100
AcDbSpline
 70
8
 71
3
 72
8
 73
4
 74
0
 40
0
 40
0
 40
0
 40
0
 40
1
 40
1
 40
1
 40
1
 10
13.087990
 20
118.809623
 30
0.0
 10
13.087990
 20
118.873913
 30
0.0
 10
13.085390
 20
118.883523
 30
0.0
 10
13.066740
 20
118.888403
 30
0.0
  0
SPLINE
  5
163
100
AcDbEntity
  8
Image
 62
7
100
AcDbSpline
 70
8
 71
3
 72
8
 73
4
 74
0
 40
0
 40
0
 40
0
 40
0
 40
1
 40
1
 40
1
 40
1
 10
13.066740
 20
118.888403
 30
0.0
 10
13.054990
 20
118.891503
 30
0.0
 10
13.045490
 20
118.902883
 30
0.0
 10
13.045490
 20
118.913963
 30
0.0
  0
SPLINE
  5
164
100
AcDbEntity
  8
Image
 62
7
100
AcDbSpline
 70
8
 71
3
 72
8
 73
4
 74
0
 40
0
 40
0
 40
0
 40
0
 40
1
 40
1
 40
1
 40
1
 10
13.045490
 20
118.913963
 30
0.0
 10
13.045490
 20
118.926893
 30
0.0
 10
13.053090
 20
118.933973
 30
0.0
 10
13.066740
 20
118.933973
 30
0.0
  0
SPLINE
  5
165
100
AcDbEntity
  8
Image
 62
7
100
AcDbSpline
 70
8
 71
3
 72
8
 73
4
 74
0
 40
0
 40
0
 40
0
 40
0
 40
1
 40
1
 40
1
 40
1
 10
13.066740
 20
118.933973
 30
0.0
 10
13.083080
 20
118.933973
 30
0.0
 10
13.087990
 20
118.941073
 30
0.0
 10
13.087990
 20
118.964703
 30
0.0
  0
SPLINE
  5
166
100
AcDbEntity
  8
Image
 62
7
100
AcDbSpline
 70
8
 71
3
 72
8
 73
4
 74
0
 40
0
 40
0
 40
0
 40
0
 40
1
 40
1
 40
1
 40
1
 10
13.087990
 20
118.964703
 30
0.0
 10
13.087990
 20
118.992833
 30
0.0
 10
13.103390
 20
119.008323
 30
0.0
 10
13.131350
 20
119.008323
 30
0.0
  0
SPLINE
  5
167
100
AcDbEntity
  8
Image
 62
7
100
AcDbSpline
 70
8
 71
3
 72
8
 73
4
 74
0
 40
0
 40
0
 40
0
 40
0
 40
1
 40
1
 40
1
 40
1
 10
13.131350
 20
119.008323
 30
0.0
 10
13.136650
 20
119.008323
 30
0.0
 10
13.141150
 20
118.991583
 30
0.0
 10
13.141150
 20
118.971153
 30
0.0
  0
SPLINE
  5
168
100
AcDbEntity
  8
Image
 62
7
100
AcDbSpline
 70
8
 71
3
 72
8
 73
4
 74
0
 40
0
 40
0
 40
0
 40
0
 40
1
 40
1
 40
1
 40
1
 10
13.141150
 20
118.971153
 30
0.0
 10
13.141150
 20
118.938583
 30
0.0
 10
13.144450
 20
118.933973
 30
0.0
 10
13.167700
 20
118.933973
 30
0.0
  0
SPLINE
  5
169
100
AcDbEntity
  8
Image
 62
7
100
AcDbSpline
 70
8
 71
3
 72
8
 73
4
 74
0
 40
0
 40
0
 40
0
 40
0
 40
1
 40
1
 40
1
 40
1
 10
13.167700
 20
118.933973
 30
0.0
 10
13.187180
 20
118.933973
 30
0.0
 10
13.194250
 20
118.928273
 30
0.0
 10
13.194250
 20
118.912723
 30
0.0
  0
SPLINE
  5
16a
100
AcDbEntity
  8
Image
 62
7
100
AcDbSpline
 70
8
 71
3
 72
8
 73
4
 74
0
 40
0
 40
0
 40
0
 40
0
 40
1
 40
1
 40
1
 40
1
 10
13.194250
 20
118.912723
 30
0.0
 10
13.194250
 20
118.897033
 30
0.0
 10
13.187150
 20
118.891473
 30
0.0
 10
13.167170
 20
118.891473
 30
0.0
  0
SPLINE
  5
16b
100
AcDbEntity
  8
Image
 62
7
100
AcDbSpline
 70
8
 71
3
 72
8
 73
4
 74
0
 40
0
 40
0
 40
0
 40
0
 40
1
 40
1
 40
1
 40
1
 10
13.167170
 20
118.891473
 30
0.0
 10
13.140900
 20
118.891473
 30
0.0
 10
13.140190
 20
118.889573
 30
0.0
 10
13.143270
 20
118.830393
 30
0.0
  0
SPLINE
  5
16c
100
AcDbEntity
  8
Image
 62
7
100
AcDbSpline
 70
8
 71
3
 72
8
 73
4
 74
0
 40
0
 40
0
 40
0
 40
0
 40
1
 40
1
 40
1
 40
1
 10
13.143270
 20
118.830393
 30
0.0
 10
13.145970
 20
118.778873
 30
0.0
 10
13.150170
 20
118.767673
 30
0.0
 10
13.170350
 20
118.758833
 30
0.0
  0
SPLINE
  5
16d
100
AcDbEntity
  8
Image
 62
7
100
AcDbSpline
 70
8
 71
3
 72
8
 73
4
 74
0
 40
0
 40
0
 40
0
 40
0
 40
1
 40
1
 40
1
 40
1
 10
13.170350
 20
118.758833
 30
0.0
 10
13.183490
 20
118.753033
 30
0.0
 10
13.194250
 20
118.739913
 30
0.0
 10
13.194250
 20
118.729623
 30
0.0
  0
SPLINE
  5
16e
100
AcDbEntity
  8
Image
 62
7
100
AcDbSpline
 70
8
 71
3
 72
8
 73
4
 74
0
 40
0
 40
0
 40
0
 40
0
 40
1
 40
1
 40
1
 40
1
 10
13.194250
 20
118.729623
 30
0.0
 10
13.194250
 20
118.715023
 30
0.0
 10
13.185350
 20
118.710903
 30
0.0
 10
13.153880
 20
118.710903
 30
0.0
  0
SPLINE
  5
16f
100
AcDbEntity
  8
Image
 62
7
100
AcDbSpline
 70
8
 71
3
 72
8
 73
4
 74
0
 40
0
 40
0
 40
0
 40
0
 40
1
 40
1
 40
1
 40
1
 10
13.153880
 20
118.710903
 30
0.0
 10
13.131680
 20
118.710903
 30
0.0
 10
13.107780
 20
118.716603
 30
0.0
 10
13.100770
 20
118.723653
 30
0.0
  0
LWPOLYLINE
  5
170
100
AcDbEntity
  8
Image
 62
7
100
AcDbPolyline
 90
1
 70
1
 10
12.862355
 20
118.737578
 30
0.0
  0
LWPOLYLINE
  5
171
100
AcDbEntity
  8
Image
 62
7
100
AcDbPolyline
 90
1
 70
1
 10
13.100770
 20
118.723653
 30
0.0
  0
SPLINE
  5
172
100
AcDbEntity
  8
Image
 62
7
100
AcDbSpline
 70
8
 71
3
 72
8
 73
4
 74
0
 40
0
 40
0
 40
0
 40
0
 40
1
 40
1
 40
1
 40
1
 10
13.679154
 20
118.730338
 30
0.0
 10
13.637144
 20
118.776768
 30
0.0
 10
13.672454
 20
118.832345
 30
0.0
 10
13.751664
 20
118.844212
 30
0.0
  0
SPLINE
  5
173
100
AcDbEntity
  8
Image
 62
7
100
AcDbSpline
 70
8
 71
3
 72
8
 73
4
 74
0
 40
0
 40
0
 40
0
 40
0
 40
1
 40
1
 40
1
 40
1
 10
13.751664
 20
118.844212
 30
0.0
 10
13.793894
 20
118.850512
 30
0.0
 10
13.800344
 20
118.854752
 30
0.0
 10
13.797574
 20
118.874192
 30
0.0
  0
SPLINE
  5
174
100
AcDbEntity
  8
Image
 62
7
100
AcDbSpline
 70
8
 71
3
 72
8
 73
4
 74
0
 40
0
 40
0
 40
0
 40
0
 40
1
 40
1
 40
1
 40
1
 10
13.797574
 20
118.874192
 30
0.0
 10
13.793574
 20
118.901912
 30
0.0
 10
13.755454
 20
118.909712
 30
0.0
 10
13.736354
 20
118.886692
 30
0.0
  0
SPLINE
  5
175
100
AcDbEntity
  8
Image
 62
7
100
AcDbSpline
 70
8
 71
3
 72
8
 73
4
 74
0
 40
0
 40
0
 40
0
 40
0
 40
1
 40
1
 40
1
 40
1
 10
13.736354
 20
118.886692
 30
0.0
 10
13.718764
 20
118.865502
 30
0.0
 10
13.672194
 20
118.864942
 30
0.0
 10
13.672194
 20
118.885951
 30
0.0
  0
SPLINE
  5
176
100
AcDbEntity
  8
Image
 62
7
100
AcDbSpline
 70
8
 71
3
 72
8
 73
4
 74
0
 40
0
 40
0
 40
0
 40
0
 40
1
 40
1
 40
1
 40
1
 10
13.672194
 20
118.885951
 30
0.0
 10
13.672194
 20
118.930901
 30
0.0
 10
13.801690
 20
118.954671
 30
0.0
 10
13.842986
 20
118.917291
 30
0.0
  0
SPLINE
  5
177
100
AcDbEntity
  8
Image
 62
7
100
AcDbSpline
 70
8
 71
3
 72
8
 73
4
 74
0
 40
0
 40
0
 40
0
 40
0
 40
1
 40
1
 40
1
 40
1
 10
13.842986
 20
118.917291
 30
0.0
 10
13.860176
 20
118.901731
 30
0.0
 10
13.863386
 20
118.884041
 30
0.0
 10
13.863386
 20
118.804876
 30
0.0
  0
SPLINE
  5
178
100
AcDbEntity
  8
Image
 62
7
100
AcDbSpline
 70
8
 71
3
 72
8
 73
4
 74
0
 40
0
 40
0
 40
0
 40
0
 40
1
 40
1
 40
1
 40
1
 10
13.863386
 20
118.804876
 30
0.0
 10
13.863386
 20
118.711746
 30
0.0
 10
13.863154
 20
118.710926
 30
0.0
 10
13.836836
 20
118.710926
 30
0.0
  0
SPLINE
  5
179
100
AcDbEntity
  8
Image
 62
7
100
AcDbSpline
 70
8
 71
3
 72
8
 73
4
 74
0
 40
0
 40
0
 40
0
 40
0
 40
1
 40
1
 40
1
 40
1
 10
13.836836
 20
118.710926
 30
0.0
 10
13.820316
 20
118.710926
 30
0.0
 10
13.810286
 20
118.717026
 30
0.0
 10
13.810286
 20
118.726866
 30
0.0
  0
SPLINE
  5
17a
100
AcDbEntity
  8
Image
 62
7
100
AcDbSpline
 70
8
 71
3
 72
8
 73
4
 74
0
 40
0
 40
0
 40
0
 40
0
 40
1
 40
1
 40
1
 40
1
 10
13.810286
 20
118.726866
 30
0.0
 10
13.810286
 20
118.735566
 30
0.0
 10
13.806086
 20
118.742806
 30
0.0
 10
13.800986
 20
118.742806
 30
0.0
  0
SPLINE
  5
17b
100
AcDbEntity
  8
Image
 62
7
100
AcDbSpline
 70
8
 71
3
 72
8
 73
4
 74
0
 40
0
 40
0
 40
0
 40
0
 40
1
 40
1
 40
1
 40
1
 10
13.800986
 20
118.742806
 30
0.0
 10
13.795786
 20
118.742806
 30
0.0
 10
13.785716
 20
118.735606
 30
0.0
 10
13.778436
 20
118.726866
 30
0.0
  0
SPLINE
  5
17c
100
AcDbEntity
  8
Image
 62
7
100
AcDbSpline
 70
8
 71
3
 72
8
 73
4
 74
0
 40
0
 40
0
 40
0
 40
0
 40
1
 40
1
 40
1
 40
1
 10
13.778436
 20
118.726866
 30
0.0
 10
13.759996
 20
118.704646
 30
0.0
 10
13.700546
 20
118.706736
 30
0.0
 10
13.679176
 20
118.730366
 30
0.0
  0
LWPOLYLINE
  5
17d
100
AcDbEntity
  8
Image
 62
7
100
AcDbPolyline
 90
8
 70
1
 10
13.236700
 20
118.864930
 30
0.0
 10
13.236700
 20
119.018948
 30
0.0
 10
13.268570
 20
119.018948
 30
0.0
 10
13.300440
 20
119.018948
 30
0.0
 10
13.300440
 20
118.864930
 30
0.0
 10
13.300440
 20
118.710913
 30
0.0
 10
13.268570
 20
118.710913
 30
0.0
 10
13.236700
 20
118.710913
 30
0.0
  0
SPLINE
  5
17e
100
AcDbEntity
  8
Image
 62
7
100
AcDbSpline
 70
8
 71
3
 72
8
 73
4
 74
0
 40
0
 40
0
 40
0
 40
0
 40
1
 40
1
 40
1
 40
1
 10
13.779114
 20
118.753768
 30
0.0
 10
13.804304
 20
118.767248
 30
0.0
 10
13.807384
 20
118.817128
 30
0.0
 10
13.783014
 20
118.817128
 30
0.0
  0
SPLINE
  5
17f
100
AcDbEntity
  8
Image
 62
7
100
AcDbSpline
 70
8
 71
3
 72
8
 73
4
 74
0
 40
0
 40
0
 40
0
 40
0
 40
1
 40
1
 40
1
 40
1
 10
13.783014
 20
118.817128
 30
0.0
 10
13.758134
 20
118.817128
 30
0.0
 10
13.725284
 20
118.796968
 30
0.0
 10
13.725284
 20
118.781698
 30
0.0
  0
SPLINE
  5
180
100
AcDbEntity
  8
Image
 62
7
100
AcDbSpline
 70
8
 71
3
 72
8
 73
4
 74
0
 40
0
 40
0
 40
0
 40
0
 40
1
 40
1
 40
1
 40
1
 10
13.725284
 20
118.781698
 30
0.0
 10
13.725284
 20
118.769418
 30
0.0
 10
13.745404
 20
118.742768
 30
0.0
 10
13.754664
 20
118.742768
 30
0.0
  0
SPLINE
  5
181
100
AcDbEntity
  8
Image
 62
7
100
AcDbSpline
 70
8
 71
3
 72
8
 73
4
 74
0
 40
0
 40
0
 40
0
 40
0
 40
1
 40
1
 40
1
 40
1
 10
13.754664
 20
118.742768
 30
0.0
 10
13.756764
 20
118.742768
 30
0.0
 10
13.767794
 20
118.747768
 30
0.0
 10
13.779094
 20
118.753768
 30
0.0
  0
LWPOLYLINE
  5
182
100
AcDbEntity
  8
Image
 62
7
100
AcDbPolyline
 90
1
 70
1
 10
13.679176
 20
118.730366
 30
0.0
  0
SPLINE
  5
183
100
AcDbEntity
  8
Image
 62
7
100
AcDbSpline
 70
8
 71
3
 72
8
 73
4
 74
0
 40
0
 40
0
 40
0
 40
0
 40
1
 40
1
 40
1
 40
1
 10
13.948237
 20
118.726998
 30
0.0
 10
13.940837
 20
118.735798
 30
0.0
 10
13.932497
 20
118.776478
 30
0.0
 10
13.929577
 20
118.817288
 30
0.0
  0
SPLINE
  5
184
100
AcDbEntity
  8
Image
 62
7
100
AcDbSpline
 70
8
 71
3
 72
8
 73
4
 74
0
 40
0
 40
0
 40
0
 40
0
 40
1
 40
1
 40
1
 40
1
 10
13.929577
 20
118.817288
 30
0.0
 10
13.925777
 20
118.870328
 30
0.0
 10
13.920177
 20
118.891488
 30
0.0
 10
13.909767
 20
118.891488
 30
0.0
  0
SPLINE
  5
185
100
AcDbEntity
  8
Image
 62
7
100
AcDbSpline
 70
8
 71
3
 72
8
 73
4
 74
0
 40
0
 40
0
 40
0
 40
0
 40
1
 40
1
 40
1
 40
1
 10
13.909767
 20
118.891488
 30
0.0
 10
13.901767
 20
118.891488
 30
0.0
 10
13.895267
 20
118.901088
 30
0.0
 10
13.895267
 20
118.912738
 30
0.0
  0
SPLINE
  5
186
100
AcDbEntity
  8
Image
 62
7
100
AcDbSpline
 70
8
 71
3
 72
8
 73
4
 74
0
 40
0
 40
0
 40
0
 40
0
 40
1
 40
1
 40
1
 40
1
 10
13.895267
 20
118.912738
 30
0.0
 10
13.895267
 20
118.926898
 30
0.0
 10
13.902367
 20
118.933988
 30
0.0
 10
13.916517
 20
118.933988
 30
0.0
  0
SPLINE
  5
187
100
AcDbEntity
  8
Image
 62
7
100
AcDbSpline
 70
8
 71
3
 72
8
 73
4
 74
0
 40
0
 40
0
 40
0
 40
0
 40
1
 40
1
 40
1
 40
1
 10
13.916517
 20
118.933988
 30
0.0
 10
13.932867
 20
118.933988
 30
0.0
 10
13.937767
 20
118.941088
 30
0.0
 10
13.937767
 20
118.964718
 30
0.0
  0
SPLINE
  5
188
100
AcDbEntity
  8
Image
 62
7
100
AcDbSpline
 70
8
 71
3
 72
8
 73
4
 74
0
 40
0
 40
0
 40
0
 40
0
 40
1
 40
1
 40
1
 40
1
 10
13.937767
 20
118.964718
 30
0.0
 10
13.937767
 20
118.992848
 30
0.0
 10
13.953167
 20
119.008338
 30
0.0
 10
13.981127
 20
119.008338
 30
0.0
  0
SPLINE
  5
189
100
AcDbEntity
  8
Image
 62
7
100
AcDbSpline
 70
8
 71
3
 72
8
 73
4
 74
0
 40
0
 40
0
 40
0
 40
0
 40
1
 40
1
 40
1
 40
1
 10
13.981127
 20
119.008338
 30
0.0
 10
13.986427
 20
119.008338
 30
0.0
 10
13.990927
 20
118.991598
 30
0.0
 10
13.990927
 20
118.971158
 30
0.0
  0
SPLINE
  5
18a
100
AcDbEntity
  8
Image
 62
7
100
AcDbSpline
 70
8
 71
3
 72
8
 73
4
 74
0
 40
0
 40
0
 40
0
 40
0
 40
1
 40
1
 40
1
 40
1
 10
13.990927
 20
118.971158
 30
0.0
 10
13.990927
 20
118.938588
 30
0.0
 10
13.994227
 20
118.933988
 30
0.0
 10
14.017477
 20
118.933988
 30
0.0
  0
SPLINE
  5
18b
100
AcDbEntity
  8
Image
 62
7
100
AcDbSpline
 70
8
 71
3
 72
8
 73
4
 74
0
 40
0
 40
0
 40
0
 40
0
 40
1
 40
1
 40
1
 40
1
 10
14.017477
 20
118.933988
 30
0.0
 10
14.036957
 20
118.933988
 30
0.0
 10
14.044027
 20
118.928288
 30
0.0
 10
14.044027
 20
118.912738
 30
0.0
  0
SPLINE
  5
18c
100
AcDbEntity
  8
Image
 62
7
100
AcDbSpline
 70
8
 71
3
 72
8
 73
4
 74
0
 40
0
 40
0
 40
0
 40
0
 40
1
 40
1
 40
1
 40
1
 10
14.044027
 20
118.912738
 30
0.0
 10
14.044027
 20
118.897048
 30
0.0
 10
14.036927
 20
118.891488
 30
0.0
 10
14.016947
 20
118.891488
 30
0.0
  0
SPLINE
  5
18d
100
AcDbEntity
  8
Image
 62
7
100
AcDbSpline
 70
8
 71
3
 72
8
 73
4
 74
0
 40
0
 40
0
 40
0
 40
0
 40
1
 40
1
 40
1
 40
1
 10
14.016947
 20
118.891488
 30
0.0
 10
13.990677
 20
118.891488
 30
0.0
 10
13.989957
 20
118.889588
 30
0.0
 10
13.993047
 20
118.830408
 30
0.0
  0
SPLINE
  5
18e
100
AcDbEntity
  8
Image
 62
7
100
AcDbSpline
 70
8
 71
3
 72
8
 73
4
 74
0
 40
0
 40
0
 40
0
 40
0
 40
1
 40
1
 40
1
 40
1
 10
13.993047
 20
118.830408
 30
0.0
 10
13.995747
 20
118.778888
 30
0.0
 10
13.999947
 20
118.767688
 30
0.0
 10
14.020127
 20
118.758848
 30
0.0
  0
SPLINE
  5
18f
100
AcDbEntity
  8
Image
 62
7
100
AcDbSpline
 70
8
 71
3
 72
8
 73
4
 74
0
 40
0
 40
0
 40
0
 40
0
 40
1
 40
1
 40
1
 40
1
 10
14.020127
 20
118.758848
 30
0.0
 10
14.033267
 20
118.753048
 30
0.0
 10
14.044027
 20
118.739928
 30
0.0
 10
14.044027
 20
118.729638
 30
0.0
  0
SPLINE
  5
190
100
AcDbEntity
  8
Image
 62
7
100
AcDbSpline
 70
8
 71
3
 72
8
 73
4
 74
0
 40
0
 40
0
 40
0
 40
0
 40
1
 40
1
 40
1
 40
1
 10
14.044027
 20
118.729638
 30
0.0
 10
14.044027
 20
118.714978
 30
0.0
 10
14.035127
 20
118.710918
 30
0.0
 10
14.002837
 20
118.710918
 30
0.0
  0
SPLINE
  5
191
100
AcDbEntity
  8
Image
 62
7
100
AcDbSpline
 70
8
 71
3
 72
8
 73
4
 74
0
 40
0
 40
0
 40
0
 40
0
 40
1
 40
1
 40
1
 40
1
 10
14.002837
 20
118.710918
 30
0.0
 10
13.979007
 20
118.710918
 30
0.0
 10
13.956017
 20
118.717718
 30
0.0
 10
13.948297
 20
118.727008
 30
0.0
  0
LWPOLYLINE
  5
192
100
AcDbEntity
  8
Image
 62
7
100
AcDbPolyline
 90
1
 70
1
 10
13.779094
 20
118.753768
 30
0.0
  0
LWPOLYLINE
  5
193
100
AcDbEntity
  8
Image
 62
7
100
AcDbPolyline
 90
1
 70
1
 10
13.948297
 20
118.727008
 30
0.0
  0
LWPOLYLINE
  5
194
100
AcDbEntity
  8
Image
 62
7
100
AcDbPolyline
 90
8
 70
1
 10
14.203291
 20
118.864927
 30
0.0
 10
14.203291
 20
119.018945
 30
0.0
 10
14.229841
 20
119.018945
 30
0.0
 10
14.256391
 20
119.018945
 30
0.0
 10
14.256391
 20
118.864927
 30
0.0
 10
14.256391
 20
118.710910
 30
0.0
 10
14.229841
 20
118.710910
 30
0.0
 10
14.203291
 20
118.710910
 30
0.0
  0
LWPOLYLINE
  5
195
100
AcDbEntity
  8
Image
 62
7
100
AcDbPolyline
 90
8
 70
1
 10
14.320132
 20
118.822447
 30
0.0
 10
14.320132
 20
118.933977
 30
0.0
 10
14.352002
 20
118.933977
 30
0.0
 10
14.383872
 20
118.933977
 30
0.0
 10
14.383872
 20
118.822447
 30
0.0
 10
14.383872
 20
118.710918
 30
0.0
 10
14.352002
 20
118.710918
 30
0.0
 10
14.320132
 20
118.710918
 30
0.0
  0
SPLINE
  5
196
100
AcDbEntity
  8
Image
 62
7
100
AcDbSpline
 70
8
 71
3
 72
8
 73
4
 74
0
 40
0
 40
0
 40
0
 40
0
 40
1
 40
1
 40
1
 40
1
 10
14.723768
 20
119.018945
 30
0.0
 10
14.754868
 20
119.018945
 30
0.0
 10
14.755638
 20
119.017745
 30
0.0
 10
14.755638
 20
118.966645
 30
0.0
  0
LWPOLYLINE
  5
197
100
AcDbEntity
  8
Image
 62
7
100
AcDbPolyline
 90
3
 70
0
 10
14.691898
 20
118.864927
 30
0.0
 10
14.691898
 20
119.018945
 30
0.0
 10
14.723768
 20
119.018945
 30
0.0
  0
SPLINE
  5
198
100
AcDbEntity
  8
Image
 62
7
100
AcDbSpline
 70
8
 71
3
 72
8
 73
4
 74
0
 40
0
 40
0
 40
0
 40
0
 40
1
 40
1
 40
1
 40
1
 10
14.786318
 20
118.929645
 30
0.0
 10
14.821478
 20
118.947195
 30
0.0
 10
14.865208
 20
118.936345
 30
0.0
 10
14.876338
 20
118.907345
 30
0.0
  0
SPLINE
  5
199
100
AcDbEntity
  8
Image
 62
7
100
AcDbSpline
 70
8
 71
3
 72
8
 73
4
 74
0
 40
0
 40
0
 40
0
 40
0
 40
1
 40
1
 40
1
 40
1
 10
14.876338
 20
118.907345
 30
0.0
 10
14.880038
 20
118.897645
 30
0.0
 10
14.883138
 20
118.849495
 30
0.0
 10
14.883138
 20
118.800312
 30
0.0
  0
LWPOLYLINE
  5
19a
100
AcDbEntity
  8
Image
 62
7
100
AcDbPolyline
 90
3
 70
0
 10
14.755638
 20
118.966645
 30
0.0
 10
14.755638
 20
118.914345
 30
0.0
 10
14.786318
 20
118.929645
 30
0.0
  0
SPLINE
  5
19b
100
AcDbEntity
  8
Image
 62
7
100
AcDbSpline
 70
8
 71
3
 72
8
 73
4
 74
0
 40
0
 40
0
 40
0
 40
0
 40
1
 40
1
 40
1
 40
1
 10
14.819398
 20
118.796202
 30
0.0
 10
14.819398
 20
118.862552
 30
0.0
 10
14.815798
 20
118.882882
 30
0.0
 10
14.803328
 20
118.887682
 30
0.0
  0
SPLINE
  5
19c
100
AcDbEntity
  8
Image
 62
7
100
AcDbSpline
 70
8
 71
3
 72
8
 73
4
 74
0
 40
0
 40
0
 40
0
 40
0
 40
1
 40
1
 40
1
 40
1
 10
14.803328
 20
118.887682
 30
0.0
 10
14.769938
 20
118.900492
 30
0.0
 10
14.755668
 20
118.871022
 30
0.0
 10
14.755668
 20
118.789262
 30
0.0
  0
LWPOLYLINE
  5
19d
100
AcDbEntity
  8
Image
 62
7
100
AcDbPolyline
 90
5
 70
0
 10
14.883138
 20
118.800312
 30
0.0
 10
14.883138
 20
118.710892
 30
0.0
 10
14.851268
 20
118.710892
 30
0.0
 10
14.819398
 20
118.710892
 30
0.0
 10
14.819398
 20
118.796202
 30
0.0
  0
SPLINE
  5
19e
100
AcDbEntity
  8
Image
 62
7
100
AcDbSpline
 70
8
 71
3
 72
8
 73
4
 74
0
 40
0
 40
0
 40
0
 40
0
 40
1
 40
1
 40
1
 40
1
 10
14.970191
 20
118.723656
 30
0.0
 10
14.962691
 20
118.731156
 30
0.0
 10
14.957441
 20
118.766836
 30
0.0
 10
14.957441
 20
118.809626
 30
0.0
  0
SPLINE
  5
19f
100
AcDbEntity
  8
Image
 62
7
100
AcDbSpline
 70
8
 71
3
 72
8
 73
4
 74
0
 40
0
 40
0
 40
0
 40
0
 40
1
 40
1
 40
1
 40
1
 10
14.957441
 20
118.809626
 30
0.0
 10
14.957441
 20
118.873916
 30
0.0
 10
14.954841
 20
118.883526
 30
0.0
 10
14.936191
 20
118.888406
 30
0.0
  0
SPLINE
  5
1a0
100
AcDbEntity
  8
Image
 62
7
100
AcDbSpline
 70
8
 71
3
 72
8
 73
4
 74
0
 40
0
 40
0
 40
0
 40
0
 40
1
 40
1
 40
1
 40
1
 10
14.936191
 20
118.888406
 30
0.0
 10
14.924441
 20
118.891506
 30
0.0
 10
14.914941
 20
118.902886
 30
0.0
 10
14.914941
 20
118.913966
 30
0.0
  0
SPLINE
  5
1a1
100
AcDbEntity
  8
Image
 62
7
100
AcDbSpline
 70
8
 71
3
 72
8
 73
4
 74
0
 40
0
 40
0
 40
0
 40
0
 40
1
 40
1
 40
1
 40
1
 10
14.914941
 20
118.913966
 30
0.0
 10
14.914941
 20
118.926896
 30
0.0
 10
14.922541
 20
118.933966
 30
0.0
 10
14.936191
 20
118.933966
 30
0.0
  0
SPLINE
  5
1a2
100
AcDbEntity
  8
Image
 62
7
100
AcDbSpline
 70
8
 71
3
 72
8
 73
4
 74
0
 40
0
 40
0
 40
0
 40
0
 40
1
 40
1
 40
1
 40
1
 10
14.936191
 20
118.933966
 30
0.0
 10
14.952531
 20
118.933966
 30
0.0
 10
14.957441
 20
118.941066
 30
0.0
 10
14.957441
 20
118.964696
 30
0.0
  0
SPLINE
  5
1a3
100
AcDbEntity
  8
Image
 62
7
100
AcDbSpline
 70
8
 71
3
 72
8
 73
4
 74
0
 40
0
 40
0
 40
0
 40
0
 40
1
 40
1
 40
1
 40
1
 10
14.957441
 20
118.964696
 30
0.0
 10
14.957441
 20
118.992576
 30
0.0
 10
14.972841
 20
119.008316
 30
0.0
 10
15.000121
 20
119.008316
 30
0.0
  0
SPLINE
  5
1a4
100
AcDbEntity
  8
Image
 62
7
100
AcDbSpline
 70
8
 71
3
 72
8
 73
4
 74
0
 40
0
 40
0
 40
0
 40
0
 40
1
 40
1
 40
1
 40
1
 10
15.000121
 20
119.008316
 30
0.0
 10
15.005121
 20
119.008316
 30
0.0
 10
15.010701
 20
118.992786
 30
0.0
 10
15.012521
 20
118.973796
 30
0.0
  0
SPLINE
  5
1a5
100
AcDbEntity
  8
Image
 62
7
100
AcDbSpline
 70
8
 71
3
 72
8
 73
4
 74
0
 40
0
 40
0
 40
0
 40
0
 40
1
 40
1
 40
1
 40
1
 10
15.012521
 20
118.973796
 30
0.0
 10
15.015021
 20
118.947336
 30
0.0
 10
15.021421
 20
118.938486
 30
0.0
 10
15.039741
 20
118.935886
 30
0.0
  0
SPLINE
  5
1a6
100
AcDbEntity
  8
Image
 62
7
100
AcDbSpline
 70
8
 71
3
 72
8
 73
4
 74
0
 40
0
 40
0
 40
0
 40
0
 40
1
 40
1
 40
1
 40
1
 10
15.039741
 20
118.935886
 30
0.0
 10
15.054741
 20
118.933786
 30
0.0
 10
15.063641
 20
118.925136
 30
0.0
 10
15.063641
 20
118.912726
 30
0.0
  0
SPLINE
  5
1a7
100
AcDbEntity
  8
Image
 62
7
100
AcDbSpline
 70
8
 71
3
 72
8
 73
4
 74
0
 40
0
 40
0
 40
0
 40
0
 40
1
 40
1
 40
1
 40
1
 10
15.063641
 20
118.912726
 30
0.0
 10
15.063641
 20
118.900316
 30
0.0
 10
15.054741
 20
118.891696
 30
0.0
 10
15.039741
 20
118.889566
 30
0.0
  0
SPLINE
  5
1a8
100
AcDbEntity
  8
Image
 62
7
100
AcDbSpline
 70
8
 71
3
 72
8
 73
4
 74
0
 40
0
 40
0
 40
0
 40
0
 40
1
 40
1
 40
1
 40
1
 10
15.039741
 20
118.889566
 30
0.0
 10
15.018261
 20
118.886566
 30
0.0
 10
15.015841
 20
118.880266
 30
0.0
 10
15.015841
 20
118.827746
 30
0.0
  0
SPLINE
  5
1a9
100
AcDbEntity
  8
Image
 62
7
100
AcDbSpline
 70
8
 71
3
 72
8
 73
4
 74
0
 40
0
 40
0
 40
0
 40
0
 40
1
 40
1
 40
1
 40
1
 10
15.015841
 20
118.827746
 30
0.0
 10
15.015841
 20
118.777356
 30
0.0
 10
15.019141
 20
118.767886
 30
0.0
 10
15.039741
 20
118.758846
 30
0.0
  0
SPLINE
  5
1aa
100
AcDbEntity
  8
Image
 62
7
100
AcDbSpline
 70
8
 71
3
 72
8
 73
4
 74
0
 40
0
 40
0
 40
0
 40
0
 40
1
 40
1
 40
1
 40
1
 10
15.039741
 20
118.758846
 30
0.0
 10
15.052881
 20
118.753046
 30
0.0
 10
15.063641
 20
118.739926
 30
0.0
 10
15.063641
 20
118.729636
 30
0.0
  0
SPLINE
  5
1ab
100
AcDbEntity
  8
Image
 62
7
100
AcDbSpline
 70
8
 71
3
 72
8
 73
4
 74
0
 40
0
 40
0
 40
0
 40
0
 40
1
 40
1
 40
1
 40
1
 10
15.063641
 20
118.729636
 30
0.0
 10
15.063641
 20
118.715036
 30
0.0
 10
15.054741
 20
118.710916
 30
0.0
 10
15.023271
 20
118.710916
 30
0.0
  0
SPLINE
  5
1ac
100
AcDbEntity
  8
Image
 62
7
100
AcDbSpline
 70
8
 71
3
 72
8
 73
4
 74
0
 40
0
 40
0
 40
0
 40
0
 40
1
 40
1
 40
1
 40
1
 10
15.023271
 20
118.710916
 30
0.0
 10
15.001071
 20
118.710916
 30
0.0
 10
14.977171
 20
118.716616
 30
0.0
 10
14.970161
 20
118.723666
 30
0.0
  0
LWPOLYLINE
  5
1ad
100
AcDbEntity
  8
Image
 62
7
100
AcDbPolyline
 90
5
 70
0
 10
14.755668
 20
118.789262
 30
0.0
 10
14.755668
 20
118.710892
 30
0.0
 10
14.723798
 20
118.710892
 30
0.0
 10
14.691928
 20
118.710892
 30
0.0
 10
14.691898
 20
118.864927
 30
0.0
  0
SPLINE
  5
1ae
100
AcDbEntity
  8
Image
 62
7
100
AcDbSpline
 70
8
 71
3
 72
8
 73
4
 74
0
 40
0
 40
0
 40
0
 40
0
 40
1
 40
1
 40
1
 40
1
 10
15.106152
 20
118.742776
 30
0.0
 10
15.106152
 20
118.771106
 30
0.0
 10
15.109752
 20
118.774646
 30
0.0
 10
15.138022
 20
118.774646
 30
0.0
  0
SPLINE
  5
1af
100
AcDbEntity
  8
Image
 62
7
100
AcDbSpline
 70
8
 71
3
 72
8
 73
4
 74
0
 40
0
 40
0
 40
0
 40
0
 40
1
 40
1
 40
1
 40
1
 10
15.138022
 20
118.774646
 30
0.0
 10
15.166342
 20
118.774646
 30
0.0
 10
15.169892
 20
118.771046
 30
0.0
 10
15.169892
 20
118.742776
 30
0.0
  0
SPLINE
  5
1b0
100
AcDbEntity
  8
Image
 62
7
100
AcDbSpline
 70
8
 71
3
 72
8
 73
4
 74
0
 40
0
 40
0
 40
0
 40
0
 40
1
 40
1
 40
1
 40
1
 10
15.169892
 20
118.742776
 30
0.0
 10
15.169892
 20
118.714456
 30
0.0
 10
15.166292
 20
118.710906
 30
0.0
 10
15.138022
 20
118.710906
 30
0.0
  0
SPLINE
  5
1b1
100
AcDbEntity
  8
Image
 62
7
100
AcDbSpline
 70
8
 71
3
 72
8
 73
4
 74
0
 40
0
 40
0
 40
0
 40
0
 40
1
 40
1
 40
1
 40
1
 10
15.138022
 20
118.710906
 30
0.0
 10
15.109702
 20
118.710906
 30
0.0
 10
15.106152
 20
118.714506
 30
0.0
 10
15.106152
 20
118.742776
 30
0.0
  0
LWPOLYLINE
  5
1b2
100
AcDbEntity
  8
Image
 62
7
100
AcDbPolyline
 90
1
 70
1
 10
14.970161
 20
118.723666
 30
0.0
  0
SPLINE
  5
1b3
100
AcDbEntity
  8
Image
 62
7
100
AcDbSpline
 70
8
 71
3
 72
8
 73
4
 74
0
 40
0
 40
0
 40
0
 40
0
 40
1
 40
1
 40
1
 40
1
 10
12.312595
 20
118.987079
 30
0.0
 10
12.312595
 20
119.015399
 30
0.0
 10
12.316195
 20
119.018949
 30
0.0
 10
12.344465
 20
119.018949
 30
0.0
  0
SPLINE
  5
1b4
100
AcDbEntity
  8
Image
 62
7
100
AcDbSpline
 70
8
 71
3
 72
8
 73
4
 74
0
 40
0
 40
0
 40
0
 40
0
 40
1
 40
1
 40
1
 40
1
 10
12.344465
 20
119.018949
 30
0.0
 10
12.372785
 20
119.018949
 30
0.0
 10
12.376335
 20
119.015349
 30
0.0
 10
12.376335
 20
118.987079
 30
0.0
  0
SPLINE
  5
1b5
100
AcDbEntity
  8
Image
 62
7
100
AcDbSpline
 70
8
 71
3
 72
8
 73
4
 74
0
 40
0
 40
0
 40
0
 40
0
 40
1
 40
1
 40
1
 40
1
 10
12.376335
 20
118.987079
 30
0.0
 10
12.376335
 20
118.958759
 30
0.0
 10
12.372735
 20
118.955209
 30
0.0
 10
12.344465
 20
118.955209
 30
0.0
  0
SPLINE
  5
1b6
100
AcDbEntity
  8
Image
 62
7
100
AcDbSpline
 70
8
 71
3
 72
8
 73
4
 74
0
 40
0
 40
0
 40
0
 40
0
 40
1
 40
1
 40
1
 40
1
 10
12.344465
 20
118.955209
 30
0.0
 10
12.316145
 20
118.955209
 30
0.0
 10
12.312595
 20
118.958809
 30
0.0
 10
12.312595
 20
118.987079
 30
0.0
  0
LWPOLYLINE
  5
1b7
100
AcDbEntity
  8
Image
 62
7
100
AcDbPolyline
 90
1
 70
1
 10
15.106152
 20
118.742776
 30
0.0
  0
SPLINE
  5
1b8
100
AcDbEntity
  8
Image
 62
7
100
AcDbSpline
 70
8
 71
3
 72
8
 73
4
 74
0
 40
0
 40
0
 40
0
 40
0
 40
1
 40
1
 40
1
 40
1
 10
14.320132
 20
118.987079
 30
0.0
 10
14.320132
 20
119.015399
 30
0.0
 10
14.323732
 20
119.018949
 30
0.0
 10
14.352002
 20
119.018949
 30
0.0
  0
SPLINE
  5
1b9
100
AcDbEntity
  8
Image
 62
7
100
AcDbSpline
 70
8
 71
3
 72
8
 73
4
 74
0
 40
0
 40
0
 40
0
 40
0
 40
1
 40
1
 40
1
 40
1
 10
14.352002
 20
119.018949
 30
0.0
 10
14.380322
 20
119.018949
 30
0.0
 10
14.383872
 20
119.015349
 30
0.0
 10
14.383872
 20
118.987079
 30
0.0
  0
SPLINE
  5
1ba
100
AcDbEntity
  8
Image
 62
7
100
AcDbSpline
 70
8
 71
3
 72
8
 73
4
 74
0
 40
0
 40
0
 40
0
 40
0
 40
1
 40
1
 40
1
 40
1
 10
14.383872
 20
118.987079
 30
0.0
 10
14.383872
 20
118.958759
 30
0.0
 10
14.380272
 20
118.955209
 30
0.0
 10
14.352002
 20
118.955209
 30
0.0
  0
SPLINE
  5
1bb
100
AcDbEntity
  8
Image
 62
7
100
AcDbSpline
 70
8
 71
3
 72
8
 73
4
 74
0
 40
0
 40
0
 40
0
 40
0
 40
1
 40
1
 40
1
 40
1
 10
14.352002
 20
118.955209
 30
0.0
 10
14.323682
 20
118.955209
 30
0.0
 10
14.320132
 20
118.958809
 30
0.0
 10
14.320132
 20
118.987079
 30
0.0
  0
LWPOLYLINE
  5
1bc
100
AcDbEntity
  8
Image
 62
7
100
AcDbPolyline
 90
1
 70
1
 10
12.312595
 20
118.987079
 30
0.0
  0
SPLINE
  5
1bd
100
AcDbEntity
  8
Image
 62
7
100
AcDbSpline
 70
8
 71
3
 72
8
 73
4
 74
0
 40
0
 40
0
 40
0
 40
0
 40
1
 40
1
 40
1
 40
1
 10
14.503359
 20
119.119759
 30
0.0
 10
14.475429
 20
119.139899
 30
0.0
 10
14.472909
 20
119.159619
 30
0.0
 10
14.495859
 20
119.178649
 30
0.0
  0
SPLINE
  5
1be
100
AcDbEntity
  8
Image
 62
7
100
AcDbSpline
 70
8
 71
3
 72
8
 73
4
 74
0
 40
0
 40
0
 40
0
 40
0
 40
1
 40
1
 40
1
 40
1
 10
14.495859
 20
119.178649
 30
0.0
 10
14.507219
 20
119.188049
 30
0.0
 10
14.508849
 20
119.195639
 30
0.0
 10
14.501159
 20
119.203319
 30
0.0
  0
SPLINE
  5
1bf
100
AcDbEntity
  8
Image
 62
7
100
AcDbSpline
 70
8
 71
3
 72
8
 73
4
 74
0
 40
0
 40
0
 40
0
 40
0
 40
1
 40
1
 40
1
 40
1
 10
14.501159
 20
119.203319
 30
0.0
 10
14.483709
 20
119.220769
 30
0.0
 10
14.488209
 20
119.251279
 30
0.0
 10
14.510259
 20
119.265049
 30
0.0
  0
SPLINE
  5
1c0
100
AcDbEntity
  8
Image
 62
7
100
AcDbSpline
 70
8
 71
3
 72
8
 73
4
 74
0
 40
0
 40
0
 40
0
 40
0
 40
1
 40
1
 40
1
 40
1
 10
14.510259
 20
119.265049
 30
0.0
 10
14.529999
 20
119.277379
 30
0.0
 10
14.529989
 20
119.278249
 30
0.0
 10
14.509159
 20
119.306349
 30
0.0
  0
SPLINE
  5
1c1
100
AcDbEntity
  8
Image
 62
7
100
AcDbSpline
 70
8
 71
3
 72
8
 73
4
 74
0
 40
0
 40
0
 40
0
 40
0
 40
1
 40
1
 40
1
 40
1
 10
14.509159
 20
119.306349
 30
0.0
 10
14.492659
 20
119.328659
 30
0.0
 10
14.490399
 20
119.339669
 30
0.0
 10
14.499029
 20
119.355789
 30
0.0
  0
SPLINE
  5
1c2
100
AcDbEntity
  8
Image
 62
7
100
AcDbSpline
 70
8
 71
3
 72
8
 73
4
 74
0
 40
0
 40
0
 40
0
 40
0
 40
1
 40
1
 40
1
 40
1
 10
14.499029
 20
119.355789
 30
0.0
 10
14.518759
 20
119.392649
 30
0.0
 10
14.541869
 20
119.403779
 30
0.0
 10
14.598689
 20
119.403779
 30
0.0
  0
SPLINE
  5
1c3
100
AcDbEntity
  8
Image
 62
7
100
AcDbSpline
 70
8
 71
3
 72
8
 73
4
 74
0
 40
0
 40
0
 40
0
 40
0
 40
1
 40
1
 40
1
 40
1
 10
14.598689
 20
119.403779
 30
0.0
 10
14.641229
 20
119.403779
 30
0.0
 10
14.657719
 20
119.408479
 30
0.0
 10
14.668429
 20
119.423799
 30
0.0
  0
SPLINE
  5
1c4
100
AcDbEntity
  8
Image
 62
7
100
AcDbSpline
 70
8
 71
3
 72
8
 73
4
 74
0
 40
0
 40
0
 40
0
 40
0
 40
1
 40
1
 40
1
 40
1
 10
14.668429
 20
119.423799
 30
0.0
 10
14.687459
 20
119.450969
 30
0.0
 10
14.723739
 20
119.450159
 30
0.0
 10
14.723739
 20
119.422599
 30
0.0
  0
SPLINE
  5
1c5
100
AcDbEntity
  8
Image
 62
7
100
AcDbSpline
 70
8
 71
3
 72
8
 73
4
 74
0
 40
0
 40
0
 40
0
 40
0
 40
1
 40
1
 40
1
 40
1
 10
14.723739
 20
119.422599
 30
0.0
 10
14.723739
 20
119.408509
 30
0.0
 10
14.716639
 20
119.401349
 30
0.0
 10
14.702699
 20
119.401349
 30
0.0
  0
SPLINE
  5
1c6
100
AcDbEntity
  8
Image
 62
7
100
AcDbSpline
 70
8
 71
3
 72
8
 73
4
 74
0
 40
0
 40
0
 40
0
 40
0
 40
1
 40
1
 40
1
 40
1
 10
14.702699
 20
119.401349
 30
0.0
 10
14.683969
 20
119.401349
 30
0.0
 10
14.682359
 20
119.396249
 30
0.0
 10
14.688009
 20
119.355019
 30
0.0
  0
SPLINE
  5
1c7
100
AcDbEntity
  8
Image
 62
7
100
AcDbSpline
 70
8
 71
3
 72
8
 73
4
 74
0
 40
0
 40
0
 40
0
 40
0
 40
1
 40
1
 40
1
 40
1
 10
14.688009
 20
119.355019
 30
0.0
 10
14.693509
 20
119.314629
 30
0.0
 10
14.691209
 20
119.306469
 30
0.0
 10
14.669509
 20
119.291289
 30
0.0
  0
SPLINE
  5
1c8
100
AcDbEntity
  8
Image
 62
7
100
AcDbSpline
 70
8
 71
3
 72
8
 73
4
 74
0
 40
0
 40
0
 40
0
 40
0
 40
1
 40
1
 40
1
 40
1
 10
14.669509
 20
119.291289
 30
0.0
 10
14.655839
 20
119.281689
 30
0.0
 10
14.624499
 20
119.273879
 30
0.0
 10
14.599849
 20
119.273879
 30
0.0
  0
SPLINE
  5
1c9
100
AcDbEntity
  8
Image
 62
7
100
AcDbSpline
 70
8
 71
3
 72
8
 73
4
 74
0
 40
0
 40
0
 40
0
 40
0
 40
1
 40
1
 40
1
 40
1
 10
14.599849
 20
119.273879
 30
0.0
 10
14.509439
 20
119.273879
 30
0.0
 10
14.536469
 20
119.236629
 30
0.0
 10
14.632389
 20
119.229029
 30
0.0
  0
SPLINE
  5
1ca
100
AcDbEntity
  8
Image
 62
7
100
AcDbSpline
 70
8
 71
3
 72
8
 73
4
 74
0
 40
0
 40
0
 40
0
 40
0
 40
1
 40
1
 40
1
 40
1
 10
14.632389
 20
119.229029
 30
0.0
 10
14.718769
 20
119.222129
 30
0.0
 10
14.745690
 20
119.186499
 30
0.0
 10
14.703649
 20
119.134579
 30
0.0
  0
SPLINE
  5
1cb
100
AcDbEntity
  8
Image
 62
7
100
AcDbSpline
 70
8
 71
3
 72
8
 73
4
 74
0
 40
0
 40
0
 40
0
 40
0
 40
1
 40
1
 40
1
 40
1
 10
14.703649
 20
119.134579
 30
0.0
 10
14.686509
 20
119.113419
 30
0.0
 10
14.672059
 20
119.109229
 30
0.0
 10
14.605399
 20
119.106149
 30
0.0
  0
SPLINE
  5
1cc
100
AcDbEntity
  8
Image
 62
7
100
AcDbSpline
 70
8
 71
3
 72
8
 73
4
 74
0
 40
0
 40
0
 40
0
 40
0
 40
1
 40
1
 40
1
 40
1
 10
14.605399
 20
119.106149
 30
0.0
 10
14.545859
 20
119.103349
 30
0.0
 10
14.521539
 20
119.106629
 30
0.0
 10
14.503338
 20
119.119759
 30
0.0
  0
LWPOLYLINE
  5
1cd
100
AcDbEntity
  8
Image
 62
7
100
AcDbPolyline
 90
1
 70
1
 10
14.320132
 20
118.987079
 30
0.0
  0
SPLINE
  5
1ce
100
AcDbEntity
  8
Image
 62
7
100
AcDbSpline
 70
8
 71
3
 72
8
 73
4
 74
0
 40
0
 40
0
 40
0
 40
0
 40
1
 40
1
 40
1
 40
1
 10
14.658060
 20
119.159679
 30
0.0
 10
14.661060
 20
119.175729
 30
0.0
 10
14.652860
 20
119.178269
 30
0.0
 10
14.597080
 20
119.178269
 30
0.0
  0
SPLINE
  5
1cf
100
AcDbEntity
  8
Image
 62
7
100
AcDbSpline
 70
8
 71
3
 72
8
 73
4
 74
0
 40
0
 40
0
 40
0
 40
0
 40
1
 40
1
 40
1
 40
1
 10
14.597080
 20
119.178269
 30
0.0
 10
14.548500
 20
119.178269
 30
0.0
 10
14.532570
 20
119.174569
 30
0.0
 10
14.532570
 20
119.163219
 30
0.0
  0
SPLINE
  5
1d0
100
AcDbEntity
  8
Image
 62
7
100
AcDbSpline
 70
8
 71
3
 72
8
 73
4
 74
0
 40
0
 40
0
 40
0
 40
0
 40
1
 40
1
 40
1
 40
1
 10
14.532570
 20
119.163219
 30
0.0
 10
14.532570
 20
119.142559
 30
0.0
 10
14.550850
 20
119.136599
 30
0.0
 10
14.606830
 20
119.139029
 30
0.0
  0
SPLINE
  5
1d1
100
AcDbEntity
  8
Image
 62
7
100
AcDbSpline
 70
8
 71
3
 72
8
 73
4
 74
0
 40
0
 40
0
 40
0
 40
0
 40
1
 40
1
 40
1
 40
1
 10
14.606830
 20
119.139029
 30
0.0
 10
14.642820
 20
119.140629
 30
0.0
 10
14.655400
 20
119.145729
 30
0.0
 10
14.658060
 20
119.159679
 30
0.0
  0
LWPOLYLINE
  5
1d2
100
AcDbEntity
  8
Image
 62
7
100
AcDbPolyline
 90
1
 70
1
 10
14.503338
 20
119.119759
 30
0.0
  0
SPLINE
  5
1d3
100
AcDbEntity
  8
Image
 62
7
100
AcDbSpline
 70
8
 71
3
 72
8
 73
4
 74
0
 40
0
 40
0
 40
0
 40
0
 40
1
 40
1
 40
1
 40
1
 10
14.632400
 20
119.330258
 30
0.0
 10
14.641700
 20
119.345598
 30
0.0
 10
14.640000
 20
119.352558
 30
0.0
 10
14.623500
 20
119.364778
 30
0.0
  0
SPLINE
  5
1d4
100
AcDbEntity
  8
Image
 62
7
100
AcDbSpline
 70
8
 71
3
 72
8
 73
4
 74
0
 40
0
 40
0
 40
0
 40
0
 40
1
 40
1
 40
1
 40
1
 10
14.623500
 20
119.364778
 30
0.0
 10
14.598200
 20
119.383568
 30
0.0
 10
14.594630
 20
119.383658
 30
0.0
 10
14.570490
 20
119.365978
 30
0.0
  0
SPLINE
  5
1d5
100
AcDbEntity
  8
Image
 62
7
100
AcDbSpline
 70
8
 71
3
 72
8
 73
4
 74
0
 40
0
 40
0
 40
0
 40
0
 40
1
 40
1
 40
1
 40
1
 10
14.570490
 20
119.365978
 30
0.0
 10
14.541290
 20
119.344628
 30
0.0
 10
14.557570
 20
119.303428
 30
0.0
 10
14.593510
 20
119.307748
 30
0.0
  0
SPLINE
  5
1d6
100
AcDbEntity
  8
Image
 62
7
100
AcDbSpline
 70
8
 71
3
 72
8
 73
4
 74
0
 40
0
 40
0
 40
0
 40
0
 40
1
 40
1
 40
1
 40
1
 10
14.593510
 20
119.307748
 30
0.0
 10
14.608480
 20
119.309548
 30
0.0
 10
14.626000
 20
119.319668
 30
0.0
 10
14.632430
 20
119.330228
 30
0.0
  0
LWPOLYLINE
  5
1d7
100
AcDbEntity
  8
Image
 62
7
100
AcDbPolyline
 90
1
 70
1
 10
14.658060
 20
119.159679
 30
0.0
  0
LWPOLYLINE
  5
1d8
100
AcDbEntity
  8
Image
 62
7
100
AcDbPolyline
 90
1
 70
1
 10
14.632430
 20
119.330228
 30
0.0
  0
SPLINE
  5
1d9
100
AcDbEntity
  8
Image
 62
7
100
AcDbSpline
 70
8
 71
3
 72
8
 73
4
 74
0
 40
0
 40
0
 40
0
 40
0
 40
1
 40
1
 40
1
 40
1
 10
12.176801
 20
119.486276
 30
0.0
 10
12.198911
 20
119.486276
 30
0.0
 10
12.217081
 20
119.482676
 30
0.0
 10
12.217181
 20
119.478276
 30
0.0
  0
SPLINE
  5
1da
100
AcDbEntity
  8
Image
 62
7
100
AcDbSpline
 70
8
 71
3
 72
8
 73
4
 74
0
 40
0
 40
0
 40
0
 40
0
 40
1
 40
1
 40
1
 40
1
 10
12.217181
 20
119.478276
 30
0.0
 10
12.217281
 20
119.473876
 30
0.0
 10
12.238321
 20
119.404586
 30
0.0
 10
12.263941
 20
119.324259
 30
0.0
  0
LWPOLYLINE
  5
1db
100
AcDbEntity
  8
Image
 62
7
100
AcDbPolyline
 90
3
 70
0
 10
12.087981
 20
119.332258
 30
0.0
 10
12.136601
 20
119.486276
 30
0.0
 10
12.176801
 20
119.486276
 30
0.0
  0
SPLINE
  5
1dc
100
AcDbEntity
  8
Image
 62
7
100
AcDbSpline
 70
8
 71
3
 72
8
 73
4
 74
0
 40
0
 40
0
 40
0
 40
0
 40
1
 40
1
 40
1
 40
1
 10
12.275421
 20
119.178207
 30
0.0
 10
12.245971
 20
119.178207
 30
0.0
 10
12.238531
 20
119.183407
 30
0.0
 10
12.229221
 20
119.210077
 30
0.0
  0
SPLINE
  5
1dd
100
AcDbEntity
  8
Image
 62
7
100
AcDbSpline
 70
8
 71
3
 72
8
 73
4
 74
0
 40
0
 40
0
 40
0
 40
0
 40
1
 40
1
 40
1
 40
1
 10
12.229221
 20
119.210077
 30
0.0
 10
12.218891
 20
119.239727
 30
0.0
 10
12.214431
 20
119.241947
 30
0.0
 10
12.165291
 20
119.241947
 30
0.0
  0
SPLINE
  5
1de
100
AcDbEntity
  8
Image
 62
7
100
AcDbSpline
 70
8
 71
3
 72
8
 73
4
 74
0
 40
0
 40
0
 40
0
 40
0
 40
1
 40
1
 40
1
 40
1
 10
12.165291
 20
119.241947
 30
0.0
 10
12.115241
 20
119.241947
 30
0.0
 10
12.112101
 20
119.240247
 30
0.0
 10
12.105471
 20
119.210077
 30
0.0
  0
SPLINE
  5
1df
100
AcDbEntity
  8
Image
 62
7
100
AcDbSpline
 70
8
 71
3
 72
8
 73
4
 74
0
 40
0
 40
0
 40
0
 40
0
 40
1
 40
1
 40
1
 40
1
 10
12.105471
 20
119.210077
 30
0.0
 10
12.099771
 20
119.183977
 30
0.0
 10
12.093121
 20
119.178207
 30
0.0
 10
12.068911
 20
119.178207
 30
0.0
  0
LWPOLYLINE
  5
1e0
100
AcDbEntity
  8
Image
 62
7
100
AcDbPolyline
 90
3
 70
0
 10
12.263941
 20
119.324259
 30
0.0
 10
12.310521
 20
119.178207
 30
0.0
 10
12.275421
 20
119.178207
 30
0.0
  0
SPLINE
  5
1e1
100
AcDbEntity
  8
Image
 62
7
100
AcDbSpline
 70
8
 71
3
 72
8
 73
4
 74
0
 40
0
 40
0
 40
0
 40
0
 40
1
 40
1
 40
1
 40
1
 10
12.195689
 20
119.308358
 30
0.0
 10
12.195657
 20
119.315658
 30
0.0
 10
12.190189
 20
119.340748
 30
0.0
 10
12.183529
 20
119.364128
 30
0.0
  0
LWPOLYLINE
  5
1e2
100
AcDbEntity
  8
Image
 62
7
100
AcDbPolyline
 90
3
 70
0
 10
12.068911
 20
119.178207
 30
0.0
 10
12.039351
 20
119.178207
 30
0.0
 10
12.087981
 20
119.332258
 30
0.0
  0
SPLINE
  5
1e3
100
AcDbEntity
  8
Image
 62
7
100
AcDbSpline
 70
8
 71
3
 72
8
 73
4
 74
0
 40
0
 40
0
 40
0
 40
0
 40
1
 40
1
 40
1
 40
1
 10
12.158339
 20
119.374748
 30
0.0
 10
12.127499
 20
119.299618
 30
0.0
 10
12.127779
 20
119.295078
 30
0.0
 10
12.163139
 20
119.295078
 30
0.0
  0
SPLINE
  5
1e4
100
AcDbEntity
  8
Image
 62
7
100
AcDbSpline
 70
8
 71
3
 72
8
 73
4
 74
0
 40
0
 40
0
 40
0
 40
0
 40
1
 40
1
 40
1
 40
1
 10
12.163139
 20
119.295078
 30
0.0
 10
12.182149
 20
119.295078
 30
0.0
 10
12.195699
 20
119.300578
 30
0.0
 10
12.195659
 20
119.308358
 30
0.0
  0
LWPOLYLINE
  5
1e5
100
AcDbEntity
  8
Image
 62
7
100
AcDbPolyline
 90
3
 70
0
 10
12.183529
 20
119.364128
 30
0.0
 10
12.171419
 20
119.406618
 30
0.0
 10
12.158339
 20
119.374748
 30
0.0
  0
SPLINE
  5
1e6
100
AcDbEntity
  8
Image
 62
7
100
AcDbSpline
 70
8
 71
3
 72
8
 73
4
 74
0
 40
0
 40
0
 40
0
 40
0
 40
1
 40
1
 40
1
 40
1
 10
12.381354
 20
119.191518
 30
0.0
 10
12.370994
 20
119.219458
 30
0.0
 10
12.312584
 20
119.394825
 30
0.0
 10
12.312584
 20
119.397981
 30
0.0
  0
SPLINE
  5
1e7
100
AcDbEntity
  8
Image
 62
7
100
AcDbSpline
 70
8
 71
3
 72
8
 73
4
 74
0
 40
0
 40
0
 40
0
 40
0
 40
1
 40
1
 40
1
 40
1
 10
12.312584
 20
119.397981
 30
0.0
 10
12.312584
 20
119.399881
 30
0.0
 10
12.326674
 20
119.401281
 30
0.0
 10
12.343904
 20
119.401281
 30
0.0
  0
SPLINE
  5
1e8
100
AcDbEntity
  8
Image
 62
7
100
AcDbSpline
 70
8
 71
3
 72
8
 73
4
 74
0
 40
0
 40
0
 40
0
 40
0
 40
1
 40
1
 40
1
 40
1
 10
12.343904
 20
119.401281
 30
0.0
 10
12.373124
 20
119.401281
 30
0.0
 10
12.376424
 20
119.396981
 30
0.0
 10
12.393184
 20
119.337261
 30
0.0
  0
SPLINE
  5
1e9
100
AcDbEntity
  8
Image
 62
7
100
AcDbSpline
 70
8
 71
3
 72
8
 73
4
 74
0
 40
0
 40
0
 40
0
 40
0
 40
1
 40
1
 40
1
 40
1
 10
12.393184
 20
119.337261
 30
0.0
 10
12.403084
 20
119.302051
 30
0.0
 10
12.414224
 20
119.271341
 30
0.0
 10
12.417984
 20
119.269011
 30
0.0
  0
SPLINE
  5
1ea
100
AcDbEntity
  8
Image
 62
7
100
AcDbSpline
 70
8
 71
3
 72
8
 73
4
 74
0
 40
0
 40
0
 40
0
 40
0
 40
1
 40
1
 40
1
 40
1
 10
12.417984
 20
119.269011
 30
0.0
 10
12.421684
 20
119.266711
 30
0.0
 10
12.433624
 20
119.295501
 30
0.0
 10
12.444374
 20
119.333031
 30
0.0
  0
SPLINE
  5
1eb
100
AcDbEntity
  8
Image
 62
7
100
AcDbSpline
 70
8
 71
3
 72
8
 73
4
 74
0
 40
0
 40
0
 40
0
 40
0
 40
1
 40
1
 40
1
 40
1
 10
12.444374
 20
119.333031
 30
0.0
 10
12.459474
 20
119.385751
 30
0.0
 10
12.468454
 20
119.401281
 30
0.0
 10
12.483854
 20
119.401281
 30
0.0
  0
SPLINE
  5
1ec
100
AcDbEntity
  8
Image
 62
7
100
AcDbSpline
 70
8
 71
3
 72
8
 73
4
 74
0
 40
0
 40
0
 40
0
 40
0
 40
1
 40
1
 40
1
 40
1
 10
12.483854
 20
119.401281
 30
0.0
 10
12.494814
 20
119.401281
 30
0.0
 10
12.503784
 20
119.397881
 30
0.0
 10
12.503784
 20
119.393881
 30
0.0
  0
SPLINE
  5
1ed
100
AcDbEntity
  8
Image
 62
7
100
AcDbSpline
 70
8
 71
3
 72
8
 73
4
 74
0
 40
0
 40
0
 40
0
 40
0
 40
1
 40
1
 40
1
 40
1
 10
12.503784
 20
119.393881
 30
0.0
 10
12.503784
 20
119.389781
 30
0.0
 10
12.488424
 20
119.339611
 30
0.0
 10
12.469664
 20
119.282351
 30
0.0
  0
SPLINE
  5
1ee
100
AcDbEntity
  8
Image
 62
7
100
AcDbSpline
 70
8
 71
3
 72
8
 73
4
 74
0
 40
0
 40
0
 40
0
 40
0
 40
1
 40
1
 40
1
 40
1
 10
12.469664
 20
119.282351
 30
0.0
 10
12.439514
 20
119.190361
 30
0.0
 10
12.432674
 20
119.178242
 30
0.0
 10
12.410904
 20
119.178242
 30
0.0
  0
SPLINE
  5
1ef
100
AcDbEntity
  8
Image
 62
7
100
AcDbSpline
 70
8
 71
3
 72
8
 73
4
 74
0
 40
0
 40
0
 40
0
 40
0
 40
1
 40
1
 40
1
 40
1
 10
12.410904
 20
119.178242
 30
0.0
 10
12.397364
 20
119.178242
 30
0.0
 10
12.384064
 20
119.184242
 30
0.0
 10
12.381344
 20
119.191522
 30
0.0
  0
LWPOLYLINE
  5
1f0
100
AcDbEntity
  8
Image
 62
7
100
AcDbPolyline
 90
1
 70
1
 10
12.195659
 20
119.308358
 30
0.0
  0
SPLINE
  5
1f1
100
AcDbEntity
  8
Image
 62
7
100
AcDbSpline
 70
8
 71
3
 72
8
 73
4
 74
0
 40
0
 40
0
 40
0
 40
0
 40
1
 40
1
 40
1
 40
1
 10
12.570691
 20
119.194218
 30
0.0
 10
12.541221
 20
119.214858
 30
0.0
 10
12.521141
 20
119.276398
 30
0.0
 10
12.529451
 20
119.320641
 30
0.0
  0
SPLINE
  5
1f2
100
AcDbEntity
  8
Image
 62
7
100
AcDbSpline
 70
8
 71
3
 72
8
 73
4
 74
0
 40
0
 40
0
 40
0
 40
0
 40
1
 40
1
 40
1
 40
1
 10
12.529451
 20
119.320641
 30
0.0
 10
12.550551
 20
119.433069
 30
0.0
 10
12.712048
 20
119.432576
 30
0.0
 10
12.733164
 20
119.320031
 30
0.0
  0
SPLINE
  5
1f3
100
AcDbEntity
  8
Image
 62
7
100
AcDbSpline
 70
8
 71
3
 72
8
 73
4
 74
0
 40
0
 40
0
 40
0
 40
0
 40
1
 40
1
 40
1
 40
1
 10
12.733164
 20
119.320031
 30
0.0
 10
12.747824
 20
119.241891
 30
0.0
 10
12.703354
 20
119.178264
 30
0.0
 10
12.634094
 20
119.178264
 30
0.0
  0
SPLINE
  5
1f4
100
AcDbEntity
  8
Image
 62
7
100
AcDbSpline
 70
8
 71
3
 72
8
 73
4
 74
0
 40
0
 40
0
 40
0
 40
0
 40
1
 40
1
 40
1
 40
1
 10
12.634094
 20
119.178264
 30
0.0
 10
12.611764
 20
119.178264
 30
0.0
 10
12.583224
 20
119.185464
 30
0.0
 10
12.570694
 20
119.194224
 30
0.0
  0
LWPOLYLINE
  5
1f5
100
AcDbEntity
  8
Image
 62
7
100
AcDbPolyline
 90
1
 70
1
 10
12.381344
 20
119.191522
 30
0.0
  0
SPLINE
  5
1f6
100
AcDbEntity
  8
Image
 62
7
100
AcDbSpline
 70
8
 71
3
 72
8
 73
4
 74
0
 40
0
 40
0
 40
0
 40
0
 40
1
 40
1
 40
1
 40
1
 10
12.657201
 20
119.233718
 30
0.0
 10
12.689701
 20
119.280118
 30
0.0
 10
12.672201
 20
119.369439
 30
0.0
 10
12.630621
 20
119.369439
 30
0.0
  0
SPLINE
  5
1f7
100
AcDbEntity
  8
Image
 62
7
100
AcDbSpline
 70
8
 71
3
 72
8
 73
4
 74
0
 40
0
 40
0
 40
0
 40
0
 40
1
 40
1
 40
1
 40
1
 10
12.630621
 20
119.369439
 30
0.0
 10
12.607241
 20
119.369439
 30
0.0
 10
12.588771
 20
119.332669
 30
0.0
 10
12.588771
 20
119.286139
 30
0.0
  0
SPLINE
  5
1f8
100
AcDbEntity
  8
Image
 62
7
100
AcDbSpline
 70
8
 71
3
 72
8
 73
4
 74
0
 40
0
 40
0
 40
0
 40
0
 40
1
 40
1
 40
1
 40
1
 10
12.588771
 20
119.286139
 30
0.0
 10
12.588771
 20
119.256399
 30
0.0
 10
12.614641
 20
119.210109
 30
0.0
 10
12.631251
 20
119.210109
 30
0.0
  0
SPLINE
  5
1f9
100
AcDbEntity
  8
Image
 62
7
100
AcDbSpline
 70
8
 71
3
 72
8
 73
4
 74
0
 40
0
 40
0
 40
0
 40
0
 40
1
 40
1
 40
1
 40
1
 10
12.631251
 20
119.210109
 30
0.0
 10
12.636451
 20
119.210109
 30
0.0
 10
12.648111
 20
119.220729
 30
0.0
 10
12.657201
 20
119.233709
 30
0.0
  0
LWPOLYLINE
  5
1fa
100
AcDbEntity
  8
Image
 62
7
100
AcDbPolyline
 90
1
 70
1
 10
12.570694
 20
119.194224
 30
0.0
  0
LWPOLYLINE
  5
1fb
100
AcDbEntity
  8
Image
 62
7
100
AcDbPolyline
 90
1
 70
1
 10
12.657201
 20
119.233709
 30
0.0
  0
SPLINE
  5
1fc
100
AcDbEntity
  8
Image
 62
7
100
AcDbSpline
 70
8
 71
3
 72
8
 73
4
 74
0
 40
0
 40
0
 40
0
 40
0
 40
1
 40
1
 40
1
 40
1
 10
12.918810
 20
119.206218
 30
0.0
 10
12.893840
 20
119.237958
 30
0.0
 10
12.888730
 20
119.318849
 30
0.0
 10
12.908910
 20
119.363087
 30
0.0
  0
SPLINE
  5
1fd
100
AcDbEntity
  8
Image
 62
7
100
AcDbSpline
 70
8
 71
3
 72
8
 73
4
 74
0
 40
0
 40
0
 40
0
 40
0
 40
1
 40
1
 40
1
 40
1
 10
12.908910
 20
119.363087
 30
0.0
 10
12.925350
 20
119.399177
 30
0.0
 10
12.971190
 20
119.414367
 30
0.0
 10
13.007230
 20
119.395667
 30
0.0
  0
LWPOLYLINE
  5
1fe
100
AcDbEntity
  8
Image
 62
7
100
AcDbPolyline
 90
8
 70
1
 10
12.779955
 20
119.289768
 30
0.0
 10
12.779955
 20
119.401298
 30
0.0
 10
12.811825
 20
119.401298
 30
0.0
 10
12.843695
 20
119.401298
 30
0.0
 10
12.843695
 20
119.289768
 30
0.0
 10
12.843695
 20
119.178239
 30
0.0
 10
12.811825
 20
119.178239
 30
0.0
 10
12.779955
 20
119.178239
 30
0.0
  0
SPLINE
  5
1ff
100
AcDbEntity
  8
Image
 62
7
100
AcDbSpline
 70
8
 71
3
 72
8
 73
4
 74
0
 40
0
 40
0
 40
0
 40
0
 40
1
 40
1
 40
1
 40
1
 10
13.034910
 20
119.433787
 30
0.0
 10
13.034910
 20
119.482687
 30
0.0
 10
13.036810
 20
119.486267
 30
0.0
 10
13.061460
 20
119.486267
 30
0.0
  0
LWPOLYLINE
  5
200
100
AcDbEntity
  8
Image
 62
7
100
AcDbPolyline
 90
3
 70
0
 10
13.007230
 20
119.395667
 30
0.0
 10
13.034910
 20
119.381307
 30
0.0
 10
13.034910
 20
119.433787
 30
0.0
  0
SPLINE
  5
201
100
AcDbEntity
  8
Image
 62
7
100
AcDbSpline
 70
8
 71
3
 72
8
 73
4
 74
0
 40
0
 40
0
 40
0
 40
0
 40
1
 40
1
 40
1
 40
1
 10
13.061460
 20
119.178232
 30
0.0
 10
13.043830
 20
119.178232
 30
0.0
 10
13.034910
 20
119.184132
 30
0.0
 10
13.034910
 20
119.195812
 30
0.0
  0
SPLINE
  5
202
100
AcDbEntity
  8
Image
 62
7
100
AcDbSpline
 70
8
 71
3
 72
8
 73
4
 74
0
 40
0
 40
0
 40
0
 40
0
 40
1
 40
1
 40
1
 40
1
 10
13.034910
 20
119.195812
 30
0.0
 10
13.034910
 20
119.212162
 30
0.0
 10
13.033610
 20
119.212162
 30
0.0
 10
13.015490
 20
119.195812
 30
0.0
  0
SPLINE
  5
203
100
AcDbEntity
  8
Image
 62
7
100
AcDbSpline
 70
8
 71
3
 72
8
 73
4
 74
0
 40
0
 40
0
 40
0
 40
0
 40
1
 40
1
 40
1
 40
1
 10
13.015490
 20
119.195812
 30
0.0
 10
12.986210
 20
119.169312
 30
0.0
 10
12.944330
 20
119.173832
 30
0.0
 10
12.918840
 20
119.206222
 30
0.0
  0
LWPOLYLINE
  5
204
100
AcDbEntity
  8
Image
 62
7
100
AcDbPolyline
 90
5
 70
0
 10
13.061460
 20
119.486267
 30
0.0
 10
13.088010
 20
119.486267
 30
0.0
 10
13.088010
 20
119.332249
 30
0.0
 10
13.088010
 20
119.178232
 30
0.0
 10
13.061460
 20
119.178232
 30
0.0
  0
SPLINE
  5
205
100
AcDbEntity
  8
Image
 62
7
100
AcDbSpline
 70
8
 71
3
 72
8
 73
4
 74
0
 40
0
 40
0
 40
0
 40
0
 40
1
 40
1
 40
1
 40
1
 10
13.022134
 20
119.233458
 30
0.0
 10
13.047224
 20
119.258548
 30
0.0
 10
13.031934
 20
119.369417
 30
0.0
 10
13.003404
 20
119.369417
 30
0.0
  0
SPLINE
  5
206
100
AcDbEntity
  8
Image
 62
7
100
AcDbSpline
 70
8
 71
3
 72
8
 73
4
 74
0
 40
0
 40
0
 40
0
 40
0
 40
1
 40
1
 40
1
 40
1
 10
13.003404
 20
119.369417
 30
0.0
 10
12.969724
 20
119.369417
 30
0.0
 10
12.947394
 20
119.288537
 30
0.0
 10
12.966974
 20
119.237513
 30
0.0
  0
SPLINE
  5
207
100
AcDbEntity
  8
Image
 62
7
100
AcDbSpline
 70
8
 71
3
 72
8
 73
4
 74
0
 40
0
 40
0
 40
0
 40
0
 40
1
 40
1
 40
1
 40
1
 10
12.966974
 20
119.237513
 30
0.0
 10
12.974674
 20
119.217633
 30
0.0
 10
13.004134
 20
119.215463
 30
0.0
 10
13.022134
 20
119.233413
 30
0.0
  0
LWPOLYLINE
  5
208
100
AcDbEntity
  8
Image
 62
7
100
AcDbPolyline
 90
1
 70
1
 10
12.918840
 20
119.206222
 30
0.0
  0
LWPOLYLINE
  5
209
100
AcDbEntity
  8
Image
 62
7
100
AcDbPolyline
 90
1
 70
1
 10
13.022134
 20
119.233413
 30
0.0
  0
SPLINE
  5
20a
100
AcDbEntity
  8
Image
 62
7
100
AcDbSpline
 70
8
 71
3
 72
8
 73
4
 74
0
 40
0
 40
0
 40
0
 40
0
 40
1
 40
1
 40
1
 40
1
 10
13.420444
 20
119.194187
 30
0.0
 10
13.390974
 20
119.214827
 30
0.0
 10
13.370904
 20
119.276357
 30
0.0
 10
13.379204
 20
119.320610
 30
0.0
  0
SPLINE
  5
20b
100
AcDbEntity
  8
Image
 62
7
100
AcDbSpline
 70
8
 71
3
 72
8
 73
4
 74
0
 40
0
 40
0
 40
0
 40
0
 40
1
 40
1
 40
1
 40
1
 10
13.379204
 20
119.320610
 30
0.0
 10
13.400294
 20
119.433037
 30
0.0
 10
13.561799
 20
119.432544
 30
0.0
 10
13.582915
 20
119.320000
 30
0.0
  0
SPLINE
  5
20c
100
AcDbEntity
  8
Image
 62
7
100
AcDbSpline
 70
8
 71
3
 72
8
 73
4
 74
0
 40
0
 40
0
 40
0
 40
0
 40
1
 40
1
 40
1
 40
1
 10
13.582915
 20
119.320000
 30
0.0
 10
13.597565
 20
119.241860
 30
0.0
 10
13.553105
 20
119.178233
 30
0.0
 10
13.483845
 20
119.178233
 30
0.0
  0
SPLINE
  5
20d
100
AcDbEntity
  8
Image
 62
7
100
AcDbSpline
 70
8
 71
3
 72
8
 73
4
 74
0
 40
0
 40
0
 40
0
 40
0
 40
1
 40
1
 40
1
 40
1
 10
13.483845
 20
119.178233
 30
0.0
 10
13.461515
 20
119.178233
 30
0.0
 10
13.432975
 20
119.185433
 30
0.0
 10
13.420445
 20
119.194193
 30
0.0
  0
LWPOLYLINE
  5
20e
100
AcDbEntity
  8
Image
 62
7
100
AcDbPolyline
 90
8
 70
1
 10
13.268561
 20
119.332238
 30
0.0
 10
13.268561
 20
119.486290
 30
0.0
 10
13.300431
 20
119.486290
 30
0.0
 10
13.332301
 20
119.486290
 30
0.0
 10
13.332301
 20
119.332273
 30
0.0
 10
13.332301
 20
119.178256
 30
0.0
 10
13.300431
 20
119.178256
 30
0.0
 10
13.268561
 20
119.178256
 30
0.0
  0
SPLINE
  5
20f
100
AcDbEntity
  8
Image
 62
7
100
AcDbSpline
 70
8
 71
3
 72
8
 73
4
 74
0
 40
0
 40
0
 40
0
 40
0
 40
1
 40
1
 40
1
 40
1
 10
13.523487
 20
119.286787
 30
0.0
 10
13.523487
 20
119.339027
 30
0.0
 10
13.507627
 20
119.369417
 30
0.0
 10
13.480367
 20
119.369417
 30
0.0
  0
SPLINE
  5
210
100
AcDbEntity
  8
Image
 62
7
100
AcDbSpline
 70
8
 71
3
 72
8
 73
4
 74
0
 40
0
 40
0
 40
0
 40
0
 40
1
 40
1
 40
1
 40
1
 10
13.480367
 20
119.369417
 30
0.0
 10
13.437807
 20
119.369417
 30
0.0
 10
13.423357
 20
119.267732
 30
0.0
 10
13.460627
 20
119.230468
 30
0.0
  0
SPLINE
  5
211
100
AcDbEntity
  8
Image
 62
7
100
AcDbSpline
 70
8
 71
3
 72
8
 73
4
 74
0
 40
0
 40
0
 40
0
 40
0
 40
1
 40
1
 40
1
 40
1
 10
13.460627
 20
119.230468
 30
0.0
 10
13.481687
 20
119.209408
 30
0.0
 10
13.483697
 20
119.209228
 30
0.0
 10
13.503107
 20
119.226868
 30
0.0
  0
SPLINE
  5
212
100
AcDbEntity
  8
Image
 62
7
100
AcDbSpline
 70
8
 71
3
 72
8
 73
4
 74
0
 40
0
 40
0
 40
0
 40
0
 40
1
 40
1
 40
1
 40
1
 10
13.503107
 20
119.226868
 30
0.0
 10
13.516587
 20
119.239058
 30
0.0
 10
13.523487
 20
119.259388
 30
0.0
 10
13.523487
 20
119.286858
 30
0.0
  0
LWPOLYLINE
  5
213
100
AcDbEntity
  8
Image
 62
7
100
AcDbPolyline
 90
1
 70
1
 10
13.420445
 20
119.194193
 30
0.0
  0
SPLINE
  5
214
100
AcDbEntity
  8
Image
 62
7
100
AcDbSpline
 70
8
 71
3
 72
8
 73
4
 74
0
 40
0
 40
0
 40
0
 40
0
 40
1
 40
1
 40
1
 40
1
 10
13.664747
 20
119.194187
 30
0.0
 10
13.630447
 20
119.218207
 30
0.0
 10
13.613907
 20
119.278377
 30
0.0
 10
13.628337
 20
119.326560
 30
0.0
  0
SPLINE
  5
215
100
AcDbEntity
  8
Image
 62
7
100
AcDbSpline
 70
8
 71
3
 72
8
 73
4
 74
0
 40
0
 40
0
 40
0
 40
0
 40
1
 40
1
 40
1
 40
1
 10
13.628337
 20
119.326560
 30
0.0
 10
13.644867
 20
119.381730
 30
0.0
 10
13.673397
 20
119.404180
 30
0.0
 10
13.727027
 20
119.404180
 30
0.0
  0
SPLINE
  5
216
100
AcDbEntity
  8
Image
 62
7
100
AcDbSpline
 70
8
 71
3
 72
8
 73
4
 74
0
 40
0
 40
0
 40
0
 40
0
 40
1
 40
1
 40
1
 40
1
 10
13.727027
 20
119.404180
 30
0.0
 10
13.764087
 20
119.404180
 30
0.0
 10
13.776977
 20
119.398180
 30
0.0
 10
13.802807
 20
119.369350
 30
0.0
  0
SPLINE
  5
217
100
AcDbEntity
  8
Image
 62
7
100
AcDbSpline
 70
8
 71
3
 72
8
 73
4
 74
0
 40
0
 40
0
 40
0
 40
0
 40
1
 40
1
 40
1
 40
1
 10
13.802807
 20
119.369350
 30
0.0
 10
13.830657
 20
119.338180
 30
0.0
 10
13.833387
 20
119.328880
 30
0.0
 10
13.828777
 20
119.280890
 30
0.0
  0
SPLINE
  5
218
100
AcDbEntity
  8
Image
 62
7
100
AcDbSpline
 70
8
 71
3
 72
8
 73
4
 74
0
 40
0
 40
0
 40
0
 40
0
 40
1
 40
1
 40
1
 40
1
 10
13.828777
 20
119.280890
 30
0.0
 10
13.824777
 20
119.239670
 30
0.0
 10
13.817037
 20
119.221600
 30
0.0
 10
13.795107
 20
119.202740
 30
0.0
  0
SPLINE
  5
219
100
AcDbEntity
  8
Image
 62
7
100
AcDbSpline
 70
8
 71
3
 72
8
 73
4
 74
0
 40
0
 40
0
 40
0
 40
0
 40
1
 40
1
 40
1
 40
1
 10
13.795107
 20
119.202740
 30
0.0
 10
13.761667
 20
119.173980
 30
0.0
 10
13.699417
 20
119.169890
 30
0.0
 10
13.664738
 20
119.194240
 30
0.0
  0
LWPOLYLINE
  5
21a
100
AcDbEntity
  8
Image
 62
7
100
AcDbPolyline
 90
1
 70
1
 10
13.523487
 20
119.286858
 30
0.0
  0
SPLINE
  5
21b
100
AcDbEntity
  8
Image
 62
7
100
AcDbSpline
 70
8
 71
3
 72
8
 73
4
 74
0
 40
0
 40
0
 40
0
 40
0
 40
1
 40
1
 40
1
 40
1
 10
13.751097
 20
119.226777
 30
0.0
 10
13.771667
 20
119.247347
 30
0.0
 10
13.773297
 20
119.325957
 30
0.0
 10
13.753697
 20
119.352752
 30
0.0
  0
SPLINE
  5
21c
100
AcDbEntity
  8
Image
 62
7
100
AcDbSpline
 70
8
 71
3
 72
8
 73
4
 74
0
 40
0
 40
0
 40
0
 40
0
 40
1
 40
1
 40
1
 40
1
 10
13.753697
 20
119.352752
 30
0.0
 10
13.744097
 20
119.365892
 30
0.0
 10
13.732547
 20
119.369772
 30
0.0
 10
13.717377
 20
119.364972
 30
0.0
  0
SPLINE
  5
21d
100
AcDbEntity
  8
Image
 62
7
100
AcDbSpline
 70
8
 71
3
 72
8
 73
4
 74
0
 40
0
 40
0
 40
0
 40
0
 40
1
 40
1
 40
1
 40
1
 10
13.717377
 20
119.364972
 30
0.0
 10
13.676487
 20
119.351992
 30
0.0
 10
13.675887
 20
119.233663
 30
0.0
 10
13.716636
 20
119.217360
 30
0.0
  0
SPLINE
  5
21e
100
AcDbEntity
  8
Image
 62
7
100
AcDbSpline
 70
8
 71
3
 72
8
 73
4
 74
0
 40
0
 40
0
 40
0
 40
0
 40
1
 40
1
 40
1
 40
1
 10
13.716636
 20
119.217360
 30
0.0
 10
13.724336
 20
119.214360
 30
0.0
 10
13.731446
 20
119.211360
 30
0.0
 10
13.732496
 20
119.210960
 30
0.0
  0
SPLINE
  5
21f
100
AcDbEntity
  8
Image
 62
7
100
AcDbSpline
 70
8
 71
3
 72
8
 73
4
 74
0
 40
0
 40
0
 40
0
 40
0
 40
1
 40
1
 40
1
 40
1
 10
13.732496
 20
119.210960
 30
0.0
 10
13.733596
 20
119.210481
 30
0.0
 10
13.741896
 20
119.217660
 30
0.0
 10
13.751086
 20
119.226820
 30
0.0
  0
LWPOLYLINE
  5
220
100
AcDbEntity
  8
Image
 62
7
100
AcDbPolyline
 90
1
 70
1
 10
13.664738
 20
119.194240
 30
0.0
  0
LWPOLYLINE
  5
221
100
AcDbEntity
  8
Image
 62
7
100
AcDbPolyline
 90
1
 70
1
 10
13.751086
 20
119.226820
 30
0.0
  0
SPLINE
  5
222
100
AcDbEntity
  8
Image
 62
7
100
AcDbSpline
 70
8
 71
3
 72
8
 73
4
 74
0
 40
0
 40
0
 40
0
 40
0
 40
1
 40
1
 40
1
 40
1
 10
13.911179
 20
119.486290
 30
0.0
 10
13.937449
 20
119.486290
 30
0.0
 10
13.937739
 20
119.485312
 30
0.0
 10
13.938139
 20
119.393350
 30
0.0
  0
LWPOLYLINE
  5
223
100
AcDbEntity
  8
Image
 62
7
100
AcDbPolyline
 90
3
 70
0
 10
13.884629
 20
119.332237
 30
0.0
 10
13.884629
 20
119.486290
 30
0.0
 10
13.911179
 20
119.486290
 30
0.0
  0
SPLINE
  5
224
100
AcDbEntity
  8
Image
 62
7
100
AcDbSpline
 70
8
 71
3
 72
8
 73
4
 74
0
 40
0
 40
0
 40
0
 40
0
 40
1
 40
1
 40
1
 40
1
 10
13.983287
 20
119.350950
 30
0.0
 10
14.011807
 20
119.383170
 30
0.0
 10
14.036687
 20
119.401460
 30
0.0
 10
14.051917
 20
119.401410
 30
0.0
  0
SPLINE
  5
225
100
AcDbEntity
  8
Image
 62
7
100
AcDbSpline
 70
8
 71
3
 72
8
 73
4
 74
0
 40
0
 40
0
 40
0
 40
0
 40
1
 40
1
 40
1
 40
1
 10
14.051917
 20
119.401410
 30
0.0
 10
14.082687
 20
119.401298
 30
0.0
 10
14.082027
 20
119.393010
 30
0.0
 10
14.048417
 20
119.358030
 30
0.0
  0
LWPOLYLINE
  5
226
100
AcDbEntity
  8
Image
 62
7
100
AcDbPolyline
 90
3
 70
0
 10
13.938139
 20
119.393350
 30
0.0
 10
13.938547
 20
119.300410
 30
0.0
 10
13.983287
 20
119.350950
 30
0.0
  0
SPLINE
  5
227
100
AcDbEntity
  8
Image
 62
7
100
AcDbSpline
 70
8
 71
3
 72
8
 73
4
 74
0
 40
0
 40
0
 40
0
 40
0
 40
1
 40
1
 40
1
 40
1
 10
14.061387
 20
119.178260
 30
0.0
 10
14.028667
 20
119.178260
 30
0.0
 10
14.023917
 20
119.182460
 30
0.0
 10
14.007267
 20
119.226060
 30
0.0
  0
SPLINE
  5
228
100
AcDbEntity
  8
Image
 62
7
100
AcDbSpline
 70
8
 71
3
 72
8
 73
4
 74
0
 40
0
 40
0
 40
0
 40
0
 40
1
 40
1
 40
1
 40
1
 10
14.007267
 20
119.226060
 30
0.0
 10
13.997227
 20
119.252350
 30
0.0
 10
13.985367
 20
119.273860
 30
0.0
 10
13.980917
 20
119.273860
 30
0.0
  0
SPLINE
  5
229
100
AcDbEntity
  8
Image
 62
7
100
AcDbSpline
 70
8
 71
3
 72
8
 73
4
 74
0
 40
0
 40
0
 40
0
 40
0
 40
1
 40
1
 40
1
 40
1
 10
13.980917
 20
119.273860
 30
0.0
 10
13.963567
 20
119.273860
 30
0.0
 10
13.937667
 20
119.233600
 30
0.0
 10
13.937667
 20
119.206640
 30
0.0
  0
SPLINE
  5
22a
100
AcDbEntity
  8
Image
 62
7
100
AcDbSpline
 70
8
 71
3
 72
8
 73
4
 74
0
 40
0
 40
0
 40
0
 40
0
 40
1
 40
1
 40
1
 40
1
 10
13.937667
 20
119.206640
 30
0.0
 10
13.937667
 20
119.183450
 30
0.0
 10
13.932767
 20
119.178270
 30
0.0
 10
13.911117
 20
119.178270
 30
0.0
  0
LWPOLYLINE
  5
22b
100
AcDbEntity
  8
Image
 62
7
100
AcDbPolyline
 90
5
 70
0
 10
14.048417
 20
119.358030
 30
0.0
 10
14.021097
 20
119.329510
 30
0.0
 10
14.059177
 20
119.253880
 30
0.0
 10
14.097257
 20
119.178260
 30
0.0
 10
14.061387
 20
119.178260
 30
0.0
  0
LWPOLYLINE
  5
22c
100
AcDbEntity
  8
Image
 62
7
100
AcDbPolyline
 90
3
 70
0
 10
13.911117
 20
119.178270
 30
0.0
 10
13.884567
 20
119.178270
 30
0.0
 10
13.884629
 20
119.332237
 30
0.0
  0
LWPOLYLINE
  5
22d
100
AcDbEntity
  8
Image
 62
7
100
AcDbPolyline
 90
8
 70
1
 10
14.128932
 20
119.289757
 30
0.0
 10
14.128932
 20
119.401288
 30
0.0
 10
14.160802
 20
119.401288
 30
0.0
 10
14.192662
 20
119.401288
 30
0.0
 10
14.192662
 20
119.289757
 30
0.0
 10
14.192662
 20
119.178228
 30
0.0
 10
14.160800
 20
119.178228
 30
0.0
 10
14.128930
 20
119.178228
 30
0.0
  0
SPLINE
  5
22e
100
AcDbEntity
  8
Image
 62
7
100
AcDbSpline
 70
8
 71
3
 72
8
 73
4
 74
0
 40
0
 40
0
 40
0
 40
0
 40
1
 40
1
 40
1
 40
1
 10
14.277643
 20
119.401288
 30
0.0
 10
14.299543
 20
119.401288
 30
0.0
 10
14.309513
 20
119.395988
 30
0.0
 10
14.309513
 20
119.384578
 30
0.0
  0
SPLINE
  5
22f
100
AcDbEntity
  8
Image
 62
7
100
AcDbSpline
 70
8
 71
3
 72
8
 73
4
 74
0
 40
0
 40
0
 40
0
 40
0
 40
1
 40
1
 40
1
 40
1
 10
14.309513
 20
119.384578
 30
0.0
 10
14.309513
 20
119.370518
 30
0.0
 10
14.313813
 20
119.371208
 30
0.0
 10
14.336193
 20
119.388878
 30
0.0
  0
SPLINE
  5
230
100
AcDbEntity
  8
Image
 62
7
100
AcDbSpline
 70
8
 71
3
 72
8
 73
4
 74
0
 40
0
 40
0
 40
0
 40
0
 40
1
 40
1
 40
1
 40
1
 10
14.336193
 20
119.388878
 30
0.0
 10
14.362863
 20
119.409858
 30
0.0
 10
14.396063
 20
119.409468
 30
0.0
 10
14.423693
 20
119.387778
 30
0.0
  0
SPLINE
  5
231
100
AcDbEntity
  8
Image
 62
7
100
AcDbSpline
 70
8
 71
3
 72
8
 73
4
 74
0
 40
0
 40
0
 40
0
 40
0
 40
1
 40
1
 40
1
 40
1
 10
14.423693
 20
119.387778
 30
0.0
 10
14.432593
 20
119.380778
 30
0.0
 10
14.436973
 20
119.344848
 30
0.0
 10
14.436973
 20
119.277781
 30
0.0
  0
SPLINE
  5
232
100
AcDbEntity
  8
Image
 62
7
100
AcDbSpline
 70
8
 71
3
 72
8
 73
4
 74
0
 40
0
 40
0
 40
0
 40
0
 40
1
 40
1
 40
1
 40
1
 10
14.436973
 20
119.277781
 30
0.0
 10
14.436973
 20
119.178611
 30
0.0
 10
14.436857
 20
119.178171
 30
0.0
 10
14.410423
 20
119.178171
 30
0.0
  0
SPLINE
  5
233
100
AcDbEntity
  8
Image
 62
7
100
AcDbSpline
 70
8
 71
3
 72
8
 73
4
 74
0
 40
0
 40
0
 40
0
 40
0
 40
1
 40
1
 40
1
 40
1
 10
14.410423
 20
119.178171
 30
0.0
 10
14.384653
 20
119.178171
 30
0.0
 10
14.383873
 20
119.180371
 30
0.0
 10
14.383873
 20
119.251651
 30
0.0
  0
SPLINE
  5
234
100
AcDbEntity
  8
Image
 62
7
100
AcDbSpline
 70
8
 71
3
 72
8
 73
4
 74
0
 40
0
 40
0
 40
0
 40
0
 40
1
 40
1
 40
1
 40
1
 10
14.383873
 20
119.251651
 30
0.0
 10
14.383873
 20
119.338621
 30
0.0
 10
14.377773
 20
119.358739
 30
0.0
 10
14.351243
 20
119.358739
 30
0.0
  0
SPLINE
  5
235
100
AcDbEntity
  8
Image
 62
7
100
AcDbSpline
 70
8
 71
3
 72
8
 73
4
 74
0
 40
0
 40
0
 40
0
 40
0
 40
1
 40
1
 40
1
 40
1
 10
14.351243
 20
119.358739
 30
0.0
 10
14.321913
 20
119.358739
 30
0.0
 10
14.309513
 20
119.325829
 30
0.0
 10
14.309513
 20
119.247907
 30
0.0
  0
LWPOLYLINE
  5
236
100
AcDbEntity
  8
Image
 62
7
100
AcDbPolyline
 90
3
 70
0
 10
14.245773
 20
119.289757
 30
0.0
 10
14.245773
 20
119.401288
 30
0.0
 10
14.277643
 20
119.401288
 30
0.0
  0
SPLINE
  5
237
100
AcDbEntity
  8
Image
 62
7
100
AcDbSpline
 70
8
 71
3
 72
8
 73
4
 74
0
 40
0
 40
0
 40
0
 40
0
 40
1
 40
1
 40
1
 40
1
 10
12.787041
 20
119.429656
 30
0.0
 10
12.783141
 20
119.433556
 30
0.0
 10
12.779941
 20
119.447896
 30
0.0
 10
12.779941
 20
119.461526
 30
0.0
  0
SPLINE
  5
238
100
AcDbEntity
  8
Image
 62
7
100
AcDbSpline
 70
8
 71
3
 72
8
 73
4
 74
0
 40
0
 40
0
 40
0
 40
0
 40
1
 40
1
 40
1
 40
1
 10
12.779941
 20
119.461526
 30
0.0
 10
12.779941
 20
119.481986
 30
0.0
 10
12.785541
 20
119.486316
 30
0.0
 10
12.811811
 20
119.486316
 30
0.0
  0
SPLINE
  5
239
100
AcDbEntity
  8
Image
 62
7
100
AcDbSpline
 70
8
 71
3
 72
8
 73
4
 74
0
 40
0
 40
0
 40
0
 40
0
 40
1
 40
1
 40
1
 40
1
 10
12.811811
 20
119.486316
 30
0.0
 10
12.840141
 20
119.486316
 30
0.0
 10
12.843681
 20
119.482716
 30
0.0
 10
12.843681
 20
119.454446
 30
0.0
  0
SPLINE
  5
23a
100
AcDbEntity
  8
Image
 62
7
100
AcDbSpline
 70
8
 71
3
 72
8
 73
4
 74
0
 40
0
 40
0
 40
0
 40
0
 40
1
 40
1
 40
1
 40
1
 10
12.843681
 20
119.454446
 30
0.0
 10
12.843681
 20
119.428146
 30
0.0
 10
12.839381
 20
119.422576
 30
0.0
 10
12.818891
 20
119.422576
 30
0.0
  0
SPLINE
  5
23b
100
AcDbEntity
  8
Image
 62
7
100
AcDbSpline
 70
8
 71
3
 72
8
 73
4
 74
0
 40
0
 40
0
 40
0
 40
0
 40
1
 40
1
 40
1
 40
1
 10
12.818891
 20
119.422576
 30
0.0
 10
12.805261
 20
119.422576
 30
0.0
 10
12.790921
 20
119.425776
 30
0.0
 10
12.787021
 20
119.429676
 30
0.0
  0
LWPOLYLINE
  5
23c
100
AcDbEntity
  8
Image
 62
7
100
AcDbPolyline
 90
5
 70
0
 10
14.309513
 20
119.247907
 30
0.0
 10
14.309513
 20
119.178167
 30
0.0
 10
14.277643
 20
119.178167
 30
0.0
 10
14.245773
 20
119.178167
 30
0.0
 10
14.245773
 20
119.289757
 30
0.0
  0
SPLINE
  5
23d
100
AcDbEntity
  8
Image
 62
7
100
AcDbSpline
 70
8
 71
3
 72
8
 73
4
 74
0
 40
0
 40
0
 40
0
 40
0
 40
1
 40
1
 40
1
 40
1
 10
14.128939
 20
119.454446
 30
0.0
 10
14.128939
 20
119.482766
 30
0.0
 10
14.132539
 20
119.486316
 30
0.0
 10
14.160809
 20
119.486316
 30
0.0
  0
SPLINE
  5
23e
100
AcDbEntity
  8
Image
 62
7
100
AcDbSpline
 70
8
 71
3
 72
8
 73
4
 74
0
 40
0
 40
0
 40
0
 40
0
 40
1
 40
1
 40
1
 40
1
 10
14.160809
 20
119.486316
 30
0.0
 10
14.189129
 20
119.486316
 30
0.0
 10
14.192669
 20
119.482716
 30
0.0
 10
14.192669
 20
119.454446
 30
0.0
  0
SPLINE
  5
23f
100
AcDbEntity
  8
Image
 62
7
100
AcDbSpline
 70
8
 71
3
 72
8
 73
4
 74
0
 40
0
 40
0
 40
0
 40
0
 40
1
 40
1
 40
1
 40
1
 10
14.192669
 20
119.454446
 30
0.0
 10
14.192669
 20
119.426126
 30
0.0
 10
14.189069
 20
119.422576
 30
0.0
 10
14.160809
 20
119.422576
 30
0.0
  0
SPLINE
  5
240
100
AcDbEntity
  8
Image
 62
7
100
AcDbSpline
 70
8
 71
3
 72
8
 73
4
 74
0
 40
0
 40
0
 40
0
 40
0
 40
1
 40
1
 40
1
 40
1
 10
14.160809
 20
119.422576
 30
0.0
 10
14.132479
 20
119.422576
 30
0.0
 10
14.128939
 20
119.426176
 30
0.0
 10
14.128939
 20
119.454446
 30
0.0
  0
LWPOLYLINE
  5
241
100
AcDbEntity
  8
Image
 62
7
100
AcDbPolyline
 90
1
 70
1
 10
12.787021
 20
119.429676
 30
0.0
  0
LWPOLYLINE
  5
242
100
AcDbEntity
  8
Image
 62
7
100
AcDbPolyline
 90
1
 70
1
 10
14.128939
 20
119.454446
 30
0.0
  0
SPLINE
  5
243
100
AcDbEntity
  8
Image
 62
7
100
AcDbSpline
 70
8
 71
3
 72
8
 73
4
 74
0
 40
0
 40
0
 40
0
 40
0
 40
1
 40
1
 40
1
 40
1
 10
12.191865
 20
119.995385
 30
0.0
 10
12.223675
 20
120.020405
 30
0.0
 10
12.286725
 20
120.024265
 30
0.0
 10
12.314822
 20
120.002985
 30
0.0
  0
SPLINE
  5
244
100
AcDbEntity
  8
Image
 62
7
100
AcDbSpline
 70
8
 71
3
 72
8
 73
4
 74
0
 40
0
 40
0
 40
0
 40
0
 40
1
 40
1
 40
1
 40
1
 10
12.314822
 20
120.002985
 30
0.0
 10
12.345912
 20
119.979365
 30
0.0
 10
12.355072
 20
119.935375
 30
0.0
 10
12.355072
 20
119.809648
 30
0.0
  0
LWPOLYLINE
  5
245
100
AcDbEntity
  8
Image
 62
7
100
AcDbPolyline
 90
7
 70
0
 10
12.078915
 20
119.905876
 30
0.0
 10
12.078915
 20
120.123625
 30
0.0
 10
12.121395
 20
120.123625
 30
0.0
 10
12.163875
 20
120.123625
 30
0.0
 10
12.163875
 20
120.048505
 30
0.0
 10
12.163875
 20
119.973375
 30
0.0
 10
12.191865
 20
119.995385
 30
0.0
  0
SPLINE
  5
246
100
AcDbEntity
  8
Image
 62
7
100
AcDbSpline
 70
8
 71
3
 72
8
 73
4
 74
0
 40
0
 40
0
 40
0
 40
0
 40
1
 40
1
 40
1
 40
1
 10
12.259472
 20
119.809811
 30
0.0
 10
12.259472
 20
119.939530
 30
0.0
 10
12.251872
 20
119.958096
 30
0.0
 10
12.204042
 20
119.945583
 30
0.0
  0
SPLINE
  5
247
100
AcDbEntity
  8
Image
 62
7
100
AcDbSpline
 70
8
 71
3
 72
8
 73
4
 74
0
 40
0
 40
0
 40
0
 40
0
 40
1
 40
1
 40
1
 40
1
 10
12.204042
 20
119.945583
 30
0.0
 10
12.173522
 20
119.937583
 30
0.0
 10
12.163882
 20
119.899843
 30
0.0
 10
12.163882
 20
119.788404
 30
0.0
  0
LWPOLYLINE
  5
248
100
AcDbEntity
  8
Image
 62
7
100
AcDbPolyline
 90
5
 70
0
 10
12.355072
 20
119.809648
 30
0.0
 10
12.355072
 20
119.688187
 30
0.0
 10
12.307272
 20
119.688187
 30
0.0
 10
12.259472
 20
119.688187
 30
0.0
 10
12.259472
 20
119.809811
 30
0.0
  0
SPLINE
  5
249
100
AcDbEntity
  8
Image
 62
7
100
AcDbSpline
 70
8
 71
3
 72
8
 73
4
 74
0
 40
0
 40
0
 40
0
 40
0
 40
1
 40
1
 40
1
 40
1
 10
12.441910
 20
119.712711
 30
0.0
 10
12.409900
 20
119.746791
 30
0.0
 10
12.410730
 20
119.808471
 30
0.0
 10
12.443710
 20
119.841375
 30
0.0
  0
SPLINE
  5
24a
100
AcDbEntity
  8
Image
 62
7
100
AcDbSpline
 70
8
 71
3
 72
8
 73
4
 74
0
 40
0
 40
0
 40
0
 40
0
 40
1
 40
1
 40
1
 40
1
 10
12.443710
 20
119.841375
 30
0.0
 10
12.466600
 20
119.864265
 30
0.0
 10
12.549225
 20
119.889945
 30
0.0
 10
12.599985
 20
119.889945
 30
0.0
  0
SPLINE
  5
24b
100
AcDbEntity
  8
Image
 62
7
100
AcDbSpline
 70
8
 71
3
 72
8
 73
4
 74
0
 40
0
 40
0
 40
0
 40
0
 40
1
 40
1
 40
1
 40
1
 10
12.599985
 20
119.889945
 30
0.0
 10
12.624965
 20
119.889945
 30
0.0
 10
12.626535
 20
119.908775
 30
0.0
 10
12.604185
 20
119.940695
 30
0.0
  0
SPLINE
  5
24c
100
AcDbEntity
  8
Image
 62
7
100
AcDbSpline
 70
8
 71
3
 72
8
 73
4
 74
0
 40
0
 40
0
 40
0
 40
0
 40
1
 40
1
 40
1
 40
1
 10
12.604185
 20
119.940695
 30
0.0
 10
12.582755
 20
119.971295
 30
0.0
 10
12.551295
 20
119.970695
 30
0.0
 10
12.521955
 20
119.939195
 30
0.0
  0
SPLINE
  5
24d
100
AcDbEntity
  8
Image
 62
7
100
AcDbSpline
 70
8
 71
3
 72
8
 73
4
 74
0
 40
0
 40
0
 40
0
 40
0
 40
1
 40
1
 40
1
 40
1
 10
12.521955
 20
119.939195
 30
0.0
 10
12.503845
 20
119.919715
 30
0.0
 10
12.490775
 20
119.915195
 30
0.0
 10
12.464045
 20
119.919155
 30
0.0
  0
SPLINE
  5
24e
100
AcDbEntity
  8
Image
 62
7
100
AcDbSpline
 70
8
 71
3
 72
8
 73
4
 74
0
 40
0
 40
0
 40
0
 40
0
 40
1
 40
1
 40
1
 40
1
 10
12.464045
 20
119.919155
 30
0.0
 10
12.421875
 20
119.925355
 30
0.0
 10
12.419675
 20
119.945605
 30
0.0
 10
12.457345
 20
119.980545
 30
0.0
  0
SPLINE
  5
24f
100
AcDbEntity
  8
Image
 62
7
100
AcDbSpline
 70
8
 71
3
 72
8
 73
4
 74
0
 40
0
 40
0
 40
0
 40
0
 40
1
 40
1
 40
1
 40
1
 10
12.457345
 20
119.980545
 30
0.0
 10
12.507975
 20
120.027475
 30
0.0
 10
12.631582
 20
120.030235
 30
0.0
 10
12.679200
 20
119.985545
 30
0.0
  0
SPLINE
  5
250
100
AcDbEntity
  8
Image
 62
7
100
AcDbSpline
 70
8
 71
3
 72
8
 73
4
 74
0
 40
0
 40
0
 40
0
 40
0
 40
1
 40
1
 40
1
 40
1
 10
12.679200
 20
119.985545
 30
0.0
 10
12.702950
 20
119.963235
 30
0.0
 10
12.704720
 20
119.953265
 30
0.0
 10
12.707750
 20
119.824969
 30
0.0
  0
LWPOLYLINE
  5
251
100
AcDbEntity
  8
Image
 62
7
100
AcDbPolyline
 90
5
 70
0
 10
12.163882
 20
119.788404
 30
0.0
 10
12.163882
 20
119.688187
 30
0.0
 10
12.121392
 20
119.688187
 30
0.0
 10
12.078912
 20
119.688187
 30
0.0
 10
12.078915
 20
119.905876
 30
0.0
  0
SPLINE
  5
252
100
AcDbEntity
  8
Image
 62
7
100
AcDbSpline
 70
8
 71
3
 72
8
 73
4
 74
0
 40
0
 40
0
 40
0
 40
0
 40
1
 40
1
 40
1
 40
1
 10
12.665800
 20
119.688197
 30
0.0
 10
12.624110
 20
119.688215
 30
0.0
 10
12.620660
 20
119.690297
 30
0.0
 10
12.620660
 20
119.716227
 30
0.0
  0
LWPOLYLINE
  5
253
100
AcDbEntity
  8
Image
 62
7
100
AcDbPolyline
 90
3
 70
0
 10
12.707750
 20
119.824969
 30
0.0
 10
12.710950
 20
119.688179
 30
0.0
 10
12.665800
 20
119.688197
 30
0.0
  0
SPLINE
  5
254
100
AcDbEntity
  8
Image
 62
7
100
AcDbSpline
 70
8
 71
3
 72
8
 73
4
 74
0
 40
0
 40
0
 40
0
 40
0
 40
1
 40
1
 40
1
 40
1
 10
12.592650
 20
119.716227
 30
0.0
 10
12.554480
 20
119.678057
 30
0.0
 10
12.476243
 20
119.676287
 30
0.0
 10
12.441932
 20
119.712827
 30
0.0
  0
LWPOLYLINE
  5
255
100
AcDbEntity
  8
Image
 62
7
100
AcDbPolyline
 90
3
 70
0
 10
12.620660
 20
119.716227
 30
0.0
 10
12.620660
 20
119.744237
 30
0.0
 10
12.592650
 20
119.716227
 30
0.0
  0
SPLINE
  5
256
100
AcDbEntity
  8
Image
 62
7
100
AcDbSpline
 70
8
 71
3
 72
8
 73
4
 74
0
 40
0
 40
0
 40
0
 40
0
 40
1
 40
1
 40
1
 40
1
 10
12.584520
 20
119.749371
 30
0.0
 10
12.601860
 20
119.760941
 30
0.0
 10
12.620630
 20
119.800531
 30
0.0
 10
12.620630
 20
119.825521
 30
0.0
  0
SPLINE
  5
257
100
AcDbEntity
  8
Image
 62
7
100
AcDbSpline
 70
8
 71
3
 72
8
 73
4
 74
0
 40
0
 40
0
 40
0
 40
0
 40
1
 40
1
 40
1
 40
1
 10
12.620630
 20
119.825521
 30
0.0
 10
12.620630
 20
119.851541
 30
0.0
 10
12.602030
 20
119.853291
 30
0.0
 10
12.551250
 20
119.832121
 30
0.0
  0
SPLINE
  5
258
100
AcDbEntity
  8
Image
 62
7
100
AcDbSpline
 70
8
 71
3
 72
8
 73
4
 74
0
 40
0
 40
0
 40
0
 40
0
 40
1
 40
1
 40
1
 40
1
 10
12.551250
 20
119.832121
 30
0.0
 10
12.521280
 20
119.819601
 30
0.0
 10
12.514420
 20
119.811021
 30
0.0
 10
12.514420
 20
119.786091
 30
0.0
  0
SPLINE
  5
259
100
AcDbEntity
  8
Image
 62
7
100
AcDbSpline
 70
8
 71
3
 72
8
 73
4
 74
0
 40
0
 40
0
 40
0
 40
0
 40
1
 40
1
 40
1
 40
1
 10
12.514420
 20
119.786091
 30
0.0
 10
12.514420
 20
119.769241
 30
0.0
 10
12.517620
 20
119.752261
 30
0.0
 10
12.521520
 20
119.748371
 30
0.0
  0
SPLINE
  5
25a
100
AcDbEntity
  8
Image
 62
7
100
AcDbSpline
 70
8
 71
3
 72
8
 73
4
 74
0
 40
0
 40
0
 40
0
 40
0
 40
1
 40
1
 40
1
 40
1
 10
12.521520
 20
119.748371
 30
0.0
 10
12.530920
 20
119.738971
 30
0.0
 10
12.569870
 20
119.739671
 30
0.0
 10
12.584550
 20
119.749471
 30
0.0
  0
LWPOLYLINE
  5
25b
100
AcDbEntity
  8
Image
 62
7
100
AcDbPolyline
 90
2
 70
0
 10
12.441932
 20
119.712827
 30
0.0
 10
12.441910
 20
119.712711
 30
0.0
  0
SPLINE
  5
25c
100
AcDbEntity
  8
Image
 62
7
100
AcDbSpline
 70
8
 71
3
 72
8
 73
4
 74
0
 40
0
 40
0
 40
0
 40
0
 40
1
 40
1
 40
1
 40
1
 10
12.758716
 20
119.720361
 30
0.0
 10
12.758716
 20
119.743791
 30
0.0
 10
12.778906
 20
119.779341
 30
0.0
 10
12.832586
 20
119.850480
 30
0.0
  0
LWPOLYLINE
  5
25d
100
AcDbEntity
  8
Image
 62
7
100
AcDbPolyline
 90
1
 70
1
 10
12.584550
 20
119.749471
 30
0.0
  0
SPLINE
  5
25e
100
AcDbEntity
  8
Image
 62
7
100
AcDbSpline
 70
8
 71
3
 72
8
 73
4
 74
0
 40
0
 40
0
 40
0
 40
0
 40
1
 40
1
 40
1
 40
1
 10
12.843216
 20
119.951560
 30
0.0
 10
12.784016
 20
119.954460
 30
0.0
 10
12.779966
 20
119.956360
 30
0.0
 10
12.779966
 20
119.980770
 30
0.0
  0
SPLINE
  5
25f
100
AcDbEntity
  8
Image
 62
7
100
AcDbSpline
 70
8
 71
3
 72
8
 73
4
 74
0
 40
0
 40
0
 40
0
 40
0
 40
1
 40
1
 40
1
 40
1
 10
12.779966
 20
119.980770
 30
0.0
 10
12.779966
 20
120.006770
 30
0.0
 10
12.780191
 20
120.006820
 30
0.0
 10
12.891495
 20
120.006820
 30
0.0
  0
LWPOLYLINE
  5
260
100
AcDbEntity
  8
Image
 62
7
100
AcDbPolyline
 90
3
 70
0
 10
12.832586
 20
119.850480
 30
0.0
 10
12.906466
 20
119.948360
 30
0.0
 10
12.843216
 20
119.951560
 30
0.0
  0
SPLINE
  5
261
100
AcDbEntity
  8
Image
 62
7
100
AcDbSpline
 70
8
 71
3
 72
8
 73
4
 74
0
 40
0
 40
0
 40
0
 40
0
 40
1
 40
1
 40
1
 40
1
 10
13.002939
 20
119.977610
 30
0.0
 10
13.002882
 20
119.958390
 30
0.0
 10
12.979269
 20
119.916570
 30
0.0
 10
12.933899
 20
119.855326
 30
0.0
  0
SPLINE
  5
262
100
AcDbEntity
  8
Image
 62
7
100
AcDbSpline
 70
8
 71
3
 72
8
 73
4
 74
0
 40
0
 40
0
 40
0
 40
0
 40
1
 40
1
 40
1
 40
1
 10
12.933899
 20
119.855326
 30
0.0
 10
12.895969
 20
119.804136
 30
0.0
 10
12.864949
 20
119.759926
 30
0.0
 10
12.864949
 20
119.757076
 30
0.0
  0
SPLINE
  5
263
100
AcDbEntity
  8
Image
 62
7
100
AcDbSpline
 70
8
 71
3
 72
8
 73
4
 74
0
 40
0
 40
0
 40
0
 40
0
 40
1
 40
1
 40
1
 40
1
 10
12.864949
 20
119.757076
 30
0.0
 10
12.864949
 20
119.754276
 30
0.0
 10
12.898409
 20
119.751876
 30
0.0
 10
12.939309
 20
119.751876
 30
0.0
  0
LWPOLYLINE
  5
264
100
AcDbEntity
  8
Image
 62
7
100
AcDbPolyline
 90
3
 70
0
 10
12.891495
 20
120.006820
 30
0.0
 10
13.003025
 20
120.006820
 30
0.0
 10
13.002939
 20
119.977610
 30
0.0
  0
SPLINE
  5
265
100
AcDbEntity
  8
Image
 62
7
100
AcDbSpline
 70
8
 71
3
 72
8
 73
4
 74
0
 40
0
 40
0
 40
0
 40
0
 40
1
 40
1
 40
1
 40
1
 10
13.085192
 20
119.701401
 30
0.0
 10
13.041242
 20
119.734771
 30
0.0
 10
13.045372
 20
119.822338
 30
0.0
 10
13.092392
 20
119.853124
 30
0.0
  0
SPLINE
  5
266
100
AcDbEntity
  8
Image
 62
7
100
AcDbSpline
 70
8
 71
3
 72
8
 73
4
 74
0
 40
0
 40
0
 40
0
 40
0
 40
1
 40
1
 40
1
 40
1
 10
13.092392
 20
119.853124
 30
0.0
 10
13.106162
 20
119.862124
 30
0.0
 10
13.146652
 20
119.874964
 30
0.0
 10
13.182392
 20
119.881604
 30
0.0
  0
SPLINE
  5
267
100
AcDbEntity
  8
Image
 62
7
100
AcDbSpline
 70
8
 71
3
 72
8
 73
4
 74
0
 40
0
 40
0
 40
0
 40
0
 40
1
 40
1
 40
1
 40
1
 10
13.182392
 20
119.881604
 30
0.0
 10
13.237742
 20
119.891894
 30
0.0
 10
13.247352
 20
119.897024
 30
0.0
 10
13.247352
 20
119.916244
 30
0.0
  0
SPLINE
  5
268
100
AcDbEntity
  8
Image
 62
7
100
AcDbSpline
 70
8
 71
3
 72
8
 73
4
 74
0
 40
0
 40
0
 40
0
 40
0
 40
1
 40
1
 40
1
 40
1
 10
13.247352
 20
119.916244
 30
0.0
 10
13.247352
 20
119.966754
 30
0.0
 10
13.197052
 20
119.979824
 30
0.0
 10
13.159212
 20
119.939144
 30
0.0
  0
SPLINE
  5
269
100
AcDbEntity
  8
Image
 62
7
100
AcDbSpline
 70
8
 71
3
 72
8
 73
4
 74
0
 40
0
 40
0
 40
0
 40
0
 40
1
 40
1
 40
1
 40
1
 10
13.159212
 20
119.939144
 30
0.0
 10
13.141102
 20
119.919664
 30
0.0
 10
13.128032
 20
119.915144
 30
0.0
 10
13.101302
 20
119.919104
 30
0.0
  0
SPLINE
  5
26a
100
AcDbEntity
  8
Image
 62
7
100
AcDbSpline
 70
8
 71
3
 72
8
 73
4
 74
0
 40
0
 40
0
 40
0
 40
0
 40
1
 40
1
 40
1
 40
1
 10
13.101302
 20
119.919104
 30
0.0
 10
13.059942
 20
119.925204
 30
0.0
 10
13.056992
 20
119.944844
 30
0.0
 10
13.092102
 20
119.980004
 30
0.0
  0
SPLINE
  5
26b
100
AcDbEntity
  8
Image
 62
7
100
AcDbSpline
 70
8
 71
3
 72
8
 73
4
 74
0
 40
0
 40
0
 40
0
 40
0
 40
1
 40
1
 40
1
 40
1
 10
13.092102
 20
119.980004
 30
0.0
 10
13.142102
 20
120.030004
 30
0.0
 10
13.275878
 20
120.030404
 30
0.0
 10
13.318654
 20
119.980658
 30
0.0
  0
SPLINE
  5
26c
100
AcDbEntity
  8
Image
 62
7
100
AcDbSpline
 70
8
 71
3
 72
8
 73
4
 74
0
 40
0
 40
0
 40
0
 40
0
 40
1
 40
1
 40
1
 40
1
 10
13.318654
 20
119.980658
 30
0.0
 10
13.341094
 20
119.954568
 30
0.0
 10
13.342904
 20
119.942608
 30
0.0
 10
13.342904
 20
119.820286
 30
0.0
  0
LWPOLYLINE
  5
26d
100
AcDbEntity
  8
Image
 62
7
100
AcDbPolyline
 90
7
 70
0
 10
12.939309
 20
119.751876
 30
0.0
 10
13.013659
 20
119.751876
 30
0.0
 10
13.013659
 20
119.720006
 30
0.0
 10
13.013659
 20
119.688136
 30
0.0
 10
12.886197
 20
119.688136
 30
0.0
 10
12.758734
 20
119.688136
 30
0.0
 10
12.758716
 20
119.720361
 30
0.0
  0
SPLINE
  5
26e
100
AcDbEntity
  8
Image
 62
7
100
AcDbSpline
 70
8
 71
3
 72
8
 73
4
 74
0
 40
0
 40
0
 40
0
 40
0
 40
1
 40
1
 40
1
 40
1
 10
13.300414
 20
119.688104
 30
0.0
 10
13.261784
 20
119.688104
 30
0.0
 10
13.257934
 20
119.690604
 30
0.0
 10
13.257934
 20
119.715604
 30
0.0
  0
LWPOLYLINE
  5
26f
100
AcDbEntity
  8
Image
 62
7
100
AcDbPolyline
 90
3
 70
0
 10
13.342904
 20
119.820286
 30
0.0
 10
13.342904
 20
119.688104
 30
0.0
 10
13.300414
 20
119.688104
 30
0.0
  0
SPLINE
  5
270
100
AcDbEntity
  8
Image
 62
7
100
AcDbSpline
 70
8
 71
3
 72
8
 73
4
 74
0
 40
0
 40
0
 40
0
 40
0
 40
1
 40
1
 40
1
 40
1
 10
13.225254
 20
119.715604
 30
0.0
 10
13.188924
 20
119.685034
 30
0.0
 10
13.116408
 20
119.677664
 30
0.0
 10
13.085182
 20
119.701384
 30
0.0
  0
LWPOLYLINE
  5
271
100
AcDbEntity
  8
Image
 62
7
100
AcDbPolyline
 90
3
 70
0
 10
13.257934
 20
119.715604
 30
0.0
 10
13.257934
 20
119.743104
 30
0.0
 10
13.225254
 20
119.715604
 30
0.0
  0
SPLINE
  5
272
100
AcDbEntity
  8
Image
 62
7
100
AcDbSpline
 70
8
 71
3
 72
8
 73
4
 74
0
 40
0
 40
0
 40
0
 40
0
 40
1
 40
1
 40
1
 40
1
 10
13.227899
 20
119.758811
 30
0.0
 10
13.247479
 20
119.776531
 30
0.0
 10
13.255789
 20
119.847451
 30
0.0
 10
13.238289
 20
119.847451
 30
0.0
  0
SPLINE
  5
273
100
AcDbEntity
  8
Image
 62
7
100
AcDbSpline
 70
8
 71
3
 72
8
 73
4
 74
0
 40
0
 40
0
 40
0
 40
0
 40
1
 40
1
 40
1
 40
1
 10
13.238289
 20
119.847451
 30
0.0
 10
13.212489
 20
119.847451
 30
0.0
 10
13.160559
 20
119.821471
 30
0.0
 10
13.151129
 20
119.803851
 30
0.0
  0
SPLINE
  5
274
100
AcDbEntity
  8
Image
 62
7
100
AcDbSpline
 70
8
 71
3
 72
8
 73
4
 74
0
 40
0
 40
0
 40
0
 40
0
 40
1
 40
1
 40
1
 40
1
 10
13.151129
 20
119.803851
 30
0.0
 10
13.125649
 20
119.756231
 30
0.0
 10
13.185949
 20
119.720861
 30
0.0
 10
13.227909
 20
119.758811
 30
0.0
  0
LWPOLYLINE
  5
275
100
AcDbEntity
  8
Image
 62
7
100
AcDbPolyline
 90
1
 70
1
 10
13.085182
 20
119.701384
 30
0.0
  0
LWPOLYLINE
  5
276
100
AcDbEntity
  8
Image
 62
7
100
AcDbPolyline
 90
1
 70
1
 10
13.227909
 20
119.758811
 30
0.0
  0
SPLINE
  5
277
100
AcDbEntity
  8
Image
 62
7
100
AcDbSpline
 70
8
 71
3
 72
8
 73
4
 74
0
 40
0
 40
0
 40
0
 40
0
 40
1
 40
1
 40
1
 40
1
 10
13.465065
 20
120.006779
 30
0.0
 10
13.495155
 20
120.006779
 30
0.0
 10
13.502245
 20
120.002679
 30
0.0
 10
13.502245
 20
119.985529
 30
0.0
  0
SPLINE
  5
278
100
AcDbEntity
  8
Image
 62
7
100
AcDbSpline
 70
8
 71
3
 72
8
 73
4
 74
0
 40
0
 40
0
 40
0
 40
0
 40
1
 40
1
 40
1
 40
1
 10
13.502245
 20
119.985529
 30
0.0
 10
13.502245
 20
119.956189
 30
0.0
 10
13.517635
 20
119.958919
 30
0.0
 10
13.532175
 20
119.990829
 30
0.0
  0
SPLINE
  5
279
100
AcDbEntity
  8
Image
 62
7
100
AcDbSpline
 70
8
 71
3
 72
8
 73
4
 74
0
 40
0
 40
0
 40
0
 40
0
 40
1
 40
1
 40
1
 40
1
 10
13.532175
 20
119.990829
 30
0.0
 10
13.540475
 20
120.008939
 30
0.0
 10
13.552785
 20
120.017379
 30
0.0
 10
13.571055
 20
120.017379
 30
0.0
  0
SPLINE
  5
27a
100
AcDbEntity
  8
Image
 62
7
100
AcDbSpline
 70
8
 71
3
 72
8
 73
4
 74
0
 40
0
 40
0
 40
0
 40
0
 40
1
 40
1
 40
1
 40
1
 10
13.571055
 20
120.017379
 30
0.0
 10
13.595115
 20
120.017379
 30
0.0
 10
13.597835
 20
120.013079
 30
0.0
 10
13.597835
 20
119.975929
 30
0.0
  0
SPLINE
  5
27b
100
AcDbEntity
  8
Image
 62
7
100
AcDbSpline
 70
8
 71
3
 72
8
 73
4
 74
0
 40
0
 40
0
 40
0
 40
0
 40
1
 40
1
 40
1
 40
1
 10
13.597835
 20
119.975929
 30
0.0
 10
13.597835
 20
119.939409
 30
0.0
 10
13.594035
 20
119.933159
 30
0.0
 10
13.565905
 20
119.923349
 30
0.0
  0
SPLINE
  5
27c
100
AcDbEntity
  8
Image
 62
7
100
AcDbSpline
 70
8
 71
3
 72
8
 73
4
 74
0
 40
0
 40
0
 40
0
 40
0
 40
1
 40
1
 40
1
 40
1
 10
13.565905
 20
119.923349
 30
0.0
 10
13.524305
 20
119.908849
 30
0.0
 10
13.512865
 20
119.876289
 30
0.0
 10
13.512865
 20
119.772381
 30
0.0
  0
LWPOLYLINE
  5
27d
100
AcDbEntity
  8
Image
 62
7
100
AcDbPolyline
 90
3
 70
0
 10
13.427895
 20
119.847451
 30
0.0
 10
13.427895
 20
120.006779
 30
0.0
 10
13.465065
 20
120.006779
 30
0.0
  0
SPLINE
  5
27e
100
AcDbEntity
  8
Image
 62
7
100
AcDbSpline
 70
8
 71
3
 72
8
 73
4
 74
0
 40
0
 40
0
 40
0
 40
0
 40
1
 40
1
 40
1
 40
1
 10
13.690786
 20
119.699595
 30
0.0
 10
13.620706
 20
119.740415
 30
0.0
 10
13.615626
 20
119.926913
 30
0.0
 10
13.682986
 20
119.988191
 30
0.0
  0
SPLINE
  5
27f
100
AcDbEntity
  8
Image
 62
7
100
AcDbSpline
 70
8
 71
3
 72
8
 73
4
 74
0
 40
0
 40
0
 40
0
 40
0
 40
1
 40
1
 40
1
 40
1
 10
13.682986
 20
119.988191
 30
0.0
 10
13.719746
 20
120.021661
 30
0.0
 10
13.770876
 20
120.026851
 30
0.0
 10
13.807968
 20
120.000871
 30
0.0
  0
LWPOLYLINE
  5
280
100
AcDbEntity
  8
Image
 62
7
100
AcDbPolyline
 90
5
 70
0
 10
13.512865
 20
119.772381
 30
0.0
 10
13.512865
 20
119.688101
 30
0.0
 10
13.470375
 20
119.688101
 30
0.0
 10
13.427895
 20
119.688101
 30
0.0
 10
13.427895
 20
119.847451
 30
0.0
  0
SPLINE
  5
281
100
AcDbEntity
  8
Image
 62
7
100
AcDbSpline
 70
8
 71
3
 72
8
 73
4
 74
0
 40
0
 40
0
 40
0
 40
0
 40
1
 40
1
 40
1
 40
1
 10
13.884678
 20
119.688143
 30
0.0
 10
13.849268
 20
119.688143
 30
0.0
 10
13.842198
 20
119.691743
 30
0.0
 10
13.842198
 20
119.709393
 30
0.0
  0
SPLINE
  5
282
100
AcDbEntity
  8
Image
 62
7
100
AcDbSpline
 70
8
 71
3
 72
8
 73
4
 74
0
 40
0
 40
0
 40
0
 40
0
 40
1
 40
1
 40
1
 40
1
 10
13.842198
 20
119.709393
 30
0.0
 10
13.842198
 20
119.721073
 30
0.0
 10
13.839798
 20
119.730643
 30
0.0
 10
13.836898
 20
119.730643
 30
0.0
  0
SPLINE
  5
283
100
AcDbEntity
  8
Image
 62
7
100
AcDbSpline
 70
8
 71
3
 72
8
 73
4
 74
0
 40
0
 40
0
 40
0
 40
0
 40
1
 40
1
 40
1
 40
1
 10
13.836898
 20
119.730643
 30
0.0
 10
13.833998
 20
119.730643
 30
0.0
 10
13.822028
 20
119.721043
 30
0.0
 10
13.810348
 20
119.709393
 30
0.0
  0
SPLINE
  5
284
100
AcDbEntity
  8
Image
 62
7
100
AcDbSpline
 70
8
 71
3
 72
8
 73
4
 74
0
 40
0
 40
0
 40
0
 40
0
 40
1
 40
1
 40
1
 40
1
 10
13.810348
 20
119.709393
 30
0.0
 10
13.787118
 20
119.686163
 30
0.0
 10
13.722958
 20
119.680923
 30
0.0
 10
13.690851
 20
119.699593
 30
0.0
  0
LWPOLYLINE
  5
285
100
AcDbEntity
  8
Image
 62
7
100
AcDbPolyline
 90
9
 70
0
 10
13.807968
 20
120.000871
 30
0.0
 10
13.831568
 20
119.984341
 30
0.0
 10
13.831568
 20
120.053991
 30
0.0
 10
13.831568
 20
120.123641
 30
0.0
 10
13.879368
 20
120.123641
 30
0.0
 10
13.927168
 20
120.123641
 30
0.0
 10
13.927168
 20
119.905892
 30
0.0
 10
13.927168
 20
119.688143
 30
0.0
 10
13.884678
 20
119.688143
 30
0.0
  0
SPLINE
  5
286
100
AcDbEntity
  8
Image
 62
7
100
AcDbSpline
 70
8
 71
3
 72
8
 73
4
 74
0
 40
0
 40
0
 40
0
 40
0
 40
1
 40
1
 40
1
 40
1
 10
13.818780
 20
119.764595
 30
0.0
 10
13.826380
 20
119.772195
 30
0.0
 10
13.831530
 20
119.808265
 30
0.0
 10
13.831530
 20
119.852755
 30
0.0
  0
SPLINE
  5
287
100
AcDbEntity
  8
Image
 62
7
100
AcDbSpline
 70
8
 71
3
 72
8
 73
4
 74
0
 40
0
 40
0
 40
0
 40
0
 40
1
 40
1
 40
1
 40
1
 10
13.831530
 20
119.852755
 30
0.0
 10
13.831530
 20
119.933845
 30
0.0
 10
13.821630
 20
119.953664
 30
0.0
 10
13.781060
 20
119.953664
 30
0.0
  0
SPLINE
  5
288
100
AcDbEntity
  8
Image
 62
7
100
AcDbSpline
 70
8
 71
3
 72
8
 73
4
 74
0
 40
0
 40
0
 40
0
 40
0
 40
1
 40
1
 40
1
 40
1
 10
13.781060
 20
119.953664
 30
0.0
 10
13.732050
 20
119.953664
 30
0.0
 10
13.706500
 20
119.816035
 30
0.0
 10
13.746550
 20
119.767786
 30
0.0
  0
SPLINE
  5
289
100
AcDbEntity
  8
Image
 62
7
100
AcDbSpline
 70
8
 71
3
 72
8
 73
4
 74
0
 40
0
 40
0
 40
0
 40
0
 40
1
 40
1
 40
1
 40
1
 10
13.746550
 20
119.767786
 30
0.0
 10
13.762440
 20
119.748646
 30
0.0
 10
13.801130
 20
119.746936
 30
0.0
 10
13.818790
 20
119.764586
 30
0.0
  0
LWPOLYLINE
  5
28a
100
AcDbEntity
  8
Image
 62
7
100
AcDbPolyline
 90
1
 70
1
 10
13.690851
 20
119.699593
 30
0.0
  0
LWPOLYLINE
  5
28b
100
AcDbEntity
  8
Image
 62
7
100
AcDbPolyline
 90
1
 70
1
 10
13.818790
 20
119.764586
 30
0.0
  0
SPLINE
  5
28c
100
AcDbEntity
  8
Image
 62
7
100
AcDbSpline
 70
8
 71
3
 72
8
 73
4
 74
0
 40
0
 40
0
 40
0
 40
0
 40
1
 40
1
 40
1
 40
1
 10
13.433206
 20
120.251455
 30
0.0
 10
13.380936
 20
120.260555
 30
0.0
 10
13.342916
 20
120.289615
 30
0.0
 10
13.342916
 20
120.320535
 30
0.0
  0
SPLINE
  5
28d
100
AcDbEntity
  8
Image
 62
7
100
AcDbSpline
 70
8
 71
3
 72
8
 73
4
 74
0
 40
0
 40
0
 40
0
 40
0
 40
1
 40
1
 40
1
 40
1
 10
13.342916
 20
120.320535
 30
0.0
 10
13.342916
 20
120.335835
 30
0.0
 10
13.366576
 20
120.362735
 30
0.0
 10
13.387866
 20
120.371655
 30
0.0
  0
SPLINE
  5
28e
100
AcDbEntity
  8
Image
 62
7
100
AcDbSpline
 70
8
 71
3
 72
8
 73
4
 74
0
 40
0
 40
0
 40
0
 40
0
 40
1
 40
1
 40
1
 40
1
 10
13.387866
 20
120.371655
 30
0.0
 10
13.397666
 20
120.375755
 30
0.0
 10
13.396266
 20
120.380455
 30
0.0
 10
13.382666
 20
120.389055
 30
0.0
  0
SPLINE
  5
28f
100
AcDbEntity
  8
Image
 62
7
100
AcDbSpline
 70
8
 71
3
 72
8
 73
4
 74
0
 40
0
 40
0
 40
0
 40
0
 40
1
 40
1
 40
1
 40
1
 10
13.382666
 20
120.389055
 30
0.0
 10
13.353856
 20
120.407295
 30
0.0
 10
13.359026
 20
120.457985
 30
0.0
 10
13.392366
 20
120.484215
 30
0.0
  0
LWPOLYLINE
  5
290
100
AcDbEntity
  8
Image
 62
7
100
AcDbPolyline
 90
8
 70
1
 10
14.001477
 20
119.735915
 30
0.0
 10
14.001477
 20
119.783715
 30
0.0
 10
14.049277
 20
119.783715
 30
0.0
 10
14.097077
 20
119.783715
 30
0.0
 10
14.097077
 20
119.735915
 30
0.0
 10
14.097077
 20
119.688115
 30
0.0
 10
14.049277
 20
119.688115
 30
0.0
 10
14.001477
 20
119.688115
 30
0.0
  0
SPLINE
  5
291
100
AcDbEntity
  8
Image
 62
7
100
AcDbSpline
 70
8
 71
3
 72
8
 73
4
 74
0
 40
0
 40
0
 40
0
 40
0
 40
1
 40
1
 40
1
 40
1
 10
13.398506
 20
120.527115
 30
0.0
 10
13.351536
 20
120.570875
 30
0.0
 10
13.360306
 20
120.628638
 30
0.0
 10
13.419566
 20
120.665979
 30
0.0
  0
SPLINE
  5
292
100
AcDbEntity
  8
Image
 62
7
100
AcDbSpline
 70
8
 71
3
 72
8
 73
4
 74
0
 40
0
 40
0
 40
0
 40
0
 40
1
 40
1
 40
1
 40
1
 10
13.419566
 20
120.665979
 30
0.0
 10
13.448636
 20
120.684289
 30
0.0
 10
13.467006
 20
120.687169
 30
0.0
 10
13.531360
 20
120.683519
 30
0.0
  0
SPLINE
  5
293
100
AcDbEntity
  8
Image
 62
7
100
AcDbSpline
 70
8
 71
3
 72
8
 73
4
 74
0
 40
0
 40
0
 40
0
 40
0
 40
1
 40
1
 40
1
 40
1
 10
13.531360
 20
120.683519
 30
0.0
 10
13.589090
 20
120.680219
 30
0.0
 10
13.608370
 20
120.682541
 30
0.0
 10
13.608370
 20
120.692719
 30
0.0
  0
SPLINE
  5
294
100
AcDbEntity
  8
Image
 62
7
100
AcDbSpline
 70
8
 71
3
 72
8
 73
4
 74
0
 40
0
 40
0
 40
0
 40
0
 40
1
 40
1
 40
1
 40
1
 10
13.608370
 20
120.692719
 30
0.0
 10
13.608370
 20
120.714759
 30
0.0
 10
13.639780
 20
120.739679
 30
0.0
 10
13.667550
 20
120.739679
 30
0.0
  0
SPLINE
  5
295
100
AcDbEntity
  8
Image
 62
7
100
AcDbSpline
 70
8
 71
3
 72
8
 73
4
 74
0
 40
0
 40
0
 40
0
 40
0
 40
1
 40
1
 40
1
 40
1
 10
13.667550
 20
120.739679
 30
0.0
 10
13.704940
 20
120.739679
 30
0.0
 10
13.704300
 20
120.691629
 30
0.0
 10
13.666809
 20
120.682209
 30
0.0
  0
SPLINE
  5
296
100
AcDbEntity
  8
Image
 62
7
100
AcDbSpline
 70
8
 71
3
 72
8
 73
4
 74
0
 40
0
 40
0
 40
0
 40
0
 40
1
 40
1
 40
1
 40
1
 10
13.666809
 20
120.682209
 30
0.0
 10
13.639789
 20
120.675409
 30
0.0
 10
13.629709
 20
120.641229
 30
0.0
 10
13.650869
 20
120.628149
 30
0.0
  0
SPLINE
  5
297
100
AcDbEntity
  8
Image
 62
7
100
AcDbSpline
 70
8
 71
3
 72
8
 73
4
 74
0
 40
0
 40
0
 40
0
 40
0
 40
1
 40
1
 40
1
 40
1
 10
13.650869
 20
120.628149
 30
0.0
 10
13.670259
 20
120.616169
 30
0.0
 10
13.661909
 20
120.560779
 30
0.0
 10
13.636219
 20
120.530909
 30
0.0
  0
SPLINE
  5
298
100
AcDbEntity
  8
Image
 62
7
100
AcDbSpline
 70
8
 71
3
 72
8
 73
4
 74
0
 40
0
 40
0
 40
0
 40
0
 40
1
 40
1
 40
1
 40
1
 10
13.636219
 20
120.530909
 30
0.0
 10
13.613859
 20
120.504919
 30
0.0
 10
13.602129
 20
120.501019
 30
0.0
 10
13.534501
 20
120.497209
 30
0.0
  0
SPLINE
  5
299
100
AcDbEntity
  8
Image
 62
7
100
AcDbSpline
 70
8
 71
3
 72
8
 73
4
 74
0
 40
0
 40
0
 40
0
 40
0
 40
1
 40
1
 40
1
 40
1
 10
13.534501
 20
120.497209
 30
0.0
 10
13.480551
 20
120.494209
 30
0.0
 10
13.456321
 20
120.488409
 30
0.0
 10
13.452151
 20
120.477479
 30
0.0
  0
SPLINE
  5
29a
100
AcDbEntity
  8
Image
 62
7
100
AcDbSpline
 70
8
 71
3
 72
8
 73
4
 74
0
 40
0
 40
0
 40
0
 40
0
 40
1
 40
1
 40
1
 40
1
 10
13.452151
 20
120.477479
 30
0.0
 10
13.441721
 20
120.450319
 30
0.0
 10
13.466791
 20
120.439609
 30
0.0
 10
13.560798
 20
120.431039
 30
0.0
  0
SPLINE
  5
29b
100
AcDbEntity
  8
Image
 62
7
100
AcDbSpline
 70
8
 71
3
 72
8
 73
4
 74
0
 40
0
 40
0
 40
0
 40
0
 40
1
 40
1
 40
1
 40
1
 10
13.560798
 20
120.431039
 30
0.0
 10
13.664023
 20
120.421639
 30
0.0
 10
13.693365
 20
120.404779
 30
0.0
 10
13.693365
 20
120.354939
 30
0.0
  0
SPLINE
  5
29c
100
AcDbEntity
  8
Image
 62
7
100
AcDbSpline
 70
8
 71
3
 72
8
 73
4
 74
0
 40
0
 40
0
 40
0
 40
0
 40
1
 40
1
 40
1
 40
1
 10
13.693365
 20
120.354939
 30
0.0
 10
13.693365
 20
120.287569
 30
0.0
 10
13.652395
 20
120.256979
 30
0.0
 10
13.549969
 20
120.247882
 30
0.0
  0
SPLINE
  5
29d
100
AcDbEntity
  8
Image
 62
7
100
AcDbSpline
 70
8
 71
3
 72
8
 73
4
 74
0
 40
0
 40
0
 40
0
 40
0
 40
1
 40
1
 40
1
 40
1
 10
13.549969
 20
120.247882
 30
0.0
 10
13.514919
 20
120.244782
 30
0.0
 10
13.462339
 20
120.246382
 30
0.0
 10
13.433129
 20
120.251482
 30
0.0
  0
LWPOLYLINE
  5
29e
100
AcDbEntity
  8
Image
 62
7
100
AcDbPolyline
 90
3
 70
0
 10
13.392366
 20
120.484215
 30
0.0
 10
13.420656
 20
120.506475
 30
0.0
 10
13.398506
 20
120.527115
 30
0.0
  0
SPLINE
  5
29f
100
AcDbEntity
  8
Image
 62
7
100
AcDbSpline
 70
8
 71
3
 72
8
 73
4
 74
0
 40
0
 40
0
 40
0
 40
0
 40
1
 40
1
 40
1
 40
1
 10
13.599881
 20
120.312595
 30
0.0
 10
13.606181
 20
120.318895
 30
0.0
 10
13.608381
 20
120.331495
 30
0.0
 10
13.604881
 20
120.340645
 30
0.0
  0
SPLINE
  5
2a0
100
AcDbEntity
  8
Image
 62
7
100
AcDbSpline
 70
8
 71
3
 72
8
 73
4
 74
0
 40
0
 40
0
 40
0
 40
0
 40
1
 40
1
 40
1
 40
1
 10
13.604881
 20
120.340645
 30
0.0
 10
13.599781
 20
120.353865
 30
0.0
 10
13.580771
 20
120.357295
 30
0.0
 10
13.512441
 20
120.357295
 30
0.0
  0
SPLINE
  5
2a1
100
AcDbEntity
  8
Image
 62
7
100
AcDbSpline
 70
8
 71
3
 72
8
 73
4
 74
0
 40
0
 40
0
 40
0
 40
0
 40
1
 40
1
 40
1
 40
1
 10
13.512441
 20
120.357295
 30
0.0
 10
13.429741
 20
120.357295
 30
0.0
 10
13.426531
 20
120.356405
 30
0.0
 10
13.429781
 20
120.333835
 30
0.0
  0
SPLINE
  5
2a2
100
AcDbEntity
  8
Image
 62
7
100
AcDbSpline
 70
8
 71
3
 72
8
 73
4
 74
0
 40
0
 40
0
 40
0
 40
0
 40
1
 40
1
 40
1
 40
1
 10
13.429781
 20
120.333835
 30
0.0
 10
13.431781
 20
120.319635
 30
0.0
 10
13.443661
 20
120.307245
 30
0.0
 10
13.459731
 20
120.302475
 30
0.0
  0
SPLINE
  5
2a3
100
AcDbEntity
  8
Image
 62
7
100
AcDbSpline
 70
8
 71
3
 72
8
 73
4
 74
0
 40
0
 40
0
 40
0
 40
0
 40
1
 40
1
 40
1
 40
1
 10
13.459731
 20
120.302475
 30
0.0
 10
13.495381
 20
120.291865
 30
0.0
 10
13.585644
 20
120.298375
 30
0.0
 10
13.599852
 20
120.312605
 30
0.0
  0
LWPOLYLINE
  5
2a4
100
AcDbEntity
  8
Image
 62
7
100
AcDbPolyline
 90
1
 70
1
 10
13.433129
 20
120.251482
 30
0.0
  0
SPLINE
  5
2a5
100
AcDbEntity
  8
Image
 62
7
100
AcDbSpline
 70
8
 71
3
 72
8
 73
4
 74
0
 40
0
 40
0
 40
0
 40
0
 40
1
 40
1
 40
1
 40
1
 10
13.560071
 20
120.561475
 30
0.0
 10
13.569171
 20
120.574455
 30
0.0
 10
13.576601
 20
120.588795
 30
0.0
 10
13.576601
 20
120.593345
 30
0.0
  0
SPLINE
  5
2a6
100
AcDbEntity
  8
Image
 62
7
100
AcDbSpline
 70
8
 71
3
 72
8
 73
4
 74
0
 40
0
 40
0
 40
0
 40
0
 40
1
 40
1
 40
1
 40
1
 10
13.576601
 20
120.593345
 30
0.0
 10
13.576601
 20
120.609555
 30
0.0
 10
13.533741
 20
120.644085
 30
0.0
 10
13.513631
 20
120.644085
 30
0.0
  0
SPLINE
  5
2a7
100
AcDbEntity
  8
Image
 62
7
100
AcDbSpline
 70
8
 71
3
 72
8
 73
4
 74
0
 40
0
 40
0
 40
0
 40
0
 40
1
 40
1
 40
1
 40
1
 10
13.513631
 20
120.644085
 30
0.0
 10
13.469941
 20
120.644085
 30
0.0
 10
13.442181
 20
120.580945
 30
0.0
 10
13.472511
 20
120.550615
 30
0.0
  0
SPLINE
  5
2a8
100
AcDbEntity
  8
Image
 62
7
100
AcDbSpline
 70
8
 71
3
 72
8
 73
4
 74
0
 40
0
 40
0
 40
0
 40
0
 40
1
 40
1
 40
1
 40
1
 10
13.472511
 20
120.550615
 30
0.0
 10
13.493631
 20
120.529495
 30
0.0
 10
13.541861
 20
120.535465
 30
0.0
 10
13.560071
 20
120.561475
 30
0.0
  0
LWPOLYLINE
  5
2a9
100
AcDbEntity
  8
Image
 62
7
100
AcDbPolyline
 90
1
 70
1
 10
13.599852
 20
120.312605
 30
0.0
  0
SPLINE
  5
2aa
100
AcDbEntity
  8
Image
 62
7
100
AcDbSpline
 70
8
 71
3
 72
8
 73
4
 74
0
 40
0
 40
0
 40
0
 40
0
 40
1
 40
1
 40
1
 40
1
 10
12.144667
 20
120.378812
 30
0.0
 10
12.088937
 20
120.412792
 30
0.0
 10
12.078917
 20
120.451542
 30
0.0
 10
12.078917
 20
120.633123
 30
0.0
  0
LWPOLYLINE
  5
2ab
100
AcDbEntity
  8
Image
 62
7
100
AcDbPolyline
 90
1
 70
1
 10
13.560071
 20
120.561475
 30
0.0
  0
SPLINE
  5
2ac
100
AcDbEntity
  8
Image
 62
7
100
AcDbSpline
 70
8
 71
3
 72
8
 73
4
 74
0
 40
0
 40
0
 40
0
 40
0
 40
1
 40
1
 40
1
 40
1
 10
12.185137
 20
120.633465
 30
0.0
 10
12.185137
 20
120.488299
 30
0.0
 10
12.187037
 20
120.472248
 30
0.0
 10
12.206387
 20
120.452893
 30
0.0
  0
SPLINE
  5
2ad
100
AcDbEntity
  8
Image
 62
7
100
AcDbSpline
 70
8
 71
3
 72
8
 73
4
 74
0
 40
0
 40
0
 40
0
 40
0
 40
1
 40
1
 40
1
 40
1
 10
12.206387
 20
120.452893
 30
0.0
 10
12.231397
 20
120.427883
 30
0.0
 10
12.288447
 20
120.424733
 30
0.0
 10
12.318542
 20
120.446693
 30
0.0
  0
SPLINE
  5
2ae
100
AcDbEntity
  8
Image
 62
7
100
AcDbSpline
 70
8
 71
3
 72
8
 73
4
 74
0
 40
0
 40
0
 40
0
 40
0
 40
1
 40
1
 40
1
 40
1
 10
12.318542
 20
120.446693
 30
0.0
 10
12.337142
 20
120.460283
 30
0.0
 10
12.339492
 20
120.477913
 30
0.0
 10
12.342562
 20
120.627265
 30
0.0
  0
LWPOLYLINE
  5
2af
100
AcDbEntity
  8
Image
 62
7
100
AcDbPolyline
 90
5
 70
0
 10
12.078917
 20
120.633123
 30
0.0
 10
12.078917
 20
120.792793
 30
0.0
 10
12.132027
 20
120.792793
 30
0.0
 10
12.185137
 20
120.792793
 30
0.0
 10
12.185137
 20
120.633465
 30
0.0
  0
SPLINE
  5
2b0
100
AcDbEntity
  8
Image
 62
7
100
AcDbSpline
 70
8
 71
3
 72
8
 73
4
 74
0
 40
0
 40
0
 40
0
 40
0
 40
1
 40
1
 40
1
 40
1
 10
12.418822
 20
120.614574
 30
0.0
 10
12.418822
 20
120.416076
 30
0.0
 10
12.414022
 20
120.399363
 30
0.0
 10
12.348732
 20
120.372096
 30
0.0
  0
SPLINE
  5
2b1
100
AcDbEntity
  8
Image
 62
7
100
AcDbSpline
 70
8
 71
3
 72
8
 73
4
 74
0
 40
0
 40
0
 40
0
 40
0
 40
1
 40
1
 40
1
 40
1
 10
12.348732
 20
120.372096
 30
0.0
 10
12.294492
 20
120.349436
 30
0.0
 10
12.187047
 20
120.352956
 30
0.0
 10
12.144669
 20
120.378796
 30
0.0
  0
LWPOLYLINE
  5
2b2
100
AcDbEntity
  8
Image
 62
7
100
AcDbPolyline
 90
5
 70
0
 10
12.342562
 20
120.627265
 30
0.0
 10
12.345962
 20
120.792783
 30
0.0
 10
12.382392
 20
120.792783
 30
0.0
 10
12.418822
 20
120.792783
 30
0.0
 10
12.418822
 20
120.614574
 30
0.0
  0
SPLINE
  5
2b3
100
AcDbEntity
  8
Image
 62
7
100
AcDbSpline
 70
8
 71
3
 72
8
 73
4
 74
0
 40
0
 40
0
 40
0
 40
0
 40
1
 40
1
 40
1
 40
1
 10
12.585045
 20
120.375312
 30
0.0
 10
12.561715
 20
120.456542
 30
0.0
 10
12.468818
 20
120.767251
 30
0.0
 10
12.464480
 20
120.778554
 30
0.0
  0
SPLINE
  5
2b4
100
AcDbEntity
  8
Image
 62
7
100
AcDbSpline
 70
8
 71
3
 72
8
 73
4
 74
0
 40
0
 40
0
 40
0
 40
0
 40
1
 40
1
 40
1
 40
1
 10
12.464480
 20
120.778554
 30
0.0
 10
12.460380
 20
120.789244
 30
0.0
 10
12.472280
 20
120.792744
 30
0.0
 10
12.512570
 20
120.792744
 30
0.0
  0
SPLINE
  5
2b5
100
AcDbEntity
  8
Image
 62
7
100
AcDbSpline
 70
8
 71
3
 72
8
 73
4
 74
0
 40
0
 40
0
 40
0
 40
0
 40
1
 40
1
 40
1
 40
1
 10
12.512570
 20
120.792744
 30
0.0
 10
12.554430
 20
120.792744
 30
0.0
 10
12.567260
 20
120.788644
 30
0.0
 10
12.571440
 20
120.774154
 30
0.0
  0
SPLINE
  5
2b6
100
AcDbEntity
  8
Image
 62
7
100
AcDbSpline
 70
8
 71
3
 72
8
 73
4
 74
0
 40
0
 40
0
 40
0
 40
0
 40
1
 40
1
 40
1
 40
1
 10
12.571440
 20
120.774154
 30
0.0
 10
12.574340
 20
120.763934
 30
0.0
 10
12.592270
 20
120.698204
 30
0.0
 10
12.611190
 20
120.628103
 30
0.0
  0
SPLINE
  5
2b7
100
AcDbEntity
  8
Image
 62
7
100
AcDbSpline
 70
8
 71
3
 72
8
 73
4
 74
0
 40
0
 40
0
 40
0
 40
0
 40
1
 40
1
 40
1
 40
1
 10
12.611190
 20
120.628103
 30
0.0
 10
12.630120
 20
120.558003
 30
0.0
 10
12.648660
 20
120.496983
 30
0.0
 10
12.652390
 20
120.492514
 30
0.0
  0
SPLINE
  5
2b8
100
AcDbEntity
  8
Image
 62
7
100
AcDbSpline
 70
8
 71
3
 72
8
 73
4
 74
0
 40
0
 40
0
 40
0
 40
0
 40
1
 40
1
 40
1
 40
1
 10
12.652390
 20
120.492514
 30
0.0
 10
12.656090
 20
120.488114
 30
0.0
 10
12.678370
 20
120.552574
 30
0.0
 10
12.701820
 20
120.635910
 30
0.0
  0
LWPOLYLINE
  5
2b9
100
AcDbEntity
  8
Image
 62
7
100
AcDbPolyline
 90
1
 70
1
 10
12.144669
 20
120.378796
 30
0.0
  0
SPLINE
  5
2ba
100
AcDbEntity
  8
Image
 62
7
100
AcDbSpline
 70
8
 71
3
 72
8
 73
4
 74
0
 40
0
 40
0
 40
0
 40
0
 40
1
 40
1
 40
1
 40
1
 10
12.784440
 20
120.790831
 30
0.0
 10
12.832540
 20
120.794931
 30
0.0
 10
12.834830
 20
120.813681
 30
0.0
 10
12.754840
 20
120.548483
 30
0.0
  0
LWPOLYLINE
  5
2bb
100
AcDbEntity
  8
Image
 62
7
100
AcDbPolyline
 90
3
 70
0
 10
12.701820
 20
120.635910
 30
0.0
 10
12.744460
 20
120.787431
 30
0.0
 10
12.784440
 20
120.790831
 30
0.0
  0
SPLINE
  5
2bc
100
AcDbEntity
  8
Image
 62
7
100
AcDbSpline
 70
8
 71
3
 72
8
 73
4
 74
0
 40
0
 40
0
 40
0
 40
0
 40
1
 40
1
 40
1
 40
1
 10
12.644640
 20
120.359400
 30
0.0
 10
12.600000
 20
120.356800
 30
0.0
 10
12.589560
 20
120.359570
 30
0.0
 10
12.585030
 20
120.375340
 30
0.0
  0
LWPOLYLINE
  5
2bd
100
AcDbEntity
  8
Image
 62
7
100
AcDbPolyline
 90
3
 70
0
 10
12.754840
 20
120.548483
 30
0.0
 10
12.698760
 20
120.362600
 30
0.0
 10
12.644640
 20
120.359400
 30
0.0
  0
LWPOLYLINE
  5
2be
100
AcDbEntity
  8
Image
 62
7
100
AcDbPolyline
 90
1
 70
1
 10
12.585030
 20
120.375340
 30
0.0
  0
LWPOLYLINE
  5
2bf
100
AcDbEntity
  8
Image
 62
7
100
AcDbPolyline
 90
8
 70
1
 10
13.034889
 20
120.574997
 30
0.0
 10
13.034889
 20
120.792746
 30
0.0
 10
13.077379
 20
120.792746
 30
0.0
 10
13.119859
 20
120.792746
 30
0.0
 10
13.119859
 20
120.574997
 30
0.0
 10
13.119859
 20
120.357248
 30
0.0
 10
13.077379
 20
120.357248
 30
0.0
 10
13.034889
 20
120.357248
 30
0.0
  0
LWPOLYLINE
  5
2c0
100
AcDbEntity
  8
Image
 62
7
100
AcDbPolyline
 90
8
 70
1
 10
13.204839
 20
120.516577
 30
0.0
 10
13.204839
 20
120.675905
 30
0.0
 10
13.252639
 20
120.675905
 30
0.0
 10
13.300439
 20
120.675905
 30
0.0
 10
13.300439
 20
120.516577
 30
0.0
 10
13.300439
 20
120.357249
 30
0.0
 10
13.252639
 20
120.357249
 30
0.0
 10
13.204839
 20
120.357249
 30
0.0
  0
SPLINE
  5
2c1
100
AcDbEntity
  8
Image
 62
7
100
AcDbSpline
 70
8
 71
3
 72
8
 73
4
 74
0
 40
0
 40
0
 40
0
 40
0
 40
1
 40
1
 40
1
 40
1
 10
13.859516
 20
120.664516
 30
0.0
 10
13.898366
 20
120.695076
 30
0.0
 10
13.953166
 20
120.693316
 30
0.0
 10
13.986028
 20
120.660416
 30
0.0
  0
SPLINE
  5
2c2
100
AcDbEntity
  8
Image
 62
7
100
AcDbSpline
 70
8
 71
3
 72
8
 73
4
 74
0
 40
0
 40
0
 40
0
 40
0
 40
1
 40
1
 40
1
 40
1
 10
13.986028
 20
120.660416
 30
0.0
 10
14.011048
 20
120.635396
 30
0.0
 10
14.012098
 20
120.628736
 30
0.0
 10
14.012098
 20
120.495776
 30
0.0
  0
LWPOLYLINE
  5
2c3
100
AcDbEntity
  8
Image
 62
7
100
AcDbPolyline
 90
7
 70
0
 10
13.746556
 20
120.574997
 30
0.0
 10
13.746556
 20
120.792746
 30
0.0
 10
13.789036
 20
120.792746
 30
0.0
 10
13.831526
 20
120.792746
 30
0.0
 10
13.831526
 20
120.717626
 30
0.0
 10
13.831526
 20
120.642506
 30
0.0
 10
13.859516
 20
120.664516
 30
0.0
  0
SPLINE
  5
2c4
100
AcDbEntity
  8
Image
 62
7
100
AcDbSpline
 70
8
 71
3
 72
8
 73
4
 74
0
 40
0
 40
0
 40
0
 40
0
 40
1
 40
1
 40
1
 40
1
 10
13.927128
 20
120.472367
 30
0.0
 10
13.927128
 20
120.573573
 30
0.0
 10
13.924628
 20
120.589866
 30
0.0
 10
13.906158
 20
120.606540
 30
0.0
  0
SPLINE
  5
2c5
100
AcDbEntity
  8
Image
 62
7
100
AcDbSpline
 70
8
 71
3
 72
8
 73
4
 74
0
 40
0
 40
0
 40
0
 40
0
 40
1
 40
1
 40
1
 40
1
 10
13.906158
 20
120.606540
 30
0.0
 10
13.886518
 20
120.624320
 30
0.0
 10
13.883478
 20
120.624400
 30
0.0
 10
13.858358
 20
120.607940
 30
0.0
  0
SPLINE
  5
2c6
100
AcDbEntity
  8
Image
 62
7
100
AcDbSpline
 70
8
 71
3
 72
8
 73
4
 74
0
 40
0
 40
0
 40
0
 40
0
 40
1
 40
1
 40
1
 40
1
 10
13.858358
 20
120.607940
 30
0.0
 10
13.832368
 20
120.590910
 30
0.0
 10
13.831528
 20
120.586730
 30
0.0
 10
13.831528
 20
120.473766
 30
0.0
  0
LWPOLYLINE
  5
2c7
100
AcDbEntity
  8
Image
 62
7
100
AcDbPolyline
 90
5
 70
0
 10
14.012098
 20
120.495776
 30
0.0
 10
14.012098
 20
120.357209
 30
0.0
 10
13.969618
 20
120.357209
 30
0.0
 10
13.927128
 20
120.357209
 30
0.0
 10
13.927128
 20
120.472367
 30
0.0
  0
SPLINE
  5
2c8
100
AcDbEntity
  8
Image
 62
7
100
AcDbSpline
 70
8
 71
3
 72
8
 73
4
 74
0
 40
0
 40
0
 40
0
 40
0
 40
1
 40
1
 40
1
 40
1
 10
14.138086
 20
120.377538
 30
0.0
 10
14.115266
 20
120.395998
 30
0.0
 10
14.112686
 20
120.407458
 30
0.0
 10
14.109356
 20
120.505001
 30
0.0
  0
SPLINE
  5
2c9
100
AcDbEntity
  8
Image
 62
7
100
AcDbSpline
 70
8
 71
3
 72
8
 73
4
 74
0
 40
0
 40
0
 40
0
 40
0
 40
1
 40
1
 40
1
 40
1
 10
14.109356
 20
120.505001
 30
0.0
 10
14.105756
 20
120.610113
 30
0.0
 10
14.105156
 20
120.612174
 30
0.0
 10
14.080146
 20
120.612174
 30
0.0
  0
SPLINE
  5
2ca
100
AcDbEntity
  8
Image
 62
7
100
AcDbSpline
 70
8
 71
3
 72
8
 73
4
 74
0
 40
0
 40
0
 40
0
 40
0
 40
1
 40
1
 40
1
 40
1
 10
14.080146
 20
120.612174
 30
0.0
 10
14.058956
 20
120.612174
 30
0.0
 10
14.054586
 20
120.617474
 30
0.0
 10
14.054586
 20
120.643334
 30
0.0
  0
SPLINE
  5
2cb
100
AcDbEntity
  8
Image
 62
7
100
AcDbSpline
 70
8
 71
3
 72
8
 73
4
 74
0
 40
0
 40
0
 40
0
 40
0
 40
1
 40
1
 40
1
 40
1
 10
14.054586
 20
120.643334
 30
0.0
 10
14.054586
 20
120.669434
 30
0.0
 10
14.059286
 20
120.675044
 30
0.0
 10
14.083796
 20
120.677854
 30
0.0
  0
SPLINE
  5
2cc
100
AcDbEntity
  8
Image
 62
7
100
AcDbSpline
 70
8
 71
3
 72
8
 73
4
 74
0
 40
0
 40
0
 40
0
 40
0
 40
1
 40
1
 40
1
 40
1
 10
14.083796
 20
120.677854
 30
0.0
 10
14.109886
 20
120.680854
 30
0.0
 10
14.113576
 20
120.686354
 30
0.0
 10
14.118316
 20
120.729014
 30
0.0
  0
SPLINE
  5
2cd
100
AcDbEntity
  8
Image
 62
7
100
AcDbSpline
 70
8
 71
3
 72
8
 73
4
 74
0
 40
0
 40
0
 40
0
 40
0
 40
1
 40
1
 40
1
 40
1
 10
14.118316
 20
120.729014
 30
0.0
 10
14.123516
 20
120.775474
 30
0.0
 10
14.124716
 20
120.776904
 30
0.0
 10
14.163456
 20
120.780114
 30
0.0
  0
LWPOLYLINE
  5
2ce
100
AcDbEntity
  8
Image
 62
7
100
AcDbPolyline
 90
5
 70
0
 10
13.831528
 20
120.473766
 30
0.0
 10
13.831528
 20
120.357171
 30
0.0
 10
13.789048
 20
120.357171
 30
0.0
 10
13.746568
 20
120.357171
 30
0.0
 10
13.746556
 20
120.574997
 30
0.0
  0
SPLINE
  5
2cf
100
AcDbEntity
  8
Image
 62
7
100
AcDbSpline
 70
8
 71
3
 72
8
 73
4
 74
0
 40
0
 40
0
 40
0
 40
0
 40
1
 40
1
 40
1
 40
1
 10
14.203286
 20
120.729664
 30
0.0
 10
14.203286
 20
120.677014
 30
0.0
 10
14.203940
 20
120.675914
 30
0.0
 10
14.235156
 20
120.675914
 30
0.0
  0
SPLINE
  5
2d0
100
AcDbEntity
  8
Image
 62
7
100
AcDbSpline
 70
8
 71
3
 72
8
 73
4
 74
0
 40
0
 40
0
 40
0
 40
0
 40
1
 40
1
 40
1
 40
1
 10
14.235156
 20
120.675914
 30
0.0
 10
14.263476
 20
120.675914
 30
0.0
 10
14.267026
 20
120.672314
 30
0.0
 10
14.267026
 20
120.644044
 30
0.0
  0
SPLINE
  5
2d1
100
AcDbEntity
  8
Image
 62
7
100
AcDbSpline
 70
8
 71
3
 72
8
 73
4
 74
0
 40
0
 40
0
 40
0
 40
0
 40
1
 40
1
 40
1
 40
1
 10
14.267026
 20
120.644044
 30
0.0
 10
14.267026
 20
120.615724
 30
0.0
 10
14.263426
 20
120.612174
 30
0.0
 10
14.235156
 20
120.612174
 30
0.0
  0
LWPOLYLINE
  5
2d2
100
AcDbEntity
  8
Image
 62
7
100
AcDbPolyline
 90
3
 70
0
 10
14.163456
 20
120.780114
 30
0.0
 10
14.203286
 20
120.783414
 30
0.0
 10
14.203286
 20
120.729664
 30
0.0
  0
SPLINE
  5
2d3
100
AcDbEntity
  8
Image
 62
7
100
AcDbSpline
 70
8
 71
3
 72
8
 73
4
 74
0
 40
0
 40
0
 40
0
 40
0
 40
1
 40
1
 40
1
 40
1
 10
14.203286
 20
120.523024
 30
0.0
 10
14.203286
 20
120.429414
 30
0.0
 10
14.207686
 20
120.420979
 30
0.0
 10
14.257266
 20
120.420979
 30
0.0
  0
SPLINE
  5
2d4
100
AcDbEntity
  8
Image
 62
7
100
AcDbSpline
 70
8
 71
3
 72
8
 73
4
 74
0
 40
0
 40
0
 40
0
 40
0
 40
1
 40
1
 40
1
 40
1
 10
14.257266
 20
120.420979
 30
0.0
 10
14.272826
 20
120.420979
 30
0.0
 10
14.277636
 20
120.413379
 30
0.0
 10
14.277636
 20
120.389109
 30
0.0
  0
SPLINE
  5
2d5
100
AcDbEntity
  8
Image
 62
7
100
AcDbSpline
 70
8
 71
3
 72
8
 73
4
 74
0
 40
0
 40
0
 40
0
 40
0
 40
1
 40
1
 40
1
 40
1
 10
14.277636
 20
120.389109
 30
0.0
 10
14.277636
 20
120.357639
 30
0.0
 10
14.276896
 20
120.357239
 30
0.0
 10
14.220396
 20
120.357239
 30
0.0
  0
SPLINE
  5
2d6
100
AcDbEntity
  8
Image
 62
7
100
AcDbSpline
 70
8
 71
3
 72
8
 73
4
 74
0
 40
0
 40
0
 40
0
 40
0
 40
1
 40
1
 40
1
 40
1
 10
14.220396
 20
120.357239
 30
0.0
 10
14.179886
 20
120.357239
 30
0.0
 10
14.155816
 20
120.363239
 30
0.0
 10
14.138076
 20
120.377529
 30
0.0
  0
LWPOLYLINE
  5
2d7
100
AcDbEntity
  8
Image
 62
7
100
AcDbPolyline
 90
3
 70
0
 10
14.235156
 20
120.612174
 30
0.0
 10
14.203286
 20
120.612174
 30
0.0
 10
14.203286
 20
120.523024
 30
0.0
  0
LWPOLYLINE
  5
2d8
100
AcDbEntity
  8
Image
 62
7
100
AcDbPolyline
 90
1
 70
1
 10
14.138076
 20
120.377529
 30
0.0
  0
LWPOLYLINE
  5
2d9
100
AcDbEntity
  8
Image
 62
7
100
AcDbPolyline
 90
8
 70
1
 10
13.204833
 20
120.760916
 30
0.0
 10
13.204833
 20
120.803400
 30
0.0
 10
13.252633
 20
120.803400
 30
0.0
 10
13.300433
 20
120.803400
 30
0.0
 10
13.300433
 20
120.760920
 30
0.0
 10
13.300433
 20
120.718430
 30
0.0
 10
13.252633
 20
120.718430
 30
0.0
 10
13.204833
 20
120.718430
 30
0.0
  0
SPLINE
  5
2da
100
AcDbEntity
  8
Image
 62
7
100
AcDbSpline
 70
8
 71
3
 72
8
 73
4
 74
0
 40
0
 40
0
 40
0
 40
0
 40
1
 40
1
 40
1
 40
1
 10
16.267955
 20
118.970458
 30
0.0
 10
16.222285
 20
118.990338
 30
0.0
 10
16.200205
 20
119.025988
 30
0.0
 10
16.200205
 20
119.079858
 30
0.0
  0
SPLINE
  5
2db
100
AcDbEntity
  8
Image
 62
7
100
AcDbSpline
 70
8
 71
3
 72
8
 73
4
 74
0
 40
0
 40
0
 40
0
 40
0
 40
1
 40
1
 40
1
 40
1
 10
16.200205
 20
119.079858
 30
0.0
 10
16.200205
 20
119.120768
 30
0.0
 10
16.266245
 20
119.239983
 30
0.0
 10
16.844635
 20
120.243246
 30
0.0
  0
SPLINE
  5
2dc
100
AcDbEntity
  8
Image
 62
7
100
AcDbSpline
 70
8
 71
3
 72
8
 73
4
 74
0
 40
0
 40
0
 40
0
 40
0
 40
1
 40
1
 40
1
 40
1
 10
16.844635
 20
120.243246
 30
0.0
 10
17.199070
 20
120.858040
 30
0.0
 10
17.498720
 20
121.371887
 30
0.0
 10
17.510521
 20
121.385130
 30
0.0
  0
SPLINE
  5
2dd
100
AcDbEntity
  8
Image
 62
7
100
AcDbSpline
 70
8
 71
3
 72
8
 73
4
 74
0
 40
0
 40
0
 40
0
 40
0
 40
1
 40
1
 40
1
 40
1
 10
17.510521
 20
121.385130
 30
0.0
 10
17.522321
 20
121.398370
 30
0.0
 10
17.549721
 20
121.414530
 30
0.0
 10
17.571411
 20
121.421020
 30
0.0
  0
SPLINE
  5
2de
100
AcDbEntity
  8
Image
 62
7
100
AcDbSpline
 70
8
 71
3
 72
8
 73
4
 74
0
 40
0
 40
0
 40
0
 40
0
 40
1
 40
1
 40
1
 40
1
 10
17.571411
 20
121.421020
 30
0.0
 10
17.637581
 20
121.440840
 30
0.0
 10
17.681625
 20
121.411120
 30
0.0
 10
17.743694
 20
121.304879
 30
0.0
  0
SPLINE
  5
2df
100
AcDbEntity
  8
Image
 62
7
100
AcDbSpline
 70
8
 71
3
 72
8
 73
4
 74
0
 40
0
 40
0
 40
0
 40
0
 40
1
 40
1
 40
1
 40
1
 10
17.743694
 20
121.304879
 30
0.0
 10
17.771974
 20
121.256459
 30
0.0
 10
18.067198
 20
120.745383
 30
0.0
 10
18.399748
 20
120.169155
 30
0.0
  0
SPLINE
  5
2e0
100
AcDbEntity
  8
Image
 62
7
100
AcDbSpline
 70
8
 71
3
 72
8
 73
4
 74
0
 40
0
 40
0
 40
0
 40
0
 40
1
 40
1
 40
1
 40
1
 10
18.399748
 20
120.169155
 30
0.0
 10
19.037879
 20
119.063428
 30
0.0
 10
19.024730
 20
119.089079
 30
0.0
 10
18.988919
 20
119.019828
 30
0.0
  0
SPLINE
  5
2e1
100
AcDbEntity
  8
Image
 62
7
100
AcDbSpline
 70
8
 71
3
 72
8
 73
4
 74
0
 40
0
 40
0
 40
0
 40
0
 40
1
 40
1
 40
1
 40
1
 10
18.988919
 20
119.019828
 30
0.0
 10
18.953559
 20
118.951458
 30
0.0
 10
19.033479
 20
118.955148
 30
0.0
 10
17.600690
 20
118.955608
 30
0.0
  0
SPLINE
  5
2e2
100
AcDbEntity
  8
Image
 62
7
100
AcDbSpline
 70
8
 71
3
 72
8
 73
4
 74
0
 40
0
 40
0
 40
0
 40
0
 40
1
 40
1
 40
1
 40
1
 10
17.600690
 20
118.955608
 30
0.0
 10
16.529650
 20
118.955950
 30
0.0
 10
16.295283
 20
118.958508
 30
0.0
 10
16.267956
 20
118.970458
 30
0.0
  0
LWPOLYLINE
  5
2e3
100
AcDbEntity
  8
Image
 62
7
100
AcDbPolyline
 90
8
 70
1
 10
19.285864
 20
120.192645
 30
0.0
 10
19.285864
 20
121.860281
 30
0.0
 10
17.602294
 20
121.860281
 30
0.0
 10
15.918725
 20
121.860281
 30
0.0
 10
15.916025
 20
120.189956
 30
0.0
 10
15.913325
 20
118.519633
 30
0.0
 10
17.599583
 20
118.522333
 30
0.0
 10
19.285841
 20
118.525033
 30
0.0
  0
SPLINE
  5
2e4
100
AcDbEntity
  8
Image
 62
7
100
AcDbSpline
 70
8
 71
3
 72
8
 73
4
 74
0
 40
0
 40
0
 40
0
 40
0
 40
1
 40
1
 40
1
 40
1
 10
18.845055
 20
119.105448
 30
0.0
 10
18.845055
 20
119.121448
 30
0.0
 10
17.610426
 20
121.260145
 30
0.0
 10
17.601190
 20
121.260145
 30
0.0
  0
SPLINE
  5
2e5
100
AcDbEntity
  8
Image
 62
7
100
AcDbSpline
 70
8
 71
3
 72
8
 73
4
 74
0
 40
0
 40
0
 40
0
 40
0
 40
1
 40
1
 40
1
 40
1
 10
17.601190
 20
121.260145
 30
0.0
 10
17.594790
 20
121.260145
 30
0.0
 10
16.348911
 20
119.108981
 30
0.0
 10
16.348911
 20
119.097923
 30
0.0
  0
SPLINE
  5
2e6
100
AcDbEntity
  8
Image
 62
7
100
AcDbSpline
 70
8
 71
3
 72
8
 73
4
 74
0
 40
0
 40
0
 40
0
 40
0
 40
1
 40
1
 40
1
 40
1
 10
16.348911
 20
119.097923
 30
0.0
 10
16.348911
 20
119.095323
 30
0.0
 10
16.910544
 20
119.093323
 30
0.0
 10
17.596984
 20
119.093323
 30
0.0
  0
SPLINE
  5
2e7
100
AcDbEntity
  8
Image
 62
7
100
AcDbSpline
 70
8
 71
3
 72
8
 73
4
 74
0
 40
0
 40
0
 40
0
 40
0
 40
1
 40
1
 40
1
 40
1
 10
17.596984
 20
119.093323
 30
0.0
 10
18.527711
 20
119.093323
 30
0.0
 10
18.845055
 20
119.096423
 30
0.0
 10
18.845055
 20
119.105493
 30
0.0
  0
LWPOLYLINE
  5
2e8
100
AcDbEntity
  8
Image
 62
7
100
AcDbPolyline
 90
1
 70
1
 10
16.267956
 20
118.970458
 30
0.0
  0
LWPOLYLINE
  5
2e9
100
AcDbEntity
  8
Image
 62
7
100
AcDbPolyline
 90
1
 70
1
 10
18.845055
 20
119.105493
 30
0.0
  0
SPLINE
  5
2ea
100
AcDbEntity
  8
Image
 62
7
100
AcDbSpline
 70
8
 71
3
 72
8
 73
4
 74
0
 40
0
 40
0
 40
0
 40
0
 40
1
 40
1
 40
1
 40
1
 10
17.407779
 20
119.421790
 30
0.0
 10
17.344089
 20
119.355030
 30
0.0
 10
17.294210
 20
119.307576
 30
0.0
 10
17.296923
 20
119.316339
 30
0.0
  0
SPLINE
  5
2eb
100
AcDbEntity
  8
Image
 62
7
100
AcDbSpline
 70
8
 71
3
 72
8
 73
4
 74
0
 40
0
 40
0
 40
0
 40
0
 40
1
 40
1
 40
1
 40
1
 10
17.296923
 20
119.316339
 30
0.0
 10
17.337163
 20
119.446326
 30
0.0
 10
17.379833
 20
119.606060
 30
0.0
 10
17.375483
 20
119.610417
 30
0.0
  0
SPLINE
  5
2ec
100
AcDbEntity
  8
Image
 62
7
100
AcDbSpline
 70
8
 71
3
 72
8
 73
4
 74
0
 40
0
 40
0
 40
0
 40
0
 40
1
 40
1
 40
1
 40
1
 10
17.375483
 20
119.610417
 30
0.0
 10
17.372383
 20
119.613517
 30
0.0
 10
17.304253
 20
119.596407
 30
0.0
 10
17.224032
 20
119.572447
 30
0.0
  0
SPLINE
  5
2ed
100
AcDbEntity
  8
Image
 62
7
100
AcDbSpline
 70
8
 71
3
 72
8
 73
4
 74
0
 40
0
 40
0
 40
0
 40
0
 40
1
 40
1
 40
1
 40
1
 10
17.224032
 20
119.572447
 30
0.0
 10
17.143812
 20
119.548487
 30
0.0
 10
17.076573
 20
119.530487
 30
0.0
 10
17.074614
 20
119.532447
 30
0.0
  0
SPLINE
  5
2ee
100
AcDbEntity
  8
Image
 62
7
100
AcDbSpline
 70
8
 71
3
 72
8
 73
4
 74
0
 40
0
 40
0
 40
0
 40
0
 40
1
 40
1
 40
1
 40
1
 10
17.074614
 20
119.532447
 30
0.0
 10
17.072614
 20
119.534447
 30
0.0
 10
17.121274
 20
119.582587
 30
0.0
 10
17.182653
 20
119.639499
 30
0.0
  0
SPLINE
  5
2ef
100
AcDbEntity
  8
Image
 62
7
100
AcDbSpline
 70
8
 71
3
 72
8
 73
4
 74
0
 40
0
 40
0
 40
0
 40
0
 40
1
 40
1
 40
1
 40
1
 10
17.182653
 20
119.639499
 30
0.0
 10
17.244033
 20
119.696419
 30
0.0
 10
17.294254
 20
119.747069
 30
0.0
 10
17.294254
 20
119.752057
 30
0.0
  0
SPLINE
  5
2f0
100
AcDbEntity
  8
Image
 62
7
100
AcDbSpline
 70
8
 71
3
 72
8
 73
4
 74
0
 40
0
 40
0
 40
0
 40
0
 40
1
 40
1
 40
1
 40
1
 10
17.294254
 20
119.752057
 30
0.0
 10
17.294254
 20
119.757057
 30
0.0
 10
17.227354
 20
119.776737
 30
0.0
 10
17.145583
 20
119.795827
 30
0.0
  0
SPLINE
  5
2f1
100
AcDbEntity
  8
Image
 62
7
100
AcDbSpline
 70
8
 71
3
 72
8
 73
4
 74
0
 40
0
 40
0
 40
0
 40
0
 40
1
 40
1
 40
1
 40
1
 10
17.145583
 20
119.795827
 30
0.0
 10
17.063813
 20
119.814917
 30
0.0
 10
17.000481
 20
119.833807
 30
0.0
 10
17.004843
 20
119.837827
 30
0.0
  0
SPLINE
  5
2f2
100
AcDbEntity
  8
Image
 62
7
100
AcDbSpline
 70
8
 71
3
 72
8
 73
4
 74
0
 40
0
 40
0
 40
0
 40
0
 40
1
 40
1
 40
1
 40
1
 10
17.004843
 20
119.837827
 30
0.0
 10
17.009243
 20
119.841827
 30
0.0
 10
17.079033
 20
119.860857
 30
0.0
 10
17.160018
 20
119.880077
 30
0.0
  0
LWPOLYLINE
  5
2f3
100
AcDbEntity
  8
Image
 62
7
100
AcDbPolyline
 90
3
 70
0
 10
17.560027
 20
119.387550
 30
0.0
 10
17.523567
 20
119.543173
 30
0.0
 10
17.407779
 20
119.421790
 30
0.0
  0
SPLINE
  5
2f4
100
AcDbEntity
  8
Image
 62
7
100
AcDbSpline
 70
8
 71
3
 72
8
 73
4
 74
0
 40
0
 40
0
 40
0
 40
0
 40
1
 40
1
 40
1
 40
1
 10
17.186572
 20
120.030732
 30
0.0
 10
17.120202
 20
120.094372
 30
0.0
 10
17.073867
 20
120.143990
 30
0.0
 10
17.083624
 20
120.140999
 30
0.0
  0
SPLINE
  5
2f5
100
AcDbEntity
  8
Image
 62
7
100
AcDbSpline
 70
8
 71
3
 72
8
 73
4
 74
0
 40
0
 40
0
 40
0
 40
0
 40
1
 40
1
 40
1
 40
1
 10
17.083624
 20
120.140999
 30
0.0
 10
17.239184
 20
120.093309
 30
0.0
 10
17.370314
 20
120.058059
 30
0.0
 10
17.374932
 20
120.062679
 30
0.0
  0
SPLINE
  5
2f6
100
AcDbEntity
  8
Image
 62
7
100
AcDbSpline
 70
8
 71
3
 72
8
 73
4
 74
0
 40
0
 40
0
 40
0
 40
0
 40
1
 40
1
 40
1
 40
1
 10
17.374932
 20
120.062679
 30
0.0
 10
17.378132
 20
120.065879
 30
0.0
 10
17.363372
 20
120.127519
 30
0.0
 10
17.342132
 20
120.199631
 30
0.0
  0
SPLINE
  5
2f7
100
AcDbEntity
  8
Image
 62
7
100
AcDbSpline
 70
8
 71
3
 72
8
 73
4
 74
0
 40
0
 40
0
 40
0
 40
0
 40
1
 40
1
 40
1
 40
1
 10
17.342132
 20
120.199631
 30
0.0
 10
17.320872
 20
120.271741
 30
0.0
 10
17.300842
 20
120.340313
 30
0.0
 10
17.297602
 20
120.351997
 30
0.0
  0
SPLINE
  5
2f8
100
AcDbEntity
  8
Image
 62
7
100
AcDbSpline
 70
8
 71
3
 72
8
 73
4
 74
0
 40
0
 40
0
 40
0
 40
0
 40
1
 40
1
 40
1
 40
1
 10
17.297602
 20
120.351997
 30
0.0
 10
17.294402
 20
120.363677
 30
0.0
 10
17.343862
 20
120.318617
 30
0.0
 10
17.407585
 20
120.251855
 30
0.0
  0
LWPOLYLINE
  5
2f9
100
AcDbEntity
  8
Image
 62
7
100
AcDbPolyline
 90
3
 70
0
 10
17.160018
 20
119.880077
 30
0.0
 10
17.307261
 20
119.915027
 30
0.0
 10
17.186572
 20
120.030732
 30
0.0
  0
SPLINE
  5
2fa
100
AcDbEntity
  8
Image
 62
7
100
AcDbSpline
 70
8
 71
3
 72
8
 73
4
 74
0
 40
0
 40
0
 40
0
 40
0
 40
1
 40
1
 40
1
 40
1
 10
17.559438
 20
120.286634
 30
0.0
 10
17.579228
 20
120.372524
 30
0.0
 10
17.598738
 20
120.439095
 30
0.0
 10
17.602798
 20
120.434572
 30
0.0
  0
SPLINE
  5
2fb
100
AcDbEntity
  8
Image
 62
7
100
AcDbSpline
 70
8
 71
3
 72
8
 73
4
 74
0
 40
0
 40
0
 40
0
 40
0
 40
1
 40
1
 40
1
 40
1
 10
17.602798
 20
120.434572
 30
0.0
 10
17.606898
 20
120.430072
 30
0.0
 10
17.625728
 20
120.359652
 30
0.0
 10
17.644738
 20
120.278124
 30
0.0
  0
LWPOLYLINE
  5
2fc
100
AcDbEntity
  8
Image
 62
7
100
AcDbPolyline
 90
3
 70
0
 10
17.407585
 20
120.251855
 30
0.0
 10
17.523458
 20
120.130470
 30
0.0
 10
17.559438
 20
120.286634
 30
0.0
  0
SPLINE
  5
2fd
100
AcDbEntity
  8
Image
 62
7
100
AcDbSpline
 70
8
 71
3
 72
8
 73
4
 74
0
 40
0
 40
0
 40
0
 40
0
 40
1
 40
1
 40
1
 40
1
 10
17.795658
 20
120.251569
 30
0.0
 10
17.859658
 20
120.318489
 30
0.0
 10
17.909433
 20
120.364958
 30
0.0
 10
17.906273
 20
120.354835
 30
0.0
  0
SPLINE
  5
2fe
100
AcDbEntity
  8
Image
 62
7
100
AcDbSpline
 70
8
 71
3
 72
8
 73
4
 74
0
 40
0
 40
0
 40
0
 40
0
 40
1
 40
1
 40
1
 40
1
 10
17.906273
 20
120.354835
 30
0.0
 10
17.859633
 20
120.205412
 30
0.0
 10
17.823133
 20
120.069211
 30
0.0
 10
17.828333
 20
120.064014
 30
0.0
  0
SPLINE
  5
2ff
100
AcDbEntity
  8
Image
 62
7
100
AcDbSpline
 70
8
 71
3
 72
8
 73
4
 74
0
 40
0
 40
0
 40
0
 40
0
 40
1
 40
1
 40
1
 40
1
 10
17.828333
 20
120.064014
 30
0.0
 10
17.831933
 20
120.060414
 30
0.0
 10
17.893693
 20
120.074984
 30
0.0
 10
17.965563
 20
120.096404
 30
0.0
  0
SPLINE
  5
300
100
AcDbEntity
  8
Image
 62
7
100
AcDbSpline
 70
8
 71
3
 72
8
 73
4
 74
0
 40
0
 40
0
 40
0
 40
0
 40
1
 40
1
 40
1
 40
1
 10
17.965563
 20
120.096404
 30
0.0
 10
18.037423
 20
120.117834
 30
0.0
 10
18.105789
 20
120.137994
 30
0.0
 10
18.117473
 20
120.141204
 30
0.0
  0
SPLINE
  5
301
100
AcDbEntity
  8
Image
 62
7
100
AcDbSpline
 70
8
 71
3
 72
8
 73
4
 74
0
 40
0
 40
0
 40
0
 40
0
 40
1
 40
1
 40
1
 40
1
 10
18.117473
 20
120.141204
 30
0.0
 10
18.129153
 20
120.144404
 30
0.0
 10
18.084203
 20
120.095104
 30
0.0
 10
18.017583
 20
120.031633
 30
0.0
  0
LWPOLYLINE
  5
302
100
AcDbEntity
  8
Image
 62
7
100
AcDbPolyline
 90
3
 70
0
 10
17.644738
 20
120.278124
 30
0.0
 10
17.679298
 20
120.129899
 30
0.0
 10
17.795658
 20
120.251569
 30
0.0
  0
SPLINE
  5
303
100
AcDbEntity
  8
Image
 62
7
100
AcDbSpline
 70
8
 71
3
 72
8
 73
4
 74
0
 40
0
 40
0
 40
0
 40
0
 40
1
 40
1
 40
1
 40
1
 10
18.046792
 20
119.879716
 30
0.0
 10
18.129482
 20
119.859636
 30
0.0
 10
18.197136
 20
119.840226
 30
0.0
 10
18.197136
 20
119.836596
 30
0.0
  0
SPLINE
  5
304
100
AcDbEntity
  8
Image
 62
7
100
AcDbSpline
 70
8
 71
3
 72
8
 73
4
 74
0
 40
0
 40
0
 40
0
 40
0
 40
1
 40
1
 40
1
 40
1
 10
18.197136
 20
119.836596
 30
0.0
 10
18.197136
 20
119.832996
 30
0.0
 10
18.129256
 20
119.813886
 30
0.0
 10
18.046290
 20
119.794196
 30
0.0
  0
LWPOLYLINE
  5
305
100
AcDbEntity
  8
Image
 62
7
100
AcDbPolyline
 90
3
 70
0
 10
18.017583
 20
120.031633
 30
0.0
 10
17.896448
 20
119.916226
 30
0.0
 10
18.046792
 20
119.879716
 30
0.0
  0
SPLINE
  5
306
100
AcDbEntity
  8
Image
 62
7
100
AcDbSpline
 70
8
 71
3
 72
8
 73
4
 74
0
 40
0
 40
0
 40
0
 40
0
 40
1
 40
1
 40
1
 40
1
 10
18.017079
 20
119.642324
 30
0.0
 10
18.083979
 20
119.578464
 30
0.0
 10
18.131546
 20
119.528516
 30
0.0
 10
18.122782
 20
119.531310
 30
0.0
  0
SPLINE
  5
307
100
AcDbEntity
  8
Image
 62
7
100
AcDbSpline
 70
8
 71
3
 72
8
 73
4
 74
0
 40
0
 40
0
 40
0
 40
0
 40
1
 40
1
 40
1
 40
1
 10
18.122782
 20
119.531310
 30
0.0
 10
18.015553
 20
119.565490
 30
0.0
 10
17.833058
 20
119.614370
 30
0.0
 10
17.828750
 20
119.610060
 30
0.0
  0
SPLINE
  5
308
100
AcDbEntity
  8
Image
 62
7
100
AcDbSpline
 70
8
 71
3
 72
8
 73
4
 74
0
 40
0
 40
0
 40
0
 40
0
 40
1
 40
1
 40
1
 40
1
 10
17.828750
 20
119.610060
 30
0.0
 10
17.824350
 20
119.605760
 30
0.0
 10
17.865820
 20
119.451203
 30
0.0
 10
17.907450
 20
119.316349
 30
0.0
  0
SPLINE
  5
309
100
AcDbEntity
  8
Image
 62
7
100
AcDbSpline
 70
8
 71
3
 72
8
 73
4
 74
0
 40
0
 40
0
 40
0
 40
0
 40
1
 40
1
 40
1
 40
1
 10
17.907450
 20
119.316349
 30
0.0
 10
17.910150
 20
119.307649
 30
0.0
 10
17.860500
 20
119.354789
 30
0.0
 10
17.797096
 20
119.421230
 30
0.0
  0
LWPOLYLINE
  5
30a
100
AcDbEntity
  8
Image
 62
7
100
AcDbPolyline
 90
3
 70
0
 10
18.046290
 20
119.794196
 30
0.0
 10
17.895442
 20
119.758416
 30
0.0
 10
18.017079
 20
119.642324
 30
0.0
  0
SPLINE
  5
30b
100
AcDbEntity
  8
Image
 62
7
100
AcDbSpline
 70
8
 71
3
 72
8
 73
4
 74
0
 40
0
 40
0
 40
0
 40
0
 40
1
 40
1
 40
1
 40
1
 10
17.646056
 20
119.394675
 30
0.0
 10
17.626386
 20
119.313625
 30
0.0
 10
17.607186
 20
119.243849
 30
0.0
 10
17.603396
 20
119.239623
 30
0.0
  0
SPLINE
  5
30c
100
AcDbEntity
  8
Image
 62
7
100
AcDbSpline
 70
8
 71
3
 72
8
 73
4
 74
0
 40
0
 40
0
 40
0
 40
0
 40
1
 40
1
 40
1
 40
1
 10
17.603396
 20
119.239623
 30
0.0
 10
17.599596
 20
119.235323
 30
0.0
 10
17.580096
 20
119.301963
 30
0.0
 10
17.560046
 20
119.387561
 30
0.0
  0
LWPOLYLINE
  5
30d
100
AcDbEntity
  8
Image
 62
7
100
AcDbPolyline
 90
3
 70
0
 10
17.797096
 20
119.421230
 30
0.0
 10
17.681826
 20
119.542043
 30
0.0
 10
17.646056
 20
119.394675
 30
0.0
  0
SPLINE
  5
30e
100
AcDbEntity
  8
Image
 62
7
100
AcDbSpline
 70
8
 71
3
 72
8
 73
4
 74
0
 40
0
 40
0
 40
0
 40
0
 40
1
 40
1
 40
1
 40
1
 10
17.622097
 20
119.477720
 30
0.0
 10
17.639557
 20
119.549890
 30
0.0
 10
17.638177
 20
119.555330
 30
0.0
 10
17.602287
 20
119.555330
 30
0.0
  0
SPLINE
  5
30f
100
AcDbEntity
  8
Image
 62
7
100
AcDbSpline
 70
8
 71
3
 72
8
 73
4
 74
0
 40
0
 40
0
 40
0
 40
0
 40
1
 40
1
 40
1
 40
1
 10
17.602287
 20
119.555330
 30
0.0
 10
17.566187
 20
119.555330
 30
0.0
 10
17.565977
 20
119.554458
 30
0.0
 10
17.582627
 20
119.471580
 30
0.0
  0
SPLINE
  5
310
100
AcDbEntity
  8
Image
 62
7
100
AcDbSpline
 70
8
 71
3
 72
8
 73
4
 74
0
 40
0
 40
0
 40
0
 40
0
 40
1
 40
1
 40
1
 40
1
 10
17.582627
 20
119.471580
 30
0.0
 10
17.596277
 20
119.403610
 30
0.0
 10
17.604457
 20
119.404890
 30
0.0
 10
17.622097
 20
119.477680
 30
0.0
  0
LWPOLYLINE
  5
311
100
AcDbEntity
  8
Image
 62
7
100
AcDbPolyline
 90
1
 70
1
 10
17.560046
 20
119.387561
 30
0.0
  0
SPLINE
  5
312
100
AcDbEntity
  8
Image
 62
7
100
AcDbSpline
 70
8
 71
3
 72
8
 73
4
 74
0
 40
0
 40
0
 40
0
 40
0
 40
1
 40
1
 40
1
 40
1
 10
17.448336
 20
119.526480
 30
0.0
 10
17.486916
 20
119.570110
 30
0.0
 10
17.487736
 20
119.572600
 30
0.0
 10
17.468416
 20
119.587220
 30
0.0
  0
SPLINE
  5
313
100
AcDbEntity
  8
Image
 62
7
100
AcDbSpline
 70
8
 71
3
 72
8
 73
4
 74
0
 40
0
 40
0
 40
0
 40
0
 40
1
 40
1
 40
1
 40
1
 10
17.468416
 20
119.587220
 30
0.0
 10
17.435536
 20
119.612110
 30
0.0
 10
17.426516
 20
119.606050
 30
0.0
 10
17.407726
 20
119.546440
 30
0.0
  0
SPLINE
  5
314
100
AcDbEntity
  8
Image
 62
7
100
AcDbSpline
 70
8
 71
3
 72
8
 73
4
 74
0
 40
0
 40
0
 40
0
 40
0
 40
1
 40
1
 40
1
 40
1
 10
17.407726
 20
119.546440
 30
0.0
 10
17.387996
 20
119.483830
 30
0.0
 10
17.384656
 20
119.455060
 30
0.0
 10
17.399026
 20
119.470890
 30
0.0
  0
SPLINE
  5
315
100
AcDbEntity
  8
Image
 62
7
100
AcDbSpline
 70
8
 71
3
 72
8
 73
4
 74
0
 40
0
 40
0
 40
0
 40
0
 40
1
 40
1
 40
1
 40
1
 10
17.399026
 20
119.470890
 30
0.0
 10
17.404026
 20
119.476390
 30
0.0
 10
17.426256
 20
119.501450
 30
0.0
 10
17.448376
 20
119.526470
 30
0.0
  0
LWPOLYLINE
  5
316
100
AcDbEntity
  8
Image
 62
7
100
AcDbPolyline
 90
1
 70
1
 10
17.622097
 20
119.477680
 30
0.0
  0
SPLINE
  5
317
100
AcDbEntity
  8
Image
 62
7
100
AcDbSpline
 70
8
 71
3
 72
8
 73
4
 74
0
 40
0
 40
0
 40
0
 40
0
 40
1
 40
1
 40
1
 40
1
 10
17.798219
 20
119.538460
 30
0.0
 10
17.779489
 20
119.605220
 30
0.0
 10
17.769159
 20
119.613450
 30
0.0
 10
17.735249
 20
119.588660
 30
0.0
  0
SPLINE
  5
318
100
AcDbEntity
  8
Image
 62
7
100
AcDbSpline
 70
8
 71
3
 72
8
 73
4
 74
0
 40
0
 40
0
 40
0
 40
0
 40
1
 40
1
 40
1
 40
1
 10
17.735249
 20
119.588660
 30
0.0
 10
17.716479
 20
119.574940
 30
0.0
 10
17.717859
 20
119.571300
 30
0.0
 10
17.761489
 20
119.519560
 30
0.0
  0
SPLINE
  5
319
100
AcDbEntity
  8
Image
 62
7
100
AcDbSpline
 70
8
 71
3
 72
8
 73
4
 74
0
 40
0
 40
0
 40
0
 40
0
 40
1
 40
1
 40
1
 40
1
 10
17.761489
 20
119.519560
 30
0.0
 10
17.786819
 20
119.489520
 30
0.0
 10
17.809529
 20
119.466930
 30
0.0
 10
17.811959
 20
119.469360
 30
0.0
  0
SPLINE
  5
31a
100
AcDbEntity
  8
Image
 62
7
100
AcDbSpline
 70
8
 71
3
 72
8
 73
4
 74
0
 40
0
 40
0
 40
0
 40
0
 40
1
 40
1
 40
1
 40
1
 10
17.811959
 20
119.469360
 30
0.0
 10
17.814359
 20
119.471760
 30
0.0
 10
17.808259
 20
119.502880
 30
0.0
 10
17.798229
 20
119.538460
 30
0.0
  0
LWPOLYLINE
  5
31b
100
AcDbEntity
  8
Image
 62
7
100
AcDbPolyline
 90
1
 70
1
 10
17.448376
 20
119.526470
 30
0.0
  0
SPLINE
  5
31c
100
AcDbEntity
  8
Image
 62
7
100
AcDbSpline
 70
8
 71
3
 72
8
 73
4
 74
0
 40
0
 40
0
 40
0
 40
0
 40
1
 40
1
 40
1
 40
1
 10
17.708269
 20
119.624440
 30
0.0
 10
17.789919
 20
119.666460
 30
0.0
 10
17.836948
 20
119.743602
 30
0.0
 10
17.837391
 20
119.836265
 30
0.0
  0
SPLINE
  5
31d
100
AcDbEntity
  8
Image
 62
7
100
AcDbSpline
 70
8
 71
3
 72
8
 73
4
 74
0
 40
0
 40
0
 40
0
 40
0
 40
1
 40
1
 40
1
 40
1
 10
17.837391
 20
119.836265
 30
0.0
 10
17.838370
 20
120.049656
 30
0.0
 10
17.584355
 20
120.156294
 30
0.0
 10
17.433750
 20
120.005690
 30
0.0
  0
SPLINE
  5
31e
100
AcDbEntity
  8
Image
 62
7
100
AcDbSpline
 70
8
 71
3
 72
8
 73
4
 74
0
 40
0
 40
0
 40
0
 40
0
 40
1
 40
1
 40
1
 40
1
 10
17.433750
 20
120.005690
 30
0.0
 10
17.392870
 20
119.964810
 30
0.0
 10
17.358000
 20
119.887086
 30
0.0
 10
17.358000
 20
119.836838
 30
0.0
  0
SPLINE
  5
31f
100
AcDbEntity
  8
Image
 62
7
100
AcDbSpline
 70
8
 71
3
 72
8
 73
4
 74
0
 40
0
 40
0
 40
0
 40
0
 40
1
 40
1
 40
1
 40
1
 10
17.358000
 20
119.836838
 30
0.0
 10
17.358000
 20
119.827238
 30
0.0
 10
17.365200
 20
119.795218
 30
0.0
 10
17.373990
 20
119.765608
 30
0.0
  0
SPLINE
  5
320
100
AcDbEntity
  8
Image
 62
7
100
AcDbSpline
 70
8
 71
3
 72
8
 73
4
 74
0
 40
0
 40
0
 40
0
 40
0
 40
1
 40
1
 40
1
 40
1
 10
17.373990
 20
119.765608
 30
0.0
 10
17.415460
 20
119.625965
 30
0.0
 10
17.577915
 20
119.557360
 30
0.0
 10
17.708273
 20
119.624442
 30
0.0
  0
LWPOLYLINE
  5
321
100
AcDbEntity
  8
Image
 62
7
100
AcDbPolyline
 90
1
 70
1
 10
17.798229
 20
119.538460
 30
0.0
  0
SPLINE
  5
322
100
AcDbEntity
  8
Image
 62
7
100
AcDbSpline
 70
8
 71
3
 72
8
 73
4
 74
0
 40
0
 40
0
 40
0
 40
0
 40
1
 40
1
 40
1
 40
1
 10
17.447799
 20
119.756691
 30
0.0
 10
17.425049
 20
119.779441
 30
0.0
 10
17.421719
 20
119.792301
 30
0.0
 10
17.421719
 20
119.857598
 30
0.0
  0
SPLINE
  5
323
100
AcDbEntity
  8
Image
 62
7
100
AcDbSpline
 70
8
 71
3
 72
8
 73
4
 74
0
 40
0
 40
0
 40
0
 40
0
 40
1
 40
1
 40
1
 40
1
 10
17.421719
 20
119.857598
 30
0.0
 10
17.421719
 20
119.925348
 30
0.0
 10
17.423719
 20
119.932428
 30
0.0
 10
17.442969
 20
119.932428
 30
0.0
  0
SPLINE
  5
324
100
AcDbEntity
  8
Image
 62
7
100
AcDbSpline
 70
8
 71
3
 72
8
 73
4
 74
0
 40
0
 40
0
 40
0
 40
0
 40
1
 40
1
 40
1
 40
1
 10
17.442969
 20
119.932428
 30
0.0
 10
17.462149
 20
119.932428
 30
0.0
 10
17.464219
 20
119.925328
 30
0.0
 10
17.464219
 20
119.859368
 30
0.0
  0
SPLINE
  5
325
100
AcDbEntity
  8
Image
 62
7
100
AcDbSpline
 70
8
 71
3
 72
8
 73
4
 74
0
 40
0
 40
0
 40
0
 40
0
 40
1
 40
1
 40
1
 40
1
 10
17.464219
 20
119.859368
 30
0.0
 10
17.464219
 20
119.777448
 30
0.0
 10
17.477969
 20
119.755620
 30
0.0
 10
17.522509
 20
119.766798
 30
0.0
  0
SPLINE
  5
326
100
AcDbEntity
  8
Image
 62
7
100
AcDbSpline
 70
8
 71
3
 72
8
 73
4
 74
0
 40
0
 40
0
 40
0
 40
0
 40
1
 40
1
 40
1
 40
1
 10
17.522509
 20
119.766798
 30
0.0
 10
17.548039
 20
119.773198
 30
0.0
 10
17.549199
 20
119.776948
 30
0.0
 10
17.549199
 20
119.852958
 30
0.0
  0
SPLINE
  5
327
100
AcDbEntity
  8
Image
 62
7
100
AcDbSpline
 70
8
 71
3
 72
8
 73
4
 74
0
 40
0
 40
0
 40
0
 40
0
 40
1
 40
1
 40
1
 40
1
 10
17.549199
 20
119.852958
 30
0.0
 10
17.549199
 20
119.925338
 30
0.0
 10
17.551099
 20
119.932418
 30
0.0
 10
17.570449
 20
119.932418
 30
0.0
  0
SPLINE
  5
328
100
AcDbEntity
  8
Image
 62
7
100
AcDbSpline
 70
8
 71
3
 72
8
 73
4
 74
0
 40
0
 40
0
 40
0
 40
0
 40
1
 40
1
 40
1
 40
1
 10
17.570449
 20
119.932418
 30
0.0
 10
17.589779
 20
119.932418
 30
0.0
 10
17.591699
 20
119.925318
 30
0.0
 10
17.591699
 20
119.853528
 30
0.0
  0
SPLINE
  5
329
100
AcDbEntity
  8
Image
 62
7
100
AcDbSpline
 70
8
 71
3
 72
8
 73
4
 74
0
 40
0
 40
0
 40
0
 40
0
 40
1
 40
1
 40
1
 40
1
 10
17.591699
 20
119.853528
 30
0.0
 10
17.591699
 20
119.780948
 30
0.0
 10
17.589499
 20
119.772878
 30
0.0
 10
17.563709
 20
119.752621
 30
0.0
  0
SPLINE
  5
32a
100
AcDbEntity
  8
Image
 62
7
100
AcDbSpline
 70
8
 71
3
 72
8
 73
4
 74
0
 40
0
 40
0
 40
0
 40
0
 40
1
 40
1
 40
1
 40
1
 10
17.563709
 20
119.752621
 30
0.0
 10
17.525829
 20
119.722821
 30
0.0
 10
17.480079
 20
119.724421
 30
0.0
 10
17.447818
 20
119.756721
 30
0.0
  0
LWPOLYLINE
  5
32b
100
AcDbEntity
  8
Image
 62
7
100
AcDbPolyline
 90
1
 70
1
 10
17.708273
 20
119.624442
 30
0.0
  0
SPLINE
  5
32c
100
AcDbEntity
  8
Image
 62
7
100
AcDbSpline
 70
8
 71
3
 72
8
 73
4
 74
0
 40
0
 40
0
 40
0
 40
0
 40
1
 40
1
 40
1
 40
1
 10
17.650970
 20
119.823601
 30
0.0
 10
17.618800
 20
119.920191
 30
0.0
 10
17.617440
 20
119.935182
 30
0.0
 10
17.641270
 20
119.930563
 30
0.0
  0
SPLINE
  5
32d
100
AcDbEntity
  8
Image
 62
7
100
AcDbSpline
 70
8
 71
3
 72
8
 73
4
 74
0
 40
0
 40
0
 40
0
 40
0
 40
1
 40
1
 40
1
 40
1
 10
17.641270
 20
119.930563
 30
0.0
 10
17.652400
 20
119.928463
 30
0.0
 10
17.667610
 20
119.901523
 30
0.0
 10
17.682290
 20
119.858083
 30
0.0
  0
LWPOLYLINE
  5
32e
100
AcDbEntity
  8
Image
 62
7
100
AcDbPolyline
 90
1
 70
1
 10
17.447818
 20
119.756721
 30
0.0
  0
SPLINE
  5
32f
100
AcDbEntity
  8
Image
 62
7
100
AcDbSpline
 70
8
 71
3
 72
8
 73
4
 74
0
 40
0
 40
0
 40
0
 40
0
 40
1
 40
1
 40
1
 40
1
 10
17.727020
 20
119.858083
 30
0.0
 10
17.743450
 20
119.911083
 30
0.0
 10
17.753540
 20
119.927903
 30
0.0
 10
17.770460
 20
119.930453
 30
0.0
  0
SPLINE
  5
330
100
AcDbEntity
  8
Image
 62
7
100
AcDbSpline
 70
8
 71
3
 72
8
 73
4
 74
0
 40
0
 40
0
 40
0
 40
0
 40
1
 40
1
 40
1
 40
1
 10
17.770460
 20
119.930453
 30
0.0
 10
17.791830
 20
119.933653
 30
0.0
 10
17.791530
 20
119.930932
 30
0.0
 10
17.760200
 20
119.837513
 30
0.0
  0
SPLINE
  5
331
100
AcDbEntity
  8
Image
 62
7
100
AcDbSpline
 70
8
 71
3
 72
8
 73
4
 74
0
 40
0
 40
0
 40
0
 40
0
 40
1
 40
1
 40
1
 40
1
 10
17.760200
 20
119.837513
 30
0.0
 10
17.731870
 20
119.753043
 30
0.0
 10
17.724890
 20
119.741243
 30
0.0
 10
17.703180
 20
119.741243
 30
0.0
  0
SPLINE
  5
332
100
AcDbEntity
  8
Image
 62
7
100
AcDbSpline
 70
8
 71
3
 72
8
 73
4
 74
0
 40
0
 40
0
 40
0
 40
0
 40
1
 40
1
 40
1
 40
1
 10
17.703180
 20
119.741243
 30
0.0
 10
17.681760
 20
119.741243
 30
0.0
 10
17.674760
 20
119.752303
 30
0.0
 10
17.651030
 20
119.823593
 30
0.0
  0
LWPOLYLINE
  5
333
100
AcDbEntity
  8
Image
 62
7
100
AcDbPolyline
 90
3
 70
0
 10
17.682290
 20
119.858083
 30
0.0
 10
17.705610
 20
119.789043
 30
0.0
 10
17.727020
 20
119.858083
 30
0.0
  0
SPLINE
  5
334
100
AcDbEntity
  8
Image
 62
7
100
AcDbSpline
 70
8
 71
3
 72
8
 73
4
 74
0
 40
0
 40
0
 40
0
 40
0
 40
1
 40
1
 40
1
 40
1
 10
17.311919
 20
119.642277
 30
0.0
 10
17.371519
 20
119.661067
 30
0.0
 10
17.377589
 20
119.670087
 30
0.0
 10
17.352699
 20
119.702967
 30
0.0
  0
SPLINE
  5
335
100
AcDbEntity
  8
Image
 62
7
100
AcDbSpline
 70
8
 71
3
 72
8
 73
4
 74
0
 40
0
 40
0
 40
0
 40
0
 40
1
 40
1
 40
1
 40
1
 10
17.352699
 20
119.702967
 30
0.0
 10
17.336649
 20
119.724177
 30
0.0
 10
17.336509
 20
119.724087
 30
0.0
 10
17.236378
 20
119.633527
 30
0.0
  0
SPLINE
  5
336
100
AcDbEntity
  8
Image
 62
7
100
AcDbSpline
 70
8
 71
3
 72
8
 73
4
 74
0
 40
0
 40
0
 40
0
 40
0
 40
1
 40
1
 40
1
 40
1
 10
17.236378
 20
119.633527
 30
0.0
 10
17.220538
 20
119.619207
 30
0.0
 10
17.249318
 20
119.622537
 30
0.0
 10
17.311928
 20
119.642227
 30
0.0
  0
LWPOLYLINE
  5
337
100
AcDbEntity
  8
Image
 62
7
100
AcDbPolyline
 90
1
 70
1
 10
17.651030
 20
119.823593
 30
0.0
  0
SPLINE
  5
338
100
AcDbEntity
  8
Image
 62
7
100
AcDbSpline
 70
8
 71
3
 72
8
 73
4
 74
0
 40
0
 40
0
 40
0
 40
0
 40
1
 40
1
 40
1
 40
1
 10
17.919041
 20
119.676527
 30
0.0
 10
17.859261
 20
119.731667
 30
0.0
 10
17.855701
 20
119.731507
 30
0.0
 10
17.834371
 20
119.672527
 30
0.0
  0
SPLINE
  5
339
100
AcDbEntity
  8
Image
 62
7
100
AcDbSpline
 70
8
 71
3
 72
8
 73
4
 74
0
 40
0
 40
0
 40
0
 40
0
 40
1
 40
1
 40
1
 40
1
 10
17.834371
 20
119.672527
 30
0.0
 10
17.830971
 20
119.663127
 30
0.0
 10
17.928931
 20
119.626507
 30
0.0
 10
17.961522
 20
119.624997
 30
0.0
  0
SPLINE
  5
33a
100
AcDbEntity
  8
Image
 62
7
100
AcDbSpline
 70
8
 71
3
 72
8
 73
4
 74
0
 40
0
 40
0
 40
0
 40
0
 40
1
 40
1
 40
1
 40
1
 10
17.961522
 20
119.624997
 30
0.0
 10
17.969222
 20
119.624640
 30
0.0
 10
17.950112
 20
119.647807
 30
0.0
 10
17.919042
 20
119.676467
 30
0.0
  0
LWPOLYLINE
  5
33b
100
AcDbEntity
  8
Image
 62
7
100
AcDbPolyline
 90
1
 70
1
 10
17.311928
 20
119.642227
 30
0.0
  0
SPLINE
  5
33c
100
AcDbEntity
  8
Image
 62
7
100
AcDbSpline
 70
8
 71
3
 72
8
 73
4
 74
0
 40
0
 40
0
 40
0
 40
0
 40
1
 40
1
 40
1
 40
1
 10
17.311519
 20
119.865614
 30
0.0
 10
17.305819
 20
119.871314
 30
0.0
 10
17.201413
 20
119.849344
 30
0.0
 10
17.182909
 20
119.838594
 30
0.0
  0
SPLINE
  5
33d
100
AcDbEntity
  8
Image
 62
7
100
AcDbSpline
 70
8
 71
3
 72
8
 73
4
 74
0
 40
0
 40
0
 40
0
 40
0
 40
1
 40
1
 40
1
 40
1
 10
17.182909
 20
119.838594
 30
0.0
 10
17.177109
 20
119.835194
 30
0.0
 10
17.203449
 20
119.824844
 30
0.0
 10
17.241329
 20
119.815474
 30
0.0
  0
LWPOLYLINE
  5
33e
100
AcDbEntity
  8
Image
 62
7
100
AcDbPolyline
 90
1
 70
1
 10
17.919042
 20
119.676467
 30
0.0
  0
SPLINE
  5
33f
100
AcDbEntity
  8
Image
 62
7
100
AcDbSpline
 70
8
 71
3
 72
8
 73
4
 74
0
 40
0
 40
0
 40
0
 40
0
 40
1
 40
1
 40
1
 40
1
 10
17.313589
 20
119.829274
 30
0.0
 10
17.315489
 20
119.846244
 30
0.0
 10
17.314478
 20
119.862594
 30
0.0
 10
17.311489
 20
119.865624
 30
0.0
  0
LWPOLYLINE
  5
340
100
AcDbEntity
  8
Image
 62
7
100
AcDbPolyline
 90
3
 70
0
 10
17.241329
 20
119.815474
 30
0.0
 10
17.310189
 20
119.798414
 30
0.0
 10
17.313589
 20
119.829274
 30
0.0
  0
SPLINE
  5
341
100
AcDbEntity
  8
Image
 62
7
100
AcDbSpline
 70
8
 71
3
 72
8
 73
4
 74
0
 40
0
 40
0
 40
0
 40
0
 40
1
 40
1
 40
1
 40
1
 10
17.958132
 20
119.816234
 30
0.0
 10
18.032652
 20
119.835774
 30
0.0
 10
18.034042
 20
119.839044
 30
0.0
 10
17.974072
 20
119.853614
 30
0.0
  0
SPLINE
  5
342
100
AcDbEntity
  8
Image
 62
7
100
AcDbSpline
 70
8
 71
3
 72
8
 73
4
 74
0
 40
0
 40
0
 40
0
 40
0
 40
1
 40
1
 40
1
 40
1
 10
17.974072
 20
119.853614
 30
0.0
 10
17.886002
 20
119.875004
 30
0.0
 10
17.878472
 20
119.873674
 30
0.0
 10
17.878472
 20
119.836834
 30
0.0
  0
SPLINE
  5
343
100
AcDbEntity
  8
Image
 62
7
100
AcDbSpline
 70
8
 71
3
 72
8
 73
4
 74
0
 40
0
 40
0
 40
0
 40
0
 40
1
 40
1
 40
1
 40
1
 10
17.878472
 20
119.836834
 30
0.0
 10
17.878472
 20
119.800894
 30
0.0
 10
17.889142
 20
119.798134
 30
0.0
 10
17.958142
 20
119.816224
 30
0.0
  0
LWPOLYLINE
  5
344
100
AcDbEntity
  8
Image
 62
7
100
AcDbPolyline
 90
1
 70
1
 10
17.311489
 20
119.865624
 30
0.0
  0
SPLINE
  5
345
100
AcDbEntity
  8
Image
 62
7
100
AcDbSpline
 70
8
 71
3
 72
8
 73
4
 74
0
 40
0
 40
0
 40
0
 40
0
 40
1
 40
1
 40
1
 40
1
 10
17.353831
 20
119.972267
 30
0.0
 10
17.361531
 20
119.982487
 30
0.0
 10
17.368091
 20
119.996047
 30
0.0
 10
17.368281
 20
120.002397
 30
0.0
  0
SPLINE
  5
346
100
AcDbEntity
  8
Image
 62
7
100
AcDbSpline
 70
8
 71
3
 72
8
 73
4
 74
0
 40
0
 40
0
 40
0
 40
0
 40
1
 40
1
 40
1
 40
1
 10
17.368281
 20
120.002397
 30
0.0
 10
17.368613
 20
120.013767
 30
0.0
 10
17.242669
 20
120.054337
 30
0.0
 10
17.233987
 20
120.045657
 30
0.0
  0
SPLINE
  5
347
100
AcDbEntity
  8
Image
 62
7
100
AcDbSpline
 70
8
 71
3
 72
8
 73
4
 74
0
 40
0
 40
0
 40
0
 40
0
 40
1
 40
1
 40
1
 40
1
 10
17.233987
 20
120.045657
 30
0.0
 10
17.229787
 20
120.041457
 30
0.0
 10
17.326597
 20
119.953907
 30
0.0
 10
17.335582
 20
119.953757
 30
0.0
  0
SPLINE
  5
348
100
AcDbEntity
  8
Image
 62
7
100
AcDbSpline
 70
8
 71
3
 72
8
 73
4
 74
0
 40
0
 40
0
 40
0
 40
0
 40
1
 40
1
 40
1
 40
1
 10
17.335582
 20
119.953757
 30
0.0
 10
17.337782
 20
119.953720
 30
0.0
 10
17.346072
 20
119.962057
 30
0.0
 10
17.353832
 20
119.972277
 30
0.0
  0
LWPOLYLINE
  5
349
100
AcDbEntity
  8
Image
 62
7
100
AcDbPolyline
 90
1
 70
1
 10
17.958142
 20
119.816224
 30
0.0
  0
SPLINE
  5
34a
100
AcDbEntity
  8
Image
 62
7
100
AcDbSpline
 70
8
 71
3
 72
8
 73
4
 74
0
 40
0
 40
0
 40
0
 40
0
 40
1
 40
1
 40
1
 40
1
 10
17.920956
 20
120.001477
 30
0.0
 10
17.946756
 20
120.027767
 30
0.0
 10
17.963706
 20
120.049277
 30
0.0
 10
17.958616
 20
120.049277
 30
0.0
  0
SPLINE
  5
34b
100
AcDbEntity
  8
Image
 62
7
100
AcDbSpline
 70
8
 71
3
 72
8
 73
4
 74
0
 40
0
 40
0
 40
0
 40
0
 40
1
 40
1
 40
1
 40
1
 10
17.958616
 20
120.049277
 30
0.0
 10
17.949716
 20
120.049277
 30
0.0
 10
17.834361
 20
120.015607
 30
0.0
 10
17.827160
 20
120.010917
 30
0.0
  0
SPLINE
  5
34c
100
AcDbEntity
  8
Image
 62
7
100
AcDbSpline
 70
8
 71
3
 72
8
 73
4
 74
0
 40
0
 40
0
 40
0
 40
0
 40
1
 40
1
 40
1
 40
1
 10
17.827160
 20
120.010917
 30
0.0
 10
17.821660
 20
120.007317
 30
0.0
 10
17.858830
 20
119.953677
 30
0.0
 10
17.866850
 20
119.953677
 30
0.0
  0
SPLINE
  5
34d
100
AcDbEntity
  8
Image
 62
7
100
AcDbSpline
 70
8
 71
3
 72
8
 73
4
 74
0
 40
0
 40
0
 40
0
 40
0
 40
1
 40
1
 40
1
 40
1
 10
17.866850
 20
119.953677
 30
0.0
 10
17.870850
 20
119.953677
 30
0.0
 10
17.895140
 20
119.975187
 30
0.0
 10
17.920950
 20
120.001477
 30
0.0
  0
LWPOLYLINE
  5
34e
100
AcDbEntity
  8
Image
 62
7
100
AcDbPolyline
 90
1
 70
1
 10
17.353832
 20
119.972277
 30
0.0
  0
SPLINE
  5
34f
100
AcDbEntity
  8
Image
 62
7
100
AcDbSpline
 70
8
 71
3
 72
8
 73
4
 74
0
 40
0
 40
0
 40
0
 40
0
 40
1
 40
1
 40
1
 40
1
 10
17.469006
 20
120.086867
 30
0.0
 10
17.489016
 20
120.101997
 30
0.0
 10
17.488126
 20
120.104177
 30
0.0
 10
17.443116
 20
120.150037
 30
0.0
  0
SPLINE
  5
350
100
AcDbEntity
  8
Image
 62
7
100
AcDbSpline
 70
8
 71
3
 72
8
 73
4
 74
0
 40
0
 40
0
 40
0
 40
0
 40
1
 40
1
 40
1
 40
1
 10
17.443116
 20
120.150037
 30
0.0
 10
17.417476
 20
120.176157
 30
0.0
 10
17.394726
 20
120.195757
 30
0.0
 10
17.392556
 20
120.193587
 30
0.0
  0
SPLINE
  5
351
100
AcDbEntity
  8
Image
 62
7
100
AcDbSpline
 70
8
 71
3
 72
8
 73
4
 74
0
 40
0
 40
0
 40
0
 40
0
 40
1
 40
1
 40
1
 40
1
 10
17.392556
 20
120.193587
 30
0.0
 10
17.383856
 20
120.184887
 30
0.0
 10
17.424106
 20
120.070540
 30
0.0
 10
17.435766
 20
120.070854
 30
0.0
  0
SPLINE
  5
352
100
AcDbEntity
  8
Image
 62
7
100
AcDbSpline
 70
8
 71
3
 72
8
 73
4
 74
0
 40
0
 40
0
 40
0
 40
0
 40
1
 40
1
 40
1
 40
1
 10
17.435766
 20
120.070854
 30
0.0
 10
17.442666
 20
120.071040
 30
0.0
 10
17.457616
 20
120.078254
 30
0.0
 10
17.469016
 20
120.086864
 30
0.0
  0
LWPOLYLINE
  5
353
100
AcDbEntity
  8
Image
 62
7
100
AcDbPolyline
 90
1
 70
1
 10
17.920950
 20
120.001477
 30
0.0
  0
SPLINE
  5
354
100
AcDbEntity
  8
Image
 62
7
100
AcDbSpline
 70
8
 71
3
 72
8
 73
4
 74
0
 40
0
 40
0
 40
0
 40
0
 40
1
 40
1
 40
1
 40
1
 10
17.797063
 20
120.134097
 30
0.0
 10
17.806763
 20
120.169067
 30
0.0
 10
17.814523
 20
120.201327
 30
0.0
 10
17.814283
 20
120.205787
 30
0.0
  0
SPLINE
  5
355
100
AcDbEntity
  8
Image
 62
7
100
AcDbSpline
 70
8
 71
3
 72
8
 73
4
 74
0
 40
0
 40
0
 40
0
 40
0
 40
1
 40
1
 40
1
 40
1
 10
17.814283
 20
120.205787
 30
0.0
 10
17.814017
 20
120.210187
 30
0.0
 10
17.790333
 20
120.187687
 30
0.0
 10
17.761623
 20
120.155637
 30
0.0
  0
SPLINE
  5
356
100
AcDbEntity
  8
Image
 62
7
100
AcDbSpline
 70
8
 71
3
 72
8
 73
4
 74
0
 40
0
 40
0
 40
0
 40
0
 40
1
 40
1
 40
1
 40
1
 10
17.761623
 20
120.155637
 30
0.0
 10
17.710083
 20
120.098097
 30
0.0
 10
17.709713
 20
120.097187
 30
0.0
 10
17.732873
 20
120.084317
 30
0.0
  0
SPLINE
  5
357
100
AcDbEntity
  8
Image
 62
7
100
AcDbSpline
 70
8
 71
3
 72
8
 73
4
 74
0
 40
0
 40
0
 40
0
 40
0
 40
1
 40
1
 40
1
 40
1
 10
17.732873
 20
120.084317
 30
0.0
 10
17.771853
 20
120.062657
 30
0.0
 10
17.778673
 20
120.067937
 30
0.0
 10
17.797073
 20
120.134097
 30
0.0
  0
LWPOLYLINE
  5
358
100
AcDbEntity
  8
Image
 62
7
100
AcDbPolyline
 90
1
 70
1
 10
17.469016
 20
120.086864
 30
0.0
  0
SPLINE
  5
359
100
AcDbEntity
  8
Image
 62
7
100
AcDbSpline
 70
8
 71
3
 72
8
 73
4
 74
0
 40
0
 40
0
 40
0
 40
0
 40
1
 40
1
 40
1
 40
1
 10
17.634106
 20
120.134256
 30
0.0
 10
17.634039
 20
120.150786
 30
0.0
 10
17.616366
 20
120.223266
 30
0.0
 10
17.605596
 20
120.251096
 30
0.0
  0
SPLINE
  5
35a
100
AcDbEntity
  8
Image
 62
7
100
AcDbSpline
 70
8
 71
3
 72
8
 73
4
 74
0
 40
0
 40
0
 40
0
 40
0
 40
1
 40
1
 40
1
 40
1
 10
17.605596
 20
120.251096
 30
0.0
 10
17.602096
 20
120.260096
 30
0.0
 10
17.591546
 20
120.237086
 30
0.0
 10
17.581256
 20
120.197986
 30
0.0
  0
SPLINE
  5
35b
100
AcDbEntity
  8
Image
 62
7
100
AcDbSpline
 70
8
 71
3
 72
8
 73
4
 74
0
 40
0
 40
0
 40
0
 40
0
 40
1
 40
1
 40
1
 40
1
 10
17.581256
 20
120.197986
 30
0.0
 10
17.571256
 20
120.160016
 30
0.0
 10
17.564276
 20
120.126546
 30
0.0
 10
17.565736
 20
120.123626
 30
0.0
  0
SPLINE
  5
35c
100
AcDbEntity
  8
Image
 62
7
100
AcDbSpline
 70
8
 71
3
 72
8
 73
4
 74
0
 40
0
 40
0
 40
0
 40
0
 40
1
 40
1
 40
1
 40
1
 10
17.565736
 20
120.123626
 30
0.0
 10
17.567236
 20
120.120726
 30
0.0
 10
17.583196
 20
120.118326
 30
0.0
 10
17.601276
 20
120.118326
 30
0.0
  0
SPLINE
  5
35d
100
AcDbEntity
  8
Image
 62
7
100
AcDbSpline
 70
8
 71
3
 72
8
 73
4
 74
0
 40
0
 40
0
 40
0
 40
0
 40
1
 40
1
 40
1
 40
1
 10
17.601276
 20
120.118326
 30
0.0
 10
17.623446
 20
120.118326
 30
0.0
 10
17.634136
 20
120.123526
 30
0.0
 10
17.634096
 20
120.134266
 30
0.0
  0
LWPOLYLINE
  5
35e
100
AcDbEntity
  8
Image
 62
7
100
AcDbPolyline
 90
1
 70
1
 10
17.797073
 20
120.134097
 30
0.0
  0
LWPOLYLINE
  5
35f
100
AcDbEntity
  8
Image
 62
7
100
AcDbPolyline
 90
1
 70
1
 10
17.634096
 20
120.134266
 30
0.0
  0
SPLINE
  5
360
100
AcDbEntity
  8
Image
 62
7
100
AcDbSpline
 70
8
 71
3
 72
8
 73
4
 74
0
 40
0
 40
0
 40
0
 40
0
 40
1
 40
1
 40
1
 40
1
 10
11.868991
 20
121.461994
 30
0.0
 10
11.867491
 20
121.242938
 30
0.0
 10
11.868511
 20
121.057719
 30
0.0
 10
11.871291
 20
121.050395
 30
0.0
  0
SPLINE
  5
361
100
AcDbEntity
  8
Image
 62
7
100
AcDbSpline
 70
8
 71
3
 72
8
 73
4
 74
0
 40
0
 40
0
 40
0
 40
0
 40
1
 40
1
 40
1
 40
1
 10
11.871291
 20
121.050395
 30
0.0
 10
11.875391
 20
121.039795
 30
0.0
 10
12.280523
 20
121.037085
 30
0.0
 10
13.863027
 20
121.037085
 30
0.0
  0
LWPOLYLINE
  5
362
100
AcDbEntity
  8
Image
 62
7
100
AcDbPolyline
 90
5
 70
0
 10
15.849688
 20
121.451394
 30
0.0
 10
15.849688
 20
121.865676
 30
0.0
 10
13.860739
 20
121.862976
 30
0.0
 10
11.871791
 20
121.860276
 30
0.0
 10
11.868991
 20
121.461994
 30
0.0
  0
SPLINE
  5
363
100
AcDbEntity
  8
Image
 62
7
100
AcDbSpline
 70
8
 71
3
 72
8
 73
4
 74
0
 40
0
 40
0
 40
0
 40
0
 40
1
 40
1
 40
1
 40
1
 10
12.007923
 20
121.171144
 30
0.0
 10
12.004223
 20
121.180744
 30
0.0
 10
12.005823
 20
121.196354
 30
0.0
 10
12.011523
 20
121.205814
 30
0.0
  0
SPLINE
  5
364
100
AcDbEntity
  8
Image
 62
7
100
AcDbSpline
 70
8
 71
3
 72
8
 73
4
 74
0
 40
0
 40
0
 40
0
 40
0
 40
1
 40
1
 40
1
 40
1
 10
12.011523
 20
121.205814
 30
0.0
 10
12.017123
 20
121.215214
 30
0.0
 10
12.090523
 20
121.341131
 30
0.0
 10
12.174531
 20
121.485519
 30
0.0
  0
SPLINE
  5
365
100
AcDbEntity
  8
Image
 62
7
100
AcDbSpline
 70
8
 71
3
 72
8
 73
4
 74
0
 40
0
 40
0
 40
0
 40
0
 40
1
 40
1
 40
1
 40
1
 10
12.174531
 20
121.485519
 30
0.0
 10
12.258541
 20
121.629908
 30
0.0
 10
12.332777
 20
121.750157
 30
0.0
 10
12.339507
 20
121.752740
 30
0.0
  0
SPLINE
  5
366
100
AcDbEntity
  8
Image
 62
7
100
AcDbSpline
 70
8
 71
3
 72
8
 73
4
 74
0
 40
0
 40
0
 40
0
 40
0
 40
1
 40
1
 40
1
 40
1
 10
12.339507
 20
121.752740
 30
0.0
 10
12.346307
 20
121.755340
 30
0.0
 10
12.356747
 20
121.754340
 30
0.0
 10
12.362867
 20
121.750540
 30
0.0
  0
SPLINE
  5
367
100
AcDbEntity
  8
Image
 62
7
100
AcDbSpline
 70
8
 71
3
 72
8
 73
4
 74
0
 40
0
 40
0
 40
0
 40
0
 40
1
 40
1
 40
1
 40
1
 10
12.362867
 20
121.750540
 30
0.0
 10
12.382477
 20
121.738230
 30
0.0
 10
12.695474
 20
121.191831
 30
0.0
 10
12.692398
 20
121.175286
 30
0.0
  0
SPLINE
  5
368
100
AcDbEntity
  8
Image
 62
7
100
AcDbSpline
 70
8
 71
3
 72
8
 73
4
 74
0
 40
0
 40
0
 40
0
 40
0
 40
1
 40
1
 40
1
 40
1
 10
12.692398
 20
121.175286
 30
0.0
 10
12.689898
 20
121.161596
 30
0.0
 10
12.642058
 20
121.158956
 30
0.0
 10
12.352057
 20
121.156546
 30
0.0
  0
SPLINE
  5
369
100
AcDbEntity
  8
Image
 62
7
100
AcDbSpline
 70
8
 71
3
 72
8
 73
4
 74
0
 40
0
 40
0
 40
0
 40
0
 40
1
 40
1
 40
1
 40
1
 10
12.352057
 20
121.156546
 30
0.0
 10
12.047020
 20
121.154046
 30
0.0
 10
12.014035
 20
121.155346
 30
0.0
 10
12.007967
 20
121.171226
 30
0.0
  0
LWPOLYLINE
  5
36a
100
AcDbEntity
  8
Image
 62
7
100
AcDbPolyline
 90
3
 70
0
 10
13.863027
 20
121.037085
 30
0.0
 10
15.849653
 20
121.037085
 30
0.0
 10
15.849688
 20
121.451394
 30
0.0
  0
SPLINE
  5
36b
100
AcDbEntity
  8
Image
 62
7
100
AcDbSpline
 70
8
 71
3
 72
8
 73
4
 74
0
 40
0
 40
0
 40
0
 40
0
 40
1
 40
1
 40
1
 40
1
 10
12.380252
 20
121.205524
 30
0.0
 10
12.414692
 20
121.243574
 30
0.0
 10
12.367212
 20
121.294034
 30
0.0
 10
12.324862
 20
121.264374
 30
0.0
  0
SPLINE
  5
36c
100
AcDbEntity
  8
Image
 62
7
100
AcDbSpline
 70
8
 71
3
 72
8
 73
4
 74
0
 40
0
 40
0
 40
0
 40
0
 40
1
 40
1
 40
1
 40
1
 10
12.324862
 20
121.264374
 30
0.0
 10
12.299532
 20
121.246634
 30
0.0
 10
12.295142
 20
121.218144
 30
0.0
 10
12.314722
 20
121.198564
 30
0.0
  0
SPLINE
  5
36d
100
AcDbEntity
  8
Image
 62
7
100
AcDbSpline
 70
8
 71
3
 72
8
 73
4
 74
0
 40
0
 40
0
 40
0
 40
0
 40
1
 40
1
 40
1
 40
1
 10
12.314722
 20
121.198564
 30
0.0
 10
12.333202
 20
121.180084
 30
0.0
 10
12.359782
 20
121.182914
 30
0.0
 10
12.380252
 20
121.205464
 30
0.0
  0
LWPOLYLINE
  5
36e
100
AcDbEntity
  8
Image
 62
7
100
AcDbPolyline
 90
1
 70
1
 10
12.007967
 20
121.171226
 30
0.0
  0
SPLINE
  5
36f
100
AcDbEntity
  8
Image
 62
7
100
AcDbSpline
 70
8
 71
3
 72
8
 73
4
 74
0
 40
0
 40
0
 40
0
 40
0
 40
1
 40
1
 40
1
 40
1
 10
12.380371
 20
121.311222
 30
0.0
 10
12.383271
 20
121.315922
 30
0.0
 10
12.391641
 20
121.380072
 30
0.0
 10
12.398951
 20
121.453747
 30
0.0
  0
SPLINE
  5
370
100
AcDbEntity
  8
Image
 62
7
100
AcDbSpline
 70
8
 71
3
 72
8
 73
4
 74
0
 40
0
 40
0
 40
0
 40
0
 40
1
 40
1
 40
1
 40
1
 10
12.398951
 20
121.453747
 30
0.0
 10
12.414061
 20
121.606025
 30
0.0
 10
12.409481
 20
121.621313
 30
0.0
 10
12.348721
 20
121.621313
 30
0.0
  0
SPLINE
  5
371
100
AcDbEntity
  8
Image
 62
7
100
AcDbSpline
 70
8
 71
3
 72
8
 73
4
 74
0
 40
0
 40
0
 40
0
 40
0
 40
1
 40
1
 40
1
 40
1
 10
12.348721
 20
121.621313
 30
0.0
 10
12.323181
 20
121.621313
 30
0.0
 10
12.308521
 20
121.614413
 30
0.0
 10
12.296951
 20
121.596683
 30
0.0
  0
SPLINE
  5
372
100
AcDbEntity
  8
Image
 62
7
100
AcDbSpline
 70
8
 71
3
 72
8
 73
4
 74
0
 40
0
 40
0
 40
0
 40
0
 40
1
 40
1
 40
1
 40
1
 10
12.296951
 20
121.596683
 30
0.0
 10
12.282501
 20
121.574633
 30
0.0
 10
12.282541
 20
121.558833
 30
0.0
 10
12.297353
 20
121.445914
 30
0.0
  0
SPLINE
  5
373
100
AcDbEntity
  8
Image
 62
7
100
AcDbSpline
 70
8
 71
3
 72
8
 73
4
 74
0
 40
0
 40
0
 40
0
 40
0
 40
1
 40
1
 40
1
 40
1
 10
12.297353
 20
121.445914
 30
0.0
 10
12.306453
 20
121.376544
 30
0.0
 10
12.316283
 20
121.315926
 30
0.0
 10
12.319183
 20
121.311218
 30
0.0
  0
SPLINE
  5
374
100
AcDbEntity
  8
Image
 62
7
100
AcDbSpline
 70
8
 71
3
 72
8
 73
4
 74
0
 40
0
 40
0
 40
0
 40
0
 40
1
 40
1
 40
1
 40
1
 10
12.319183
 20
121.311218
 30
0.0
 10
12.326083
 20
121.300108
 30
0.0
 10
12.373503
 20
121.300108
 30
0.0
 10
12.380373
 20
121.311223
 30
0.0
  0
LWPOLYLINE
  5
375
100
AcDbEntity
  8
Image
 62
7
100
AcDbPolyline
 90
1
 70
1
 10
12.380252
 20
121.205464
 30
0.0
  0
SPLINE
  5
376
100
AcDbEntity
  8
Image
 62
7
100
AcDbSpline
 70
8
 71
3
 72
8
 73
4
 74
0
 40
0
 40
0
 40
0
 40
0
 40
1
 40
1
 40
1
 40
1
 10
15.436739
 20
121.175637
 30
0.0
 10
15.328513
 20
121.199917
 30
0.0
 10
15.265608
 20
121.322930
 30
0.0
 10
15.279443
 20
121.483229
 30
0.0
  0
SPLINE
  5
377
100
AcDbEntity
  8
Image
 62
7
100
AcDbSpline
 70
8
 71
3
 72
8
 73
4
 74
0
 40
0
 40
0
 40
0
 40
0
 40
1
 40
1
 40
1
 40
1
 10
15.279443
 20
121.483229
 30
0.0
 10
15.290363
 20
121.609720
 30
0.0
 10
15.334843
 20
121.690863
 30
0.0
 10
15.411194
 20
121.723529
 30
0.0
  0
SPLINE
  5
378
100
AcDbEntity
  8
Image
 62
7
100
AcDbSpline
 70
8
 71
3
 72
8
 73
4
 74
0
 40
0
 40
0
 40
0
 40
0
 40
1
 40
1
 40
1
 40
1
 10
15.411194
 20
121.723529
 30
0.0
 10
15.483844
 20
121.754609
 30
0.0
 10
15.597294
 20
121.730529
 30
0.0
 10
15.636188
 20
121.675869
 30
0.0
  0
SPLINE
  5
379
100
AcDbEntity
  8
Image
 62
7
100
AcDbSpline
 70
8
 71
3
 72
8
 73
4
 74
0
 40
0
 40
0
 40
0
 40
0
 40
1
 40
1
 40
1
 40
1
 10
15.636188
 20
121.675869
 30
0.0
 10
15.656478
 20
121.647319
 30
0.0
 10
15.686688
 20
121.560602
 30
0.0
 10
15.678778
 20
121.553563
 30
0.0
  0
SPLINE
  5
37a
100
AcDbEntity
  8
Image
 62
7
100
AcDbSpline
 70
8
 71
3
 72
8
 73
4
 74
0
 40
0
 40
0
 40
0
 40
0
 40
1
 40
1
 40
1
 40
1
 10
15.678778
 20
121.553563
 30
0.0
 10
15.676378
 20
121.551463
 30
0.0
 10
15.652518
 20
121.546563
 30
0.0
 10
15.625758
 20
121.542633
 30
0.0
  0
LWPOLYLINE
  5
37b
100
AcDbEntity
  8
Image
 62
7
100
AcDbPolyline
 90
1
 70
1
 10
12.380373
 20
121.311223
 30
0.0
  0
SPLINE
  5
37c
100
AcDbEntity
  8
Image
 62
7
100
AcDbSpline
 70
8
 71
3
 72
8
 73
4
 74
0
 40
0
 40
0
 40
0
 40
0
 40
1
 40
1
 40
1
 40
1
 10
15.564108
 20
121.578993
 30
0.0
 10
15.540508
 20
121.657773
 30
0.0
 10
15.459973
 20
121.663653
 30
0.0
 10
15.421561
 20
121.589393
 30
0.0
  0
SPLINE
  5
37d
100
AcDbEntity
  8
Image
 62
7
100
AcDbSpline
 70
8
 71
3
 72
8
 73
4
 74
0
 40
0
 40
0
 40
0
 40
0
 40
1
 40
1
 40
1
 40
1
 10
15.421561
 20
121.589393
 30
0.0
 10
15.405791
 20
121.558923
 30
0.0
 10
15.403041
 20
121.532513
 30
0.0
 10
15.406051
 20
121.440801
 30
0.0
  0
SPLINE
  5
37e
100
AcDbEntity
  8
Image
 62
7
100
AcDbSpline
 70
8
 71
3
 72
8
 73
4
 74
0
 40
0
 40
0
 40
0
 40
0
 40
1
 40
1
 40
1
 40
1
 10
15.406051
 20
121.440801
 30
0.0
 10
15.410051
 20
121.320070
 30
0.0
 10
15.420881
 20
121.290068
 30
0.0
 10
15.467691
 20
121.270681
 30
0.0
  0
SPLINE
  5
37f
100
AcDbEntity
  8
Image
 62
7
100
AcDbSpline
 70
8
 71
3
 72
8
 73
4
 74
0
 40
0
 40
0
 40
0
 40
0
 40
1
 40
1
 40
1
 40
1
 10
15.467691
 20
121.270681
 30
0.0
 10
15.521401
 20
121.248441
 30
0.0
 10
15.573502
 20
121.290701
 30
0.0
 10
15.573502
 20
121.356511
 30
0.0
  0
SPLINE
  5
380
100
AcDbEntity
  8
Image
 62
7
100
AcDbSpline
 70
8
 71
3
 72
8
 73
4
 74
0
 40
0
 40
0
 40
0
 40
0
 40
1
 40
1
 40
1
 40
1
 10
15.573502
 20
121.356511
 30
0.0
 10
15.573502
 20
121.373411
 30
0.0
 10
15.565902
 20
121.377061
 30
0.0
 10
15.531022
 20
121.377061
 30
0.0
  0
LWPOLYLINE
  5
381
100
AcDbEntity
  8
Image
 62
7
100
AcDbPolyline
 90
3
 70
0
 10
15.625758
 20
121.542633
 30
0.0
 10
15.577098
 20
121.535633
 30
0.0
 10
15.564108
 20
121.578993
 30
0.0
  0
SPLINE
  5
382
100
AcDbEntity
  8
Image
 62
7
100
AcDbSpline
 70
8
 71
3
 72
8
 73
4
 74
0
 40
0
 40
0
 40
0
 40
0
 40
1
 40
1
 40
1
 40
1
 10
15.679742
 20
121.323900
 30
0.0
 10
15.679742
 20
121.181509
 30
0.0
 10
15.678852
 20
121.175193
 30
0.0
 10
15.658162
 20
121.175193
 30
0.0
  0
SPLINE
  5
383
100
AcDbEntity
  8
Image
 62
7
100
AcDbSpline
 70
8
 71
3
 72
8
 73
4
 74
0
 40
0
 40
0
 40
0
 40
0
 40
1
 40
1
 40
1
 40
1
 10
15.658162
 20
121.175193
 30
0.0
 10
15.646292
 20
121.175193
 30
0.0
 10
15.634342
 20
121.182393
 30
0.0
 10
15.631612
 20
121.191133
 30
0.0
  0
SPLINE
  5
384
100
AcDbEntity
  8
Image
 62
7
100
AcDbSpline
 70
8
 71
3
 72
8
 73
4
 74
0
 40
0
 40
0
 40
0
 40
0
 40
1
 40
1
 40
1
 40
1
 10
15.631612
 20
121.191133
 30
0.0
 10
15.613832
 20
121.248033
 30
0.0
 10
15.615522
 20
121.245913
 30
0.0
 10
15.604142
 20
121.225653
 30
0.0
  0
SPLINE
  5
385
100
AcDbEntity
  8
Image
 62
7
100
AcDbSpline
 70
8
 71
3
 72
8
 73
4
 74
0
 40
0
 40
0
 40
0
 40
0
 40
1
 40
1
 40
1
 40
1
 10
15.604142
 20
121.225653
 30
0.0
 10
15.582182
 20
121.186533
 30
0.0
 10
15.498975
 20
121.161673
 30
0.0
 10
15.436738
 20
121.175643
 30
0.0
  0
LWPOLYLINE
  5
386
100
AcDbEntity
  8
Image
 62
7
100
AcDbPolyline
 90
7
 70
0
 10
15.531022
 20
121.377061
 30
0.0
 10
15.488542
 20
121.377061
 30
0.0
 10
15.488542
 20
121.424861
 30
0.0
 10
15.488542
 20
121.472661
 30
0.0
 10
15.584142
 20
121.472661
 30
0.0
 10
15.679742
 20
121.472661
 30
0.0
 10
15.679742
 20
121.323900
 30
0.0
  0
SPLINE
  5
387
100
AcDbEntity
  8
Image
 62
7
100
AcDbSpline
 70
8
 71
3
 72
8
 73
4
 74
0
 40
0
 40
0
 40
0
 40
0
 40
1
 40
1
 40
1
 40
1
 10
12.806592
 20
121.199097
 30
0.0
 10
12.803492
 20
121.212237
 30
0.0
 10
12.779502
 20
121.325763
 30
0.0
 10
12.753282
 20
121.451367
 30
0.0
  0
SPLINE
  5
388
100
AcDbEntity
  8
Image
 62
7
100
AcDbSpline
 70
8
 71
3
 72
8
 73
4
 74
0
 40
0
 40
0
 40
0
 40
0
 40
1
 40
1
 40
1
 40
1
 10
12.753282
 20
121.451367
 30
0.0
 10
12.727062
 20
121.576970
 30
0.0
 10
12.703132
 20
121.690492
 30
0.0
 10
12.700092
 20
121.703636
 30
0.0
  0
SPLINE
  5
389
100
AcDbEntity
  8
Image
 62
7
100
AcDbSpline
 70
8
 71
3
 72
8
 73
4
 74
0
 40
0
 40
0
 40
0
 40
0
 40
1
 40
1
 40
1
 40
1
 10
12.700092
 20
121.703636
 30
0.0
 10
12.694892
 20
121.725976
 30
0.0
 10
12.698092
 20
121.727536
 30
0.0
 10
12.747892
 20
121.727536
 30
0.0
  0
SPLINE
  5
38a
100
AcDbEntity
  8
Image
 62
7
100
AcDbSpline
 70
8
 71
3
 72
8
 73
4
 74
0
 40
0
 40
0
 40
0
 40
0
 40
1
 40
1
 40
1
 40
1
 10
12.747892
 20
121.727536
 30
0.0
 10
12.777222
 20
121.727536
 30
0.0
 10
12.801202
 20
121.726136
 30
0.0
 10
12.801202
 20
121.724536
 30
0.0
  0
SPLINE
  5
38b
100
AcDbEntity
  8
Image
 62
7
100
AcDbSpline
 70
8
 71
3
 72
8
 73
4
 74
0
 40
0
 40
0
 40
0
 40
0
 40
1
 40
1
 40
1
 40
1
 10
12.801202
 20
121.724536
 30
0.0
 10
12.801202
 20
121.722836
 30
0.0
 10
12.815532
 20
121.642976
 30
0.0
 10
12.833072
 20
121.547024
 30
0.0
  0
SPLINE
  5
38c
100
AcDbEntity
  8
Image
 62
7
100
AcDbSpline
 70
8
 71
3
 72
8
 73
4
 74
0
 40
0
 40
0
 40
0
 40
0
 40
1
 40
1
 40
1
 40
1
 10
12.833072
 20
121.547024
 30
0.0
 10
12.850602
 20
121.451074
 30
0.0
 10
12.864942
 20
121.368010
 30
0.0
 10
12.864942
 20
121.362432
 30
0.0
  0
SPLINE
  5
38d
100
AcDbEntity
  8
Image
 62
7
100
AcDbSpline
 70
8
 71
3
 72
8
 73
4
 74
0
 40
0
 40
0
 40
0
 40
0
 40
1
 40
1
 40
1
 40
1
 10
12.864942
 20
121.362432
 30
0.0
 10
12.864942
 20
121.356832
 30
0.0
 10
12.867842
 20
121.355232
 30
0.0
 10
12.871442
 20
121.358832
 30
0.0
  0
SPLINE
  5
38e
100
AcDbEntity
  8
Image
 62
7
100
AcDbSpline
 70
8
 71
3
 72
8
 73
4
 74
0
 40
0
 40
0
 40
0
 40
0
 40
1
 40
1
 40
1
 40
1
 10
12.871442
 20
121.358832
 30
0.0
 10
12.875042
 20
121.362432
 30
0.0
 10
12.893002
 20
121.445672
 30
0.0
 10
12.911362
 20
121.543830
 30
0.0
  0
LWPOLYLINE
  5
38f
100
AcDbEntity
  8
Image
 62
7
100
AcDbPolyline
 90
1
 70
1
 10
15.436738
 20
121.175643
 30
0.0
  0
SPLINE
  5
390
100
AcDbEntity
  8
Image
 62
7
100
AcDbSpline
 70
8
 71
3
 72
8
 73
4
 74
0
 40
0
 40
0
 40
0
 40
0
 40
1
 40
1
 40
1
 40
1
 10
13.000432
 20
121.725493
 30
0.0
 10
13.031052
 20
121.727293
 30
0.0
 10
13.056112
 20
121.727293
 30
0.0
 10
13.056112
 20
121.725493
 30
0.0
  0
SPLINE
  5
391
100
AcDbEntity
  8
Image
 62
7
100
AcDbSpline
 70
8
 71
3
 72
8
 73
4
 74
0
 40
0
 40
0
 40
0
 40
0
 40
1
 40
1
 40
1
 40
1
 10
13.056112
 20
121.725493
 30
0.0
 10
13.056152
 20
121.707383
 30
0.0
 10
13.120822
 20
121.361925
 30
0.0
 10
13.124942
 20
121.357805
 30
0.0
  0
SPLINE
  5
392
100
AcDbEntity
  8
Image
 62
7
100
AcDbSpline
 70
8
 71
3
 72
8
 73
4
 74
0
 40
0
 40
0
 40
0
 40
0
 40
1
 40
1
 40
1
 40
1
 10
13.124942
 20
121.357805
 30
0.0
 10
13.127942
 20
121.354805
 30
0.0
 10
13.130442
 20
121.354205
 30
0.0
 10
13.130442
 20
121.356705
 30
0.0
  0
SPLINE
  5
393
100
AcDbEntity
  8
Image
 62
7
100
AcDbSpline
 70
8
 71
3
 72
8
 73
4
 74
0
 40
0
 40
0
 40
0
 40
0
 40
1
 40
1
 40
1
 40
1
 10
13.130442
 20
121.356705
 30
0.0
 10
13.130446
 20
121.359105
 30
0.0
 10
13.144782
 20
121.442385
 30
0.0
 10
13.162302
 20
121.541703
 30
0.0
  0
SPLINE
  5
394
100
AcDbEntity
  8
Image
 62
7
100
AcDbSpline
 70
8
 71
3
 72
8
 73
4
 74
0
 40
0
 40
0
 40
0
 40
0
 40
1
 40
1
 40
1
 40
1
 10
13.162302
 20
121.541703
 30
0.0
 10
13.179822
 20
121.641023
 30
0.0
 10
13.194152
 20
121.723470
 30
0.0
 10
13.194162
 20
121.724931
 30
0.0
  0
SPLINE
  5
395
100
AcDbEntity
  8
Image
 62
7
100
AcDbSpline
 70
8
 71
3
 72
8
 73
4
 74
0
 40
0
 40
0
 40
0
 40
0
 40
1
 40
1
 40
1
 40
1
 10
13.194162
 20
121.724931
 30
0.0
 10
13.194166
 20
121.726431
 30
0.0
 10
13.215672
 20
121.727631
 30
0.0
 10
13.241972
 20
121.727631
 30
0.0
  0
SPLINE
  5
396
100
AcDbEntity
  8
Image
 62
7
100
AcDbSpline
 70
8
 71
3
 72
8
 73
4
 74
0
 40
0
 40
0
 40
0
 40
0
 40
1
 40
1
 40
1
 40
1
 10
13.241972
 20
121.727631
 30
0.0
 10
13.273372
 20
121.727631
 30
0.0
 10
13.289612
 20
121.723131
 30
0.0
 10
13.289322
 20
121.714361
 30
0.0
  0
SPLINE
  5
397
100
AcDbEntity
  8
Image
 62
7
100
AcDbSpline
 70
8
 71
3
 72
8
 73
4
 74
0
 40
0
 40
0
 40
0
 40
0
 40
1
 40
1
 40
1
 40
1
 10
13.289322
 20
121.714361
 30
0.0
 10
13.289076
 20
121.707061
 30
0.0
 10
13.263612
 20
121.583977
 30
0.0
 10
13.232722
 20
121.440847
 30
0.0
  0
LWPOLYLINE
  5
398
100
AcDbEntity
  8
Image
 62
7
100
AcDbPolyline
 90
3
 70
0
 10
12.911362
 20
121.543830
 30
0.0
 10
12.944752
 20
121.722293
 30
0.0
 10
13.000432
 20
121.725493
 30
0.0
  0
SPLINE
  5
399
100
AcDbEntity
  8
Image
 62
7
100
AcDbSpline
 70
8
 71
3
 72
8
 73
4
 74
0
 40
0
 40
0
 40
0
 40
0
 40
1
 40
1
 40
1
 40
1
 10
13.052212
 20
121.270411
 30
0.0
 10
13.042612
 20
121.323271
 30
0.0
 10
13.026852
 20
121.410670
 30
0.0
 10
13.017092
 20
121.464640
 30
0.0
  0
SPLINE
  5
39a
100
AcDbEntity
  8
Image
 62
7
100
AcDbSpline
 70
8
 71
3
 72
8
 73
4
 74
0
 40
0
 40
0
 40
0
 40
0
 40
1
 40
1
 40
1
 40
1
 10
13.017092
 20
121.464640
 30
0.0
 10
12.996312
 20
121.579527
 30
0.0
 10
12.998092
 20
121.582706
 30
0.0
 10
12.949032
 20
121.342614
 30
0.0
  0
LWPOLYLINE
  5
39b
100
AcDbEntity
  8
Image
 62
7
100
AcDbPolyline
 90
5
 70
0
 10
13.232722
 20
121.440847
 30
0.0
 10
13.176562
 20
121.180611
 30
0.0
 10
13.123072
 20
121.177411
 30
0.0
 10
13.069592
 20
121.174311
 30
0.0
 10
13.052212
 20
121.270411
 30
0.0
  0
SPLINE
  5
39c
100
AcDbEntity
  8
Image
 62
7
100
AcDbSpline
 70
8
 71
3
 72
8
 73
4
 74
0
 40
0
 40
0
 40
0
 40
0
 40
1
 40
1
 40
1
 40
1
 10
12.863522
 20
121.175319
 30
0.0
 10
12.819032
 20
121.175319
 30
0.0
 10
12.811432
 20
121.178519
 30
0.0
 10
12.806542
 20
121.199219
 30
0.0
  0
LWPOLYLINE
  5
39d
100
AcDbEntity
  8
Image
 62
7
100
AcDbPolyline
 90
3
 70
0
 10
12.949032
 20
121.342614
 30
0.0
 10
12.914862
 20
121.175319
 30
0.0
 10
12.863522
 20
121.175319
 30
0.0
  0
SPLINE
  5
39e
100
AcDbEntity
  8
Image
 62
7
100
AcDbSpline
 70
8
 71
3
 72
8
 73
4
 74
0
 40
0
 40
0
 40
0
 40
0
 40
1
 40
1
 40
1
 40
1
 10
13.263624
 20
121.199097
 30
0.0
 10
13.267024
 20
121.212237
 30
0.0
 10
13.301894
 20
121.335323
 30
0.0
 10
13.341224
 20
121.472610
 30
0.0
  0
LWPOLYLINE
  5
39f
100
AcDbEntity
  8
Image
 62
7
100
AcDbPolyline
 90
2
 70
0
 10
12.806542
 20
121.199219
 30
0.0
 10
12.806592
 20
121.199097
 30
0.0
  0
SPLINE
  5
3a0
100
AcDbEntity
  8
Image
 62
7
100
AcDbSpline
 70
8
 71
3
 72
8
 73
4
 74
0
 40
0
 40
0
 40
0
 40
0
 40
1
 40
1
 40
1
 40
1
 10
13.554634
 20
121.688105
 30
0.0
 10
13.560734
 20
121.665925
 30
0.0
 10
13.596134
 20
121.541429
 30
0.0
 10
13.633424
 20
121.411443
 30
0.0
  0
LWPOLYLINE
  5
3a1
100
AcDbEntity
  8
Image
 62
7
100
AcDbPolyline
 90
5
 70
0
 10
13.341224
 20
121.472610
 30
0.0
 10
13.412754
 20
121.722225
 30
0.0
 10
13.478204
 20
121.725325
 30
0.0
 10
13.543654
 20
121.728425
 30
0.0
 10
13.554634
 20
121.688105
 30
0.0
  0
SPLINE
  5
3a2
100
AcDbEntity
  8
Image
 62
7
100
AcDbSpline
 70
8
 71
3
 72
8
 73
4
 74
0
 40
0
 40
0
 40
0
 40
0
 40
1
 40
1
 40
1
 40
1
 10
13.380774
 20
121.252116
 30
0.0
 10
13.367134
 20
121.175176
 30
0.0
 10
13.367084
 20
121.175106
 30
0.0
 10
13.310204
 20
121.175106
 30
0.0
  0
SPLINE
  5
3a3
100
AcDbEntity
  8
Image
 62
7
100
AcDbSpline
 70
8
 71
3
 72
8
 73
4
 74
0
 40
0
 40
0
 40
0
 40
0
 40
1
 40
1
 40
1
 40
1
 10
13.310204
 20
121.175106
 30
0.0
 10
13.260934
 20
121.175106
 30
0.0
 10
13.257994
 20
121.176606
 30
0.0
 10
13.263684
 20
121.199006
 30
0.0
  0
LWPOLYLINE
  5
3a4
100
AcDbEntity
  8
Image
 62
7
100
AcDbPolyline
 90
9
 70
0
 10
13.633424
 20
121.411443
 30
0.0
 10
13.701234
 20
121.175106
 30
0.0
 10
13.640604
 20
121.175106
 30
0.0
 10
13.579974
 20
121.175106
 30
0.0
 10
13.566904
 20
121.233526
 30
0.0
 10
13.553834
 20
121.291946
 30
0.0
 10
13.470804
 20
121.291946
 30
0.0
 10
13.387774
 20
121.291946
 30
0.0
 10
13.380774
 20
121.252116
 30
0.0
  0
SPLINE
  5
3a5
100
AcDbEntity
  8
Image
 62
7
100
AcDbSpline
 70
8
 71
3
 72
8
 73
4
 74
0
 40
0
 40
0
 40
0
 40
0
 40
1
 40
1
 40
1
 40
1
 10
13.519444
 20
121.422157
 30
0.0
 10
13.499644
 20
121.524149
 30
0.0
 10
13.478014
 20
121.611246
 30
0.0
 10
13.473604
 20
121.606838
 30
0.0
  0
SPLINE
  5
3a6
100
AcDbEntity
  8
Image
 62
7
100
AcDbSpline
 70
8
 71
3
 72
8
 73
4
 74
0
 40
0
 40
0
 40
0
 40
0
 40
1
 40
1
 40
1
 40
1
 10
13.473604
 20
121.606838
 30
0.0
 10
13.468604
 20
121.601838
 30
0.0
 10
13.417894
 20
121.410875
 30
0.0
 10
13.417484
 20
121.395602
 30
0.0
  0
SPLINE
  5
3a7
100
AcDbEntity
  8
Image
 62
7
100
AcDbSpline
 70
8
 71
3
 72
8
 73
4
 74
0
 40
0
 40
0
 40
0
 40
0
 40
1
 40
1
 40
1
 40
1
 10
13.417484
 20
121.395602
 30
0.0
 10
13.417368
 20
121.391202
 30
0.0
 10
13.441764
 20
121.387602
 30
0.0
 10
13.471714
 20
121.387602
 30
0.0
  0
LWPOLYLINE
  5
3a8
100
AcDbEntity
  8
Image
 62
7
100
AcDbPolyline
 90
1
 70
1
 10
13.263684
 20
121.199006
 30
0.0
  0
LWPOLYLINE
  5
3a9
100
AcDbEntity
  8
Image
 62
7
100
AcDbPolyline
 90
3
 70
0
 10
13.471714
 20
121.387602
 30
0.0
 10
13.526144
 20
121.387602
 30
0.0
 10
13.519444
 20
121.422157
 30
0.0
  0
SPLINE
  5
3aa
100
AcDbEntity
  8
Image
 62
7
100
AcDbSpline
 70
8
 71
3
 72
8
 73
4
 74
0
 40
0
 40
0
 40
0
 40
0
 40
1
 40
1
 40
1
 40
1
 10
13.866051
 20
121.727496
 30
0.0
 10
13.974615
 20
121.727464
 30
0.0
 10
14.001587
 20
121.724096
 30
0.0
 10
14.028884
 20
121.707506
 30
0.0
  0
SPLINE
  5
3ab
100
AcDbEntity
  8
Image
 62
7
100
AcDbSpline
 70
8
 71
3
 72
8
 73
4
 74
0
 40
0
 40
0
 40
0
 40
0
 40
1
 40
1
 40
1
 40
1
 10
14.028884
 20
121.707506
 30
0.0
 10
14.070724
 20
121.681996
 30
0.0
 10
14.097074
 20
121.626236
 30
0.0
 10
14.097074
 20
121.563248
 30
0.0
  0
SPLINE
  5
3ac
100
AcDbEntity
  8
Image
 62
7
100
AcDbSpline
 70
8
 71
3
 72
8
 73
4
 74
0
 40
0
 40
0
 40
0
 40
0
 40
1
 40
1
 40
1
 40
1
 10
14.097074
 20
121.563248
 30
0.0
 10
14.097074
 20
121.508598
 30
0.0
 10
14.086054
 20
121.481068
 30
0.0
 10
14.047674
 20
121.439846
 30
0.0
  0
LWPOLYLINE
  5
3ad
100
AcDbEntity
  8
Image
 62
7
100
AcDbPolyline
 90
3
 70
0
 10
13.735932
 20
121.451367
 30
0.0
 10
13.735932
 20
121.727536
 30
0.0
 10
13.866051
 20
121.727496
 30
0.0
  0
SPLINE
  5
3ae
100
AcDbEntity
  8
Image
 62
7
100
AcDbSpline
 70
8
 71
3
 72
8
 73
4
 74
0
 40
0
 40
0
 40
0
 40
0
 40
1
 40
1
 40
1
 40
1
 10
14.070214
 20
121.299774
 30
0.0
 10
14.096674
 20
121.237844
 30
0.0
 10
14.118314
 20
121.184470
 30
0.0
 10
14.118314
 20
121.181178
 30
0.0
  0
SPLINE
  5
3af
100
AcDbEntity
  8
Image
 62
7
100
AcDbSpline
 70
8
 71
3
 72
8
 73
4
 74
0
 40
0
 40
0
 40
0
 40
0
 40
1
 40
1
 40
1
 40
1
 10
14.118314
 20
121.181178
 30
0.0
 10
14.118314
 20
121.177878
 30
0.0
 10
14.090394
 20
121.175178
 30
0.0
 10
14.056284
 20
121.175178
 30
0.0
  0
LWPOLYLINE
  5
3b0
100
AcDbEntity
  8
Image
 62
7
100
AcDbPolyline
 90
3
 70
0
 10
14.047674
 20
121.439846
 30
0.0
 10
14.022114
 20
121.412386
 30
0.0
 10
14.070214
 20
121.299774
 30
0.0
  0
SPLINE
  5
3b1
100
AcDbEntity
  8
Image
 62
7
100
AcDbSpline
 70
8
 71
3
 72
8
 73
4
 74
0
 40
0
 40
0
 40
0
 40
0
 40
1
 40
1
 40
1
 40
1
 10
13.956910
 20
121.284080
 30
0.0
 10
13.920900
 20
121.389093
 30
0.0
 10
13.918390
 20
121.393073
 30
0.0
 10
13.886180
 20
121.396283
 30
0.0
  0
LWPOLYLINE
  5
3b2
100
AcDbEntity
  8
Image
 62
7
100
AcDbPolyline
 90
3
 70
0
 10
14.056284
 20
121.175178
 30
0.0
 10
13.994254
 20
121.175178
 30
0.0
 10
13.956910
 20
121.284080
 30
0.0
  0
SPLINE
  5
3b3
100
AcDbEntity
  8
Image
 62
7
100
AcDbSpline
 70
8
 71
3
 72
8
 73
4
 74
0
 40
0
 40
0
 40
0
 40
0
 40
1
 40
1
 40
1
 40
1
 10
13.956629
 20
121.499767
 30
0.0
 10
13.974519
 20
121.512307
 30
0.0
 10
13.980229
 20
121.526887
 30
0.0
 10
13.980229
 20
121.560007
 30
0.0
  0
SPLINE
  5
3b4
100
AcDbEntity
  8
Image
 62
7
100
AcDbSpline
 70
8
 71
3
 72
8
 73
4
 74
0
 40
0
 40
0
 40
0
 40
0
 40
1
 40
1
 40
1
 40
1
 10
13.980229
 20
121.560007
 30
0.0
 10
13.980229
 20
121.619357
 30
0.0
 10
13.957369
 20
121.642567
 30
0.0
 10
13.898919
 20
121.642567
 30
0.0
  0
LWPOLYLINE
  5
3b5
100
AcDbEntity
  8
Image
 62
7
100
AcDbPolyline
 90
7
 70
0
 10
13.886180
 20
121.396283
 30
0.0
 10
13.852780
 20
121.399583
 30
0.0
 10
13.852780
 20
121.287380
 30
0.0
 10
13.852780
 20
121.175177
 30
0.0
 10
13.794360
 20
121.175177
 30
0.0
 10
13.735940
 20
121.175177
 30
0.0
 10
13.735932
 20
121.451367
 30
0.0
  0
SPLINE
  5
3b6
100
AcDbEntity
  8
Image
 62
7
100
AcDbSpline
 70
8
 71
3
 72
8
 73
4
 74
0
 40
0
 40
0
 40
0
 40
0
 40
1
 40
1
 40
1
 40
1
 10
13.892899
 20
121.483227
 30
0.0
 10
13.914969
 20
121.483227
 30
0.0
 10
13.943649
 20
121.490727
 30
0.0
 10
13.956629
 20
121.499757
 30
0.0
  0
LWPOLYLINE
  5
3b7
100
AcDbEntity
  8
Image
 62
7
100
AcDbPolyline
 90
5
 70
0
 10
13.898919
 20
121.642567
 30
0.0
 10
13.852769
 20
121.642567
 30
0.0
 10
13.852769
 20
121.562897
 30
0.0
 10
13.852769
 20
121.483227
 30
0.0
 10
13.892899
 20
121.483227
 30
0.0
  0
LWPOLYLINE
  5
3b8
100
AcDbEntity
  8
Image
 62
7
100
AcDbPolyline
 90
1
 70
1
 10
13.956629
 20
121.499757
 30
0.0
  0
SPLINE
  5
3b9
100
AcDbEntity
  8
Image
 62
7
100
AcDbSpline
 70
8
 71
3
 72
8
 73
4
 74
0
 40
0
 40
0
 40
0
 40
0
 40
1
 40
1
 40
1
 40
1
 10
14.352920
 20
121.374212
 30
0.0
 10
14.308570
 20
121.480761
 30
0.0
 10
14.268690
 20
121.567992
 30
0.0
 10
14.264310
 20
121.568062
 30
0.0
  0
SPLINE
  5
3ba
100
AcDbEntity
  8
Image
 62
7
100
AcDbSpline
 70
8
 71
3
 72
8
 73
4
 74
0
 40
0
 40
0
 40
0
 40
0
 40
1
 40
1
 40
1
 40
1
 10
14.264310
 20
121.568062
 30
0.0
 10
14.259910
 20
121.568131
 30
0.0
 10
14.256310
 20
121.479752
 30
0.0
 10
14.256310
 20
121.371682
 30
0.0
  0
LWPOLYLINE
  5
3bb
100
AcDbEntity
  8
Image
 62
7
100
AcDbPolyline
 90
15
 70
0
 10
14.171430
 20
121.451367
 30
0.0
 10
14.171430
 20
121.727536
 30
0.0
 10
14.238260
 20
121.727536
 30
0.0
 10
14.305090
 20
121.727536
 30
0.0
 10
14.373690
 20
121.560927
 30
0.0
 10
14.442290
 20
121.394317
 30
0.0
 10
14.445190
 20
121.560927
 30
0.0
 10
14.448090
 20
121.727536
 30
0.0
 10
14.495620
 20
121.727536
 30
0.0
 10
14.543150
 20
121.727536
 30
0.0
 10
14.543150
 20
121.450812
 30
0.0
 10
14.543150
 20
121.174088
 30
0.0
 10
14.488360
 20
121.177288
 30
0.0
 10
14.433570
 20
121.180488
 30
0.0
 10
14.352920
 20
121.374212
 30
0.0
  0
LWPOLYLINE
  5
3bc
100
AcDbEntity
  8
Image
 62
7
100
AcDbPolyline
 90
5
 70
0
 10
14.256310
 20
121.371682
 30
0.0
 10
14.256310
 20
121.175177
 30
0.0
 10
14.213820
 20
121.175177
 30
0.0
 10
14.171340
 20
121.175177
 30
0.0
 10
14.171430
 20
121.451367
 30
0.0
  0
LWPOLYLINE
  5
3bd
100
AcDbEntity
  8
Image
 62
7
100
AcDbPolyline
 90
8
 70
1
 10
14.628170
 20
121.451367
 30
0.0
 10
14.628170
 20
121.727536
 30
0.0
 10
14.686590
 20
121.727536
 30
0.0
 10
14.745010
 20
121.727536
 30
0.0
 10
14.745010
 20
121.451367
 30
0.0
 10
14.745010
 20
121.175198
 30
0.0
 10
14.686590
 20
121.175198
 30
0.0
 10
14.628170
 20
121.175198
 30
0.0
  0
SPLINE
  5
3be
100
AcDbEntity
  8
Image
 62
7
100
AcDbSpline
 70
8
 71
3
 72
8
 73
4
 74
0
 40
0
 40
0
 40
0
 40
0
 40
1
 40
1
 40
1
 40
1
 10
15.038018
 20
121.565397
 30
0.0
 10
15.073648
 20
121.479177
 30
0.0
 10
15.105948
 20
121.405483
 30
0.0
 10
15.109788
 20
121.401643
 30
0.0
  0
SPLINE
  5
3bf
100
AcDbEntity
  8
Image
 62
7
100
AcDbSpline
 70
8
 71
3
 72
8
 73
4
 74
0
 40
0
 40
0
 40
0
 40
0
 40
1
 40
1
 40
1
 40
1
 10
15.109788
 20
121.401643
 30
0.0
 10
15.113588
 20
121.397843
 30
0.0
 10
15.116688
 20
121.469543
 30
0.0
 10
15.116688
 20
121.561068
 30
0.0
  0
LWPOLYLINE
  5
3c0
100
AcDbEntity
  8
Image
 62
7
100
AcDbPolyline
 90
5
 70
0
 10
14.840608
 20
121.451890
 30
0.0
 10
14.840608
 20
121.728567
 30
0.0
 10
14.906918
 20
121.725367
 30
0.0
 10
14.973228
 20
121.722167
 30
0.0
 10
15.038018
 20
121.565397
 30
0.0
  0
SPLINE
  5
3c1
100
AcDbEntity
  8
Image
 62
7
100
AcDbSpline
 70
8
 71
3
 72
8
 73
4
 74
0
 40
0
 40
0
 40
0
 40
0
 40
1
 40
1
 40
1
 40
1
 10
15.021228
 20
121.367452
 30
0.0
 10
14.977498
 20
121.473004
 30
0.0
 10
14.938068
 20
121.561624
 30
0.0
 10
14.933598
 20
121.564385
 30
0.0
  0
SPLINE
  5
3c2
100
AcDbEntity
  8
Image
 62
7
100
AcDbSpline
 70
8
 71
3
 72
8
 73
4
 74
0
 40
0
 40
0
 40
0
 40
0
 40
1
 40
1
 40
1
 40
1
 10
14.933598
 20
121.564385
 30
0.0
 10
14.929198
 20
121.567185
 30
0.0
 10
14.925498
 20
121.480695
 30
0.0
 10
14.925498
 20
121.372272
 30
0.0
  0
LWPOLYLINE
  5
3c3
100
AcDbEntity
  8
Image
 62
7
100
AcDbPolyline
 90
9
 70
0
 10
15.116688
 20
121.561068
 30
0.0
 10
15.116688
 20
121.727478
 30
0.0
 10
15.159178
 20
121.727478
 30
0.0
 10
15.201658
 20
121.727478
 30
0.0
 10
15.201658
 20
121.451309
 30
0.0
 10
15.201658
 20
121.175140
 30
0.0
 10
15.151198
 20
121.175339
 30
0.0
 10
15.100738
 20
121.175539
 30
0.0
 10
15.021228
 20
121.367452
 30
0.0
  0
LWPOLYLINE
  5
3c4
100
AcDbEntity
  8
Image
 62
7
100
AcDbPolyline
 90
5
 70
0
 10
14.925498
 20
121.372272
 30
0.0
 10
14.925498
 20
121.175141
 30
0.0
 10
14.883018
 20
121.175141
 30
0.0
 10
14.840538
 20
121.175141
 30
0.0
 10
14.840608
 20
121.451890
 30
0.0
  0
ENDSEC
  0
SECTION
  2
OBJECTS
  0
DICTIONARY
  5
C
330
0
100
AcDbDictionary
  3
ACAD_GROUP
350
D
  3
ACAD_MLINESTYLE
350
17
  0
DICTIONARY
  5
D
330
C
100
AcDbDictionary
  0
DICTIONARY
  5
1A
330
C
100
AcDbDictionary
  0
DICTIONARY
  5
17
330
C
100
AcDbDictionary
  3
STANDARD
350
18
  0
DICTIONARY
  5
19
330
C
100
AcDbDictionary
  0
ENDSEC
  0
EOF
