<?xml version="1.0" standalone="no"?>
 <!DOCTYPE svg PUBLIC "-//W3C//DTD SVG 1.1//EN" 
 "http://www.w3.org/Graphics/SVG/1.1/DTD/svg11.dtd"> 
<svg
  xmlns:svg="http://www.w3.org/2000/svg"
  xmlns="http://www.w3.org/2000/svg"
  xmlns:xlink="http://www.w3.org/1999/xlink"
  version="1.1"
  width="44.1452mm" height="94.5896mm" viewBox="0.0000 0.0000 44.1452 94.5896">
<title>SVG Image created as MPPC_S13552_RigidFlex-B_Silkscreen.svg date 2023/10/22 14:22:37 </title>
  <desc>Image generated by PCBNEW </desc>
<g style="fill:#000000; fill-opacity:1.0000;stroke:#000000; stroke-opacity:1.0000;
stroke-linecap:round; stroke-linejoin:round;"
 transform="translate(0 0) scale(1 1)">
</g>
<g style="fill:#000000; fill-opacity:0.0; 
stroke:#000000; stroke-width:0.0000; stroke-opacity:1; 
stroke-linecap:round; stroke-linejoin:round;">
</g>
<g style="fill:#E8B2A7; fill-opacity:0.0; 
stroke:#E8B2A7; stroke-width:0.0000; stroke-opacity:1; 
stroke-linecap:round; stroke-linejoin:round;">
</g>
<g style="fill:#E8B2A7; fill-opacity:0.0; 
stroke:#E8B2A7; stroke-width:0.1800; stroke-opacity:1; 
stroke-linecap:round; stroke-linejoin:round;">
<path d="M35.0914 22.3198 A3.5000 3.5000 0.0 0 0 34.0516 24.8093" />
<path d="M34.0516 69.1794 A3.5000 3.5000 0.0 0 0 34.9086 71.4739" />
<path d="M12.1914 71.4739 A3.5000 3.5000 0.0 0 0 13.0484 69.1794" />
<path d="M13.0484 24.8093 A3.5000 3.5000 0.0 0 0 12.0086 22.3198" />
<path d="M10.4158 71.6740 A2.3000 2.3000 0.0 0 0 8.2500 73.9700" />
<path d="M38.8500 73.9700 A2.3000 2.3000 0.0 0 0 36.6842 71.6739" />
<path d="M36.5500 91.2701 A2.3000 2.3000 0.0 0 0 38.8500 88.9700" />
<path d="M8.2500 88.9700 A2.3000 2.3000 0.0 0 0 10.5500 91.2700" />
<path d="M9.7800 4.4201 A2.3000 2.3000 0.0 0 0 7.4800 6.7200" />
<path d="M39.6200 6.7200 A2.3000 2.3000 0.0 0 0 37.3200 4.4200" />
<path d="M37.3498 22.1199 A2.3000 2.3000 0.0 0 0 39.6200 19.8200" />
<path d="M7.4800 19.8200 A2.3000 2.3000 0.0 0 0 9.7502 22.1198" />
<path d="M10.4158 71.6739
L36.6842 71.6739
" />
<path d="M38.8500 73.9700
L38.8500 88.9700
" />
<path d="M10.5500 91.2700
L36.5500 91.2700
" />
<path d="M8.2500 73.9700
L8.2500 88.9700
" />
<path d="M9.7800 4.4200
L37.3200 4.4200
" />
<path d="M39.6200 6.7200
L39.6200 19.8200
" />
<path d="M9.7502 22.1198
L37.3498 22.1198
" />
<path d="M7.4800 6.7200
L7.4800 19.8200
" />
<path d="M34.0516 24.8093
L34.0516 69.1794
" />
<path d="M12.1914 71.4739
L34.9086 71.4739
" />
<path d="M12.0086 22.3198
L35.0914 22.3198
" />
<path d="M13.0484 24.8093
L13.0484 69.1794
" />
</g>
<g style="fill:#E8B2A7; fill-opacity:0.0; 
stroke:#E8B2A7; stroke-width:0.3000; stroke-opacity:1; 
stroke-linecap:round; stroke-linejoin:round;">
<g transform="rotate(-90.000000 25.5900 33.5100)">
<text x="25.5900" y="33.5100"
transform="scale(-1 1) translate(-51.180000 0)"
textLength="29.1500" font-size="4.0000" lengthAdjust="spacingAndGlyphs"
text-anchor="start" opacity="0">Flexible Part</text>
</g>
<g class="stroked-text"><desc>Flexible Part</desc>
<path d="M23.6514 35.2243
L23.6514 34.2243
" />
<path d="M25.2229 34.2243
L22.2229 34.2243
" />
<path d="M22.2229 34.2243
L22.2229 35.6529
" />
<path d="M25.2229 37.2243
L25.0800 36.9386
" />
<path d="M25.0800 36.9386
L24.7943 36.7957
" />
<path d="M24.7943 36.7957
L22.2229 36.7957
" />
<path d="M25.0800 39.5100
L25.2229 39.2243
" />
<path d="M25.2229 39.2243
L25.2229 38.6529
" />
<path d="M25.2229 38.6529
L25.0800 38.3671
" />
<path d="M25.0800 38.3671
L24.7943 38.2243
" />
<path d="M24.7943 38.2243
L23.6514 38.2243
" />
<path d="M23.6514 38.2243
L23.3657 38.3671
" />
<path d="M23.3657 38.3671
L23.2229 38.6529
" />
<path d="M23.2229 38.6529
L23.2229 39.2243
" />
<path d="M23.2229 39.2243
L23.3657 39.5100
" />
<path d="M23.3657 39.5100
L23.6514 39.6529
" />
<path d="M23.6514 39.6529
L23.9371 39.6529
" />
<path d="M23.9371 39.6529
L24.2229 38.2243
" />
<path d="M25.2229 40.6529
L23.2229 42.2243
" />
<path d="M23.2229 40.6529
L25.2229 42.2243
" />
<path d="M25.2229 43.3671
L23.2229 43.3671
" />
<path d="M22.2229 43.3671
L22.3657 43.2243
" />
<path d="M22.3657 43.2243
L22.5086 43.3671
" />
<path d="M22.5086 43.3671
L22.3657 43.5100
" />
<path d="M22.3657 43.5100
L22.2229 43.3671
" />
<path d="M22.2229 43.3671
L22.5086 43.3671
" />
<path d="M25.2229 44.7957
L22.2229 44.7957
" />
<path d="M23.3657 44.7957
L23.2229 45.0814
" />
<path d="M23.2229 45.0814
L23.2229 45.6529
" />
<path d="M23.2229 45.6529
L23.3657 45.9386
" />
<path d="M23.3657 45.9386
L23.5086 46.0814
" />
<path d="M23.5086 46.0814
L23.7943 46.2243
" />
<path d="M23.7943 46.2243
L24.6514 46.2243
" />
<path d="M24.6514 46.2243
L24.9371 46.0814
" />
<path d="M24.9371 46.0814
L25.0800 45.9386
" />
<path d="M25.0800 45.9386
L25.2229 45.6529
" />
<path d="M25.2229 45.6529
L25.2229 45.0814
" />
<path d="M25.2229 45.0814
L25.0800 44.7957
" />
<path d="M25.2229 47.9386
L25.0800 47.6529
" />
<path d="M25.0800 47.6529
L24.7943 47.5100
" />
<path d="M24.7943 47.5100
L22.2229 47.5100
" />
<path d="M25.0800 50.2243
L25.2229 49.9386
" />
<path d="M25.2229 49.9386
L25.2229 49.3671
" />
<path d="M25.2229 49.3671
L25.0800 49.0814
" />
<path d="M25.0800 49.0814
L24.7943 48.9386
" />
<path d="M24.7943 48.9386
L23.6514 48.9386
" />
<path d="M23.6514 48.9386
L23.3657 49.0814
" />
<path d="M23.3657 49.0814
L23.2229 49.3671
" />
<path d="M23.2229 49.3671
L23.2229 49.9386
" />
<path d="M23.2229 49.9386
L23.3657 50.2243
" />
<path d="M23.3657 50.2243
L23.6514 50.3671
" />
<path d="M23.6514 50.3671
L23.9371 50.3671
" />
<path d="M23.9371 50.3671
L24.2229 48.9386
" />
<path d="M25.2229 53.9386
L22.2229 53.9386
" />
<path d="M22.2229 53.9386
L22.2229 55.0814
" />
<path d="M22.2229 55.0814
L22.3657 55.3671
" />
<path d="M22.3657 55.3671
L22.5086 55.5100
" />
<path d="M22.5086 55.5100
L22.7943 55.6529
" />
<path d="M22.7943 55.6529
L23.2229 55.6529
" />
<path d="M23.2229 55.6529
L23.5086 55.5100
" />
<path d="M23.5086 55.5100
L23.6514 55.3671
" />
<path d="M23.6514 55.3671
L23.7943 55.0814
" />
<path d="M23.7943 55.0814
L23.7943 53.9386
" />
<path d="M25.2229 58.2243
L23.6514 58.2243
" />
<path d="M23.6514 58.2243
L23.3657 58.0814
" />
<path d="M23.3657 58.0814
L23.2229 57.7957
" />
<path d="M23.2229 57.7957
L23.2229 57.2243
" />
<path d="M23.2229 57.2243
L23.3657 56.9386
" />
<path d="M25.0800 58.2243
L25.2229 57.9386
" />
<path d="M25.2229 57.9386
L25.2229 57.2243
" />
<path d="M25.2229 57.2243
L25.0800 56.9386
" />
<path d="M25.0800 56.9386
L24.7943 56.7957
" />
<path d="M24.7943 56.7957
L24.5086 56.7957
" />
<path d="M24.5086 56.7957
L24.2229 56.9386
" />
<path d="M24.2229 56.9386
L24.0800 57.2243
" />
<path d="M24.0800 57.2243
L24.0800 57.9386
" />
<path d="M24.0800 57.9386
L23.9371 58.2243
" />
<path d="M25.2229 59.6529
L23.2229 59.6529
" />
<path d="M23.7943 59.6529
L23.5086 59.7957
" />
<path d="M23.5086 59.7957
L23.3657 59.9386
" />
<path d="M23.3657 59.9386
L23.2229 60.2243
" />
<path d="M23.2229 60.2243
L23.2229 60.5100
" />
<path d="M23.2229 61.0814
L23.2229 62.2243
" />
<path d="M22.2229 61.5100
L24.7943 61.5100
" />
<path d="M24.7943 61.5100
L25.0800 61.6529
" />
<path d="M25.0800 61.6529
L25.2229 61.9386
" />
<path d="M25.2229 61.9386
L25.2229 62.2243
" />
</g><text x="32.1900" y="14.0800"
transform="scale(-1 1) translate(-64.380000 0)"
textLength="19.2929" font-size="4.0000" lengthAdjust="spacingAndGlyphs"
text-anchor="start" opacity="0">Stiffener</text>
<g class="stroked-text"><desc>Stiffener</desc>
<path d="M31.6186 13.5700
L31.1900 13.7129
" />
<path d="M31.1900 13.7129
L30.4757 13.7129
" />
<path d="M30.4757 13.7129
L30.1900 13.5700
" />
<path d="M30.1900 13.5700
L30.0471 13.4271
" />
<path d="M30.0471 13.4271
L29.9043 13.1414
" />
<path d="M29.9043 13.1414
L29.9043 12.8557
" />
<path d="M29.9043 12.8557
L30.0471 12.5700
" />
<path d="M30.0471 12.5700
L30.1900 12.4271
" />
<path d="M30.1900 12.4271
L30.4757 12.2843
" />
<path d="M30.4757 12.2843
L31.0471 12.1414
" />
<path d="M31.0471 12.1414
L31.3329 11.9986
" />
<path d="M31.3329 11.9986
L31.4757 11.8557
" />
<path d="M31.4757 11.8557
L31.6186 11.5700
" />
<path d="M31.6186 11.5700
L31.6186 11.2843
" />
<path d="M31.6186 11.2843
L31.4757 10.9986
" />
<path d="M31.4757 10.9986
L31.3329 10.8557
" />
<path d="M31.3329 10.8557
L31.0471 10.7129
" />
<path d="M31.0471 10.7129
L30.3329 10.7129
" />
<path d="M30.3329 10.7129
L29.9043 10.8557
" />
<path d="M29.0471 11.7129
L27.9043 11.7129
" />
<path d="M28.6186 10.7129
L28.6186 13.2843
" />
<path d="M28.6186 13.2843
L28.4757 13.5700
" />
<path d="M28.4757 13.5700
L28.1900 13.7129
" />
<path d="M28.1900 13.7129
L27.9043 13.7129
" />
<path d="M26.9043 13.7129
L26.9043 11.7129
" />
<path d="M26.9043 10.7129
L27.0471 10.8557
" />
<path d="M27.0471 10.8557
L26.9043 10.9986
" />
<path d="M26.9043 10.9986
L26.7614 10.8557
" />
<path d="M26.7614 10.8557
L26.9043 10.7129
" />
<path d="M26.9043 10.7129
L26.9043 10.9986
" />
<path d="M25.9043 11.7129
L24.7614 11.7129
" />
<path d="M25.4757 13.7129
L25.4757 11.1414
" />
<path d="M25.4757 11.1414
L25.3329 10.8557
" />
<path d="M25.3329 10.8557
L25.0471 10.7129
" />
<path d="M25.0471 10.7129
L24.7614 10.7129
" />
<path d="M24.1900 11.7129
L23.0471 11.7129
" />
<path d="M23.7614 13.7129
L23.7614 11.1414
" />
<path d="M23.7614 11.1414
L23.6186 10.8557
" />
<path d="M23.6186 10.8557
L23.3329 10.7129
" />
<path d="M23.3329 10.7129
L23.0471 10.7129
" />
<path d="M20.9043 13.5700
L21.1900 13.7129
" />
<path d="M21.1900 13.7129
L21.7614 13.7129
" />
<path d="M21.7614 13.7129
L22.0471 13.5700
" />
<path d="M22.0471 13.5700
L22.1900 13.2843
" />
<path d="M22.1900 13.2843
L22.1900 12.1414
" />
<path d="M22.1900 12.1414
L22.0471 11.8557
" />
<path d="M22.0471 11.8557
L21.7614 11.7129
" />
<path d="M21.7614 11.7129
L21.1900 11.7129
" />
<path d="M21.1900 11.7129
L20.9043 11.8557
" />
<path d="M20.9043 11.8557
L20.7614 12.1414
" />
<path d="M20.7614 12.1414
L20.7614 12.4271
" />
<path d="M20.7614 12.4271
L22.1900 12.7129
" />
<path d="M19.4757 11.7129
L19.4757 13.7129
" />
<path d="M19.4757 11.9986
L19.3329 11.8557
" />
<path d="M19.3329 11.8557
L19.0471 11.7129
" />
<path d="M19.0471 11.7129
L18.6186 11.7129
" />
<path d="M18.6186 11.7129
L18.3329 11.8557
" />
<path d="M18.3329 11.8557
L18.1900 12.1414
" />
<path d="M18.1900 12.1414
L18.1900 13.7129
" />
<path d="M15.6186 13.5700
L15.9043 13.7129
" />
<path d="M15.9043 13.7129
L16.4757 13.7129
" />
<path d="M16.4757 13.7129
L16.7614 13.5700
" />
<path d="M16.7614 13.5700
L16.9043 13.2843
" />
<path d="M16.9043 13.2843
L16.9043 12.1414
" />
<path d="M16.9043 12.1414
L16.7614 11.8557
" />
<path d="M16.7614 11.8557
L16.4757 11.7129
" />
<path d="M16.4757 11.7129
L15.9043 11.7129
" />
<path d="M15.9043 11.7129
L15.6186 11.8557
" />
<path d="M15.6186 11.8557
L15.4757 12.1414
" />
<path d="M15.4757 12.1414
L15.4757 12.4271
" />
<path d="M15.4757 12.4271
L16.9043 12.7129
" />
<path d="M14.1900 13.7129
L14.1900 11.7129
" />
<path d="M14.1900 12.2843
L14.0471 11.9986
" />
<path d="M14.0471 11.9986
L13.9043 11.8557
" />
<path d="M13.9043 11.8557
L13.6186 11.7129
" />
<path d="M13.6186 11.7129
L13.3329 11.7129
" />
</g><text x="32.3900" y="83.4800"
transform="scale(-1 1) translate(-64.780000 0)"
textLength="19.2929" font-size="4.0000" lengthAdjust="spacingAndGlyphs"
text-anchor="start" opacity="0">Stiffener</text>
<g class="stroked-text"><desc>Stiffener</desc>
<path d="M31.8186 82.9700
L31.3900 83.1129
" />
<path d="M31.3900 83.1129
L30.6757 83.1129
" />
<path d="M30.6757 83.1129
L30.3900 82.9700
" />
<path d="M30.3900 82.9700
L30.2471 82.8271
" />
<path d="M30.2471 82.8271
L30.1043 82.5414
" />
<path d="M30.1043 82.5414
L30.1043 82.2557
" />
<path d="M30.1043 82.2557
L30.2471 81.9700
" />
<path d="M30.2471 81.9700
L30.3900 81.8271
" />
<path d="M30.3900 81.8271
L30.6757 81.6843
" />
<path d="M30.6757 81.6843
L31.2471 81.5414
" />
<path d="M31.2471 81.5414
L31.5329 81.3986
" />
<path d="M31.5329 81.3986
L31.6757 81.2557
" />
<path d="M31.6757 81.2557
L31.8186 80.9700
" />
<path d="M31.8186 80.9700
L31.8186 80.6843
" />
<path d="M31.8186 80.6843
L31.6757 80.3986
" />
<path d="M31.6757 80.3986
L31.5329 80.2557
" />
<path d="M31.5329 80.2557
L31.2471 80.1129
" />
<path d="M31.2471 80.1129
L30.5329 80.1129
" />
<path d="M30.5329 80.1129
L30.1043 80.2557
" />
<path d="M29.2471 81.1129
L28.1043 81.1129
" />
<path d="M28.8186 80.1129
L28.8186 82.6843
" />
<path d="M28.8186 82.6843
L28.6757 82.9700
" />
<path d="M28.6757 82.9700
L28.3900 83.1129
" />
<path d="M28.3900 83.1129
L28.1043 83.1129
" />
<path d="M27.1043 83.1129
L27.1043 81.1129
" />
<path d="M27.1043 80.1129
L27.2471 80.2557
" />
<path d="M27.2471 80.2557
L27.1043 80.3986
" />
<path d="M27.1043 80.3986
L26.9614 80.2557
" />
<path d="M26.9614 80.2557
L27.1043 80.1129
" />
<path d="M27.1043 80.1129
L27.1043 80.3986
" />
<path d="M26.1043 81.1129
L24.9614 81.1129
" />
<path d="M25.6757 83.1129
L25.6757 80.5414
" />
<path d="M25.6757 80.5414
L25.5329 80.2557
" />
<path d="M25.5329 80.2557
L25.2471 80.1129
" />
<path d="M25.2471 80.1129
L24.9614 80.1129
" />
<path d="M24.3900 81.1129
L23.2471 81.1129
" />
<path d="M23.9614 83.1129
L23.9614 80.5414
" />
<path d="M23.9614 80.5414
L23.8186 80.2557
" />
<path d="M23.8186 80.2557
L23.5329 80.1129
" />
<path d="M23.5329 80.1129
L23.2471 80.1129
" />
<path d="M21.1043 82.9700
L21.3900 83.1129
" />
<path d="M21.3900 83.1129
L21.9614 83.1129
" />
<path d="M21.9614 83.1129
L22.2471 82.9700
" />
<path d="M22.2471 82.9700
L22.3900 82.6843
" />
<path d="M22.3900 82.6843
L22.3900 81.5414
" />
<path d="M22.3900 81.5414
L22.2471 81.2557
" />
<path d="M22.2471 81.2557
L21.9614 81.1129
" />
<path d="M21.9614 81.1129
L21.3900 81.1129
" />
<path d="M21.3900 81.1129
L21.1043 81.2557
" />
<path d="M21.1043 81.2557
L20.9614 81.5414
" />
<path d="M20.9614 81.5414
L20.9614 81.8271
" />
<path d="M20.9614 81.8271
L22.3900 82.1129
" />
<path d="M19.6757 81.1129
L19.6757 83.1129
" />
<path d="M19.6757 81.3986
L19.5329 81.2557
" />
<path d="M19.5329 81.2557
L19.2471 81.1129
" />
<path d="M19.2471 81.1129
L18.8186 81.1129
" />
<path d="M18.8186 81.1129
L18.5329 81.2557
" />
<path d="M18.5329 81.2557
L18.3900 81.5414
" />
<path d="M18.3900 81.5414
L18.3900 83.1129
" />
<path d="M15.8186 82.9700
L16.1043 83.1129
" />
<path d="M16.1043 83.1129
L16.6757 83.1129
" />
<path d="M16.6757 83.1129
L16.9614 82.9700
" />
<path d="M16.9614 82.9700
L17.1043 82.6843
" />
<path d="M17.1043 82.6843
L17.1043 81.5414
" />
<path d="M17.1043 81.5414
L16.9614 81.2557
" />
<path d="M16.9614 81.2557
L16.6757 81.1129
" />
<path d="M16.6757 81.1129
L16.1043 81.1129
" />
<path d="M16.1043 81.1129
L15.8186 81.2557
" />
<path d="M15.8186 81.2557
L15.6757 81.5414
" />
<path d="M15.6757 81.5414
L15.6757 81.8271
" />
<path d="M15.6757 81.8271
L17.1043 82.1129
" />
<path d="M14.3900 83.1129
L14.3900 81.1129
" />
<path d="M14.3900 81.6843
L14.2471 81.3986
" />
<path d="M14.2471 81.3986
L14.1043 81.2557
" />
<path d="M14.1043 81.2557
L13.8186 81.1129
" />
<path d="M13.8186 81.1129
L13.5329 81.1129
" />
</g><g >
</g>
<g >
</g>
<g >
</g>
<g >
</g>
<g >
</g>
<g >
</g>
<g >
</g>
</g>
<g style="fill:#000000; fill-opacity:0.0; 
stroke:#000000; stroke-width:0.3000; stroke-opacity:1; 
stroke-linecap:round; stroke-linejoin:round;">
</g>
<g style="fill:#D0D2CD; fill-opacity:0.0; 
stroke:#D0D2CD; stroke-width:0.3000; stroke-opacity:1; 
stroke-linecap:round; stroke-linejoin:round;">
</g>
<g style="fill:#D0D2CD; fill-opacity:0.0; 
stroke:#D0D2CD; stroke-width:0.1800; stroke-opacity:1; 
stroke-linecap:round; stroke-linejoin:round;">
<path d="M9.7600 4.2200
L37.3000 4.2200
" />
<circle cx="36.5300" cy="81.4700" r="1.1250" /> 
<path d="M9.7600 4.2200 A2.5001 2.5001 0.0 0 0 7.2600 6.7200" />
<circle cx="9.7600" cy="19.8200" r="1.1250" /> 
<circle cx="10.5300" cy="81.4700" r="1.1250" /> 
<path d="M10.3494 71.4765 A2.5001 2.5001 0.0 0 0 8.0300 73.9700" />
<path d="M39.8000 6.7200
L39.8000 19.8200
" />
<path d="M12.0284 24.8093
L12.0284 69.1794
" />
<path d="M35.0316 69.1794 A2.5000 2.5000 0.0 0 0 36.2836 71.3456" />
<circle cx="9.7600" cy="6.7200" r="1.1250" /> 
<path d="M10.7764 71.3456 A2.4998 2.4998 0.0 0 0 12.0284 69.1794" />
<circle cx="37.3000" cy="6.7200" r="1.1250" /> 
<path d="M39.0300 73.9700 A2.5000 2.5000 0.0 0 0 36.7106 71.4765" />
<path d="M10.3494 71.4765 A0.9997 0.9997 0.0 0 0 10.7764 71.3456" />
<path d="M10.5300 91.4700
L36.5300 91.4700
" />
<path d="M8.0300 73.9700
L8.0300 88.9700
" />
<path d="M36.5300 91.4700 A2.4999 2.4999 0.0 0 0 39.0300 88.9700" />
<path d="M35.0316 24.8093
L35.0316 69.1794
" />
<path d="M12.0284 24.8093 A2.5001 2.5001 0.0 0 0 9.8209 22.3264" />
<path d="M8.0300 88.9700 A2.5000 2.5000 0.0 0 0 10.5300 91.4700" />
<path d="M36.2836 71.3456 A0.9997 0.9997 0.0 0 0 36.7106 71.4765" />
<path d="M37.3401 22.3197 A2.4999 2.4999 0.0 0 0 39.8000 19.8200" />
<path d="M7.2600 6.7200
L7.2600 19.8200
" />
<path d="M37.3401 22.3197 A1.0005 1.0005 0.0 0 0 37.2391 22.3264" />
<path d="M39.8000 6.7200 A2.5000 2.5000 0.0 0 0 37.3000 4.2200" />
<path d="M7.2600 19.8200 A2.5000 2.5000 0.0 0 0 9.7199 22.3197" />
<path d="M37.2391 22.3265 A2.5000 2.5000 0.0 0 0 35.0316 24.8093" />
<circle cx="37.3000" cy="19.8200" r="1.1250" /> 
<path d="M39.0300 73.9700
L39.0300 88.9700
" />
<path d="M9.8209 22.3264 A1.0013 1.0013 0.0 0 0 9.7199 22.3197" />
<g >
</g>
<g >
</g>
<g >
</g>
<g >
</g>
<g >
</g>
<g >
</g>
<g >
</g>
</g> 
</svg>
