<?xml version="1.0" encoding="UTF-8" standalone="no"?>
<!-- Created with Inkscape (http://www.inkscape.org/) -->

<svg
   version="1.1"
   id="svg1"
   width="860"
   height="2151"
   viewBox="0 0 860 2151"
   xmlns="http://www.w3.org/2000/svg"
   xmlns:svg="http://www.w3.org/2000/svg">
  <defs
     id="defs1" />
  <g
     id="g1">
    <path
       style="fill:#000000"
       d="m 474.70501,2024.9808 c 97.9604,-2.1649 175.0877,-10.2877 230.5684,-24.2829 35.7822,-9.0262 63.97581,-22.5176 79.5022,-38.044 7.78493,-7.785 10.59204,-13.2061 11.19626,-21.6223 l 0.46719,-6.5078 4.99983,-3.447 c 12.75349,-8.7926 20.5329,-18.7624 24.1481,-30.9472 1.4681,-4.9481 1.59336,-74.3976 1.46815,-814 -0.0753,-444.72458 -0.0586,-810.39023 0.037,-812.59023 0.46855,-10.77606 0.0635,-13.6897 -3.38749,-24.36454 -2.01817,-6.24281 -6.72057,-18.65683 -10.44978,-27.5867 -7.58298,-18.15798 -9.03618,-24.94401 -6.59355,-30.79006 1.81961,-4.35492 2.02514,-10.34309 0.3897,-11.35385 -0.84453,-0.52195 -0.99081,-6.36984 -0.54552,-21.80901 0.70204,-24.34179 0.38103,-25.74564 -7.91545,-34.61524 C 763.31089,85.30368 628.06878,63.611219 428.20498,63.611219 c -60.6695,0 -86.8452,0.763667 -136.5,3.98234 -100.9875,6.546106 -180.9693,21.844007 -215.509595,41.219961 -10.5994,5.94592 -21.1091,15.67414 -24.3852,22.57195 -2.4271,5.11046 -2.4447,5.36183 -2.0868,29.82319 0.2063,14.09733 0.8498,26.4844 1.5015,28.90478 2.2811,8.47119 -1.4695,26.90101 -9.094,44.68617 -5.6393,13.15476 -8.2782,22.10457 -10.3903,35.23976 -1.361,8.46384 -1.528,97.42249 -1.5316,815.61343 0,528.2157 0.3375,807.9145 0.9867,811.3376 2.3213,12.2404 9.1549,21.8427 23.6529,33.2362 l 6.3564,4.9953 v 5.593 c 0,7.857 2.9252,13.3194 11.9195,22.2576 15.4527,15.3565 42.687395,28.4275 77.885995,37.3806 44.771,11.3879 99.1032,18.3352 176.7595,22.6016 19.3579,1.0635 95.5519,3.0442 107.435,2.7928 3.575,-0.076 21.35,-0.4656 39.5,-0.8667 z m -158,-15.3643 c -73.8104,-4.6553 -124.7107,-11.6488 -168.4475,-23.1441 -22.5263,-5.9205 -46.884,-17.022 -60.973895,-27.7899 -5.1245,-3.9163 -13.0786,-12.8348 -13.0786,-14.6644 0,-0.4628 5.5125,1.7772 12.25,4.9777 40.949195,19.4526 93.340695,29.4246 181.249995,34.4985 82.504,4.7619 215.1341,6.5416 276,3.7036 115.8571,-5.4022 185.9302,-17.3898 229.86951,-39.3244 4.3283,-2.1606 8.1218,-3.6762 8.4301,-3.3679 1.2039,1.2039 -5.6396,9.1402 -12.1759,14.1201 -29.57811,22.5349 -77.02471,35.8881 -161.12371,45.346 -29.6581,3.3354 -62.8907,5.5921 -110,7.4697 -4.4,0.1754 -41.525,0.1913 -82.5,0.035 -53.7269,-0.2044 -81.4709,-0.7231 -99.5,-1.8603 z m 71,-35.5791 c -83.9398,-1.1213 -121.5464,-2.7169 -166.5,-7.0642 -59.7667,-5.7799 -98.8905,-14.977 -131.499995,-30.9126 -14.3174,-6.9966 -22.2553,-11.8004 -14,-8.4724 2.2,0.8869 8.2978,3.3368 13.5506,5.4444 32.552095,13.0604 93.529495,24.9233 151.449395,29.4638 59.0851,4.632 129.1021,6.9799 208.5,6.9918 81.3825,0.012 136.1357,-2.3323 187,-8.0075 57.3402,-6.3978 118.0725,-21.24 149.23933,-36.4722 8.90324,-4.3513 -0.33063,1.7423 -11.23932,7.417 -21.52591,11.1978 -46.23431,19.18 -83.61131,27.011 -32.5361,6.8168 -87.1442,11.4219 -161.3887,13.6098 -20.075,0.5916 -37.85,1.2101 -39.5,1.3743 -6.2878,0.6259 -34.3515,0.5205 -102,-0.3832 z m 324.3967,-44.4981 c -1.5524,-4.4 -10.9833,-32.3 -20.9576,-62 -9.9743,-29.7 -22.5532,-67.05 -27.9532,-83 -5.4,-15.95 -17.6986,-52.4 -27.3302,-81 -16.6064,-49.311 -41.9532,-124.5263 -104.2982,-309.5 -15.1082,-44.825 -35.5162,-105.35 -45.3512,-134.5 -9.835,-29.15 -18.1562,-54.128 -18.4914,-55.5068 -0.5398,-2.2196 0.1249,-2.9896 5.8034,-6.7231 8.1649,-5.3681 21.0684,-19.0018 25.9792,-27.4495 3.1696,-5.4523 4.422,-6.7196 7.5733,-7.6638 2.0767,-0.6221 4.9426,-2.3745 6.3687,-3.894 1.4262,-1.5195 3.6432,-3.4982 4.9267,-4.397 1.2836,-0.8988 3.2085,-3.2916 4.2776,-5.3174 1.6039,-3.0393 1.7502,-4.196 0.8368,-6.6158 l -1.1069,-2.9326 h 4.9888 c 3.9532,0 5.3768,0.4671 6.8577,2.25 7.0424,8.4784 8.8024,10.1958 11.682,11.399 1.7785,0.743 6.428,1.351 10.3324,1.351 6.0669,0 7.5844,0.3704 10.4391,2.5478 1.8372,1.4013 5.0697,2.8097 7.1833,3.1299 2.1136,0.3202 5.0697,1.7226 6.569,3.1164 3.8359,3.5659 12.5005,4.7143 19.274,2.5544 2.75,-0.8769 5.3097,-1.8765 5.6882,-2.2214 0.3785,-0.3449 0.2223,-2.8771 -0.3471,-5.6271 -0.853,-4.1191 -2.1194,-6.1137 -7.1883,-11.3216 -7.6135,-7.8223 -8.95,-8.6123 -11.7604,-6.9513 -1.7478,1.033 -2.2414,1.0303 -2.6187,-0.014 -1.2647,-3.5001 -5.5855,-7.2131 -8.394,-7.2131 -3.5009,0 -4.3047,-1.5726 -3.1323,-6.1281 0.73,-2.8365 1.3747,-3.4217 4.0602,-3.6853 2.9624,-0.2907 3.1924,-0.093 3.1924,2.7459 v 3.0592 l 117.25,0.2542 117.24999,0.2541 0.2513,379.9099 0.25131,379.9099 -2.49142,4.2513 c -5.53397,9.443 -20.78187,19.9411 -41.20147,28.3671 -15.62731,6.4484 -49.73171,17.071 -53.70011,16.7261 -1.4134,-0.1228 -2.6025,-2.1827 -4.7129,-8.1643 z m -309.8967,-728.6248 c -10.8449,-2.4703 -24.2862,-9.0662 -29.5,-14.4765 -2.2,-2.2829 -7.2633,-8.9195 -11.2518,-14.7481 l -7.2518,-10.5974 2.7518,-1.4061 c 1.5135,-0.7734 4.3268,-1.734 6.2518,-2.1346 1.925,-0.4006 4.4069,-1.5591 5.5154,-2.5744 1.4089,-1.2905 2.4623,-1.5635 3.5,-0.9074 1.945,1.2298 6.9491,1.2206 10.5854,-0.019 1.5945,-0.5437 5.9905,-1.4174 9.7688,-1.9415 6.1805,-0.8573 7.1413,-0.7519 9.5787,1.0501 1.9743,1.4597 18.3946,6.6181 21.8369,6.8601 0.1568,0.011 -0.1681,-0.8269 -0.722,-1.8619 -0.9461,-1.7679 -0.4457,-1.9066 8.252,-2.287 7.3363,-0.3208 10.0032,-0.8648 12.8423,-2.6194 3.3853,-2.0923 3.8149,-2.1327 7.7838,-0.7324 2.3104,0.8152 8.0439,1.9597 12.7412,2.5434 7.3315,0.911 8.8834,0.8365 10.9633,-0.5263 2.2447,-1.4708 2.6007,-1.4476 4.8414,0.3149 1.3302,1.0463 4.4763,2.4785 6.9914,3.1827 2.5151,0.7042 4.7778,1.612 5.0283,2.0172 0.7011,1.1345 -6.9868,12.5179 -12.276,18.177 -15.4212,16.4997 -41.0497,26.6677 -63.2309,25.0864 -3.575,-0.2548 -10.325,-1.3346 -15,-2.3994 z m 63.0572,-57.9822 c 0.9679,-1.8085 0.6628,-2.5866 -2.1538,-5.4926 -3.9416,-4.0667 -6.1222,-4.8888 -8.9513,-3.3748 -3.0201,1.6164 -3.1112,0.9824 -0.4839,-3.3707 l 2.3134,-3.8332 1.8248,3.0892 c 1.0036,1.699 2.104,3.0891 2.4452,3.0891 0.3413,0 1.3826,-2.7412 2.3141,-6.0915 l 1.6936,-6.0916 -2.6159,-5.166 c -1.4387,-2.8414 -3.2487,-6.0317 -4.0223,-7.0897 -1.3728,-1.8774 -1.4696,-1.8652 -4.038,0.5076 l -2.6315,2.4312 0.7561,-2.5 c 3.096,-10.2367 25.9259,-32 33.5683,-32 1.6957,0 6.66,2.5819 13.0786,6.8022 13.9727,9.1871 13.3201,8.8519 11.3341,5.8209 -2.2017,-3.3603 -0.8768,-3.3691 2.6215,-0.017 l 2.7197,2.6057 -6.2784,18.4851 c -4.4648,13.1453 -7.0401,19.2467 -8.915,21.1216 l -2.6365,2.636 v -3.0722 c 0,-3.2189 -1.7415,-5.2496 -6.08,-7.09 -1.9892,-0.8439 -3.2263,-2.8667 -5.4025,-8.8332 l -2.8224,-7.7388 4.2856,-12.3936 c 2.3572,-6.8165 4.0567,-12.6226 3.7768,-12.9025 -1.0945,-1.0945 -11.4752,4.4515 -14.0422,7.5023 -3.1843,3.7843 -3.5592,8.8688 -1.2318,16.7061 1.0954,3.6886 1.2262,5.8927 0.5,8.4249 -0.5409,1.8861 -0.9835,4.7198 -0.9835,6.2972 0,2.7512 -0.1465,2.8404 -3.6004,2.1924 -6.5578,-1.2302 -9.6197,4.5263 -5.4914,10.324 1.0495,1.4739 1.8769,3.7933 1.8387,5.1543 -0.038,1.361 0.2763,3.2621 0.6988,4.2246 0.6229,1.419 0.2684,1.75 -1.8739,1.75 -2.377,0 -2.529,-0.2114 -1.5146,-2.107 z m -45.6878,-2.143 c -4.7554,-4.3203 -6.7666,-8.5101 -9.7698,-20.3529 -5.5603,-21.9266 -8.4598,-26.1984 -27.9798,-41.2236 -7.7659,-5.9777 -15.4046,-11.537 -16.9748,-12.354 l -2.855,-1.4854 5.355,-4.5444 c 16.445,-13.9557 33.438,-20.2888 54.355,-20.2574 20.9341,0.032 38.5417,6.7193 53.692,20.3937 l 6.0116,5.4261 -3.8518,1.968 c -9.9276,5.0724 -25.4971,19.7445 -31.5171,29.7005 -2.6855,4.4413 -4.4583,9.3191 -6.3614,17.5026 -2.761,11.873 -5.2244,16.8749 -12.0097,24.3853 -2.033,2.2503 -3.881,4.0915 -4.1066,4.0915 -0.2257,0 -2.0201,-1.4625 -3.9876,-3.25 z m 28.3661,-0.3478 c -0.8011,-0.8011 0.2474,-3.4022 1.3715,-3.4022 0.4911,0 0.893,0.9 0.893,2 0,1.9492 -1.0607,2.606 -2.2645,1.4022 z m -69.7355,-0.9176 c 0,-0.8334 1.6387,-3.9834 3.6416,-7 4.663,-7.0231 7.8102,-7.2308 9.8306,-0.6488 0.6374,2.0765 0.5021,2.2208 -1.2184,1.3 -1.6263,-0.8703 -2.6334,-0.3248 -6.3029,3.4142 -4.6419,4.7298 -5.9509,5.3753 -5.9509,2.9346 z m 18,-1.0436 c 0,-0.8575 0.45,-1.2809 1,-0.941 0.55,0.3399 1,1.0415 1,1.559 0,0.5176 -0.45,0.941 -1,0.941 -0.55,0 -1,-0.7016 -1,-1.559 z m -112.5313,0.2198 c -0.017,-0.088 0.1336,-3.1983 0.3353,-6.9108 0.3459,-6.3685 0.5031,-6.75 2.7813,-6.75 2.3052,0 2.4147,-0.2946 2.4147,-6.5 0,-5.4983 -0.267,-6.5 -1.7322,-6.5 -3.3946,0 6.1768,-5.3717 15.2007,-8.531 4.9673,-1.7391 13.6358,-5.481 19.2633,-8.3155 5.6275,-2.8344 10.5132,-5.1535 10.857,-5.1535 0.3438,0 0.3661,0.675 0.049,1.5 -0.3166,0.825 -0.3757,1.5 -0.1313,1.5 0.3674,0 12.1989,-7.7081 23.3999,-15.2447 1.4262,-0.9596 3.1003,-1.7471 3.7204,-1.75 2.1638,-0.01 28.2959,21.0143 31.7624,25.5542 3.3184,4.346 7.3748,14.0093 6.3224,15.0617 -0.2704,0.2703 -2.6621,-1.5588 -5.315,-4.0648 -2.6529,-2.506 -5.0841,-4.5564 -5.4025,-4.5564 -0.3185,0 -2.2388,2.8372 -4.2673,6.3048 -2.6124,4.4658 -4.8999,6.9859 -7.8423,8.6396 l -4.154,2.3347 0.6757,-4.5057 c 0.455,-3.0343 0.1771,-5.9372 -0.851,-8.8895 -1.9914,-5.7185 -1.9418,-6.5432 0.273,-4.5389 1.0058,0.9103 2.1308,1.655 2.5,1.655 0.3692,0 0.6712,-3.448 0.6712,-7.6621 0,-6.4 -0.4182,-8.3758 -2.5389,-11.9945 -3.4405,-5.8708 -7.2433,-7.726 -14.0848,-6.8712 -2.9396,0.3673 -5.6098,1.0966 -5.9337,1.6207 -0.3239,0.5241 2.8606,4.7526 7.0768,9.3966 l 7.6657,8.4436 -3.0477,5.3268 c -1.6762,2.9297 -3.3644,7.3074 -3.7515,9.7282 -0.4889,3.0578 -1.8328,5.6395 -4.402,8.4567 -2.0341,2.2304 -4.1268,5.373 -4.6505,6.9836 l -0.9523,2.9285 -3.3579,-4.1785 c -2.9131,-3.6249 -3.878,-4.1784 -7.2842,-4.1784 -3.0852,0 -4.0382,0.4284 -4.4492,2 -0.5849,2.2366 -4.5765,2.5665 -16.2675,1.3445 l -6.2711,-0.6554 0.5102,-6.3561 c 0.2806,-3.4959 0.2241,-6.5168 -0.1256,-6.7132 -0.3497,-0.1964 -2.3031,-0.6578 -4.341,-1.0254 -3.4506,-0.6223 -3.8228,-0.4423 -5.4157,2.6187 -0.9407,1.8078 -2.3229,6.1897 -3.0715,9.7377 -1.9559,9.2703 -5.4574,12.5219 -12.3076,11.4292 -1.925,-0.3071 -3.5141,-0.6307 -3.5313,-0.7192 z m 267.6185,-3.445 c -2.817,-2.1032 -4.2611,-5.5593 -6.0913,-14.5781 l -1.1896,-5.8623 -4.1232,0.6593 c -5.0494,0.8074 -5.6484,1.6787 -5.6678,8.2443 l -0.015,5.1791 -9.25,0.3213 c -5.0875,0.1767 -9.4077,0.2384 -9.6004,0.1372 -0.1927,-0.1013 0.816,-4.1176 2.2417,-8.9253 1.4257,-4.8077 2.4463,-8.887 2.268,-9.0653 -0.1782,-0.1782 -1.553,1.813 -3.055,4.425 l -2.7309,4.749 0.617,-10 c 0.3393,-5.5 0.8747,-11.6837 1.1897,-13.7416 l 0.5728,-3.7416 4.1235,0.6321 c 2.268,0.3476 5.9236,1.9077 8.1236,3.4668 5.8732,4.1622 11.2949,6.5826 17.5325,7.8268 3.6316,0.7244 7.5062,2.5038 11.2769,5.1787 6.4147,4.5507 6.1594,3.3014 3.5085,17.1645 -0.8338,4.3603 -0.8143,6.4267 0.079,8.3872 l 1.1853,2.6015 -4.2045,-0.564 c -2.3125,-0.3102 -5.3681,-1.4327 -6.7904,-2.4946 z m -151.5038,-3.5727 c 0.6429,-1.6754 2.4166,-2.2942 2.4166,-0.8431 0,0.9729 -2.231,3.3024 -2.7069,2.8265 -0.1871,-0.1872 -0.056,-1.0797 0.2903,-1.9834 z m -127.1876,-2.3723 c 1.0165,-1.0165 1.8553,0.5139 1.0212,1.8634 -0.63,1.0194 -0.8656,1.0202 -1.2043,0 -0.2316,-0.6947 -0.1492,-1.5351 0.1831,-1.8674 z M 43.205015,724.03937 c 0,-213.4 0.169,-388 0.3755,-388 0.2066,0 2.7994,1.07191 5.7618,2.38202 23.1418,10.23441 76.541295,22.6833 123.136195,28.70645 5.3755,0.69487 10.156,1.74673 10.6235,2.33746 0.4674,0.59074 6.3386,18.39907 13.0472,39.57407 6.7086,21.175 14.161,44.575 16.5609,52 2.4,7.425 10.0463,31.5 16.9917,53.5 6.9455,22 14.5909,46.075 16.9898,53.5 2.3989,7.425 5.7045,17.775 7.3458,23 6.1454,19.56469 22.4791,70.98486 26.6825,84 2.3981,7.425 10.0428,31.5 16.9882,53.5 6.9455,22 14.5972,46.075 17.0038,53.5 13.4567,41.51697 28.5829,90.24349 28.1491,90.67732 -0.2752,0.27516 -2.3962,0.92627 -4.7135,1.44693 -19.0689,4.2845 -32.5389,22.99015 -30.548,42.42184 0.7805,7.61824 2.6206,13.11898 6.081,18.17848 l 2.5822,3.77543 -2.2788,1.44014 c -5.3198,3.36185 -13.5125,12.80044 -15.2849,17.60926 -1.0035,2.72283 -2.2002,5.3781 -2.6593,5.9006 -0.4591,0.5225 -0.8347,-7.69993 -0.8347,-18.27207 v -19.22206 l -18.75,0.27206 -18.75,0.27207 -0.5374,30 c -0.2956,16.5 -0.6331,30.11911 -0.75,30.2647 -0.117,0.14558 -1.6751,1.1564 -3.4626,2.24626 -4.5145,2.7525 -9.9493,2.5815 -13.4443,-0.42302 l -2.8057,-2.41205 -0.5,-29.83795 -0.5,-29.83794 -18.6716,-0.27178 -18.6716,-0.27177 -0.3284,30.27177 c -0.1806,16.64948 0.012,32.2736 0.4285,34.72026 3.1838,18.71275 25.1172,34.02195 48.7431,34.02195 8.8591,0 17.9438,-2.3064 26.2245,-6.6578 12.5931,-6.6174 20.0977,-16.3931 21.5817,-28.1127 l 0.7217,-5.69993 2.275,6.20946 c 3.6466,9.95327 11.8871,19.08637 21.6971,24.04717 9.699,4.9047 13.7386,5.5119 40.8645,6.1423 l 25.8646,0.6011 1.8707,5.9999 c 1.0289,3.3 1.8773,6.4624 1.8854,7.0275 0.01,0.5651 -2.9964,2.3392 -6.6767,3.9426 -13.4725,5.8692 -27.1976,17.1161 -37.0771,30.3824 -3.8003,5.1032 -4.865,5.7704 -22.8587,14.3252 -10.38,4.9351 -21.5727,9.8355 -24.8727,10.8899 -3.3,1.0545 -8.7,3.5025 -12,5.4401 -12.404,7.2832 -17.2256,8.8206 -18.2273,5.812 -0.2161,-0.6492 2.5418,-4.3784 6.1288,-8.287 7.4491,-8.1172 8.8779,-12.1265 6.2702,-17.595 -0.876,-1.8369 -2.717,-4.0765 -4.0911,-4.9768 -1.9581,-1.283 -19.8894,-8.4609 -21.1363,-8.4609 -0.156,0 -1.0494,2.3055 -1.9853,5.1233 -2.1845,6.5769 -0.9191,11.3876 4.1708,15.8566 l 3.6052,3.1654 -2.5034,2.6773 c -4.2078,4.5004 -5.9409,8.9496 -5.57,14.2992 l 0.3384,4.8794 -105.25,-6e-4 -105.249995,-6e-4 z m 147.749995,296.31313 3.25,-0.4398 v -75.36411 -75.36406 l -2.6349,-2.07258 c -2.364,-1.85957 -3.9946,-2.07258 -15.8651,-2.07258 -11.8705,0 -13.5011,0.21301 -15.8652,2.07258 l -2.6348,2.07258 v 73.31664 c 0,70.66533 0.069,73.40203 1.9093,75.67743 1.8234,2.2545 2.51,2.3665 15.25,2.4872 7.3374,0.07 14.8032,-0.072 16.5907,-0.3133 z m -23.75,-77.81313 v -67.5 h 8.5 8.5 v 67.5 67.50003 h -8.5 -8.5 z m -20,2.63334 c 0,-72.23606 -0.068,-74.99609 -1.9094,-77.27256 -1.7951,-2.21942 -2.6692,-2.38076 -14.5987,-2.69443 -13.7187,-0.36073 -16.5097,-0.006 -18.922,2.40658 -1.3973,1.39726 -1.5699,9.42575 -1.5699,72.9985 0,62.8254 -0.1807,71.4286 -1.5,71.4286 -0.825,0 -1.5,0.45 -1.5,1 0,0.55 0.6451,1 1.4336,1 0.8205,0 1.5688,1.176 1.75,2.75 l 0.3164,2.75 18.25,0.2725 18.25,0.2726 z m -27,-2.53334 v -67.4 h 8.5 8.5 v 67.4 67.40003 h -8.5 -8.5 z m 460,70.73693 c -3.025,-0.8218 -7.3,-2.5479 -9.5,-3.8358 -4.0596,-2.3764 -13.2389,-11.12788 -12.4377,-11.85796 0.2407,-0.21932 3.8168,-1.9494 7.9469,-3.84463 l 7.5091,-3.44587 4.7823,3.78811 c 9.6459,7.64055 19.8808,7.67555 28.7332,0.0983 5.8467,-5.00456 7.6342,-9.2716 7.117,-16.98907 l -0.1508,-2.25001 h -30.141 -30.1409 l 0.5277,-8.45955 c 0.9286,-14.88408 8.2813,-26.7649 20.1118,-32.4974 27.0309,-13.09796 57.6773,2.52061 62.6365,31.92193 4.5335,26.87781 -19.02,51.86705 -46.4941,49.32825 -2.75,-0.2541 -7.475,-1.1345 -10.5,-1.9563 z m 34.6431,-48.84921 c 1.3641,-3.55496 -0.7848,-10.6388 -4.4661,-14.72189 -7.0425,-7.81133 -15.1334,-9.58516 -23.8676,-5.23272 -6.7504,3.36384 -10.505,8.77969 -11.1053,16.01889 l -0.4518,5.448 h 19.6552 c 16.6198,0 19.7449,-0.23355 20.2356,-1.51228 z m -129.2116,49.01211 c -2.7123,-0.825 -8.3065,-4.0151 -12.4315,-7.0891 l -7.5,-5.5889 -0.2999,5.5891 -0.2999,5.5891 h -10.4501 -10.4501 v -69.50003 -69.5 h 10.5 10.5 l 0.015,34.25 c 0.01,18.8375 0.3748,34.81632 0.8142,35.5085 0.5845,0.92063 2.3327,0.0675 6.5119,-3.17767 8.2009,-6.36815 13.344,-8.08454 24.1586,-8.06243 7.7543,0.0159 9.7767,0.39747 14.6118,2.75724 14.6322,7.14126 23.7274,23.79162 22.6274,41.42348 -0.8689,13.92755 -8.8148,27.74461 -19.5849,34.05631 -8.7302,5.1163 -19.5684,6.5292 -28.7228,3.7444 z m 9.6594,-15.01499 c 5.9549,-1.88414 13.1371,-8.26221 16.0422,-14.2461 1.7421,-3.58838 2.2947,-6.43803 2.2764,-11.73874 -0.067,-19.25875 -15.8437,-31.64472 -33.5511,-26.33944 -5.5769,1.67087 -11.3161,7.03162 -14.5041,13.54757 -10.1841,20.81557 8.6951,45.4342 29.7366,38.77671 z m -256.6573,15.43139 c -12.4804,-2.2796 -24.4696,-10.3776 -28.4972,-19.24817 -1.7066,-3.75865 -1.8947,-6.84854 -1.9145,-31.45699 l -0.022,-27.28894 8.75,0.28894 8.75,0.28893 0.5,26.15972 0.5,26.15973 3.0951,3.84027 c 4.4799,5.55858 9.8188,8.30401 16.1871,8.32381 8.5484,0.027 15.3188,-3.69676 19.0628,-10.48353 1.3758,-2.49369 1.7395,-7.30362 2.1551,-28.5 l 0.5,-25.5 8.75,-0.28893 8.75,-0.28894 -0.01,27.28894 c -0.01,26.48269 -0.079,27.43665 -2.3431,32.28893 -4.0516,8.68203 -13.7753,15.55863 -25.6472,18.13763 -7.1207,1.5468 -11.2809,1.6093 -18.5663,0.2786 z m 480.3164,-3.9091 -2.75,-0.01 v -57.60901 -57.609 l -14.75,0.40462 c -16.7747,0.46016 -20.0536,1.53288 -26.5017,8.67017 -12.7198,14.07933 -2.1162,37.84111 17.0017,38.09931 l 3.25,0.0439 v 13.57469 13.57468 l -13.1205,20.42532 -13.1204,20.42532 h -10.9477 -10.9476 l 1.9141,-2.75 c 1.0528,-1.5125 8.8861,-12.65001 17.4073,-24.75001 8.5212,-12.1 16.2613,-23.19022 17.2001,-24.64493 l 1.707,-2.64494 -7.2962,-2.77105 c -9.4856,-3.60259 -13.5455,-6.21135 -18.5964,-11.94948 -6.0523,-6.87577 -8.4578,-14.07542 -8.0154,-23.9896 0.6264,-14.03884 7.8263,-24.72963 20.8157,-30.90819 l 6.5,-3.09181 28.25,-0.30712 28.25,-0.30712 v 64.70173 64.70172 l -6.75,-0.6375 c -3.7125,-0.3506 -7.9875,-0.6407 -9.5,-0.6446 z m -392.9013,-3.6584 c -8.156,-3.8642 -14.2031,-9.74042 -17.7008,-17.20077 -2.2172,-4.72933 -2.6463,-7.03048 -2.6382,-14.14796 0.016,-14.08158 5.1563,-21.90913 19.2433,-29.30453 3.9858,-2.09249 7.247,-4.05734 7.247,-4.36634 0,-0.309 -2.4598,-3.21865 -5.4661,-6.46588 -4.2514,-4.59193 -5.9182,-7.36752 -7.5,-12.48899 -2.5159,-8.14535 -2.5331,-10.59207 -0.1292,-18.31587 3.6747,-11.807 12.4213,-18.85061 26.0953,-21.01461 3.575,-0.56577 16.9625,-1.03207 29.75,-1.03623 l 23.25,-0.008 v 64.03882 64.03886 l -32.75,-0.2889 -32.75,-0.2888 z m 53.1513,-59.19841 v -49.84968 l -9.75,-0.62444 c -9.9875,-0.63966 -20.5103,0.32237 -24.0094,2.195 -5.0087,2.68058 -10.2295,11.42255 -10.2295,17.1288 0,3.88124 2.4514,9.5062 5.7192,13.12323 4.5993,5.09088 6.4823,6.05513 13.245,6.78253 l 5.5247,0.59424 0.2938,7.25 0.2938,7.25 -8.7938,0.022 c -10.1072,0.0252 -14.8871,1.7241 -19.9931,7.10593 -8.755,9.22785 -8.4591,22.74898 0.6993,31.94742 6.0306,6.05698 9.8451,6.92465 30.4428,6.92465 h 16.5572 z m -35.9064,38.54324 c -9.6031,-3.36489 -10.7036,-17.30218 -1.7951,-22.73404 2.7142,-1.65492 5.0661,-1.95261 15.4515,-1.95578 l 12.25,-0.004 v 13 13 l -11.25,-0.0564 c -6.1875,-0.0311 -12.7829,-0.59355 -14.6564,-1.25 z m 7.0232,-61.32425 c -1.2804,-0.89688 -2.9616,-3.14688 -3.7359,-5 -1.2175,-2.91391 -1.2102,-3.84207 0.054,-6.86707 1.2582,-3.01132 5.8992,-6.64603 6.9137,-5.41468 0.4161,0.50513 5.6517,17.46573 5.6517,18.30882 0,1.28994 -6.6774,0.5179 -8.8832,-1.02707 z M 161.92331,352.47912 c -47.351,-7.04077 -93.332895,-18.65404 -112.831395,-28.49684 l -5.8869,-2.9717 0.031,-19.73561 c 0.045,-28.54106 2.27,-42.07223 9.6598,-58.7356 4.473,-10.08609 8.8667,-22.89504 9.8123,-28.60516 1.0075,-6.08482 1.2015,-6.22196 4.8575,-3.43345 13.0094,9.92277 53.107195,23.2725 94.639495,31.50825 8.525,1.69049 16.5125,3.29746 17.75,3.57104 l 2.25,0.49742 v 54.48095 c 0,48.262 -0.1749,54.48095 -1.5317,54.48095 -0.8425,0 -9.28,-1.15211 -18.75,-2.56025 z m 208.7817,-106.45586 c -96.2439,-3.18042 -178.0701,-12.93739 -238,-28.37917 -20.1,-5.17902 -40.082495,-12.21352 -50.474795,-17.7687 -17.5053,-9.35748 -22.0252,-15.20662 -22.0252,-28.50221 v -7.50187 l 3.75,2.92599 c 29.0766,22.68745 107.512395,41.74762 210.749995,51.213 94.6525,8.67825 197.455,9.20906 289.5,1.49482 115.3537,-9.66774 199.05781,-29.11958 228.74999,-53.15879 l 4.25,-3.44086 v 8.00793 c 0,4.40437 -0.45,8.28605 -1,8.62597 -0.55,0.33992 -1,1.79361 -1,3.23043 0,5.4037 -12.42608,14.41709 -30.22428,21.92338 -70.13061,29.57737 -233.06751,46.65727 -394.27571,41.33008 z m 42.5,-40.56144 c 6.325,-0.72371 13.525,-1.82121 16,-2.4389 5.2026,-1.29842 19.0325,-7.20418 37.5358,-16.02879 14.5402,-6.9346 21.0174,-9.38673 27.5198,-10.4185 5.1983,-0.82485 11.6491,-2.50199 58.0372,-15.08915 46.9878,-12.74988 56.9814,-15.85124 58.3108,-18.096 2.8264,-4.77225 3.353,-12.37702 1.1495,-16.60111 -0.789,-1.5125 -1.0308,-2.75 -0.5374,-2.75 2.1545,0 31.8407,6.46819 46.1851,10.06308 40.0553,10.03837 93.2838,28.72565 91.2402,32.03229 -0.8593,1.39037 -30.7997,10.80594 -45.7106,14.37492 -69.5508,16.64728 -166.7936,26.18018 -267.7304,26.24611 -32.797,0.0214 -33.2587,-0.006 -22,-1.29395 z m -95.0774,-1.9479 c -83.2726,-5.66517 -158.0048,-18.38719 -201.7123,-34.33845 -12.4265,-4.5351 -12.397,-4.50224 -6.6417,-7.41048 9.5671,-4.83437 32.1674,-12.6486 52.4314,-18.12852 57.1489,-15.45463 133.1263,-26.82288 211.5,-31.64605 23.9596,-1.47449 26.1381,-1.23424 17.5,1.92988 -8.7458,3.20356 -23.4439,10.59265 -29.1307,14.64477 -6.8766,4.89986 -8.0062,5.38318 -38.3693,16.41812 -15.4,5.59685 -29.4805,11.16161 -31.29,12.36614 -4.1692,2.77531 -8.9757,9.9019 -9.8359,14.58379 -0.3644,1.98344 -1.1295,3.90838 -1.7002,4.27765 -1.6748,1.0837 1.0035,8.3522 4.2878,11.63651 7.4056,7.40552 28.7695,12.8969 62.5383,16.07482 l 9,0.84697 -8.0774,0.13515 c -4.4426,0.0743 -18.1676,-0.5513 -30.5,-1.3903 z m 47.5774,-12.49426 c -25.1598,-1.79435 -40.1645,-4.24667 -55.6104,-9.08876 -15.9364,-4.99587 -19.374,-9.77224 -11.0862,-15.40395 4.5937,-3.12146 5.1966,-3.10892 5.1966,0.10813 0,9.7242 11.4494,15.07173 40.5,18.91576 30.2974,4.00902 62.3165,2.85698 85.0965,-3.06173 8.9375,-2.32217 30.0187,-11.1679 29.0127,-12.17385 -0.2267,-0.22674 -4.5304,0.34457 -9.5638,1.26956 -5.0333,0.925 -9.3719,1.46143 -9.6412,1.19206 -0.2694,-0.26936 5.942,-2.63018 13.803,-5.24625 17.9128,-5.96121 19.7928,-6.89846 19.7928,-9.86759 0,-2.31004 0.1011,-2.32875 15.75,-2.91196 23.8265,-0.88799 41.7153,-4.69774 51.6429,-10.99831 9.5179,-6.04058 10.766,-15.85461 2.8952,-22.76528 l -3.684,-3.23457 4.948,0.71583 c 10.4075,1.50569 39.3082,7.62435 47.2175,9.9966 9.3994,2.81914 10.7448,3.4682 9.5675,4.61562 -1.5534,1.51399 -83.3437,24.03649 -105.1156,28.94559 -15.1446,3.41478 -22.0186,5.8801 -36.0828,12.9409 -11.7859,5.91707 -29.4702,13.3044 -36.1387,15.09639 -5.3003,1.42432 -29.8971,2.92862 -38.5,2.35461 -3.3,-0.22019 -12.3,-0.84965 -20,-1.3988 z m -9,-9.01741 c -30.0589,-2.54621 -47.6719,-7.99131 -47.4366,-14.66513 0.052,-1.47039 0.2236,-1.39994 0.9436,0.38688 0.4841,1.20154 1.7085,2.62792 2.7208,3.16971 2.8065,1.502 17.9931,4.73743 35.7722,7.62109 27.5716,4.47196 29.4888,5.30771 8,3.48745 z m -60.5,-1.31768 c -2.475,-1.26416 -5.1594,-3.4694 -5.9652,-4.90055 -1.2913,-2.29329 -1.2854,-2.98178 0.05,-5.80144 l 1.5152,-3.19934 v 3.57833 c 0,4.3057 2.1238,6.88162 8.0321,9.74177 2.4023,1.16295 4.3679,2.2993 4.3679,2.52524 0,1.08398 -3.9518,0.12369 -8,-1.94401 z m 86.5,-4.65118 c -13.62,-1.49755 -13.6742,-1.51901 -13.3108,-5.27833 0.2746,-2.8418 0.6014,-3.15756 2.8108,-2.71569 1.375,0.275 7.225,0.5 13,0.5 5.775,0 11.625,-0.225 13,-0.5 2.2254,-0.44509 2.5352,-0.13263 2.8204,2.8452 0.6462,6.74541 -0.604,7.09678 -18.3204,5.14882 z m 22.5,-8.55025 v -8.55623 l -4.75,-2.17882 c -3.9209,-1.79849 -6.5828,-2.17881 -15.25,-2.17881 -8.6672,0 -11.3292,0.38032 -15.25,2.17881 l -4.75,2.17882 v 7.19613 7.19614 l -5.25,-0.62175 c -9.3337,-1.10536 -29.2363,-4.44264 -33.7615,-5.66115 -3.4726,-0.93508 -4.0578,-1.37866 -2.7696,-2.09956 0.8983,-0.5027 12.804,-5.24839 26.4572,-10.54597 l 24.8239,-9.63196 8,1.1158 c 18.0369,2.51569 73.05,11.53249 73.7024,12.08 0.5752,0.4828 -47.9857,17.83305 -50.4524,18.02609 -0.4125,0.0323 -0.75,-3.79161 -0.75,-8.49754 z m -32.5,-4.47406 -3,-1.21499 3,-1.33225 c 5.9409,-2.63831 29.6403,-1.16283 26.8085,1.66904 -2.8425,2.84245 -20.5279,3.4218 -26.8085,0.8782 z m 382.9998,-8.67185 c -20.5946,-12.36329 -85.5797,-32.21993 -137.9998,-42.16679 -33.4722,-6.35143 -56.9821,-9.46347 -97,-12.840031 -29.5658,-2.494647 -120.3802,-2.488967 -154.5,0.0097 -48.4684,3.549391 -78.5654,6.912531 -119,13.297511 -64.0656,10.1165 -121.9901,25.79539 -147.961395,40.04993 l -6.4614,3.54637 -4.2886,-4.53905 c -5.6916,-6.0239 -5.8079,-9.51986 -0.4855,-14.583 16.358495,-15.56149 84.582595,-33.26394 165.696895,-42.994246 99.2701,-11.908245 209.1658,-14.213032 312,-6.54342 65.2527,4.866695 110.6635,12.043107 155.5,24.574166 36.58511,10.22494 55.30901,20.32036 56.68271,30.56189 0.4336,3.23299 0.063,4.47833 -2.0997,7.04809 -2.6486,3.14764 -11.5069,9.54416 -12.5309,9.04844 -0.3038,-0.14708 -3.7023,-2.15838 -7.55231,-4.46956 z M 64.194015,148.78937 c -2.5667,-4.20965 -2.5178,-9.47542 0.123,-13.25 1.1544,-1.65 1.8255,-2.17316 1.4913,-1.16258 -1.5651,4.73252 -1.6724,9.45293 -0.305,13.41258 1.7572,5.08821 1.3657,5.38725 -1.3093,1 z M 447.70501,141.5702 c -18.3593,-2.83605 -36.389,-9.19307 -38.0031,-13.39935 -1.2409,-3.23385 7.2778,-7.43365 21.589,-10.6436 10.158,-2.27837 46.4998,-3.17686 60.8302,-1.50393 19.2484,2.24708 39.9803,8.57157 44.0086,13.42531 1.9548,2.35538 0.5858,4.47738 -4.276,6.62799 -5.685,2.51473 -19.747,5.83437 -29.4645,6.95573 -10.7515,1.24066 -42.7211,0.38585 -54.6842,-1.46215 z m -60.2881,-2.44606 c -10.9165,-1.74675 -12.8139,-1.81116 -17,-0.57699 l -4.7119,1.38923 3,-2.45263 c 3.2204,-2.63285 15.6929,-8.98507 24.25,-12.35044 l 5.25,-2.06476 v 3.83753 c 0,4.57848 3.0886,9.57778 8.0238,12.98727 l 3.4762,2.40158 -5,-0.60228 c -2.75,-0.33126 -10.5296,-1.48709 -17.2881,-2.56851 z"
       id="path1" />
  </g>
</svg>
